<?xml version="1.0" encoding="UTF-8"?>
<svg width="300px" height="300px" viewBox="0 0 300 300" version="1.1" xmlns="http://www.w3.org/2000/svg" xmlns:xlink="http://www.w3.org/1999/xlink">
    <title>tp227-poster-01</title>
    <defs>
        <linearGradient x1="50%" y1="-8.60871582%" x2="50%" y2="97.6019775%" id="linearGradient-1">
            <stop stop-color="#EEEEEE" offset="0%"></stop>
            <stop stop-color="#FFFFFF" offset="100%"></stop>
        </linearGradient>
        <circle id="path-2" cx="125" cy="125" r="125"></circle>
        <filter x="-17.4%" y="-23.0%" width="134.8%" height="134.8%" filterUnits="objectBoundingBox" id="filter-4">
            <feMorphology radius="0.5" operator="dilate" in="SourceAlpha" result="shadowSpreadOuter1"></feMorphology>
            <feOffset dx="0" dy="-14" in="shadowSpreadOuter1" result="shadowOffsetOuter1"></feOffset>
            <feGaussianBlur stdDeviation="12" in="shadowOffsetOuter1" result="shadowBlurOuter1"></feGaussianBlur>
            <feComposite in="shadowBlurOuter1" in2="SourceAlpha" operator="out" result="shadowBlurOuter1"></feComposite>
            <feColorMatrix values="0 0 0 0 0   0 0 0 0 0   0 0 0 0 0  0 0 0 0.138740166 0" type="matrix" in="shadowBlurOuter1"></feColorMatrix>
        </filter>
    </defs>
    <g id="Page-1" stroke="none" stroke-width="1" fill="none" fill-rule="evenodd">
        <g id="tp227-poster-01" transform="translate(25, 39)">
            <mask id="mask-3" fill="white">
                <use xlink:href="#path-2"></use>
            </mask>
            <g id="Mask">
                <use fill="black" fill-opacity="1" filter="url(#filter-4)" xlink:href="#path-2"></use>
                <use stroke="#E8E8E8" stroke-width="1" fill="url(#linearGradient-1)" fill-rule="evenodd" xlink:href="#path-2"></use>
            </g>
            <g mask="url(#mask-3)">
                <g transform="translate(31, 28)">
                    <path d="M159.224528,187 C158.030186,187 157.062094,186.068368 157.062094,184.919007 L157.062094,125.58097 C157.062094,116.721048 154.45151,107.956591 149.512284,100.236399 C145.434987,93.8631999 143.367839,88.5166802 143.367839,84.3446446 C143.367839,82.5261831 143.288216,80.4878983 143.204242,78.3298623 C143.035425,74.0150463 142.844852,69.1245028 143.203807,64.0652188 C143.93216,53.7871219 146.112868,49 150.067033,49 C153.329393,49 155.665431,49.7394435 157.210027,51.2610389 C159.465137,53.4831378 159.387254,56.6410555 159.312418,59.6951329 C159.287617,60.7079946 159.261946,61.7556094 159.325035,62.7324619 C159.527356,65.8514395 160.055999,68.7175158 160.343163,70.1080547 C163.137359,71.7552635 171.00914,77.4648055 173.952574,90.8170779 C174.200145,91.9413168 173.453953,93.0458762 172.285716,93.2845414 C171.116174,93.5232066 169.969258,92.8046987 169.721687,91.6808786 C166.660342,77.7918188 157.863108,73.5084061 157.489795,73.3325475 C156.905024,73.0574544 156.469056,72.5382529 156.322428,71.9281911 C156.281094,71.7581944 155.314308,67.7046541 155.008869,62.991644 C154.934033,61.8364206 154.961879,60.6979456 154.988855,59.5967359 C155.044982,57.3034562 155.098499,55.1370459 154.11605,54.1689863 C153.447305,53.510354 152.114166,53.1716169 150.153183,53.1619865 C149.573633,53.563949 148.093867,56.2252756 147.518233,64.3482674 C147.175376,69.1881468 147.361598,73.96187 147.525629,78.1736831 C147.611779,80.3719154 147.692707,82.4483029 147.692707,84.3446446 C147.692707,87.6867951 149.595388,92.4274401 153.194948,98.0544961 C158.554043,106.431227 161.386962,115.949782 161.386962,125.58097 L161.386962,184.919007 C161.386962,186.068368 160.41887,187 159.224528,187" id="Fill-3" fill="#2F2626"></path>
                    <path d="M159.995068,75 C158.893164,75 158,74.0553545 158,72.8903625 L158,41.4398237 C158,38.1197663 160.939213,33 164.84465,33 L165.15535,33 C169.060787,33 172,38.1197663 172,41.4398237 L172,60.9615066 C172,62.1264986 171.106836,63.0715686 170.004932,63.0715686 C168.903028,63.0715686 168.009864,62.1264986 168.009864,60.9615066 L168.009864,41.4398237 C168.009864,39.9118331 166.359617,37.2196996 165.15535,37.2196996 L164.84465,37.2196996 C163.640383,37.2196996 161.990136,39.9118331 161.990136,41.4398237 L161.990136,72.8903625 C161.990136,74.0553545 161.096571,75 159.995068,75" id="Fill-4" fill="#2F2626"></path>
                    <path d="M180.004932,63 C178.903429,63 178.010265,62.0614231 178.010265,60.9044352 L178.010265,34.3818375 C178.010265,32.864345 176.359617,30.1911295 175.15535,30.1911295 L174.84465,30.1911295 C173.640383,30.1911295 171.990136,32.864345 171.990136,34.3818375 L171.990136,53.7689739 C171.990136,54.9268051 171.096972,55.8649603 169.995068,55.8649603 C168.893164,55.8649603 168,54.9268051 168,53.7689739 L168,34.3818375 C168,31.0845907 170.939213,26 174.84465,26 L175.15535,26 C179.060787,26 182,31.0845907 182,34.3818375 L182,60.9044352 C182,62.0614231 181.106836,63 180.004932,63" id="Fill-5" fill="#2F2626"></path>
                    <path d="M179.994724,63 C178.89319,63 178,62.0614231 178,60.9044352 L178,34.3818375 C178,31.0845907 180.938896,26 184.844444,26 L185.155154,26 C189.060703,26 192,31.0845907 192,34.3818375 L192,53.7689739 C192,54.9268051 191.10681,55.8649603 190.004875,55.8649603 C188.903341,55.8649603 188.010151,54.9268051 188.010151,53.7689739 L188.010151,34.3818375 C188.010151,32.864345 186.359455,30.1911295 185.155154,30.1911295 L184.844444,30.1911295 C183.640143,30.1911295 181.989849,32.864345 181.989849,34.3818375 L181.989849,60.9044352 C181.989849,62.0614231 181.096659,63 179.994724,63" id="Fill-6" fill="#2F2626"></path>
                    <path d="M193.88207,188 C192.796067,188 191.915791,187.069688 191.915791,185.921955 L191.915791,115.602084 C191.915791,112.971706 192.358105,110.391501 193.230468,107.932969 C198.944548,91.8291659 199.449767,82.7731546 198.918437,80.234344 C198.878478,80.0679331 198.865422,79.9274456 198.865422,79.7555992 L198.865422,44.3117618 C198.865422,42.8069562 197.238593,40.1556718 196.051704,40.1556718 L195.745882,40.1556718 C194.558993,40.1556718 192.932164,42.8069562 192.932164,44.3117618 L192.932164,60.4448332 C192.932164,61.5921482 192.051887,62.5228782 190.965884,62.5228782 C189.880276,62.5228782 189,61.5921482 189,60.4448332 L189,44.3117618 C189,42.7199877 189.679296,40.731838 190.774004,39.1245936 C192.145256,37.1096844 193.910951,36 195.745882,36 L196.051704,36 C197.886634,36 199.65233,37.1096844 201.023582,39.1245936 C202.117894,40.731838 202.797586,42.7199877 202.797586,44.3117618 L202.797586,79.5390142 C203.112507,81.2971992 203.938582,89.5926543 196.912594,109.3922 C196.206395,111.38244 195.847954,113.471774 195.847954,115.602084 L195.847954,185.921955 C195.847954,187.069688 194.967678,188 193.88207,188" id="Fill-7" fill="#2F2626"></path>
                    <path d="M100.503874,115.210456 C99.1274138,115.210456 97.7031885,115.575486 96.2390897,116.306808 C92.599818,118.123535 91.4995634,121.210497 91.217958,123.480248 C90.6530859,128.02775 92.7858935,133.53477 96.2889314,136.574998 C100.548316,140.271606 107.573083,146.505317 110.517479,149.122414 C113.458137,146.500685 120.473765,140.25687 124.728166,136.553526 C128.226635,133.508666 130.351136,127.998278 129.780034,123.451619 C129.49469,121.182289 128.390697,118.09701 124.748518,116.285336 C116.959513,112.411476 112.474595,120.156248 112.287688,120.487596 C111.920521,121.138923 111.237691,121.540582 110.497542,121.541424 C110.497127,121.541424 110.496711,121.541424 110.496296,121.541424 C109.756563,121.541424 109.073732,121.140607 108.705735,120.490543 C108.697012,120.475386 107.445571,118.329417 105.223464,116.777515 C103.727799,115.73295 102.149895,115.210456 100.503874,115.210456 Z M110.519556,154 C110.033184,154 109.546813,153.826537 109.157217,153.479612 C109.056703,153.390354 99.0518207,144.481866 93.6037121,139.753744 C89.0498459,135.801994 86.3845632,128.895063 87.1218044,122.957755 C87.6991369,118.307523 90.2892418,114.612178 94.4148851,112.552519 C101.649817,108.940116 107.366655,112.366005 110.493389,115.917359 C113.615138,112.361374 119.326577,108.926644 126.567323,112.528521 C130.695874,114.581865 133.291379,118.27342 133.875357,122.92281 C134.620905,128.859276 131.96559,135.769996 127.417539,139.728904 C121.976076,144.465025 111.984485,153.388249 111.883971,153.477928 C111.494375,153.826116 111.006758,154 110.519556,154 L110.519556,154 Z" id="Fill-8" fill="#CD272A"></path>
                    <path d="M64.9920733,173 C57.8164283,173 52.0044466,170.764477 47.6957356,166.343276 C37.6294732,156.013876 36.4249454,144.790183 37.1869682,137.193089 C38.0075761,129.009993 41.1836404,123.293218 41.3182617,123.054042 C41.881261,122.054193 43.141881,121.704434 44.133674,122.271588 C45.124636,122.838742 45.471992,124.107926 44.9110702,125.107356 C44.8595484,125.199927 41.9809805,130.447982 41.2804514,137.769458 C40.3522296,147.467198 43.5021175,156.099326 50.6416142,163.425409 C59.3238539,172.335249 74.5776049,168.535655 85.8450711,163.779775 C98.5015461,158.436635 109.120005,150.695449 109.225957,150.617958 C110.001691,150.049129 111.064534,150.093529 111.790824,150.725608 C118.297102,156.390023 125.204336,160.912173 132.32098,164.166394 C147.772093,171.232357 165.073416,167.929546 175.374435,155.948532 C176.1215,155.079371 177.425747,154.985543 178.287489,155.738676 C179.149231,156.491809 179.242303,157.806232 178.495653,158.674974 C166.986368,172.061306 147.74467,175.791367 130.615362,167.958449 C123.587219,164.744439 116.766824,160.365544 110.321209,154.930252 C107.027559,157.213946 98.0710905,163.123401 87.5037379,167.593192 C79.7202197,170.885112 72.6854284,172.692129 66.5963098,172.963558 C66.0545009,172.987853 65.5189243,173 64.9920733,173" id="Fill-9" fill="#CD272A"></path>
                    <path d="M23.6606335,4.15223626 C14.5483208,4.15223626 8.76896964,5.91672781 5.99198684,9.54638383 C2.93140082,13.5469841 4.3319516,18.8287623 5.25844421,22.3230738 C5.25844421,22.3230738 5.25844421,22.3230738 5.25844421,22.3234915 C7.06776619,29.1483644 7.99134792,38.7958388 9.06088966,49.9671924 C10.2285698,62.1665795 8.71865294,82.5743612 6.17578833,88.9610353 C3.57221102,95.4989276 7.08606317,100.68421 8.97356316,103.469634 C9.11120636,103.672651 9.24136443,103.865224 9.36154233,104.046519 C10.0339564,105.058261 12.3248217,106.72208 16.3655437,109.131964 C22.6364183,112.871483 29.8342014,114.848181 37.1804395,114.848181 L48.819399,114.848181 C56.1656371,114.848181 63.3634202,112.871483 69.6347106,109.131964 C73.6754326,106.72208 75.9662979,105.058261 76.6382961,104.046101 C76.7518206,103.874832 76.8753252,103.692284 77.0058991,103.49971 L77.0262753,103.469634 C78.9141911,100.68421 82.4280433,95.4997631 79.824466,88.9610353 C77.2811855,82.5747789 75.7712687,62.1665795 76.9389488,49.9671924 C78.0084906,38.7958388 78.9316564,29.1483644 80.7413943,22.3230738 C81.6683027,18.8283446 83.0684377,13.5469841 80.0082675,9.54638383 C77.2312847,5.91672781 71.4519335,4.15223626 62.3396209,4.15223626 L23.6606335,4.15223626 Z M48.819399,119 L37.1804395,119 C29.0919261,119 21.1647588,116.822373 14.2555691,112.702302 C8.60138592,109.330386 6.83531135,107.724214 5.92295732,106.349882 C5.80943286,106.179031 5.68717576,105.997736 5.55743352,105.806833 C3.57013182,102.874369 -1.08270743,96.0085582 2.33799644,87.4187761 C4.61056473,81.7117487 6.02483824,61.6260369 4.946148,50.3644536 C3.8944874,39.3764836 2.98629177,29.8864933 1.2642963,23.3916271 C0.267942481,19.6341457 -1.58670611,12.6392568 2.71474793,7.01619318 C6.32632259,2.29542638 13.1781264,0 23.6606335,0 L62.3396209,0 C72.8225438,0 79.6735159,2.29542638 83.2850905,7.01661091 C87.5869604,12.6392568 85.731896,19.6341457 84.7355422,23.3916271 C83.0135467,29.8860755 82.1053511,39.3764836 81.0536905,50.3644536 C79.9754161,61.6260369 81.3892737,81.7117487 83.661842,87.4187761 C87.0829617,96.0098114 82.4297067,102.874786 80.4432366,105.805998 L80.4228604,105.836074 C80.3010192,106.016116 80.1849997,106.186968 80.0781287,106.348211 C79.164943,107.723796 77.3988684,109.329968 71.7446852,112.702302 C64.8350797,116.822373 56.9079124,119 48.819399,119 L48.819399,119 Z" id="Fill-10" fill="#2F2626"></path>
                    <path d="M20.3754994,85.377759 L66.8448257,85.377759 L66.8448257,35.4412701 L20.3754994,35.4412701 L20.3754994,85.377759 Z M77.0250759,25.437163 C77.99303,21.7870044 78.7627083,17.9935458 76.6670082,15.2540358 C74.507726,12.4317396 69.5165296,11 61.831041,11 L26.1685834,11 C18.4835131,11 13.4918984,12.4317396 11.3330345,15.2540358 C9.23733438,17.9935458 10.0070127,21.7870044 10.9745485,25.437163 C12.682063,31.8768394 13.5404216,40.8429669 14.5338922,51.2257055 C15.5486963,61.824865 14.4418655,81.2842529 11.7509196,88.0424672 C9.71336367,93.1605056 12.3796296,97.095163 14.1440334,99.6989372 C14.2745441,99.8909845 14.3979436,100.072946 14.5117221,100.244822 C14.6087685,100.391064 14.9731108,100.816341 16.2874201,101.752624 C18.950758,103.649984 21.261466,106.007921 23.079831,108.731882 C23.0802493,108.733143 23.0806676,108.733563 23.0806676,108.733563 L23.0944716,108.735664 L23.0944716,122.992546 C23.0944716,123.925888 23.7737963,124.759213 24.6986652,124.848303 C25.7594827,124.95 26.6521421,124.114573 26.6521421,123.069449 L26.6521421,109.126482 C26.7245086,108.238106 34.9437524,109.384086 38.6340251,109.384086 L49.3655992,109.384086 C52.966355,109.384086 61.262985,108.228861 61.3474823,109.269782 L61.3474823,123.136267 C61.3474823,124.069188 62.026807,124.902933 62.9516759,124.991603 C64.0124933,125.0933 64.9051528,124.257873 64.9051528,123.212749 L64.9051528,108.878964 L64.9193751,108.876863 C64.9193751,108.876863 64.977101,108.790295 65.0774938,108.640691 C66.8745253,105.954971 69.1270892,103.600816 71.7519431,101.724468 C73.0340431,100.807937 73.3921108,100.389383 73.4883206,100.244402 C73.6020991,100.072946 73.7254986,99.8909845 73.8560093,99.698517 C75.6199948,97.0947428 78.286679,93.1600854 76.2487048,88.0424672 C73.5581772,81.2846731 72.4513464,61.8252853 73.4657322,51.2257055 C74.4596211,40.8433871 75.3175614,31.8776799 77.0250759,25.437163 L77.0250759,25.437163 Z" id="Fill-11" fill="#CD272A"></path>
                    <path d="M26.2268687,76.7936525 L57.7731313,76.7936525 L57.7731313,43.2067613 L26.2268687,43.2067613 L26.2268687,76.7936525 Z M58.8867745,79 L25.1136432,79 C24.4983407,79 24,78.5062516 24,77.8970332 L24,42.1033807 C24,41.8107737 24.1169618,41.530169 24.3258221,41.3232334 C24.5346824,41.1162978 24.817897,41 25.1132255,41 L58.8867745,41 C59.5016593,41 60,41.4941622 60,42.1033807 L60,77.8970332 C60,78.5062516 59.5016593,79 58.8867745,79 L58.8867745,79 Z" id="Fill-12" fill="#2F2626"></path>
                    <path d="M27.1701314,77.6951441 L37.8298686,77.6951441 L37.8298686,47.3048559 L27.1701314,47.3048559 L27.1701314,77.6951441 Z M38.9147308,80 L26.0852692,80 C25.4856437,80 25,79.4842069 25,78.8477882 L25,46.1522118 C25,45.8469729 25.1139818,45.5534075 25.3175206,45.3372327 C25.5210595,45.1210579 25.7970582,45 26.0848621,45 L38.9147308,45 C39.5139492,45 40,45.5157931 40,46.1522118 L40,78.8477882 C40,79.4842069 39.5139492,80 38.9147308,80 L38.9147308,80 Z" id="Fill-13" fill="#2F2626"></path>
                    <path d="M26.2268687,45.366432 L57.7731313,45.366432 L57.7731313,42.634062 L26.2268687,42.634062 L26.2268687,45.366432 Z M58.8867745,48 L25.1132255,48 C24.4983407,48 24,47.4101519 24,46.682969 L24,41.317031 C24,40.5898481 24.4983407,40 25.1132255,40 L58.8867745,40 C59.5016593,40 60,40.5898481 60,41.317031 L60,46.682969 C60,47.4101519 59.5016593,48 58.8867745,48 L58.8867745,48 Z" id="Fill-14" fill="#2F2626"></path>
                    <path d="M58.9274673,62 L39.0725327,62 C38.4801244,62 38,61.776027 38,61.4999062 C38,61.2237854 38.4801244,61 39.0725327,61 L58.9274673,61 C59.5198756,61 60,61.2237854 60,61.4999062 C60,61.776027 59.5198756,62 58.9274673,62" id="Fill-15" fill="#2F2626"></path>
                    <path d="M58.9274673,67 L39.0725327,67 C38.4801244,67 38,66.7762146 38,66.4999062 C38,66.2237854 38.4801244,66 39.0725327,66 L58.9274673,66 C59.5198756,66 60,66.2237854 60,66.4999062 C60,66.7762146 59.5198756,67 58.9274673,67" id="Fill-16" fill="#2F2626"></path>
                    <path d="M33.7924357,50 L28.2075643,50 C27.5403692,50 27,49.776027 27,49.4999062 C27,49.2237854 27.5403692,49 28.2075643,49 L33.7924357,49 C34.4591779,49 35,49.2237854 35,49.4999062 C35,49.776027 34.4591779,50 33.7924357,50" id="Fill-17" fill="#2F2626"></path>
                    <path d="M33.7924357,54 L28.2075643,54 C27.5403692,54 27,53.7762146 27,53.5000938 C27,53.223973 27.5403692,53 28.2075643,53 L33.7924357,53 C34.4591779,53 35,53.223973 35,53.5000938 C35,53.7762146 34.4591779,54 33.7924357,54" id="Fill-18" fill="#2F2626"></path>
                    <path d="M33.7924357,57 L28.2075643,57 C27.5403692,57 27,56.7762146 27,56.5000938 C27,56.223973 27.5403692,56 28.2075643,56 L33.7924357,56 C34.4591779,56 35,56.223973 35,56.5000938 C35,56.7762146 34.4591779,57 33.7924357,57" id="Fill-19" fill="#2F2626"></path>
                    <path d="M50.9046836,71 L44.0953164,71 C43.4905505,71 43,70.776069 43,70.5 C43,70.223931 43.4905505,70 44.0953164,70 L50.9046836,70 C51.5098603,70 52,70.223931 52,70.5 C52,70.776069 51.5098603,71 50.9046836,71" id="Fill-20" fill="#2F2626"></path>
                    <path d="M50.9046836,73 L44.0953164,73 C43.4905505,73 43,72.776069 43,72.5 C43,72.223931 43.4905505,72 44.0953164,72 L50.9046836,72 C51.5098603,72 52,72.223931 52,72.5 C52,72.776069 51.5098603,73 50.9046836,73" id="Fill-21" fill="#2F2626"></path>
                    <path d="M41.0201813,118.226003 C40.6634844,118.226003 40.3626183,118.509526 40.3626183,118.84566 L40.3626183,121.153922 C40.3626183,121.490057 40.6634844,121.773579 41.0201813,121.773579 L45.9802618,121.773579 C46.3365156,121.773579 46.6378248,121.490057 46.6378248,121.153922 L46.6378248,118.84566 C46.6378248,118.509526 46.3365156,118.226003 45.9802618,118.226003 L41.0201813,118.226003 Z M45.9802618,124 L41.0201813,124 C39.355005,124 38,122.723524 38,121.153922 L38,118.84566 C38,117.276476 39.355005,116 41.0201813,116 L45.9802618,116 C47.6454381,116 49,117.276476 49,118.84566 L49,121.153922 C49,122.723524 47.6454381,124 45.9802618,124 L45.9802618,124 Z" id="Fill-22" fill="#2F2626"></path>
                    <path d="M22.568036,114.090212 C22.3592193,114.090212 22.1827487,114.258777 22.1827487,114.458312 L22.1827487,125.541688 C22.1827487,125.741615 22.3592193,125.91018 22.568036,125.91018 L26.4323734,125.91018 C26.6407807,125.91018 26.8172513,125.741615 26.8172513,125.541688 L26.8172513,114.458312 C26.8172513,114.258777 26.6407807,114.090212 26.4323734,114.090212 L22.568036,114.090212 Z M26.4323734,128 L22.568036,128 C21.1517674,128 20,126.897268 20,125.541688 L20,114.458312 C20,113.102732 21.1517674,112 22.568036,112 L26.4323734,112 C27.8482326,112 29,113.102732 29,114.458312 L29,125.541688 C29,126.897268 27.8482326,128 26.4323734,128 L26.4323734,128 Z" id="Fill-23" fill="#2F2626"></path>
                    <path d="M22.9249097,115.283057 L24.0754513,115.283057 L24.0754513,112.716943 L22.9249097,112.716943 L22.9249097,115.283057 Z M24.3209386,118 L22.6790614,118 C21.7530686,118 21,116.93707 21,115.630064 L21,111.358471 C21,110.607898 21.4310469,110 21.9624549,110 L25.0379061,110 C25.5693141,110 26,110.607898 26,111.358471 L26,115.630064 C26,116.93707 25.2469314,118 24.3209386,118 L24.3209386,118 Z" id="Fill-24" fill="#2F2626"></path>
                    <path d="M59.5676266,114.090161 C59.3592193,114.090161 59.1827487,114.258722 59.1827487,114.458644 L59.1827487,125.541356 C59.1827487,125.741278 59.3592193,125.909839 59.5676266,125.909839 L63.4323734,125.909839 C63.6411901,125.909839 63.8172513,125.741278 63.8172513,125.541356 L63.8172513,114.458644 C63.8172513,114.258722 63.6411901,114.090161 63.4323734,114.090161 L59.5676266,114.090161 Z M63.4323734,128 L59.5676266,128 C58.1517674,128 57,126.896903 57,125.541356 L57,114.458644 C57,113.103097 58.1517674,112 59.5676266,112 L63.4323734,112 C64.8482326,112 66,113.103097 66,114.458644 L66,125.541356 C66,126.896903 64.8482326,128 63.4323734,128 L63.4323734,128 Z" id="Fill-25" fill="#2F2626"></path>
                    <path d="M61.9245487,115.283057 L63.0754513,115.283057 L63.0754513,112.716943 L61.9245487,112.716943 L61.9245487,115.283057 Z M63.3212996,118 L61.6790614,118 C60.7530686,118 60,116.93707 60,115.630064 L60,111.358471 C60,110.608408 60.4310469,110 60.9624549,110 L64.0379061,110 C64.5689531,110 65,110.608408 65,111.358471 L65,115.630064 C65,116.93707 64.2469314,118 63.3212996,118 L63.3212996,118 Z" id="Fill-26" fill="#2F2626"></path>
                    <path d="M168.401143,152 C166.96009,152 165.605224,151.439454 164.585536,150.42081 C163.565015,149.401749 163.002084,148.045778 163.001251,146.602768 L163,144.417638 C162.998753,142.975045 163.559186,141.618657 164.578458,140.597514 C165.59773,139.576788 166.953428,139.014159 168.395731,139.01291 L185.594277,139 C185.595526,139 185.597191,139 185.598024,139 C188.574231,139 190.995834,141.420425 190.998332,144.397232 L191,146.582362 C191.001247,148.024955 190.439981,149.382176 189.421126,150.402902 C188.401854,151.423629 187.046156,151.986674 185.603853,151.987506 L179.851296,151.991671 C179.851296,151.991671 179.85088,151.991671 179.850464,151.991671 C179.237984,151.991671 178.741256,151.494842 178.74084,150.88224 C178.740007,150.269221 179.236735,149.771976 179.849631,149.771143 L185.602188,149.766978 C186.451997,149.766562 187.250177,149.435065 187.850165,148.833707 C188.450569,148.232765 188.78075,147.433592 188.779917,146.584027 L188.778252,144.398898 C188.777419,142.646047 187.350522,141.220528 185.598024,141.220528 C185.597608,141.220528 185.596775,141.220528 185.595942,141.220528 L168.397396,141.233022 C167.547586,141.233854 166.749407,141.565351 166.149419,142.166709 C165.549431,142.767651 165.218834,143.566408 165.219666,144.415973 L165.221332,146.601102 C165.222164,148.35437 166.649062,149.779889 168.40156,149.779889 C168.402392,149.779889 168.402809,149.779889 168.403642,149.779889 L174.082501,149.775724 C174.082917,149.775724 174.083334,149.775724 174.083334,149.775724 C174.695813,149.775724 175.192541,150.272136 175.193374,150.885155 C175.19379,151.497758 174.697062,151.995419 174.084167,151.995835 L168.405307,152 C168.404058,152 168.402809,152 168.401143,152" id="Fill-27" fill="#2F2626"></path>
                    <path d="M175.158624,143.728468 L175.159838,146.275618 L179.841372,146.271532 L179.840158,143.723872 L175.158624,143.728468 Z M174.081944,149 C173.796179,149 173.521747,148.856988 173.319363,148.60212 C173.11698,148.346741 173.002835,148.000447 173.002835,147.639341 L173.000001,142.368831 C172.999192,141.616995 173.482079,141.007151 174.077896,141.00664 L180.917243,141 C180.917648,141 180.917648,141 180.918052,141 C181.203818,141 181.47825,141.143012 181.680633,141.39788 C181.883017,141.653259 181.996756,141.999553 181.997161,142.360148 L182.000001,147.631169 C182.000399,148.383005 181.517917,148.992849 180.9221,148.99336 L174.082754,149 C174.082349,149 174.081944,149 174.081944,149 L174.081944,149 Z" id="Fill-28" fill="#2F2626"></path>
                    <path d="M176.27721,148.235173 L175.417415,153.63091 C175.35513,154.022002 175.546497,154.295851 175.666101,154.423982 C175.785705,154.552113 176.049285,154.767339 176.474444,154.767339 C176.474895,154.767339 176.475346,154.767339 176.475798,154.767339 L178.525766,154.766083 C178.951827,154.765664 179.215408,154.550019 179.33456,154.421469 C179.453713,154.29292 179.644628,154.019071 179.581893,153.628397 L178.713522,148.23308 L176.27721,148.235173 Z M176.474444,157 C175.463902,157 174.505716,156.592996 173.845411,155.883251 C173.183752,155.173087 172.889481,154.233041 173.037519,153.30472 L174.048512,146.955957 C174.13562,146.409098 174.641568,146.00335 175.237783,146.002931 L179.749338,146 C179.74979,146 179.74979,146 179.750241,146 C180.346005,146 180.851952,146.404492 180.939963,146.95177 L181.961788,153.298439 C182.11118,154.226761 181.818263,155.167225 181.157958,155.878226 C180.497653,156.589646 179.539016,156.997906 178.527571,156.998325 L176.477603,157 C176.4767,157 176.475346,157 176.474444,157 L176.474444,157 Z" id="Fill-29" fill="#2F2626"></path>
                    <path d="M170,144.499835 C169.99967,144.223654 169.77576,143.99967 169.49967,144 C169.22358,144 168.99967,144.224315 169,144.500496 C169.000331,144.776676 169.224241,145.00033 169.50033,145 C169.77642,145 170,144.776016 170,144.499835" id="Fill-30" fill="#2F2626"></path>
                    <path d="M168,145.49967 C167.99967,145.22358 167.77576,144.99967 167.49967,145 C167.22358,145.000331 167,145.224241 167,145.50033 C167.00033,145.77642 167.22424,146 167.50033,146 C167.77642,145.99967 168,145.77576 168,145.49967" id="Fill-31" fill="#2F2626"></path>
                    <path d="M168,143.499835 C168,143.223654 167.776016,142.99967 167.499835,143 C167.223654,143.000331 167,143.224315 167,143.500496 C167,143.776676 167.224314,144.00033 167.500495,144 C167.776676,144 168.00033,143.776016 168,143.499835" id="Fill-32" fill="#2F2626"></path>
                    <path d="M184,144.50033 C184,144.22424 184.22358,144.00033 184.49967,144 C184.77576,144 184.99967,144.22358 185,144.49967 C185,144.77576 184.77675,144.99967 184.50033,145 C184.22424,145 184.00033,144.77642 184,144.50033" id="Fill-33" fill="#2F2626"></path>
                    <path d="M186,145.500495 C185.99967,145.224314 186.223324,145.00033 186.499504,145 C186.775685,145 187,145.223654 187,145.499835 C187.00033,145.776016 186.776346,146 186.500165,146 C186.224315,146.00033 186,145.776676 186,145.500495" id="Fill-34" fill="#2F2626"></path>
                    <path d="M186,143.50033 C185.99967,143.22424 186.22358,143.00033 186.49967,143 C186.77576,143 186.99967,143.22358 187,143.49967 C187,143.77576 186.77642,143.99967 186.50033,144 C186.224241,144 186.000331,143.77642 186,143.50033" id="Fill-35" fill="#2F2626"></path>
                </g>
            </g>
        </g>
    </g>
</svg>