<?xml version="1.0" encoding="UTF-8"?>
<svg width="300px" height="300px" viewBox="0 0 300 300" version="1.1" xmlns="http://www.w3.org/2000/svg" xmlns:xlink="http://www.w3.org/1999/xlink">
    <title>tp227-poster-01</title>
    <defs>
        <linearGradient x1="50%" y1="-8.60871582%" x2="50%" y2="97.6019775%" id="linearGradient-1">
            <stop stop-color="#EEEEEE" offset="0%"></stop>
            <stop stop-color="#FFFFFF" offset="100%"></stop>
        </linearGradient>
        <circle id="path-2" cx="125" cy="125" r="125"></circle>
        <filter x="-17.4%" y="-23.0%" width="134.8%" height="134.8%" filterUnits="objectBoundingBox" id="filter-4">
            <feMorphology radius="0.5" operator="dilate" in="SourceAlpha" result="shadowSpreadOuter1"></feMorphology>
            <feOffset dx="0" dy="-14" in="shadowSpreadOuter1" result="shadowOffsetOuter1"></feOffset>
            <feGaussianBlur stdDeviation="12" in="shadowOffsetOuter1" result="shadowBlurOuter1"></feGaussianBlur>
            <feComposite in="shadowBlurOuter1" in2="SourceAlpha" operator="out" result="shadowBlurOuter1"></feComposite>
            <feColorMatrix values="0 0 0 0 0   0 0 0 0 0   0 0 0 0 0  0 0 0 0.138740166 0" type="matrix" in="shadowBlurOuter1"></feColorMatrix>
        </filter>
    </defs>
    <g id="Page-1" stroke="none" stroke-width="1" fill="none" fill-rule="evenodd">
        <g id="Onboarding-1-Copy" transform="translate(-58, -109)">
            <g id="tp227-poster-01" transform="translate(83, 148)">
                <mask id="mask-3" fill="white">
                    <use xlink:href="#path-2"></use>
                </mask>
                <g id="Mask">
                    <use fill="black" fill-opacity="1" filter="url(#filter-4)" xlink:href="#path-2"></use>
                    <use stroke="#E8E8E8" stroke-width="1" fill="url(#linearGradient-1)" fill-rule="evenodd" xlink:href="#path-2"></use>
                </g>
                <g id="tp227-socialmedia-05" mask="url(#mask-3)">
                    <g transform="translate(-18, 1.5)">
                        <polygon id="Fill-1" fill="#F3F2EF" points="0 286 286 286 286 0 0 0"></polygon>
                        <path d="M142.346198,221 C141.13349,221 139.835253,220.748834 138.50006,220.240691 C135.880358,219.243949 132.530496,215.586589 128.259093,209.060229 C127.779711,208.328123 127.984557,207.345908 128.716564,206.866553 C129.447779,206.386933 130.430035,206.591881 130.909153,207.323987 C135.942128,215.014268 138.530946,216.8617 139.626184,217.278462 C141.864177,218.130208 143.834233,217.987062 145.031367,216.885206 C146.228236,215.783613 146.534977,213.831595 145.873188,211.52937 C145.658839,210.783002 146.016527,209.990944 146.718176,209.658961 C147.419562,209.327242 148.258743,209.552526 148.69932,210.19193 C148.823125,210.368354 151.859118,214.618371 156.212883,213.319491 C157.736027,212.86549 158.026401,212.135233 158.121433,211.895423 C158.626156,210.625594 157.814428,208.739075 157.490265,208.178374 C157.057343,207.42963 157.304953,206.47224 158.045671,206.026691 C158.787445,205.581406 159.748056,205.812764 160.205527,206.546983 C160.215558,206.562829 161.307893,208.296959 162.805431,209.733703 C163.917564,210.80149 165.488752,211.940585 166.660808,211.302238 C169.331722,209.846741 168.103176,206.150557 168.049588,205.993942 C167.772413,205.184716 168.186064,204.298107 168.985913,203.995176 C169.78629,203.692245 170.680114,204.075729 171.008237,204.865674 C171.014044,204.879672 171.940602,207.00653 173.725347,207.653329 C174.689389,208.001951 175.760605,207.865407 177.000503,207.232606 C177.188454,207.136735 177.460086,206.940767 177.648301,206.349166 C178.817717,202.670941 174.663783,192.546117 171.770865,187.027856 C171.748427,186.985598 169.178352,182.145301 165.648722,176.416546 C165.189667,175.671498 165.421174,174.695093 166.165852,174.236074 C166.910794,173.776527 167.886187,174.008414 168.345242,174.753461 C171.93189,180.574654 174.547106,185.500786 174.573239,185.54991 C175.405029,187.136668 182.616867,201.177149 180.666872,207.309725 C180.267212,208.566612 179.497193,209.516343 178.439967,210.055914 C176.392565,211.10046 174.433068,211.291145 172.616118,210.621897 C172.1436,210.44785 171.710942,210.224415 171.317089,209.969815 C170.936171,211.54865 170.017797,213.081794 168.175769,214.085666 C166.696445,214.891722 164.324616,215.237439 161.230284,212.582367 C161.183824,212.744529 161.129181,212.905634 161.065298,213.065947 C160.630529,214.159881 159.593102,215.618546 157.117794,216.356726 C154.460871,217.148785 151.762767,216.699538 149.295907,215.057582 C149.057536,216.713272 148.341632,218.144998 147.175912,219.217803 C145.892458,220.398627 144.222015,221 142.346198,221" id="Fill-3" fill="#382C2A"></path>
                        <path d="M147.305115,213 C146.68557,213 146.088635,212.673236 145.789886,212.106681 L141.182298,203.358822 C140.760318,202.557355 141.095811,201.5795 141.931858,201.174702 C142.767905,200.770175 143.787951,201.092063 144.209932,201.89353 L148.817519,210.641389 C149.239782,211.442856 148.904289,212.42044 148.068242,212.825238 C147.823193,212.943914 147.562317,213 147.305115,213" id="Fill-4" fill="#382C2A"></path>
                        <path d="M158.396546,209 C157.806407,209 157.23873,208.670365 156.958233,208.100923 L151.167815,196.339012 C150.773677,195.538394 151.097491,194.567294 151.891116,194.169412 C152.684742,193.771531 153.64736,194.098468 154.041767,194.899086 L159.832185,206.661267 C160.226323,207.461615 159.902509,208.432985 159.108884,208.830867 C158.879727,208.94551 158.636398,209 158.396546,209" id="Fill-5" fill="#382C2A"></path>
                        <path d="M169.410289,207 C168.826205,207 168.263861,206.674714 167.985739,206.112347 L160.167812,190.320353 C159.775417,189.527586 160.094635,188.564826 160.88075,188.169244 C161.66766,187.773395 162.622397,188.095741 163.014527,188.887973 L170.832188,204.679967 C171.224583,205.472467 170.905365,206.435494 170.11925,206.830809 C169.891237,206.945741 169.648642,207 169.410289,207" id="Fill-6" fill="#382C2A"></path>
                        <path d="M107.720813,184.008509 C106.753973,185.167208 106.885686,186.917885 108.014221,187.910566 L109.45769,189.179767 C110.586482,190.172186 112.291328,190.037215 113.258168,188.878516 L117.051214,184.331598 C118.358869,182.764303 118.180774,180.396653 116.654023,179.054046 C115.127272,177.71144 112.82177,177.894032 111.513859,179.462117 L107.720556,184.008509 L107.720813,184.008509 Z M111.207125,193 C109.8782,193 108.543126,192.532469 107.457385,191.577411 L106.013916,190.308209 C103.597457,188.183139 103.31558,184.435786 105.385329,181.954476 L109.178375,177.408084 C111.589453,174.518967 115.83991,174.181408 118.654328,176.656403 C121.468747,179.131661 121.797262,183.496251 119.386441,186.38563 L115.593651,190.932286 C114.453841,192.298309 112.835095,193 111.207125,193 L111.207125,193 Z" id="Fill-7" fill="#382C2A"></path>
                        <path d="M103.177707,177.891328 C102.947737,178.159022 103.067599,178.934771 103.779327,179.541423 L104.82754,180.435182 C105.539268,181.041835 106.327994,181.040302 106.558478,180.773375 L108.715734,178.266303 C109.149239,177.762846 108.938005,176.610078 107.941894,175.76102 C106.94604,174.911962 105.768725,174.88131 105.335477,175.384768 L103.177707,177.891328 Z M106.057471,184 C104.956898,184 103.79139,183.587732 102.824025,182.763195 L101.775555,181.869436 C99.8428796,180.22164 99.4224649,177.542918 100.838477,175.897421 L100.838734,175.897421 L102.996246,173.390605 C104.606296,171.520072 107.72373,171.538974 109.945409,173.433007 C112.167344,175.32704 112.665014,178.389933 111.055221,180.260466 L108.897452,182.767282 C108.190087,183.589009 107.155991,184 106.057471,184 L106.057471,184 Z" id="Fill-8" fill="#382C2A"></path>
                        <path d="M122.285012,187.155321 C121.256422,187.155321 120.233725,187.598304 119.513661,188.461122 L115.720894,193.007226 C115.720638,193.007226 115.720638,193.007226 115.720638,193.007226 C114.753804,194.165717 114.885773,195.915818 116.014558,196.908584 L117.457762,198.177558 C118.004344,198.658158 118.702115,198.892277 119.418592,198.834668 C120.136606,198.777848 120.789789,198.437193 121.258216,197.875835 L125.051238,193.330257 C126.358886,191.763243 126.180791,189.396017 124.65405,188.053651 C123.96781,187.450468 123.124489,187.155321 122.285012,187.155321 Z M119.201804,202 C117.827531,202 116.512453,201.502564 115.457469,200.574772 L114.014008,199.305798 C111.597564,197.180846 111.315432,193.4339 113.385426,190.953562 L117.178192,186.407721 C119.589255,183.518595 123.839941,183.181886 126.654343,185.656175 C129.468744,188.131252 129.797258,192.494797 127.386451,195.383922 L123.593428,199.9295 C122.590976,201.131132 121.192359,201.860055 119.655624,201.982112 C119.503923,201.994213 119.352479,202 119.201804,202 L119.201804,202 Z" id="Fill-9" fill="#382C2A"></path>
                        <path d="M122.722295,202.008716 C122.254043,202.569948 122.026577,203.28477 122.082163,204.021419 C122.137749,204.758069 122.469214,205.428444 123.015849,205.9092 L124.458516,207.177889 C125.005151,207.658908 125.701637,207.893236 126.418872,207.835114 C127.136363,207.77857 127.789303,207.437992 128.257555,206.87676 L132.049166,202.332201 C132.682382,201.573196 132.989768,200.606162 132.914714,199.609936 C132.839661,198.613447 132.391389,197.706902 131.652125,197.056515 C130.912861,196.40639 129.97149,196.090007 129.000661,196.167591 C128.030089,196.244648 127.146865,196.70489 126.513906,197.464157 L122.722039,202.008716 L122.722295,202.008716 Z M126.202165,211 C124.828148,211 123.513559,210.502413 122.458711,209.574828 L121.016045,208.306139 C119.845927,207.277038 119.136121,205.84161 119.017521,204.264427 C118.898921,202.687244 119.38536,201.157138 120.387696,199.955775 L124.179306,195.410953 C125.346606,194.011818 126.974729,193.162869 128.763974,193.021115 C130.553475,192.878571 132.288927,193.461369 133.651673,194.659838 C135.014676,195.858045 135.841289,197.529906 135.979613,199.366665 C136.11768,201.203688 135.551065,202.986007 134.383765,204.385142 L130.591898,208.929964 C129.589819,210.131326 128.191723,210.859823 126.65556,210.981853 C126.503916,210.993688 126.352784,211 126.202165,211 L126.202165,211 Z" id="Fill-10" fill="#382C2A"></path>
                        <path d="M65.0808097,166.581436 L99.9237855,177.921635 C100.086755,177.97467 100.252366,178 100.415071,178 C101.082533,178 101.703507,177.575194 101.92168,176.906851 C102.19268,176.075446 101.737844,175.181771 100.905564,174.911056 L66.0219121,163.557665 C65.9947065,163.548957 65.9672368,163.540778 65.939767,163.53339 L0.408876371,146.051979 C0.272055983,146.015567 0.135235596,146 0,146 L0,149.220079 L65.0808097,166.581436" id="Fill-11" fill="#382C2A"></path>
                        <path d="M141.410886,141.80836 C141.092683,141.550901 133.510642,135.556423 123.7282,140.71038 C121.848653,141.700975 115.832459,142.526117 96.656786,136.923794 C85.5106527,133.667239 75.3119765,129.782282 75.2295774,129.750995 L0.586331812,100.111099 C0.393713996,100.034736 0.195267305,100 0,100 L0,103.301366 L74.076255,132.715886 C74.1790552,132.755128 84.4810614,136.680122 95.7477465,139.972737 C111.418146,144.552383 121.055396,145.713998 125.209529,143.525727 C130.730268,140.617048 135.35866,142.054153 137.723858,143.245465 L131.91512,148.198175 C131.246654,148.767979 131.166374,149.772362 131.735749,150.441067 C132.050243,150.810419 132.496947,151 132.94683,151 C133.3114,151 133.677824,150.87538 133.976952,150.620307 L141.441356,144.255947 C141.801156,143.94917 142.005962,143.498152 142,143.024862 C141.994039,142.552102 141.778106,142.106122 141.410886,141.80836" id="Fill-12" fill="#382C2A"></path>
                        <path d="M285.540394,145.674543 L209.492472,168.877519 C209.19003,168.969776 208.921662,169.151099 208.722499,169.39756 C197.163667,183.702144 179.658746,187.059546 175.313354,187.688859 L168.16278,174.779825 C168.131875,174.723726 168.097273,174.669489 168.059765,174.617644 C167.935882,174.446424 164.978818,170.376226 160.86772,166.181601 C155.173622,160.372083 150.210931,157.312189 146.11753,157.087264 C143.607922,156.947682 141.465206,157.843663 139.743796,159.746758 C136.496176,163.33653 133.105656,164.914466 129.938863,164.313601 C127.446953,163.839555 125.697808,162.084549 125.183788,160.915787 C125.270691,160.485344 126.070511,158.333395 133.306668,151.662194 C136.979291,148.276344 140.676215,145.24091 141.521468,144.552574 C143.262953,143.860781 156.38471,138.940863 170.703028,141.566326 C173.528022,142.084506 176.271924,142.299594 178.885076,142.299328 C190.955021,142.298797 200.188087,137.706164 201.230918,137.166183 L286,103.310609 L286,100 C285.804535,100 285.606429,100.034829 285.416247,100.111665 L199.987076,134.230451 C199.935304,134.251188 199.883532,134.275383 199.834138,134.301438 C199.702331,134.37083 186.493671,141.219366 171.270933,138.427469 C155.009061,135.445209 140.692856,141.436847 140.091406,141.693411 C139.957486,141.750308 139.832283,141.825814 139.718967,141.917274 C139.672478,141.954495 135.036002,145.699269 130.61982,149.815463 C127.999537,152.257742 125.958515,154.360505 124.553547,156.065261 C122.342154,158.748683 121.630557,160.503954 122.17416,161.935662 C122.991942,164.088941 125.586604,166.732748 129.350356,167.448469 C132.353117,168.019026 136.99963,167.519191 142.087523,161.894719 C143.150693,160.719309 144.410912,160.189165 145.943461,160.272648 C152.574733,160.636092 162.20771,171.975166 165.441594,176.418911 L173.064982,190.181653 C173.346557,190.68973 173.877745,191 174.448819,191 C174.494251,191 174.540476,190.997873 174.586437,190.994151 C174.81624,190.974211 180.297968,190.471185 187.558426,187.817806 C194.174642,185.400254 203.547175,180.66352 210.87129,171.790652 L286,148.867904 L286,145.606215 C285.846798,145.606215 285.693596,145.62775 285.540394,145.674543" id="Fill-13" fill="#382C2A"></path>
                        <path d="M120.195101,24.1744243 C116.675299,24.1744243 113.040894,25.0932648 109.310191,26.9330358 C99.9673828,31.5399139 97.139975,39.3702496 96.4133593,45.1274502 C95.7167209,50.646231 96.5831418,56.6665982 98.9184458,62.5382191 C101.170716,68.1998921 104.664254,73.2556701 108.755214,76.7742255 C119.434528,85.9584453 137.913222,102.234059 142.5,106.277617 C147.086778,102.234059 165.565472,85.9584453 176.24452,76.7742255 C180.335746,73.2556701 183.829019,68.1998921 186.081289,62.5382191 C188.416858,56.6668643 189.283279,50.646231 188.586641,45.1277163 C187.860025,39.3702496 185.032352,31.5399139 175.689544,26.9330358 C167.377368,22.8341303 159.538726,23.3048499 152.392744,28.3329541 C146.929995,32.1764097 143.90999,37.3681615 143.880013,37.4200498 C143.595892,37.9147177 143.069832,38.2201932 142.500531,38.2201932 C142.5,38.2201932 142.499204,38.2201932 142.498674,38.2201932 C141.928576,38.219661 141.402251,37.9141856 141.118926,37.4184532 C141.09001,37.3681615 138.06974,32.1764097 132.607256,28.3329541 C128.668304,25.5615895 124.518185,24.1744243 120.195101,24.1744243 Z M142.5,110 C142.124622,110 141.749243,109.867485 141.448675,109.60219 C141.224244,109.404216 118.865757,89.6752404 106.683338,79.198338 C97.2402528,71.0768959 91.718345,56.9015589 93.2551411,44.7264472 C94.0801776,38.1909229 97.2914528,29.3015347 107.905772,24.067208 C119.706446,18.2488058 128.897776,21.7902452 134.530307,25.7859064 C138.328128,28.4798378 141.008833,31.6902568 142.5,33.7455636 C143.991432,31.6902568 146.672138,28.4798378 150.469693,25.7859064 C156.10249,21.7902452 165.292759,18.2482736 177.094228,24.067208 C187.708547,29.3015347 190.920088,38.191189 191.744859,44.7267133 C193.281655,56.9018249 187.759747,71.0768959 178.316662,79.198338 C166.134243,89.6755065 143.776021,109.404216 143.551325,109.60219 C143.250757,109.867485 142.875378,110 142.5,110 L142.5,110 Z" id="Fill-14" fill="#C4242B"></path>
                        <path d="M143.000996,39.9041483 C141.026777,43.911586 139.374902,48.8749214 140.524504,50.8631888 C140.666652,51.1091033 141.099172,51.8573224 142.999939,51.8573224 C144.901234,51.8573224 145.333755,51.1088414 145.475638,50.862665 C146.62709,48.8702074 144.975214,43.9084433 143.000996,39.9041483 Z M142.999939,55 C139.90941,55 138.451469,53.5994134 137.772699,52.4243138 C134.894071,47.4410748 140.934566,36.9552692 141.632624,35.7759795 C141.917448,35.2951498 142.437688,35 142.999939,35 C143.56219,35 144.082694,35.2951498 144.367254,35.7759795 C145.065576,36.9552692 151.106071,47.4410748 148.227179,52.4243138 C147.548409,53.5994134 146.090468,55 142.999939,55 L142.999939,55 Z" id="Fill-15" fill="#C4242B"></path>
                        <path d="M63.7649341,146 C48.759564,146 40.2367022,141.581189 39.8437668,141.372633 C39.0690093,140.962127 38.7745062,140.001815 39.1856992,139.228385 C39.596363,138.455218 40.5563426,138.160754 41.3303063,138.569938 C41.3845499,138.598221 43.932412,139.914586 48.5754003,141.065745 C52.8839306,142.134168 59.9311016,143.275283 69.0352961,142.643269 C79.2857507,141.931956 90.0034942,139.164945 100.890848,134.419158 C114.542509,128.468552 128.499258,119.373209 142.373715,107.386355 C143.03681,106.813551 144.039391,106.885978 144.61305,107.54839 C145.186709,108.211066 145.114208,109.212614 144.450848,109.785417 C130.27395,122.033694 115.985919,131.325699 101.983129,137.403712 C90.7311524,142.28748 79.6334391,145.120837 68.9979871,145.825013 C67.1761956,145.945548 65.4295514,146 63.7649341,146" id="Fill-16" fill="#C4242B"></path>
                        <path d="M222.00793,146 C220.418932,146 218.758164,145.950146 217.027216,145.840363 C206.3947,145.166279 195.296607,142.349554 184.041469,137.467884 C170.035509,131.393177 155.739029,122.082497 141.54954,109.794659 C140.885869,109.220017 140.813039,108.215256 141.387197,107.550454 C141.961355,106.885652 142.964278,106.812728 143.628479,107.3879 C157.514204,119.412681 171.478055,128.525537 185.131257,134.472694 C196.019866,139.21541 206.73554,141.966106 216.980605,142.648675 C226.081592,143.254608 233.121119,142.082784 237.42492,140.992901 C242.090483,139.811531 244.637118,138.468933 244.662277,138.455674 C245.435324,138.043056 246.397728,138.335018 246.811662,139.108808 C247.224801,139.882599 246.935868,140.844666 246.16388,141.260201 C245.768749,141.472609 237.161676,146 222.00793,146" id="Fill-17" fill="#C4242B"></path>
                        <path d="M263.303273,153 C262.296563,153 261.290654,152.805503 260.332213,152.416772 C258.410265,151.636688 256.912601,150.16774 256.114701,148.280441 L253.073505,141.08721 C252.734557,140.285108 253.12124,139.364787 253.937275,139.031627 C254.753043,138.698204 255.689883,139.078023 256.028831,139.880387 L259.070026,147.073356 C259.539646,148.185028 260.421817,149.05004 261.553598,149.509283 C262.685113,149.968525 263.931566,149.967215 265.060947,149.505351 L267.970404,148.317139 C269.101119,147.855537 269.981156,146.988428 270.447843,145.87597 C270.917196,144.763512 270.914529,143.538602 270.445176,142.427192 L260.930639,119.922198 C259.960731,117.627557 257.271817,116.537904 254.938384,117.490204 L252.029727,118.678416 C250.898746,119.14028 250.018709,120.007127 249.551222,121.119847 C249.084002,122.232305 249.085336,123.457215 249.555489,124.568362 L252.161466,130.732753 C252.500681,131.534855 252.113998,132.455438 251.297963,132.788598 C250.481928,133.122021 249.545622,132.742202 249.206141,131.939838 L246.600164,125.775447 C245.802263,123.88841 245.799863,121.808449 246.593497,119.919315 C247.386864,118.030181 248.881594,116.557825 250.801942,115.773548 L253.710065,114.585598 C257.6729,112.967239 262.238961,114.818889 263.885964,118.715113 L273.399968,141.220107 C274.197335,143.107407 274.200002,145.187368 273.407968,147.076502 C272.613268,148.965636 271.119871,150.437729 269.19979,151.222007 L266.290333,152.410219 C265.327625,152.803406 264.315316,153 263.303273,153" id="Fill-18" fill="#382C2A"></path>
                        <path d="M257.746034,130.858967 L260.449111,137.294221 L263.253926,136.141235 L260.550849,129.705713 L257.746034,130.858967 Z M259.572708,141 C259.362198,141 259.151688,140.959577 258.953084,140.878464 C258.555334,140.71597 258.239027,140.403563 258.073434,140.010311 L254.124614,130.6084 C253.780709,129.789236 254.173047,128.849339 255.001017,128.508824 L260.80411,126.123077 C261.20186,125.959512 261.648585,125.958976 262.046876,126.12147 C262.444897,126.284232 262.760932,126.596371 262.926526,126.989891 L266.873993,136.391803 C267.220334,137.210966 266.827995,138.150863 266.000025,138.49111 L260.19585,140.877125 C259.996434,140.959042 259.784571,141 259.572708,141 L259.572708,141 Z" id="Fill-19" fill="#382C2A"></path>
                        <path d="M255.064971,133.510246 L247.349549,135.429159 C246.790617,135.56816 246.520919,135.955646 246.409947,136.174345 C246.298975,136.392775 246.145676,136.838491 246.367078,137.36471 L247.431489,139.898126 C247.65262,140.424612 248.079686,140.631504 248.314655,140.707713 C248.549894,140.784191 249.01766,140.868718 249.511744,140.574884 L256.329621,136.520774 L255.064971,133.510246 Z M248.767226,144 C248.273413,144 247.777429,143.922718 247.297454,143.766811 C245.99726,143.343904 244.950214,142.384313 244.424656,141.134108 L243.360244,138.600156 C242.834957,137.350219 242.886238,135.939277 243.500248,134.729324 C244.11453,133.519638 245.228052,132.636257 246.555649,132.306196 L255.632585,130.048904 C256.41536,129.854088 257.223097,130.256064 257.532951,130.992394 L259.875307,136.567466 C260.184619,137.304064 259.901897,138.153903 259.21083,138.565003 L251.189352,143.33478 C250.449447,143.774861 249.611592,144 248.767226,144 L248.767226,144 Z" id="Fill-20" fill="#382C2A"></path>
                        <path d="M263.616199,142.076796 C264.126002,141.864943 264.710604,142.106433 264.923853,142.616408 C265.135048,143.12609 264.891587,143.711475 264.38325,143.923036 C263.873447,144.135183 263.288553,143.893693 263.076771,143.383718 C262.864988,142.873743 263.106397,142.28865 263.616199,142.076796" id="Fill-21" fill="#382C2A"></path>
                        <path d="M262.616042,146.076807 C263.126351,145.864936 263.71149,146.106445 263.923361,146.616168 C264.134938,147.126477 263.893429,147.711616 263.383707,147.923193 C262.873691,148.135064 262.288552,147.893555 262.076975,147.383832 C261.86481,146.873817 262.10632,146.288678 262.616042,146.076807" id="Fill-22" fill="#382C2A"></path>
                        <path d="M267.615672,144.076797 C268.125888,143.864942 268.70941,144.106433 268.923466,144.616409 C269.13459,145.126092 268.894143,145.711479 268.383928,145.92304 C267.873712,146.135188 267.29019,145.893697 267.076134,145.383428 C266.865011,144.873745 267.108389,144.288651 267.615672,144.076797" id="Fill-23" fill="#382C2A"></path>
                        <path d="M256.383581,124.923208 C256.893565,124.711368 257.13506,124.126019 256.923202,123.616369 C256.711344,123.106426 256.126534,122.864951 255.616256,123.076792 C255.106565,123.288632 254.86507,123.873688 255.076635,124.383631 C255.288786,124.893574 255.873889,125.135049 256.383581,124.923208" id="Fill-24" fill="#382C2A"></path>
                        <path d="M253.383745,122.923208 C253.893435,122.711368 254.134929,122.126019 253.923365,121.616369 C253.711508,121.106426 253.126406,120.864951 252.616129,121.076792 C252.106439,121.288632 251.864945,121.873688 252.076802,122.383631 C252.28866,122.893574 252.873762,123.135049 253.383745,122.923208" id="Fill-25" fill="#382C2A"></path>
                        <path d="M257.383871,120.923207 C257.893561,120.711362 258.135055,120.126295 257.923198,119.616341 C257.71134,119.106681 257.126238,118.864908 256.616255,119.076753 C256.106565,119.288598 255.865071,119.873665 256.076635,120.383619 C256.288492,120.893572 256.873594,121.135052 257.383871,120.923207" id="Fill-26" fill="#382C2A"></path>
                        <path d="M22.6887278,153 C21.6946823,153 20.6846339,152.811795 19.7111254,152.414416 L16.8023355,151.226211 C14.88199,150.441938 13.3873211,148.969853 12.5935783,147.08073 C11.7998355,145.191607 11.8022359,143.111657 12.6002462,141.224369 L22.1160914,118.719766 C22.913835,116.832478 24.4119711,115.363538 26.3341836,114.583459 C28.2566628,113.803118 30.3730436,113.805739 32.2931223,114.590012 L35.2019123,115.778217 C39.1660921,117.396829 41.0512313,121.883857 39.4040016,125.779797 L36.221029,133.307194 C35.8820347,134.109554 34.9458662,134.489895 34.1294527,134.15595 C33.3133059,133.822791 32.9263029,132.902476 33.2655639,132.100378 L36.4482699,124.572981 C37.4185778,122.278353 36.3085114,119.636149 33.9739581,118.682807 L31.0649014,117.494601 C29.9337645,117.03274 28.6876737,117.031691 27.5557367,117.490669 C26.4237997,117.950172 25.5415077,118.815179 25.0715565,119.926582 L15.5557112,142.431447 C15.08576,143.54285 15.0844264,144.767753 15.5517105,145.880205 C16.0192613,146.992656 16.8994196,147.85976 18.0302897,148.32136 L20.9393464,149.509565 C23.273633,150.46317 25.9623834,149.372212 26.9326913,147.077584 L30.0748566,139.646648 C30.4138509,138.844813 31.350286,138.464472 32.1664329,138.797893 C32.9825797,139.131052 33.3693159,140.051629 33.0303216,140.853727 L29.8881563,148.284925 C28.6455328,151.224114 25.7418104,153 22.6887278,153" id="Fill-27" fill="#382C2A"></path>
                        <path d="M22.7460454,136.141235 L25.5508689,137.294221 L28.2539546,130.858967 L25.4488605,129.705713 L22.7460454,136.141235 Z M26.4272748,141 C26.2154113,141 26.0035478,140.959042 25.804131,140.877125 L20.0010199,138.49111 C19.1730476,138.150863 18.7807079,137.210966 19.124614,136.391803 L23.0737167,126.989891 C23.23877,126.596371 23.555077,126.284232 23.9533696,126.12147 C24.3511209,125.958976 24.7981177,125.959512 25.1955985,126.123077 L30.9989801,128.508824 C31.8269524,128.849339 32.2192921,129.789236 31.875386,130.6084 L27.9262833,140.010311 C27.76123,140.403563 27.4446524,140.71597 27.0466304,140.878464 C26.8482959,140.959577 26.6377853,141 26.4272748,141 L26.4272748,141 Z" id="Fill-28" fill="#382C2A"></path>
                        <path d="M29.6702717,136.520734 L36.4881424,140.574866 C36.9819551,140.868701 37.4499918,140.784442 37.6852312,140.707695 C37.9199278,140.631486 38.3472657,140.424593 38.5683961,139.898104 L39.6330779,137.364674 C39.8542083,136.838184 39.7009093,136.392734 39.5902085,136.174035 C39.478965,135.955603 39.2092673,135.568115 38.6503365,135.429114 L30.9351919,133.51019 L29.6702717,136.520734 Z M37.23266,144 C36.3882946,144 35.550441,143.77486 34.810536,143.334509 L26.7890648,138.564974 C26.0979983,138.153872 25.815277,137.304028 26.1248596,136.567426 L28.4672138,130.992325 C28.7767964,130.255722 29.5842615,129.854281 30.3675786,130.048829 L39.4445066,132.306134 C40.772103,132.636196 41.8856234,133.519582 42.4999047,134.729542 C43.1139146,135.939234 43.1649238,137.350184 42.6396374,138.600395 L41.5752269,141.133825 C41.0499404,142.384036 40.0028948,143.343632 38.702431,143.766541 C38.2224559,143.922717 37.7264727,144 37.23266,144 L37.23266,144 Z" id="Fill-29" fill="#382C2A"></path>
                        <path d="M22.383593,142.076796 C21.8739119,141.864943 21.2885269,142.106433 21.0766733,142.616408 C20.8651131,143.12609 21.1063093,143.711475 21.6162838,143.923036 C22.1262584,144.135183 22.71135,143.893693 22.9232036,143.383718 C23.1350572,142.873743 22.8935676,142.28865 22.383593,142.076796" id="Fill-30" fill="#382C2A"></path>
                        <path d="M23.383631,146.076807 C22.8736878,145.864936 22.2889257,146.106445 22.0767917,146.616168 C21.8649511,147.126477 22.1064259,147.711616 22.616369,147.923193 C23.1263122,148.135064 23.7113677,147.893555 23.9232083,147.383832 C24.1350489,146.873817 23.8935741,146.288678 23.383631,146.076807" id="Fill-31" fill="#382C2A"></path>
                        <path d="M18.3838323,144.076797 C17.8738166,143.864942 17.2886777,144.106433 17.076807,144.616409 C16.8649362,145.126092 17.1064454,145.711479 17.6161677,145.92304 C18.1261834,146.135188 18.7113223,145.893697 18.923193,145.383428 C19.1350638,144.873745 18.8935546,144.288651 18.3838323,144.076797" id="Fill-32" fill="#382C2A"></path>
                        <path d="M29.6165446,124.923208 C29.1065581,124.711368 28.8647693,124.126019 29.0769213,123.616369 C29.2887799,123.106426 29.8738854,122.864951 30.3835785,123.076792 C30.8935651,123.288632 31.1350604,123.873688 30.9232018,124.383631 C30.7113432,124.893574 30.1262378,125.135049 29.6165446,124.923208" id="Fill-33" fill="#382C2A"></path>
                        <path d="M32.6163412,122.923208 C32.1066813,122.711368 31.8649082,122.126019 32.0767531,121.616369 C32.2888913,121.106426 32.8739587,120.864951 33.3836186,121.076792 C33.893572,121.288632 34.1350516,121.873688 33.9232068,122.383631 C33.711362,122.893574 33.1262946,123.135049 32.6163412,122.923208" id="Fill-34" fill="#382C2A"></path>
                        <path d="M28.6163814,120.923207 C28.106428,120.711362 27.8649484,120.126295 28.0767932,119.616341 C28.288638,119.106681 28.8737054,118.864908 29.3836588,119.076753 C29.8933187,119.288598 30.1350918,119.873665 29.9232469,120.383619 C29.7111087,120.893572 29.1260413,121.135052 28.6163814,120.923207" id="Fill-35" fill="#382C2A"></path>
                    </g>
                </g>
            </g>
        </g>
    </g>
</svg>