<?xml version="1.0" encoding="utf-8"?>
<!-- Generator: Adobe Illustrator 21.1.0, SVG Export Plug-In . SVG Version: 6.00 Build 0)  -->
<svg version="1.1"
	 id="svg6584" xmlns:cc="http://creativecommons.org/ns#" xmlns:dc="http://purl.org/dc/elements/1.1/" xmlns:rdf="http://www.w3.org/1999/02/22-rdf-syntax-ns#" xmlns:svg="http://www.w3.org/2000/svg"
	 xmlns="http://www.w3.org/2000/svg" xmlns:xlink="http://www.w3.org/1999/xlink" x="0px" y="0px" viewBox="0 0 124.5 100"
	 style="enable-background:new 0 0 124.5 100;" xml:space="preserve">
<style type="text/css">
	.st0{fill:#FEFEFD;}
</style>
<path class="st0" d="M75.3,36.9c-1.3,4.1-2.8,8.1-3.6,12.3c-0.8,3.9-0.5,7.9-0.4,11.8c0,0.4,0.1,0.9,0.7,0.7c1.2-0.4,2.5-0.5,3.2-2
	c1.6-3.5,3.4-6.9,5.1-10.4c0.8-1.6,2.3-2.4,4-1.9c1.7,0.5,2.6,2,2.2,3.8c-0.5,2-1.1,4-1.8,5.9c-0.4,1.1-0.4,1.5,1,1.3
	c2.6-0.4,5.3-0.6,7.9-0.9c2.3-0.3,3.7,0.6,4.2,2.7c0.4,1.9-0.7,3.5-2.8,4.1c-6.2,1.5-11.9,3.9-17.5,6.9c-1.4,0.7-2.7,1.7-4.1,2.4
	c-0.8,0.4-0.9,0.9-0.8,1.6c1.6,7.8,3.3,15.6,5.1,23.4c0.6,2.4,0.6,2.4-1.9,2.4c-9.1,0-18.2,0-27.3,0c-0.6,0-1.2,0-1.8,0
	c1.5-5.9,2.9-11.7,4.3-17.5c0.6-2.4,1.1-4.8,1.7-7.3c0.2-0.8,0-1.3-0.6-1.8c-1.5-1.4-3-2.8-4.4-4.3c-0.6-0.6-1.1-0.8-2-0.6
	c-4.5,0.6-8.9,1.2-13.4,1.7c-2.3,0.3-3.5-0.6-3.9-2.5c-0.3-1.8,0.6-3.1,2.6-3.7c2.9-0.9,5.8-1.8,8.6-2.6c0.8-0.2,1-0.5,0.4-1.3
	c-1.5-2.1-2.9-4.3-4.1-6.6c-0.5-0.9-1-1.9-0.7-3c0.4-1.4,1.4-2.4,2.9-2.7c1.3-0.3,2.4,0.3,3.1,1.4c3.4,4.7,7.5,8.8,11.9,12.5
	c0.4,0.3,0.7,0.8,1.5,0.8c0.5-4.4,0.6-8.7-0.5-13c-1.1-4-2.8-7.8-4.9-11.4c-0.1-2.4,0.7-3.8,2.3-4.4c1.6-0.6,3.2-0.1,4.7,1.7
	c1,1.2,1.9,2.4,2.8,3.6c1.1,2,2.2,4,3.4,6.2c1.1-2.3,2.1-4.4,3.1-6.5c0.8-1.4,1.5-2.7,2.3-4.1c1.2-2.2,2.5-2.9,4.4-2.6
	C74.3,33.5,75,35,75.3,36.9z"/>
<path class="st0" d="M15.1,40c3.2-4.6,7.2-8.2,12.2-10.7c1.1-0.6,1-1.7,1.2-2.5c0.7-3.1,2.2-5.8,3.7-8.5c2.7-4.9,6.6-8.9,11.2-11.7
	c13.1-8,28.4-7.2,40.2,1.8c6.5,5,10.7,11.6,12.7,19.5c0.1,0.6,0.2,1.2,0.9,1.5c4.2,2,7.7,4.9,10.7,8.5c2.5,3.6,4.5,7.4,5.5,11.7
	c3.4,14.2-4.5,29.3-18.2,34.5c-4.5,1.7-9.2,2.2-13.9,2.1c-0.8,0-1.6-0.5-2.5-0.4c-0.6,0.1-0.6-0.5-0.7-0.9c-0.4-2-0.8-3.9-1.2-6
	c1.1-0.2,2,0.3,2.9,0.5c9.5,1.5,17.4-1.3,23.2-8.9c5.7-7.5,6.4-15.8,2.3-24.4c-1.6-3.3-3.9-6.3-7-8.5c-0.4-0.3-0.8-0.7-1.4-0.7
	c-1.1-1.1-2.5-1.7-4-2.1c-1.3-0.4-2.2-1.1-2.6-2.4c-0.4-1.9-0.8-3.8-1.3-5.6c-1.6-5.2-4.9-9.4-9-12.8c-8.4-6.7-17.9-8.4-28-4.6
	c-10.1,3.8-16.1,11.4-18.2,22c-0.4,1.8-1.2,2.8-2.8,3.4c-2.3,0.9-4.4,2-6.1,3.7c-10.3,7.9-11.4,24.4-2,33.9
	c6.6,6.7,14.6,8.8,23.7,6.4c1.3-0.3,1.8-0.4,1.3,1.2c-0.4,1.4-0.7,2.8-1,4.2c-0.2,1-0.7,1.4-1.7,1.5c-5.1,0.9-10,0.5-14.9-1.1
	c-9.3-3-15.4-9.5-18.7-18.5c-3.1-8.5-1.9-16.9,2.5-24.7C14.6,40.8,14.9,40.4,15.1,40z"/>
</svg>
