<?xml version="1.0" encoding="utf-8"?>
<!-- Generator: Adobe Illustrator 16.0.0, SVG Export Plug-In . SVG Version: 6.00 Build 0)  -->
<!DOCTYPE svg PUBLIC "-//W3C//DTD SVG 1.1//EN" "http://www.w3.org/Graphics/SVG/1.1/DTD/svg11.dtd">
<svg version="1.1"
	 id="svg6584" xmlns:cc="http://creativecommons.org/ns#" xmlns:dc="http://purl.org/dc/elements/1.1/" xmlns:svg="http://www.w3.org/2000/svg" xmlns:rdf="http://www.w3.org/1999/02/22-rdf-syntax-ns#"
	 xmlns="http://www.w3.org/2000/svg" xmlns:xlink="http://www.w3.org/1999/xlink" x="0px" y="0px" width="124.521px" height="100px"
	 viewBox="-12.262 0 124.521 100" enable-background="new -12.262 0 124.521 100" xml:space="preserve">
<path fill="#FFFFFF" d="M6.792,36.928l1.854,3.928v1.546l2.678-1.596l3.431,2.042l3.43-2.041l2.684,1.596v-1.548l1.851-3.928h-1.851
	V21.114l1.851-3.928h-4.919v-3.425c0-1.001-1.038-1.835-2.42-2.033v-1.365c0.491-0.159,0.833-0.499,0.833-0.892
	c0-0.395-0.342-0.734-0.833-0.894V7.915c0.128-0.1,0.208-0.229,0.208-0.371c0-0.315-0.83-1.929-0.83-1.929s-0.831,1.613-0.831,1.929
	c0,0.142,0.079,0.271,0.208,0.371v0.664c-0.492,0.16-0.833,0.499-0.833,0.894c0,0.393,0.341,0.732,0.833,0.892v1.365
	c-1.386,0.197-2.424,1.031-2.424,2.033v3.425H6.792l1.854,3.928v15.813H6.792z M12.555,30.441h0.61v-1.6l1.593-1.069l1.589,1.069
	v1.6h0.609v4.068h-4.401V30.441z M13.087,30.611"/>
<path fill="#FFFFFF" d="M97.408,87.63H95.88c-2.39-13.857-2.771-28.074-11.047-36.192c-8.11-7.949-18.712-10.41-25.747-16.843v-3.01
	c0.646-0.311,1.095-0.963,1.095-1.725c0-0.76-0.449-1.413-1.095-1.722v-1.281c0.171-0.191,0.275-0.44,0.275-0.716
	c0-0.604-1.096-3.72-1.096-3.72s-1.093,3.116-1.093,3.72c0,0.275,0.105,0.524,0.273,0.718v1.278
	c-0.645,0.309-1.094,0.961-1.094,1.722c0,0.762,0.449,1.414,1.094,1.725v3.01c-7.034,6.433-17.64,8.895-25.744,16.843
	c-8.276,8.118-8.663,22.335-11.049,36.192h-1.528l-2.627,6.786h83.537L97.408,87.63z"/>
<rect x="6.011" y="35.705" fill="#FFFFFF" width="17.489" height="58.711"/>
<rect x="6.011" y="92.684" fill="#FFFFFF" width="94.024" height="8.125"/>
<path fill="#FFFFFF" d="M55.742,17.846c-2.855-2.851-3.39-7.137-1.712-10.717c-2.511,1.71-4.168,4.506-4.168,7.683
	c0,5.205,4.397,9.419,9.818,9.419c4.285,0,7.893-2.641,9.241-6.315C65.065,21.37,59.293,21.397,55.742,17.846z"/>
<path fill="#FFFFFF" d="M14.529,3.876C13.616,2.844,13.444,1.292,13.979,0c-0.803,0.618-1.333,1.628-1.333,2.778
	c0,1.881,1.41,3.407,3.146,3.407c1.373,0,2.526-0.958,2.957-2.284C17.516,5.148,15.667,5.16,14.529,3.876z"/>
</svg>
