<?xml version="1.0" encoding="utf-8"?>
<!-- Generator: Adobe Illustrator 21.1.0, SVG Export Plug-In . SVG Version: 6.00 Build 0)  -->
<svg version="1.1"
	 id="svg6584" xmlns:cc="http://creativecommons.org/ns#" xmlns:dc="http://purl.org/dc/elements/1.1/" xmlns:rdf="http://www.w3.org/1999/02/22-rdf-syntax-ns#" xmlns:svg="http://www.w3.org/2000/svg"
	 xmlns="http://www.w3.org/2000/svg" xmlns:xlink="http://www.w3.org/1999/xlink" x="0px" y="0px" viewBox="0 0 124.5 100"
	 style="enable-background:new 0 0 124.5 100;" xml:space="preserve">
<style type="text/css">
	.st0{fill:#FEFEFD;}
</style>
<g id="_x36_Acc9t.tif">
	<g>
		<path class="st0" d="M67,97.6c2.4-13.8,4.6-27.2,7-40.6c0.5-2.9-0.2-5.7-0.3-8.5c-0.3-4.5-0.9-8.9-1.3-13.7
			c-6.1,3.4-12,6.6-17.8,9.8c-3,1.6-6.5,0.9-8.7-1.6c-0.8-0.9-1-1.4,0.3-2.1c8.2-4.8,16.4-9.7,24.6-14.6c0.6-0.4,1.2-0.9,2.1-0.4
			c4.5,2.2,8.8,1,12.8-1.4c1.3-0.8,2.4-0.9,3.9-0.4c3.9,1.4,7.9,2.6,11.9,3.8c1,0.3,1.7,0.7,2.1,1.7c2.2,4.5,4.5,9,6.9,13.4
			c0.6,1.2,0.4,1.6-0.9,2c-3.2,0.9-6.8-0.5-8.4-3.5c-0.3-0.5-0.5-1.1-0.8-1.6c-2.9-5.8-4.3-6.8-10.9-7.9
			c-0.2,12.5,2.7,24.3,8.3,35.4c0.5,0.9,1.2,1.2,2,1.5c4,1.8,8.1,3.5,12.1,5.3c3.3,1.5,4.9,4.8,4.1,8.3c-0.3,1.2-0.6,1.8-2,1.2
			c-6.9-2.9-13.9-5.7-20.9-8.5c-1.6-0.6-2.2-1.9-2.7-3.3c-2.3-5.2-4.5-10.5-7-16.3c-1.4,7-2.8,13.3-4.1,19.7
			c-1.1,5.4-2.2,10.9-3.3,16.3c-0.2,1-0.7,1.7-1.6,2.1C71.9,94.9,69.6,96.1,67,97.6z"/>
		<path class="st0" d="M25.6,57.9c-3.3,2.7-6.3,4.9-9.1,7.4c-2.3,2.1-4.6,1.6-7,0.8c-1.1-0.4-1.4-1-0.4-2.1
			c5.1-4.9,10.2-9.9,15.3-14.9c0.8-0.8,1.5-0.9,2.6-0.7c3,0.5,5.9,0.3,8.7-0.9c1.8-0.8,3.6,0.4,5.4,0.4c6.1,0.2,10.1,2.9,11.7,9
			c0.3,1.1,1,2.2,1.6,3.3c1.2,1.9,0.2,2.4-1.5,2.5c-2.2,0.2-3.9-0.8-5-2.6c-0.4-0.6-0.7-1.4-1.1-2.1c-1.9-3.9-1.9-3.9-6.7-3.2
			c1.4,5.5,2.7,10.9,4,16.4c0.3,1.3,1.1,1.4,2.1,1.5c2.8,0.3,5.5,0.6,8.3,0.9c4.1,0.5,4.7,1.1,5.6,5.7c-5.9,0-11.8,0-17.7,0
			c-1.8,0-2.1-1.4-2.6-2.5c-1.3-2.5-3-1.6-5-1.3c-2.2,0.4-2.1,1.7-2.1,3.4c0.1,4.1,0.1,8.2,0.1,12.2c0,4.2-0.8,5.3-5.3,6.6
			C26.7,84.6,26.2,71.5,25.6,57.9z"/>
		<path class="st0" d="M78.2,22.6c-5.1,0-9.2-4-9.1-9c0-4.9,4.3-9.1,9.2-9c4.9,0.1,8.9,4.1,9,9C87.3,18.6,83.3,22.6,78.2,22.6z"/>
		<path class="st0" d="M30.3,29.5c4.4,0.1,7.9,3.6,7.7,8c-0.1,4.4-3.6,7.8-8.1,7.7c-4.6,0-8-3.6-7.8-8.2
			C22.3,32.7,25.7,29.5,30.3,29.5z"/>
	</g>
</g>
</svg>
