<?xml version="1.0" encoding="iso-8859-1"?>
<!-- Generator: Adobe Illustrator 16.0.0, SVG Export Plug-In . SVG Version: 6.00 Build 0)  -->
<!DOCTYPE svg PUBLIC "-//W3C//DTD SVG 1.1//EN" "http://www.w3.org/Graphics/SVG/1.1/DTD/svg11.dtd">
<svg xmlns="http://www.w3.org/2000/svg" xmlns:xlink="http://www.w3.org/1999/xlink" version="1.1" id="Capa_1" x="0px" y="0px" width="512px" height="512px" viewBox="0 0 402.409 402.409" style="enable-background:new 0 0 402.409 402.409;" xml:space="preserve">
<g>
	<g>
		<path d="M295.221,0H171.503c-20.863,0-48.355,11.954-62.599,27.2L91.84,45.481C77.69,60.626,66.615,88.74,66.615,109.486v252.36    c0,22.363,18.194,40.562,40.568,40.562h188.042c22.358,0,40.568-18.199,40.568-40.562V40.565C335.783,18.194,317.574,0,295.221,0z     M323.937,361.852c0,15.833-12.888,28.716-28.716,28.716H107.184c-15.833,0-28.719-12.883-28.719-28.716V109.486    c0-17.824,9.892-42.914,22.033-55.916l17.064-18.281c12.063-12.926,36.277-23.439,53.941-23.439h123.717    c15.828,0,28.716,12.885,28.716,28.716V361.852z" fill="#8d569a"/>
		<path d="M282.673,215.474H115.12c-11.184,0-20.286,9.09-20.286,20.276v113.549c0,11.187,9.102,20.281,20.286,20.281h167.553    c11.188,0,20.271-9.095,20.271-20.281V235.761C302.955,224.573,293.86,215.474,282.673,215.474z M212.069,221.399h28.807    c4.357,0,7.896,3.54,7.896,7.896v24.674c0,7.917-6.429,14.346-14.345,14.346h-22.358c-4.357,0-7.899-3.54-7.899-7.901v-31.118    C204.17,224.939,207.712,221.399,212.069,221.399z M162.666,221.399h27.68c4.362,0,7.901,3.54,7.901,7.896v31.118    c0,4.361-3.539,7.901-7.901,7.901h-27.68c-4.362,0-7.901-3.54-7.901-7.901v-31.118    C154.764,224.939,158.303,221.399,162.666,221.399z M115.12,221.399h25.819c4.359,0,7.898,3.54,7.898,7.896v31.118    c0,4.361-3.539,7.901-7.898,7.901h-32.281c-4.36,0-7.899-3.54-7.899-7.901V235.75C100.76,227.844,107.206,221.399,115.12,221.399z     M142.668,363.659H115.13c-7.917,0-14.363-6.438-14.363-14.351v-13.177c0-4.362,3.539-7.901,7.898-7.901h34.01    c4.362,0,7.901,3.539,7.901,7.901v19.631C150.569,360.12,147.03,363.659,142.668,363.659z M192.077,363.659h-27.683    c-4.362,0-7.901-3.539-7.901-7.896v-19.631c0-4.362,3.539-7.901,7.901-7.901h27.683c4.359,0,7.898,3.539,7.898,7.901v19.631    C199.976,360.12,196.437,363.659,192.077,363.659z M240.876,363.659H213.79c-4.356,0-7.896-3.539-7.896-7.896v-19.631    c0-4.362,3.539-7.901,7.896-7.901h27.086c4.357,0,7.896,3.539,7.896,7.901v19.631C248.772,360.12,245.243,363.659,240.876,363.659    z M282.673,363.659H262.6c-4.361,0-7.901-3.539-7.901-7.896v-19.631c0-4.362,3.54-7.901,7.901-7.901h26.518    c4.362,0,7.901,3.539,7.901,7.901v13.177C297.028,357.221,290.59,363.659,282.673,363.659z M289.127,322.304H108.659    c-4.36,0-7.899-3.539-7.899-7.9v-32.256c0-4.362,3.539-7.901,7.899-7.901h125.769c11.171,0,20.271-9.09,20.271-20.271v-24.669    c0-4.361,3.54-7.9,7.901-7.9h20.073c7.917,0,14.346,6.438,14.346,14.355v78.643C297.028,318.765,293.489,322.304,289.127,322.304z    " fill="#8d569a"/>
	</g>
</g>
<g>
</g>
<g>
</g>
<g>
</g>
<g>
</g>
<g>
</g>
<g>
</g>
<g>
</g>
<g>
</g>
<g>
</g>
<g>
</g>
<g>
</g>
<g>
</g>
<g>
</g>
<g>
</g>
<g>
</g>
</svg>
