<svg id="Capa_1" data-name="Capa 1" xmlns="http://www.w3.org/2000/svg" viewBox="0 0 512 325.74"><defs><style>.cls-1{fill:#8d569a;}.cls-2{fill:#e16595;}</style></defs><title>user</title><path class="cls-1" d="M501.09,353.22c-38.38-31.57-79.81-52.54-88.3-56.63a2.8,2.8,0,0,1-1.57-2.52V234.29A27.84,27.84,0,0,0,423.7,211V149a56,56,0,0,0-55.9-55.9H354.37a56,56,0,0,0-55.9,55.9v62A27.84,27.84,0,0,0,311,234.29v59.78a2.93,2.93,0,0,1-1.57,2.52c-4.4,2.1-17.72,8.81-34.82,19.19,9.54,6.61,19.4,13.84,29.05,21.81A50,50,0,0,1,322,376.4v42.47H512V376.4A30,30,0,0,0,501.09,353.22Z" transform="translate(0 -93.13)"/><path class="cls-1" d="M290.92,353.22c-38.38-31.57-79.81-52.54-88.3-56.63a2.8,2.8,0,0,1-1.57-2.52V234.29A27.84,27.84,0,0,0,213.53,211V149a56,56,0,0,0-55.9-55.9H144.2A56,56,0,0,0,88.3,149v62a27.84,27.84,0,0,0,12.48,23.28v59.78a2.93,2.93,0,0,1-1.57,2.52c-8.39,4.09-49.82,25.07-88.3,56.63A30,30,0,0,0,0,376.4v42.47H131l12.9-59.25c-26.11-36.5,2-38.28,6.82-38.28h0c4.93,0,33,1.78,6.82,38.28l12.9,59.25h131V376.4A28.37,28.37,0,0,0,290.92,353.22Z" transform="translate(0 -93.13)"/><g id="transfer"><polygon class="cls-2" points="297.14 194.97 233.74 194.97 233.74 209.59 212.63 187.66 233.74 165.73 233.74 180.35 297.14 180.35 297.14 194.97"/><polygon class="cls-2" points="212.63 151.11 276.01 151.11 276.01 165.73 297.14 143.8 276.01 121.87 276.01 136.49 212.63 136.49 212.63 151.11"/></g></svg>