<?xml version="1.0" encoding="UTF-8"?>
<svg width="414px" height="228px" viewBox="0 0 414 228" version="1.1" xmlns="http://www.w3.org/2000/svg" xmlns:xlink="http://www.w3.org/1999/xlink">
    <title>Group</title>
    <defs>
        <rect id="path-1" x="0" y="0" width="414" height="228"></rect>
        <linearGradient x1="50%" y1="-116.284161%" x2="50%" y2="71.9877705%" id="linearGradient-3">
            <stop stop-color="#FF2156" stop-opacity="0.228009417" offset="0%"></stop>
            <stop stop-color="#FFFFFF" offset="100%"></stop>
        </linearGradient>
    </defs>
    <g id="Page-1" stroke="none" stroke-width="1" fill="none" fill-rule="evenodd" opacity="0.269423712">
        <g id="Group">
            <mask id="mask-2" fill="white">
                <use xlink:href="#path-1"></use>
            </mask>
            <g id="Mask"></g>
            <g mask="url(#mask-2)" fill-rule="nonzero">
                <g transform="translate(-8, 28.3636)">
                    <path d="M1,101.093632 C282.650145,-93.3854998 239.957833,138.173771 425.564428,83.0832448 C426.544465,85.201976 425.564428,259.636364 425.564428,259.636364 L1,259.636364 C1,259.636364 1.12618998,100.028407 1,101.093632 Z" id="Path_1" fill="#FF2156" opacity="0.204223778"></path>
                    <path d="M426,52.3128181 C258.872525,-68.5664921 187.604536,119.245408 2.43450186,64.1105843 C1.45687268,66.2322822 2.43450186,259.636364 2.43450186,259.636364 L425.995289,259.636364 C425.995289,259.636364 425.873968,51.2525556 426,52.3128181 Z" id="Path_2" fill="#FF2156" opacity="0.29629226"></path>
                    <path d="M426,52.3128181 C258.872525,-68.5664921 187.604536,119.245408 2.43450186,64.1105843 C1.45687268,66.2322822 2.43450186,259.636364 2.43450186,259.636364 L425.995289,259.636364 C425.995289,259.636364 425.873968,51.2525556 426,52.3128181 Z" id="Path_4" fill="#FF2156" opacity="0.398679751"></path>
                    <path d="M428,55.6083149 C134.849064,100.908202 159.543645,27.9827487 0.434699212,61.4966328 C-0.543374016,63.6135703 0.434699212,259.636364 0.434699212,259.636364 L428,259.636364 C428,259.636364 427.873911,54.5486753 428,55.6083149 Z" id="Path_3" fill="#EBEBEB" opacity="0.497838629"></path>
                    <path d="M0,2.16087979 C183.517974,-20.5671407 95.3677847,146.767279 424.564428,2.16087979 C425.544465,4.28264676 424.564428,259.636364 424.564428,259.636364 L0,259.636364 C0,259.636364 0.126189983,1.10469047 0,2.16087979 Z" id="Path_1-2" fill="url(#linearGradient-3)"></path>
                </g>
            </g>
        </g>
    </g>
</svg>