<?xml version="1.0" encoding="UTF-8"?>
<svg width="50px" height="50px" viewBox="0 0 50 50" version="1.1" xmlns="http://www.w3.org/2000/svg" xmlns:xlink="http://www.w3.org/1999/xlink">
    <title>Group 15</title>
    <g id="Page-1" stroke="none" stroke-width="1" fill="none" fill-rule="evenodd">
        <g id="Group-15">
            <rect id="Rectangle" x="0" y="0" width="50" height="50"></rect>
            <g id="Group-25" transform="translate(14, 9)" fill="#FF2156" fill-rule="nonzero">
                <path d="M3.5,0 C4.32842712,-2.02906125e-16 5,0.671572875 5,1.5 L5.00103753,19.3373087 C6.18295185,19.8992526 7,21.1042104 7,22.5 C7,23.8957896 6.18295185,25.1007474 5.00103753,25.6626913 L5,30.5 C5,31.3284271 4.32842712,32 3.5,32 C2.67157288,32 2,31.3284271 2,30.5 L1.99996673,25.6631686 C0.817510997,25.1014298 0,23.8961849 0,22.5 C0,21.1038151 0.817510997,19.8985702 1.99996673,19.3368314 L2,1.5 C2,0.671572875 2.67157288,1.52179594e-16 3.5,0 Z M18.5,0 C19.3284271,-2.02906125e-16 20,0.671572875 20,1.5 L20.0010375,6.33730867 C21.1829519,6.89925265 22,8.10421041 22,9.5 C22,10.8957896 21.1829519,12.1007474 20.0010375,12.6626913 L20,30.5 C20,31.3284271 19.3284271,32 18.5,32 C17.6715729,32 17,31.3284271 17,30.5 L16.9999667,12.6631686 C15.817511,12.1014298 15,10.8961849 15,9.5 C15,8.10381512 15.817511,6.89857016 16.9999667,6.33683139 L17,1.5 C17,0.671572875 17.6715729,1.52179594e-16 18.5,0 Z" id="Combined-Shape"></path>
            </g>
        </g>
    </g>
</svg>