<?xml version="1.0" encoding="UTF-8"?>
<svg width="19px" height="31px" viewBox="0 0 19 31" version="1.1" xmlns="http://www.w3.org/2000/svg" xmlns:xlink="http://www.w3.org/1999/xlink">
    <title>Vector</title>
    <g id="Page-1" stroke="none" stroke-width="1" fill="none" fill-rule="evenodd">
        <g id="nearby-donors-map" transform="translate(-232, -595)" fill="#FF2156" fill-rule="nonzero">
            <g id="Group-5" transform="translate(-288.4518, 120)">
                <path d="M529.951807,475 C524.704007,475 520.451807,479.2351 520.451807,484.481 C520.451807,490.528067 523.618474,497.494734 529.951807,505.381002 C536.285141,497.493467 539.451807,490.5268 539.451807,484.481 C539.451807,479.237 535.199607,475 529.951807,475 L529.951807,475 Z M529.951807,489.726901 C528.591247,489.726901 527.286411,489.186421 526.32435,488.224359 C525.362288,487.262298 524.821808,485.95746 524.821808,484.5969 C524.821808,483.236339 525.362288,481.931504 526.32435,480.969442 C527.286411,480.007381 528.591247,479.4669 529.951807,479.4669 C531.312368,479.4669 532.617203,480.007381 533.579265,480.969442 C534.541327,481.931504 535.081807,483.236339 535.081807,484.5969 C535.081807,485.95746 534.541327,487.262298 533.579265,488.224359 C532.617203,489.186421 531.312368,489.726901 529.951807,489.726901 Z" id="Vector"></path>
            </g>
        </g>
    </g>
</svg>