<?xml version="1.0" encoding="UTF-8"?>
<svg width="225px" height="171px" viewBox="0 0 225 171" version="1.1" xmlns="http://www.w3.org/2000/svg" xmlns:xlink="http://www.w3.org/1999/xlink">
    <!-- Generator: Sketch 52.6 (67491) - http://www.bohemiancoding.com/sketch -->
    <title>charts_patters</title>
    <desc>Created with Sketch.</desc>
    <g id="Page-1" stroke="none" stroke-width="1" fill="none" fill-rule="evenodd">
        <g id="charts_patters" fill="#000000">
            <g id="Page-1">
                <g id="charts_patters">
                    <path d="M207.13,16 L189.27,16 C186.547255,15.9920219 183.933437,17.0687266 182.006282,18.9921288 C180.079127,20.9155309 178.997329,23.5272449 179,26.25 C179.000011,31.9031174 174.423107,36.4889695 168.77,36.5 L90.27,36.5 C84.6090813,36.5 80.02,31.9109187 80.02,26.25 C80.02,20.5890813 84.6090813,16 90.27,16 L107.52,16 C111.938278,16 115.52,12.418278 115.52,8 C115.52,3.581722 119.101722,8.11624501e-16 123.52,0 L194.91,0 C199.452916,4.95774965 203.542592,10.3124813 207.13,16 Z" id="Path"></path>
                    <path d="M104.15,58.5 C104.15,61.8137085 101.463708,64.5 98.15,64.5 L23.27,64.5 C22.405393,64.5026562 21.5751433,64.1617378 20.9618985,63.5522437 C20.3486536,62.9427496 20.0026481,62.114607 20,61.25 C20.0032253,60.3872235 19.66114,59.5590169 19.05,58.95 C18.44544,58.3260621 17.6186291,57.966579 16.75,57.95 L0,57.95 C0.845110043,52.7192373 2.06491649,47.555947 3.65,42.5 L63.52,42.5 C66.2814237,42.5 68.52,44.7385763 68.52,47.5 C68.52,48.8260824 69.0467842,50.097852 69.9844661,51.0355339 C70.922148,51.9732158 72.1939176,52.5 73.52,52.5 L98.15,52.5 C101.463708,52.5 104.15,55.1862915 104.15,58.5 Z" id="Path"></path>
                    <path d="M224.52,76.25 C224.531648,87.1700324 222.95515,98.0337169 219.84,108.5 L198.77,108.5 C194.489793,108.5 191.02,105.030207 191.02,100.75 C191.02,94.8129389 186.207061,90 180.27,90 C174.332939,90 169.52,94.8129389 169.52,100.75 L169.52,103.06 C169.365765,107.474607 165.7423,110.973687 161.325,110.973687 C156.9077,110.973687 153.284235,107.474607 153.13,103.06 C153.132654,101.055883 152.338382,99.1329414 150.922195,97.7148782 C149.506007,96.296815 147.584118,95.4999982 145.58,95.5 L88.77,95.5 C83.9375084,95.5 80.02,91.5824916 80.02,86.75 C80.02,81.9175084 83.9375084,78 88.77,78 L136.63,78 C141.048278,78 144.63,74.418278 144.63,70 C144.63,65.581722 148.211722,62 152.63,62 L223.63,62 C224.225222,66.7266345 224.522476,71.4860356 224.52,76.25 Z" id="Path"></path>
                    <path d="M84.05,127.49 C84.0444917,131.497303 80.7973034,134.744492 76.79,134.75 L14.79,134.75 C10.3102164,127.357225 6.69960838,119.471604 4.03,111.25 L61.53,111.25 C64.0019445,111.261011 66.0000245,113.268031 66,115.74 C66.0054726,118.219112 68.0109063,120.229012 70.49,120.24 L76.77,120.24 C78.6980122,120.232022 80.5497945,120.992336 81.9159286,122.35284 C83.2820626,123.713344 84.0500165,125.561971 84.05,127.49 Z" id="Path"></path>
                    <path d="M210,131.75 C201.270331,147.201865 189.035524,160.388876 174.28,170.25 L145.76,170.25 C140.373604,170.250003 136.005519,165.886394 136,160.5 C136,155.115224 131.634776,150.75 126.25,150.75 L105.75,150.75 C100.503295,150.75 96.25,146.496705 96.25,141.25 C96.25,136.003295 100.503295,131.75 105.75,131.75 L210,131.75 Z" id="Path"></path>
                </g>
            </g>
        </g>
    </g>
</svg>