<?xml version="1.0" encoding="UTF-8"?>
<svg width="439px" height="457px" viewBox="0 0 439 457" version="1.1" xmlns="http://www.w3.org/2000/svg" xmlns:xlink="http://www.w3.org/1999/xlink">
    <!-- Generator: Sketch 51.3 (57544) - http://www.bohemiancoding.com/sketch -->
    <title>Combined Shape</title>
    <desc>Created with Sketch.</desc>
    <defs></defs>
    <g id="Page-1" stroke="none" stroke-width="1" fill="none" fill-rule="evenodd">
        <g id="spinner" fill="#703081" fill-rule="nonzero">
            <path d="M100.641,324.332 C111.872,324.332 121.529,328.336 129.621,336.323 C137.71,344.331 141.753,354.029 141.753,365.452 C141.753,376.876 137.709,386.591 129.621,394.582 C121.53,402.576 111.872,406.573 100.641,406.573 C89.221,406.573 79.514,402.576 71.516,394.582 C63.521,386.581 59.525,376.876 59.525,365.452 C59.525,354.029 63.524,344.324 71.516,336.323 C79.511,328.329 89.218,324.332 100.641,324.332 Z M91.505,237.542 C91.505,250.102 87.034,260.857 78.087,269.8 C69.141,278.749 58.385,283.222 45.823,283.222 C33.26,283.222 22.506,278.749 13.559,269.8 C4.613,260.851 0.142,250.102 0.142,237.542 C0.142,224.976 4.614,214.222 13.559,205.275 C22.506,196.33 33.26,191.857 45.823,191.857 C58.385,191.857 69.141,196.329 78.087,205.275 C87.034,214.229 91.505,224.98 91.505,237.542 Z M356.454,132.48 C350.171,132.48 344.791,130.244 340.318,125.769 C335.848,121.294 333.611,115.918 333.611,109.635 C333.611,103.352 335.848,97.978 340.318,93.505 C344.791,89.034 350.171,86.794 356.454,86.794 C362.73,86.794 368.113,89.03 372.583,93.505 C377.056,97.977 379.297,103.352 379.297,109.635 C379.297,115.915 377.056,121.294 372.583,125.769 C368.116,130.24 362.73,132.48 356.454,132.48 Z M100.644,59.388 C114.538,59.388 126.387,64.29 136.188,74.091 C145.989,83.892 150.891,95.741 150.891,109.635 C150.891,123.531 145.989,135.378 136.188,145.183 C126.387,154.984 114.538,159.888 100.644,159.888 C86.75,159.888 74.902,154.987 65.096,145.183 C55.292,135.378 50.393,123.534 50.393,109.635 C50.393,95.741 55.292,83.892 65.096,74.091 C74.899,64.29 86.747,59.388 100.644,59.388 Z M430.684,218.125 C436.02,223.458 438.675,229.932 438.675,237.546 C438.675,245.156 436.016,251.632 430.684,256.956 C425.36,262.288 418.885,264.95 411.274,264.95 C403.656,264.95 397.188,262.288 391.857,256.956 C386.532,251.638 383.87,245.156 383.87,237.546 C383.87,229.928 386.532,223.455 391.857,218.125 C397.185,212.795 403.656,210.133 411.274,210.133 C418.885,210.133 425.356,212.795 430.684,218.125 Z M356.454,333.473 C365.208,333.473 372.727,336.61 379.009,342.894 C385.292,349.178 388.431,356.692 388.431,365.453 C388.431,374.211 385.292,381.73 379.009,388.013 C372.726,394.289 365.208,397.43 356.454,397.43 C347.694,397.43 340.175,394.295 333.892,388.013 C327.616,381.729 324.474,374.207 324.474,365.453 C324.474,356.692 327.616,349.17 333.892,342.894 C340.175,336.611 347.693,333.473 356.454,333.473 Z M228.547,383.717 C238.636,383.717 247.246,387.293 254.385,394.432 C261.524,401.571 265.093,410.18 265.093,420.269 C265.093,430.358 261.524,438.968 254.385,446.106 C247.246,453.245 238.636,456.818 228.547,456.818 C218.455,456.818 209.845,453.245 202.703,446.106 C195.564,438.968 191.998,430.358 191.998,420.269 C191.998,410.18 195.568,401.571 202.703,394.432 C209.845,387.293 218.459,383.717 228.547,383.717 Z M228.547,0 C243.779,0 256.719,5.33 267.375,15.986 C278.031,26.65 283.36,39.593 283.36,54.818 C283.36,70.045 278.031,82.99 267.375,93.646 C256.719,104.306 243.779,109.633 228.547,109.633 C213.319,109.633 200.373,104.303 189.713,93.646 C179.054,82.985 173.727,70.045 173.727,54.818 C173.727,39.592 179.056,26.646 189.713,15.986 C200.373,5.327 213.322,0 228.547,0 Z" id="Combined-Shape"></path>
        </g>
    </g>
</svg>