<?xml version="1.0" encoding="UTF-8"?>
<svg width="44px" height="44px" viewBox="0 0 44 44" version="1.1" xmlns="http://www.w3.org/2000/svg" xmlns:xlink="http://www.w3.org/1999/xlink">
    <title>Group 7</title>
    <defs>
        <linearGradient x1="27.6285319%" y1="70.6126282%" x2="109.084124%" y2="-4.42433535%" id="linearGradient-1">
            <stop stop-color="#E6E6E6" offset="0%"></stop>
            <stop stop-color="#E6E6E6" offset="23.3999997%"></stop>
            <stop stop-color="#E2E5E6" offset="43.3999985%"></stop>
            <stop stop-color="#D7E0E5" offset="62.5%"></stop>
            <stop stop-color="#C3D9E4" offset="81.1999977%"></stop>
            <stop stop-color="#A9CEE3" offset="99.5999992%"></stop>
            <stop stop-color="#A8CEE3" offset="100%"></stop>
        </linearGradient>
        <radialGradient cx="31.8658862%" cy="73.7265061%" fx="31.8658862%" fy="73.7265061%" r="122.787885%" gradientTransform="translate(0.3187, 0.7373), scale(0.9601, 1), rotate(-135.267), scale(1, 0.4151), translate(-0.3187, -0.7373)" id="radialGradient-2">
            <stop stop-color="#5CBAE6" stop-opacity="0" offset="0%"></stop>
            <stop stop-color="#5CBAE6" stop-opacity="0" offset="29.8999995%"></stop>
            <stop stop-color="#5CBAE6" offset="67.900002%"></stop>
            <stop stop-color="#5CBAE6" stop-opacity="0" offset="95.7000017%"></stop>
            <stop stop-color="#5CBAE6" stop-opacity="0" offset="100%"></stop>
        </radialGradient>
        <linearGradient x1="57.5184027%" y1="52.3158438%" x2="35.6872283%" y2="36.5161195%" id="linearGradient-3">
            <stop stop-color="#FF2156" offset="0%"></stop>
            <stop stop-color="#E51F4E" offset="69.3000019%"></stop>
            <stop stop-color="#ED4069" offset="75.999999%"></stop>
            <stop stop-color="#E82553" offset="87.3000026%"></stop>
            <stop stop-color="#EF0C42" offset="100%"></stop>
        </linearGradient>
    </defs>
    <g id="Page-1" stroke="none" stroke-width="1" fill="none" fill-rule="evenodd">
        <g id="Blood-report-main-screen" transform="translate(-36, -504)">
            <g id="Group-6-Copy" transform="translate(20, 456)">
                <g id="Group-4" transform="translate(0, 32)">
                    <g id="Group-7" transform="translate(16, 16)">
                        <rect id="Rectangle" fill="#F4F4F4" x="0" y="0" width="44" height="44" rx="8"></rect>
                        <g id="Group-44" transform="translate(3, 6)">
                            <g id="Group-19" transform="translate(16.7844, 6.7317)">
                                <path d="M17.6639147,1.47428636 C17.6639147,0.00157171369 17.5164736,0 15.9626582,0 L5.04058359,0 C3.48838847,0 3.33608533,0.00157171369 3.33608533,1.47428636 L4.88017933,1.47428636 L4.88017933,6.09518419 L0,22.3296235 C0,23.8054817 1.2589308,25 2.81274614,25 L18.1872554,25 C19.7394505,25 21,23.8054817 21,22.3296235 L16.1587068,6.04803221 L16.1360235,1.47428636 L17.6639147,1.47428636 L17.6639147,1.47428636 Z M19.3619324,21.3362877 C19.8010189,22.7257005 19.0330223,23.5917265 17.0417407,23.5917265 L4.12028368,23.5917265 C1.85031981,23.5917265 1.29295595,22.6596877 1.80009276,21.3362877 L6.31409612,6.16591233 L6.29627394,1.43027782 L14.6000309,1.43027782 L14.6000309,6.12819083 L19.3619324,21.3362877 L19.3619324,21.3362877 Z" id="Vector" fill="#CCDDE5"></path>
                                <path d="M12.9942926,9.43040543 L8.10114998,9.43040543 L5.12313755,19.3449073 C4.54795013,21.1524022 4.73427844,21.834536 7.40444435,21.834536 L13.6893797,21.834536 C16.3352419,21.834536 16.3951901,21.0203765 15.9723058,19.3449073 L12.9942926,9.43040543 L12.9942926,9.43040543 Z" id="Vector" fill="#FF2156" fill-rule="nonzero"></path>
                            </g>
                            <g id="noto:test-tube" transform="translate(16.9379, 16.3792) rotate(-15) translate(-16.9379, -16.3792)translate(2.9412, 3.1726)" fill-rule="nonzero">
                                <path d="M1.74706268,19.3419923 L19.3252456,2.47005262 C19.3537123,2.44272964 19.3750622,2.40629878 19.4011567,2.36531431 C19.5885624,2.0602077 19.6075415,1.76648581 19.5767026,1.37941026 C19.5268859,0.723658722 19.6881955,0.368459988 20.0179347,0.129383928 C20.4567962,-0.184830335 21.9726486,-0.121076628 24.809829,2.60211367 C27.6470094,5.32530397 27.7134318,6.77797561 27.3860649,7.19920488 C27.1393535,7.51797297 26.7692852,7.67052685 26.0837124,7.62271164 C25.6804342,7.59538866 25.3744187,7.61132657 25.0565406,7.79120286 C25.0138405,7.81624892 24.9735129,7.83674109 24.9474185,7.86406407 L7.36923468,24.7360027 C4.95431017,27.0539022 2.64850799,26.7009801 1.18484552,25.2961236 L1.17535663,25.2870174 L1.16586774,25.2779096 C-0.300166894,23.873053 -0.667861834,21.6598918 1.74706268,19.3419923 L1.74706268,19.3419923 Z" id="Vector" fill="url(#linearGradient-1)"></path>
                                <path d="M22.6890244,4.637657 C21.2989035,3.30338502 20.2290322,2.60892594 19.4438274,2.28332717 C19.5885329,2.00554358 19.6027674,1.73003685 19.576673,1.37939201 C19.5624397,1.17902353 19.5671835,1.00825496 19.5909057,0.860255518 C20.316805,0.839763286 21.7211582,1.35434592 23.9154617,3.46276889 C26.1097651,5.56891489 26.6458882,6.91684846 26.6245382,7.61358431 C26.4679717,7.63635346 26.2924259,7.6409076 26.0836706,7.62724611 C25.7159765,7.60220005 25.4289394,7.61586098 25.1419008,7.75475277 C24.8026733,6.99881714 24.0791453,5.97192899 22.6890244,4.637657 L22.6890244,4.637657 Z" id="Vector" fill="url(#radialGradient-2)" opacity="0.230000004"></path>
                                <path d="M13.2096327,8.70879766 L2.11474513,19.3624658 C-0.229011388,21.6097774 0.0675165084,23.7113668 1.42917256,25.0183139 C2.7908286,26.3229842 4.97564582,26.6144289 7.32414667,24.3602866 L24.6674722,7.71378672 L13.2096327,8.70879766 L13.2096327,8.70879766 Z" id="Vector" fill="url(#linearGradient-3)"></path>
                                <path d="M1.97003435,21.2568661 L19.7237353,4.21644682 C19.7592491,4.18235984 19.8014111,4.15532063 19.8478121,4.13687289 C19.8942131,4.11842515 19.9439442,4.10893001 19.9941683,4.10893001 C20.0443924,4.10893001 20.0941253,4.11842515 20.1405263,4.13687289 C20.1869273,4.15532063 20.2290875,4.18235984 20.2646013,4.21644682 C20.3001151,4.25053379 20.3282875,4.29100103 20.3475074,4.3355378 C20.3667273,4.38007458 20.376619,4.42780855 20.376619,4.4760148 C20.376619,4.52422106 20.3667274,4.57195546 20.3475074,4.61649224 C20.3282875,4.66102901 20.3001151,4.70149625 20.2646013,4.73558322 L2.51090062,21.7760021 C2.36145071,21.9194476 2.11948425,21.9194476 1.97003435,21.7760021 C1.89932811,21.7066464 1.85973373,21.6134699 1.85973373,21.5164341 C1.85973373,21.4193983 1.89932811,21.3262218 1.97003435,21.2568661 L1.97003435,21.2568661 Z" id="Vector" fill="#FFFFFF" opacity="0.550000012"></path>
                                <path d="M20.2812256,10.3800667 C20.2812256,10.9509756 19.7990466,11.4137881 19.2042488,11.4137881 C18.6094511,11.4137881 18.1272739,10.9509756 18.1272739,10.3800667 C18.1272739,9.80915776 18.6094511,9.34634445 19.2042488,9.34634445 C19.7990466,9.34634445 20.2812256,9.80915776 20.2812256,10.3800667 Z" id="Vector" fill="#FFFFFF" opacity="0.689999998"></path>
                                <path d="M22.5300813,5.70780924 C22.5300813,6.27871532 22.047895,6.74152588 21.4530882,6.74152588 C20.8582814,6.74152588 20.3760951,6.27871532 20.3760951,5.70780924 C20.3760951,5.13690316 20.8582814,4.67409261 21.4530882,4.67409261 C22.047895,4.67409261 22.5300813,5.13690316 22.5300813,5.70780924 Z" id="Vector" fill="#F31A4E"></path>
                                <path d="M16.6991926,11.6164114 C16.6991926,11.8930618 16.4655353,12.1173314 16.1773034,12.1173314 C15.8890715,12.1173314 15.6554124,11.8930618 15.6554124,11.6164114 C15.6554124,11.339761 15.8890715,11.1154922 16.1773034,11.1154922 C16.4655353,11.1154922 16.6991926,11.339761 16.6991926,11.6164114 Z" id="Vector" fill="#FFFFFF" opacity="0.689999998"></path>
                                <path d="M26.0836876,1.03102709 C26.0836876,1.58935974 25.612131,2.04197764 25.0304349,2.04197764 C24.4487388,2.04197764 23.9771804,1.58935974 23.9771804,1.03102709 C23.9771804,0.472694444 24.4487388,0.0200763221 25.0304349,0.0200763221 C25.612131,0.0200763221 26.0836876,0.472694444 26.0836876,1.03102709 Z" id="Vector" fill="#EE3863"></path>
                                <path d="M27.9933185,1.57065333 C27.9933185,1.83095704 27.773469,2.0419748 27.5022707,2.0419748 C27.2310725,2.0419748 27.0112229,1.83095704 27.0112229,1.57065333 C27.0112229,1.31034961 27.2310725,1.09933163 27.5022707,1.09933163 C27.773469,1.09933163 27.9933185,1.31034961 27.9933185,1.57065333 Z" id="Vector" fill="#F31A4E"></path>
                                <path d="M13.8643916,14.7904276 C13.8643916,15.2695382 13.4597345,15.6579353 12.9605651,15.6579353 C12.4613956,15.6579353 12.0567385,15.2695382 12.0567385,14.7904276 C12.0567385,14.311317 12.4613956,13.9229216 12.9605651,13.9229216 C13.4597345,13.9229216 13.8643916,14.311317 13.8643916,14.7904276 Z" id="Vector" fill="#FFFFFF" opacity="0.689999998"></path>
                                <path d="M14.7136272,12.4383774 C14.7136272,12.6232249 14.5575027,12.7730737 14.3649138,12.7730737 C14.1723249,12.7730737 14.0162005,12.6232249 14.0162005,12.4383774 C14.0162005,12.2535299 14.1723249,12.1036819 14.3649138,12.1036819 C14.5575027,12.1036819 14.7136272,12.2535299 14.7136272,12.4383774 Z" id="Vector" fill="#FFFFFF" opacity="0.689999998"></path>
                            </g>
                        </g>
                    </g>
                </g>
            </g>
        </g>
    </g>
</svg>