<svg xmlns="http://www.w3.org/2000/svg" width="63" height="63" viewBox="0 0 63 63">
    <path fill="#7E00BA" fill-rule="nonzero" d="M61.662 7.943L38.096 31.535l23.566 23.593c1.784 1.786 1.784 4.817 0 6.603-1.01 1.01-2.019 1.269-3.286 1.269-1.268 0-2.277-.517-3.286-1.269L31.5 38.138 7.91 61.731C6.9 62.741 5.891 63 4.624 63s-2.277-.517-3.286-1.269c-1.784-1.786-1.784-4.817 0-6.603l23.566-23.593L1.338 7.943c-1.784-1.786-1.784-4.818 0-6.603 1.784-1.787 4.812-1.787 6.596 0L31.5 24.932 55.067 1.34c1.784-1.787 4.812-1.787 6.595 0 1.784 1.786 1.784 4.558 0 6.603z"/>
</svg>
