<svg xmlns="http://www.w3.org/2000/svg" width="116" height="56" viewBox="0 0 116 56">
    <defs>
        <linearGradient id="a" x1="100%" x2="0%" y1="25.494%" y2="25.494%">
            <stop offset="0%" stop-color="#F68294"/>
            <stop offset="100%" stop-color="#DC3849"/>
        </linearGradient>
    </defs>
    <path fill="url(#a)" fill-rule="nonzero" d="M325.21 27.195h-9.444c.274-.385.523-.79.74-1.214a9.849 9.849 0 0 0 .464-7.893l-2.862-7.697a9.828 9.828 0 0 0-5.498-5.671 9.825 9.825 0 0 0-7.9.227L278.06 15.71a6.797 6.797 0 0 0-3.967-1.273h-10.185a6.8 6.8 0 0 0-3.967 1.274L237.29 4.946a9.829 9.829 0 0 0-7.9-.226 9.83 9.83 0 0 0-5.498 5.67l-2.862 7.7a9.843 9.843 0 0 0 .464 7.891c.217.424.467.83.741 1.214h-9.446a1.79 1.79 0 0 0-1.79 1.792V50.17a1.791 1.791 0 1 0 3.58 0V30.778h12.436c.2.07.401.134.605.19l15.03 4.141a119.702 119.702 0 0 0-8.808 16.09h-19.262v-2.15a1.79 1.79 0 1 0-3.581 0v3.943c0 .989.802 1.791 1.79 1.791h6.385v63.425c0 .99.802 1.792 1.79 1.792h96.07a1.79 1.79 0 0 0 1.791-1.792v-10.402a1.791 1.791 0 1 0-3.58 0v8.612H279.74V55.885a95.982 95.982 0 0 1 10.084 30.86 1.79 1.79 0 0 0 3.201.82 99.9 99.9 0 0 0 7.127-10.894 102.047 102.047 0 0 1 10.464 8.19 1.79 1.79 0 0 0 2.963-1.596 120.223 120.223 0 0 0-7.872-28.482h9.536v58.285a1.79 1.79 0 1 0 3.581 0V54.783h6.385a1.79 1.79 0 0 0 1.79-1.791V28.987c0-.99-.8-1.792-1.79-1.792zM302.246 8.183a6.16 6.16 0 0 1 5.016-.144 6.155 6.155 0 0 1 3.49 3.6l2.861 7.697a6.168 6.168 0 0 1-.294 5.012 6.155 6.155 0 0 1-3.89 3.166l-28.498 7.851v-8.61c6.406-3.925 22.375-12.02 26.35-6.406.57.806 1.688.999 2.495.426.807-.572.998-1.69.426-2.497-3.067-4.333-9.531-4.544-19.214-.625-3.989 1.613-7.672 3.583-10.057 4.95V21.28c0-.959-.199-1.873-.556-2.703l21.871-10.394zm-28.153 9.837a3.263 3.263 0 0 1 3.258 3.26V36.09a3.262 3.262 0 0 1-3.258 3.26h-10.185a3.262 3.262 0 0 1-3.258-3.26V21.28a3.262 3.262 0 0 1 3.258-3.26h10.185zM260.899 51.2a95.554 95.554 0 0 1 5.582-8.267h5.037a95.153 95.153 0 0 1 5.582 8.267H260.9zm-36.217-26.851a6.17 6.17 0 0 1-.295-5.01l2.863-7.7a6.152 6.152 0 0 1 3.489-3.599 6.157 6.157 0 0 1 5.015.144l21.872 10.396a6.805 6.805 0 0 0-.556 2.702v1.424c-2.378-1.369-6.143-3.397-10.234-5.052-9.682-3.92-16.147-3.708-19.215.625a1.792 1.792 0 0 0 .427 2.497c.807.573 1.924.381 2.495-.426 4.012-5.668 20.244 2.634 26.527 6.515v8.501l-28.498-7.85a6.158 6.158 0 0 1-3.89-3.167zm33.191 14.955a6.868 6.868 0 0 0 4.323 3.41 99.707 99.707 0 0 0-16.841 39.242 98.048 98.048 0 0 1-5.308-8.706 1.787 1.787 0 0 0-2.552-.648 103.724 103.724 0 0 0-8.721 6.372c2.904-15.252 8.903-29.959 17.506-42.864l11.593 3.194zm-35.117 15.48h9.537a120.255 120.255 0 0 0-7.873 28.482 1.791 1.791 0 0 0 2.963 1.596 101.96 101.96 0 0 1 10.465-8.19 99.856 99.856 0 0 0 7.127 10.893 1.79 1.79 0 0 0 3.2-.818 96.03 96.03 0 0 1 10.084-30.862v60.534h-35.503V54.783zm39.084 61.635V54.783h14.321v61.635H261.84zm37.248-44.053a1.791 1.791 0 0 0-1.134.884 97.92 97.92 0 0 1-5.308 8.706 99.681 99.681 0 0 0-16.842-39.24 6.866 6.866 0 0 0 4.324-3.412l11.595-3.195c8.602 12.908 14.601 27.615 17.505 42.865a103.88 103.88 0 0 0-8.722-6.372 1.788 1.788 0 0 0-1.418-.236zM323.42 51.2H304.16a119.795 119.795 0 0 0-8.808-16.09l15.028-4.141a9.42 9.42 0 0 0 .606-.191h12.435V51.2z" opacity=".704" transform="translate(-211 -4)"/>
</svg>
