<svg xmlns="http://www.w3.org/2000/svg" width="269" height="55" viewBox="0 0 269 55">
    <defs>
        <linearGradient id="a" x1="0%" y1="52.104%" y2="47.896%">
            <stop offset="0%" stop-color="#F68294"/>
            <stop offset="100%" stop-color="#E94B5B"/>
        </linearGradient>
    </defs>
    <path fill="url(#a)" fill-rule="evenodd" d="M271.44 10.805l.089-.002a2.5 2.5 0 0 1 2.498 2.394c.01.1.016.2.016.302V59.5a2.696 2.696 0 1 1-5.39 0V13.5a2.696 2.696 0 0 1 2.787-2.694zM37.725 18.918a2.696 2.696 0 0 1 2.695 2.696v29.772a2.696 2.696 0 0 1-5.391 0V21.614a2.696 2.696 0 0 1 2.696-2.696zm8.985 4.508a2.696 2.696 0 0 1 2.696 2.696v20.756a2.696 2.696 0 0 1-5.392 0V26.122a2.696 2.696 0 0 1 2.696-2.696zm8.986 1.804a2.696 2.696 0 0 1 2.695 2.695v16.248a2.696 2.696 0 1 1-5.391 0V27.925a2.696 2.696 0 0 1 2.696-2.695zm-28 2a2.696 2.696 0 0 1 2.695 2.695v12.248a2.696 2.696 0 1 1-5.391 0V29.925a2.696 2.696 0 0 1 2.696-2.695zM64.68 12.607a2.696 2.696 0 0 1 2.696 2.695v42.396a2.696 2.696 0 0 1-5.391 0V15.302a2.696 2.696 0 0 1 2.695-2.695zm8.986.901a2.696 2.696 0 0 1 2.695 2.696v40.592a2.696 2.696 0 1 1-5.391 0V16.204a2.696 2.696 0 0 1 2.696-2.696zm26.956 0a2.696 2.696 0 0 1 2.696 2.696v40.592a2.696 2.696 0 0 1-5.391 0V16.204a2.696 2.696 0 0 1 2.695-2.696zm8.986 4.508a2.696 2.696 0 0 1 2.695 2.696v31.576a2.696 2.696 0 0 1-5.391 0V20.712a2.696 2.696 0 0 1 2.696-2.696zm8.985 4.509a2.696 2.696 0 0 1 2.696 2.695v22.56a2.696 2.696 0 0 1-5.391 0V25.22a2.696 2.696 0 0 1 2.695-2.695zm8.986 4.508a2.696 2.696 0 0 1 2.695 2.695v13.544a2.696 2.696 0 1 1-5.39 0V29.728a2.696 2.696 0 0 1 2.695-2.695zm8.985 4.508a2.696 2.696 0 0 1 2.696 2.696v4.526a2.696 2.696 0 0 1-5.391 0v-4.526a2.696 2.696 0 0 1 2.695-2.696zm8.986-13.525a2.696 2.696 0 0 1 2.695 2.696v31.576a2.696 2.696 0 0 1-5.39 0V20.712a2.696 2.696 0 0 1 2.695-2.696zm8.985 4.509a2.696 2.696 0 0 1 2.696 2.695v22.56a2.696 2.696 0 0 1-5.391 0V25.22a2.696 2.696 0 0 1 2.695-2.695zm8.986 4.508a2.696 2.696 0 0 1 2.695 2.695v13.544a2.696 2.696 0 1 1-5.39 0V29.728a2.696 2.696 0 0 1 2.695-2.695zm8.985-13.525a2.696 2.696 0 0 1 2.696 2.696v40.592a2.696 2.696 0 0 1-5.391 0V16.204a2.696 2.696 0 0 1 2.695-2.696zm8.986 5.41a2.696 2.696 0 0 1 2.695 2.696v29.772a2.696 2.696 0 0 1-5.39 0V21.614a2.696 2.696 0 0 1 2.695-2.696zm8.985 4.508a2.696 2.696 0 0 1 2.696 2.696v20.756a2.696 2.696 0 0 1-5.391 0V26.122a2.696 2.696 0 0 1 2.695-2.696zm8.986 7.213a2.696 2.696 0 0 1 2.695 2.696v6.33a2.696 2.696 0 1 1-5.39 0v-6.33a2.696 2.696 0 0 1 2.695-2.696zm8.985.902a2.696 2.696 0 0 1 2.696 2.696v3.625a2.696 2.696 0 0 1-5.391 0v-3.625a2.696 2.696 0 0 1 2.695-2.696zm8.986-2.705a2.696 2.696 0 0 1 2.695 2.696v9.035a2.696 2.696 0 0 1-5.39 0v-9.035a2.696 2.696 0 0 1 2.695-2.696zm8.985 4.508a2.696 2.696 0 0 1 2.696 2.696v.92a2.696 2.696 0 0 1-5.391 0v-.92a2.696 2.696 0 0 1 2.695-2.696zm64-6a2.696 2.696 0 0 1 2.696 2.696v9.92a2.696 2.696 0 0 1-5.391 0v-9.92a2.696 2.696 0 0 1 2.695-2.696zm-55.014-4.82a2.696 2.696 0 0 1 2.695 2.696v22.56a2.696 2.696 0 1 1-5.39 0V25.22a2.696 2.696 0 0 1 2.695-2.695zm8.985 4.509a2.696 2.696 0 0 1 2.696 2.695v13.544a2.696 2.696 0 0 1-5.391 0V29.728a2.696 2.696 0 0 1 2.695-2.695zm8.986-9.017a2.696 2.696 0 0 1 2.695 2.696v31.576a2.696 2.696 0 0 1-5.39 0V20.712a2.696 2.696 0 0 1 2.695-2.696zM262.362 9a2.696 2.696 0 0 1 2.696 2.696v49.608a2.696 2.696 0 0 1-5.391 0V11.696A2.696 2.696 0 0 1 262.362 9zm17.971 6.311a2.696 2.696 0 0 1 2.696 2.696v36.986a2.696 2.696 0 0 1-5.391 0V18.007a2.696 2.696 0 0 1 2.695-2.696zm-197.68.902a2.696 2.696 0 0 1 2.695 2.696V54.09a2.696 2.696 0 0 1-5.391 0V18.91a2.696 2.696 0 0 1 2.695-2.696zm8.985-4.508a2.696 2.696 0 0 1 2.695 2.696v44.198a2.696 2.696 0 1 1-5.391 0V14.401a2.696 2.696 0 0 1 2.696-2.696z" transform="translate(-25 -9)"/>
</svg>
