<svg xmlns="http://www.w3.org/2000/svg" width="62" height="83" viewBox="0 0 62 83">
    <path fill="#FFF" fill-rule="evenodd" d="M31.683 64.388c2.164 0 3.96 1.523 3.96 3.402v11.42c0 1.878-1.796 3.401-3.96 3.401-2.164 0-3.96-1.523-3.96-3.402V67.79c0-1.879 1.796-3.402 3.96-3.402zM44.789 0c2.164 0 3.96 1.523 3.96 3.402v11.419c0 1.88-1.796 3.402-3.96 3.402-2.164 0-3.96-1.523-3.96-3.402V3.402C40.83 1.523 42.625 0 44.79 0zm13.105 22.133c2.164 0 3.96 1.524 3.96 3.402v36.559c0 1.878-1.796 3.402-3.96 3.402-2.164 0-3.959-1.524-3.959-3.402V25.535c0-1.878 1.795-3.402 3.96-3.402zm-13.206-.097c2.164 0 3.88 1.523 3.88 3.402v20.928c0 1.88-1.716 3.402-3.88 3.402-2.164 0-3.879-1.702-3.879-3.582 0-.67-.323-1.987-2.859-1.987-2.86 0-2.72 1.842-2.72 1.842v10.867c0 1.88-1.763 3.402-3.927 3.402s-3.927-1.522-3.927-3.402v.155c-.038-.523-.395-1.848-3.059-1.848-3.318 0-3.129 2.058-3.129 2.058s.06 3.136 0 4.85c-.106 3.068-.42 6.1-10.676 6.1C.257 68.222.085 65.15.03 62.122c-.065-3.417 0-13.675 0-13.675 0-1.879 1.715-3.402 3.879-3.402 2.164 0 3.879 1.523 3.879 3.402v10.501s-.252 1.949 2.79 1.949c3.04 0 2.724-1.949 2.724-1.949V5.917c0-1.879 1.78-3.402 3.944-3.402 2.164 0 3.943 1.523 3.943 3.402v42.494s-.092 1.894 3.174 1.894c3.267 0 3.014-1.894 3.014-1.894V34.284c0-1.88 1.763-3.402 3.927-3.402s3.928 1.523 3.928 3.402v3.965s.147 2.05 2.791 2.05c2.645 0 2.787-2.05 2.787-2.05v-12.81c0-1.88 1.715-3.403 3.88-3.403z"/>
</svg>
