<svg xmlns="http://www.w3.org/2000/svg" viewBox="0 0 569.81 721.19"><defs><style>.cls-1,.cls-10{fill:#f2f2f2;}.cls-1{stroke:#bfbfbf;stroke-miterlimit:10;}.cls-2{fill:#a5a5a5;}.cls-3{fill:#dc407e;}.cls-4{fill:#f9d4ac;}.cls-5{fill:#fffaf5;}.cls-6{fill:#fff3d9;}.cls-7{opacity:0.8;}.cls-8{fill:#e2a771;}.cls-9{fill:#596273;}</style></defs><title>RateDelivery</title><g id="Layer_2" data-name="Layer 2"><g id="Layer_3" data-name="Layer 3"><rect class="cls-1" x="0.5" y="60.56" width="568.81" height="119.44" rx="58.57"/><path class="cls-2" d="M341.75,72.31,294.9,30.44A4.31,4.31,0,0,1,300.63,24a3.85,3.85,0,0,1,.35.35l41.87,46.85a.79.79,0,0,1-.07,1.1A.78.78,0,0,1,341.75,72.31Z"/><path class="cls-2" d="M426.22,71.21l41.87-46.85a4.31,4.31,0,1,1,6.42,5.74,3.64,3.64,0,0,1-.34.34L427.32,72.31a.79.79,0,0,1-1.1-.07A.78.78,0,0,1,426.22,71.21Z"/><path class="cls-2" d="M384.82,67.28,381.3,4.55a4.31,4.31,0,1,1,8.6-.48,3.84,3.84,0,0,1,0,.48l-3.52,62.73a.78.78,0,0,1-1.56,0Z"/><path class="cls-2" d="M74.56,79.54a44.06,44.06,0,1,0,43.81,44.06A44,44,0,0,0,74.56,79.54Zm0,80.32a36.27,36.27,0,1,1,36.06-36.26A36.2,36.2,0,0,1,74.56,159.86Z"/><path class="cls-2" d="M61.63,123.23a5.6,5.6,0,1,0-5.56-5.6A5.59,5.59,0,0,0,61.63,123.23Z"/><path class="cls-2" d="M87.5,112a5.6,5.6,0,1,0,5.56,5.59A5.58,5.58,0,0,0,87.5,112Z"/><path class="cls-2" d="M57.26,139.14a2.83,2.83,0,0,0,0,4,2.79,2.79,0,0,0,4,0,18.83,18.83,0,0,1,26.71,0,2.8,2.8,0,1,0,4-4A24.41,24.41,0,0,0,57.26,139.14Z"/><path class="cls-2" d="M79.88,113.59a2.13,2.13,0,0,0,1.22-.39l8.24-5.92a2.12,2.12,0,0,0,.49-2.94,2.1,2.1,0,0,0-2.92-.49l-8.25,5.92a2.11,2.11,0,0,0,1.22,3.82Z"/><path class="cls-2" d="M59.79,107.28,68,113.2a2.1,2.1,0,0,0,2.43-3.43l-8.25-5.92a2.1,2.1,0,0,0-2.92.49A2.12,2.12,0,0,0,59.79,107.28Z"/><path class="cls-3" d="M389.81,79.54a44.06,44.06,0,1,0,43.8,44.06A44,44,0,0,0,389.81,79.54Zm0,80.32a36.27,36.27,0,1,1,36.06-36.26A36.2,36.2,0,0,1,389.81,159.86Z"/><path class="cls-3" d="M376.88,121.12a5.6,5.6,0,1,0-5.57-5.59A5.57,5.57,0,0,0,376.88,121.12Z"/><path class="cls-3" d="M402.74,109.93a5.6,5.6,0,1,0,5.56,5.6A5.58,5.58,0,0,0,402.74,109.93Z"/><path class="cls-3" d="M403.16,137a18.84,18.84,0,0,1-26.71,0,2.78,2.78,0,0,0-3.95,0,2.82,2.82,0,0,0,0,4,24.4,24.4,0,0,0,34.61,0,2.82,2.82,0,0,0,0-4A2.78,2.78,0,0,0,403.16,137Z"/><path class="cls-2" d="M179.17,79.54a44.06,44.06,0,1,0,44.06,44.06A44.06,44.06,0,0,0,179.17,79.54Zm25.71,69.76a36.3,36.3,0,1,1,10.64-25.7A36.36,36.36,0,0,1,204.88,149.3Z"/><path class="cls-2" d="M166.2,121.17a5.62,5.62,0,1,0-4-1.65A5.61,5.61,0,0,0,166.2,121.17Z"/><path class="cls-2" d="M192.24,109.92a5.6,5.6,0,1,0,4,1.64A5.62,5.62,0,0,0,192.24,109.92Z"/><path class="cls-2" d="M161.79,137.1a2.81,2.81,0,0,0,4,4,19,19,0,0,1,26.89,0,2.82,2.82,0,0,0,2,.82,2.76,2.76,0,0,0,2-.82,2.83,2.83,0,0,0,0-4A24.67,24.67,0,0,0,161.79,137.1Z"/><g id="Android"><g id="_5--Rate-Order-1" data-name="5--Rate-Order-1"><g id="Group-2-Copy-3"><path id="Fill-10" class="cls-2" d="M493.39,159.86a36.27,36.27,0,1,1,36.27-36.26,36.31,36.31,0,0,1-36.27,36.26m0-80.32a44.06,44.06,0,1,0,44.06,44.06,44.1,44.1,0,0,0-44.06-44.06"/><path id="Fill-12" class="cls-2" d="M480.39,121.12a5.6,5.6,0,1,0-5.6-5.59,5.59,5.59,0,0,0,5.6,5.59"/><path id="Fill-14" class="cls-2" d="M506.4,121.12a5.6,5.6,0,1,0-5.6-5.59,5.6,5.6,0,0,0,5.6,5.59"/><path id="Fill-16" class="cls-2" d="M493.39,152.08A18.65,18.65,0,0,0,512,133.46H474.77a18.64,18.64,0,0,0,18.62,18.62"/></g></g></g><path class="cls-2" d="M285.65,79.54a44.06,44.06,0,1,0,43.81,44.06A44,44,0,0,0,285.65,79.54Zm0,80.32a36.27,36.27,0,1,1,36.06-36.26A36.21,36.21,0,0,1,285.65,159.86Z"/><path class="cls-2" d="M272.72,124.63a5.6,5.6,0,1,0-5.56-5.59A5.58,5.58,0,0,0,272.72,124.63Z"/><path class="cls-2" d="M298.59,113.44a5.6,5.6,0,1,0,5.56,5.6A5.58,5.58,0,0,0,298.59,113.44Z"/><path class="cls-2" d="M298.67,137.55h-26c-2.31,0-4.17,1.28-4.17,2.85s1.86,2.84,4.17,2.84h26c2.3,0,4.17-1.27,4.17-2.84S301,137.55,298.67,137.55Z"/><path class="cls-4" d="M499.69,296.58a29.83,29.83,0,0,0-4.93.11,24.69,24.69,0,0,0-16.23-7.55,22.85,22.85,0,0,0-7.31.73,24.69,24.69,0,0,0-16.75-8.14,22.07,22.07,0,0,0-13.58,3.52,24.8,24.8,0,0,0-17.8-9.35,22.29,22.29,0,0,0-12.7,3V162.49c0-12.2-8.55-20.69-22.86-20.69-12.64,0-22.85,8.49-22.84,20.69V362.62c-5.36-7.64-31.07-42.24-63.09-50,0,0-42.31-4.25,2.13,46.79,0,0,29.95,31.32,39.16,47.54,0,0,16.2,38.76,42.55,53.89,0,0,7.56,5.15,8.13,20.34h0v0l.07,24.06H505.19l-.11-37.71s18.43-22.56,18.43-54.71l.42-97.77C523.93,305.64,512.32,297.36,499.69,296.58Z"/><path class="cls-4" d="M499.69,296.58a29.83,29.83,0,0,0-4.93.11,24.69,24.69,0,0,0-16.23-7.55,22.85,22.85,0,0,0-7.31.73,24.69,24.69,0,0,0-16.75-8.14,22.07,22.07,0,0,0-13.58,3.52,24.8,24.8,0,0,0-17.8-9.35,22.29,22.29,0,0,0-12.7,3V162.49c0-12.2-8.55-20.69-22.86-20.69-12.64,0-22.85,8.49-22.84,20.69V362.62c-5.36-7.64-31.07-42.24-63.09-50,0,0-42.31-4.25,2.13,46.79,0,0,29.95,31.32,39.16,47.54,0,0,16.2,38.76,42.55,53.89,0,0,7.56,5.15,8.13,20.34h0v0l.07,24.06H505.19l-.11-37.71s18.43-22.56,18.43-54.71l.42-97.77C523.93,305.64,512.32,297.36,499.69,296.58Z"/><path class="cls-5" d="M402.74,160.58a6.6,6.6,0,0,0-6.65-6.62H379a6.62,6.62,0,0,0-6.66,6.62l0,11.92a2.15,2.15,0,0,0,.09.76c1,12.54,11.89,13.54,15.13,13.56s14.16-1,15.13-13.56a1.94,1.94,0,0,0,.1-.76Z"/><path class="cls-6" d="M298.57,321.78A14.75,14.75,0,0,0,284,320.25c-1.87,5.53.52,15,13,31a5.68,5.68,0,0,0,1.2-.35c5.93-2.47,13.4-10.81,10.33-17.74C307.66,331.17,300.09,322.89,298.57,321.78Z"/><g class="cls-7"><rect class="cls-8" x="374.42" y="219.58" width="26.24" height="4.66" rx="1.08"/><rect class="cls-8" x="374.42" y="242.87" width="26.24" height="4.66" rx="1.08"/><path class="cls-8" d="M395,235.84H380.07a2.07,2.07,0,0,1-2.06-2.06h0a2.07,2.07,0,0,1,2.06-2.07H395a2.07,2.07,0,0,1,2.06,2.07h0A2.07,2.07,0,0,1,395,235.84Z"/></g><polygon class="cls-9" points="449.42 522.88 340.81 522.88 340.81 721.19 449.42 721.19 558.03 721.19 558.03 522.88 449.42 522.88"/><rect class="cls-10" x="368.33" y="495.1" width="162.18" height="27.79"/></g></g></svg>