<svg width="50" height="50" viewBox="0 0 50 50" xmlns="http://www.w3.org/2000/svg">
    <g fill="none" fill-rule="evenodd">
        <path d="M0 0h50v50H0z"/>
        <g fill="#FF426F" fill-rule="nonzero">
            <path d="M47.257 33.351c-2.059-2.902-6.072-3.65-9.042-1.69l-4.055 2.675a6.576 6.576 0 0 0 .652-2.86v-1.321h-8.233c-.607 0-.875-.333-1.49-.875-3.448-3.04-8.743-3.04-12.191 0L8.91 32.795H3V46h29.616L48 34.399l-.743-1.048zM31.734 43.36H5.636v-7.923h4.269l4.735-4.174c2.455-2.164 6.252-2.164 8.708 0 .667.59 1.551 1.533 3.231 1.533h5.37a3.962 3.962 0 0 1-3.729 2.641h-5.35v2.641h10.413l6.382-4.211c1.402-.925 3.221-.835 4.528.098l-12.459 9.395zM30.5 25c3.584 0 6.5-2.99 6.5-6.667a6.8 6.8 0 0 0-.868-3.33L30.5 5l-5.632 10.003a6.8 6.8 0 0 0-.868 3.33C24 22.01 26.916 25 30.5 25zm-3.38-8.663 3.38-6.004 3.38 6.004c.34.603.52 1.294.52 1.996 0 2.206-1.75 4-3.9 4s-3.9-1.794-3.9-4c0-.702.18-1.393.52-1.996z"/>
        </g>
    </g>
</svg>
