<svg width="50" height="50" viewBox="0 0 50 50" xmlns="http://www.w3.org/2000/svg">
    <g fill="none" fill-rule="evenodd">
        <path d="M0 0h50v50H0z"/>
        <path d="M18 24.063v-3.125c0-.518.42-.938.938-.938h3.125c.517 0 .937.42.937.938v3.125c0 .517-.42.937-.938.937h-3.125a.938.938 0 0 1-.937-.938zM28.938 25h3.125c.517 0 .937-.42.937-.938v-3.125a.938.938 0 0 0-.938-.937h-3.124a.938.938 0 0 0-.938.938v3.125c0 .517.42.937.938.937zM23 31.563v-3.125a.938.938 0 0 0-.938-.938h-3.125a.938.938 0 0 0-.937.938v3.125c0 .517.42.937.938.937h3.125c.517 0 .937-.42.937-.938zm5.938.937h3.125c.517 0 .937-.42.937-.938v-3.125a.938.938 0 0 0-.938-.937h-3.124a.938.938 0 0 0-.938.938v3.125c0 .517.42.937.938.937zM43 42.188V45H8v-2.813c0-.517.42-.937.938-.937h1.523V11.643c0-.907.84-1.643 1.875-1.643h6.914V6.875c0-1.036.84-1.875 1.875-1.875h8.75c1.036 0 1.875.84 1.875 1.875V10h6.914c1.036 0 1.875.736 1.875 1.643V41.25h1.523c.518 0 .938.42.938.938zm-28.79-1.016H23v-5.234c0-.518.42-.938.938-.938h3.125c.517 0 .937.42.937.938v5.234h8.79V13.75h-5.04v1.875c0 1.036-.84 1.875-1.875 1.875h-8.75a1.875 1.875 0 0 1-1.875-1.875V13.75h-5.04v27.422zM28.782 10H26.75V7.969a.469.469 0 0 0-.469-.469H24.72a.469.469 0 0 0-.469.469V10h-2.031a.469.469 0 0 0-.469.469v1.562c0 .26.21.469.469.469h2.031v2.031c0 .26.21.469.469.469h1.562c.26 0 .469-.21.469-.469V12.5h2.031c.26 0 .469-.21.469-.469V10.47a.469.469 0 0 0-.469-.469z" fill="#FF426F" fill-rule="nonzero"/>
    </g>
</svg>
