<svg width="55" height="55" viewBox="0 0 55 55" xmlns="http://www.w3.org/2000/svg">
    <g fill="none" fill-rule="evenodd">
        <path d="M0 0h55v55H0z"/>
        <g fill="#FF426F" fill-rule="nonzero">
            <path d="M41 27v4h10v-4H41zM36 41.025C38.182 42.8 41.023 45.15 43.273 47c.909-1.325 1.818-2.675 2.727-4-2.25-1.85-5.09-4.2-7.273-6-.909 1.35-1.818 2.7-2.727 4.025zM46 13c-.91-1.325-1.818-2.675-2.727-4-2.25 1.85-5.091 4.2-7.273 6 .91 1.325 1.818 2.675 2.727 4 2.182-1.8 5.023-4.125 7.273-6zM8.727 21.923C6.127 21.923 4 24 4 26.538v4.616c0 2.538 2.127 4.615 4.727 4.615h2.364V45h4.727v-9.23h2.364L30 42.691V15l-11.818 6.923H8.727zm11.89 3.946 4.656-2.723v11.4l-4.657-2.723-1.134-.67H8.727v-4.615h10.755l1.134-.669zM35 28.012c0-3.18-1.16-6.05-3-8.012v16c1.84-1.937 3-4.807 3-7.988z"/>
        </g>
    </g>
</svg>
