<svg width="50" height="50" viewBox="0 0 50 50" xmlns="http://www.w3.org/2000/svg">
    <g fill="none" fill-rule="evenodd">
        <path d="M0 0h50v50H0z"/>
        <g fill-rule="nonzero">
            <path d="M25.496 47C19.157 47 14 41.702 14 35.189v-1.79h2.437v1.79c0 5.132 4.064 9.307 9.06 9.307 4.991 0 9.055-4.172 9.059-9.3l.007-10.945c0-.691.546-1.251 1.218-1.251h.001c.673 0 1.218.561 1.218 1.253l-.007 10.944C36.988 41.705 31.83 47 25.496 47z" fill="#FF426F"/>
            <path d="M16.98 6.979h-3.642V5.293C13.338 4.579 12.74 4 12 4c-.74 0-1.338.579-1.338 1.293v1.686H7.02C4.804 6.979 3 8.719 3 10.857v1.29l3.934 18.08v3.48c0 .714.6 1.293 1.339 1.293s1.338-.579 1.338-1.293V30.23h4.778v3.853h2.677v-3.855L21 12.147v-1.29c0-2.139-1.803-3.878-4.02-3.878z" stroke="#FF426F"/>
            <path d="M14.858 30.158V34h2.082v-3.844L20 12.126v-1.288c0-2.133-1.403-3.868-3.127-3.868h-2.832V5.29C14.041 4.576 13.575 4 13 4v26.158h1.858z"/>
            <path d="M21 12H3v14.14C3 28.267 4.804 30 7.02 30h9.96c2.216 0 4.02-1.732 4.02-3.86v-1.27l-.892-1.287.892-1.287v-2.574l-.892-1.287.892-1.287V12z" stroke="#FF426F" fill="#FFF"/>
            <path d="M12 28h4.426C18.396 28 20 26.46 20 24.568V23.44l-.793-1.144.793-1.144v-2.288l-.793-1.144.793-1.144V12h-8v16z" fill="#E20000"/>
            <path d="M20 17h-3.78c-.674 0-1.22.448-1.22 1s.546 1 1.22 1H20v-2zM20 23h-3.78c-.674 0-1.22.448-1.22 1s.546 1 1.22 1H20v-2z" fill="#FFF"/>
            <path d="M42.226 3c-2.101 0-3.982.976-5.226 2.506C35.757 3.976 33.875 3 31.774 3 28.039 3 25 6.084 25 9.875c0 8.691 10.808 14.687 11.268 14.938a1.528 1.528 0 0 0 1.464 0C38.192 24.562 49 18.566 49 9.875 49 6.085 45.961 3 42.226 3z" stroke="#FF426F" fill="#FFF"/>
            <path d="M37 25c.252 0 .504-.062.732-.187C38.192 24.562 49 18.566 49 9.875 49 6.085 45.961 3 42.226 3c-2.101 0-3.982.976-5.226 2.505V25z" fill="#FF426F"/>
        </g>
    </g>
</svg>
