<svg width="51" height="50" viewBox="0 0 51 50" xmlns="http://www.w3.org/2000/svg">
    <g fill="none" fill-rule="evenodd">
        <path d="M1 0h50v50H1z"/>
        <path d="M0 13h21v21H0z"/>
        <path d="M3.5 24.375c.963 0 1.75-.788 1.75-1.75s-.787-1.75-1.75-1.75c-.962 0-1.75.788-1.75 1.75s.788 1.75 1.75 1.75zm.989.962a6.11 6.11 0 0 0-.989-.087c-.866 0-1.689.184-2.433.508A1.76 1.76 0 0 0 0 27.375v1.374h3.938v-1.409c0-.726.2-1.409.55-2.004zm9.721-.393a9.138 9.138 0 0 0-3.71-.788 9.284 9.284 0 0 0-3.71.788 2.615 2.615 0 0 0-1.54 2.397v1.409h10.5v-1.409a2.615 2.615 0 0 0-1.54-2.397zM7.061 27c.079-.201.114-.341.796-.604a7.218 7.218 0 0 1 2.643-.49c.901 0 1.794.158 2.643.49.673.263.708.403.796.604H7.06zm3.439-7c.481 0 .875.394.875.875a.878.878 0 0 1-.875.875.878.878 0 0 1-.875-.875c0-.481.394-.875.875-.875m0-1.75a2.621 2.621 0 0 0-2.625 2.625A2.621 2.621 0 0 0 10.5 23.5a2.621 2.621 0 0 0 2.625-2.625A2.621 2.621 0 0 0 10.5 18.25zM42.746 40l-8.838-8.838c-1.846 1.2-4.016 1.915-6.37 1.915C21.17 33.077 16 27.907 16 21.538S21.17 10 27.538 10c6.37 0 11.539 5.17 11.539 11.538 0 2.354-.715 4.524-1.915 6.347L46 36.746 42.746 40zm-8.284-18.462c0-3.807-3.116-6.923-6.924-6.923-3.807 0-6.923 3.116-6.923 6.923 0 3.808 3.116 6.924 6.923 6.924 3.808 0 6.924-3.116 6.924-6.924z" fill="#FF426F" fill-rule="nonzero"/>
    </g>
</svg>
