<svg width="50" height="50" viewBox="0 0 50 50" xmlns="http://www.w3.org/2000/svg">
    <g fill="none" fill-rule="evenodd">
        <path d="M0 0h50v50H0z"/>
        <path d="M12.333 5v17.346h2.165l1.002-2.491V8.154h15.833v9.461h9.5v25.231H15.5v-9.073l-.084-.084-1.886-1.881h-1.197V46H44V15.398l-.445-.493-9.5-9.462L33.56 5H12.333zM34.5 10.421l4.058 4.04H34.5V10.42v.001zM20.2 16.65l-3.698 9.196-.347-.345H6v3.154h8.844l2.814 2.808L20.3 24.89l4.75 11.038 3.278-8.16.446.886h2.988a3.163 3.163 0 0 0 1.53 1.337 3.179 3.179 0 0 0 3.725-.994 3.146 3.146 0 0 0 0-3.84 3.179 3.179 0 0 0-3.724-.994A3.163 3.163 0 0 0 31.76 25.5h-1.034l-2.722-5.421-3.056 7.608L20.2 16.65h.002z" fill="#FF426F" fill-rule="nonzero"/>
    </g>
</svg>
