<svg height='300px' width='300px'  fill="#000000" xmlns="http://www.w3.org/2000/svg" xmlns:xlink="http://www.w3.org/1999/xlink" version="1.1" x="0px" y="0px" viewBox="0 0 50 50" style="enable-background:new 0 0 50 50;" xml:space="preserve"><style type="text/css">
	.st0{fill:none;stroke:#712C81;stroke-width:2;stroke-linejoin:round;stroke-miterlimit:10;}
	.st1{fill:none;stroke:#712C81;stroke-width:2;stroke-miterlimit:10;}
	.st2{fill:none;stroke:#712C81;stroke-width:2;stroke-linecap:round;stroke-miterlimit:10;}
	.st3{fill:none;stroke:#712C81;stroke-width:2;stroke-miterlimit:10;stroke-dasharray:2.0674,3.1011;}
	.st4{fill:none;stroke:#712C81;stroke-width:2;stroke-miterlimit:10;stroke-dasharray:2,2;}
	.st5{fill:none;stroke:#712C81;stroke-width:2;stroke-linejoin:round;stroke-miterlimit:10;stroke-dasharray:2,2;}
</style><g><g><path class="st1" d="M39.5,18.4v-3.8L36.1,14c-0.3-1.3-0.8-2.5-1.5-3.6l2-2.8l-2.7-2.7l-2.8,2c-1.1-0.7-2.3-1.2-3.6-1.5L26.9,2    h-3.8l-0.6,3.4c-1.3,0.3-2.5,0.8-3.6,1.5l-2.8-2l-2.7,2.7l2,2.8c-0.7,1.1-1.2,2.3-1.5,3.6l-3.4,0.6v3.8l3.4,0.6    c0.3,1.3,0.8,2.5,1.5,3.6l-2,2.8l2.7,2.7l2.8-2c1.1,0.7,2.3,1.2,3.6,1.5l0.6,3.4h3.8l0.6-3.4c1.3-0.3,2.5-0.8,3.6-1.5l2.8,2    l2.7-2.7l-2-2.8c0.7-1.1,1.2-2.3,1.5-3.6L39.5,18.4z"></path><circle class="st1" cx="25" cy="16.5" r="5.7"></circle></g><polyline class="st1" points="36,7 45,7 45,23  "></polyline><path class="st1" d="M45,29L45,29c-1.7,0-3-1.3-3-3v0c0-1.7,1.3-3,3-3h0c1.7,0,3,1.3,3,3v0C48,27.7,46.7,29,45,29z"></path><line class="st1" x1="45" y1="29" x2="45" y2="42"></line><polyline class="st1" points="14,7 5,7 5,23  "></polyline><path class="st1" d="M5,29L5,29c1.7,0,3-1.3,3-3v0c0-1.7-1.3-3-3-3h0c-1.7,0-3,1.3-3,3v0C2,27.7,3.3,29,5,29z"></path><rect x="42" y="42" class="st1" width="6" height="6"></rect><rect x="2" y="42" transform="matrix(-1 -4.517154e-11 4.517154e-11 -1 10 90)" class="st1" width="6" height="6"></rect><line class="st1" x1="5" y1="29" x2="5" y2="42"></line><line class="st1" x1="8" y1="45" x2="22" y2="45"></line><line class="st1" x1="28" y1="45" x2="42" y2="45"></line><rect x="22" y="42" class="st1" width="6" height="6"></rect><line class="st1" x1="25" y1="42" x2="25" y2="31"></line></g></svg>