<svg height='300px' width='300px'  fill="#000000" xmlns="http://www.w3.org/2000/svg" xmlns:xlink="http://www.w3.org/1999/xlink" version="1.1" x="0px" y="0px" viewBox="0 0 50 50" style="enable-background:new 0 0 50 50;" xml:space="preserve"><style type="text/css">
	.st0{fill:none;stroke:#712C81;stroke-width:2;stroke-linejoin:round;stroke-miterlimit:10;}
	.st1{fill:none;stroke:#712C81;stroke-width:2;stroke-miterlimit:10;}
	.st2{fill:none;stroke:#712C81;stroke-width:2;stroke-linecap:round;stroke-miterlimit:10;}
	.st3{fill:none;stroke:#712C81;stroke-width:2;stroke-miterlimit:10;stroke-dasharray:2.0674,3.1011;}
	.st4{fill:none;stroke:#712C81;stroke-width:2;stroke-miterlimit:10;stroke-dasharray:2,2;}
	.st5{fill:none;stroke:#712C81;stroke-width:2;stroke-linejoin:round;stroke-miterlimit:10;stroke-dasharray:2,2;}
</style><g><g><polyline class="st1" points="36,36 36,48 2,48 2,2 36,2 36,14   "></polyline><line class="st1" x1="36" y1="10" x2="2" y2="10"></line><line class="st1" x1="36" y1="40" x2="2" y2="40"></line><line class="st2" x1="14" y1="44" x2="24" y2="44"></line><g><line class="st1" x1="14" y1="6" x2="20" y2="6"></line><line class="st1" x1="22" y1="6" x2="24" y2="6"></line></g></g><g><rect x="26" y="14" class="st1" width="16" height="6"></rect><rect x="20" y="30" class="st1" width="6" height="6"></rect><rect x="31" y="30" class="st1" width="6" height="6"></rect><rect x="42" y="30" class="st1" width="6" height="6"></rect><line class="st1" x1="34" y1="20" x2="34" y2="30"></line><polyline class="st1" points="23,30 23,25 45,25 45,30   "></polyline></g></g></svg>