<svg height='300px' width='300px'  fill="#712C81" xmlns="http://www.w3.org/2000/svg" xmlns:xlink="http://www.w3.org/1999/xlink" version="1.1" x="0px" y="0px" viewBox="0 0 50 50" style="enable-background:new 0 0 50 50;" xml:space="preserve"><style type="text/css">
	.st0{fill:none;stroke:#712C81;stroke-width:2;stroke-miterlimit:10;}
	.st1{fill:none;stroke:#712C81;stroke-width:2;stroke-miterlimit:10;stroke-dasharray:2,3;}
	.st2{fill:none;stroke:#712C81;stroke-width:2;stroke-linejoin:round;stroke-miterlimit:10;}
	.st3{fill:none;stroke:#712C81;stroke-width:2;stroke-miterlimit:10;stroke-dasharray:2,2;}
	.st4{fill:none;stroke:#712C81;stroke-width:2;stroke-linejoin:round;stroke-miterlimit:10;stroke-dasharray:2,2;}
	.st5{fill:none;stroke:#712C81;stroke-width:2;stroke-miterlimit:10;stroke-dasharray:1.7143,1.7143;}
	.st6{fill:none;stroke:#712C81;stroke-width:2;stroke-linecap:round;stroke-miterlimit:10;}
	.st7{fill:none;stroke:#712C81;stroke-width:2;stroke-linecap:round;stroke-linejoin:round;stroke-miterlimit:10;}
</style><g><ellipse transform="matrix(0.7071 -0.7071 0.7071 0.7071 -3.521 18.4)" class="st0" cx="20.5" cy="13.5" rx="11.5" ry="11.5"></ellipse><path class="st2" d="M28.9,26.6l4.8-4.8c0.2-0.2,0.4-0.2,0.6,0l6.6,6.6c1.5,1.5,1.5,3.9,0,5.4l0,0c-1.5,1.5-3.9,1.5-5.4,0l-6.6-6.6   C28.7,27.1,28.7,26.8,28.9,26.6z"></path><line class="st0" x1="32.3" y1="23.2" x2="29.5" y2="20.3"></line><line class="st0" x1="30.2" y1="25.3" x2="27.3" y2="22.5"></line><polyline class="st4" points="33.9,26.9 36.1,29.1 38.2,31.2  "></polyline><polygon class="st0" points="44,48 25,48 6,48 2,44 2,40 25,40 48,40 48,44  "></polygon><line class="st3" x1="20" y1="44" x2="30" y2="44"></line><polyline class="st0" points="9.3,11 4,11 4,40 46,40 46,11 31.6,11  "></polyline><polyline class="st0" points="13.8,13.8 18,18 27,9  "></polyline></g></svg>