<svg height='300px' width='300px'  fill="#712C81" xmlns="http://www.w3.org/2000/svg" xmlns:xlink="http://www.w3.org/1999/xlink" version="1.1" x="0px" y="0px" viewBox="0 0 50 50" style="enable-background:new 0 0 50 50;" xml:space="preserve"><style type="text/css">
	.st0{fill:none;stroke:#712C81;stroke-width:2;stroke-miterlimit:10;}
	.st1{fill:none;stroke:#712C81;stroke-width:2;stroke-linejoin:round;stroke-miterlimit:10;}
	.st2{fill:none;stroke:#712C81;stroke-width:2;stroke-miterlimit:10;stroke-dasharray:2,2;}
	.st3{fill:none;stroke:#712C81;stroke-width:2;stroke-linecap:round;stroke-linejoin:round;stroke-miterlimit:10;}
	.st4{fill:none;stroke:#712C81;stroke-width:2;stroke-linecap:round;stroke-miterlimit:10;}
	.st5{fill:none;stroke:#712C81;stroke-width:2;stroke-linejoin:bevel;stroke-miterlimit:10;}
	.st6{fill:none;stroke:#712C81;stroke-width:2;stroke-linejoin:round;stroke-miterlimit:10;stroke-dasharray:2,2;}
	.st7{fill:none;stroke:#712C81;stroke-width:2;stroke-miterlimit:10;stroke-dasharray:2,3;}
</style><g><rect x="2" y="2" class="st0" width="46" height="46"></rect><line class="st0" x1="2" y1="10" x2="48" y2="10"></line><line class="st0" x1="45" y1="6" x2="43" y2="6"></line><line class="st0" x1="41" y1="6" x2="39" y2="6"></line><line class="st0" x1="37" y1="6" x2="35" y2="6"></line><line class="st0" x1="30" y1="6" x2="6" y2="6"></line><g><path class="st0" d="M7.9,37c0-0.1,0-0.2,0.1-0.2c0.7,0.2,2.7,0.7,4.7-0.8c0,0,2.4-1.8,4.4-0.4c1,0.7,1.3,2.1,0.8,3.3l0,0    c-0.4,0.9-1.3,1.5-2.3,1.8C13.7,41.1,10.3,41.1,7.9,37z"></path><path class="st0" d="M26.1,35c6.6,0,16,1.3,16,3c0,1.7-9.4,3-16,3s-8-1.3-8-3C18.1,36.3,19.5,35,26.1,35z"></path></g><g><rect x="6" y="15" class="st0" width="17" height="12"></rect><line class="st0" x1="6" y1="27" x2="23" y2="15"></line><line class="st0" x1="23" y1="27" x2="6" y2="15"></line></g><rect x="27" y="15" class="st0" width="17" height="12"></rect><line class="st0" x1="27" y1="27" x2="44" y2="15"></line><line class="st0" x1="44" y1="27" x2="27" y2="15"></line></g></svg>