<svg xmlns="http://www.w3.org/2000/svg" viewBox="0 0 554.82 532.33"><defs><style>.cls-1{fill:#ddd;}.cls-2{fill:#dc407e;}.cls-3{fill:#b73434;}.cls-4{fill:#e6e7e8;}.cls-5{fill:#da3f7b;}.cls-6{fill:#ebebeb;}.cls-7{fill:#f7f7f7;}.cls-8{font-size:18.61px;fill:#898989;font-family:STC-Bold, STC;font-weight:700;}.cls-9{fill:#623296;}.cls-10{fill:#da3e7c;}.cls-11{fill:#eeab2a;}.cls-12{fill:#d4d5d6;}.cls-13{fill:#822883;}.cls-14{fill:#5f1962;}.cls-15{fill:#81c792;}.cls-16{fill:#c8e3bd;}.cls-17{fill:#5d7a57;}.cls-17,.cls-18{opacity:0.3;}.cls-18{fill:#541218;}.cls-19{fill:#fff;}.cls-20{fill:#732375;}.cls-21{fill:#ffac06;}</style></defs><title>SchdulePayment</title><g id="Layer_2" data-name="Layer 2"><g id="Layer_3" data-name="Layer 3"><path class="cls-1" d="M548.65,504a28.47,28.47,0,0,1-28.47,28.38H146.25A28.47,28.47,0,0,1,117.78,504l-6.17-264.06c0-15.66,19-85.41,34.64-85.41H520.18c15.66,0,34.64,43.45,34.64,59.11Z"/><path class="cls-2" d="M554.67,240.18V179a29.3,29.3,0,0,0-29.3-29.3H140.75A29.29,29.29,0,0,0,111.46,179v61.22Z"/><path class="cls-3" d="M172.67,149.43v18.74a5.69,5.69,0,0,0,5.69,5.69h.95a5.7,5.7,0,0,0,5.7-5.69V149.43Z"/><rect class="cls-4" x="168.29" y="131.92" width="12.41" height="41.73" rx="5.69"/><path class="cls-3" d="M215.85,149.43v18.74a5.7,5.7,0,0,0,5.7,5.69h.95a5.69,5.69,0,0,0,5.69-5.69V149.43Z"/><rect class="cls-4" x="211.15" y="131.92" width="12.41" height="41.73" rx="5.69"/><path class="cls-3" d="M434.14,149.43v18.74a5.69,5.69,0,0,0,5.69,5.69h.95a5.69,5.69,0,0,0,5.69-5.69V149.43Z"/><rect class="cls-4" x="429.4" y="131.92" width="12.41" height="41.73" rx="5.69"/><path class="cls-3" d="M477.32,149.43v18.74a5.69,5.69,0,0,0,5.69,5.69H484a5.7,5.7,0,0,0,5.7-5.69V149.43Z"/><rect class="cls-4" x="472.83" y="131.92" width="12.41" height="41.73" rx="5.69"/><path class="cls-5" d="M405.12,472.79H368.38a3.07,3.07,0,0,0-3.06,3.06v36.74a3.07,3.07,0,0,0,3.06,3.06h36.74a3.07,3.07,0,0,0,3.06-3.06V475.85A3.07,3.07,0,0,0,405.12,472.79Zm-23,2.64h9.18a1.53,1.53,0,1,1,0,3.06h-9.18a1.53,1.53,0,1,1,0-3.06ZM404.05,507h-34.6V481.92h34.6Z"/><path class="cls-5" d="M512.29,341.39h17.25v-5.81H518.42a8.79,8.79,0,0,1-8.78-8.78h0a5.72,5.72,0,0,0-5.72-5.71H486.68v5.81h11.13a8.78,8.78,0,0,1,8.77,8.78h0A5.71,5.71,0,0,0,512.29,341.39Z"/><path class="cls-5" d="M503.93,318a8.79,8.79,0,0,1,8.78,8.78h0a5.72,5.72,0,0,0,5.72,5.71h11.12V312.87a3.07,3.07,0,0,0-3.06-3.06H489.74a3.07,3.07,0,0,0-3.06,3.06V318Z"/><path class="cls-5" d="M512.29,344.45a8.77,8.77,0,0,1-8.77-8.77h0a5.72,5.72,0,0,0-5.71-5.72H486.68v19.65a3.07,3.07,0,0,0,3.06,3.06h36.74a3.07,3.07,0,0,0,3.06-3.06v-5.16Z"/><path class="cls-5" d="M512.29,287.25h17.25v-5.81H518.42a8.79,8.79,0,0,1-8.78-8.78h0a5.72,5.72,0,0,0-5.72-5.71H486.68v5.81h11.13a8.78,8.78,0,0,1,8.77,8.78h0A5.71,5.71,0,0,0,512.29,287.25Z"/><path class="cls-5" d="M503.93,263.88a8.79,8.79,0,0,1,8.78,8.78h0a5.73,5.73,0,0,0,5.72,5.72h11.12V258.73a3.07,3.07,0,0,0-3.06-3.06H489.74a3.07,3.07,0,0,0-3.06,3.06v5.15Z"/><path class="cls-5" d="M512.29,290.31a8.77,8.77,0,0,1-8.77-8.77h0a5.72,5.72,0,0,0-5.71-5.72H486.68v19.65a3.07,3.07,0,0,0,3.06,3.06h36.74a3.07,3.07,0,0,0,3.06-3.06v-5.16Z"/><path class="cls-5" d="M512.29,395.53h17.25v-5.81H518.42a8.79,8.79,0,0,1-8.78-8.78h0a5.73,5.73,0,0,0-5.72-5.72H486.68V381h11.13a8.78,8.78,0,0,1,8.77,8.78h0A5.71,5.71,0,0,0,512.29,395.53Z"/><path class="cls-5" d="M503.93,372.16a8.79,8.79,0,0,1,8.78,8.78h0a5.72,5.72,0,0,0,5.72,5.71h11.12V367a3.07,3.07,0,0,0-3.06-3.06H489.74a3.07,3.07,0,0,0-3.06,3.06v5.15Z"/><path class="cls-5" d="M512.29,398.59a8.77,8.77,0,0,1-8.77-8.77h0a5.72,5.72,0,0,0-5.71-5.72H486.68v19.65a3.07,3.07,0,0,0,3.06,3.06h36.74a3.07,3.07,0,0,0,3.06-3.06v-5.16Z"/><path class="cls-5" d="M512.29,449.67h17.25v-5.81H518.42a8.79,8.79,0,0,1-8.78-8.78h0a5.73,5.73,0,0,0-5.72-5.72H486.68v5.82h11.13a8.78,8.78,0,0,1,8.77,8.78h0A5.71,5.71,0,0,0,512.29,449.67Z"/><path class="cls-5" d="M503.93,426.3a8.79,8.79,0,0,1,8.78,8.78h0a5.72,5.72,0,0,0,5.72,5.71h11.12V421.15a3.07,3.07,0,0,0-3.06-3.06H489.74a3.07,3.07,0,0,0-3.06,3.06v5.15Z"/><path class="cls-5" d="M512.29,452.73a8.77,8.77,0,0,1-8.77-8.77h0a5.72,5.72,0,0,0-5.71-5.72H486.68v19.65a3.07,3.07,0,0,0,3.06,3.06h36.74a3.07,3.07,0,0,0,3.06-3.06v-5.16Z"/><path class="cls-6" d="M147.82,59.5H92.3a4.63,4.63,0,0,0-4.62,4.62v55.52a4.64,4.64,0,0,0,4.62,4.63h55.52a4.65,4.65,0,0,0,4.63-4.63V64.12A4.64,4.64,0,0,0,147.82,59.5Zm-34.7,4H127a2.32,2.32,0,0,1,0,4.63H113.12a2.32,2.32,0,0,1,0-4.63Zm33.08,47.76H93.92V73.3H146.2Z"/><path class="cls-6" d="M541.26,78.67H505.71a3,3,0,0,0-3,3v35.55a3,3,0,0,0,3,3h35.55a3,3,0,0,0,3-3V81.63A3,3,0,0,0,541.26,78.67ZM519,81.22h8.89a1.49,1.49,0,0,1,0,3H519a1.49,1.49,0,0,1,0-3Zm21.18,30.58H506.75V87.51h33.47Z"/><path class="cls-4" d="M369.06,111.72H394.3v-8.51H378a12.85,12.85,0,0,1-12.84-12.84h0A8.37,8.37,0,0,0,356.83,82H331.59v8.51h16.28a12.85,12.85,0,0,1,12.84,12.84h0A8.37,8.37,0,0,0,369.06,111.72Z"/><path class="cls-4" d="M356.83,77.53a12.85,12.85,0,0,1,12.84,12.84h0A8.37,8.37,0,0,0,378,98.73H394.3V70a4.5,4.5,0,0,0-4.48-4.48H336.07A4.5,4.5,0,0,0,331.59,70v7.54Z"/><path class="cls-4" d="M369.06,116.2a12.85,12.85,0,0,1-12.84-12.84h0A8.37,8.37,0,0,0,347.87,95H331.59v28.74a4.5,4.5,0,0,0,4.48,4.48h53.75a4.5,4.5,0,0,0,4.48-4.48V116.2Z"/><path class="cls-6" d="M59.29,219.75H74.54v-5.14H64.7A7.77,7.77,0,0,1,57,206.85h0a5.06,5.06,0,0,0-5.05-5H36.66v5.14h9.83a7.77,7.77,0,0,1,7.76,7.76h0A5.06,5.06,0,0,0,59.29,219.75Z"/><path class="cls-6" d="M51.9,199.1a7.77,7.77,0,0,1,7.76,7.75h0a5.06,5.06,0,0,0,5.05,5.05h9.84V194.54a2.71,2.71,0,0,0-2.71-2.7H39.36a2.71,2.71,0,0,0-2.7,2.7v4.56Z"/><path class="cls-6" d="M59.29,222.46a7.77,7.77,0,0,1-7.75-7.76h0a5,5,0,0,0-5-5H36.66V227a2.72,2.72,0,0,0,2.7,2.71H71.83A2.72,2.72,0,0,0,74.54,227v-4.55Z"/><rect class="cls-7" x="189.54" y="309.81" width="42.86" height="42.86" rx="5.96"/><rect class="cls-7" x="247.65" y="255.67" width="42.86" height="42.86" rx="5.96"/><rect class="cls-7" x="247.65" y="309.81" width="42.86" height="42.86" rx="5.96"/><rect class="cls-7" x="306.41" y="255.67" width="42.86" height="42.86" rx="5.96"/><rect class="cls-7" x="306.41" y="309.81" width="42.86" height="42.86" rx="5.96"/><text class="cls-8" transform="translate(261.16 285.12)">01</text><rect class="cls-7" x="365.32" y="255.67" width="42.86" height="42.86" rx="5.96"/><rect class="cls-7" x="365.32" y="309.81" width="42.86" height="42.86" rx="5.96"/><text class="cls-8" transform="translate(318.03 285.12)">02</text><rect class="cls-7" x="423.95" y="255.67" width="42.86" height="42.86" rx="5.96"/><rect class="cls-7" x="130.83" y="309.81" width="42.86" height="42.86" rx="5.96"/><rect class="cls-7" x="130.83" y="363.95" width="42.86" height="42.86" rx="5.96"/><text class="cls-8" transform="translate(377.2 285.12)">03</text><rect class="cls-7" x="130.83" y="472.23" width="42.86" height="42.86" rx="5.96"/><text class="cls-8" transform="translate(435.53 285.12)">04</text><text class="cls-8" transform="translate(142.41 337.57)">06</text><text class="cls-8" transform="translate(201.62 337.57)">07</text><text class="cls-8" transform="translate(259.2 337.57)">08</text><text class="cls-8" transform="translate(318.23 337.57)">09</text><text class="cls-8" transform="translate(378.83 337.57)">10</text><rect class="cls-7" x="130.83" y="418.09" width="42.86" height="42.86" rx="5.96"/><rect class="cls-7" x="189.54" y="363.95" width="42.86" height="42.86" rx="5.96"/><rect class="cls-7" x="189.54" y="472.23" width="42.86" height="42.86" rx="5.96"/><rect class="cls-7" x="189.54" y="418.09" width="42.86" height="42.86" rx="5.96"/><rect class="cls-7" x="247.65" y="363.95" width="42.86" height="42.86" rx="5.96"/><rect class="cls-7" x="247.65" y="472.23" width="42.86" height="42.86" rx="5.96"/><rect class="cls-7" x="247.65" y="418.09" width="42.86" height="42.86" rx="5.96"/><rect class="cls-7" x="306.41" y="363.95" width="42.86" height="42.86" rx="5.96"/><rect class="cls-7" x="306.41" y="472.23" width="42.86" height="42.86" rx="5.96"/><rect class="cls-7" x="306.41" y="418.09" width="42.86" height="42.86" rx="5.96"/><rect class="cls-7" x="365.32" y="363.95" width="42.86" height="42.86" rx="5.96"/><rect class="cls-7" x="365.32" y="418.09" width="42.86" height="42.86" rx="5.96"/><rect class="cls-7" x="423.95" y="309.81" width="42.86" height="42.86" rx="5.96"/><rect class="cls-7" x="423.95" y="363.95" width="42.86" height="42.86" rx="5.96"/><rect class="cls-7" x="423.95" y="418.09" width="42.86" height="42.86" rx="5.96"/><text class="cls-8" transform="translate(439.63 337.57)">11</text><text class="cls-8" transform="translate(144.88 391.15)">13</text><text class="cls-8" transform="translate(203.28 391.15)">14</text><text class="cls-8" transform="translate(261.54 391.15)">15</text><text class="cls-8" transform="translate(320.16 391.15)">16</text><text class="cls-8" transform="translate(379.57 391.15)">17</text><text class="cls-8" transform="translate(437.67 391.15)">18</text><text class="cls-8" transform="translate(142.45 444.72)">20</text><text class="cls-8" transform="translate(203.32 444.72)">21</text><text class="cls-8" transform="translate(259.53 444.72)">22</text><text class="cls-8" transform="translate(318.57 444.72)">23</text><text class="cls-8" transform="translate(143.19 499.99)">27</text><text class="cls-8" transform="translate(201.35 499.99)">28</text><text class="cls-8" transform="translate(259.74 499.99)">29</text><text class="cls-8" transform="translate(318.3 499.99)">30</text><text class="cls-8" transform="translate(377.17 444.72)">24</text><text class="cls-8" transform="translate(435.94 444.72)">25</text><path class="cls-9" d="M291.37,40.68a2.29,2.29,0,0,1-2.29-2.25L289,35.25a2.3,2.3,0,0,1,4.6-.09l.06,3.18a2.29,2.29,0,0,1-2.25,2.34Z"/><path class="cls-9" d="M300.38,44.08a2.3,2.3,0,0,1-1.66-3.88l2.21-2.3a2.3,2.3,0,0,1,3.31,3.19L302,43.38A2.29,2.29,0,0,1,300.38,44.08Z"/><path class="cls-9" d="M304.34,52.86a2.3,2.3,0,0,1,0-4.59l3.18-.07h0a2.3,2.3,0,0,1,0,4.6l-3.18.06Z"/><path class="cls-9" d="M303.24,64.07a2.3,2.3,0,0,1-1.6-.64l-2.29-2.2a2.3,2.3,0,0,1,3.18-3.31l2.3,2.2a2.3,2.3,0,0,1,.06,3.25A2.27,2.27,0,0,1,303.24,64.07Z"/><path class="cls-9" d="M292.23,69a2.3,2.3,0,0,1-2.3-2.25l-.06-3.18a2.3,2.3,0,0,1,4.59-.09l.07,3.18A2.3,2.3,0,0,1,292.28,69Z"/><path class="cls-9" d="M281,64.72a2.29,2.29,0,0,1-1.65-3.88l2.2-2.3a2.3,2.3,0,0,1,3.31,3.18l-2.2,2.3A2.28,2.28,0,0,1,281,64.72Z"/><path class="cls-9" d="M276,53.72a2.3,2.3,0,0,1,0-4.59l3.18-.07a2.32,2.32,0,0,1,2.34,2.25,2.29,2.29,0,0,1-2.25,2.34l-3.18.07Z"/><path class="cls-9" d="M282.6,44.65A2.3,2.3,0,0,1,281,44l-2.3-2.21a2.3,2.3,0,0,1,3.18-3.31l2.3,2.2a2.3,2.3,0,0,1-1.59,4Z"/><path class="cls-2" d="M371.39,5.11a1.52,1.52,0,0,1-1.51-1.48l0-2.09A1.52,1.52,0,0,1,371.32,0a1.5,1.5,0,0,1,1.54,1.48l0,2.09a1.51,1.51,0,0,1-1.48,1.54Z"/><path class="cls-2" d="M377.31,7.34a1.53,1.53,0,0,1-1.05-.42,1.5,1.5,0,0,1,0-2.13l1.45-1.51a1.51,1.51,0,1,1,2.17,2.09L378.4,6.88A1.5,1.5,0,0,1,377.31,7.34Z"/><path class="cls-2" d="M379.91,13.11a1.51,1.51,0,0,1,0-3l2.09,0h0a1.51,1.51,0,0,1,0,3l-2.09,0Z"/><path class="cls-2" d="M379.18,20.47a1.5,1.5,0,0,1-1-.42l-1.51-1.45a1.51,1.51,0,1,1,2.09-2.17l1.51,1.45a1.5,1.5,0,0,1,0,2.13A1.48,1.48,0,0,1,379.18,20.47Z"/><path class="cls-2" d="M372,23.72a1.51,1.51,0,0,1-1.5-1.48l-.05-2.09a1.51,1.51,0,1,1,3-.06l0,2.09A1.51,1.51,0,0,1,372,23.72Z"/><path class="cls-2" d="M364.55,20.9a1.53,1.53,0,0,1-1.05-.42,1.5,1.5,0,0,1,0-2.13l1.45-1.51a1.51,1.51,0,1,1,2.17,2.09l-1.44,1.51A1.56,1.56,0,0,1,364.55,20.9Z"/><path class="cls-2" d="M361.3,13.67a1.51,1.51,0,0,1,0-3l2.09,0a1.54,1.54,0,0,1,1.54,1.48,1.51,1.51,0,0,1-1.48,1.54l-2.09,0Z"/><path class="cls-2" d="M365.63,7.71a1.51,1.51,0,0,1-1.05-.42l-1.5-1.45a1.51,1.51,0,1,1,2.09-2.17l1.5,1.44a1.51,1.51,0,0,1-1,2.6Z"/><path class="cls-10" d="M195.66,74.53a1.4,1.4,0,0,1-1.4-1.37l0-1.94a1.4,1.4,0,0,1,2.8,0l0,1.93a1.4,1.4,0,0,1-1.37,1.43Z"/><path class="cls-10" d="M201.15,76.6a1.4,1.4,0,0,1-1-2.36l1.34-1.4a1.39,1.39,0,0,1,2,0,1.41,1.41,0,0,1,0,2l-1.35,1.39A1.36,1.36,0,0,1,201.15,76.6Z"/><path class="cls-10" d="M203.56,82a1.4,1.4,0,0,1,0-2.8l1.94,0h0a1.4,1.4,0,0,1,0,2.8l-1.93,0Z"/><path class="cls-10" d="M202.88,88.78a1.39,1.39,0,0,1-1-.39l-1.4-1.34a1.4,1.4,0,1,1,1.94-2l1.39,1.34a1.39,1.39,0,0,1,0,2A1.41,1.41,0,0,1,202.88,88.78Z"/><path class="cls-10" d="M196.18,91.79a1.4,1.4,0,0,1-1.4-1.37l0-1.94a1.4,1.4,0,1,1,2.8-.06l0,1.94a1.4,1.4,0,0,1-1.37,1.43Z"/><path class="cls-10" d="M189.31,89.17a1.4,1.4,0,0,1-1-2.36l1.35-1.4a1.4,1.4,0,1,1,2,1.94l-1.34,1.39A1.37,1.37,0,0,1,189.31,89.17Z"/><path class="cls-10" d="M186.3,82.47a1.4,1.4,0,0,1,0-2.8l1.93,0A1.42,1.42,0,0,1,189.64,81a1.39,1.39,0,0,1-1.37,1.43l-1.94,0Z"/><path class="cls-10" d="M190.31,77a1.43,1.43,0,0,1-1-.39L188,75.21a1.4,1.4,0,1,1,1.94-2l1.39,1.34a1.39,1.39,0,0,1,0,2A1.41,1.41,0,0,1,190.31,77Z"/><path class="cls-10" d="M443.74,66.91a2,2,0,0,1-2-1.94l-.05-2.74a2,2,0,1,1,4-.08l.05,2.74a2,2,0,0,1-1.94,2Z"/><path class="cls-10" d="M451.51,69.85a2,2,0,0,1-1.43-3.36l1.9-2a2,2,0,0,1,2.86,2.75l-1.9,2A2,2,0,0,1,451.51,69.85Z"/><path class="cls-10" d="M454.93,77.42a2,2,0,0,1,0-4l2.74,0h0a2,2,0,0,1,0,4l-2.74.06Z"/><path class="cls-10" d="M454,87.09a2,2,0,0,1-1.37-.55l-2-1.91a2,2,0,1,1,2.75-2.85l2,1.9a2,2,0,0,1,0,2.8A2,2,0,0,1,454,87.09Z"/><path class="cls-10" d="M444.48,91.35a2,2,0,0,1-2-1.94l-.06-2.75a2,2,0,0,1,4-.08l0,2.75a2,2,0,0,1-1.94,2Z"/><path class="cls-10" d="M434.75,87.65a2,2,0,0,1-1.43-3.35l1.91-2a2,2,0,1,1,2.85,2.74l-1.9,2A2,2,0,0,1,434.75,87.65Z"/><path class="cls-10" d="M430.49,78.16a2,2,0,0,1,0-4l2.75,0a2,2,0,0,1,2,1.94,2,2,0,0,1-1.94,2l-2.75.06Z"/><path class="cls-10" d="M436.17,70.33a2,2,0,0,1-1.37-.55l-2-1.9A2,2,0,0,1,435.56,65l2,1.9a2,2,0,0,1-1.37,3.41Z"/><path class="cls-11" d="M243.14,85a9.18,9.18,0,1,1,9.19-9.18A9.19,9.19,0,0,1,243.14,85Zm0-15.06A5.89,5.89,0,1,0,249,75.79,5.89,5.89,0,0,0,243.14,69.91Z"/><circle class="cls-12" cx="427.25" cy="11.98" r="4.97"/><circle class="cls-11" cx="288.7" cy="114.87" r="3.98"/><path class="cls-9" d="M493.84,41.33A2.83,2.83,0,1,1,491,38.5,2.83,2.83,0,0,1,493.84,41.33Z"/><path class="cls-10" d="M92.05,170.06A4.11,4.11,0,1,1,87.94,166,4.11,4.11,0,0,1,92.05,170.06Z"/><path class="cls-13" d="M18.23,395.08h160a6.09,6.09,0,0,1,6.09,6.09v125a6.1,6.1,0,0,1-6.1,6.1h-160a6.1,6.1,0,0,1-6.1-6.1v-125A6.09,6.09,0,0,1,18.23,395.08Z"/><path class="cls-14" d="M12.13,395.08h160a6.1,6.1,0,0,1,6.1,6.1v125a6.1,6.1,0,0,1-6.1,6.1h-160a6.1,6.1,0,0,1-6.1-6.1v-125A6.09,6.09,0,0,1,12.13,395.08Z"/><rect class="cls-15" x="37.91" y="361.64" width="147.76" height="79.94" transform="translate(-276.57 250.06) rotate(-53.13)"/><rect class="cls-16" x="44.32" y="367.55" width="134.92" height="68.14" transform="translate(-276.57 250.06) rotate(-53.13)"/><path class="cls-15" d="M49.51,417.9,35.42,436.69,54.2,450.78A23.47,23.47,0,0,0,49.51,417.9Z"/><path class="cls-15" d="M109.81,337.51l14.09-18.79,18.79,14.09A23.48,23.48,0,0,1,109.81,337.51Z"/><path class="cls-15" d="M173.85,385.55,188,366.76l-18.79-14.09A23.49,23.49,0,0,0,173.85,385.55Z"/><path class="cls-15" d="M113.56,465.94l-14.1,18.79L80.68,470.64A23.48,23.48,0,0,1,113.56,465.94Z"/><path class="cls-15" d="M129.52,377.94c17.67,13.26,24,34.59,14.24,47.66s-32.07,12.92-49.73-.33-24-34.59-14.25-47.66S111.85,364.69,129.52,377.94Z"/><polygon class="cls-17" points="35.42 436.69 187.95 366.76 99.47 484.73 35.42 436.69"/><rect class="cls-15" x="20.71" y="333.73" width="147.76" height="79.94" transform="translate(-288.67 332.33) rotate(-69.63)"/><rect class="cls-16" x="27.13" y="339.63" width="134.93" height="68.14" transform="translate(-288.67 332.33) rotate(-69.63)"/><path class="cls-15" d="M39.51,407l-8.17,22,22,8.18A23.48,23.48,0,0,0,39.51,407Z"/><path class="cls-15" d="M74.48,312.8l8.18-22,22,8.17A23.49,23.49,0,0,1,74.48,312.8Z"/><path class="cls-15" d="M149.54,340.66l8.17-22-22-8.17A23.48,23.48,0,0,0,149.54,340.66Z"/><path class="cls-15" d="M114.57,434.87l-8.18,22-22-8.18A23.48,23.48,0,0,1,114.57,434.87Z"/><path class="cls-15" d="M104.87,346c20.71,7.68,32.88,26.33,27.2,41.64S105,409.11,84.29,401.42,51.4,375.09,57.08,359.78,84.16,338.28,104.87,346Z"/><polygon class="cls-17" points="31.34 429.02 157.71 318.64 106.39 456.89 31.34 429.02"/><rect class="cls-15" x="18.1" y="323.6" width="79.94" height="147.76" transform="translate(-11.49 1.85) rotate(-1.66)"/><rect class="cls-16" x="24.01" y="330.01" width="68.14" height="134.93" transform="translate(-11.5 1.85) rotate(-1.66)"/><path class="cls-15" d="M19.5,449l.68,23.48,23.48-.69A23.48,23.48,0,0,0,19.5,449Z"/><path class="cls-15" d="M16.59,348.56l-.68-23.47,23.48-.69A23.49,23.49,0,0,1,16.59,348.56Z"/><path class="cls-15" d="M96.62,346.24l-.68-23.48-23.48.69A23.48,23.48,0,0,0,96.62,346.24Z"/><path class="cls-15" d="M99.53,446.69l.68,23.48-23.47.67A23.48,23.48,0,0,1,99.53,446.69Z"/><path class="cls-15" d="M57.2,367.91C79.28,367.27,97.56,380,98,396.32S81,426.4,58.92,427,18.56,415,18.08,398.64,35.12,368.55,57.2,367.91Z"/><polygon class="cls-17" points="20.18 472.49 95.94 322.76 100.21 470.17 20.18 472.49"/><rect class="cls-13" x="0.56" y="395.08" width="172.24" height="137.18" rx="6.1"/><path class="cls-18" d="M6.1,395.08a6.1,6.1,0,0,0-6.1,6.1v125a6.1,6.1,0,0,0,6.1,6.1H86.94V395.08Z"/><rect class="cls-19" x="0.56" y="402.42" width="1.43" height="0.57"/><path class="cls-19" d="M161,524.92h-2.45v-.57h2.83l0,.57Zm-5.29,0h-2.85v-.57h2.85Zm-5.7,0h-2.84v-.57H150Zm-5.69,0h-2.85v-.57h2.85Zm-5.69,0H135.8v-.57h2.85Zm-5.7,0h-2.84v-.57H133Zm-5.69,0h-2.85v-.57h2.85Zm-5.69,0h-2.85v-.57h2.85Zm-5.7,0H113v-.57h2.84Zm-5.69,0h-2.85v-.57h2.85Zm-5.69,0h-2.85v-.57h2.85Zm-5.7,0H95.94v-.57h2.85Zm-5.69,0H90.25v-.57H93.1Zm-5.69,0H84.56v-.57h2.85Zm-5.7,0H78.87v-.57h2.84Zm-5.69,0H73.17v-.57H76Zm-5.69,0H67.48v-.57h2.85Zm-5.7,0H61.78v-.57h2.85Zm-5.69,0H56.09v-.57h2.85Zm-5.7,0H50.4v-.57h2.84Zm-5.69,0H44.7v-.57h2.85Zm-5.69,0H39v-.57h2.85Zm-5.7,0H33.32v-.57h2.84Zm-5.69,0H27.62v-.57h2.85Zm-5.69,0H21.93v-.57h2.85Zm-5.7,0H16.24v-.57h2.84Zm-5.69,0H10.54v-.57h2.85Zm-5.69,0H4.85v-.57H7.7ZM164.26,524l-.29-.49a5.88,5.88,0,0,0,1.94-1.87l.48.31A6.52,6.52,0,0,1,164.26,524Zm3.1-4.83-.56-.06a6.08,6.08,0,0,0,0-.61v-2.21h.57v2.21A5,5,0,0,1,167.36,519.21Zm0-5.73h-.57v-2.84h.57Zm0-5.69h-.57v-2.85h.57Zm0-5.69h-.57v-2.85h.57Zm0-5.7h-.57v-2.85h.57Zm0-5.69h-.57v-2.85h.57Zm0-5.69h-.57v-2.85h.57Zm0-5.7h-.57v-2.84h.57Zm0-5.69h-.57v-2.85h.57Zm0-5.69h-.57v-2.85h.57Zm0-5.7h-.57V459.4h.57Zm0-5.69h-.57V453.7h.57Zm0-5.69h-.57V448h.57Zm0-5.7h-.57v-2.85h.57Zm0-5.69h-.57v-2.85h.57Zm0-5.7h-.57v-2.84h.57Zm0-5.69h-.57v-2.85h.57Zm0-5.69h-.57v-2.85h.57Zm0-5.7h-.57v-2.84h.57Zm0-5.69h-.57v-2.2a6,6,0,0,0,0-.61l.57-.07a5.17,5.17,0,0,1,0,.68Zm-1.5-5.35a5.85,5.85,0,0,0-1.94-1.86l.29-.49a6.49,6.49,0,0,1,2.13,2ZM161.39,403h-2.83v-.57h2.87Zm-5.67,0h-2.85v-.57h2.85Zm-5.7,0h-2.85v-.57H150Zm-5.69,0h-2.85v-.57h2.85Zm-5.69,0h-2.85v-.57h2.85Zm-5.7,0h-2.85v-.57h2.85Zm-5.69,0H124.4v-.57h2.85Zm-5.7,0h-2.84v-.57h2.84Zm-5.69,0H113v-.57h2.85Zm-5.69,0h-2.85v-.57h2.85Zm-5.7,0h-2.84v-.57h2.84Zm-5.69,0H95.93v-.57h2.85Zm-5.69,0H90.24v-.57h2.85Zm-5.7,0H84.55v-.57h2.84Zm-5.69,0H78.85v-.57H81.7ZM76,403H73.16v-.57H76Zm-5.7,0H67.47v-.57h2.84Zm-5.69,0H61.77v-.57h2.85Zm-5.69,0H56.08v-.57h2.85Zm-5.7,0H50.39v-.57h2.84Zm-5.69,0H44.69v-.57h2.85Zm-5.7,0H39v-.57h2.84Zm-5.69,0H33.3v-.57h2.85Zm-5.69,0H27.61v-.57h2.85Zm-5.7,0H21.92v-.57h2.84Zm-5.69,0H16.22v-.57h2.85Zm-5.69,0H10.53v-.57h2.85Zm-5.7,0H4.84v-.57H7.68Z"/><rect class="cls-19" x="0.56" y="524.35" width="1.43" height="0.57"/><path class="cls-14" d="M184.37,481.54c0,3.36-2.41,6.1-5.38,6.1H120.41c-3,0-5.39-2.74-5.39-6.1V453.09c0-3.37,2.41-6.1,5.39-6.1H179c3,0,5.38,2.73,5.38,6.1Z"/><path class="cls-20" d="M184.37,477.9c0,3.36-2.34,6.09-5.23,6.09H122.28c-2.89,0-5.23-2.73-5.23-6.09V449.45c0-3.37,2.34-6.1,5.23-6.1h56.86c2.89,0,5.23,2.73,5.23,6.1Z"/><path class="cls-19" d="M184.37,481.87h-2.86v-.57h2.86Zm-5.71,0H175.8v-.57h2.86Zm-5.72,0h-2.85v-.57h2.85Zm-5.71,0h-2.86v-.57h2.86Zm-5.72,0h-2.85v-.57h2.85Zm-5.71,0h-2.86v-.57h2.86Zm-5.71,0h-2.86v-.57h2.86Zm-5.72,0h-2.86v-.57h2.86Zm-5.71,0H135.8v-.57h2.86Zm-5.72,0h-2.85v-.57h2.85Zm-5.71,0h-1.57a4.39,4.39,0,0,1-1.35-.22l.17-.54a3.94,3.94,0,0,0,1.18.19h1.57Zm-5.33-2a5.76,5.76,0,0,1-1.09-2.76l.57-.07a5.18,5.18,0,0,0,1,2.49Zm-.56-5.65h-.57v-2.86h.57Zm0-5.72h-.57v-2.85h.57Zm0-5.71h-.57V460h.57Zm0-5.72h-.57v-2.85h.57Zm0-5.67-.57-.08A5.72,5.72,0,0,1,122,448.6l.45.35A5,5,0,0,0,121.39,451.42Zm3.17-4-.16-.55a4.47,4.47,0,0,1,1.26-.19h1.66v.58h-1.66A3.75,3.75,0,0,0,124.56,447.44Zm59.81-.16h-2.76v-.58h2.76Zm-5.62,0H175.9v-.58h2.85Zm-5.71,0h-2.86v-.58H173Zm-5.72,0h-2.85v-.58h2.85Zm-5.71,0h-2.86v-.58h2.86Zm-5.71,0H153v-.58h2.86Zm-5.72,0h-2.86v-.58h2.86Zm-5.71,0h-2.86v-.58h2.86Zm-5.72,0H135.9v-.58h2.85Zm-5.71,0h-2.86v-.58H133Z"/><path class="cls-21" d="M147.32,464.28a9.58,9.58,0,1,1-9.57-9.58A9.56,9.56,0,0,1,147.32,464.28Z"/></g></g></svg>