<?xml version="1.0" encoding="UTF-8"?>
<svg width="32px" height="32px" viewBox="0 0 32 32" version="1.1" xmlns="http://www.w3.org/2000/svg" xmlns:xlink="http://www.w3.org/1999/xlink">
    <!-- Generator: Sketch 43.2 (39069) - http://www.bohemiancoding.com/sketch -->
    <title>android</title>
    <desc>Created with Sketch.</desc>
    <defs></defs>
    <g id="Page-1" stroke="none" stroke-width="1" fill="none" fill-rule="evenodd">
        <g id="android" fill-rule="nonzero" fill="#000000">
            <path d="M20.7667797,2.87584181 C23.0629153,4.21979661 24.5087458,6.52628249 24.5087006,8.93464407 C24.5087006,9.31471186 24.2002712,9.62314124 23.8202034,9.62314124 L7.98481356,9.62314124 C7.60479096,9.62314124 7.29631638,9.31471186 7.29631638,8.93464407 C7.29631638,6.51457627 8.71877966,4.20949153 10.9797966,2.87724294 L10.0640904,1.50300565 C9.76732203,1.05893785 9.88714124,0.455141243 10.331887,0.157016949 C10.7739209,-0.13559322 11.3949379,-0.00411299435 11.6813559,0.426214689 L12.7816045,2.07584181 C14.7520904,1.43900565 16.9938079,1.43900565 18.9649718,2.07584181 L20.0651751,0.425491525 C20.3515932,-0.00479096045 20.9808814,-0.132836158 21.4132429,0.156293785 C21.6287458,0.300881356 21.7753672,0.519819209 21.8263503,0.773875706 C21.8779661,1.02933333 21.8256271,1.28958192 21.6810395,1.50508475 L20.7667797,2.87584181 Z M23.7975593,10.3116384 C24.1775819,10.3116384 24.4860113,10.6193898 24.4866441,11.0000904 L24.4866441,23.7579661 C24.4866441,25.1259661 23.3740113,26.2392768 22.0059661,26.2392768 L21.4682938,26.2392768 L21.4682938,29.6080904 C21.4682938,30.9237966 20.3976949,31.9944407 19.0812655,31.9944407 C17.7649266,31.9944407 16.6942825,30.9237966 16.6942825,29.6080904 L16.6942825,26.2392768 L15.0529266,26.2392768 L15.0529266,29.6080904 C15.0529266,30.9237966 13.9816045,31.9944407 12.6652203,31.9944407 C11.3488362,31.9944407 10.2781921,30.9237966 10.2781921,29.6080904 L10.2781921,26.2392768 L9.74047458,26.2392768 C8.37242938,26.2392768 7.25984181,25.1260113 7.25984181,23.7579661 L7.25984181,11.0001356 C7.25984181,10.6200678 7.56827119,10.3116384 7.94833898,10.3116384 L23.7975593,10.3116384 Z M4.42942373,10.6159096 C5.74512994,10.6159096 6.81645198,11.6865537 6.81645198,13.0022599 L6.81645198,20.2665763 C6.81645198,21.5829153 5.74580791,22.6535593 4.42942373,22.6535593 C3.11308475,22.6535593 2.04244068,21.5829605 2.04244068,20.2665763 L2.04244068,13.0022147 C2.04244068,11.6865537 3.11303955,10.6159096 4.42942373,10.6159096 Z M27.3171073,10.6159096 C28.6328136,10.6159096 29.7034124,11.6865537 29.7034576,13.0022599 L29.7034576,20.2665763 C29.7034576,21.5829153 28.6328136,22.6535593 27.3171073,22.6535593 C26.0007684,22.6535593 24.9301243,21.5829605 24.9301243,20.2665763 L24.9301243,13.0022147 C24.9301243,11.6865537 26.0007232,10.6159096 27.3171073,10.6159096 Z M19.1584181,5.17681356 C18.7068023,5.17681356 18.3411977,5.54241808 18.3411977,5.9940791 C18.3411977,6.44574011 18.7068023,6.81134463 19.1584181,6.81134463 C19.6100791,6.81134463 19.9756836,6.44574011 19.9756836,5.9940791 C19.9756836,5.54241808 19.6100791,5.17681356 19.1584181,5.17681356 Z M12.9619887,5.17681356 C12.5103277,5.17681356 12.1447232,5.54241808 12.1447232,5.9940791 C12.1447232,6.44574011 12.5102825,6.81134463 12.9619887,6.81134463 C13.4136497,6.81134463 13.7792542,6.44574011 13.7792542,5.9940791 C13.7792542,5.54241808 13.4136045,5.17681356 12.9619887,5.17681356 Z" id="Shape"></path>
        </g>
    </g>
</svg>