<?xml version="1.0" encoding="UTF-8"?>
<svg width="32px" height="32px" viewBox="0 0 32 32" version="1.1" xmlns="http://www.w3.org/2000/svg" xmlns:xlink="http://www.w3.org/1999/xlink">
    <!-- Generator: Sketch 43.2 (39069) - http://www.bohemiancoding.com/sketch -->
    <title>arrow-right</title>
    <desc>Created with Sketch.</desc>
    <defs></defs>
    <g id="Page-1" stroke="none" stroke-width="1" fill="none" fill-rule="evenodd">
        <g id="arrow-right" stroke="#fff">
            <path d="M27.8151105,13.4514214 C27.8151105,12.892304 27.659387,12.3361163 27.3648419,11.8425785 C27.3506442,11.8150847 27.3346437,11.7889429 27.317291,11.7628012 C27.1460176,11.4928203 26.9305738,11.2494318 26.6768188,11.0378191 L18.4556973,1.88663817 C17.8654803,1.01720049 16.8939546,0.5 15.8451306,0.5 C15.0034122,0.5 14.1896384,0.845927123 13.5951395,1.45394757 C13.5604341,1.48121609 13.5279823,1.51141429 13.4980095,1.54521824 L5.13558748,10.8532495 C4.89219901,11.0560732 4.68554418,11.2875176 4.51855265,11.5419487 C4.47528359,11.5955843 4.43990211,11.65553 4.41376039,11.7188561 C4.14175124,12.196844 4,12.7295943 4,13.2659503 C4,15.0082061 5.41661101,16.4248171 7.15886677,16.4248171 C8.11439185,16.4248171 9.00208367,15.996859 9.60785051,15.2470874 C9.62204817,15.2322136 12.68694,11.5464559 12.68694,11.5464559 L12.68694,28.3411332 C12.68694,30.0831636 14.1037763,31.5 15.8460321,31.5 C17.5880625,31.5 19.0048988,30.083389 19.0048988,28.3411332 L19.0048988,11.5820627 L22.1660192,15.3852329 C22.8096465,16.1800765 23.6986905,16.6107388 24.6566945,16.6107388 C26.3973727,16.6107388 27.8151105,15.1927757 27.8151105,13.4514214 Z" id="Combined-Shape" transform="translate(15.907555, 16.000000) rotate(90.000000) translate(-15.907555, -16.000000) "></path>
        </g>
    </g>
</svg>