<?xml version="1.0" encoding="UTF-8"?>
<svg width="32px" height="32px" viewBox="0 0 32 32" version="1.1" xmlns="http://www.w3.org/2000/svg" xmlns:xlink="http://www.w3.org/1999/xlink">
    <!-- Generator: Sketch 43.2 (39069) - http://www.bohemiancoding.com/sketch -->
    <title>balance-transfer</title>
    <desc>Created with Sketch.</desc>
    <defs></defs>
    <g id="Page-1" stroke="none" stroke-width="1" fill="none" fill-rule="evenodd">
        <g id="balance-transfer" stroke="#DA3F7B">
            <path d="M23.9799205,30.1685112 C24.2890832,30.1685112 24.5966259,30.0824042 24.8695264,29.9195361 C24.8847291,29.9116856 24.8991841,29.9028381 24.9136391,29.893243 C25.0629245,29.7985377 25.1975056,29.6794086 25.3145163,29.5390953 L30.374641,24.9932449 C30.8553946,24.6668857 31.1413794,24.1296829 31.1413794,23.549738 C31.1413794,23.0843117 30.9500998,22.6343373 30.6138963,22.3056105 C30.5988182,22.2864203 30.5821202,22.2684761 30.5634284,22.2519027 L25.4165737,17.6279205 C25.3044228,17.4933394 25.1764461,17.3790701 25.035759,17.2867325 C25.0061013,17.262807 24.9729545,17.2432429 24.9379385,17.2287879 C24.6736362,17.078381 24.3790531,17 24.0824762,17 C23.1190999,17 22.3357881,17.7833118 22.3357881,18.7466882 C22.3357881,19.2750436 22.5724265,19.7658908 22.987011,20.1008482 C22.9952354,20.1086987 25.0332668,21.8034237 25.0332668,21.8034237 L15.7466882,21.8034237 C14.7834364,21.8034237 14,22.5868601 14,23.5502365 C14,24.5134882 14.7833118,25.2969247 15.7466882,25.2969247 L25.0135781,25.2969247 L22.9106238,27.044859 C22.4711168,27.4007512 22.2329831,27.892346 22.2329831,28.4220722 C22.2329831,29.3845763 23.0170426,30.1685112 23.9799205,30.1685112 Z" id="Shape"></path>
            <rect id="Rectangle-2" x="0.5" y="21" width="9.43446376" height="4.24532017" rx="2"></rect>
            <path d="M10.9799205,15.1685112 C11.2890832,15.1685112 11.5966259,15.0824042 11.8695264,14.9195361 C11.8847291,14.9116856 11.8991841,14.9028381 11.9136391,14.893243 C12.0629245,14.7985377 12.1975056,14.6794086 12.3145163,14.5390953 L17.374641,9.9932449 C17.8553946,9.66688574 18.1413794,9.12968286 18.1413794,8.54973802 C18.1413794,8.08431172 17.9500998,7.63433733 17.6138963,7.30561054 C17.5988182,7.28642027 17.5821202,7.26847613 17.5634284,7.25190271 L12.4165737,2.62792051 C12.3044228,2.49333941 12.1764461,2.37907009 12.035759,2.2867325 C12.0061013,2.26280698 11.9729545,2.24324287 11.9379385,2.22878787 C11.6736362,2.07838103 11.3790531,2 11.0824762,2 C10.1190999,2 9.33578806,2.78331183 9.33578806,3.74668819 C9.33578806,4.27504361 9.57242649,4.76589078 9.98701104,5.10084817 C9.99523544,5.10869874 12.0332668,6.80342367 12.0332668,6.80342367 L2.74668819,6.80342367 C1.78343644,6.80342367 1,7.58686011 1,8.55023647 C1,9.51348821 1.78331183,10.2969247 2.74668819,10.2969247 L12.0135781,10.2969247 L9.9106238,12.044859 C9.47111683,12.4007512 9.23298306,12.892346 9.23298306,13.4220722 C9.23298306,14.3845763 10.0170426,15.1685112 10.9799205,15.1685112 Z" id="Shape-Copy" transform="translate(9.570690, 8.584256) scale(-1, -1) translate(-9.570690, -8.584256) "></path>
            <rect id="Rectangle-2-Copy" transform="translate(26.717232, 8.122660) scale(-1, -1) translate(-26.717232, -8.122660) " x="22" y="6" width="9.43446376" height="4.24532017" rx="2"></rect>
        </g>
    </g>
</svg>