<?xml version="1.0" encoding="UTF-8"?>
<svg width="32px" height="32px" viewBox="0 0 32 32" version="1.1" xmlns="http://www.w3.org/2000/svg" xmlns:xlink="http://www.w3.org/1999/xlink">
    <!-- Generator: Sketch 43.2 (39069) - http://www.bohemiancoding.com/sketch -->
    <title>bills-managment</title>
    <desc>Created with Sketch.</desc>
    <defs></defs>
    <g id="Page-1" stroke="none" stroke-width="1" fill="none" fill-rule="evenodd">
        <g id="bills-managment" fill="#000000">
            <path d="M7.19293063,27.8486785 L7.99958854,29.7308802 C8.40520985,30.67733 9.55301653,31.2518765 10.5537504,31.0164097 L26.1998338,27.3349784 L7.19293063,27.8486785 Z M5.65183038,5.24587474 L3.6226836,5.82563096 C2.75738936,6.07285789 2.22936755,6.99180277 2.4373498,7.85344353 L5.65183038,21.1705774 L5.65183038,5.24587474 Z M29.2396126,3.06918362 C29.2400221,1.88007681 29.2398219,2.13664385 29.2398219,2.13664385 C29.2397817,1.58664958 28.7883776,1.14079114 28.2396541,1.14079114 L7.64345164,1.14079114 C7.09111442,1.14079114 6.64115379,1.58465686 6.63926039,2.14660535 C6.63926039,2.14660535 6.63857938,1.87185 6.63762393,3.108261 C6.63584953,5.22016459 6.63844289,7.33200183 6.6383064,9.44390541 C6.63810166,14.5632414 6.64293655,25.7109093 6.64293655,25.7109093 C6.64316856,26.2634637 7.09953802,26.7113976 7.64983496,26.7113976 L8.6102187,26.7113976 C8.6102187,26.7113976 19.7565666,26.7111985 25.3297747,26.7051611 C26.0450656,26.704365 27.4745552,26.6242198 27.4745552,26.6242198 L28.2330779,26.6242198 C28.7886324,26.6242198 29.239036,26.1787966 29.2390792,25.6244049 C29.2390792,25.6244049 29.2398174,17.5648355 29.2389984,13.9492157 C29.2389984,10.3225162 29.238043,6.69588309 29.2396126,3.06918362 Z M5.6260232,2.00876509 C5.61608994,0.89944075 6.50130829,0.000134482401 7.60530628,0.000110835412 C7.60530628,0.000110835412 18.0474776,-0.00016537143 22.4026269,0.000155691123 C23.8472158,0.000219903634 28.4137831,0.000171629368 28.4137831,0.000171629368 C29.5196984,0.000162826919 30.4162198,0.890830193 30.4162198,1.99060562 L30.4162198,3.67953255 C30.4162198,3.67953255 30.4182104,17.5471232 30.4107618,24.4809827 C30.4103123,24.8731285 30.3824441,25.2789516 30.2803462,25.6548516 C29.9974258,26.6963785 29.2828048,27.3276517 28.2496897,27.588804 C24.8423171,28.449958 21.4327612,29.3024433 18.0235264,30.1562128 C15.6817603,30.7426657 13.345966,31.355253 10.9947607,31.9013804 C9.02118923,32.3598578 7.21469867,31.178797 6.74658947,29.2095278 C6.50694838,28.2014556 6.26107868,27.1947318 6.00641186,26.190384 C4.55007212,20.4452264 3.08660479,14.7019953 1.63353989,8.95600297 C1.09691594,6.83397213 2.21222304,5.03371018 4.35659983,4.52328494 C4.78226456,4.42202181 5.20735138,4.3188323 5.60803745,4.22244932 C5.65459152,3.70097953 5.6260232,2.00876509 5.6260232,2.00876509 Z M16.9532322,16.5472766 C16.9532322,16.8226881 17.1837898,17.0609767 17.4681969,17.0609767 L27.7396695,17.0609767 C28.0185883,17.0609767 28.2546341,16.8309853 28.2546341,16.5472766 C28.2546341,16.2718651 28.0240766,16.0335765 27.7396695,16.0335765 L17.4681969,16.0335765 C17.1892781,16.0335765 16.9532322,16.2635679 16.9532322,16.5472766 Z M16.9532322,19.6294771 C16.9532322,19.9048886 17.1837898,20.1431772 17.4681969,20.1431772 L27.7396695,20.1431772 C28.0185883,20.1431772 28.2546341,19.9131858 28.2546341,19.6294771 C28.2546341,19.3540656 28.0240766,19.115777 27.7396695,19.115777 L17.4681969,19.115777 C17.1892781,19.115777 16.9532322,19.3457684 16.9532322,19.6294771 Z M16.9532322,22.7116776 C16.9532322,22.9870891 17.1837898,23.2253777 17.4681969,23.2253777 L27.7396695,23.2253777 C28.0185883,23.2253777 28.2546341,22.9953863 28.2546341,22.7116776 C28.2546341,22.4362661 28.0240766,22.1979775 27.7396695,22.1979775 L17.4681969,22.1979775 C17.1892781,22.1979775 16.9532322,22.4279689 16.9532322,22.7116776 Z M11.0785581,21.123317 C11.0785581,21.3774285 10.9586959,21.4757155 10.718968,21.4181808 C10.4840347,21.3558515 10.27068,21.3043108 10.0788977,21.2635571 C9.88711538,21.2228033 9.68814421,21.2024268 9.48197821,21.2024268 C9.28060677,21.2024268 9.11999148,21.2168102 9.00012753,21.2455776 C8.88026358,21.2743449 8.78916834,21.3150981 8.72683908,21.3678382 C8.66450983,21.4205783 8.62135945,21.4841053 8.59738666,21.5584209 C8.57341387,21.6327366 8.56142766,21.7154415 8.56142766,21.8065381 C8.56142766,21.926402 8.59019457,22.0222917 8.64772927,22.0942101 C8.70526397,22.1661285 8.77598264,22.2224637 8.85988741,22.2632174 C8.94379217,22.3039712 9.03728465,22.3327381 9.14036765,22.3495191 C9.24345065,22.3663 9.38129213,22.3830807 9.55389622,22.3998617 C9.72650031,22.4166426 9.90869079,22.4418137 10.1004731,22.4753756 C10.2922554,22.5089375 10.4744459,22.5724644 10.64705,22.6659583 C10.8196541,22.7594522 10.9694818,22.8972937 11.0965376,23.0794869 C11.2235934,23.2616801 11.2871203,23.5061989 11.2871203,23.8130506 C11.2871203,24.0240112 11.2583534,24.2229823 11.2008187,24.4099701 C11.143284,24.5969579 11.0437984,24.7587718 10.9023589,24.8954167 C10.7609195,25.0320616 10.5727359,25.1399375 10.3378025,25.2190477 C10.1028692,25.2981579 9.80321382,25.3377124 9.4388274,25.3377124 C9.30937433,25.3377124 9.17153286,25.3293221 9.02529883,25.3125411 C8.87906481,25.2957602 8.73523023,25.2765822 8.59379076,25.2550067 C8.4523513,25.2334312 8.3133112,25.2070615 8.17666629,25.1758969 C8.04002139,25.1447323 7.92135785,25.117164 7.82067213,25.0931912 L7.82067213,24.5609979 C7.82067213,24.3308591 7.93334256,24.2565446 8.15868679,24.3380521 C8.19704326,24.3524358 8.25457709,24.3704151 8.33129002,24.3919906 C8.40800295,24.4135661 8.49909819,24.4351413 8.60457846,24.4567168 C8.71005874,24.4782923 8.82752365,24.4974703 8.95697672,24.5142512 C9.08642979,24.5310322 9.22307265,24.5394225 9.36690939,24.5394225 C9.7552686,24.5394225 10.035746,24.4818887 10.2083501,24.3668193 C10.3809542,24.2517499 10.467255,24.0791484 10.467255,23.8490096 C10.467255,23.7051729 10.4277005,23.5901052 10.3485903,23.5038031 C10.26948,23.4175011 10.1759876,23.3503783 10.06811,23.3024327 C9.96023245,23.2544871 9.8463634,23.2221243 9.72649945,23.2053434 C9.6066355,23.1885624 9.45560918,23.1705831 9.27341597,23.1514049 C9.09122277,23.1322267 8.91262816,23.1010625 8.73762679,23.0579115 C8.56262542,23.0147604 8.40081151,22.9452404 8.25218021,22.8493492 C8.1035489,22.7534581 7.98128951,22.6252056 7.88539835,22.4645879 C7.78950718,22.3039702 7.74156232,22.0966086 7.74156232,21.8424971 C7.74156232,21.5596181 7.78830856,21.3270856 7.88180244,21.1448924 C7.97529633,20.9626991 8.10115159,20.8188646 8.25937201,20.7133843 C8.41759242,20.607904 8.60098152,20.5347881 8.8095448,20.4940343 C9.01810807,20.4532806 9.23745582,20.432904 9.46759461,20.432904 C9.69293884,20.432904 9.90149899,20.4508834 10.0932813,20.4868425 C10.2850636,20.5228017 10.4600624,20.5623562 10.6182828,20.6055073 C10.7765032,20.6486583 10.9299268,20.6990004 11.0785581,20.7565351 L11.0785581,21.123317 Z M15.6597354,24.8990126 C15.7028864,24.9709309 15.7256603,25.030862 15.7280575,25.0788076 C15.7304548,25.1267532 15.7196672,25.1651091 15.6956944,25.1938764 C15.6717216,25.2226438 15.6369616,25.244219 15.5914133,25.2586026 C15.545865,25.2729863 15.4991188,25.280178 15.4511732,25.280178 L14.8902127,25.280178 L13.6100721,23.4678441 L12.7326723,23.4678441 L12.7326723,25.280178 L11.9271906,25.280178 L11.9271906,20.8140695 C12.0902056,20.7421511 12.2556154,20.6786242 12.4234249,20.6234868 C12.5912344,20.5683494 12.7734249,20.5204045 12.9700018,20.4796507 C13.1665787,20.438897 13.3679471,20.4185204 13.5741131,20.4185204 C14.1734328,20.4185204 14.6253132,20.5503688 14.9297676,20.8140695 C15.234222,21.0777702 15.386447,21.4685208 15.386447,21.9863331 C15.386447,22.2883903 15.3169269,22.5556829 15.1778847,22.7882189 C15.0388426,23.020755 14.8230907,23.1945551 14.5306226,23.3096245 L15.6597354,24.8990126 Z M13.7467163,22.7198968 C13.8378129,22.7198968 13.9301068,22.7055134 14.0236007,22.676746 C14.1170945,22.6479787 14.2033953,22.602431 14.2825055,22.5401018 C14.3616157,22.4777725 14.4263413,22.3950676 14.4766841,22.2919846 C14.527027,22.1889016 14.552198,22.0606491 14.552198,21.9072233 C14.552198,21.7633865 14.5258284,21.6435244 14.4730882,21.5476332 C14.4203481,21.4517421 14.3460336,21.3774275 14.2501424,21.3246874 C14.1542512,21.2719472 14.0379849,21.23479 13.90134,21.2132145 C13.7646951,21.191639 13.610073,21.1808514 13.4374689,21.1808514 C13.3655505,21.1808514 13.2876401,21.1856458 13.2037353,21.195235 C13.1198306,21.2048241 13.0383243,21.2180089 12.9592141,21.2347899 C12.8801039,21.2515708 12.8045907,21.2719474 12.7326723,21.2959202 L12.7326723,22.7198968 L13.7467163,22.7198968 Z M22.5857016,6.73335285 L21.8650201,6.61109438 C21.7899491,6.36872231 21.6934293,6.13492979 21.5754606,5.9118617 L22.0001479,5.3177284 C22.1803183,5.06463191 22.1524348,4.71930534 21.9315116,4.50052702 L21.2923357,3.86135113 C21.1722221,3.74123754 21.0135005,3.67474609 20.8440546,3.67474609 C20.7110717,3.67474609 20.5845234,3.71549891 20.4772792,3.79271479 L19.881001,4.21740213 C19.6493534,4.09514365 19.4069813,3.99433403 19.1560297,3.91926304 L19.0359161,3.20716104 C18.9844388,2.90044241 18.7206179,2.67737432 18.4096095,2.67737432 L17.5066127,2.67737432 C17.1956043,2.67737432 16.9317834,2.90044241 16.8803061,3.20716104 L16.7559028,3.93642212 C16.5156756,4.01149312 16.2818831,4.11015785 16.058815,4.23027144 L15.4689715,3.8055841 C15.3617272,3.72836823 15.233034,3.6876154 15.1000511,3.6876154 C14.9306052,3.6876154 14.7697388,3.75410685 14.6517701,3.87422044 L14.0104493,4.51339633 C13.791671,4.73217465 13.7616426,5.07750122 13.941813,5.33059772 L14.3707901,5.93331055 C14.2528214,6.15852353 14.1584464,6.39231605 14.0855203,6.63468812 L13.3734183,6.75480171 C13.0666997,6.80627896 12.8436316,7.07009988 12.8436316,7.38110828 L12.8436316,8.28410509 C12.8436316,8.59511349 13.0666997,8.85893441 13.3734183,8.91041167 L14.1026794,9.03481503 C14.1777504,9.27504221 14.2764151,9.50883473 14.3965287,9.73190283 L13.9739862,10.3196015 C13.7938159,10.572698 13.8216994,10.9180245 14.0426226,11.1368028 L14.6817985,11.7759787 C14.8019121,11.8960923 14.9606336,11.9625838 15.1300795,11.9625838 C15.2630624,11.9625838 15.3896107,11.921831 15.496855,11.8446151 L16.0995678,11.415638 C16.3162012,11.5293169 16.5435591,11.621547 16.7773516,11.6944731 L16.8974652,12.4151546 C16.9489425,12.7218733 17.2127634,12.9449414 17.5237718,12.9449414 L18.4289135,12.9449414 C18.7399219,12.9449414 19.0037428,12.7218733 19.0552201,12.4151546 L19.1774785,11.6944731 C19.4198506,11.6194021 19.6536431,11.5228822 19.8767112,11.4049135 L20.4708445,11.8296009 C20.5780888,11.9068168 20.7067819,11.9475696 20.8397648,11.9475696 L20.8397648,11.9475696 C21.0092108,11.9475696 21.1679323,11.8810781 21.2880459,11.7609645 L21.9272218,11.1217886 C22.1460001,10.9030103 22.1760285,10.5576838 21.9958581,10.3045873 L21.5711708,9.70830908 C21.6891395,9.4830961 21.7878042,9.24930358 21.8607303,9.0090764 L22.5814119,8.88896281 C22.8881305,8.83748556 23.1111986,8.57366464 23.1111986,8.26265624 L23.1111986,7.35965943 C23.1154884,7.04865103 22.8924203,6.78483011 22.5857016,6.73335285 Z M22.5363693,8.26265624 C22.5363693,8.29053975 22.5170653,8.31413349 22.4891818,8.31842326 L21.5883299,8.46856525 C21.4746509,8.48786922 21.3845657,8.57151975 21.3566822,8.68090892 C21.2751766,8.99620709 21.1507732,9.29863595 20.9834722,9.57961595 C20.9255602,9.67828069 20.92985,9.80053916 20.9963415,9.89491413 L21.5261282,10.6413343 C21.5411424,10.6627831 21.5389975,10.6949564 21.5196935,10.7142604 L20.8805176,11.3534363 C20.8655034,11.3684505 20.8504892,11.3705954 20.8397648,11.3705954 C20.8268955,11.3705954 20.8161711,11.3663056 20.8075915,11.3598709 L20.0633163,10.8300842 C19.9710862,10.7635928 19.8466828,10.759303 19.7480181,10.8172149 C19.4670381,10.984516 19.1646092,11.1089193 18.849311,11.190425 C18.737777,11.2183085 18.6541265,11.3105386 18.6369674,11.4220726 L18.4846805,12.3229245 C18.4803907,12.3508081 18.456797,12.370112 18.4289135,12.370112 L17.5259167,12.370112 C17.4980332,12.370112 17.4744394,12.3508081 17.4701497,12.3229245 L17.3200077,11.4220726 C17.3007037,11.3083937 17.2170532,11.2183085 17.107664,11.190425 C16.8009454,11.1110642 16.5049512,10.9888057 16.2282609,10.8300842 C16.1832183,10.8043456 16.1317411,10.7914763 16.0824087,10.7914763 C16.0244968,10.7914763 15.96444,10.8086354 15.9151076,10.8450984 L15.1643977,11.3791749 C15.1536733,11.3856096 15.1429489,11.3898993 15.1322244,11.3898993 C15.1236449,11.3898993 15.1064858,11.3877545 15.0914716,11.3727403 L14.4522957,10.7335644 C14.4329917,10.7142604 14.4308469,10.684232 14.4458611,10.6606383 L14.9735029,9.92065275 C15.0399943,9.82627779 15.0442841,9.70187443 14.9863722,9.60320969 C14.8190711,9.32437457 14.690378,9.02194572 14.6088724,8.70664754 C14.578844,8.59725838 14.4887588,8.51360784 14.3772247,8.49430387 L13.4699381,8.33987212 C13.4420546,8.33558235 13.4227507,8.3119886 13.4227507,8.28410509 L13.4227507,7.38110828 C13.4227507,7.35322477 13.4420546,7.32963103 13.4699381,7.32534126 L14.3643554,7.17519927 C14.4780343,7.1558953 14.5702644,7.07224477 14.5981479,6.96071072 C14.6775087,6.64541255 14.7997672,6.3408388 14.9649234,6.0598588 C15.0228353,5.96119406 15.0164006,5.83893559 14.9499092,5.74670551 L14.4158327,4.99599557 C14.4008185,4.97454672 14.4029633,4.94237344 14.4222673,4.92306947 L15.0614432,4.28389358 C15.0764574,4.26887938 15.0914716,4.26673449 15.102196,4.26673449 C15.1150653,4.26673449 15.1257898,4.27102426 15.1343693,4.27745892 L15.8743548,4.80510076 C15.9687298,4.87159221 16.0931331,4.87588198 16.1917979,4.81797008 C16.470633,4.650669 16.7730619,4.52197587 17.08836,4.44047022 C17.1977492,4.41044182 17.2813997,4.32035663 17.3007037,4.20882258 L17.4551355,3.30153601 C17.4594252,3.27365249 17.483019,3.25434852 17.5109025,3.25434852 L18.4138993,3.25434852 C18.4417828,3.25434852 18.4653765,3.27365249 18.4696663,3.30153601 L18.6198083,4.19595327 C18.6391123,4.3096322 18.7227628,4.40186228 18.8342968,4.42974579 C19.1581746,4.51125144 19.4670381,4.63779969 19.7544527,4.80724565 C19.8531175,4.86515756 19.975376,4.86086779 20.0697509,4.79437633 L20.8097364,4.26244472 C20.8204608,4.25601007 20.8311853,4.2517203 20.8419097,4.2517203 C20.8504892,4.2517203 20.8676483,4.25386518 20.8826625,4.26887938 L21.5218384,4.90805527 C21.5411424,4.92735924 21.5432873,4.95738763 21.5282731,4.98098138 L20.9984863,5.72525665 C20.9319949,5.81748673 20.9277051,5.94189009 20.985617,6.04055483 C21.1529181,6.32153483 21.2773215,6.62396369 21.3588271,6.93926186 C21.3867106,7.05079591 21.4789407,7.13444645 21.5904748,7.15160553 L22.4913267,7.30389241 C22.5192102,7.30818218 22.5385142,7.33177592 22.5385142,7.35965943 L22.5385142,8.26265624 L22.5363693,8.26265624 L22.5363693,8.26265624 Z M17.9784875,5.59441864 C16.7559028,5.59441864 15.7628208,6.58750064 15.7628208,7.81008539 C15.7628208,9.03267014 16.7559028,10.0257521 17.9784875,10.0257521 C19.2010723,10.0257521 20.1941543,9.03267014 20.1941543,7.81008539 C20.1941543,6.58750064 19.2010723,5.59441864 17.9784875,5.59441864 Z M17.9784875,9.44663305 C17.0754907,9.44663305 16.3419399,8.7130822 16.3419399,7.81008539 C16.3419399,6.90708858 17.0754907,6.17353773 17.9784875,6.17353773 C18.8814843,6.17353773 19.6150352,6.90708858 19.6150352,7.81008539 C19.6150352,8.7130822 18.8814843,9.44663305 17.9784875,9.44663305 Z" id="bills"></path>
        </g>
    </g>
</svg>