<?xml version="1.0" encoding="UTF-8"?>
<svg width="32px" height="32px" viewBox="0 0 32 32" version="1.1" xmlns="http://www.w3.org/2000/svg" xmlns:xlink="http://www.w3.org/1999/xlink">
    <!-- Generator: Sketch 43.2 (39069) - http://www.bohemiancoding.com/sketch -->
    <title>burger-menu</title>
    <desc>Created with Sketch.</desc>
    <defs></defs>
    <g id="Page-1" stroke="none" stroke-width="1" fill="none" fill-rule="evenodd">
        <g id="burger-menu" fill="#ffffff">
            <path d="M0,8 C0,7.44771525 0.438917756,7 1.00307055,7 L21.9969294,7 C22.55091,7 23,7.44386482 23,8 C23,8.55228475 22.5610822,9 21.9969294,9 L1.00307055,9 C0.449089982,9 0,8.55613518 0,8 Z M0,16 C0,15.4477153 0.452362061,15 0.992786407,15 L31.0072136,15 C31.5555144,15 32,15.4438648 32,16 C32,16.5522847 31.5476379,17 31.0072136,17 L0.992786407,17 C0.444485615,17 0,16.5561352 0,16 Z M0,24 C0,23.4477153 0.43945834,23 1.00246167,23 L20.9975383,23 C21.5511826,23 22,23.4438648 22,24 C22,24.5522847 21.5605417,25 20.9975383,25 L1.00246167,25 C0.448817378,25 0,24.5561352 0,24 Z" id="Combined-Shape"></path>
        </g>
    </g>
</svg>