<?xml version="1.0" encoding="UTF-8"?>
<svg width="32px" height="32px" viewBox="0 0 32 32" version="1.1" xmlns="http://www.w3.org/2000/svg" xmlns:xlink="http://www.w3.org/1999/xlink">
    <!-- Generator: Sketch 43.2 (39069) - http://www.bohemiancoding.com/sketch -->
    <title>calendar</title>
    <desc>Created with Sketch.</desc>
    <defs></defs>
    <g id="Page-1" stroke="none" stroke-width="1" fill="none" fill-rule="evenodd">
        <g id="calendar" fill-rule="nonzero" fill="#DA3F7B">
            <path d="M30,30 L2,30 C0.463304348,30 0,28.7274474 0,27.1578947 L0,5.84210526 C0,4.27255263 0.463304348,3 2,3 L30,3 C31.5366957,3 32,4.27255263 32,5.84210526 L32,27.1578947 C32,28.7274474 31.5366957,30 30,30 Z M31,5.44243421 C31,4.65801316 30.36,4.02138158 29.5714286,4.02138158 L2.42857143,4.02138158 C1.64,4.02138158 1,4.65801316 1,5.44243421 L1,10 L31,10 L31,5.44243421 Z M31,11 L1,11 L1,27.6529605 C1,28.4373816 1.64,29.0740132 2.42857143,29.0740132 L29.5714286,29.0740132 C30.36,29.0740132 31,28.4373816 31,27.6529605 L31,11 Z M27.826087,21.4736842 L26.4347826,21.4736842 C26.0507826,21.4736842 25.7391304,21.1560789 25.7391304,20.7631579 L25.7391304,19.3421053 C25.7391304,18.9498947 26.0507826,18.6315789 26.4347826,18.6315789 L27.826087,18.6315789 C28.2107826,18.6315789 28.5217391,18.9498947 28.5217391,19.3421053 L28.5217391,20.7631579 C28.5217391,21.1560789 28.2107826,21.4736842 27.826087,21.4736842 Z M27.826087,16.5 L26.4347826,16.5 C26.0507826,16.5 25.7391304,16.1823947 25.7391304,15.7894737 L25.7391304,14.3684211 C25.7391304,13.9755 26.0507826,13.6578947 26.4347826,13.6578947 L27.826087,13.6578947 C28.2107826,13.6578947 28.5217391,13.9755 28.5217391,14.3684211 L28.5217391,15.7894737 C28.5217391,16.1823947 28.2107826,16.5 27.826087,16.5 Z M22.2608696,21.4736842 L20.8695652,21.4736842 C20.4855652,21.4736842 20.173913,21.1560789 20.173913,20.7631579 L20.173913,19.3421053 C20.173913,18.9498947 20.4855652,18.6315789 20.8695652,18.6315789 L22.2608696,18.6315789 C22.6455652,18.6315789 22.9565217,18.9498947 22.9565217,19.3421053 L22.9565217,20.7631579 C22.9565217,21.1560789 22.6455652,21.4736842 22.2608696,21.4736842 Z M22.2608696,16.5 L20.8695652,16.5 C20.4855652,16.5 20.173913,16.1823947 20.173913,15.7894737 L20.173913,14.3684211 C20.173913,13.9755 20.4855652,13.6578947 20.8695652,13.6578947 L22.2608696,13.6578947 C22.6455652,13.6578947 22.9565217,13.9755 22.9565217,14.3684211 L22.9565217,15.7894737 C22.9565217,16.1823947 22.6455652,16.5 22.2608696,16.5 Z M16.6956522,21.4736842 L15.3043478,21.4736842 C14.9196522,21.4736842 14.6086957,21.1560789 14.6086957,20.7631579 L14.6086957,19.3421053 C14.6086957,18.9498947 14.9196522,18.6315789 15.3043478,18.6315789 L16.6956522,18.6315789 C17.0803478,18.6315789 17.3913043,18.9498947 17.3913043,19.3421053 L17.3913043,20.7631579 C17.3913043,21.1560789 17.0803478,21.4736842 16.6956522,21.4736842 Z M16.6956522,16.5 L15.3043478,16.5 C14.9196522,16.5 14.6086957,16.1823947 14.6086957,15.7894737 L14.6086957,14.3684211 C14.6086957,13.9755 14.9196522,13.6578947 15.3043478,13.6578947 L16.6956522,13.6578947 C17.0803478,13.6578947 17.3913043,13.9755 17.3913043,14.3684211 L17.3913043,15.7894737 C17.3913043,16.1823947 17.0803478,16.5 16.6956522,16.5 Z M11.1304348,26.4473684 L9.73913043,26.4473684 C9.35443478,26.4473684 9.04347826,26.1297632 9.04347826,25.7368421 L9.04347826,24.3157895 C9.04347826,23.9228684 9.35443478,23.6052632 9.73913043,23.6052632 L11.1304348,23.6052632 C11.5151304,23.6052632 11.826087,23.9228684 11.826087,24.3157895 L11.826087,25.7368421 C11.826087,26.1297632 11.5151304,26.4473684 11.1304348,26.4473684 Z M11.1304348,21.4736842 L9.73913043,21.4736842 C9.35443478,21.4736842 9.04347826,21.1560789 9.04347826,20.7631579 L9.04347826,19.3421053 C9.04347826,18.9498947 9.35443478,18.6315789 9.73913043,18.6315789 L11.1304348,18.6315789 C11.5151304,18.6315789 11.826087,18.9498947 11.826087,19.3421053 L11.826087,20.7631579 C11.826087,21.1560789 11.5151304,21.4736842 11.1304348,21.4736842 Z M11.1304348,16.5 L9.73913043,16.5 C9.35443478,16.5 9.04347826,16.1823947 9.04347826,15.7894737 L9.04347826,14.3684211 C9.04347826,13.9755 9.35443478,13.6578947 9.73913043,13.6578947 L11.1304348,13.6578947 C11.5151304,13.6578947 11.826087,13.9755 11.826087,14.3684211 L11.826087,15.7894737 C11.826087,16.1823947 11.5151304,16.5 11.1304348,16.5 Z M5.56521739,26.4473684 L4.17391304,26.4473684 C3.78921739,26.4473684 3.47826087,26.1297632 3.47826087,25.7368421 L3.47826087,24.3157895 C3.47826087,23.9228684 3.78921739,23.6052632 4.17391304,23.6052632 L5.56521739,23.6052632 C5.94991304,23.6052632 6.26086957,23.9228684 6.26086957,24.3157895 L6.26086957,25.7368421 C6.26086957,26.1297632 5.94991304,26.4473684 5.56521739,26.4473684 Z M5.56521739,21.4736842 L4.17391304,21.4736842 C3.78921739,21.4736842 3.47826087,21.1560789 3.47826087,20.7631579 L3.47826087,19.3421053 C3.47826087,18.9498947 3.78921739,18.6315789 4.17391304,18.6315789 L5.56521739,18.6315789 C5.94991304,18.6315789 6.26086957,18.9498947 6.26086957,19.3421053 L6.26086957,20.7631579 C6.26086957,21.1560789 5.94991304,21.4736842 5.56521739,21.4736842 Z M15.3043478,23.6052632 L16.6956522,23.6052632 C17.0803478,23.6052632 17.3913043,23.9228684 17.3913043,24.3157895 L17.3913043,25.7368421 C17.3913043,26.1297632 17.0803478,26.4473684 16.6956522,26.4473684 L15.3043478,26.4473684 C14.9196522,26.4473684 14.6086957,26.1297632 14.6086957,25.7368421 L14.6086957,24.3157895 C14.6086957,23.9228684 14.9196522,23.6052632 15.3043478,23.6052632 Z" id="Shape"></path>
        </g>
    </g>
</svg>