<?xml version="1.0" encoding="UTF-8"?>
<svg width="32px" height="32px" viewBox="0 0 32 32" version="1.1" xmlns="http://www.w3.org/2000/svg" xmlns:xlink="http://www.w3.org/1999/xlink">
    <!-- Generator: Sketch 43.2 (39069) - http://www.bohemiancoding.com/sketch -->
    <title>Data-sim</title>
    <desc>Created with Sketch.</desc>
    <defs></defs>
    <g id="Page-1" stroke="none" stroke-width="1" fill="none" fill-rule="evenodd">
        <g id="Data-sim" stroke="#000000">
            <path d="M3.6221211,31.0663821 C2.8750326,31.8056166 1.67077432,31.8013742 0.928912598,31.0568945 C0.187050878,30.3124148 0.187050878,29.108149 0.928912598,28.3636693 C1.67077432,27.6191896 2.8750326,27.6149472 3.6221211,28.3541818 C3.98426499,28.7125185 4.18803842,29.2008181 4.18803842,29.7102819 C4.18803842,30.2197457 3.98426499,30.7080453 3.6221211,31.0663821 L3.6221211,31.0663821 Z" id="Path" stroke-width="0.7"></path>
            <path d="M9.45254699,29.8204033 L9.43373231,30.6030938 C9.39452142,31.1550336 8.9146427,31.5911224 8.34532517,31.5767189 C7.77600763,31.5623154 7.31879447,31.1025185 7.30759935,30.5331289 L7.30766698,29.7497927 C7.37551731,27.0351837 5.22318924,24.7722474 2.49986215,24.7037604 L1.39048522,24.6736749 C0.876762083,24.60591 0.470839993,24.1307203 0.486978006,23.5776265 C0.50311602,23.0245328 0.936053857,22.5738192 1.48805111,22.5354507 L2.0970141,22.5549583 L2.57761054,22.5551079 C6.34385429,22.6482145 9.37695698,25.6955349 9.45251599,29.4708132 C9.4547814,29.5046914 9.4547814,29.4981867 9.4556564,29.4917711 L9.45244591,29.6820599 C9.45592443,29.7400675 9.45592443,29.7708068 9.45352083,29.8014047 L9.45254699,29.8204033 Z" id="Path" stroke-width="0.7"></path>
            <path d="M14.1335372,30.6952479 L14.129836,30.7102931 C14.1199583,31.2360887 13.6857093,31.6543229 13.1599136,31.6444452 C12.6341179,31.6345676 12.2158837,31.2003185 12.2257614,30.6745229 L12.2483031,29.7204288 C12.1900251,24.30583 7.90338683,19.8991659 2.50450415,19.6916784 L2.46472248,19.6914202 L1.2671446,19.6689041 C0.778992436,19.6341834 0.389675416,19.2080125 0.399952236,18.700778 C0.410229056,18.1935436 0.816488366,17.7834914 1.32360543,17.7685016 L2.52381597,17.7986513 L2.62276576,17.7987579 C8.83863235,18.0531527 13.8415717,23.0259348 14.1339221,29.2544436 C14.1417121,29.3405022 14.1417121,29.4102592 14.1351136,29.479546 L14.1335372,30.0433017 L14.1335372,30.6952479 Z" id="Path" stroke-width="0.7"></path>
            <path d="M17.5348071,31.4623987 L17.5348071,30.9464061 C17.5373033,30.8770868 17.5315567,30.8129795 17.5166768,30.7026936 C17.5160219,30.6978448 17.5160219,30.6978448 17.5153838,30.6931297 C17.5070153,30.6312989 17.5047037,30.6086248 17.5047037,30.5926902 C17.7906499,21.3522122 10.7826163,14.3028855 1.32862747,14.5104965 L1.21919097,14.510376 L0.5,14.4947685 L0.5,2.2841295 C0.503226513,1.30087056 1.30084265,0.503254418 2.28574095,0.500025217 L29.6970837,0.500027905 L29.6995495,0.500021825 C30.175228,0.497676006 30.6323133,0.684592775 30.9700498,1.01956992 C31.3077862,1.35454706 31.4984463,1.81008368 31.5000027,2.28576546 L31.5,29.678297 C31.4967735,30.6615559 30.6991573,31.459172 29.7142591,31.4624012 L17.5348071,31.4623987 Z" id="Path"></path>
            <path d="M23.4543744,11.1307899 C23.452301,11.7652527 22.9373824,12.2784885 22.3029163,12.2784851 L9.67826905,12.2784851 C9.0438029,12.2784885 8.52888433,11.7652527 8.52681091,11.1307899 L8.52681091,6.31047005 C8.52888433,5.67600729 9.0438029,5.16277146 9.67826905,5.16277485 L22.3029163,5.16277485 C22.9373824,5.16277146 23.452301,5.67600729 23.4543744,6.31047005 L23.4543744,11.1307899 L23.4543744,11.1307899 Z" id="Path"></path>
        </g>
    </g>
</svg>