<?xml version="1.0" encoding="UTF-8"?>
<svg width="32px" height="32px" viewBox="0 0 32 32" version="1.1" xmlns="http://www.w3.org/2000/svg" xmlns:xlink="http://www.w3.org/1999/xlink">
    <!-- Generator: Sketch 43.2 (39069) - http://www.bohemiancoding.com/sketch -->
    <title>data-usage</title>
    <desc>Created with Sketch.</desc>
    <defs></defs>
    <g id="Page-1" stroke="none" stroke-width="1" fill="none" fill-rule="evenodd">
        <g id="data-usage" fill-rule="nonzero" fill="#000000">
            <path d="M29.4020418,21.680349 L30.56,22.3517588 C31.52,20.4221106 32,18.1708543 32,15.758794 C32,7.55778894 25.76,0.804020101 17.6,0 L17.6,1.47664556 C24.9033348,2.22723921 30.6,8.39835587 30.6,15.9 C30.6,17.9546012 30.1726705,19.9093943 29.4020418,21.680349 Z M27.5213763,24.5728892 L28.96,25.4070352 C25.92,29.4271357 21.28,32 16,32 C7.2,32 0,24.7638191 0,15.919598 C0,7.55778894 6.24,0.64321608 14.4,0 L14.4,1.47664556 C7.09666517,2.22723921 1.39999998,8.39835587 1.39999998,15.9 C1.39999998,23.9081288 7.8918711,30.4 15.9,30.4 C20.6560331,30.4 24.8772548,28.1102001 27.5213763,24.5728892 Z M24.312,13.352 C24.4146672,13.1979992 24.5466659,13.1686662 24.708,13.264 L24.994,13.44 L20.913,19.974 C20.8323329,20.0913339 20.7333339,20.1170003 20.616,20.051 L20.253,19.831 L24.312,13.352 Z M21.045,15.343 C20.6269979,15.343 20.348334,15.2348344 20.209,15.0185 C20.069666,14.8021656 20,14.5180018 20,14.166 C20,13.8139982 20.069666,13.5316677 20.209,13.319 C20.348334,13.1063323 20.6269979,13 21.045,13 C21.2576677,13 21.4299993,13.0274997 21.562,13.0825 C21.6940007,13.1375003 21.7984996,13.2163328 21.8755,13.319 C21.9525004,13.4216672 22.0056665,13.5444993 22.035,13.6875 C22.0643335,13.8305007 22.079,13.9899991 22.079,14.166 C22.079,14.3420009 22.0643335,14.5014993 22.035,14.6445 C22.0056665,14.7875007 21.9525004,14.9121661 21.8755,15.0185 C21.7984996,15.1248339 21.6940007,15.2054997 21.562,15.2605 C21.4299993,15.3155003 21.2576677,15.343 21.045,15.343 Z M21.045,13.418 C20.8983326,13.418 20.7828338,13.4363332 20.6985,13.473 C20.6141662,13.5096669 20.5518335,13.5609997 20.5115,13.627 C20.4711665,13.6930003 20.4455001,13.7718329 20.4345,13.8635 C20.4234999,13.9551671 20.418,14.0559995 20.418,14.166 C20.418,14.2760006 20.4234999,14.3768329 20.4345,14.4685 C20.4455001,14.5601671 20.4711665,14.6389997 20.5115,14.705 C20.5518335,14.7710003 20.6141662,14.8223332 20.6985,14.859 C20.7828338,14.8956669 20.8983326,14.914 21.045,14.914 C21.184334,14.914 21.2943329,14.8956669 21.375,14.859 C21.4556671,14.8223332 21.5179998,14.7710003 21.562,14.705 C21.6060002,14.6389997 21.6334999,14.5601671 21.6445,14.4685 C21.6555001,14.3768329 21.661,14.2760006 21.661,14.166 C21.661,14.0559995 21.6555001,13.9551671 21.6445,13.8635 C21.6334999,13.7718329 21.6060002,13.6930003 21.562,13.627 C21.5179998,13.5609997 21.4556671,13.5096669 21.375,13.473 C21.2943329,13.4363332 21.184334,13.418 21.045,13.418 Z M24.235,19.952 C23.8169979,19.952 23.538334,19.8438344 23.399,19.6275 C23.259666,19.4111656 23.19,19.1270018 23.19,18.775 C23.19,18.4229982 23.259666,18.1406677 23.399,17.928 C23.538334,17.7153323 23.8169979,17.609 24.235,17.609 C24.4476677,17.609 24.6199993,17.6364997 24.752,17.6915 C24.8840007,17.7465003 24.9884996,17.8253328 25.0655,17.928 C25.1425004,18.0306672 25.1956665,18.1534993 25.225,18.2965 C25.2543335,18.4395007 25.269,18.5989991 25.269,18.775 C25.269,18.9510009 25.2543335,19.1104993 25.225,19.2535 C25.1956665,19.3965007 25.1425004,19.5211661 25.0655,19.6275 C24.9884996,19.7338339 24.8840007,19.8144997 24.752,19.8695 C24.6199993,19.9245003 24.4476677,19.952 24.235,19.952 Z M24.235,18.027 C24.0883326,18.027 23.9728338,18.0453331 23.8885,18.082 C23.8041662,18.1186668 23.7418335,18.1699997 23.7015,18.236 C23.6611665,18.3020003 23.6355001,18.3808329 23.6245,18.4725 C23.6134999,18.5641671 23.608,18.6649994 23.608,18.775 C23.608,18.8850005 23.6134999,18.9858329 23.6245,19.0775 C23.6355001,19.1691671 23.6611665,19.2479997 23.7015,19.314 C23.7418335,19.3800003 23.8041662,19.4313331 23.8885,19.468 C23.9728338,19.5046668 24.0883326,19.523 24.235,19.523 C24.374334,19.523 24.4843329,19.5046668 24.565,19.468 C24.6456671,19.4313331 24.7079998,19.3800003 24.752,19.314 C24.7960002,19.2479997 24.8234999,19.1691671 24.8345,19.0775 C24.8455001,18.9858329 24.851,18.8850005 24.851,18.775 C24.851,18.6649994 24.8455001,18.5641671 24.8345,18.4725 C24.8234999,18.3808329 24.7960002,18.3020003 24.752,18.236 C24.7079998,18.1699997 24.6456671,18.1186668 24.565,18.082 C24.4843329,18.0453331 24.374334,18.027 24.235,18.027 Z M9.52,17.112 C9.19199836,17.112 8.8780015,17.0740004 8.578,16.998 C8.2779985,16.9219996 8.01000118,16.7920009 7.774,16.608 C7.53799882,16.4239991 7.3500007,16.1780015 7.21,15.87 C7.0699993,15.5619985 7,15.1720024 7,14.7 C7,14.2759979 7.0599994,13.8960017 7.18,13.56 C7.3000006,13.2239983 7.46799892,12.9400012 7.684,12.708 C7.90000108,12.4759988 8.15599852,12.3000006 8.452,12.18 C8.74800148,12.0599994 9.07199824,12 9.424,12 C10.0000029,12 10.4579983,12.0779992 10.798,12.234 C11.1380017,12.3900008 11.3959991,12.6199985 11.572,12.924 C11.7480009,13.2280015 11.8619997,13.6059977 11.914,14.058 C11.9660003,14.5100023 11.992,15.0279971 11.992,15.612 L11.992,16.476 C11.992,16.9960026 11.9680002,17.455998 11.92,17.856 C11.8719998,18.256002 11.7540009,18.6199984 11.566,18.948 C11.3779991,19.2760016 11.0980019,19.5459989 10.726,19.758 C10.3539981,19.9700011 9.84400324,20.076 9.196,20.076 C9.01199908,20.076 8.82200098,20.0580002 8.626,20.022 C8.42999902,19.9859998 8.24400088,19.9440002 8.068,19.896 C7.89199912,19.8479998 7.71200092,19.7880004 7.528,19.716 C7.59200032,19.4439986 7.65199972,19.2000011 7.708,18.984 C7.75600024,18.775999 7.83399946,18.6560002 7.942,18.624 C8.05000054,18.5919998 8.16799936,18.5919998 8.296,18.624 C8.35200028,18.6400001 8.4699991,18.6679998 8.65,18.708 C8.8300009,18.7480002 9.02399896,18.772 9.232,18.78 C9.50400136,18.78 9.72599914,18.7500003 9.898,18.69 C10.0700009,18.6299997 10.2099995,18.5540005 10.318,18.462 C10.4260005,18.3699995 10.5119997,18.2480008 10.576,18.096 C10.6400003,17.9439992 10.6779999,17.8040006 10.69,17.676 C10.7020001,17.5479994 10.708,17.280002 10.708,16.872 C10.6039995,16.9360003 10.450001,16.9919998 10.246,17.04 C10.041999,17.0880002 9.8000014,17.112 9.52,17.112 Z M9.472,13.188 C9.06399796,13.188 8.7700009,13.3039988 8.59,13.536 C8.4099991,13.7680012 8.32,14.1119977 8.32,14.568 C8.32,14.7200008 8.32799992,14.8739992 8.344,15.03 C8.36000008,15.1860008 8.40599962,15.3259994 8.482,15.45 C8.55800038,15.5740006 8.67399922,15.6759996 8.83,15.756 C8.98600078,15.8360004 9.20799856,15.876 9.496,15.876 C9.6560008,15.876 9.80799928,15.8640001 9.952,15.84 C10.0960007,15.8159999 10.2299994,15.7880002 10.354,15.756 C10.4780006,15.7239998 10.5959994,15.6800003 10.708,15.624 L10.708,14.496 C10.708,14.3279992 10.6900002,14.1660008 10.654,14.01 C10.6179998,13.8539992 10.5540005,13.7160006 10.462,13.596 C10.3699995,13.4759994 10.2440008,13.3780004 10.084,13.302 C9.9239992,13.2259996 9.72000124,13.188 9.472,13.188 Z M15.712,20.052 C15.119997,20.052 14.6460018,19.9460011 14.29,19.734 C13.9339982,19.5219989 13.6620009,19.2340018 13.474,18.87 C13.2859991,18.5059982 13.1600003,18.0640026 13.096,17.544 C13.0319997,17.0239974 13,16.4880028 13,15.936 C13,15.3839972 13.0399996,14.8580025 13.12,14.358 C13.2000004,13.8579975 13.339999,13.4360017 13.54,13.092 C13.740001,12.7479983 14.0159982,12.480001 14.368,12.288 C14.7200018,12.095999 15.1679973,12 15.712,12 C16.2960029,12 16.7659982,12.095999 17.122,12.288 C17.4780018,12.480001 17.751999,12.7479983 17.944,13.092 C18.136001,13.4360017 18.2679996,13.8579975 18.34,14.358 C18.4120004,14.8580025 18.448,15.3839972 18.448,15.936 C18.448,16.4880028 18.4260002,17.0239974 18.382,17.544 C18.3379998,18.0640026 18.2280009,18.5059982 18.052,18.87 C17.8759991,19.2340018 17.6060018,19.5219989 17.242,19.734 C16.8779982,19.9460011 16.3680033,20.052 15.712,20.052 Z M15.712,13.188 C15.4159985,13.188 15.1780009,13.2459994 14.998,13.362 C14.8179991,13.4780006 14.6800005,13.6459989 14.584,13.866 C14.4879995,14.0860011 14.4240002,14.3779982 14.392,14.742 C14.3599998,15.1060018 14.344,15.5039978 14.344,15.936 C14.344,16.4080024 14.3599998,16.8299981 14.392,17.202 C14.4240002,17.5740019 14.4879995,17.8739989 14.584,18.102 C14.6800005,18.3300011 14.8179991,18.4979995 14.998,18.606 C15.1780009,18.7140005 15.4159985,18.768 15.712,18.768 C16.0080015,18.768 16.2479991,18.7160005 16.432,18.612 C16.6160009,18.5079995 16.7579995,18.3460011 16.858,18.126 C16.9580005,17.9059989 17.0239998,17.6060019 17.056,17.226 C17.0880002,16.8459981 17.104,16.4160024 17.104,15.936 C17.104,15.5119979 17.0880002,15.1180018 17.056,14.754 C17.0239998,14.3899982 16.9580005,14.0960011 16.858,13.872 C16.7579995,13.6479989 16.6160009,13.4780006 16.432,13.362 C16.2479991,13.2459994 16.0080015,13.188 15.712,13.188 Z" id="Combined-Shape"></path>
        </g>
    </g>
</svg>