<?xml version="1.0" encoding="UTF-8"?>
<svg width="32px" height="32px" viewBox="0 0 32 32" version="1.1" xmlns="http://www.w3.org/2000/svg" xmlns:xlink="http://www.w3.org/1999/xlink">
    <!-- Generator: Sketch 43.2 (39069) - http://www.bohemiancoding.com/sketch -->
    <title>desktop</title>
    <desc>Created with Sketch.</desc>
    <defs></defs>
    <g id="Page-1" stroke="none" stroke-width="1" fill="none" fill-rule="evenodd">
        <g id="desktop" fill-rule="nonzero" fill="#0A0A0A">
            <path d="M30.7301587,0 L1.26984127,0 C0.558730159,0 0,0.564202433 0,1.28227826 L0,26.285819 C0,27.0038949 0.558730159,27.5680973 1.26984127,27.5680973 L12.5714286,27.5680973 L12.2920635,30.1839449 C12.2920635,30.2608816 12.2412698,30.414755 12.1396825,30.4916917 L11.4031746,31.0815397 C11.2,31.2354131 11.1238095,31.5175143 11.2253968,31.7483244 C11.3015873,32.0047801 11.5301587,32.1586535 11.8095238,32.1586535 L20.2666667,32.1586535 C20.5206349,32.1586535 20.7238095,32.0047801 20.8253968,31.7483244 C20.9015873,31.4918688 20.8253968,31.2354131 20.6222222,31.0815397 L19.8857143,30.4916917 C19.784127,30.414755 19.7333333,30.3121728 19.7079365,30.1839449 L19.4031746,27.5680973 L30.7301587,27.5680973 C31.4412698,27.5680973 32,27.0038949 32,26.285819 L32,1.28227826 C32,0.564202433 31.4412698,0 30.7301587,0 Z M19.2343415,30.9067312 L20.200065,31.3711543 C20.2666667,31.3913466 20.2666667,31.4317312 20.2666667,31.4519235 C20.2666667,31.4519235 20.2333659,31.4923081 20.1667642,31.4923081 L11.8748618,31.4923081 C11.7749593,31.4923081 11.7749593,31.4519235 11.7416585,31.4317312 C11.7416585,31.4115389 11.7083577,31.3711543 11.7749593,31.3509619 L12.7406829,30.9067312 C13.0070894,30.8057696 13.1735935,30.6442312 13.2068943,30.4019235 L13.2068943,27.6153846 L18.6666667,27.6153846 L18.7681301,30.4019235 C18.8014309,30.6038466 18.967935,30.765385 19.2343415,30.9067312 Z M30.9333333,25.9326923 C30.9333333,26.2759615 30.615082,26.5384615 30.1989071,26.5384615 L19.2314754,26.5384615 L12.7440437,26.5384615 L1.8010929,26.5384615 C1.38491803,26.5384615 1.06666667,26.2759615 1.06666667,25.9326923 L1.06666667,21.3076923 L30.9333333,21.3076923 L30.9333333,25.9326923 Z M30.9333333,20.2307692 L1.06666667,20.2307692 L1.06666667,1.81118881 C1.06666667,1.3951049 1.38491803,1.07692308 1.8010929,1.07692308 L30.1989071,1.07692308 C30.615082,1.07692308 30.9333333,1.3951049 30.9333333,1.81118881 L30.9333333,20.2307692 Z M16,25.5422747 C16.8380952,25.5422747 17.5238095,24.8498444 17.5238095,24.0035408 C17.5238095,23.1572371 16.8380952,22.4648069 16,22.4648069 C15.1619048,22.4648069 14.4761905,23.1572371 14.4761905,24.0035408 C14.4761905,24.8498444 15.1619048,25.5422747 16,25.5422747 Z M16,22.9777182 C16.5587302,22.9777182 17.015873,23.4393384 17.015873,24.0035408 C17.015873,24.5677432 16.5587302,25.0293634 16,25.0293634 C15.4412698,25.0293634 14.984127,24.5677432 14.984127,24.0035408 C14.984127,23.4393384 15.4412698,22.9777182 16,22.9777182 Z" id="Combined-Shape"></path>
        </g>
    </g>
</svg>