<?xml version="1.0" encoding="UTF-8"?>
<svg width="32px" height="32px" viewBox="0 0 32 32" version="1.1" xmlns="http://www.w3.org/2000/svg" xmlns:xlink="http://www.w3.org/1999/xlink">
    <!-- Generator: Sketch 43.2 (39069) - http://www.bohemiancoding.com/sketch -->
    <title>Fingerprint</title>
    <desc>Created with Sketch.</desc>
    <defs></defs>
    <g id="Page-1" stroke="none" stroke-width="1" fill="none" fill-rule="evenodd">
        <g id="Fingerprint" fill-rule="nonzero" fill="#000000">
            <path d="M10.1976642,28.9256859 C10.4486747,29.1108194 10.502054,29.464297 10.3169958,29.7152322 C10.2063223,29.8653567 10.0353431,29.9447856 9.86210515,29.9447856 C9.74563447,29.9447856 9.62826033,29.9089485 9.52737428,29.8345638 C8.15419472,28.8218637 7.01546229,27.4871563 6.23434831,25.9748444 C5.42680821,24.4114118 5,22.6487669 5,20.8775392 L5,11.1223855 C5,10.8046697 5.01362715,10.4837919 5.04035442,10.1687865 C5.06678054,9.85807253 5.34037748,9.62784154 5.65079029,9.65396651 C5.96150426,9.68039263 6.1920364,9.95368841 6.16561028,10.2644024 C6.14151809,10.5477115 6.12932142,10.8364413 6.12932142,11.1223855 L6.12932142,20.8775392 C6.12932142,24.0383593 7.65021622,27.0470221 10.1976642,28.9256859 Z M12.8325216,30.3166335 C13.1269734,30.4193265 13.2824433,30.7412583 13.1799009,31.0357101 C13.098665,31.2686514 12.8802543,31.4146351 12.6467106,31.4146351 C12.5850497,31.4146351 12.5223347,31.4044712 12.4608243,31.3830141 C12.0735424,31.2480225 11.6896484,31.0896164 11.3196074,30.9122376 C11.0384063,30.7774719 10.9197523,30.4401813 11.0545933,30.1589802 C11.189359,29.8777039 11.5267249,29.7590499 11.8078507,29.8938908 C12.140097,30.0532004 12.4847659,30.1954197 12.8325216,30.3166335 Z M26.6802609,18.3114951 C26.9921042,18.3114951 27.2449216,18.5642372 27.2448463,18.8761558 L27.2448463,20.8776145 C27.2448463,27.0105074 22.2553537,32 16.1224608,32 C15.6891025,32 15.2525821,31.9748538 14.8248705,31.9250883 C14.5151353,31.8891006 14.293186,31.6088031 14.329249,31.2989926 C14.3652367,30.989182 14.6451578,30.7672327 14.9553447,30.8032957 C15.339841,30.8480169 15.7325437,30.8706786 16.1224608,30.8706786 C21.6327211,30.8706786 26.1156002,26.3877996 26.1156002,20.8776145 L26.1156002,18.8761558 C26.1156002,18.5643125 26.3683423,18.3114951 26.6802609,18.3114951 Z M16.1224608,0 C22.2553537,0 27.2449216,4.98949261 27.2448463,11.1223855 L27.2448463,16.6174377 C27.2448463,16.929281 26.9921042,17.1820984 26.6801856,17.1820984 C26.368267,17.1820984 26.1155249,16.929281 26.1155249,16.6174377 L26.1155249,11.1223855 C26.1155249,5.61220044 21.6326459,1.12932142 16.1224608,1.12932142 C13.9649299,1.12932142 11.9108448,1.80578495 10.1823807,3.08560727 C8.48704339,4.34081038 7.25118932,6.05986345 6.60822899,8.05688016 C6.51261311,8.35374111 6.1945962,8.51681513 5.89765995,8.42134982 C5.60079899,8.32573394 5.43757441,8.00764174 5.53319029,7.71078078 C6.24887891,5.48767393 7.62416654,3.57452816 9.51035917,2.177934 C11.4347982,0.75310681 13.721147,0 16.1224608,0 Z M8.49238884,23.997779 C8.77193354,23.8597759 9.11065468,23.9746656 9.24858247,24.2543608 C9.87249491,25.518975 10.8329451,26.5882918 12.0259603,27.3466687 C13.2508223,28.1252982 14.6673678,28.5368229 16.1224608,28.5368229 C17.2236245,28.5368229 18.2869182,28.307119 19.2827539,27.8541105 C19.5666653,27.7248408 19.9013961,27.8504214 20.0305905,28.1342575 C20.1597096,28.4180936 20.0342796,28.7528998 19.7503682,28.8820189 C18.6066668,29.4023349 17.3860962,29.6661444 16.1224608,29.6661444 C14.4524203,29.6661444 12.8264233,29.1936363 11.4201923,28.2997407 C10.0525087,27.4303891 8.95134507,26.2042472 8.23580702,24.7539726 C8.09787923,24.4743526 8.21269357,24.1357821 8.49238884,23.997779 Z M21.5520876,27.6141673 C21.3955636,27.6141673 21.2397926,27.5494196 21.1281403,27.4227097 C20.9220015,27.1887143 20.9446633,26.831924 21.1786586,26.6257852 C22.8328134,25.16881 23.7815939,23.0736929 23.7815939,20.8776145 L23.7815939,11.1224608 C23.7815939,9.48494473 23.2699361,7.92196389 22.3020323,6.60246474 C22.1175012,6.35100251 22.1717839,5.99760019 22.4232461,5.81314436 C22.6747837,5.62868853 23.0281107,5.68297124 23.2124912,5.93443348 C24.3235929,7.44900408 24.9109154,9.24304409 24.9109154,11.1224608 L24.9109154,20.8776145 C24.9109154,23.3978835 23.822626,25.8019076 21.9250648,27.473228 C21.8177793,27.5677899 21.6846699,27.6141673 21.5520876,27.6141673 Z M20.4741879,4.82288005 C20.1015872,4.5645666 19.7042166,4.33847645 19.2931436,4.15070794 C19.0094581,4.02113713 18.8845551,3.6861804 19.0141259,3.40249486 C19.1436967,3.11888461 19.4784276,2.99390637 19.762339,3.12347718 C20.2341695,3.33895171 20.6900389,3.59846977 21.1175247,3.89472842 C21.3738807,4.07240832 21.4375744,4.4241543 21.2599698,4.68051027 C21.1503503,4.83869055 20.9743268,4.92354023 20.795367,4.92354023 C20.6843923,4.92354023 20.5723636,4.8908652 20.4741879,4.82288005 Z M17.5928373,2.45695168 C17.9003139,2.50897575 18.1074314,2.80041597 18.055332,3.10789255 C18.003308,3.41529384 17.7127712,3.62241138 17.4043912,3.5704626 C16.9837566,3.49931535 16.5524311,3.46325235 16.1224608,3.46325235 C11.8992504,3.46325235 8.46332764,6.89917512 8.46332764,11.1224608 L8.46332764,20.607782 C8.46332764,20.9196253 8.21051022,21.1724427 7.89866693,21.1724427 C7.58682364,21.1724427 7.33400622,20.9196253 7.33400622,20.607782 L7.33400622,11.1224608 C7.33400622,6.27646729 11.2765426,2.33393093 16.1224608,2.33393093 C16.6153719,2.33393093 17.11009,2.37533938 17.5928373,2.45695168 Z M10.7721123,7.51533289 C11.9777006,5.73236023 13.9778041,4.66786187 16.1224608,4.66786187 C19.6814796,4.66786187 22.5769844,7.5633667 22.5769844,11.1224608 L22.5769844,17.445682 C22.5769844,17.7575253 22.3242423,18.0103427 22.0123237,18.0103427 C21.7004051,18.0103427 21.447663,17.7575253 21.447663,17.445682 L21.447663,11.1224608 C21.447663,8.18607453 19.0587718,5.79718328 16.1224608,5.79718328 C14.3532659,5.79718328 12.7028755,6.67594592 11.7076422,8.14790346 C11.5329738,8.40621691 11.1819054,8.4739762 10.923592,8.29938311 C10.6652785,8.12471473 10.597444,7.77364634 10.7721123,7.51533289 Z M10.2325979,13.0412532 C9.92075457,13.0412532 9.66793715,12.7884357 9.66793715,12.4765925 L9.66793715,11.1224608 C9.66793715,10.8106175 9.92075457,10.5578001 10.2325979,10.5578001 C10.5444412,10.5578001 10.7972586,10.8106175 10.7972586,11.1224608 L10.7972586,12.4765925 C10.7972586,12.7884357 10.5444412,13.0412532 10.2325979,13.0412532 Z M9.66793715,20.8776145 L9.66793715,20.8776145 L9.66793715,14.7353859 C9.66793715,14.4235426 9.92075457,14.1707252 10.2325979,14.1707252 C10.5444412,14.1707252 10.7972586,14.4235426 10.7972586,14.7353859 L10.7972586,20.8776898 C10.7972586,22.8046886 11.8462476,24.5876612 13.5348843,25.5308705 C13.8072013,25.6829524 13.9046241,26.0269437 13.7525421,26.2991855 C13.6491716,26.4843189 13.4569611,26.5885929 13.2590287,26.5885929 C13.165822,26.5885929 13.0714108,26.5654795 12.9842271,26.5167681 C10.9386496,25.3741959 9.66793715,23.2134276 9.66793715,20.8776145 Z M22.5770597,20.8776145 C22.5770597,24.4366333 19.6815549,27.3321381 16.1225361,27.3322134 C15.6029729,27.3322134 15.0855179,27.2698749 14.5846262,27.1470047 C14.2817422,27.0726954 14.0964582,26.7669504 14.1707675,26.4640664 C14.2450769,26.1611824 14.5506712,25.9758984 14.8537058,26.0502077 C15.2665857,26.1515455 15.6935445,26.202892 16.1225361,26.202892 C19.0588471,26.202892 21.4477383,23.8139255 21.4477383,20.8776145 L21.4477383,19.854901 C21.4477383,19.5430577 21.7004804,19.2902403 22.012399,19.2902403 C22.3243176,19.2902403 22.5770597,19.5430577 22.5770597,19.854901 L22.5770597,20.8776145 Z M20.2431288,11.182089 L20.2431288,16.5422249 C20.2431288,16.8540681 19.9903867,17.1068856 19.6784681,17.1068856 C19.3665495,17.1068856 19.1138074,16.8540681 19.1138074,16.5422249 L19.1138074,11.1821643 C19.1138074,9.53079518 17.7978468,8.16235878 16.1804326,8.13171652 C15.3744736,8.11673419 14.6074385,8.42052165 14.0288495,8.98826917 C13.4499593,9.55624256 13.1311895,10.3141678 13.1311895,11.1224608 L13.1311895,20.8776145 C13.1311895,21.1894578 12.8783721,21.4422752 12.5665288,21.4422752 C12.2546855,21.4422752 12.0018681,21.1894578 12.0018681,20.8776145 L12.0018681,11.1224608 C12.0018681,10.0084981 12.4407977,8.96425227 13.2378727,8.18215954 C14.0346466,7.40029268 15.0859696,6.98146501 16.2018897,7.00254568 C18.4302668,7.0447823 20.2431288,8.91968172 20.2431288,11.182089 Z M14.335799,21.5314163 L14.335799,16.692801 C14.335799,16.3809578 14.5886164,16.1281403 14.9004597,16.1281403 C15.212303,16.1281403 15.4651204,16.3809578 15.4651204,16.692801 L15.4651204,21.5314163 C15.4651204,22.5374158 16.283502,23.3557974 17.2894263,23.3557974 C18.2953505,23.3557974 19.1137321,22.5373405 19.1137321,21.5314163 L19.1137321,18.8007924 C19.1137321,18.4889491 19.3664742,18.2361317 19.6783928,18.2361317 C19.9903114,18.2361317 20.2430535,18.4889491 20.2430535,18.8007924 L20.2430535,21.5314163 C20.2430535,23.1601237 18.9180583,24.4851188 17.2894263,24.4851188 C15.6607942,24.4851188 14.335799,23.1600484 14.335799,21.5314163 Z M17.3445371,21.8789462 C17.0326186,21.8789462 16.7798764,21.6261287 16.7798764,21.3142854 L16.7798764,11.1579215 C16.7798764,10.7933012 16.5001059,10.4828131 16.1562651,10.4658733 C15.9736162,10.456914 15.8016582,10.5210595 15.6699041,10.6464895 C15.5378487,10.7721453 15.4651204,10.9412423 15.4651204,11.1224608 L15.4651204,14.283582 C15.4651204,14.5954253 15.212303,14.8482427 14.9004597,14.8482427 C14.5886164,14.8482427 14.335799,14.5954253 14.335799,14.283582 L14.335799,11.1224608 C14.335799,10.6360997 14.5382487,10.1644951 14.8911993,9.82848431 C15.2491189,9.48780568 15.7174108,9.31358903 16.2118278,9.33790709 C17.1636951,9.38488686 17.9091979,10.1842958 17.9091979,11.1579215 L17.9091979,21.3142854 C17.9091979,21.6261287 17.6564557,21.8789462 17.3445371,21.8789462 Z" id="Combined-Shape"></path>
        </g>
    </g>
</svg>