<?xml version="1.0" encoding="UTF-8"?>
<svg width="32px" height="32px" viewBox="0 0 32 32" version="1.1" xmlns="http://www.w3.org/2000/svg" xmlns:xlink="http://www.w3.org/1999/xlink">
    <!-- Generator: Sketch 43.2 (39069) - http://www.bohemiancoding.com/sketch -->
    <title>ios</title>
    <desc>Created with Sketch.</desc>
    <defs></defs>
    <g id="Page-1" stroke="none" stroke-width="1" fill="none" fill-rule="evenodd">
        <g id="ios" fill="#000000">
            <path d="M15.9034483,7.33333333 C19.0358503,6.69017583 21.2644571,3.88507176 21.2,0.666666667 C18.067598,1.30982417 15.8389912,4.11492824 15.9034483,7.33333333 Z M24.1862069,17.0001502 C24.1625938,19.6313462 25.7374927,22.0100998 28.1586207,23.0001502 C26.6093793,27.8001502 23.9081379,31.6668169 22.2,31.6668169 C19.128,31.6668169 18.5056552,30.3334835 16.2413793,30.3334835 C13.9771034,30.3334835 13.3547586,31.6668169 10.2827586,31.6668169 C7.96551724,31.6668169 3,25.0001502 3,17.6668169 C3,10.3334835 7.89931034,9.00015021 10.2827586,9.00015021 C12.6662069,9.00015021 13.6857931,10.3334835 16.2413793,10.3334835 C18.7969655,10.3334835 19.8165517,9.00015021 22.2,9.00015021 C24.2059213,8.98714985 26.1260367,9.81853312 27.4965517,11.2934835 C25.4684983,12.472353 24.2097519,14.642292 24.1862069,17.0001502 Z" id="Combined-Shape"></path>
        </g>
    </g>
</svg>