<?xml version="1.0" encoding="UTF-8"?>
<svg width="32px" height="32px" viewBox="0 0 32 32" version="1.1" xmlns="http://www.w3.org/2000/svg" xmlns:xlink="http://www.w3.org/1999/xlink">
    <!-- Generator: Sketch 43.2 (39069) - http://www.bohemiancoding.com/sketch -->
    <title>locations</title>
    <desc>Created with Sketch.</desc>
    <defs></defs>
    <g id="Page-1" stroke="none" stroke-width="1" fill="none" fill-rule="evenodd">
        <g id="locations" stroke="#DA3F7B">
            <path d="M15.7399007,30.2746078 C15.2567091,29.8636004 14.5138907,29.2003816 13.6062282,28.3390349 C12.1559497,26.9627607 10.7215032,25.4888028 9.39448685,23.9688395 C5.70074856,19.738035 3.5,15.9204794 3.5,13.0002576 C3.5,6.10822387 9.10822387,0.5 15.9997424,0.5 C22.8920338,0.5 28.5,6.10796623 28.5,13.0002576 C28.5,15.920476 26.2992575,19.7381272 22.6055711,23.9690401 C21.278582,25.4890325 19.8441696,26.9630167 18.393982,28.3392591 C17.4863111,29.2006479 16.7421655,29.8650691 16.2606482,30.2745792 C16.1867856,30.3371814 16.0950893,30.3703304 15.9997424,30.3703304 C15.9051697,30.3703304 15.8131357,30.3370593 15.7403752,30.275012 L15.7399007,30.2746078 Z" id="Fill-1"></path>
            <path d="M15.7235733,19.4471466 C12.0162074,19.4471466 9,16.4309392 9,12.7235733 C9,9.01567325 12.0162074,6 15.7235733,6 C19.4309392,6 22.4482149,9.01567325 22.4482149,12.7235733 C22.4482149,16.4309392 19.4309392,19.4471466 15.7235733,19.4471466" id="Combined-Shape"></path>
        </g>
    </g>
</svg>