<?xml version="1.0" encoding="UTF-8"?>
<svg width="32px" height="32px" viewBox="0 0 32 32" version="1.1" xmlns="http://www.w3.org/2000/svg" xmlns:xlink="http://www.w3.org/1999/xlink">
    <!-- Generator: Sketch 43.2 (39069) - http://www.bohemiancoding.com/sketch -->
    <title>mobile</title>
    <desc>Created with Sketch.</desc>
    <defs></defs>
    <g id="Page-1" stroke="none" stroke-width="1" fill="none" fill-rule="evenodd">
        <g id="mobile" stroke="#fff">
            <path d="M23.1821289,0.5 L9.28662109,0.5 C8.56611328,0.5 8,1.04126984 8,1.73015873 L8,30.2698413 C8,30.9587302 8.56611328,31.5 9.28662109,31.5 L23.1821289,31.5 C23.9026367,31.5 24.46875,30.9587302 24.46875,30.2698413 L24.46875,1.73015873 C24.46875,1.04126984 23.9026367,0.5 23.1821289,0.5 Z" id="Shape"></path>
            <path d="M18.3720238,2.28571429 L13.8184524,2.28571429 C13.6666667,2.28571429 13.5654762,2.38730159 13.5654762,2.53968254 C13.5654762,2.69206349 13.6666667,2.79365079 13.8184524,2.79365079 L18.3720238,2.79365079 C18.5238095,2.79365079 18.625,2.69206349 18.625,2.53968254 C18.625,2.38730159 18.5238095,2.28571429 18.3720238,2.28571429 Z" id="Shape" stroke-width="0.5"></path>
            <path d="M16.0952381,26.8698413 C15.2604167,26.8698413 14.577381,27.5555556 14.577381,28.3936508 C14.577381,29.231746 15.2604167,29.9174603 16.0952381,29.9174603 C16.9300595,29.9174603 17.6130952,29.231746 17.6130952,28.3936508 C17.6130952,27.5555556 16.9300595,26.8698413 16.0952381,26.8698413 Z" id="Shape" stroke-width="0.7"></path>
        </g>
    </g>
</svg>