<?xml version="1.0" encoding="UTF-8"?>
<svg width="32px" height="32px" viewBox="0 0 32 32" version="1.1" xmlns="http://www.w3.org/2000/svg" xmlns:xlink="http://www.w3.org/1999/xlink">
    <!-- Generator: Sketch 43.2 (39069) - http://www.bohemiancoding.com/sketch -->
    <title>mysubscriptions</title>
    <desc>Created with Sketch.</desc>
    <defs></defs>
    <g id="Page-1" stroke="none" stroke-width="1" fill="none" fill-rule="evenodd">
        <g id="mysubscriptions" fill-rule="nonzero" fill="#fff">
            <path d="M11.0122605,2 C9.90739184,2 9.0117188,2.88849076 9.0117188,4.00506712 L9.0117188,8.0214844 L0.5,8.0214844 C0.223869055,8.02151199 2.75923905e-05,8.24535346 0,8.5214844 L0,18.021484 L0,19.021484 L0,25.021484 C0,27.228884 1.7926486,29.021484 4,29.021484 L28,29.021484 C30.207351,29.021484 32,27.228884 32,25.021484 L32,8.5214844 C31.9999724,8.24535346 31.7761309,8.02151199 31.5,8.0214844 L22.974609,8.0214844 L22.974609,4.00506712 C22.974609,2.89769913 22.0799267,2 20.9740673,2 L11.0122605,2 Z M10.011719,3.99208373 C10.011719,3.44417101 10.4660705,3 11.0110921,3 L20.9752359,3 C21.5271744,3 21.974609,3.44562324 21.974609,3.99208373 L21.974609,8.0214844 L21.021484,8.0214844 L21.021484,4.96760914 C21.021484,4.41379713 20.5648407,3.9648438 20.0239479,3.9648438 L11.9975361,3.9648438 C11.4466121,3.9648438 11.0019483,4.41447492 11.0043451,4.96760914 L11.017578,8.0214844 L10.011719,8.0214844 L10.011719,3.99208373 Z M12.017578,4.9648438 L20.021484,4.9648438 L20.021484,8.0214844 L12.017578,8.0214844 L12.017578,4.9648438 Z M1,9.021484 L31,9.021484 L31,18.021484 L23.435547,18.021484 C23.17594,14.120907 19.952786,11.011719 15.980469,11.011719 L15.980469,11.009766 C12.002491,11.009766 8.7769866,14.117864 8.5253906,18.021484 L1,18.021484 L1,9.021484 Z M15.980469,12.009766 C19.582524,12.009766 22.5,14.919066 22.5,18.509766 C22.5,22.102166 19.582541,25.009766 15.980469,25.009766 C12.377241,25.009766 9.5,22.105766 9.5,18.509766 C9.5,14.915466 12.377258,12.009766 15.980469,12.009766 Z M1,19.021484 L8.5253906,19.021484 C8.7889457,22.914768 12.010855,26.009766 15.980469,26.009766 C19.949561,26.009766 23.208613,22.91827 23.474609,19.021484 L31,19.021484 L31,25.021484 C31,26.692184 29.670649,28.021484 28,28.021484 L4,28.021484 C2.3293514,28.021484 1,26.692184 1,25.021484 L1,19.021484 Z M20.368288,18.3591624 L20.3008344,18.2917088 L20.3008344,18.2917088 L19.0838968,17.0710751 C19.0039021,16.99593 18.9712729,16.8831306 18.998797,16.7768838 C19.0263211,16.6706371 19.1096138,16.5878681 19.216032,16.5610147 C19.216032,16.5610147 19.2723974,16.5277499 19.585641,16.569331 C20.0282478,16.6266203 20.3766042,15.7709756 19.5255795,15.0095811 C18.8787638,14.3969542 17.8798956,14.5226213 17.9686018,15.1019833 C18.0009425,15.3098884 17.9482733,15.3791901 17.9482733,15.3791901 C17.9043993,15.4659968 17.8212006,15.526179 17.7250233,15.540679 C17.628846,15.555179 17.5316021,15.5222009 17.4640855,15.4521878 L16.8921156,14.881142 L16.1861625,14.1696447 C15.9550779,13.9456153 15.5885933,13.9431721 15.3545423,14.1641006 L15.3295937,14.1890492 L15.3295937,14.1890492 L14.065531,15.45958 C13.9933998,15.5255071 13.9577307,15.6223276 13.9698514,15.7192935 C13.9819722,15.8162593 14.0403765,15.9013207 14.1265165,15.9474639 C14.2476105,16.0008985 14.3797099,16.0246574 14.5118338,16.0167655 C15.0995121,16.0167655 15.2676842,16.8881187 14.6042361,17.5543389 C13.9795969,18.178978 13.0916114,18.1032082 13.0102974,17.5219981 C12.9650203,17.2013623 12.9372996,17.1671735 12.9372996,17.1671735 C12.8972675,17.0774303 12.8158611,17.0129501 12.7193361,16.9945293 C12.622811,16.9761084 12.52338,17.0060777 12.4531119,17.0747712 L11.1696447,18.3526942 C10.9456153,18.5837788 10.9431721,18.9502635 11.1641006,19.1843144 L12.3145085,20.3365704 L12.3145085,20.3365704 L12.4069107,20.4289726 C12.4869055,20.5041178 12.5195346,20.6169172 12.4920106,20.723164 C12.4644865,20.8294107 12.3811938,20.9121797 12.2747755,20.939033 C12.2747755,20.939033 12.2184102,20.9722978 11.9051666,20.9307168 C11.4625598,20.8734274 11.1142033,21.7290722 11.965228,22.4904667 C12.6120437,23.1030936 13.610912,22.9774265 13.5222058,22.3980645 C13.489865,22.1901594 13.5425343,22.1208577 13.5425343,22.1208577 C13.5864082,22.034051 13.6696069,21.9738688 13.7657843,21.9593688 C13.8619616,21.9448688 13.9592055,21.9778468 14.0267221,22.04786 L14.0590628,22.0802007 L14.0590628,22.0802007 L14.066455,22.0866689 L14.2364751,22.255765 L14.2364751,22.255765 L14.6402729,22.6595628 L14.6402729,22.6595628 L15.3489982,23.368288 C15.5800827,23.5923174 15.9465674,23.5947606 16.1806183,23.3738321 L16.7350318,22.8194187 L16.7350318,22.8194187 L16.7498162,22.8046343 L16.7498162,22.8046343 L17.4955023,22.0589482 C17.5676335,21.9930211 17.6033026,21.8962006 17.5911818,21.7992348 C17.5790611,21.7022689 17.5206568,21.6172076 17.4345168,21.5710644 C17.3141408,21.517286 17.1827034,21.4928989 17.0510475,21.4999146 C16.4633692,21.4999146 16.2951971,20.6285615 16.9586452,19.9623413 C17.5832844,19.3377022 18.47127,19.413472 18.5525839,19.9946821 C18.597861,20.3153179 18.6255817,20.3495067 18.6255817,20.3495067 C18.6656138,20.4392499 18.7470202,20.5037301 18.8435452,20.5221509 C18.9400703,20.5405717 19.0395013,20.5106025 19.1097695,20.441909 L19.6493986,19.9022799 L19.6493986,19.9022799 L20.3581238,19.1935547 C20.5852297,18.9633652 20.5897193,18.5948158 20.368288,18.3591624 L20.368288,18.3591624 Z" id="subscription"></path>
        </g>
    </g>
</svg>