<?xml version="1.0" encoding="UTF-8"?>
<svg width="32px" height="32px" viewBox="0 0 32 32" version="1.1" xmlns="http://www.w3.org/2000/svg" xmlns:xlink="http://www.w3.org/1999/xlink">
    <!-- Generator: Sketch 43.2 (39069) - http://www.bohemiancoding.com/sketch -->
    <title>platform</title>
    <desc>Created with Sketch.</desc>
    <defs></defs>
    <g id="Page-1" stroke="none" stroke-width="1" fill="none" fill-rule="evenodd">
        <g id="platform" fill-rule="nonzero" fill="#DA3F7B">
            <path d="M31.3932026,3.63882066 C30.9898562,3.21723646 30.5084967,3 29.9186928,3 L2.09871895,3 C1.50891503,3 1.0105098,3.21723646 0.607215686,3.63882066 C0.212392157,4.05093887 0,4.56108624 0,5.14658717 L0,27.8534128 C0,28.4389138 0.203869281,28.9577249 0.607215686,29.3789882 C1.00162092,29.7914808 1.50891503,30 2.09871895,30 L29.9186405,30 C30.5084444,30 30.9983268,29.7914808 31.3931503,29.3789882 C31.7964444,28.957404 32,28.4389138 32,27.8534128 L32,5.14658717 C32,4.56108624 31.7876078,4.05093887 31.3932026,3.63882066 Z M1.99815183,28.984471 C1.4468878,28.984471 1,28.5399085 1,27.9919303 L1,11 L30.9999443,11 L30.9999443,27.9919303 C30.9999443,28.5400954 30.5525799,28.984471 30.0017925,28.984471 L1.99815183,28.984471 Z M31,10 L1,10 L1,4.99077797 C1,4.44358641 1.44736519,4 1.99815369,4 L30.0018463,4 C30.5531114,4 30.9999951,4.45097388 30.999989,5.00399576 L30.9999443,9.08177778 L31,10 Z M8.27640062,6.27640221 C7.90379931,6.63201005 7.91195617,7.24769632 8.27640062,7.64659828 C8.67530258,8.01067672 9.29098885,8.01919959 9.6465967,7.64659828 C10.019564,7.25585319 10.0106751,6.64053293 9.6465967,6.27640221 C9.28209997,5.91232377 8.66714572,5.90343489 8.27640062,6.27640221 Z M6.27640221,6.26987221 C5.91232377,6.63395064 5.90343489,7.24932319 6.27640221,7.64006829 C6.63201005,8.01266959 7.26510809,8.00414672 7.62918652,7.64006829 C8.02803619,7.24121861 8.01993162,6.64289182 7.62918652,6.26987221 C7.25653293,5.91431665 6.64048064,5.90579378 6.27640221,6.26987221 Z M4.27640221,6.26987221 C4.64084665,5.90579378 5.25658521,5.91431665 5.62918652,6.26987221 C6.01993162,6.64289182 6.02803619,7.24121861 5.62918652,7.64006829 C5.2650558,8.00414672 4.63195776,8.01266959 4.27640221,7.64006829 C3.90343489,7.24932319 3.91232377,6.63395064 4.27640221,6.26987221 Z M17.0174118,23.267085 C17.0721569,23.0077386 17.2106144,22.802719 17.4336732,22.6602353 L21.2666667,20.2147974 L17.4336732,17.7693595 C17.2105098,17.6269281 17.0721569,17.4219085 17.0174118,17.1621438 C17.0026144,17.0919216 17,17.0234248 17,16.9712418 C17,16.7807059 17.0554771,16.6093595 17.1561307,16.4510327 C17.2982484,16.2275556 17.4847059,16.0821438 17.7459346,16.0347712 L17.9365229,16 C18.1274248,16 18.2954248,16.0599739 18.4741438,16.1735425 L23.5559216,19.3996863 C23.8526536,19.5880784 24.0069542,19.8507712 24.0069542,20.2148497 C24.0069542,20.5441569 23.8733595,20.8120784 23.5906928,20.9952418 L18.4741438,24.3079216 C18.3242876,24.4048627 18.1448366,24.4466928 17.9365229,24.4466928 C17.6072157,24.4466928 17.3433725,24.3101699 17.1561307,24.0130196 C17.0485229,23.8417255 17,23.6489412 17,23.4579869 C17,23.4058562 17.0026144,23.3370458 17.0174118,23.267085 Z M8.4336732,21.0007338 C8.13950327,20.8086815 8.00005229,20.5496489 8,20.2206554 C8,19.856577 8.13652288,19.5927338 8.4336732,19.405492 L13.5502222,16.1793482 C13.9838954,15.849675 14.5829542,15.9932044 14.8682353,16.4568384 C15.1383007,16.894956 15.0073203,17.498041 14.5736993,17.7748515 L10.7403399,20.2202894 L14.5736993,22.6657273 C15.0073725,22.9424855 15.1531503,23.5545116 14.8682353,24.0185116 C14.6847059,24.317858 14.4175686,24.4521848 14.0530719,24.4521848 C13.8451242,24.4521848 13.6649412,24.4110868 13.515451,24.3134136 L8.4336732,21.0007338 Z" id="Combined-Shape"></path>
        </g>
    </g>
</svg>