<?xml version="1.0" encoding="UTF-8"?>
<svg width="32px" height="32px" viewBox="0 0 32 32" version="1.1" xmlns="http://www.w3.org/2000/svg" xmlns:xlink="http://www.w3.org/1999/xlink">
    <!-- Generator: Sketch 43.2 (39069) - http://www.bohemiancoding.com/sketch -->
    <title>postpaid</title>
    <desc>Created with Sketch.</desc>
    <defs></defs>
    <g id="Page-1" stroke="none" stroke-width="1" fill="none" fill-rule="evenodd">
        <g id="postpaid">
            <path d="M29.7139544,0.5 C30.6990911,0.503644342 31.4967724,1.30158145 31.5000027,2.28681582 L31.5,29.7148235 C31.4967715,30.6986753 30.6986753,31.4967715 29.7131842,31.5000027 L2.28517647,31.5 C1.30132469,31.4967715 0.503228457,30.6986753 0.499997313,29.7131842 L0.5,2.28517647 C0.503228457,1.30132469 1.30132469,0.503228457 2.28681582,0.499997313 L29.7139544,0.5 Z" id="Shape" stroke="#000000"></path>
            <path d="M12.973261,1.87541644 L19.5067385,1.87541644 C20.1077985,1.87541644 20.5950538,2.36267179 20.5950538,2.96373172 C20.5950538,3.56479165 20.1077985,4.052047 19.5067385,4.052047 L12.973261,4.052047 C12.3722011,4.052047 11.8849457,3.56479165 11.8849457,2.96373172 C11.8849457,2.36267179 12.3722011,1.87541644 12.973261,1.87541644 L12.973261,1.87541644 Z" id="Shape" stroke="#000000"></path>
            <path d="M22.0201785,9.02084678 C23.1213634,9.02436659 24.0162316,9.90854589 24.0307153,11.0073685 L24.0307153,13.3812618 L19.8105785,13.3812618 L19.8105785,9.00760331 L22.0201785,9.00760331 L22.0201785,9.02084678 Z" id="Shape" fill="#1D1D1B"></path>
            <path d="M9.82111539,26.3945053 C8.71993043,26.3909855 7.82506221,25.5068062 7.81057851,24.4079837 L7.81057851,22.0076033 L11.728803,22.0076033 L11.728803,26.377951 L9.83106855,26.377951 L9.82111539,26.3945053 Z" id="Shape" fill="#1D1D1B"></path>
            <polygon id="Shape" fill="#1D1D1B" points="7.81057851 20.0798553 7.81057851 15.0076033 11.7155322 15.0076033 11.7155322 20.0798553"></polygon>
            <path d="M11.7155322,13.3613966 L7.81057851,13.3613966 L7.81057851,10.994125 C7.82506221,9.89530242 8.71993043,9.01112311 9.82111539,9.00760331 L11.7155322,9.00760331 L11.7155322,13.377951 L11.7155322,13.3613966 Z" id="Shape" fill="#1D1D1B"></path>
            <polygon id="Shape" fill="#1D1D1B" points="12.8105785 26.2241244 12.8105785 9.00760331 17.856827 9.00760331 17.856827 26.2241244"></polygon>
            <polygon id="Shape" fill="#1D1D1B" points="24.0406685 15.0076033 24.0406685 19.934177 19.8105785 19.934177 19.8105785 15.0076033"></polygon>
            <path d="M22.0268139,26.3613966 L19.8105785,26.3613966 L19.8105785,22.0076033 L24.0373508,22.0076033 L24.0373508,24.374875 C24.0228671,25.4736975 23.1279988,26.3578768 22.0268139,26.3613966 Z" id="Shape" fill="#1D1D1B"></path>
        </g>
    </g>
</svg>