<?xml version="1.0" encoding="UTF-8"?>
<svg width="32px" height="32px" viewBox="0 0 32 32" version="1.1" xmlns="http://www.w3.org/2000/svg" xmlns:xlink="http://www.w3.org/1999/xlink">
    <!-- Generator: Sketch 43.2 (39069) - http://www.bohemiancoding.com/sketch -->
    <title>prepaid-transfer</title>
    <desc>Created with Sketch.</desc>
    <defs></defs>
    <g id="Page-1" stroke="none" stroke-width="1" fill="none" fill-rule="evenodd">
        <g id="prepaid-transfer" fill="#1D1D1B">
            <path d="M17.2017631,19.4465289 C16.2389505,19.4414395 15.4608899,18.6599331 15.4600551,17.6971074 C15.458352,16.2135094 14.2547283,15.0119573 12.7711295,15.0128099 L9.36639118,15.0128099 L9.36639118,13.2325344 L14.6439669,13.2325344 C15.6067795,13.2376239 16.3848401,14.0191302 16.3856749,14.9819559 C16.387378,16.465554 17.5910018,17.6671061 19.0746006,17.6662534 L22.4793388,17.6662534 L22.4793388,19.4465289 L17.2017631,19.4465289 Z M14.8609091,12.5192287 C16.3433025,12.5209304 17.5443566,13.7226747 17.5452066,15.2050689 L17.5452066,15.2050689 C17.546902,16.1690907 18.3275227,16.9504011 19.2915427,16.9529477 L22.696281,16.9529477 L22.696281,10.9364187 C22.6945876,10.419952 22.276329,10.0016933 21.7598623,10 L10.5197521,10 C10.0032853,10.0016933 9.58502668,10.419952 9.58333333,10.9364187 L9.58333333,12.5192287 L14.8609091,12.5192287 L14.8609091,12.5192287 Z M15.7256535,12.0416667 C16.9593916,12.0430829 17.958982,13.6815701 17.9596894,14.9153088 C17.9611004,15.7176265 18.6107806,16.3678806 19.4130967,16.37 L22.2467274,16.37 L22.2467274,11.3626781 C22.2453181,10.932843 21.8972178,10.5847426 21.4673827,10.5833333 L10.4583333,10.5833333 C10.0284982,10.5847426 10.168076,10.932843 10.1666667,11.3626781 L10.1666667,12.0416667 L15.4166667,12.0416667 L15.7256535,12.0416667 Z M17.2017631,20.3829477 C15.7199714,20.3812474 14.5191658,19.1804419 14.5174656,17.6986501 L14.5174656,17.6986501 C14.516619,16.734026 13.7357506,15.9517779 12.7711295,15.9492287 L9.36639118,15.9492287 L9.36639118,21.9657576 C9.36808453,22.4822243 9.78634317,22.900483 10.3028099,22.9021763 L21.5429201,22.9021763 C22.0593869,22.900483 22.4776455,22.4822243 22.4793388,21.9657576 L22.4793388,20.3829477 L17.2017631,20.3829477 L17.2017631,20.3829477 Z M13.9341322,18.2819835 L13.9341322,17.6986501 C13.9332857,16.734026 13.7357506,16.5351113 12.7711295,16.532562 L9.94972452,16.532562 L9.94972452,21.3824242 C9.95141787,21.898891 10.3696765,22.3171496 10.8861433,22.318843 L21.5429201,22.318843 C22.0593869,22.3171496 21.8943122,22.4822243 21.8960055,21.9657576 L21.8960055,20.966281 L17.2017631,20.966281 C15.7199714,20.9645807 13.9358325,19.7637752 13.9341322,18.2819835 Z M25.1503055,1.77635684e-15 L6.79755601,1.77635684e-15 C4.95967413,1.77635684e-15 3.46720978,1.49246436 3.46720978,3.33034623 L3.46720978,18.5221996 L1.36211813,16.4171079 C1.04928717,16.104277 0.547454175,16.104277 0.234623218,16.4171079 C-0.0782077393,16.7299389 -0.0782077393,17.2317719 0.234623218,17.5446029 L3.70835031,21.0183299 C3.86476578,21.1747454 4.06680244,21.2529532 4.27535642,21.2529532 C4.48391039,21.2529532 4.68594705,21.1747454 4.84236253,21.0183299 L8.31608961,17.5446029 C8.62892057,17.2317719 8.62892057,16.7299389 8.31608961,16.4171079 C8.00325866,16.104277 7.50142566,16.104277 7.1885947,16.4171079 L5.07698574,18.5287169 L5.07698574,3.33034623 C5.07698574,2.37230143 5.85254582,1.59674134 6.81059063,1.59674134 L25.1568228,1.59674134 C26.1148676,1.59674134 26.8904277,2.37230143 26.8904277,3.33034623 L26.8904277,5.54623218 C26.8904277,5.98940937 27.2488798,6.34786151 27.692057,6.34786151 C28.1352342,6.34786151 28.4936864,5.98940937 28.4936864,5.54623218 L28.4936864,3.33034623 C28.4741344,1.49898167 26.9816701,1.77635684e-15 25.1503055,1.77635684e-15 Z M27.1120163,11.0786151 L23.6382892,14.5523422 C23.3254582,14.8651731 23.3254582,15.3670061 23.6382892,15.6798371 C23.7947047,15.8362525 23.9967413,15.9144603 24.2052953,15.9144603 C24.4138493,15.9144603 24.6158859,15.8362525 24.7723014,15.6798371 L26.8839104,13.5682281 L26.8839104,28.7600815 C26.8839104,29.7181263 26.1083503,30.4936864 25.1503055,30.4936864 L6.79755601,30.4936864 C5.8395112,30.4936864 5.06395112,29.7181263 5.06395112,28.7600815 L5.06395112,26.5441955 C5.06395112,26.1010183 4.70549898,25.7425662 4.26232179,25.7425662 C3.8191446,25.7425662 3.46069246,26.1010183 3.46069246,26.5441955 L3.46069246,28.7600815 C3.46069246,30.5979633 4.95315682,32.0904277 6.7910387,32.0904277 L25.1372709,32.0904277 C26.9751527,32.0904277 28.4676171,30.5979633 28.4676171,28.7600815 L28.4676171,13.5682281 L30.5792261,15.6798371 C30.892057,15.992668 31.39389,15.992668 31.706721,15.6798371 C32.0195519,15.3670061 32.0195519,14.8651731 31.706721,14.5523422 L28.2329939,11.0786151 C27.9462322,10.7788187 27.4118126,10.7788187 27.1120163,11.0786151 Z" id="Combined-Shape"></path>
        </g>
    </g>
</svg>