<?xml version="1.0" encoding="UTF-8"?>
<svg width="32px" height="32px" viewBox="0 0 32 32" version="1.1" xmlns="http://www.w3.org/2000/svg" xmlns:xlink="http://www.w3.org/1999/xlink">
    <!-- Generator: Sketch 43.2 (39069) - http://www.bohemiancoding.com/sketch -->
    <title>recharge</title>
    <desc>Created with Sketch.</desc>
    <defs></defs>
    <g id="Page-1" stroke="none" stroke-width="1" fill="none" fill-rule="evenodd">
        <g id="recharge" fill-rule="nonzero" fill="#000000">
            <path d="M2.69921875,23.5 C1.39362772,23.5 1,22.4395395 1,21.1315789 L1,3.36842105 C1,2.06046053 1.39362772,1 2.69921875,1 L29.3007812,1 C30.6063723,1 31,2.06046053 31,3.36842105 L31,21.1315789 C31,22.4395395 30.6063723,23.5 29.3007812,23.5 L24.4375,23.5 L24.4375,18.8125 L18.34375,18.34375 L18.8125,23.5 L2.69921875,23.5 Z M22.5625,31 C18.4203644,31 15.0625,27.6421356 15.0625,23.5 C15.0625,19.3578644 18.4203644,16 22.5625,16 C26.7046356,16 30.0625,19.3578644 30.0625,23.5 C30.0625,27.6421356 26.7046356,31 22.5625,31 Z M19.9497514,22.0788352 C19.6834162,22.334517 19.6834162,22.7457386 19.9497514,23.0014205 C20.2160866,23.2549716 20.6464844,23.2549716 20.9128196,23.0014205 L21.9866832,21.9744318 L21.9866832,26.5980114 C21.9866832,26.9580966 22.2913707,27.25 22.6685014,27.25 C23.0456321,27.25 23.3503196,26.9580966 23.3503196,26.5980114 L23.3503196,21.9744318 L24.4241832,22.9992898 C24.6905185,23.2528409 25.1209162,23.2528409 25.3872514,22.9992898 C25.6535866,22.7457386 25.6535866,22.3323864 25.3872514,22.0788352 L23.1415128,19.9417614 C23.0158026,19.8139205 22.8496094,19.75 22.6642401,19.75 C22.4788707,19.75 22.3105469,19.8139205 22.1869673,19.9417614 L19.9497514,22.0788352 Z M2.875,12.25 C2.875,11.732233 3.30184898,11.3125 3.80481542,11.3125 L20.6951846,11.3125 C21.2087075,11.3125 21.625,11.7286233 21.625,12.25 L21.625,12.25 C21.625,12.767767 21.198151,13.1875 20.6951846,13.1875 L3.80481542,13.1875 C3.29129254,13.1875 2.875,12.7713767 2.875,12.25 L2.875,12.25 Z M2.875,15.0625 C2.875,14.544733 3.29098435,14.125 3.81231952,14.125 L6.62518048,14.125 C7.14284775,14.125 7.5625,14.5411233 7.5625,15.0625 L7.5625,15.0625 C7.5625,15.580267 7.14651565,16 6.62518048,16 L3.81231952,16 C3.29465225,16 2.875,15.5838767 2.875,15.0625 L2.875,15.0625 Z M8.5,15.0625 C8.5,14.544733 8.91598435,14.125 9.43731952,14.125 L12.2501805,14.125 C12.7678478,14.125 13.1875,14.5411233 13.1875,15.0625 L13.1875,15.0625 C13.1875,15.580267 12.7715156,16 12.2501805,16 L9.43731952,16 C8.91965225,16 8.5,15.5838767 8.5,15.0625 L8.5,15.0625 Z M30.1503906,9.33333333 L1.84960938,9.33333333 L1.84960938,21.5441338 C1.84960938,22.197818 2.39335938,22.7283443 3.06333705,22.7283443 L18.7080132,22.5936432 L18.34375,18.34375 L24.4375,18.8125 L24.4375,22.5936432 L28.65625,22.5625 C29.3262277,22.5625 30.1503906,22.197818 30.1503906,21.5441338 L30.1503906,9.33333333 Z M30.1503906,3.03536184 C30.1503906,2.38167763 29.6066406,1.85115132 28.9366629,1.85115132 L3.06333705,1.85115132 C2.39335938,1.85115132 1.84960938,2.38167763 1.84960938,3.03536184 L1.84960938,6.83333333 L30.1503906,6.83333333 L30.1503906,3.03536184 Z" id="Combined-Shape"></path>
        </g>
    </g>
</svg>