<?xml version="1.0" encoding="UTF-8"?>
<svg width="32px" height="32px" viewBox="0 0 32 32" version="1.1" xmlns="http://www.w3.org/2000/svg" xmlns:xlink="http://www.w3.org/1999/xlink">
    <!-- Generator: Sketch 43.2 (39069) - http://www.bohemiancoding.com/sketch -->
    <title>redemption</title>
    <desc>Created with Sketch.</desc>
    <defs></defs>
    <g id="Page-1" stroke="none" stroke-width="1" fill="none" fill-rule="evenodd">
        <g id="redemption" fill-rule="nonzero" fill="#000000">
            <path d="M30,30 L2,30 C0.463304348,30 0,28.7274474 0,27.1578947 L0,5.84210526 C0,4.27255263 0.463304348,3 2,3 L30,3 C31.5366957,3 32,4.27255263 32,5.84210526 L32,27.1578947 C32,28.7274474 31.5366957,30 30,30 Z M11,14 L31,14 L31,5.44243421 C31,4.65801316 30.36,4.02138158 29.5714286,4.02138158 L11,4.02138158 L11,4 L10,4 L10,4.02138158 L2.42857143,4.02138158 C1.64,4.02138158 1,4.65801316 1,5.44243421 L1,14 L10,14 L10,29 L11,29 L11,14 Z M10,15 L1,15 L1,27.6529605 C1,28.4373816 1.64,29.0740132 2.42857143,29.0740132 L29.5714286,29.0740132 C30.36,29.0740132 31,28.4373816 31,27.6529605 L31,15 L11,15 L11,4 L10,4 L10,15 Z M21.2420346,23.236765 C21.3218793,23.236765 21.3789113,23.2133016 21.4359433,23.1663748 C21.4929752,23.1194479 21.515788,23.0490577 21.515788,22.955204 C21.515788,22.8730821 21.4929752,22.8026918 21.4359433,22.755765 C21.3332857,22.6619113 21.1621898,22.6619113 21.0595323,22.755765 C21.0025003,22.8026918 20.9796875,22.8730821 20.9796875,22.955204 C20.9796875,23.037326 21.0025003,23.1077162 21.0595323,23.1663748 C21.1051579,23.2133016 21.1621898,23.236765 21.2420346,23.236765 L21.2420346,23.236765 Z M21.4473497,25.4858129 C21.4359433,25.4858129 21.4245369,25.4740812 21.4131305,25.4506178 C21.4017241,25.4388861 21.4017241,25.4154226 21.4017241,25.3567641 L21.4017241,23.5735444 C21.4017241,23.467959 21.3446921,23.4093005 21.2420346,23.4093005 L20.9796875,23.4093005 L20.9796875,25.3802275 C20.9796875,25.4858129 20.9910939,25.5679349 21.0139067,25.6383251 C21.0367195,25.7087154 21.0709387,25.7673739 21.1165643,25.8143007 C21.1621898,25.8612276 21.2078154,25.8964227 21.253441,25.9081544 C21.2990666,25.9316178 21.3560985,25.9316178 21.4017241,25.9316178 L21.7325095,25.9316178 L21.7325095,25.6617885 C21.7325095,25.5562031 21.6754775,25.4975446 21.57282,25.4975446 C21.4929752,25.4858129 21.4587561,25.4858129 21.4473497,25.4858129 L21.4473497,25.4858129 Z M22.8039501,22.7019659 C22.7811373,22.6902341 22.7469181,22.6785024 22.7012926,22.6902341 L22.4275391,22.7606244 L22.4275391,25.3298685 C22.4275391,25.4589173 22.4503519,25.5762344 22.4959775,25.6700881 C22.541603,25.7639418 22.6100414,25.834332 22.6784798,25.8929905 C22.7469181,25.9516491 22.8381693,25.9868442 22.9294204,26.0220393 C23.0206716,26.0455028 23.1119227,26.0572345 23.2031739,26.0572345 C23.3286442,26.0572345 23.4198954,26.0455028 23.5111465,26.033771 C23.6023977,26.0103076 23.6594296,25.9985759 23.6936488,25.9751125 L23.7164616,25.9633808 L23.7164616,25.7052832 C23.7164616,25.6700881 23.7164616,25.6114295 23.6822424,25.5879661 C23.6480232,25.5645027 23.6138041,25.5645027 23.5567721,25.5762344 C23.5225529,25.5879661 23.4769273,25.6114295 23.4313018,25.6114295 C23.3856762,25.6231613 23.3286442,25.6231613 23.2716122,25.6231613 C23.1461419,25.6231613 23.032078,25.5996978 22.9522332,25.552771 C22.8837949,25.5058442 22.8495757,25.4237222 22.8495757,25.2946734 L22.8495757,23.9337952 L23.4541145,23.9337952 C23.5567721,23.9337952 23.6138041,23.8751367 23.6138041,23.781283 L23.6138041,23.499722 L22.8495757,23.499722 L22.8495757,22.8310146 C22.8495757,22.7606244 22.8381693,22.7136976 22.8039501,22.7019659 L22.8039501,22.7019659 Z M26.0023029,24.4416908 C25.9680837,24.4416908 25.9680837,24.4416908 25.9452709,24.4534226 C25.9110517,24.4534226 25.831207,24.4651543 25.5688599,24.4886177 C25.2608873,24.5238128 25.0327594,24.5942031 24.8616635,24.6997884 C24.6905676,24.8171055 24.5993165,24.9930811 24.5993165,25.239447 C24.5993165,25.3802275 24.6335356,25.4975446 24.6905676,25.6148617 C24.7475996,25.7204471 24.8274443,25.8143007 24.9186955,25.8729593 C25.0099466,25.9316178 25.1126042,25.9785446 25.2266681,26.0020081 C25.3407321,26.0254715 25.4890152,26.0489349 25.6715175,26.0489349 C25.7969878,26.0489349 25.9224581,26.0372032 26.0365221,26.0137398 C26.150586,25.9902764 26.26465,25.9668129 26.3559011,25.9316178 C26.4471523,25.8964227 26.5498098,25.8494959 26.6410609,25.802569 L26.6752801,25.7908373 L26.6752801,24.2422518 C26.6752801,24.0780079 26.6524673,23.9489591 26.5954354,23.8433737 C26.5384034,23.7377883 26.469965,23.6439347 26.3787139,23.5852761 C26.2874627,23.5148859 26.1848052,23.4796908 26.0593349,23.4444956 C25.9452709,23.4210322 25.8083942,23.4093005 25.6715175,23.4093005 C25.5460471,23.4093005 25.4319832,23.4093005 25.3407321,23.4210322 C25.2494809,23.4327639 25.1696362,23.4444956 25.0897914,23.4562273 C25.0099466,23.467959 24.9301019,23.4914225 24.8616635,23.5148859 L24.8160379,23.5266176 L24.8160379,23.7964469 C24.8160379,23.8433737 24.8274443,23.8903005 24.8616635,23.913764 C24.8958827,23.9372274 24.9301019,23.9489591 24.9757275,23.9372274 C25.0441658,23.913764 25.135417,23.9020323 25.2494809,23.8785688 C25.3635448,23.8551054 25.5004216,23.8433737 25.6601111,23.8433737 C25.7855814,23.8433737 25.888239,23.8551054 25.9566773,23.8785688 C26.0251157,23.9020323 26.0821477,23.9372274 26.1277732,23.9724225 C26.1619924,24.0076176 26.1962116,24.0428128 26.207618,24.0780079 C26.2304308,24.1366664 26.2304308,24.1601298 26.2304308,24.1835933 L26.2304308,24.4182274 C26.1049604,24.4299591 26.0365221,24.4416908 26.0023029,24.4416908 L26.0023029,24.4416908 Z M26.2418372,25.5092763 C26.1848052,25.5327397 26.1049604,25.5562031 26.0251157,25.5796666 C25.9224581,25.60313 25.8198006,25.6148617 25.7057367,25.6148617 C25.454796,25.6148617 25.2722937,25.5796666 25.1696362,25.521008 C25.0669786,25.4623495 25.021353,25.3802275 25.021353,25.2746421 C25.021353,25.1338616 25.0669786,25.0517397 25.1696362,25.0048128 C25.2837001,24.957886 25.454796,24.9226909 25.6829239,24.8992275 C25.888239,24.8757641 26.0707413,24.8640323 26.2418372,24.8405689 L26.2418372,25.5092763 L26.2418372,25.5092763 Z M27.4782902,22.5379268 C27.4554775,22.5848536 27.4440711,22.6552438 27.4326647,22.7490975 L27.4326647,23.2300976 L28.1854867,23.2300976 L28.1854867,23.4999269 C28.1854867,23.6055122 28.1284547,23.6641708 28.0257971,23.6641708 L27.4326647,23.6641708 L27.4326647,25.5764392 C27.4326647,25.6820246 27.3642263,25.7406832 27.2615688,25.7406832 L27.0106281,25.7406832 L27.0106281,23.6524391 L26.7710938,23.6524391 L26.7710938,23.3826098 C26.7710938,23.2770244 26.8281258,23.2183659 26.9307833,23.2183659 L27.0106281,23.2183659 L27.0106281,22.6435121 C27.0106281,22.5144633 27.0334409,22.408878 27.0904729,22.3150243 C27.1360984,22.2211706 27.2045368,22.1507804 27.2957879,22.1038536 C27.3870391,22.0569267 27.4782902,22.0217316 27.5809478,21.9982682 C27.7634501,21.9513413 27.9573588,21.9513413 28.1626739,21.9865365 C28.253925,21.9982682 28.3337698,22.0217316 28.4022081,22.045195 L28.4478337,22.0569267 L28.4364273,22.1038536 C28.4250209,22.1742438 28.4136145,22.2446341 28.4022081,22.3032926 C28.3908017,22.3502194 28.367989,22.3736828 28.3451762,22.3971463 C28.3223634,22.408878 28.2881442,22.4206097 28.2425186,22.408878 C28.1854867,22.3971463 28.1284547,22.3854146 28.0828291,22.3736828 C28.0372035,22.3736828 27.9801716,22.3619511 27.9231396,22.3619511 C27.8661076,22.3619511 27.7976693,22.3619511 27.7406373,22.3736828 C27.6836053,22.3854146 27.6265734,22.408878 27.5809478,22.4323414 C27.5353222,22.4558048 27.501103,22.4909999 27.4782902,22.5379268 Z M27.7573667,18.1780833 C27.6889283,18.1780833 27.62049,18.1428881 27.5748644,18.0959613 C27.5178324,18.0373028 27.4950196,17.9786442 27.4950196,17.8965223 C27.4950196,17.8144003 27.5292388,17.7440101 27.5748644,17.6970832 C27.6775219,17.5914979 27.8486178,17.5914979 27.9512754,17.6970832 C28.0083073,17.7557418 28.0311201,17.8144003 28.0311201,17.8965223 C28.0311201,17.9786442 27.9969009,18.0490345 27.9512754,18.0959613 C27.8942434,18.1546199 27.8372114,18.1780833 27.7573667,18.1780833 Z M28.4561984,18.7089431 C28.3307281,18.6620162 28.1938513,18.6150894 28.0455682,18.5681626 L28.0455682,18.5681626 C27.8972851,18.5212357 27.749002,18.509504 27.6121253,18.509504 C27.2357143,18.509504 26.9619608,18.591626 26.8022713,18.7441382 C26.6425818,18.8966504 26.5513306,19.1312846 26.5513306,19.4480407 C26.5513306,19.7530651 26.619769,19.9876993 26.7680521,20.1519432 C26.9163352,20.3161871 27.1672759,20.3865774 27.5094677,20.3865774 C27.6349381,20.3865774 27.749002,20.3748457 27.8516595,20.363114 C27.9200979,20.3513823 27.9885363,20.3279188 28.0569746,20.2927237 C28.0455682,20.3513823 28.0341618,20.3865774 28.011349,20.4335042 C27.9771299,20.4921628 27.9429107,20.5390896 27.8858787,20.5860164 C27.8288467,20.6212116 27.7604084,20.6564067 27.69197,20.6681384 C27.6121253,20.6798701 27.5208741,20.6916018 27.429623,20.6916018 L26.619769,20.6916018 C26.5285179,20.6916018 26.3916411,20.6798701 26.30039,20.6564067 C26.243358,20.644675 26.1749197,20.6212116 26.1292941,20.5977481 C26.1635133,20.5038945 26.1977324,20.3983091 26.2091388,20.3044554 C26.2319516,20.1871383 26.243358,20.0698213 26.243358,19.9642359 C26.243358,19.8469188 26.2205452,19.3424553 26.1749197,19.2016748 C26.1292941,19.072626 26.0722621,18.9670407 25.9924174,18.8849187 C25.923979,18.8027967 25.8441342,18.7324065 25.7642895,18.6854797 C25.6844447,18.6385528 25.5931936,18.591626 25.5019424,18.5681626 C25.4106913,18.5446992 25.3536593,18.5446992 25.228189,18.5446992 L23.3005084,18.873187 L23.3005084,17.6178942 L23.0381614,17.6178942 C22.9355038,17.6178942 22.8784719,17.6765527 22.8784719,17.7821381 L22.8784719,20.6916018 L22.7644079,20.6916018 C22.5362801,20.6916018 22.3765905,20.644675 22.273933,20.5508213 C22.1712755,20.4569676 22.1256499,20.3161871 22.1256499,20.1284798 L22.1256499,17.7821381 C22.1256499,17.6765527 22.0686179,17.6178942 21.9659604,17.6178942 L21.7036133,17.6178942 L21.7036133,19.9525042 C21.7036133,20.1284798 21.7150197,20.280992 21.7492389,20.4217725 C21.7834581,20.562553 21.84049,20.6916018 21.9203348,20.7854555 C22.0001796,20.8910408 22.1142435,20.9614311 22.2511202,21.0200896 C22.3879969,21.0787482 22.5590928,21.1022116 22.7644079,21.1022116 L25.2852209,21.1022116 C25.4335041,21.1022116 25.5589744,21.0904799 25.6616319,21.0552848 C25.7528831,21.0318213 25.8441342,20.9731628 25.923979,20.9027726 C25.9696046,20.9379677 26.0152301,20.9614311 26.0608557,20.9848945 C26.1292941,21.0200896 26.186326,21.0435531 26.2547644,21.0552848 C26.3232028,21.0670165 26.3802347,21.0787482 26.4372667,21.0904799 C26.4942987,21.0904799 26.5513306,21.1022116 26.5969562,21.1022116 L27.4752485,21.1022116 C27.6691572,21.1022116 27.8402531,21.0787482 27.9657235,21.0318213 C28.1026002,20.9848945 28.2052577,20.9145043 28.2851025,20.8206506 C28.3649472,20.7385286 28.4219792,20.6329433 28.444792,20.5273579 C28.4790112,20.4217725 28.4904176,20.3044554 28.4904176,20.1871383 L28.4904176,18.7441382 L28.4561984,18.7089431 L28.4561984,18.7089431 Z M25.7871023,20.3279188 C25.7528831,20.4335042 25.7072575,20.5038945 25.6616319,20.5508213 C25.6160064,20.5977481 25.5589744,20.6329433 25.5133488,20.644675 C25.4677232,20.6564067 25.3878785,20.6681384 25.3080337,20.6681384 L23.3005084,20.6681384 L23.3005084,19.2837968 L25.228189,18.9318455 C25.2738146,18.9201138 25.3308465,18.9318455 25.4106913,18.9435772 C25.4791296,18.955309 25.547568,18.9905041 25.6046,19.0374309 C25.6616319,19.0843577 25.7186639,19.1664797 25.7756959,19.2720651 C25.8213214,19.3659188 25.8555406,19.799992 25.8555406,19.9876993 C25.8441342,20.1050164 25.8327278,20.2223335 25.7871023,20.3279188 L25.7871023,20.3279188 Z M28.068381,19.8703822 C27.9999427,19.9055773 27.9200979,19.9407725 27.8288467,19.9642359 C27.6691572,20.0111627 27.4638421,20.0228944 27.2699335,19.9876993 C27.2014951,19.9759676 27.1444631,19.9525042 27.0874312,19.917309 C27.0418056,19.8821139 26.99618,19.8351871 26.9733672,19.7647968 C26.939148,19.6944066 26.9277416,19.6005529 26.9277416,19.4949675 C26.9277416,19.3776505 26.939148,19.2720651 26.9733672,19.2016748 C26.99618,19.1312846 27.0418056,19.072626 27.0874312,19.0374309 C27.1330567,18.9905041 27.2014951,18.9670407 27.2699335,18.955309 C27.3497782,18.9435772 27.429623,18.9318455 27.5322805,18.9318455 C27.6349381,18.9318455 27.7261892,18.9435772 27.806034,18.955309 C27.8858787,18.9670407 27.9657235,19.0022358 28.068381,19.0374309 L28.068381,19.8703822 L28.068381,19.8703822 Z M21.5971536,20.6295031 C21.6769984,20.5473812 21.7340304,20.4417958 21.7568432,20.3362104 C21.7910623,20.230625 21.8024687,20.113308 21.8024687,19.9959909 L21.8024687,18.5529907 L21.7682495,18.541259 C21.6427792,18.4943322 21.5059025,18.4474054 21.3576194,18.4004785 C21.2093363,18.3535517 21.0610531,18.34182 20.9241764,18.34182 C20.5477654,18.34182 20.274012,18.4239419 20.1143225,18.5764542 C19.9546329,18.7289664 19.8633818,18.9636005 19.8633818,19.2803567 C19.8633818,19.5853811 19.9318202,19.8200152 20.0801033,19.9842592 C20.2283864,20.1485031 20.4793271,20.2188933 20.8215189,20.2188933 C20.9469892,20.2188933 21.0610531,20.2071616 21.1637107,20.1954299 C21.232149,20.1836982 21.3005874,20.1602348 21.3690258,20.1250397 C21.3576194,20.1836982 21.346213,20.2188933 21.3234002,20.2658202 C21.289181,20.3244787 21.2549618,20.3714055 21.1979299,20.4183324 C21.1408979,20.4535275 21.0724595,20.4887226 21.0040212,20.5004543 C20.9241764,20.512186 20.8329253,20.5239178 20.7416741,20.5239178 L19.3615005,20.5239178 C19.2360301,20.5239178 19.1333726,20.5004543 19.0307151,20.4887226 C18.9280575,20.4652592 18.8368064,20.4300641 18.7569616,20.3714055 C18.6771168,20.3244787 18.6200849,20.2423567 18.5744593,20.1485031 C18.5288337,20.0546494 18.5060209,19.9138689 18.5060209,19.7613567 C18.5060209,19.6088445 18.5288337,19.4328689 18.5630529,19.2334298 L18.5744593,19.186503 L18.5288337,19.1747713 C18.4603954,19.1513079 18.4033634,19.1278445 18.3463314,19.1161127 C18.3007059,19.104381 18.2550803,19.104381 18.2208611,19.1161127 C18.1866419,19.1395762 18.1638291,19.1747713 18.1410163,19.2334298 C18.1296099,19.268625 18.1182036,19.3272835 18.1067972,19.4328689 C18.0953908,19.5384542 18.0839844,19.667503 18.0839844,19.8082835 C18.0839844,19.9607957 18.1067972,20.113308 18.1638291,20.2423567 C18.2094547,20.3831372 18.2892995,20.5004543 18.391957,20.6060397 C18.4946145,20.7116251 18.6314913,20.793747 18.7911808,20.8524056 C18.9508703,20.9110641 19.144779,20.9462593 19.3615005,20.9462593 L20.7872997,20.9462593 C20.9812084,20.9462593 21.1523043,20.9227958 21.2777746,20.875869 C21.4032449,20.7820153 21.5173089,20.7116251 21.5971536,20.6295031 L21.5971536,20.6295031 Z M21.1408979,19.7848201 C20.9812084,19.831747 20.7758933,19.8434787 20.5819846,19.8082835 C20.5135462,19.7965518 20.4565143,19.7730884 20.3994823,19.7378933 C20.3538567,19.7026982 20.3082312,19.6440396 20.2854184,19.5853811 C20.2511992,19.5149908 20.2397928,19.4211372 20.2397928,19.3155518 C20.2397928,19.1982347 20.2511992,19.0926493 20.2854184,19.0222591 C20.3082312,18.9518688 20.3538567,18.8932103 20.3994823,18.8580152 C20.4451079,18.82282 20.5135462,18.7876249 20.5819846,18.7758932 C20.6618294,18.7641615 20.7416741,18.7524298 20.8443317,18.7524298 C20.9469892,18.7524298 21.0382403,18.7641615 21.1180851,18.7758932 C21.1979299,18.7876249 21.2777746,18.82282 21.3804322,18.8580152 L21.3804322,19.7144299 C21.3119938,19.7261616 21.232149,19.7613567 21.1408979,19.7848201 L21.1408979,19.7848201 Z M20.5181088,18.1780833 C20.5979536,18.1780833 20.6549855,18.1546199 20.7120175,18.0959613 C20.7576431,18.0490345 20.7918622,17.9786442 20.7918622,17.8965223 C20.7918622,17.8144003 20.7690495,17.7557418 20.7120175,17.6970832 C20.6093599,17.5914979 20.438264,17.5914979 20.3356065,17.6970832 C20.2899809,17.7440101 20.2557617,17.8144003 20.2557617,17.8965223 C20.2557617,17.9786442 20.2785745,18.0373028 20.3356065,18.0959613 C20.3812321,18.1428881 20.4496704,18.1780833 20.5181088,18.1780833 L20.5181088,18.1780833 Z M20.4907335,26.6355203 C20.4108887,26.6355203 20.3766695,26.6237886 20.3652631,26.6237886 C20.3538567,26.6237886 20.3424503,26.6120569 20.3310439,26.5885935 C20.3196375,26.5768618 20.3196375,26.5533984 20.3196375,26.4947398 L20.3196375,23.6791298 L20.2854184,23.6673981 C20.1941672,23.6204713 20.0915097,23.5735444 19.9774457,23.5383493 C19.8633818,23.5031542 19.7493179,23.467959 19.6124411,23.4444956 C19.4755644,23.4210322 19.3386877,23.4093005 19.1789982,23.4093005 C18.9850895,23.4093005 18.8139936,23.4444956 18.6771168,23.5031542 C18.5402401,23.5618127 18.4147698,23.6556664 18.334925,23.7612518 C18.2436739,23.8785688 18.1752355,24.0076176 18.1410163,24.1718616 C18.1067972,24.3243738 18.0839844,24.5003494 18.0839844,24.6997884 C18.0839844,24.8874958 18.0953908,25.0517397 18.1296099,25.2042519 C18.1638291,25.3567641 18.2208611,25.4975446 18.3007059,25.6148617 C18.3805506,25.7321788 18.4946145,25.8260324 18.6314913,25.884691 C18.8482128,25.9785446 19.144779,26.0137398 19.5097836,25.9316178 C19.6238475,25.9081544 19.7379115,25.8612276 19.8747882,25.8143007 L19.8747882,25.8143007 L19.8747882,25.8143007 L19.8747882,26.5416666 C19.8747882,26.647252 19.8861946,26.729374 19.9090074,26.7997642 C19.9318202,26.8701545 19.9660393,26.928813 20.0116649,26.9757399 C20.0572905,27.0226667 20.1029161,27.0461301 20.1485416,27.0695935 C20.1485416,27.0695935 20.159948,27.0695935 20.1713544,27.0813252 C20.21698,27.0930569 20.2626056,27.1047887 20.2968248,27.1047887 L20.6276102,27.1047887 L20.6276102,26.8349594 C20.650423,26.6941789 20.593391,26.6355203 20.4907335,26.6355203 L20.4907335,26.6355203 Z M19.8861946,25.321569 C19.8291626,25.3567641 19.7721306,25.3802275 19.7265051,25.4036909 C19.6694731,25.4271544 19.6124411,25.4506178 19.5440028,25.4740812 C19.4869708,25.4975446 19.4185324,25.5092763 19.3615005,25.521008 C19.3044685,25.5327397 19.2246237,25.5444714 19.144779,25.5444714 C18.9964959,25.5444714 18.8824319,25.521008 18.8139936,25.4858129 C18.7455552,25.4506178 18.6771168,25.3919592 18.6314913,25.3098373 C18.5744593,25.2277153 18.5402401,25.1455933 18.5288337,25.040008 C18.5060209,24.9344226 18.5060209,24.8171055 18.5060209,24.6880567 C18.5060209,24.5707396 18.5174273,24.4534226 18.5288337,24.3478372 C18.5516465,24.2422518 18.5858657,24.1483981 18.6314913,24.0780079 C18.6771168,24.0076176 18.7455552,23.9489591 18.8368064,23.9020323 C18.9280575,23.8551054 19.0421214,23.831642 19.1904046,23.831642 C19.3615005,23.831642 19.4983772,23.8433737 19.6010347,23.8668371 C19.6922859,23.8903005 19.7949434,23.9254957 19.897601,23.9724225 L19.897601,25.321569 L19.8861946,25.321569 Z M28.7132225,26.6334915 L28.7702544,26.5982964 C28.7816608,26.6452232 28.7930672,26.69215 28.7930672,26.7273452 L28.7930672,27.0675647 L28.5649394,27.0675647 C28.4622818,27.0675647 28.4052498,27.0089062 28.4052498,26.9033208 C28.4052498,26.8211988 28.3938434,26.7508086 28.3938434,26.7390769 C28.3824371,26.7273452 28.3710307,26.7156135 28.3596243,26.7038817 C28.3482179,26.7038817 28.3254051,26.69215 28.2683731,26.69215 L21.139377,26.69215 C21.0367195,26.69215 20.9796875,26.6334915 20.9796875,26.5279061 L20.9796875,26.3050037 L28.2569667,26.3050037 C28.3596243,26.3050037 28.439469,26.3167354 28.5079074,26.3401988 C28.5763457,26.3636622 28.6333777,26.3988573 28.6790033,26.4457842 C28.7246289,26.4809793 28.7474417,26.5396378 28.7702544,26.5865647 L28.7702544,26.6100281 L28.7132225,26.6334915 Z M28.4812925,18.1780833 C28.4014477,18.1780833 28.3444157,18.1428881 28.2987902,18.0959613 C28.2417582,18.0373028 28.2189454,17.9786442 28.2189454,17.8965223 C28.2189454,17.8144003 28.2531646,17.7440101 28.2987902,17.6970832 C28.4014477,17.5914979 28.5725436,17.5914979 28.6752012,17.6970832 C28.7322331,17.7557418 28.7550459,17.8144003 28.7550459,17.8965223 C28.7550459,17.9786442 28.7208267,18.0490345 28.6752012,18.0959613 C28.6181692,18.1546199 28.5611372,18.1780833 28.4812925,18.1780833 Z M16.3050693,10.7522262 C16.3182221,9.76188682 15.8324111,9.46746615 15.0004113,9.89071694 C14.9504981,9.91609512 14.8992359,9.94037724 14.8534539,9.97216321 C13.7926289,10.7092266 13.036848,11.7521773 12.1596566,12.6726213 C11.8931435,12.9523715 12.2167364,13.1890379 12.3113355,13.4300885 C12.3926974,13.6374982 12.5994327,13.5858987 12.7525449,13.5369972 C13.5395216,13.2854918 14.3379648,13.0556548 15.0737636,12.6743076 C15.8702676,12.2614273 16.3242083,11.6111218 16.3050693,10.7522262 M5.36369901,9.72630677 C4.96422446,9.72293425 4.77005183,9.90968734 4.72174054,10.3435616 C4.60479853,11.3935945 5.00806717,12.1746693 5.93905029,12.6730429 C6.67189807,13.0652665 7.47396676,13.2784095 8.25858267,13.5321914 C8.45966895,13.5971966 8.70341757,13.6450864 8.85610824,13.3877634 C9.01141262,13.1260561 9.07658649,12.8815487 8.83056143,12.629959 C8.01921833,11.8001513 7.3109056,10.8695055 6.39779681,10.1395243 C6.09679974,9.89889529 5.76199318,9.7297636 5.36369901,9.72630677 M5.23959041,8 C5.89613502,8.02495662 6.47814701,8.3004912 7.01766531,8.66607197 C8.29922149,9.53424197 9.3228645,10.6731407 10.2890061,11.8640605 C10.483516,12.1039307 10.5540859,12.0917054 10.7340096,11.8615311 C11.549737,10.8183275 12.464532,9.86736226 13.4928966,9.03072529 C13.9525705,8.65671323 14.4519559,8.34408097 15.0192131,8.15294361 C16.3437689,7.70650677 17.5110811,8.37620419 17.863509,9.72816165 C18.4311035,11.9053739 17.1444886,13.4232591 15.5557805,14.2870448 C14.5717645,14.8220946 13.473336,14.9344837 12.3959856,15.1200564 C12.2154717,15.1510835 12.0126149,15.1359072 11.9370705,15.3472797 C11.852336,15.5842832 12.0718868,15.6609237 12.2015601,15.7713736 C13.4548714,16.8391965 14.4801164,18.0617337 14.8767243,19.7093765 C14.9454393,19.9950287 15.0145759,20.2851494 14.9954369,20.5831112 C14.9672764,21.02255 14.61097,21.3933582 14.1942956,21.4280108 C13.7847035,21.4619889 13.3257884,21.1378901 13.2933279,20.7013179 C13.1797584,19.1731464 12.2835965,18.1135861 11.2025364,17.1797364 C10.415897,16.500343 10.6669809,16.4908999 9.81558912,17.172907 C9.19656376,17.6688355 8.68377266,18.2650121 8.28202166,18.9508976 C7.98869706,19.4518006 7.770158,19.9752994 7.73778184,20.5709701 C7.71021152,21.0771848 7.3187467,21.436695 6.86725108,21.4259873 C6.3865832,21.4145208 6.01788285,21.0312343 6.02749453,20.5012433 C6.04258654,19.6667985 6.3330445,18.9088255 6.73386806,18.1882031 C7.27507261,17.2153164 8.02916725,16.4284241 8.87583746,15.7196898 C9.00534209,15.6112634 9.23939472,15.5325151 9.16578955,15.3073996 C9.09370201,15.0869214 8.86394934,15.1577442 8.69001182,15.1306798 C7.3990969,14.9293406 6.09443897,14.7647618 4.97417338,14.0072946 C3.97278898,13.3300934 3.21801984,12.458045 3.0368314,11.2227766 C2.92916382,10.48917 3.05858413,9.76095938 3.41151796,9.09910306 C3.79337112,8.38311785 4.40582007,8.01483907 5.23959041,8" id="Shape"></path>
        </g>
    </g>
</svg>