<?xml version="1.0" encoding="UTF-8"?>
<svg width="32px" height="32px" viewBox="0 0 32 32" version="1.1" xmlns="http://www.w3.org/2000/svg" xmlns:xlink="http://www.w3.org/1999/xlink">
    <!-- Generator: Sketch 43.2 (39069) - http://www.bohemiancoding.com/sketch -->
    <title>sawa-haj</title>
    <desc>Created with Sketch.</desc>
    <defs></defs>
    <g id="Page-1" stroke="none" stroke-width="1" fill="none" fill-rule="evenodd">
        <g id="sawa-haj">
            <g id="Group">
                <path d="M19.7950608,1.3657474 C20.7598656,1.70535838 21.7351161,2.01666845 22.7027697,2.35080183 C23.9923414,2.79631302 25.2771651,3.25460526 26.5657872,3.70194231 C27.3853015,3.98677733 28.2276065,4.21957518 29.0252797,4.55279563 C29.6425269,4.8111556 30.3082042,4.93348859 30.9064591,5.24023399 C31.0960427,5.31582204 31.2136469,5.49996177 31.1979897,5.69670037 C31.1979897,7.44587952 31.1894432,9.1959716 31.1979897,10.9451508 C31.1979897,11.5221243 30.6728548,11.53947 30.3718281,11.6362408 C28.8913846,12.1127917 18.949907,15.204895 17.7809359,15.6631872 C17.277642,15.8603807 16.7363638,15.9735843 16.2216746,16.1607356 C15.651908,16.3670584 15.0802422,16.0511836 14.560805,15.9270248 C13.5798568,15.6850976 1.72396346,11.6672806 0.76580596,11.3477541 C0.554042707,11.2792841 0.554042707,11.1441701 0.554042707,10.9944491 L0.554042707,5.65653133 C0.532929484,5.46822678 0.657989974,5.29331139 0.848422117,5.24479866 C1.72586268,4.93348859 2.5909583,4.59022587 3.4712477,4.28621927 C4.55570346,3.91191684 5.64300806,3.54765667 6.7170181,3.14596626 C7.71695848,2.77257677 8.75108486,2.48591588 9.76242057,2.14174023 C10.5411016,1.87333801 11.30174,1.55655034 12.0794714,1.28632225 C13.1183458,0.921149146 15.5930321,0 15.5930321,0 C15.5930321,0 18.7846747,1.00970362 19.7950608,1.3657474 Z" id="Shape" stroke="#000000"></path>
                <path d="M25.9414749,5.67090879 C25.2273674,5.42441695 24.6262637,5.21992001 24.0280087,5.00994548 C22.7618607,4.56504292 21.4957127,4.11831449 20.2295647,3.6697602 C18.9134039,3.20233863 17.5981927,2.73339551 16.283931,2.26293083 C16.1395688,2.19715315 15.9740018,2.1889484 15.8233697,2.24010751 C14.8737587,2.63449446 13.8985082,2.93484933 12.9289554,3.26624392 C11.6298875,3.70536458 10.3450638,4.18648014 9.05644172,4.64477238 C8.10683072,4.98073163 7.15721972,5.30664862 6.06896552,5.68551571 C6.40892626,5.81697803 6.60454612,5.90370664 6.80776288,5.9694378 C7.68235461,6.25335989 8.55979517,6.52815264 9.4343869,6.81390059 C10.3232228,7.10421321 11.206361,7.41095861 12.0932977,7.69670657 C12.9669398,7.97697692 13.8538765,8.22072996 14.7218209,8.51834604 C15.4634671,8.77031548 16.1338925,9.03506598 16.9733486,8.66441528 C17.9742386,8.22255583 19.0700897,7.98154158 20.1213091,7.64375647 C21.2779353,7.27310577 22.4364607,6.9061068 23.5826412,6.50898106 C24.3261866,6.24788229 25.1115149,6.09085786 25.9414749,5.67090879 Z" id="Shape" stroke="#000000"></path>
                <path d="M15.5888143,31.1811482 L14.786393,30.8680122 C14.786393,30.8680122 1.59059857,26.6037034 0.825212106,26.3389529 C0.608700798,26.2650053 0.551724138,26.0687248 0.551724138,25.8523597 L0.551724138,15.8584849 C0.551724138,15.6211224 0.58211169,15.4312323 0.904029819,15.449491 C1.21170378,15.4677497 1.38738182,15.6202094 1.37028882,15.9059574 C1.32600216,16.7252754 1.427157,17.5458615 1.66941628,18.3325326 C2.03501652,19.5421685 2.45284536,20.7390234 3.64555678,21.4657178 C4.61113956,22.0514907 5.88648736,21.7897416 6.51907966,20.8759633 C7.05276104,20.1173162 7.43640389,19.2993284 7.58739204,18.3873086 C7.59964748,18.3292913 7.62212884,18.2737149 7.65386481,18.2229807 C7.66620975,18.2010703 7.70609341,18.1928539 7.74312824,18.1736823 C7.88614234,18.3140574 7.95588534,18.5088354 7.93305044,18.7040963 C7.87132573,20.1730051 8.32334056,21.5067998 9.15899824,22.7100452 C9.71926873,23.5161648 10.4428723,24.1150487 11.5786071,23.9397656 C12.0638484,23.8594916 12.5002144,23.6073938 12.801706,23.2331556 C13.4502903,22.4516852 13.9412392,21.5807474 14.0504445,20.5491334 C14.1283126,19.8288294 14.2536613,19.7767922 14.9687183,19.9949832 C15.1948636,20.0603051 15.4168219,20.1383432 15.633446,20.228694 C16.1082515,20.432278 16.4681541,20.0534109 16.8774364,19.9456848 C17.447203,19.7950509 17.5421641,19.8014414 17.6228811,20.3455493 C17.7900126,21.4292005 18.2154383,22.4242972 18.9523365,23.2459367 C19.7870446,24.1734764 21.0215389,24.2583791 21.9758979,23.3956577 C22.6558194,22.780341 23.0603537,22.0262585 23.3775237,21.1772311 C23.6911782,20.3737578 23.8423416,19.5200908 23.8228913,18.6621014 C23.8171936,18.4612561 23.833337,18.4612561 24.0507979,18.1335133 C24.19229,18.5899797 24.3090921,19.0208839 24.4572314,19.4380942 C24.7250218,20.1921766 25.1010677,20.8987866 25.7610474,21.3990737 C26.6536817,22.0764698 28.0401138,21.8327168 28.7998026,20.9270875 C29.5281542,20.051585 29.92889,19.0300133 30.1890834,17.9417974 C30.3371114,17.3217984 30.4009503,16.6859727 30.3790056,16.0502008 C30.3742706,15.9742842 30.3777714,15.8980999 30.3894514,15.8228805 C30.4407304,15.5490007 30.6230557,15.4522298 30.8984429,15.4531427 C31.208016,15.4531427 31.2023184,15.6558138 31.203268,15.8593978 L31.203268,21.0631145 L31.203268,25.3073389 C31.203268,26.3115649 31.1140046,26.3855124 30.0960216,26.6511759 C29.2071857,26.8830608 15.5888143,31.1811482 15.5888143,31.1811482 Z" id="Shape" stroke="#000000"></path>
                <path d="M11.3316084,20.819535 C9.89864545,20.8962213 9.32792924,19.9604653 8.76101147,19.0438808 C8.57108927,18.7353095 8.45808556,18.3792657 8.31659352,18.0396548 C8.26816336,17.9246252 8.24347348,17.7949888 8.35647719,17.7027826 C8.45143829,17.628835 8.56349238,17.6543971 8.67174804,17.6900015 C10.1031284,18.1622921 11.5351417,18.6336697 12.9677882,19.1041343 C13.3105978,19.2155121 13.4653844,19.3488003 13.1719546,19.678369 C12.9279045,19.9522489 12.7398816,20.2608201 12.4227115,20.4817499 C12.0599601,20.737371 11.6934102,20.8943955 11.3316084,20.819535 Z" id="Shape" fill="#000000"></path>
                <path d="M20.3279621,20.8097568 C19.2624985,20.9238734 18.7743985,20.2063083 18.2673062,19.531651 C18.1001747,19.3098083 18.3147867,19.1838236 18.4876159,19.1281347 C19.5806182,18.7730039 20.6812174,18.4370446 21.7761188,18.0864784 C22.1455175,17.9677972 22.5073193,17.8253797 22.8719699,17.6920915 C22.9712281,17.640679 23.0912672,17.6431049 23.1881904,17.698482 C23.2780959,17.7697176 23.3027922,17.8922587 23.2470663,17.9906205 C22.8282878,18.9692844 22.4304008,19.952513 21.4276116,20.5660038 C21.0620114,20.7905852 20.7030584,20.8280155 20.3279621,20.8097568 Z" id="Shape" fill="#000000"></path>
                <path d="M4.67813697,18.6409813 C3.57943704,18.6035511 2.9109109,17.9626723 2.39907057,17.1501621 C2.11418727,16.703738 1.93281157,16.2007121 1.69825765,15.725987 C1.65362593,15.6346938 1.6251376,15.5607462 1.70870337,15.482234 C1.79226914,15.4037218 1.87583491,15.482234 1.96035029,15.509622 C3.1179261,15.8684046 4.28784685,16.201625 5.43497694,16.5987508 C5.75499584,16.7092156 6.0797628,16.8169417 6.39978171,16.9337971 C6.66567279,17.0305679 6.77202922,17.1556397 6.58970391,17.4441265 C6.13863869,18.1443459 5.53468609,18.5834666 4.67813697,18.6409813 Z" id="Shape" fill="#000000"></path>
                <path d="M26.8526221,18.6414415 C25.9561893,18.648745 25.1917524,17.9932593 24.8660358,17.3304701 C24.7169469,17.0273764 25.0369658,16.9735134 25.2192911,16.9086952 C25.7425268,16.7261086 26.2800066,16.571823 26.80894,16.4001916 C27.7129696,16.1071402 28.6132009,15.8076983 29.5172305,15.512821 C29.6121916,15.4808683 29.7138,15.3941397 29.821106,15.4973011 C29.8818555,15.5500153 29.894285,15.6371306 29.850544,15.7036239 C29.4706996,16.4248408 29.2275992,17.2145276 28.6207977,17.819802 C28.1336473,18.309134 27.5838225,18.6469191 26.8526221,18.6414415 Z" id="Shape" fill="#000000"></path>
            </g>
        </g>
    </g>
</svg>