<?xml version="1.0" encoding="UTF-8"?>
<svg width="32px" height="32px" viewBox="0 0 32 32" version="1.1" xmlns="http://www.w3.org/2000/svg" xmlns:xlink="http://www.w3.org/1999/xlink">
    <!-- Generator: Sketch 43.2 (39069) - http://www.bohemiancoding.com/sketch -->
    <title>sim-delivery</title>
    <desc>Created with Sketch.</desc>
    <defs></defs>
    <g id="Page-1" stroke="none" stroke-width="1" fill="none" fill-rule="evenodd">
        <g id="sim-delivery" fill="#000000">
            <path d="M18.7763302,17.7036867 L7.32871329,17.7036867 C6.44911893,17.7036867 6.28533301,17.8450275 6.3952147,18.7294895 C6.46813865,19.316036 6.44605414,19.8969937 6.45759217,20.4804754 C6.47210484,21.2152134 6.66590766,21.4226275 7.38577245,21.4262332 C7.65610484,21.4275853 7.92760907,21.4141543 8.19658935,21.434436 C8.46412738,21.4545374 8.71589076,21.5331402 8.70471329,21.876667 C8.69398653,22.2055909 8.47773865,22.3021317 8.18568231,22.3001486 C7.82511893,22.297805 7.46428513,22.3089825 7.10408231,22.2979853 C6.27812175,22.2727458 5.59575555,21.5914613 5.58971611,20.7589205 C5.57835837,19.1665825 5.59124851,17.573974 5.58205414,15.9815458 C5.58025132,15.6656022 5.67174428,15.4191571 6.00508513,15.4155515 C6.3159809,15.4122163 6.39710766,15.6949881 6.45245414,15.949005 C6.51771611,16.2484529 6.30155837,16.6612979 6.58703442,16.832205 C6.7999471,16.9596641 7.16141189,16.8285994 7.45662315,16.8308529 C9.16884851,16.8440134 10.8833274,16.9229768 12.5925781,16.8594275 C13.8608598,16.8121937 15.1260767,16.8611402 16.3920147,16.8491515 C17.3812203,16.8396867 18.3751133,16.8412191 19.3679246,16.8793486 C20.3560485,16.9172979 21.3595865,16.7737937 22.3457274,16.8861092 C23.3018513,16.9949994 24.2406682,16.7397205 25.2023809,16.8878219 C25.8778063,16.9918444 26.5897386,16.8297712 27.2822006,16.8591571 C28.4035527,16.9067515 29.5207584,16.7970501 30.6406682,16.8257148 C31.0900203,16.8371627 31.141671,16.7323289 31.068657,16.2829768 C30.9847358,15.7665599 30.6034401,15.4611627 30.2967809,15.1009599 C29.133964,13.735236 27.9674513,12.372667 26.8042739,11.0072134 C26.4777837,10.6239346 26.061333,10.4826839 25.5666401,10.4890839 C24.6654119,10.5008923 23.7636429,10.4791684 22.862595,10.4975571 C22.4258626,10.5063909 22.2676654,10.2916754 22.2640598,9.89902189 C22.260364,9.50844161 22.2649612,9.11777118 22.2609048,8.7271909 C22.2554964,8.1911233 21.9744372,7.90141062 21.4344034,7.88103879 C21.179395,7.87139372 20.9236654,7.87842471 20.6682964,7.87842471 C16.3116091,7.87833456 11.9549217,7.87824442 7.59814428,7.87842471 C6.85258935,7.87851485 6.49283724,8.23412048 6.46002597,8.99545006 C6.45110203,9.20250358 6.48887104,9.41172048 6.38755273,9.6139064 C6.28947949,9.80969231 6.14173865,9.94210921 5.93378372,9.91164161 C5.70500625,9.87819935 5.59395273,9.71639654 5.58214428,9.46292048 C5.55582315,8.89611485 5.61297245,8.35581062 5.93360344,7.86832893 C6.28244851,7.33785006 6.72819499,6.99901062 7.40497245,7.00000217 C12.0771527,7.00730358 16.749333,7.00171485 21.4215133,7.0055909 C22.4509217,7.00649231 23.1287809,7.7003064 23.1375246,8.7247571 C23.1461781,9.73775992 23.0036654,9.60705569 24.0167584,9.61742189 C24.6420654,9.62382189 25.2681837,9.60939935 25.8925894,9.63526978 C26.8640372,9.67556273 27.4227302,10.3442275 27.983857,11.026143 C28.7910682,12.0069656 29.6283865,12.9628191 30.452364,13.9296698 C30.8210401,14.3621656 31.2116203,14.7783458 31.5502795,15.2332867 C31.8513499,15.6376585 31.9666401,16.1250501 31.9684429,16.6295684 C31.9728598,17.9215571 31.9758344,19.2135458 31.9682626,20.5055346 C31.9616823,21.6249937 31.2814795,22.296543 30.1685105,22.3005092 C29.9582119,22.3012303 29.7476429,22.304205 29.5377048,22.2943796 C29.2957668,22.2830219 29.1508203,22.1564641 29.120533,21.908667 C29.0882626,21.6445543 29.2458288,21.5028529 29.466133,21.4617486 C29.6993274,21.4183909 29.9436992,21.431912 30.1832936,21.4266839 C30.748026,21.4140641 31.0694682,21.1460754 31.085964,20.5882839 C31.1112936,19.7327571 31.0905612,18.8758782 31.0959696,18.0196303 C31.0974119,17.785174 30.9875302,17.6993599 30.7647922,17.7031458 C30.4043189,17.7092754 30.0437555,17.7037768 29.6831922,17.7037768 C26.0475415,17.7036867 22.4119809,17.7036867 18.7763302,17.7036867 M25.6676158,24.400863 C26.9009229,24.4012236 27.7319313,23.5482208 27.7686186,22.3220348 C27.7988158,21.3120067 26.8509848,20.2119278 25.6596834,20.2702489 C24.3640891,20.3335278 23.6118637,21.1924799 23.6048327,22.4255165 C23.5988834,23.478632 24.5689792,24.5058771 25.6676158,24.400863 M25.6764496,19.4431165 C27.2677961,19.3172799 28.6490243,20.7785532 28.6431651,22.3747672 C28.6376665,23.8565926 27.3436947,25.3131785 25.6827595,25.2928067 C24.1574863,25.2739672 22.7278524,24.0234433 22.7297454,22.3488968 C22.7318186,20.6800292 24.1066468,19.3609982 25.6764496,19.4431165 M12.1718457,24.400863 C13.3896485,24.3925701 14.2517555,23.4617757 14.2020879,22.340694 C14.143226,21.0118377 13.3467415,20.2894489 12.108026,20.2690771 C11.039226,20.2515898 10.0925668,21.0483447 10.0510119,22.3746771 C10.0196429,23.3736179 11.0593274,24.5379672 12.1718457,24.400863 M15.023902,22.3341137 C15.1824598,23.8814715 13.630595,25.3298546 12.0897274,25.2982151 C10.556702,25.2666658 9.17015555,23.9432179 9.17123724,22.3288856 C9.17222879,20.8390377 10.6004203,19.3811898 12.1906851,19.4053475 C13.580026,19.4264405 15.2052654,20.8607616 15.023902,22.3341137 M28.3580226,14.9237971 C27.679262,14.1182985 26.9589465,13.3445295 26.3392282,12.4973858 C25.9727155,11.9964732 25.5565353,11.8881239 24.9993747,11.9252619 C24.7005578,11.945183 24.5666986,12.016214 24.5737296,12.3385577 C24.5904057,13.1026816 24.5910367,13.867707 24.5737296,14.6317408 C24.5661578,14.964721 24.7175043,15.0334985 25.0096508,15.0302534 C25.983893,15.019076 26.9583155,15.0281802 27.9325578,15.023583 C28.060017,15.0230422 28.2020789,15.070907 28.3580226,14.9237971 M26.6202874,15.899752 C25.9593747,15.9002929 25.2983719,15.9066027 24.6376395,15.8985802 C23.9524789,15.8902872 23.7072958,15.646276 23.7051324,14.9801351 C23.7017972,13.9436957 23.7015268,12.9072563 23.705493,11.8708168 C23.7075663,11.3077971 23.9591494,11.0664901 24.5341578,11.0605408 C24.7294029,11.0584675 24.9301465,11.0897464 25.1189916,11.054952 C25.9637916,10.8993689 26.5210423,11.2845408 27.0193409,11.9283267 C27.7505634,12.8729126 28.5429916,13.7702647 29.3135155,14.6842027 C29.524986,14.9350647 29.5990817,15.2084619 29.4845127,15.5180957 C29.3638141,15.8444957 29.0690536,15.8892957 28.7831268,15.8947041 C28.0623606,15.908045 27.3412339,15.899121 26.6202874,15.899752 M5.79758991,11.1228732 C4.77881808,11.1228732 3.76004625,11.1272901 2.74136456,11.1201689 C2.44110541,11.1180957 2.08117301,11.1180957 2.09208006,10.6945239 C2.10199555,10.3074591 2.41730822,10.2477858 2.74334766,10.2481464 C4.81081808,10.2503999 6.87837865,10.2503999 8.94584907,10.2482365 C9.24322372,10.2479661 9.50210822,10.304214 9.51400682,10.6647774 C9.52689696,11.0515717 9.26467724,11.1252168 8.94377583,11.1241351 C7.89507724,11.1206196 6.84628851,11.1228732 5.79758991,11.1228732 M3.70643949,14.9991458 C2.71588175,14.999236 1.72541414,15.0004979 0.734856393,14.9977937 C0.600816957,14.9974332 0.460828224,14.9984247 0.334090196,14.9620979 C0.112794422,14.8987289 -0.0322421981,14.7593712 0.00615780192,14.5005768 C0.0392394921,14.2768472 0.172557802,14.1562388 0.39313245,14.1324416 C0.482281746,14.1227965 0.572963436,14.1253205 0.66301414,14.1252303 C2.70407329,14.1249599 4.74513245,14.1251402 6.78628175,14.1248698 C7.07662541,14.1248698 7.4237578,14.1060303 7.42664231,14.5009374 C7.42952682,14.8903458 7.12467048,15.0025712 6.76807329,15.0007684 C5.74758879,14.9957205 4.72701414,14.9990557 3.70643949,14.9991458 M4.75987048,13.0156146 C3.72460287,13.0162456 2.68924513,13.0120089 1.65397752,13.0188596 C1.34867048,13.0208427 1.02434372,13.004347 1.03191555,12.6224202 C1.03912682,12.2612258 1.34479442,12.1444934 1.67615217,12.1439526 C2.95146484,12.1414286 4.22677752,12.1419695 5.5020902,12.1417892 C6.28234935,12.1417892 7.06251837,12.1417892 7.84277752,12.1436822 C8.07642259,12.144223 8.30312682,12.1860484 8.41228738,12.421947 C8.56210146,12.7454625 8.3820902,13.0093948 8.00070428,13.0121892 C6.92045639,13.0201216 5.84011837,13.0149836 4.75987048,13.0156146 M18.9126051,21.4268371 C19.7971572,21.4263864 20.6815291,21.4257554 21.565991,21.4271075 C21.6856079,21.4272878 21.8148699,21.4104315 21.9227685,21.4491019 C22.1251347,21.5215751 22.3127178,21.6504765 22.2997375,21.8937667 C22.2870277,22.1348033 22.1094502,22.254961 21.8813037,22.2890343 C21.7782727,22.3045385 21.6719065,22.3002117 21.5670727,22.3003019 C19.7982389,22.3008427 18.0294051,22.3007526 16.2604812,22.3006625 C16.2155009,22.3006625 16.1705206,22.2996709 16.1256305,22.3000315 C15.8319516,22.3023751 15.5392643,22.2290906 15.534577,21.8950286 C15.5298896,21.5562794 15.8006727,21.426747 16.1243685,21.4270174 C17.0538108,21.4279188 17.9831629,21.4273779 18.9126051,21.4268371 M25.1495764,22.3480495 C25.1511088,21.9498072 25.3947595,21.7040833 25.7924609,21.6999368 C26.1380609,21.6963312 26.4739257,22.0150692 26.4659933,22.3390354 C26.4573398,22.6855368 26.1361679,23.0139199 25.8070637,23.0126579 C25.4774186,23.011396 25.1484046,22.6788664 25.1495764,22.3480495 M11.4505386,22.3316799 C11.4465724,22.0105081 11.7835189,21.6954658 12.1260541,21.6998827 C12.5050964,21.7048405 12.7568598,21.9412799 12.7649724,22.2996799 C12.7726344,22.6446489 12.4616485,23.0025081 12.1495809,23.0078264 C11.7850513,23.0140461 11.4549555,22.6947672 11.4505386,22.3316799 M19.9825569,9.17287452 C19.8687852,9.06041478 19.714732,8.99817445 19.5547704,9.00004079 L18.5571256,9.00004079 L10.8862352,9.00004079 C10.7262735,8.99817445 10.5722204,9.06041478 10.4584486,9.17287452 C10.3446769,9.28533425 10.2806539,9.43865513 10.2806648,9.59862764 L10.2806648,14.7863803 L10.2806648,15.1764594 C10.2806539,15.3364319 10.3446769,15.4897528 10.4584486,15.6022126 C10.5722204,15.7146723 10.7262735,15.7769126 10.8862352,15.7750463 L17.8388214,15.7750463 C18.0635577,15.7747151 18.2789269,15.6849779 18.4374083,15.5256351 L19.906939,14.0610926 C20.0660961,13.9024866 20.1557997,13.6871979 20.1563502,13.4625058 L20.1563502,10.5603572 L20.1563502,9.59862764 C20.1603516,9.43865513 20.0963287,9.28533425 19.9825569,9.17287452 Z M15.4953153,9.85715665 C15.8264439,9.85821725 16.0955327,10.1246418 16.099888,10.4557435 L16.099888,11.1710548 L14.8308839,11.1710548 L14.8308839,9.85316607 L15.4953153,9.85316607 L15.4953153,9.85715665 Z M11.7384036,15.156487 C11.4072749,15.1554264 11.1381862,14.8890019 11.1338309,14.5579002 L11.1338309,13.8346078 L12.3120493,13.8346078 L12.3120493,15.1514988 L11.7413965,15.1514988 L11.7384036,15.156487 Z M12.3080588,13.3722787 L11.1338309,13.3722787 L11.1338309,11.8438869 L12.3080588,11.8438869 L12.3080588,13.3722787 L12.3080588,13.3722787 Z M12.3080588,11.1650689 L11.1338309,11.1650689 L11.1338309,10.4517529 C11.1381862,10.1206512 11.4072749,9.85422667 11.7384036,9.85316607 L12.3080588,9.85316607 L12.3080588,11.1700571 L12.3080588,11.1650689 Z M14.3575807,15.0409188 L12.840163,15.0409188 L12.840163,9.85316607 L14.3575807,9.85316607 L14.3575807,15.0409188 L14.3575807,15.0409188 Z M14.8308839,11.8438869 L16.1028809,11.8438869 L16.1028809,13.3283823 L14.8308839,13.3283823 L14.8308839,11.8438869 L14.8308839,11.8438869 Z M16.1018833,14.5479237 C16.097528,14.8790255 15.8284392,15.14545 15.4973106,15.1465106 L14.8308839,15.1465106 L14.8308839,13.8346078 L16.1018833,13.8346078 L16.1018833,14.5479237 L16.1018833,14.5479237 Z" id="Combined-Shape"></path>
        </g>
    </g>
</svg>