<?xml version="1.0" encoding="UTF-8"?>
<svg width="32px" height="32px" viewBox="0 0 32 32" version="1.1" xmlns="http://www.w3.org/2000/svg" xmlns:xlink="http://www.w3.org/1999/xlink">
    <!-- Generator: Sketch 43.2 (39069) - http://www.bohemiancoding.com/sketch -->
    <title>smartwatch</title>
    <desc>Created with Sketch.</desc>
    <defs></defs>
    <g id="Page-1" stroke="none" stroke-width="1" fill="none" fill-rule="evenodd">
        <g id="smartwatch" fill-rule="nonzero" fill="#000000">
            <path d="M25.8695652,17.3913043 C25.8361739,17.3913043 25.8048696,17.3836522 25.7714783,17.3815652 C25.3937391,20.2177391 23.8772174,22.6914783 21.6956522,24.3332174 L21.6956522,29.2173913 C21.6956522,30.754087 20.4497391,32 18.9130435,32 L11.9565217,32 C10.4198261,32 9.17391304,30.754087 9.17391304,29.2173913 L9.17391304,24.3332174 C6.64382609,22.4292174 5,19.410087 5,16 C5,12.5892174 6.64382609,9.57008696 9.17391304,7.66678261 L9.17391304,2.7826087 C9.17391304,1.24591304 10.4198261,0 11.9565217,0 L18.9130435,0 C20.4497391,0 21.6956522,1.24591304 21.6956522,2.7826087 L21.6956522,7.66678261 C23.877913,9.30852174 25.3937391,11.7822609 25.7714783,14.6184348 C25.8048696,14.6163478 25.8361739,14.6086957 25.8695652,14.6086957 C26.6375652,14.6086957 27.2608696,15.232 27.2608696,16 C27.2608696,16.768 26.6375652,17.3913043 25.8695652,17.3913043 Z M10.5652174,29.2173913 L10.5652174,25.2257391 C12.0198261,25.9944348 13.6754783,26.4347826 15.4347826,26.4347826 C17.194087,26.4347826 18.8497391,25.9944348 20.3043478,25.2257391 L20.3043478,29.2173913 C20.3043478,29.9853913 19.6810435,30.6086957 18.9130435,30.6086957 L11.9565217,30.6086957 C11.1885217,30.6086957 10.5652174,29.9853913 10.5652174,29.2173913 Z M20.3043478,2.7826087 L20.3043478,6.77426087 C18.8497391,6.00486957 17.194087,5.56521739 15.4347826,5.56521739 C13.6754783,5.56521739 12.0198261,6.00486957 10.5652174,6.77426087 L10.5652174,2.7826087 C10.5652174,2.0146087 11.1885217,1.39130435 11.9565217,1.39130435 L18.9130435,1.39130435 C19.6810435,1.39130435 20.3043478,2.0146087 20.3043478,2.7826087 Z M15.4347826,6.95652174 C10.44,6.95652174 6.39130435,11.0052174 6.39130435,16 C6.39130435,20.9947826 10.44,25.0434783 15.4347826,25.0434783 C20.4295652,25.0434783 24.4782609,20.9947826 24.4782609,16 C24.4782609,11.0052174 20.4295652,6.95652174 15.4347826,6.95652174 Z M16.1304348,17.9589565 L16.1304348,22.2608696 C16.1304348,22.6455652 15.8194783,22.9565217 15.4347826,22.9565217 C15.050087,22.9565217 14.7391304,22.6455652 14.7391304,22.2608696 L14.7391304,17.9589565 C13.9307826,17.6716522 13.3478261,16.9071304 13.3478261,16 C13.3478261,15.6723478 13.429913,15.3669565 13.5648696,15.090087 L11.4598261,12.9850435 C11.1947826,12.72 11.1947826,12.2893913 11.4598261,12.0243478 C11.7255652,11.7593043 12.1554783,11.7593043 12.4205217,12.0243478 L14.5255652,14.1293913 C14.8017391,13.9951304 15.1071304,13.9130435 15.4347826,13.9130435 C16.5874783,13.9130435 17.5217391,14.848 17.5217391,16 C17.5217391,16.9078261 16.9394783,17.6716522 16.1304348,17.9589565 Z M15.4347826,15.3043478 C15.050087,15.3043478 14.7391304,15.6153043 14.7391304,16 C14.7391304,16.3846957 15.050087,16.6956522 15.4347826,16.6956522 C15.8194783,16.6956522 16.1304348,16.3846957 16.1304348,16 C16.1304348,15.6153043 15.8194783,15.3043478 15.4347826,15.3043478 Z" id="Shape"></path>
        </g>
    </g>
</svg>