<?xml version="1.0" encoding="UTF-8"?>
<svg width="32px" height="32px" viewBox="0 0 32 32" version="1.1" xmlns="http://www.w3.org/2000/svg" xmlns:xlink="http://www.w3.org/1999/xlink">
    <!-- Generator: Sketch 43.2 (39069) - http://www.bohemiancoding.com/sketch -->
    <title>Support</title>
    <desc>Created with Sketch.</desc>
    <defs></defs>
    <g id="Page-1" stroke="none" stroke-width="1" fill="none" fill-rule="evenodd">
        <g id="Support" fill="#000000">
            <path d="M28.839902,21.8676109 C28.839902,22.3420284 28.445298,22.7280779 27.961175,22.7280779 L25.5580523,22.7280779 C25.0734148,22.7280779 24.6788108,22.3420284 24.6788108,21.8676109 L24.6788108,17.1038897 C24.6788108,16.629065 25.0734148,16.2426082 25.5580523,16.2426082 L27.961175,16.2426082 C28.445298,16.2426082 28.839902,16.629065 28.839902,17.1038897 L28.839902,21.8676109 Z M6.96176121,21.7983826 C6.96176121,22.2736145 6.56767172,22.6596641 6.08354872,22.6596641 L3.67991147,22.6596641 C3.19475952,22.6596641 2.80067003,22.2736145 2.80067003,21.7983826 L2.80067003,17.0346614 C2.80067003,16.5598367 3.19475952,16.1737871 3.67991147,16.1737871 L6.08354872,16.1737871 C6.56767172,16.1737871 6.96176121,16.5598367 6.96176121,17.0346614 L6.96176121,21.7983826 Z M15.8966859,4 C9.31549418,4 3.92634603,9.33077361 3.61817422,14.7513492 C2.16889208,14.779855 1,15.792217 1,17.0346614 L1,21.7983826 C1,23.0591521 2.2023331,24.0849525 3.67991147,24.0849525 L6.08354872,24.0849525 C7.56061262,24.0849525 8.76243124,23.0591521 8.76243124,21.7983826 L8.76243124,17.0346614 C8.76243124,15.7742991 7.56061262,14.7484987 6.08354872,14.7484987 L5.42090215,14.7484987 C5.72650158,10.1159039 10.3079206,5.42528846 15.8966859,5.42528846 C21.5137474,5.42528846 26.1126586,10.152147 26.3770999,14.8173197 L25.5580523,14.8173197 C24.0804739,14.8173197 22.8781408,15.8431202 22.8781408,17.1038897 L22.8781408,21.8676109 C22.8781408,22.4145145 23.1055397,22.9166232 23.482137,23.3104101 L17.8172291,26.5987542 L14.2843145,26.5987542 C13.8655301,26.5987542 13.6551089,26.7636804 13.6551089,27.095569 L13.6551089,27.9906502 L18.4443767,27.9906502 L25.1300073,24.1216028 C25.2699451,24.1407424 25.4119408,24.1533664 25.5580523,24.1533664 L27.961175,24.1533664 C29.4387534,24.1533664 30.640572,23.1279731 30.640572,21.8676109 L30.640572,17.1038897 C30.640572,15.9054257 29.5545108,14.9215694 28.1782844,14.8266859 C27.9153866,9.37108891 22.5082317,4 15.8966859,4 Z" id="Combined-Shape"></path>
        </g>
    </g>
</svg>