<?xml version="1.0" encoding="UTF-8"?>
<svg width="32px" height="32px" viewBox="0 0 32 32" version="1.1" xmlns="http://www.w3.org/2000/svg" xmlns:xlink="http://www.w3.org/1999/xlink">
    <!-- Generator: Sketch 43.2 (39069) - http://www.bohemiancoding.com/sketch -->
    <title>tablet</title>
    <desc>Created with Sketch.</desc>
    <defs></defs>
    <g id="Page-1" stroke="none" stroke-width="1" fill="none" fill-rule="evenodd">
        <g id="tablet" stroke="#000000">
            <path d="M28.6792453,0.5 L3.32075472,0.5 C2.58113208,0.5 2,1.04126984 2,1.73015873 L2,30.2698413 C2,30.9587302 2.58113208,31.5 3.32075472,31.5 L28.6792453,31.5 C29.4188679,31.5 30,30.9587302 30,30.2698413 L30,1.73015873 C30,1.04126984 29.4188679,0.5 28.6792453,0.5 Z" id="Path"></path>
            <path d="M17.8717949,2 L13.2564103,2 C13.1025641,2 13,2.1015873 13,2.25396825 C13,2.40634921 13.1025641,2.50793651 13.2564103,2.50793651 L17.8717949,2.50793651 C18.025641,2.50793651 18.1282051,2.40634921 18.1282051,2.25396825 C18.1282051,2.1015873 18.025641,2 17.8717949,2 Z" id="Shape" stroke-width="0.7"></path>
            <path d="M16.6666667,26.8698413 C15.8205128,26.8698413 15.1282051,27.5555556 15.1282051,28.3936508 C15.1282051,29.231746 15.8205128,29.9174603 16.6666667,29.9174603 C17.5128205,29.9174603 18.2051282,29.231746 18.2051282,28.3936508 C18.2051282,27.5555556 17.5128205,26.8698413 16.6666667,26.8698413 Z" id="Shape" stroke-width="0.7"></path>
        </g>
    </g>
</svg>