<?xml version="1.0" encoding="UTF-8"?>
<svg width="32px" height="32px" viewBox="0 0 32 32" version="1.1" xmlns="http://www.w3.org/2000/svg" xmlns:xlink="http://www.w3.org/1999/xlink">
    <!-- Generator: Sketch 43.2 (39069) - http://www.bohemiancoding.com/sketch -->
    <title>tablet-mobile</title>
    <desc>Created with Sketch.</desc>
    <defs></defs>
    <g id="Page-1" stroke="none" stroke-width="1" fill="none" fill-rule="evenodd">
        <g id="tablet-mobile" fill-rule="nonzero" fill="#fff">
            <path d="M5.16129032,26.6666667 L0.806451613,26.6666667 C0.35483871,26.6666667 0,26.2941799 0,25.8201058 L0,6.17989418 C0,5.70582011 0.35483871,5.33333333 0.806451613,5.33333333 L5.16129032,5.33333333 L5.16129032,1.26984127 C5.16129032,0.558730159 5.71832015,0 6.42726719,0 L30.7340231,1.53950926e-15 C31.4429702,1.53950926e-15 32,0.558730159 32,1.26984127 L32,30.7301587 C32,31.4412698 31.4429702,32 30.7340231,32 L6.42726719,32 C5.71832015,32 5.16129032,31.4412698 5.16129032,30.7301587 L5.16129032,26.6666667 Z M6.19354839,26.6666667 L6.19354839,30.1446009 C6.19354839,30.5915493 6.53763441,30.9333333 6.98759305,30.9333333 L30.1736973,30.9333333 C30.6236559,30.9333333 30.9677419,30.5915493 30.9677419,30.1446009 L30.9677419,1.85539906 C30.9677419,1.4084507 30.6236559,1.06666667 30.1736973,1.06666667 L6.98759305,1.06666667 C6.53763441,1.06666667 6.19354839,1.4084507 6.19354839,1.85539906 L6.19354839,5.33333333 L9.51612903,5.33333333 C9.96774194,5.33333333 10.3225806,5.70582011 10.3225806,6.17989418 L10.3225806,25.8201058 C10.3225806,26.2941799 9.96774194,26.6666667 9.51612903,26.6666667 L6.19354839,26.6666667 Z M16.516129,2.63333333 C16.516129,2.35719096 16.7379032,2.13333333 17.0110152,2.13333333 L21.1825331,2.13333333 C21.4558512,2.13333333 21.6774194,2.36526693 21.6774194,2.63333333 C21.6774194,2.90947571 21.4556452,3.13333333 21.1825331,3.13333333 L17.0110152,3.13333333 C16.7376971,3.13333333 16.516129,2.90139974 16.516129,2.63333333 Z M19.2196621,26.8698413 C20.030722,26.8698413 20.6943164,27.5555556 20.6943164,28.3936508 C20.6943164,29.231746 20.030722,29.9174603 19.2196621,29.9174603 C18.4086022,29.9174603 17.7450077,29.231746 17.7450077,28.3936508 C17.7450077,27.5555556 18.4086022,26.8698413 19.2196621,26.8698413 Z M19.2196621,29.4095238 C19.7603687,29.4095238 20.202765,28.952381 20.202765,28.3936508 C20.202765,27.8349206 19.7603687,27.3777778 19.2196621,27.3777778 C18.6789555,27.3777778 18.2365591,27.8349206 18.2365591,28.3936508 C18.2365591,28.952381 18.6789555,29.4095238 19.2196621,29.4095238 Z M9.29032258,25.1278689 L9.29032258,6.87213115 C9.29032258,6.60459016 9.11139785,6.4 8.87741935,6.4 L1.44516129,6.4 C1.2111828,6.4 1.03225806,6.60459016 1.03225806,6.87213115 L1.03225806,25.1278689 C1.03225806,25.3954098 1.2111828,25.6 1.44516129,25.6 L8.87741935,25.6 C9.11139785,25.6 9.29032258,25.3954098 9.29032258,25.1278689 Z M5.16129032,3.2 L5.16129032,5.33333333 L6.19354839,5.33333333 L6.19354839,3.2 L5.16129032,3.2 Z M5.16129032,26.6666667 L5.16129032,28.8 L6.19354839,28.8 L6.19354839,26.6666667 L5.16129032,26.6666667 Z M4.12903226,7.81666666 C4.12903226,7.623367 4.29103138,7.46666667 4.48864352,7.46666667 L5.83393712,7.46666667 C6.03254494,7.46666667 6.19354839,7.62902018 6.19354839,7.81666666 L6.19354839,7.81666666 C6.19354839,8.00996632 6.03154927,8.16666665 5.83393712,8.16666665 L4.48864352,8.16666665 C4.29003571,8.16666665 4.12903226,8.00431314 4.12903226,7.81666666 L4.12903226,7.81666666 Z M5.28417819,22.3198413 C4.73924731,22.3198413 4.29339478,22.7805556 4.29339478,23.3436508 C4.29339478,23.906746 4.73924731,24.3674603 5.28417819,24.3674603 C5.82910906,24.3674603 6.2749616,23.906746 6.2749616,23.3436508 C6.2749616,22.7805556 5.82910906,22.3198413 5.28417819,22.3198413 Z M5.28417819,24.0261905 C4.92089094,24.0261905 4.62365591,23.7190476 4.62365591,23.3436508 C4.62365591,22.968254 4.92089094,22.6611111 5.28417819,22.6611111 C5.64746544,22.6611111 5.94470046,22.968254 5.94470046,23.3436508 C5.94470046,23.7190476 5.64746544,24.0261905 5.28417819,24.0261905 Z" id="Combined-Shape"></path>
        </g>
    </g>
</svg>