<?xml version="1.0" encoding="UTF-8"?>
<svg width="32px" height="32px" viewBox="0 0 32 32" version="1.1" xmlns="http://www.w3.org/2000/svg" xmlns:xlink="http://www.w3.org/1999/xlink">
    <!-- Generator: Sketch 43.2 (39069) - http://www.bohemiancoding.com/sketch -->
    <title>versions</title>
    <desc>Created with Sketch.</desc>
    <defs></defs>
    <g id="Page-1" stroke="none" stroke-width="1" fill="none" fill-rule="evenodd">
        <g id="versions">
            <path d="M0,22.842804 C0,23.9736083 0.908516614,24.8903064 2.04683176,24.8903064 L4.09366351,24.8903064 L4.09366351,24.1544693 L1.97340049,24.1544693 C1.41749445,24.1544693 0.966843567,23.7147516 0.966843567,23.1544171 L0.966843567,9.91279624 C0.966843567,9.36048268 1.41484063,8.91274408 1.97340049,8.91274408 L4.09366351,8.91274408 L4.09366351,8.19230769 L1.99886304,8.19230769 C0.894921467,8.19230769 0,9.09006462 0,10.1898908 L0,22.842804 Z" id="Path" fill="#DA3F7B"></path>
            <path d="M5.5,25.0807942 C5.5,26.5446468 6.68927601,27.7313339 8.14967151,27.7313339 L10.799343,27.7313339 L10.799343,26.7787756 L7.75216712,26.7787756 C7.19957003,26.7787756 6.75160158,26.3295991 6.75160158,25.7731979 L6.75160158,8.05358404 C6.75160158,7.49821881 7.20024634,7.04800634 7.75216712,7.04800634 L10.799343,7.04800634 L10.799343,6.11538462 L7.50345437,6.11538462 C6.39697708,6.11538462 5.5,7.0166748 5.5,8.11021587 L5.5,25.0807942 Z" id="Path" fill="#DA3F7B"></path>
            <path d="M14.9950893,3.5 C13.6143855,3.5 12.5,4.61632887 12.5,6.00359486 L12.5,26.9964051 C12.5,28.3788152 13.6161898,29.5 14.9950893,29.5 L29.0049107,29.5 C30.3856145,29.5 31.5,28.3836711 31.5,26.9964051 L31.5,6.00359486 C31.5,4.62118483 30.3838102,3.5 29.0049107,3.5 L14.9950893,3.5 Z" id="Path" stroke="#DA3F7B"></path>
        </g>
    </g>
</svg>