<?xml version="1.0" encoding="UTF-8"?>
<svg width="32px" height="32px" viewBox="0 0 32 32" version="1.1" xmlns="http://www.w3.org/2000/svg" xmlns:xlink="http://www.w3.org/1999/xlink">
    <!-- Generator: Sketch 43.2 (39069) - http://www.bohemiancoding.com/sketch -->
    <title>windows</title>
    <desc>Created with Sketch.</desc>
    <defs></defs>
    <g id="Page-1" stroke="none" stroke-width="1" fill="none" fill-rule="evenodd">
        <g id="windows" fill-rule="nonzero" fill="#000000">
            <path d="M11.1485714,16.8477922 C11.7636364,16.8477922 12.278961,17.3464935 12.278961,17.9864935 L12.278961,27.2124675 C12.278961,27.8025974 11.8051948,28.3096104 11.2233766,28.3345455 L10.6498701,28.2348052 L1.88935065,26.481039 C1.38233766,26.372987 1,25.9324675 1,25.3838961 L1,17.9864935 C1,17.3548052 1.4987013,16.8477922 2.11376623,16.8477922 L11.1485714,16.8477922 Z M29.1267532,16.8477922 C29.7418182,16.8477922 30.2571429,17.3464935 30.2488312,17.9864935 L30.2488312,30.8031169 C30.2488312,31.4264935 29.7335065,31.9251948 29.1184416,31.9251948 C29.0602597,31.9251948 29.0020779,31.9251948 28.9438961,31.8919481 C28.9355844,31.9002597 28.9272727,31.9002597 28.918961,31.9002597 C28.9023377,31.9002597 28.8774026,31.8836364 28.8607792,31.8753247 L15.1714286,29.1407792 L15.1464935,29.1407792 L14.705974,29.0493506 L14.6893506,29.0327273 C14.307013,28.8581818 14.0327273,28.4758442 14.0327273,28.0187013 L14.0327273,28.0020779 L14.0327273,17.9864935 C14.0327273,17.3548052 14.5314286,16.8477922 15.1464935,16.8477922 L29.1267532,16.8477922 Z M29.1267532,0 C29.7418182,0 30.2571429,0.507012987 30.2571429,1.12207792 L30.2571429,13.9303896 C30.2571429,14.5620779 29.7418182,15.0690909 29.1267532,15.0690909 L15.1464935,15.0690909 C14.5314286,15.0690909 14.0327273,14.5620779 14.0327273,13.9303896 L14.0327273,3.91480519 C14.0327273,3.45766234 14.307013,3.0587013 14.6893506,2.88415584 C14.705974,2.86753247 14.7225974,2.86753247 14.7225974,2.86753247 L15.1464935,2.7761039 L15.1714286,2.7761039 L28.8690909,0.0498701299 C28.8857143,0.0332467532 28.9106494,0.0249350649 28.9272727,0.0249350649 C28.9355844,0.0249350649 28.9438961,0.0249350649 28.9522078,0.0332467532 C29.0103896,0 29.0685714,0 29.1267532,0 Z M11.2233766,3.57402597 C11.8135065,3.60727273 12.278961,4.10597403 12.2872727,4.6961039 L12.2872727,13.9303896 C12.2872727,14.5620779 11.7719481,15.0690909 11.1568831,15.0690909 L2.11376623,15.0690909 C1.4987013,15.0690909 1,14.5620779 1,13.9303896 L1,6.53298701 C1,5.98441558 1.38233766,5.5438961 1.88935065,5.43584416 L10.6498701,3.67376623 L11.2233766,3.57402597 Z" id="Combined-Shape"></path>
        </g>
    </g>
</svg>