<svg xmlns="http://www.w3.org/2000/svg" viewBox="0 0 597.14 705"><defs><style>.cls-1,.cls-3{fill:#dc407e;}.cls-1{fill-rule:evenodd;}.cls-2{fill:#623296;}.cls-4{fill:#da3e7c;}.cls-5{fill:#eeab2a;}.cls-6{fill:#d4d5d6;}.cls-7{fill:#414b5b;}.cls-8{fill:#fff;}.cls-9{fill:#e5e5e5;}.cls-10{opacity:0.7;}.cls-11{fill:#a81818;}.cls-12{fill:#f9d4ac;}.cls-13{fill:#fff3d9;}.cls-14{fill:#596273;}</style></defs><title>cancelService</title><g id="Layer_2" data-name="Layer 2"><g id="Layer_3" data-name="Layer 3"><path class="cls-1" d="M441.82,217.09a7.7,7.7,0,0,1-5.64-2.37,7.59,7.59,0,0,1-2.3-5.57,7.76,7.76,0,0,1,2.3-5.57,7.67,7.67,0,0,1,5.64-2.3,7.52,7.52,0,0,1,5.5,2.3,7.63,7.63,0,0,1,2.37,5.57,8.1,8.1,0,0,1-7.87,7.94Z"/><path class="cls-2" d="M291.23,54.55a3.08,3.08,0,0,0,3.08-3l.09-4.26a3.08,3.08,0,0,0-3-3.14,3,3,0,0,0-3.14,3l-.09,4.27a3.09,3.09,0,0,0,3,3.14Z"/><path class="cls-2" d="M279.15,59.11a3.08,3.08,0,0,0,2.23-5.21l-3-3.08A3.08,3.08,0,1,0,274,55.09l2.95,3.07A3.09,3.09,0,0,0,279.15,59.11Z"/><path class="cls-2" d="M273.84,70.88a3.08,3.08,0,0,0,.06-6.16l-4.26-.09h-.07a3.08,3.08,0,0,0-.06,6.16l4.27.09Z"/><path class="cls-2" d="M275.33,85.91a3.1,3.1,0,0,0,2.13-.86l3.08-3a3.08,3.08,0,0,0-4.27-4.45l-3.08,3a3.08,3.08,0,0,0,2.14,5.3Z"/><path class="cls-2" d="M290.08,92.53a3.07,3.07,0,0,0,3.08-3l.09-4.27a3.08,3.08,0,0,0-6.16-.12L287,89.39a3.08,3.08,0,0,0,3,3.14Z"/><path class="cls-2" d="M305.2,86.78a3,3,0,0,0,2.13-.86,3.07,3.07,0,0,0,.09-4.35l-2.95-3.08A3.08,3.08,0,0,0,300,82.76l3,3.08A3.07,3.07,0,0,0,305.2,86.78Z"/><path class="cls-2" d="M311.83,72a3.08,3.08,0,0,0,.06-6.16l-4.27-.09a3.13,3.13,0,0,0-3.14,3,3.09,3.09,0,0,0,3,3.14l4.26.09Z"/><path class="cls-2" d="M303,59.86a3,3,0,0,0,2.13-.86l3.08-3a3.08,3.08,0,1,0-4.27-4.44l-3.07,3a3.08,3.08,0,0,0-.09,4.36A3,3,0,0,0,303,59.86Z"/><path class="cls-3" d="M183.94,6.85a2,2,0,0,0,2-2L186,2.06A2,2,0,1,0,182,2l-.06,2.81a2,2,0,0,0,2,2.06Z"/><path class="cls-3" d="M176,9.84a2,2,0,0,0,1.4-.56,2,2,0,0,0,.06-2.86l-1.94-2a2,2,0,0,0-2.92,2.8l1.94,2A2,2,0,0,0,176,9.84Z"/><path class="cls-3" d="M172.52,17.57a2,2,0,0,0,0-4l-2.8-.06h0a2,2,0,0,0,0,4l2.8.05Z"/><path class="cls-3" d="M173.49,27.45a2,2,0,0,0,1.41-.57l2-1.94A2,2,0,1,0,174.11,22l-2,1.94a2,2,0,0,0-.05,2.86A2,2,0,0,0,173.49,27.45Z"/><path class="cls-3" d="M183.19,31.8a2,2,0,0,0,2-2l.06-2.8a2,2,0,0,0-4.05-.09l-.06,2.81a2,2,0,0,0,2,2.06Z"/><path class="cls-3" d="M193.12,28a2,2,0,0,0,1.4-.56,2,2,0,0,0,.06-2.86l-1.94-2a2,2,0,1,0-2.92,2.8l1.94,2A2,2,0,0,0,193.12,28Z"/><path class="cls-3" d="M197.47,18.33a2,2,0,0,0,0-4l-2.8,0a2,2,0,0,0-2.06,2,2,2,0,0,0,2,2.06l2.8.06Z"/><path class="cls-3" d="M191.67,10.34a2,2,0,0,0,1.4-.56l2-1.95a2,2,0,1,0-2.8-2.91l-2,1.94a2,2,0,0,0,1.4,3.48Z"/><path class="cls-4" d="M374.2,160.42a1.87,1.87,0,0,0,1.87-1.83l.05-2.6a1.88,1.88,0,0,0-3.75-.08l-.05,2.6a1.87,1.87,0,0,0,1.84,1.91Z"/><path class="cls-4" d="M366.84,163.2a1.87,1.87,0,0,0,1.35-3.17l-1.8-1.88a1.87,1.87,0,1,0-2.7,2.6l1.8,1.88A1.88,1.88,0,0,0,366.84,163.2Z"/><path class="cls-4" d="M363.6,170.37a1.88,1.88,0,0,0,0-3.75l-2.6-.05h0a1.88,1.88,0,0,0,0,3.75l2.6.05Z"/><path class="cls-4" d="M364.51,179.53a1.88,1.88,0,0,0,1.3-.53l1.87-1.8a1.87,1.87,0,0,0-2.6-2.7l-1.87,1.8a1.88,1.88,0,0,0,1.3,3.23Z"/><path class="cls-4" d="M373.5,183.56a1.87,1.87,0,0,0,1.87-1.84l.05-2.59a1.87,1.87,0,0,0-1.83-1.92,1.9,1.9,0,0,0-1.92,1.84l-.05,2.6a1.88,1.88,0,0,0,1.84,1.91Z"/><path class="cls-4" d="M382.71,180.06a1.89,1.89,0,0,0,1.35-3.18l-1.8-1.87a1.88,1.88,0,0,0-2.71,2.6l1.8,1.87A1.85,1.85,0,0,0,382.71,180.06Z"/><path class="cls-4" d="M386.74,171.07a1.88,1.88,0,0,0,0-3.75l-2.6,0a1.88,1.88,0,0,0-.08,3.75l2.6,0Z"/><path class="cls-4" d="M381.36,163.66a1.85,1.85,0,0,0,1.3-.52l1.88-1.8a1.88,1.88,0,0,0-2.6-2.71l-1.88,1.8a1.88,1.88,0,0,0-.05,2.65A1.85,1.85,0,0,0,381.36,163.66Z"/><path class="cls-4" d="M86.94,89.71a2.65,2.65,0,0,0,2.65-2.6l.08-3.68a2.66,2.66,0,0,0-5.32-.1L84.28,87a2.65,2.65,0,0,0,2.6,2.7Z"/><path class="cls-4" d="M76.52,93.65a2.65,2.65,0,0,0,1.91-4.5L75.88,86.5a2.66,2.66,0,0,0-3.83,3.68l2.55,2.65A2.63,2.63,0,0,0,76.52,93.65Z"/><path class="cls-4" d="M71.93,103.8A2.66,2.66,0,0,0,72,98.49l-3.68-.07h-.06a2.66,2.66,0,0,0,0,5.31l3.68.07Z"/><path class="cls-4" d="M73.22,116.77a2.68,2.68,0,0,0,1.84-.74l2.65-2.55A2.66,2.66,0,1,0,74,109.65l-2.65,2.55a2.65,2.65,0,0,0,1.84,4.57Z"/><path class="cls-4" d="M86,122.48a2.65,2.65,0,0,0,2.65-2.6l.08-3.68a2.66,2.66,0,0,0-5.32-.11l-.07,3.68a2.66,2.66,0,0,0,2.6,2.71Z"/><path class="cls-4" d="M99,117.52a2.64,2.64,0,0,0,1.84-.74,2.67,2.67,0,0,0,.07-3.76l-2.55-2.65a2.66,2.66,0,0,0-3.83,3.68l2.55,2.65A2.63,2.63,0,0,0,99,117.52Z"/><path class="cls-4" d="M104.7,104.79a2.66,2.66,0,0,0,0-5.31l-3.67-.07a2.68,2.68,0,0,0-2.71,2.6,2.65,2.65,0,0,0,2.6,2.71l3.68.07Z"/><path class="cls-4" d="M97.09,94.3a2.68,2.68,0,0,0,1.84-.74L101.58,91a2.66,2.66,0,1,0-3.68-3.83l-2.65,2.55a2.65,2.65,0,0,0,1.84,4.57Z"/><path class="cls-5" d="M343.59,101.62a12.31,12.31,0,1,1,12.31,12.31A12.32,12.32,0,0,1,343.59,101.62Zm4.42,0a7.89,7.89,0,1,0,7.89-7.89A7.9,7.9,0,0,0,348,101.62Z"/><path class="cls-2" d="M122.64,162.36A12.31,12.31,0,1,1,135,174.67,12.33,12.33,0,0,1,122.64,162.36Zm4.42,0a7.89,7.89,0,1,0,7.89-7.89A7.9,7.9,0,0,0,127.06,162.36Z"/><circle class="cls-6" cx="54.41" cy="213.48" r="6.66"/><path class="cls-7" d="M366.28,666.5a29.38,29.38,0,0,1-29.38,29.38H131.35A29.38,29.38,0,0,1,102,666.5V256.33A29.39,29.39,0,0,1,131.35,227H336.9a29.39,29.39,0,0,1,29.38,29.38Z"/><rect class="cls-8" x="120.13" y="259.64" width="227.98" height="371.46"/><circle class="cls-5" cx="7.06" cy="100.33" r="7.06"/><path class="cls-2" d="M157.51,174.93a5,5,0,1,0,5-5A5,5,0,0,0,157.51,174.93Z"/><path class="cls-2" d="M191.51,66.93a5,5,0,1,0,5-5A5,5,0,0,0,191.51,66.93Z"/><path class="cls-3" d="M229.57,166.27c1.76-2.34,9.31-11.22,12.5-14.63-5.66-6.34-8.85-10.63-13.09-15.41-5.31-5.55,1.29-7.9,4.12-5.17,6,5.66,8.26,9.17,13.8,15.22,4.48-5,11.44-13.75,14-16,3.06-3.21,9.78.2,6.6,3.81-2.59,3.51-10.73,11.11-15.69,16.67,5.43,5.27,21.35,21.94,15.1,23.7-3.65,1.17-5.07-.59-6.37-2.64a191.6,191.6,0,0,0-13.68-16.77c-3.18,2.64-11,13.26-12.85,16.48-1.3,2.15-3.54,4.2-6,3.22C226.15,174.17,225.08,172,229.57,166.27Z"/><path class="cls-8" d="M394.71,136.06c1-1.32,5.13-6.33,6.89-8.26-3.12-3.59-4.88-6-7.21-8.71-2.93-3.14.71-4.47,2.27-2.92,3.31,3.19,4.55,5.18,7.6,8.6,2.47-2.82,6.3-7.78,7.73-9,1.69-1.82,5.4.11,3.64,2.15-1.43,2-5.91,6.28-8.64,9.42,3,3,11.76,12.4,8.32,13.39-2,.66-2.8-.33-3.51-1.48a104.54,104.54,0,0,0-7.54-9.48c-1.75,1.48-6,7.49-7.08,9.31-.72,1.21-1.95,2.37-3.32,1.82C392.83,140.53,392.24,139.32,394.71,136.06Z"/><path class="cls-2" d="M44.27,167.19c.63-.76,3.33-3.61,4.47-4.71-2-2-3.16-3.42-4.68-5-1.89-1.79.47-2.55,1.48-1.67,2.15,1.82,3,3,4.93,4.9,1.6-1.6,4.09-4.43,5-5.15,1.1-1,3.5.07,2.36,1.23-.92,1.13-3.83,3.58-5.6,5.37,1.94,1.69,7.63,7.06,5.39,7.63a1.77,1.77,0,0,1-2.27-.85,61.36,61.36,0,0,0-4.89-5.4,34.86,34.86,0,0,0-4.6,5.3,2,2,0,0,1-2.14,1C43.05,169.73,42.67,169,44.27,167.19Z"/><path class="cls-3" d="M357.12,312a58.63,58.63,0,1,1,58.63-58.63A58.69,58.69,0,0,1,357.12,312Z"/><path class="cls-9" d="M357.12,197.74a55.63,55.63,0,1,1-55.63,55.63,55.63,55.63,0,0,1,55.63-55.63m0-6a61.63,61.63,0,1,0,61.63,61.63,61.7,61.7,0,0,0-61.63-61.63Z"/><g class="cls-10"><polygon class="cls-11" points="385.72 238.79 375.16 228.23 358.85 244.54 342.58 228.27 332.02 238.83 348.29 255.1 331.98 271.42 342.53 281.97 358.85 265.65 375.12 281.92 385.68 271.37 369.41 255.1 385.72 238.79"/></g><polygon class="cls-8" points="383.99 237.06 373.44 226.5 357.12 242.81 340.85 226.54 330.29 237.1 346.57 253.37 330.25 269.69 340.8 280.24 357.12 263.92 373.39 280.19 383.95 269.64 367.68 253.37 383.99 237.06"/><path class="cls-12" d="M436.07,489.08H526l-13.66-36.6s2.25-16.05-4.87-39.1a8.88,8.88,0,0,0-.49-2.13L483,345.86c-2.37-6.39-11.38-9.42-20.12-6.78a22.27,22.27,0,0,0-3.32,1.31,17.9,17.9,0,0,0-12.89-1,16.81,16.81,0,0,0-4.77,2.33,17.83,17.83,0,0,0-13.39-1.3,15.91,15.91,0,0,0-8.31,5.79,17.9,17.9,0,0,0-14.4-1.85,16,16,0,0,0-7.88,5.19l-25.72-69.41c-3.07-8.27-12.65-12.83-21.39-10.18s-13.35,11.49-10.28,19.76L376,385.12a14.62,14.62,0,0,0,.77,1.71l12.42,31.67s-29.78-21.92-56.38-18.78c0,0-29.73,7.75,13.2,31.15,0,0,28.15,13.69,38.46,22.36,0,0,20.72,22.18,42.36,25.81C426.81,479,431.94,480.36,436.07,489.08Z"/><path class="cls-13" d="M368.74,287.7a6.36,6.36,0,0,1-4.33,8.33l-6.78,2.05a7.39,7.39,0,0,1-9-4.29l-3.07-8.28a6.35,6.35,0,0,1,4.33-8.32l6.78-2.05a7.38,7.38,0,0,1,9,4.29Z"/><path class="cls-13" d="M334.22,405.35a10.74,10.74,0,0,0-11.45,4c.12,4.13,4,9.76,15.85,17.25a7.32,7.32,0,0,0,2.68-1.4c3.39-3.17,6.35-10.69,2.53-14.61C342.74,409.43,335.53,405.72,334.22,405.35Z"/><polygon class="cls-14" points="597.14 590 529.57 457.58 436.93 489.08 512.14 705 597.14 590"/></g></g></svg>