<svg id="Layer_1" data-name="Layer 1" xmlns="http://www.w3.org/2000/svg" viewBox="0 0 100 80"><defs><style>.cls-1{fill:#515151;}.cls-2{fill:#e3c77f;}</style></defs><title>en-1000</title><g id="_Group_" data-name="&lt;Group&gt;"><g id="_Group_2" data-name="&lt;Group&gt;"><path id="_Compound_Path_" data-name="&lt;Compound Path&gt;" class="cls-1" d="M70.48,76c3.67,0,7.91-3,7.91-6.46V35.16c0-4.57,3-8.29,7.48-8.59H93.8a2.83,2.83,0,0,0,2.83-2.95V8.95A3.05,3.05,0,0,0,93.57,5.9H54.52a3.06,3.06,0,0,0-3.05,3.05v9a8.63,8.63,0,0,1-8.26,8.62H12a8.62,8.62,0,0,0-8.62,8.62V67.39A8.62,8.62,0,0,0,11.65,76Z"/></g><g id="_Group_3" data-name="&lt;Group&gt;"><path id="_Compound_Path_2" data-name="&lt;Compound Path&gt;" d="M70.48,74.1c3.67,0,7.91-3,7.91-6.46V33.26c0-4.57,3-8.29,7.48-8.59H93.8a2.83,2.83,0,0,0,2.83-2.95V7A3.05,3.05,0,0,0,93.57,4H54.52A3.06,3.06,0,0,0,51.47,7v9a8.63,8.63,0,0,1-8.26,8.62H12a8.62,8.62,0,0,0-8.62,8.62V65.48a8.61,8.61,0,0,0,8.28,8.62Z"/></g></g><g id="_Group_4" data-name="&lt;Group&gt;"><g id="_Group_5" data-name="&lt;Group&gt;"><path class="cls-2" d="M14.46,37.17V61.53a1.84,1.84,0,0,1-.1.67q-.1.23-.65.23H11.42V39H8.05a.86.86,0,0,1-.63-.2,1.21,1.21,0,0,1-.2-.83V36.1h6.29Q14.46,36.1,14.46,37.17Z"/><path class="cls-2" d="M26.36,62.68a8.94,8.94,0,0,1-4.72-1.09,7.28,7.28,0,0,1-2.71-2.95,12.51,12.51,0,0,1-1.23-4.37A48.23,48.23,0,0,1,17.42,49a33.3,33.3,0,0,1,.38-5.2,11.83,11.83,0,0,1,1.38-4.13,7.34,7.34,0,0,1,2.73-2.73,8.86,8.86,0,0,1,4.45-1,9.46,9.46,0,0,1,4.65,1,6.83,6.83,0,0,1,2.71,2.73A11.82,11.82,0,0,1,35,43.76,39.77,39.77,0,0,1,35.3,49q0,2.81-.18,5.32a12.32,12.32,0,0,1-1,4.37,6.69,6.69,0,0,1-2.67,2.95A9.79,9.79,0,0,1,26.36,62.68Zm0-24.16a6.12,6.12,0,0,0-3.06.67,4.35,4.35,0,0,0-1.78,2,10.35,10.35,0,0,0-.81,3.28,44.67,44.67,0,0,0-.2,4.49q0,2.77.2,4.8a10.52,10.52,0,0,0,.81,3.36,4.22,4.22,0,0,0,1.78,2,6.26,6.26,0,0,0,3.06.65,6.6,6.6,0,0,0,3.07-.61,4,4,0,0,0,1.78-1.92A10.66,10.66,0,0,0,32,53.86a47.26,47.26,0,0,0,.22-4.9A40.52,40.52,0,0,0,32,44.51a10.71,10.71,0,0,0-.83-3.28,4.45,4.45,0,0,0-1.78-2A6,6,0,0,0,26.36,38.52Z"/><path class="cls-2" d="M45.82,62.68a8.94,8.94,0,0,1-4.73-1.09,7.31,7.31,0,0,1-2.71-2.95,12.53,12.53,0,0,1-1.23-4.37A48.64,48.64,0,0,1,36.88,49a33.57,33.57,0,0,1,.38-5.2,11.79,11.79,0,0,1,1.38-4.13,7.32,7.32,0,0,1,2.73-2.73,8.86,8.86,0,0,1,4.45-1,9.46,9.46,0,0,1,4.65,1,6.83,6.83,0,0,1,2.71,2.73,11.81,11.81,0,0,1,1.27,4.13,40.24,40.24,0,0,1,.32,5.2q0,2.81-.18,5.32a12.31,12.31,0,0,1-1,4.37,6.7,6.7,0,0,1-2.67,2.95A9.79,9.79,0,0,1,45.82,62.68Zm0-24.16a6.11,6.11,0,0,0-3.06.67,4.33,4.33,0,0,0-1.78,2,10.29,10.29,0,0,0-.81,3.28q-.2,2-.2,4.49,0,2.77.2,4.8A10.46,10.46,0,0,0,41,57.12a4.2,4.2,0,0,0,1.78,2,6.26,6.26,0,0,0,3.06.65,6.6,6.6,0,0,0,3.06-.61,4,4,0,0,0,1.78-1.92,10.65,10.65,0,0,0,.83-3.36,47.35,47.35,0,0,0,.22-4.9,40.58,40.58,0,0,0-.22-4.45,10.69,10.69,0,0,0-.83-3.28,4.44,4.44,0,0,0-1.78-2A5.94,5.94,0,0,0,45.82,38.52Z"/><path class="cls-2" d="M65.32,62.68a8.94,8.94,0,0,1-4.73-1.09,7.31,7.31,0,0,1-2.71-2.95,12.53,12.53,0,0,1-1.23-4.37A48.64,48.64,0,0,1,56.38,49a33.57,33.57,0,0,1,.38-5.2,11.79,11.79,0,0,1,1.38-4.13,7.32,7.32,0,0,1,2.73-2.73,8.86,8.86,0,0,1,4.45-1,9.46,9.46,0,0,1,4.65,1,6.83,6.83,0,0,1,2.71,2.73,11.81,11.81,0,0,1,1.27,4.13,40.24,40.24,0,0,1,.32,5.2q0,2.81-.18,5.32a12.31,12.31,0,0,1-1,4.37,6.7,6.7,0,0,1-2.67,2.95A9.79,9.79,0,0,1,65.32,62.68Zm0-24.16a6.11,6.11,0,0,0-3.06.67,4.33,4.33,0,0,0-1.78,2,10.29,10.29,0,0,0-.81,3.28q-.2,2-.2,4.49,0,2.77.2,4.8a10.46,10.46,0,0,0,.81,3.36,4.2,4.2,0,0,0,1.78,2,6.26,6.26,0,0,0,3.06.65,6.6,6.6,0,0,0,3.06-.61,4,4,0,0,0,1.78-1.92A10.65,10.65,0,0,0,71,53.86a47.35,47.35,0,0,0,.22-4.9A40.58,40.58,0,0,0,71,44.51a10.69,10.69,0,0,0-.83-3.28,4.44,4.44,0,0,0-1.78-2A5.94,5.94,0,0,0,65.32,38.52Z"/></g></g><path class="cls-2" d="M58.15,10a3.36,3.36,0,0,1,1.14.18,2.28,2.28,0,0,1,.83.5,2,2,0,0,1,.5.78,3,3,0,0,1,.17,1,4.58,4.58,0,0,1-.12,1.07,2.18,2.18,0,0,1-.41.88,2.27,2.27,0,0,1-.8.6,3.06,3.06,0,0,1-1.32.24,5.56,5.56,0,0,1-.66,0,3.72,3.72,0,0,1-.58-.11L56.53,15v2.31H55.7V10.61a5,5,0,0,1,.66-.3,6.8,6.8,0,0,1,.8-.23,4.43,4.43,0,0,1,1-.1m.09,4.47a1.88,1.88,0,0,0,1-.23,1.53,1.53,0,0,0,.5-.52,1.58,1.58,0,0,0,.21-.64c0-.23,0-.42,0-.59a2.37,2.37,0,0,0-.08-.61,1.35,1.35,0,0,0-.28-.54,1.41,1.41,0,0,0-.53-.38,2.1,2.1,0,0,0-.83-.14,4.83,4.83,0,0,0-.78.05,4.32,4.32,0,0,0-.55.12,2.16,2.16,0,0,0-.39.16v3a1.72,1.72,0,0,0,.38.16,3.4,3.4,0,0,0,.58.12,5.33,5.33,0,0,0,.76,0"/><path class="cls-2" d="M63.64,12.5a2.07,2.07,0,0,1,1.69.62,2.77,2.77,0,0,1,.51,1.81,4.13,4.13,0,0,1-.11,1,1.85,1.85,0,0,1-.37.75,1.66,1.66,0,0,1-.68.47,3.07,3.07,0,0,1-1,.19,2.07,2.07,0,0,1-1.69-.62,2.78,2.78,0,0,1-.51-1.81,4.09,4.09,0,0,1,.11-1,2,2,0,0,1,.37-.77,1.71,1.71,0,0,1,.68-.49,2.73,2.73,0,0,1,1-.17m0,4.19a1.87,1.87,0,0,0,.69-.13,1,1,0,0,0,.42-.34,1.38,1.38,0,0,0,.2-.54,4.66,4.66,0,0,0,.05-.75,5.27,5.27,0,0,0,0-.69,1.4,1.4,0,0,0-.19-.56,1,1,0,0,0-.42-.37,1.61,1.61,0,0,0-.72-.13,1.8,1.8,0,0,0-.67.11,1,1,0,0,0-.41.33,1.34,1.34,0,0,0-.22.54,4.28,4.28,0,0,0-.06.77,5.18,5.18,0,0,0,0,.72,1.31,1.31,0,0,0,.18.55.91.91,0,0,0,.41.35,2,2,0,0,0,.72.14"/><path class="cls-2" d="M70.41,13.24a.32.32,0,0,1-.09.16s-.11,0-.2,0a2.65,2.65,0,0,0-.47-.1,5.3,5.3,0,0,0-.77,0,2.59,2.59,0,0,0-.61.06.81.81,0,0,0-.33.14.36.36,0,0,0-.13.21,1.18,1.18,0,0,0,0,.22.39.39,0,0,0,.27.41,3.39,3.39,0,0,0,.82.14,4.89,4.89,0,0,1,.9.14,1.5,1.5,0,0,1,.57.28.87.87,0,0,1,.29.48,2.42,2.42,0,0,1,.07.58,1.4,1.4,0,0,1-.11.54,1.23,1.23,0,0,1-.35.46,1.88,1.88,0,0,1-.65.33,3.44,3.44,0,0,1-1,.12,5.6,5.6,0,0,1-.63,0l-.51-.09L67,17.12v-.54a.22.22,0,0,1,0-.11.15.15,0,0,1,.06-.07.18.18,0,0,1,.12,0l.56.11a5.1,5.1,0,0,0,.83.06,3.57,3.57,0,0,0,.64,0,1.17,1.17,0,0,0,.39-.14.49.49,0,0,0,.2-.2.67.67,0,0,0,.05-.27,1.31,1.31,0,0,0,0-.27.36.36,0,0,0-.14-.21,1,1,0,0,0-.33-.15,4.54,4.54,0,0,0-.69-.1,4.23,4.23,0,0,1-.82-.15,1.75,1.75,0,0,1-.57-.27A.8.8,0,0,1,67,14.4a1.2,1.2,0,0,1-.06-.45,1.39,1.39,0,0,1,.1-.5A1.16,1.16,0,0,1,67.4,13a1.64,1.64,0,0,1,.61-.32,3.08,3.08,0,0,1,.93-.12,4.87,4.87,0,0,1,.64,0l.51.09.41.12Z"/><path class="cls-2" d="M72.85,13.4v2.53a.65.65,0,0,0,.19.53,1.17,1.17,0,0,0,.67.14l.36,0,.27,0a.14.14,0,0,1,.13,0,.22.22,0,0,1,0,.16v.5a1,1,0,0,1-.34.11,3.31,3.31,0,0,1-.68.06,1.85,1.85,0,0,1-.51-.07,1.34,1.34,0,0,1-.47-.23,1.32,1.32,0,0,1-.35-.42A1.34,1.34,0,0,1,72,16V11.23l.64-.16h.09a.14.14,0,0,1,.07.05.25.25,0,0,1,0,.15v1.32h1.46v.56a.3.3,0,0,1-.05.2.2.2,0,0,1-.16.06Z"/><path class="cls-2" d="M75.55,13a5.12,5.12,0,0,1,.61-.21,6.49,6.49,0,0,1,.76-.15,6.28,6.28,0,0,1,1-.07,2.64,2.64,0,0,1,1,.18,1.66,1.66,0,0,1,.67.52,2,2,0,0,1,.34.77A4.2,4.2,0,0,1,80,15a4.36,4.36,0,0,1-.09.92,1.88,1.88,0,0,1-.34.77,1.66,1.66,0,0,1-.67.52,2.62,2.62,0,0,1-1,.18,4.38,4.38,0,0,1-.74-.07,2.53,2.53,0,0,1-.74-.24v2.2a.25.25,0,0,1-.1.23.47.47,0,0,1-.25.06h-.48Zm.84,3.3.65.25a2.38,2.38,0,0,0,.86.12,1.13,1.13,0,0,0,.7-.18,1.17,1.17,0,0,0,.4-.44,1.85,1.85,0,0,0,.17-.51,3.65,3.65,0,0,0,0-.58,4.8,4.8,0,0,0,0-.64,1.44,1.44,0,0,0-.18-.55,1.06,1.06,0,0,0-.39-.38,1.42,1.42,0,0,0-.71-.15,3.51,3.51,0,0,0-1.49.27Z"/><path class="cls-2" d="M83,12.5a3.81,3.81,0,0,1,.77.07,1.9,1.9,0,0,1,.64.25,1.26,1.26,0,0,1,.44.48,1.56,1.56,0,0,1,.16.75v2.88a2.73,2.73,0,0,1-.51.24,4.59,4.59,0,0,1-.65.18,4.2,4.2,0,0,1-.86.08,3.36,3.36,0,0,1-.78-.08,1.93,1.93,0,0,1-.6-.26,1.34,1.34,0,0,1-.45-.49,1.46,1.46,0,0,1-.17-.73,1.06,1.06,0,0,1,.45-.9,2.52,2.52,0,0,1,1.2-.42l1.07-.12.5-.06V14a.5.5,0,0,0-.06-.23.6.6,0,0,0-.2-.22,1.21,1.21,0,0,0-.37-.16,2.3,2.3,0,0,0-.57-.06,4.07,4.07,0,0,0-.78.07l-.6.13c-.16.05-.24,0-.24-.14v-.6l.45-.13.51-.09a5,5,0,0,1,.66,0m1.19,2.71-.34,0-.39,0-.61.06a2.55,2.55,0,0,0-.72.17.45.45,0,0,0-.32.44.58.58,0,0,0,.32.51,1.64,1.64,0,0,0,.87.19,4.6,4.6,0,0,0,.75,0,1.83,1.83,0,0,0,.46-.13Z"/><path class="cls-2" d="M87.19,11.36a.51.51,0,0,1-.16.39.57.57,0,0,1-.76,0,.5.5,0,0,1-.16-.39.48.48,0,0,1,.16-.39A.59.59,0,0,1,87,11a.5.5,0,0,1,.16.39m.36,5.12a.17.17,0,0,1,.14.05.25.25,0,0,1,0,.15v.6h-.65a.92.92,0,0,1-.29,0,.72.72,0,0,1-.27-.17,1,1,0,0,1-.2-.33,1.37,1.37,0,0,1-.08-.5V12.58h.61a.34.34,0,0,1,.18,0s.05.09.05.19v3.4a.25.25,0,0,0,0,.17.24.24,0,0,0,.12.08l.15,0Z"/><path class="cls-2" d="M92.55,10.12a.36.36,0,0,1,.26.08.4.4,0,0,1,.07.27v6.4a3.76,3.76,0,0,1-.57.25,4.59,4.59,0,0,1-.64.17,4.11,4.11,0,0,1-.82.07,3.22,3.22,0,0,1-1.12-.18,1.57,1.57,0,0,1-.75-.52,2.12,2.12,0,0,1-.35-.79,4.62,4.62,0,0,1-.1-1,4.78,4.78,0,0,1,.05-.65,2.08,2.08,0,0,1,.27-.77,1.88,1.88,0,0,1,.64-.64,2.18,2.18,0,0,1,1.17-.27,4.52,4.52,0,0,1,.7.05,3.34,3.34,0,0,1,.66.17V10.12ZM92,13.53l-.27-.12-.27-.09-.33-.05-.42,0a1.63,1.63,0,0,0-.47.07,1.24,1.24,0,0,0-.44.25,1.31,1.31,0,0,0-.33.5,2.34,2.34,0,0,0-.13.84,3.88,3.88,0,0,0,.06.7,1.43,1.43,0,0,0,.22.56,1.09,1.09,0,0,0,.46.37,1.86,1.86,0,0,0,.77.13,2.88,2.88,0,0,0,.74-.08l.41-.13Z"/></svg>