<svg id="Layer_1" data-name="Layer 1" xmlns="http://www.w3.org/2000/svg" viewBox="0 0 100 80"><defs><style>.cls-1{fill:#ac3d10;}.cls-2{fill:#e84e1b;}.cls-3{fill:#fff;}</style></defs><title>en-50</title><path class="cls-1" d="M70.45,76c3.66,0,7.9-2.95,7.9-6.45V35.17c0-4.56,3-8.28,7.46-8.58h7.91a2.82,2.82,0,0,0,2.83-2.94V9A3,3,0,0,0,93.5,6h-39a3.05,3.05,0,0,0-3,3.05v9a8.61,8.61,0,0,1-8.25,8.6H12.05a8.6,8.6,0,0,0-8.61,8.61V67.35A8.6,8.6,0,0,0,11.71,76Z"/><path class="cls-2" d="M70.45,74c3.66,0,7.9-2.94,7.9-6.45V33.27c0-4.56,3-8.28,7.46-8.58h7.91a2.82,2.82,0,0,0,2.83-2.95V7.1A3,3,0,0,0,93.5,4h-39a3,3,0,0,0-3,3v9a8.61,8.61,0,0,1-8.25,8.6H12.05a8.6,8.6,0,0,0-8.61,8.6V65.44A8.6,8.6,0,0,0,11.71,74Z"/><path class="cls-3" d="M39.74,39.78a1.67,1.67,0,0,1-.12.67c-.08.18-.32.28-.71.28H29.55l-2.17,8.14h5.09a13.73,13.73,0,0,1,3.32.36,5.41,5.41,0,0,1,2.37,1.23,5.32,5.32,0,0,1,1.42,2.31,11.6,11.6,0,0,1,.47,3.57,9.87,9.87,0,0,1-.59,3.55,6.91,6.91,0,0,1-1.68,2.57A7.09,7.09,0,0,1,35.19,64a10.15,10.15,0,0,1-3.28.51,15.21,15.21,0,0,1-3-.28,18.09,18.09,0,0,1-2.41-.63,17.78,17.78,0,0,1-2.21-.95L25,60.51c.08-.26.21-.4.39-.4a1.4,1.4,0,0,1,.55.12l.65.28c.33.13.74.27,1.24.41s1.06.28,1.68.4a10.34,10.34,0,0,0,2,.18,8.23,8.23,0,0,0,3.1-.47A3.88,3.88,0,0,0,36.3,59.8,3.69,3.69,0,0,0,37,58.15a12,12,0,0,0,.14-1.82,7,7,0,0,0-.32-2.25,3.24,3.24,0,0,0-2.31-2.19,6.75,6.75,0,0,0-1.76-.21H26.43a2,2,0,0,1-1.88-.79,2.38,2.38,0,0,1-.29-1.66l2.37-8.77a3.67,3.67,0,0,1,.67-1.5,2.9,2.9,0,0,1,.93-.75,2.84,2.84,0,0,1,1-.28c.33,0,.64,0,.93,0h9.6Z"/><path class="cls-3" d="M52.61,64.43a8.94,8.94,0,0,1-4.72-1.09,7.29,7.29,0,0,1-2.71-2.94A12.59,12.59,0,0,1,44,56a48.43,48.43,0,0,1-.28-5.31,33.48,33.48,0,0,1,.37-5.19,11.8,11.8,0,0,1,1.38-4.13,7.32,7.32,0,0,1,2.73-2.72,8.84,8.84,0,0,1,4.44-1,9.42,9.42,0,0,1,4.64,1A6.81,6.81,0,0,1,60,41.4a11.68,11.68,0,0,1,1.26,4.13,39.31,39.31,0,0,1,.32,5.19q0,2.81-.18,5.31a12.26,12.26,0,0,1-1,4.36,6.7,6.7,0,0,1-2.67,2.94A9.78,9.78,0,0,1,52.61,64.43Zm0-24.13a6.08,6.08,0,0,0-3.06.67,4.33,4.33,0,0,0-1.78,2A10.26,10.26,0,0,0,47,46.24a44.83,44.83,0,0,0-.2,4.48q0,2.76.2,4.8a10.41,10.41,0,0,0,.81,3.36,4.23,4.23,0,0,0,1.78,2,6.26,6.26,0,0,0,3.06.65,6.57,6.57,0,0,0,3.06-.61A4,4,0,0,0,57.45,59a10.59,10.59,0,0,0,.83-3.36,47.56,47.56,0,0,0,.22-4.9,40.78,40.78,0,0,0-.22-4.45A10.7,10.7,0,0,0,57.45,43a4.45,4.45,0,0,0-1.78-2A6,6,0,0,0,52.61,40.29Z"/><path class="cls-3" d="M58.14,10.27a3.36,3.36,0,0,1,1.14.18,2.28,2.28,0,0,1,.83.5,2,2,0,0,1,.5.78,3,3,0,0,1,.17,1,4.58,4.58,0,0,1-.12,1.07,2.18,2.18,0,0,1-.41.88,2.27,2.27,0,0,1-.8.6,3.06,3.06,0,0,1-1.32.24,5.56,5.56,0,0,1-.66,0,3.72,3.72,0,0,1-.58-.11l-.38-.12v2.31h-.82V10.9a5,5,0,0,1,.66-.3,6.8,6.8,0,0,1,.8-.23,4.43,4.43,0,0,1,1-.1m.09,4.47a1.88,1.88,0,0,0,1-.23,1.53,1.53,0,0,0,.5-.52,1.58,1.58,0,0,0,.21-.64c0-.23,0-.42,0-.59a2.37,2.37,0,0,0-.08-.61,1.35,1.35,0,0,0-.28-.54,1.41,1.41,0,0,0-.53-.38,2.1,2.1,0,0,0-.83-.14,4.83,4.83,0,0,0-.78.05,4.32,4.32,0,0,0-.55.12,2.16,2.16,0,0,0-.39.16v3a1.72,1.72,0,0,0,.38.16,3.4,3.4,0,0,0,.58.12,5.33,5.33,0,0,0,.76,0"/><path class="cls-3" d="M63.63,12.79a2.07,2.07,0,0,1,1.69.62,2.77,2.77,0,0,1,.51,1.81,4.13,4.13,0,0,1-.11,1,1.85,1.85,0,0,1-.37.75,1.66,1.66,0,0,1-.68.47,3.07,3.07,0,0,1-1,.19A2.07,2.07,0,0,1,61.94,17a2.78,2.78,0,0,1-.51-1.81,4.09,4.09,0,0,1,.11-1,2,2,0,0,1,.37-.77,1.71,1.71,0,0,1,.68-.49,2.73,2.73,0,0,1,1-.17m0,4.19a1.87,1.87,0,0,0,.69-.13,1,1,0,0,0,.42-.34,1.38,1.38,0,0,0,.2-.54,4.66,4.66,0,0,0,.05-.75,5.27,5.27,0,0,0,0-.69,1.4,1.4,0,0,0-.19-.56,1,1,0,0,0-.42-.37,1.61,1.61,0,0,0-.72-.13,1.8,1.8,0,0,0-.67.11,1,1,0,0,0-.41.33,1.34,1.34,0,0,0-.22.54,4.28,4.28,0,0,0-.06.77,5.18,5.18,0,0,0,0,.72,1.31,1.31,0,0,0,.18.55.91.91,0,0,0,.41.35,2,2,0,0,0,.72.14"/><path class="cls-3" d="M70.41,13.54a.32.32,0,0,1-.09.16s-.11,0-.2,0a2.65,2.65,0,0,0-.47-.1,5.3,5.3,0,0,0-.77,0,2.59,2.59,0,0,0-.61.06.81.81,0,0,0-.33.14.36.36,0,0,0-.13.21,1.18,1.18,0,0,0,0,.22.39.39,0,0,0,.27.41,3.39,3.39,0,0,0,.82.14,4.89,4.89,0,0,1,.9.14,1.5,1.5,0,0,1,.57.28.87.87,0,0,1,.29.48,2.42,2.42,0,0,1,.07.58,1.4,1.4,0,0,1-.11.54,1.23,1.23,0,0,1-.35.46,1.88,1.88,0,0,1-.65.33,3.44,3.44,0,0,1-1,.12,5.6,5.6,0,0,1-.63,0l-.51-.09L67,17.41v-.54a.22.22,0,0,1,0-.11.15.15,0,0,1,.06-.07.18.18,0,0,1,.12,0l.56.11a5.1,5.1,0,0,0,.83.06,3.57,3.57,0,0,0,.64,0,1.17,1.17,0,0,0,.39-.14.49.49,0,0,0,.2-.2.67.67,0,0,0,.05-.27,1.31,1.31,0,0,0,0-.27.36.36,0,0,0-.14-.21,1,1,0,0,0-.33-.15,4.54,4.54,0,0,0-.69-.1,4.23,4.23,0,0,1-.82-.15,1.75,1.75,0,0,1-.57-.27.8.8,0,0,1-.29-.38,1.2,1.2,0,0,1-.06-.45,1.39,1.39,0,0,1,.1-.5,1.16,1.16,0,0,1,.33-.46A1.64,1.64,0,0,1,68,13a3.08,3.08,0,0,1,.93-.12,4.87,4.87,0,0,1,.64,0l.51.09.41.12Z"/><path class="cls-3" d="M72.84,13.7v2.53a.65.65,0,0,0,.19.53,1.17,1.17,0,0,0,.67.14l.36,0,.27,0a.14.14,0,0,1,.13,0,.22.22,0,0,1,0,.16v.5a1,1,0,0,1-.34.11,3.31,3.31,0,0,1-.68.06,1.85,1.85,0,0,1-.51-.07,1.34,1.34,0,0,1-.47-.23,1.32,1.32,0,0,1-.35-.42A1.34,1.34,0,0,1,72,16.3V11.53l.64-.16h.09a.14.14,0,0,1,.07.05.25.25,0,0,1,0,.15v1.32H74.3v.56a.3.3,0,0,1-.05.2.2.2,0,0,1-.16.06Z"/><path class="cls-3" d="M75.54,13.31a5.12,5.12,0,0,1,.61-.21,6.49,6.49,0,0,1,.76-.15,6.28,6.28,0,0,1,1-.07,2.64,2.64,0,0,1,1,.18,1.66,1.66,0,0,1,.67.52,2,2,0,0,1,.34.77,4.2,4.2,0,0,1,.1.93,4.36,4.36,0,0,1-.09.92,1.88,1.88,0,0,1-.34.77,1.66,1.66,0,0,1-.67.52,2.62,2.62,0,0,1-1,.18,4.38,4.38,0,0,1-.74-.07,2.53,2.53,0,0,1-.74-.24v2.2a.25.25,0,0,1-.1.23.47.47,0,0,1-.25.06h-.48Zm.84,3.3.65.25a2.38,2.38,0,0,0,.86.12,1.13,1.13,0,0,0,.7-.18,1.17,1.17,0,0,0,.4-.44,1.85,1.85,0,0,0,.17-.51,3.65,3.65,0,0,0,0-.58,4.8,4.8,0,0,0,0-.64,1.44,1.44,0,0,0-.18-.55,1.06,1.06,0,0,0-.39-.38,1.42,1.42,0,0,0-.71-.15,3.51,3.51,0,0,0-1.49.27Z"/><path class="cls-3" d="M83,12.79a3.81,3.81,0,0,1,.77.07,1.9,1.9,0,0,1,.64.25,1.26,1.26,0,0,1,.44.48,1.56,1.56,0,0,1,.16.75v2.88a2.73,2.73,0,0,1-.51.24,4.59,4.59,0,0,1-.65.18,4.2,4.2,0,0,1-.86.08,3.36,3.36,0,0,1-.78-.08,1.93,1.93,0,0,1-.6-.26,1.34,1.34,0,0,1-.45-.49,1.46,1.46,0,0,1-.17-.73,1.06,1.06,0,0,1,.45-.9,2.52,2.52,0,0,1,1.2-.42l1.07-.12.5-.06v-.43a.5.5,0,0,0-.06-.23.6.6,0,0,0-.2-.22,1.21,1.21,0,0,0-.37-.16,2.3,2.3,0,0,0-.57-.06,4.07,4.07,0,0,0-.78.07l-.6.13c-.16.05-.24,0-.24-.14v-.6l.45-.13.51-.09a5,5,0,0,1,.66,0m1.19,2.71-.34,0-.39,0-.61.06a2.55,2.55,0,0,0-.72.17.45.45,0,0,0-.32.44.58.58,0,0,0,.32.51,1.64,1.64,0,0,0,.87.19,4.6,4.6,0,0,0,.75,0,1.83,1.83,0,0,0,.46-.13Z"/><path class="cls-3" d="M87.19,11.66a.51.51,0,0,1-.16.39.57.57,0,0,1-.76,0,.5.5,0,0,1-.16-.39.48.48,0,0,1,.16-.39.59.59,0,0,1,.76,0,.5.5,0,0,1,.16.39m.36,5.12a.17.17,0,0,1,.14.05.25.25,0,0,1,0,.15v.6h-.65a.92.92,0,0,1-.29,0,.72.72,0,0,1-.27-.17,1,1,0,0,1-.2-.33,1.37,1.37,0,0,1-.08-.5V12.88h.61a.34.34,0,0,1,.18,0s.05.09.05.19v3.4a.25.25,0,0,0,0,.17.24.24,0,0,0,.12.08l.15,0Z"/><path class="cls-3" d="M92.54,10.42a.36.36,0,0,1,.26.08.4.4,0,0,1,.07.27v6.4a3.76,3.76,0,0,1-.57.25,4.59,4.59,0,0,1-.64.17,4.11,4.11,0,0,1-.82.07,3.22,3.22,0,0,1-1.12-.18A1.57,1.57,0,0,1,89,17a2.12,2.12,0,0,1-.35-.79,4.62,4.62,0,0,1-.1-1,4.78,4.78,0,0,1,.05-.65,2.08,2.08,0,0,1,.27-.77,1.88,1.88,0,0,1,.64-.64,2.18,2.18,0,0,1,1.17-.27,4.52,4.52,0,0,1,.7.05,3.34,3.34,0,0,1,.66.17V10.42ZM92,13.83l-.27-.12-.27-.09-.33-.05-.42,0a1.63,1.63,0,0,0-.47.07,1.24,1.24,0,0,0-.44.25,1.31,1.31,0,0,0-.33.5,2.34,2.34,0,0,0-.13.84,3.88,3.88,0,0,0,.06.7,1.43,1.43,0,0,0,.22.56,1.09,1.09,0,0,0,.46.37,1.86,1.86,0,0,0,.77.13,2.88,2.88,0,0,0,.74-.08l.41-.13Z"/></svg>