<svg xmlns="http://www.w3.org/2000/svg" width="1440" height="923" viewBox="0 0 1440 923">
    <g fill="none" fill-rule="evenodd">
        <path fill="#E0F2F1" d="M-2.438-1L1458 838.202V-1l.001 1094H820.954L198.139 735.113-184 954.701V-1H-2.438z"/>
        <path fill="#E0F2F1" d="M698 82l-111 63.277V255l111-63.275z"/>
        <path fill="#FFF" d="M258 554.783L501 695V544.217L258 404z"/>
        <path fill="#FF80AB" d="M974 610v45.969L700 814v-45.969z"/>
        <path stroke="#546E7A" stroke-width="2" d="M392 178l359 206"/>
        <path fill="#FFD740" d="M744 274l-15 8.414V498l15-8.416zM774 257l-15 8.414V481l15-8.416zM805 238l-15 8.414V462l15-8.416zM835 221l-15 8.414V445l15-8.416zM896 187l-15 8.416V411l15-8.414zM866 204l-15 8.416V428l15-8.416z"/>
        <path fill="#00ACC1" d="M441 563l15 8.364V753l-15-8.364zM410 545l15 8.364V735l-15-8.362zM349 510l15 8.362V700l-15-8.362zM380 527l15 8.362V717l-15-8.362z"/>
        <path stroke="#FFF" stroke-width="2" d="M124 277l577 332M467 859l267 153M151 316l460 265"/>
        <path stroke="#455A64" stroke-width="2" d="M996 443L250 872M1050 637L574 911"/>
        <path stroke="#FFF" stroke-width="2" d="M1149 436L673 710M981 704L658 889"/>
        <path fill="#E0F2F1" d="M1041 256.685L626 496V386.315L1041 147z"/>
        <path fill="#00ACC1" d="M836 549L536 722.14V999l300-173.14z"/>
        <path fill="#455A64" d="M912 774l-39 22.268V837l39-22.27L951 837v-40.732z"/>
        <path fill="#455A64" d="M912 832l-39 22.268V895l39-22.268L951 895v-40.732z"/>
        <path stroke="#FF80AB" stroke-width="4" d="M952 406.41L702 550V395.59L952 252z"/>
        <path fill="#FF80AB" d="M179 669.542L626 926V808.456L179 552z"/>
        <path fill="#00ACC1" d="M254 281.733L384 356v-56.73L254 225z"/>
        <path fill="#69F0AE" d="M613 147.994L768 237v-67.99L613 80z"/>
        <path fill="#FFF" d="M750 765l-57 32.919V855l57-32.919z"/>
        <path fill="#FF80AB" d="M332 166v44.617L599 364v-44.617z"/>
        <path fill="#455A64" d="M623 182l-73 42.502L623 267"/>
        <path fill="#FF80AB" d="M661 296l48-27-48-27"/>
        <path fill="#455A64" d="M392.499 750L319 792.502 392.499 835 466 792.502z"/>
        <path fill="#FF80AB" d="M332 166l294 169"/>
        <path fill="#69F0AE" d="M327 555.98L626 728V543.017L327 371z"/>
        <path fill="#00ACC1" d="M651 405l-103 59.499L651 524"/>
        <path stroke="#FFF" stroke-width="2" d="M515 632l81-46.501L515 539z"/>
        <path fill="#FFD740" d="M465.5 873L414 902.999 465.5 933l51.5-30.001zM401 335v114.158L532 524V409.84zM1013 572.49L661 777V571.507L1013 367z"/>
        <path fill="#69F0AE" d="M1046 526.768L916 601V465.232L1046 391z"/>
        <path fill="#FFF" d="M738 646l-25 14.36V692l25-14.36zM772 626l-25 14.36V672l25-14.36zM807 608l-25 14.362V654l25-14.36zM841 588l-25 14.36V634l25-14.36z"/>
        <path fill="#455A64" d="M1102 299v35.151L892 455v-35.151z"/>
        <path fill="#69F0AE" d="M818 872v41.686L568 1057v-41.686z"/>
    </g>
</svg>
