<svg xmlns="http://www.w3.org/2000/svg" xmlns:xlink="http://www.w3.org/1999/xlink" width="382" height="466" viewBox="0 0 382 466">
    <defs>
        <path id="a" d="M.094.516h31.054v42.407H.094z"/>
        <path id="c" d="M21.882.377c-.21 0-.409.02-.615.028-.157.007-.316.012-.475.022-.163.011-.329.01-.489.025-.6.053-1.183.139-1.756.255-.01.001-.02.006-.03.007-.129.027-.247.075-.376.104-.585.135-1.167.277-1.722.475-.064.024-.126.054-.191.078-.095.034-.183.077-.276.113a14.72 14.72 0 0 0-1.999.952L.341 10.366c.638-.37 1.31-.679 2-.952.092-.037.182-.078.274-.112a15.64 15.64 0 0 1 1.917-.554c.127-.028.244-.076.371-.102a16.75 16.75 0 0 1 2.753-.31c.754-.029 1.523-.02 2.313.046.093.008.189.02.283.029.823.078 1.665.207 2.522.388.087.018.175.039.262.059.879.196 1.772.445 2.681.751.063.023.125.039.187.062a31.65 31.65 0 0 1 3.087 1.254c.992.461 1.997.977 3.015 1.568L151.973 87.72a44.05 44.05 0 0 1 3.047 1.941c.06.042.118.085.18.127a50.146 50.146 0 0 1 3.065 2.336 57.672 57.672 0 0 1 5.414 5.076c.07.075.143.147.211.22a67.033 67.033 0 0 1 2.572 2.921c.01.012.018.024.029.035a69.57 69.57 0 0 1 2.485 3.184l.001.001c.73.996 1.434 2.022 2.12 3.062.425.645.825 1.308 1.232 1.965.335.549.685 1.09 1.008 1.647.154.263.298.532.448.798a77.705 77.705 0 0 1 1.535 2.844l.158.31a73.637 73.637 0 0 1 1.663 3.538l.079.181c3.236 7.464 5.12 15.279 5.1 22.51l13.611-7.931c.018-6.407-1.481-13.273-4.07-19.946l.022-.012c-.194-.496-.391-.99-.596-1.484-.148-.357-.304-.712-.456-1.068l-.077-.182a4.99 4.99 0 0 1-.088-.206 72.573 72.573 0 0 0-1.448-3.084c-.04-.082-.085-.163-.127-.246l-.159-.31c-.217-.427-.434-.853-.658-1.276-.282-.529-.585-1.051-.882-1.573-.148-.264-.29-.531-.442-.792-.06-.103-.113-.212-.175-.315-.267-.453-.562-.888-.838-1.337-.404-.656-.804-1.316-1.227-1.962-.068-.101-.127-.21-.196-.311a75.284 75.284 0 0 0-1.926-2.752h-.001v-.001a69.057 69.057 0 0 0-2.485-3.183c-.01-.01-.018-.022-.027-.034-.005-.007-.01-.011-.015-.019a68.83 68.83 0 0 0-2.36-2.694c-.064-.07-.131-.137-.196-.206l-.214-.224c-.277-.296-.552-.591-.836-.877a56.964 56.964 0 0 0-1.282-1.273c-.132-.127-.268-.248-.403-.374a27.6 27.6 0 0 0-.307-.285c-.209-.197-.417-.398-.628-.588-.449-.405-.9-.8-1.354-1.185-.2-.169-.402-.329-.603-.493-.1-.084-.202-.168-.304-.248-.15-.122-.297-.25-.449-.368a49.3 49.3 0 0 0-1.336-1.022c-.323-.238-.65-.468-.978-.697-.058-.042-.118-.086-.178-.126-.056-.039-.11-.081-.166-.12-.43-.294-.86-.579-1.293-.856a40.208 40.208 0 0 0-1.29-.791c-.098-.059-.199-.118-.297-.175L35.616 4.56a37.12 37.12 0 0 0-2.214-1.189c-.268-.135-.534-.255-.8-.38-.066-.03-.13-.063-.196-.091-.076-.036-.157-.076-.235-.112a31.726 31.726 0 0 0-1.218-.517 28.834 28.834 0 0 0-1.23-.464l-.206-.068-.187-.061c-.277-.094-.552-.188-.825-.27a26.08 26.08 0 0 0-1.258-.349c-.202-.05-.398-.088-.597-.133-.088-.02-.175-.04-.263-.058-.129-.027-.26-.062-.388-.088-.45-.087-.893-.16-1.333-.22-.27-.036-.536-.056-.803-.081-.095-.009-.189-.022-.283-.028-.088-.008-.18-.023-.27-.029a18.728 18.728 0 0 0-1.32-.046h-.108"/>
        <path id="e" d="M.934 22.443L.05 335.087c-.055 19.363 13.539 42.966 30.346 52.695l129.962 75.228c16.806 9.728 30.488 1.912 30.542-17.45l.886-312.644c.054-19.376-13.54-42.965-30.346-52.696L31.478 4.993C26.57 2.153 21.93.805 17.818.805 7.845.808.973 8.724.934 22.444"/>
        <path id="g" d="M0 2.695c-.007 2.419 1.645 5.351 3.684 6.559L37.286 29.15c2.04 1.209 3.702.237 3.708-2.182.008-2.404-1.644-5.337-3.685-6.544L3.709.528C3.113.175 2.55.009 2.05.009.841.01.005.992.001 2.695"/>
        <path id="i" d="M.14 7.08c-.017 6.323 4.43 14.027 9.932 17.204 5.501 3.174 9.98.623 9.997-5.697.018-6.322-4.431-14.026-9.932-17.203C8.532.457 7.014.017 5.667.017 2.403.017.153 2.603.14 7.08"/>
        <path id="k" d="M2.682 7.31c-.179.319-.346.65-.508.99-.801 1.707-1.382 3.677-1.706 5.89a29.856 29.856 0 0 0-.302 4.244 33.964 33.964 0 0 0 .035 1.632c.02.439.046.882.08 1.327l.022.232c.036.424.078.85.146 1.432.055.454.12.91.191 1.368.015.098.03.197.047.295.073.457.154.915.274 1.526a50.392 50.392 0 0 0 .332 1.546c.107.457.222.914.342 1.371.024.095.05.188.073.283a54.32 54.32 0 0 0 1.428 4.486c.029.072.054.142.083.216a52.995 52.995 0 0 0 1.262 3.118 57.033 57.033 0 0 0 1.301 2.77l.12.242c.224.442.454.882.689 1.318.045.086.091.17.138.256.239.436.48.872.752 1.347a63.478 63.478 0 0 0 1.732 2.824c.045.07.092.14.137.212.255.385.513.768.89 1.317.194.283.396.56.595.836a34.44 34.44 0 0 1-.697-1.098c.027-9.739 6.911-13.668 15.38-8.768 8.383 4.85 15.177 16.56 15.264 26.25.143-.045.285-.085.509-.166a12.6 12.6 0 0 0 .799-.336l.16-.072a11.421 11.421 0 0 0 .892-.47c.253-.15.499-.3.791-.5.234-.163.464-.336.686-.515.035-.027.07-.054.105-.083.224-.183.441-.377.653-.577.041-.036.08-.075.121-.114.21-.204.416-.416.615-.637l.089-.101a13.1 13.1 0 0 0 1.159-1.518 14.183 14.183 0 0 0 .659-1.093c.155-.281.302-.57.499-.988.137-.293.266-.595.426-.995a19.231 19.231 0 0 0 .414-1.172c.108-.334.206-.675.298-1.026.019-.06.032-.123.049-.183a24.375 24.375 0 0 0 .633-3.663l.025-.235c.036-.404.066-.813.087-1.23l.008-.202c.019-.442.032-.889.034-1.344.005-1.499-.09-3.03-.278-4.579-.312-2.582-.879-5.216-1.669-7.842a53.37 53.37 0 0 0-1.889-5.266C42.221 19.16 34.368 9.205 25.404 4.021c-4.056-2.348-7.89-3.46-11.289-3.46C9.147.562 5.11 2.939 2.682 7.31m23.19 28.55c-5.155-2.982-9.331-10.234-9.317-16.168.017-5.951 4.223-8.338 9.377-5.356 5.168 2.988 9.333 10.219 9.317 16.17-.013 4.206-2.119 6.64-5.185 6.64-1.261 0-2.686-.414-4.192-1.286"/>
        <path id="m" d="M.414 6.734l-.007 3.38c-.015 5.284 3.736 11.715 8.371 14.37l43.933 25.158c4.636 2.657 8.398.53 8.415-4.755l.009-3.382c.015-5.27-3.725-11.708-8.36-14.363L8.842 1.983C7.49 1.207 6.211.841 5.075.841 2.323.841.426 3.002.415 6.734"/>
        <linearGradient id="n" x1="7.809%" y1="50%" y2="50%">
            <stop offset="0%" stop-color="#9155C6"/>
            <stop offset="49.11%" stop-color="#BD0079"/>
            <stop offset="100%" stop-color="#E3255D"/>
        </linearGradient>
        <path id="p" d="M7.15 100.976c.77 2.842 8.754 4.475 10.233-.04.94-2.865 3.258-93.642 3.258-93.642L.229.042S6.384 98.134 7.15 100.976"/>
        <linearGradient id="q" x1="71.521%" x2="7.513%" y1="5.1%" y2="99.776%">
            <stop offset="0%" stop-color="#6750F4"/>
            <stop offset="100%" stop-color="#00CFFF"/>
        </linearGradient>
        <path id="s" d="M22.39.592C13.92.13.804.497.346 7.14c-.681 9.837 3.881 16.857 8.283 21.631 3.254 3.53 5.42 10.28 6.33 13.569.77 25.982 2.472 62.616 3.538 66.123 1.713 5.649 10.143 5.394 10.525-.106C30.728 89.769 32.075 4.6 32.075 4.6 31.76 1.568 29.005.06 25.787.06a11.47 11.47 0 0 0-3.396.532"/>
        <linearGradient id="t" x1="-.003%" y1="50%" y2="50%">
            <stop offset="0%" stop-color="#6750F4"/>
            <stop offset="100%" stop-color="#00CFFF"/>
        </linearGradient>
    </defs>
    <g fill="none" fill-rule="evenodd">
        <path fill="#FFD740" d="M70.352 43.6l.01 3.315c.005 1.953 2.11 3.168 3.79 2.189l15.542-9.07a2.54 2.54 0 0 0 1.258-2.202l-.009-3.316c-.006-1.953-2.11-3.168-3.79-2.187l-15.544 9.069a2.543 2.543 0 0 0-1.257 2.203M21.185 88.624l.01 3.322c.005 1.95 2.105 3.165 3.785 2.19l64.756-37.603A2.541 2.541 0 0 0 91 54.327l-.01-3.32c-.005-1.951-2.107-3.167-3.785-2.19L22.448 86.417a2.54 2.54 0 0 0-1.263 2.206M47.976 106.12l.009 3.322c.006 1.95 2.106 3.166 3.787 2.191l38.057-22.1a2.538 2.538 0 0 0 1.262-2.205l-.009-3.32c-.006-1.952-2.106-3.168-3.786-2.193l-38.058 22.1a2.543 2.543 0 0 0-1.262 2.206M31.273 99.293l.009 3.322c.006 1.95 2.108 3.165 3.786 2.19l54.714-31.772a2.541 2.541 0 0 0 1.263-2.205l-.01-3.32c-.005-1.952-2.105-3.168-3.785-2.193L32.535 97.087a2.543 2.543 0 0 0-1.262 2.206"/>
        <path fill="#FF80AB" d="M369.876 93.797c.713.414 1.29 1.418 1.286 2.243l-.063 22.568c-.003.825-.581 1.157-1.295.743l-28.408-16.497c-.715-.415-1.29-1.418-1.288-2.243l.063-22.567c.003-.826.582-1.159 1.297-.744l28.408 16.497z"/>
        <g transform="translate(350.448 116.757)">
            <mask id="b" fill="#fff">
                <use xlink:href="#a"/>
            </mask>
            <path fill="#7974F5" d="M29.862 17.191c.714.414 1.29 1.419 1.286 2.243l-.064 22.57c-.001.822-.58 1.155-1.294.741L1.38 26.248C.667 25.835.092 24.83.095 24.007l.063-22.57C.16.613.74.282 1.454.695l28.408 16.497z" mask="url(#b)"/>
        </g>
        <path fill="#5B6AB1" d="M91.37 155.248c.461.267.834.916.832 1.448l-.042 14.582c-.001.533-.375.746-.836.48L72.97 161.1c-.462-.27-.835-.918-.833-1.45l.04-14.58c.002-.535.377-.75.838-.48l18.356 10.658z"/>
        <path fill="#7974F5" d="M98.112 181.19c.46.267.833.916.832 1.448l-.042 14.582c-.002.532-.376.746-.836.48L79.71 187.042c-.462-.27-.834-.918-.833-1.45l.04-14.58c.002-.535.378-.75.838-.48l18.356 10.657z"/>
        <g transform="translate(128 -60)">
            <mask id="d" fill="#fff">
                <use xlink:href="#c"/>
            </mask>
            <path d="M21.882.377c-.21 0-.409.02-.615.028-.157.007-.316.012-.475.022-.163.011-.329.01-.489.025-.6.053-1.183.139-1.756.255-.01.001-.02.006-.03.007-.129.027-.247.075-.376.104-.585.135-1.167.277-1.722.475-.064.024-.126.054-.191.078-.095.034-.183.077-.276.113a14.72 14.72 0 0 0-1.999.952L.341 10.366c.638-.37 1.31-.679 2-.952.092-.037.182-.078.274-.112a15.64 15.64 0 0 1 1.917-.554c.127-.028.244-.076.371-.102a16.75 16.75 0 0 1 2.753-.31c.754-.029 1.523-.02 2.313.046.093.008.189.02.283.029.823.078 1.665.207 2.522.388.087.018.175.039.262.059.879.196 1.772.445 2.681.751.063.023.125.039.187.062a31.65 31.65 0 0 1 3.087 1.254c.992.461 1.997.977 3.015 1.568L151.973 87.72a44.05 44.05 0 0 1 3.047 1.941c.06.042.118.085.18.127a50.146 50.146 0 0 1 3.065 2.336 57.672 57.672 0 0 1 5.414 5.076c.07.075.143.147.211.22a67.033 67.033 0 0 1 2.572 2.921c.01.012.018.024.029.035a69.57 69.57 0 0 1 2.485 3.184l.001.001c.73.996 1.434 2.022 2.12 3.062.425.645.825 1.308 1.232 1.965.335.549.685 1.09 1.008 1.647.154.263.298.532.448.798a77.705 77.705 0 0 1 1.535 2.844l.158.31a73.637 73.637 0 0 1 1.663 3.538l.079.181c3.236 7.464 5.12 15.279 5.1 22.51l13.611-7.931c.018-6.407-1.481-13.273-4.07-19.946l.022-.012c-.194-.496-.391-.99-.596-1.484-.148-.357-.304-.712-.456-1.068l-.077-.182a4.99 4.99 0 0 1-.088-.206 72.573 72.573 0 0 0-1.448-3.084c-.04-.082-.085-.163-.127-.246l-.159-.31c-.217-.427-.434-.853-.658-1.276-.282-.529-.585-1.051-.882-1.573-.148-.264-.29-.531-.442-.792-.06-.103-.113-.212-.175-.315-.267-.453-.562-.888-.838-1.337-.404-.656-.804-1.316-1.227-1.962-.068-.101-.127-.21-.196-.311a75.284 75.284 0 0 0-1.926-2.752h-.001v-.001a69.057 69.057 0 0 0-2.485-3.183c-.01-.01-.018-.022-.027-.034-.005-.007-.01-.011-.015-.019a68.83 68.83 0 0 0-2.36-2.694c-.064-.07-.131-.137-.196-.206l-.214-.224c-.277-.296-.552-.591-.836-.877a56.964 56.964 0 0 0-1.282-1.273c-.132-.127-.268-.248-.403-.374a27.6 27.6 0 0 0-.307-.285c-.209-.197-.417-.398-.628-.588-.449-.405-.9-.8-1.354-1.185-.2-.169-.402-.329-.603-.493-.1-.084-.202-.168-.304-.248-.15-.122-.297-.25-.449-.368a49.3 49.3 0 0 0-1.336-1.022c-.323-.238-.65-.468-.978-.697-.058-.042-.118-.086-.178-.126-.056-.039-.11-.081-.166-.12-.43-.294-.86-.579-1.293-.856a40.208 40.208 0 0 0-1.29-.791c-.098-.059-.199-.118-.297-.175L35.616 4.56a37.12 37.12 0 0 0-2.214-1.189c-.268-.135-.534-.255-.8-.38-.066-.03-.13-.063-.196-.091-.076-.036-.157-.076-.235-.112a31.726 31.726 0 0 0-1.218-.517 28.834 28.834 0 0 0-1.23-.464l-.206-.068-.187-.061c-.277-.094-.552-.188-.825-.27a26.08 26.08 0 0 0-1.258-.349c-.202-.05-.398-.088-.597-.133-.088-.02-.175-.04-.263-.058-.129-.027-.26-.062-.388-.088-.45-.087-.893-.16-1.333-.22-.27-.036-.536-.056-.803-.081-.095-.009-.189-.022-.283-.028-.088-.008-.18-.023-.27-.029a18.728 18.728 0 0 0-1.32-.046h-.108" mask="url(#d)"/>
        </g>
        <g transform="translate(117 -52)">
            <mask id="f" fill="#fff">
                <use xlink:href="#e"/>
            </mask>
            <path d="M.934 22.443L.05 335.087c-.055 19.363 13.539 42.966 30.346 52.695l129.962 75.228c16.806 9.728 30.488 1.912 30.542-17.45l.886-312.644c.054-19.376-13.54-42.965-30.346-52.696L31.478 4.993C26.57 2.153 21.93.805 17.818.805 7.845.808.973 8.724.934 22.444" mask="url(#f)"/>
        </g>
        <g transform="translate(194 10)">
            <mask id="h" fill="#fff">
                <use xlink:href="#g"/>
            </mask>
            <path d="M0 2.695c-.007 2.419 1.645 5.351 3.684 6.559L37.286 29.15c2.04 1.209 3.702.237 3.708-2.182.008-2.404-1.644-5.337-3.685-6.544L3.709.528C3.113.175 2.55.009 2.05.009.841.01.005.992.001 2.695" mask="url(#h)"/>
        </g>
        <g transform="translate(204 327)">
            <mask id="j" fill="#fff">
                <use xlink:href="#i"/>
            </mask>
            <path d="M.14 7.08c-.017 6.323 4.43 14.027 9.932 17.204 5.501 3.174 9.98.623 9.997-5.697.018-6.322-4.431-14.026-9.932-17.203C8.532.457 7.014.017 5.667.017 2.403.017.153 2.603.14 7.08" mask="url(#j)"/>
        </g>
        <path fill="#F9FBFC" d="M296.8 95.285c1.693.98 3.06 3.351 3.054 5.3l-.74 261.595c-.006 1.946-1.381 2.733-3.075 1.754l-163.845-94.786c-1.693-.98-3.06-3.35-3.054-5.3l.74-261.594c.005-1.949 1.381-2.734 3.074-1.755L296.8 95.285z"/>
        <path fill="#5B6AB1" d="M212.965 113.595c8.382 4.85 15.172 16.557 15.256 26.242l.001.238c-.352.14-7.036 2.81-15.538-1.936a14.842 14.842 0 0 1-.296-.169c-6.646-3.845-12.089-11.47-14.03-14.413a36.833 36.833 0 0 1-.763-1.2c.028-9.73 6.906-13.657 15.37-8.762"/>
        <path fill="#CFE3FF" d="M281.939 197.98c1.94 1.121 3.503 3.836 3.497 6.054l-.042 14.752c-.006 2.233-1.58 3.133-3.521 2.01l-134.651-77.897c-1.94-1.122-3.505-3.838-3.498-6.07l.042-14.752c.006-2.218 1.58-3.116 3.52-1.994l134.653 77.896z"/>
        <g transform="translate(187 75)">
            <mask id="l" fill="#fff">
                <use xlink:href="#k"/>
            </mask>
            <path d="M2.682 7.31c-.179.319-.346.65-.508.99-.801 1.707-1.382 3.677-1.706 5.89a29.856 29.856 0 0 0-.302 4.244 33.964 33.964 0 0 0 .035 1.632c.02.439.046.882.08 1.327l.022.232c.036.424.078.85.146 1.432.055.454.12.91.191 1.368.015.098.03.197.047.295.073.457.154.915.274 1.526a50.392 50.392 0 0 0 .332 1.546c.107.457.222.914.342 1.371.024.095.05.188.073.283a54.32 54.32 0 0 0 1.428 4.486c.029.072.054.142.083.216a52.995 52.995 0 0 0 1.262 3.118 57.033 57.033 0 0 0 1.301 2.77l.12.242c.224.442.454.882.689 1.318.045.086.091.17.138.256.239.436.48.872.752 1.347a63.478 63.478 0 0 0 1.732 2.824c.045.07.092.14.137.212.255.385.513.768.89 1.317.194.283.396.56.595.836a34.44 34.44 0 0 1-.697-1.098c.027-9.739 6.911-13.668 15.38-8.768 8.383 4.85 15.177 16.56 15.264 26.25.143-.045.285-.085.509-.166a12.6 12.6 0 0 0 .799-.336l.16-.072a11.421 11.421 0 0 0 .892-.47c.253-.15.499-.3.791-.5.234-.163.464-.336.686-.515.035-.027.07-.054.105-.083.224-.183.441-.377.653-.577.041-.036.08-.075.121-.114.21-.204.416-.416.615-.637l.089-.101a13.1 13.1 0 0 0 1.159-1.518 14.183 14.183 0 0 0 .659-1.093c.155-.281.302-.57.499-.988.137-.293.266-.595.426-.995a19.231 19.231 0 0 0 .414-1.172c.108-.334.206-.675.298-1.026.019-.06.032-.123.049-.183a24.375 24.375 0 0 0 .633-3.663l.025-.235c.036-.404.066-.813.087-1.23l.008-.202c.019-.442.032-.889.034-1.344.005-1.499-.09-3.03-.278-4.579-.312-2.582-.879-5.216-1.669-7.842a53.37 53.37 0 0 0-1.889-5.266C42.221 19.16 34.368 9.205 25.404 4.021c-4.056-2.348-7.89-3.46-11.289-3.46C9.147.562 5.11 2.939 2.682 7.31m23.19 28.55c-5.155-2.982-9.331-10.234-9.317-16.168.017-5.951 4.223-8.338 9.377-5.356 5.168 2.988 9.333 10.219 9.317 16.17-.013 4.206-2.119 6.64-5.185 6.64-1.261 0-2.686-.414-4.192-1.286" mask="url(#l)"/>
        </g>
        <g>
            <path fill="#5B6AB1" d="M213.37 89.313c5.137 2.992 9.278 10.228 9.261 16.182-.018 5.943-4.183 8.353-9.32 5.361-5.125-2.986-9.277-10.243-9.259-16.184.016-5.955 4.194-8.344 9.319-5.359"/>
            <path fill="#CFE3FF" d="M281.472 230.198c1.928 1.124 3.484 3.842 3.478 6.08l-.041 14.774c-.006 2.238-1.573 3.125-3.503 2L147.48 175.027c-1.93-1.124-3.486-3.83-3.479-6.067l.042-14.774c.006-2.237 1.571-3.137 3.5-2.013l133.93 78.024z"/>
        </g>
        <g transform="translate(177 226)">
            <mask id="o" fill="#fff">
                <use xlink:href="#m"/>
            </mask>
            <path fill="url(#n)" d="M.414 6.734l-.007 3.38c-.015 5.284 3.736 11.715 8.371 14.37l43.933 25.158c4.636 2.657 8.398.53 8.415-4.755l.009-3.382c.015-5.27-3.725-11.708-8.36-14.363L8.842 1.983C7.49 1.207 6.211.841 5.075.841 2.323.841.426 3.002.415 6.734" mask="url(#o)"/>
        </g>
        <g>
            <path fill="#FF9D6F" d="M185.167 258.264s2.94-1.972 3.676-2.96c.735-.985 1.713-6.658.735-6.904-.981-.247-1.715 3.699-1.715 3.699s-.246-10.358-1.472-11.838c-1.224-1.479-5.145 5.918-5.39 7.153-.245 1.232-1.225 6.41-1.225 6.41s1.47 4.44 5.39 4.44"/>
            <path fill="#113C7A" d="M110.278 288s-7.683 7.75-2.292 17.12c5.39 9.372 42.143-13.81 46.064-17.262 3.919-3.454 29.645-26.634 31.117-29.594 1.47-2.959-1.716-5.918-5.637-5.426-3.919.494-19.6 17.264-31.85 25.156 0 0-29.23 6.695-37.402 10.006M114.78 451.993s-.632 4.668.21 6.578c.845 1.7 4.218 2.97 6.537 1.273 2.32-1.696 6.326-5.942 6.326-5.942s6.747-3.607 7.378-5.516c.634-1.91-1.686-3.61-3.583-3.183-1.897.424-7.38 3.82-9.91 3.82-2.53 0-6.115.634-6.957 2.97"/>
        </g>
        <g transform="translate(107 353)">
            <mask id="r" fill="#fff">
                <use xlink:href="#p"/>
            </mask>
            <path fill="url(#q)" d="M7.15 100.976c.77 2.842 8.754 4.475 10.233-.04.94-2.865 3.258-93.642 3.258-93.642L.229.042S6.384 98.134 7.15 100.976" mask="url(#r)"/>
        </g>
        <path fill="#113C7A" d="M133.525 457.36c-.335.28-.52.69-.524 1.12-.012 1.32.05 4.265.817 5.41 1.002 1.501 4.137 3.088 7.417 1.351 2.763-1.462 11.272-7.661 12.998-9.032a4.93 4.93 0 0 0 1.72-2.651c.185-.71-.186-1.445-.875-1.743-1.204-.524-3.267-1.177-5.112-.572-2.818.923-6.366 3.898-10.203 3.738-2.884-.121-5.243 1.544-6.238 2.378"/>
        <g transform="translate(115 349)">
            <mask id="u" fill="#fff">
                <use xlink:href="#s"/>
            </mask>
            <path fill="url(#t)" d="M22.39.592C13.92.13.804.497.346 7.14c-.681 9.837 3.881 16.857 8.283 21.631 3.254 3.53 5.42 10.28 6.33 13.569.77 25.982 2.472 62.616 3.538 66.123 1.713 5.649 10.143 5.394 10.525-.106C30.728 89.769 32.075 4.6 32.075 4.6 31.76 1.568 29.005.06 25.787.06a11.47 11.47 0 0 0-3.396.532" mask="url(#u)"/>
        </g>
        <g>
            <path fill="#113C7A" d="M146.926 357.282c-1 5.045-15.262 7.567-23.602 6.222-8.34-1.345-17.322-5.47-17.025-15.22 0 0 1.584-23.307.95-27.458-.633-4.152-2.216-11.496-2.216-19.157 0-7.663 4.78-13.336 4.78-13.336s4.67-5.382 19.35-2.354c0 0 11.957 2.627 17.462 11.54 0 0 3.8 9.791 2.534 30.225-1.268 20.434-2.233 29.538-2.233 29.538"/>
            <path fill="#FF7C40" d="M117.7 275.168s1.267 7.449 0 10.856c-.212 1.702 7.178 7.449 13.723 5.96 3.8-.852 3.59-2.769 3.59-2.769s-3.167-5.32-2.744-10.43c.422-5.108-10.135-4.682-14.569-3.617"/>
            <path fill="#FF9D6F" d="M142.402 260.161c0 9.698-7.798 17.56-17.417 17.56-9.62 0-17.42-7.862-17.42-17.56 0-9.698 7.8-17.562 17.42-17.562 9.62 0 17.417 7.864 17.417 17.562"/>
            <path fill="#FF9D6F" d="M142.402 261.331s.212 17.592-3.588 21.142c-3.8 3.55-9.635-3.324-18.965-5.528-9.327-2.416 7.564-20.707 7.564-20.707l14.989 5.093zM181.063 287.325s-1.656-6.865-1.104-7.422c.551-.556 2.76 2.413 2.76 2.413s1.105-7.05 2.025-7.792c.92-.743 4.6 2.968 5.151 5.008.553 2.042-2.207 10.205-3.312 10.391-1.103.185-4.968.741-5.52-2.598"/>
            <path fill="#113C7A" d="M141.5 295.488s-7.728 3.71-4.418 13.358c3.314 9.647 27.972 13.357 30.917 10.388 2.943-2.968 15.824-18.18 19.505-29.683 0 0-1.473-4.451-7.362-2.597 0 0-13.984 17.81-16.192 19.667-2.21 1.853-18.77-11.876-22.45-11.133"/>
            <path fill="#843837" d="M110.079 246.78s5.428-6.688 14.776-7.298c9.346-.608 13.87 2.433 17.489 2.129 3.618-.304 6.934 2.737 5.728 7.296-1.205 4.56-3.92 9.121-9.95 9.121-6.031 0-7.54-.913-7.54-.913s4.825 2.128 5.429 6.384c.603 4.258.603 10.641.603 10.641h-1.508s-1.205-6.993-3.618-6.993c-2.412 0-2.412 7.601-.302 8.818l2.112 1.215s-4.05 7.565-6.247 7.887c-2.196.322-9.434-5.15-9.434-5.15s-12.061-5.777-13.268-15.201c-1.206-9.425 5.73-17.937 5.73-17.937"/>
            <path fill="#69F0AE" d="M4.03 223.337c-2.223 1.293-4.037 4.472-4.03 7.06l.27 95.913c.017 6.112 4.327 8.611 9.577 5.557l56.668-32.986c2.225-1.296 4.04-4.474 4.032-7.064l-.27-95.91c-.017-6.113-4.327-8.612-9.577-5.557L4.03 223.337z"/>
            <path fill="#FFF" d="M12.726 258.094c-.666.388-1.202 1.325-1.2 2.091l.015 5.093c.001.771.542 1.081 1.208.694l46.206-26.896c.664-.388 1.202-1.324 1.199-2.094l-.014-5.094c-.003-.767-.542-1.077-1.208-.688l-46.206 26.894zM12.758 269.18c-.666.388-1.202 1.324-1.2 2.097l.014 5.091c.002.771.542 1.077 1.208.688l46.206-26.894c.665-.388 1.202-1.32 1.2-2.091l-.016-5.092c-.001-.772-.54-1.082-1.206-.695l-46.206 26.895zM30.794 277.433c-1.578.919-2.849 3.145-2.844 4.967l.004 1.168c.005 1.828 1.284 2.563 2.861 1.646l14.945-8.7c1.577-.917 2.853-3.141 2.849-4.967l-.005-1.17c-.004-1.822-1.29-2.56-2.867-1.641l-14.943 8.697z"/>
        </g>
    </g>
</svg>
