<?xml version="1.0" standalone="no"?>
<!DOCTYPE svg PUBLIC "-//W3C//DTD SVG 1.1//EN" "http://www.w3.org/Graphics/SVG/1.1/DTD/svg11.dtd" >
<svg xmlns="http://www.w3.org/2000/svg">
<metadata>Generated by IcoMoon</metadata>
<defs>
<font id="icomoon" horiz-adv-x="1024">
<font-face units-per-em="1024" ascent="960" descent="-64" />
<missing-glyph horiz-adv-x="1024" />
<glyph unicode="&#x20;" horiz-adv-x="512" d="" />
<glyph unicode="&#xe900;" glyph-name="address-book" horiz-adv-x="896" d="M872 640c13.2 0 24 10.8 24 24v80c0 13.2-10.8 24-24 24h-40v96c0 53-43 96-96 96h-640c-53 0-96-43-96-96v-832c0-53 43-96 96-96h640c53 0 96 43 96 96v96h40c13.2 0 24 10.8 24 24v80c0 13.2-10.8 24-24 24h-40v128h40c13.2 0 24 10.8 24 24v80c0 13.2-10.8 24-24 24h-40v128h40zM736 32h-640v832h640v-832zM416 448c70.6 0 128 57.4 128 128s-57.4 128-128 128-128-57.4-128-128 57.4-128 128-128zM236.8 192h358.4c24.8 0 44.8 17.2 44.8 38.4v38.4c0 63.6-60.2 115.2-134.4 115.2-21.6 0-37.4-16-89.6-16-53.8 0-66.8 16-89.6 16-74.2 0-134.4-51.6-134.4-115.2v-38.4c0-21.2 20-38.4 44.8-38.4z" />
<glyph unicode="&#xe901;" glyph-name="address-card" horiz-adv-x="1152" d="M1056 896h-960c-53 0-96-43-96-96v-704c0-53 43-96 96-96h960c53 0 96 43 96 96v704c0 53-43 96-96 96zM1056 96h-960v704h960v-704zM416 448c70.6 0 128 57.4 128 128s-57.4 128-128 128-128-57.4-128-128 57.4-128 128-128zM236.8 192h358.4c24.8 0 44.8 17.2 44.8 38.4v38.4c0 63.6-60.2 115.2-134.4 115.2-21.6 0-37.4-16-89.6-16-53.8 0-66.8 16-89.6 16-74.2 0-134.4-51.6-134.4-115.2v-38.4c0-21.2 20-38.4 44.8-38.4zM720 320h224c8.8 0 16 7.2 16 16v32c0 8.8-7.2 16-16 16h-224c-8.8 0-16-7.2-16-16v-32c0-8.8 7.2-16 16-16zM720 448h224c8.8 0 16 7.2 16 16v32c0 8.8-7.2 16-16 16h-224c-8.8 0-16-7.2-16-16v-32c0-8.8 7.2-16 16-16zM720 576h224c8.8 0 16 7.2 16 16v32c0 8.8-7.2 16-16 16h-224c-8.8 0-16-7.2-16-16v-32c0-8.8 7.2-16 16-16z" />
<glyph unicode="&#xe902;" glyph-name="angry" horiz-adv-x="992" d="M496 944c-274 0-496-222-496-496s222-496 496-496 496 222 496 496-222 496-496 496zM496 48c-220.6 0-400 179.4-400 400s179.4 400 400 400 400-179.4 400-400-179.4-400-400-400zM496 336c-67.2 0-130.4-29.6-173.6-81.2-17-20.4-14.2-50.6 6.2-67.6s50.6-14.4 67.6 6c49.6 59.4 150 59.4 199.6 0 16.2-19.4 46.4-23.8 67.6-6 20.4 17 23 47.2 6.2 67.6-43.2 51.6-106.4 81.2-173.6 81.2zM400 480c20.6 0 39.8 13.4 46 34.2 7.6 25.4-6.8 52.2-32.2 59.8l-160 48c-25.6 7.8-52.2-6.8-59.8-32.2s6.8-52.2 32.2-59.8l56.4-17c-6.2-9.8-10.6-20.8-10.6-33.2 0-35.4 28.6-64 64-64s64 28.8 64 64.2zM798 589.8c-7.6 25.4-34.2 39.8-59.8 32.2l-160-48c-25.4-7.6-39.8-34.4-32.2-59.8 6.2-20.8 25.4-34.2 46-34.2 0-35.4 28.6-64 64-64s64 28.6 64 64c0 12.4-4.4 23.4-10.6 33.2l56.4 17c25.4 7.4 39.8 34.2 32.2 59.6z" />
<glyph unicode="&#xe903;" glyph-name="arrow-alt-circle-down" d="M512 944c-274 0-496-222-496-496s222-496 496-496 496 222 496 496-222 496-496 496zM512 48c-221 0-400 179-400 400s179 400 400 400 400-179 400-400-179-400-400-400zM448 680v-232h-134c-21.4 0-32-25.8-17-41l198-198c9.4-9.4 24.6-9.4 34 0l198 198c15.2 15.2 4.4 41-17 41h-134v232c0 13.2-10.8 24-24 24h-80c-13.2 0-24-10.8-24-24z" />
<glyph unicode="&#xe904;" glyph-name="arrow-alt-circle-left" d="M16 448c0-274 222-496 496-496s496 222 496 496-222 496-496 496-496-222-496-496zM912 448c0-221-179-400-400-400s-400 179-400 400 179 400 400 400 400-179 400-400zM768 488v-80c0-13.2-10.8-24-24-24h-232v-134c0-21.4-25.8-32-41-17l-198 198c-9.4 9.4-9.4 24.6 0 34l198 198c15.2 15.2 41 4.4 41-17v-134h232c13.2 0 24-10.8 24-24z" />
<glyph unicode="&#xe905;" glyph-name="arrow-alt-circle-right" d="M1008 448c0 274-222 496-496 496s-496-222-496-496 222-496 496-496 496 222 496 496zM112 448c0 221 179 400 400 400s400-179 400-400-179-400-400-400-400 179-400 400zM256 408v80c0 13.2 10.8 24 24 24h232v134c0 21.4 25.8 32 41 17l198-198c9.4-9.4 9.4-24.6 0-34l-198-198c-15.2-15.2-41-4.4-41 17v134h-232c-13.2 0-24 10.8-24 24z" />
<glyph unicode="&#xe906;" glyph-name="arrow-alt-circle-up" d="M512-48c274 0 496 222 496 496s-222 496-496 496-496-222-496-496 222-496 496-496zM512 848c221 0 400-179 400-400s-179-400-400-400-400 179-400 400 179 400 400 400zM552 192h-80c-13.2 0-24 10.8-24 24v232h-134c-21.4 0-32 25.8-17 41l198 198c9.4 9.4 24.6 9.4 34 0l198-198c15.2-15.2 4.4-41-17-41h-134v-232c0-13.2-10.8-24-24-24z" />
<glyph unicode="&#xe907;" glyph-name="bell-slash" horiz-adv-x="1280" d="M1267.98 17.96l-1195.98 935.020c-13.8 11.040-33.94 8.82-44.98-4.98l-20-24.98c-11.060-13.8-8.82-33.94 4.98-44.98l1196-935.020c13.8-11.040 33.92-8.8 44.98 4.98l20 24.98c11.040 13.8 8.82 33.94-5 44.98zM327.060 224c33.42 44.060 68.96 111.6 82.8 221.16l-90.94 71.1c-6.54-181.46-72.94-241.36-109.68-280.84-12-12.9-17.32-28.32-17.22-43.42 0.22-32.8 25.96-64 64.2-64h559.32l-122.8 96h-365.68zM640 768c123.72 0 224-100.28 224-224 0-0.4-0.12-0.76-0.12-1.16 0.040-33.68 2.32-63.54 5.58-91.46l119.060-93.080c-16.62 44.26-28.68 102.98-28.68 185.7 0 155.4-108.96 279.8-255.88 310.32v41.68c0 35.34-28.64 64-63.96 64s-63.96-28.66-63.96-64v-41.68c-52.040-10.82-98.9-33.88-138.26-65.44l76.34-59.68c35.88 24.44 79.18 38.8 125.88 38.8zM640-64c70.64 0 127.94 57.3 127.94 128h-255.88c0-70.7 57.3-128 127.94-128z" />
<glyph unicode="&#xe908;" glyph-name="bell" horiz-adv-x="896" d="M878.78 235.42c-38.64 41.52-110.94 103.98-110.94 308.58 0 155.4-108.96 279.8-255.88 310.32v41.68c0 35.34-28.64 64-63.96 64s-63.96-28.66-63.96-64v-41.68c-146.92-30.52-255.88-154.92-255.88-310.32 0-204.6-72.3-267.060-110.94-308.58-12-12.9-17.32-28.32-17.22-43.42 0.22-32.8 25.96-64 64.2-64h767.6c38.24 0 64 31.2 64.2 64 0.1 15.1-5.22 30.54-17.22 43.42zM135.060 224c42.44 55.94 88.84 148.66 89.060 318.84 0 0.4-0.12 0.76-0.12 1.16 0 123.72 100.28 224 224 224s224-100.28 224-224c0-0.4-0.12-0.76-0.12-1.16 0.22-170.2 46.62-262.92 89.060-318.84h-625.88zM448-64c70.64 0 127.94 57.3 127.94 128h-255.88c0-70.7 57.3-128 127.94-128z" />
<glyph unicode="&#xe909;" glyph-name="bookmark" horiz-adv-x="768" d="M672 960h-576c-53.020 0-96-42.98-96-96v-928l384 224 384-224v928c0 53.020-42.98 96-96 96zM672 103.14l-288 168-288-168v748.86c0 6.627 5.373 12 12 12v0h552c6.628 0 12-5.366 12-11.992v-748.868z" />
<glyph unicode="&#xe90a;" glyph-name="building" horiz-adv-x="896" d="M256 664v80c0 13.2 10.8 24 24 24h80c13.2 0 24-10.8 24-24v-80c0-13.2-10.8-24-24-24h-80c-13.2 0-24 10.8-24 24zM536 640h80c13.2 0 24 10.8 24 24v80c0 13.2-10.8 24-24 24h-80c-13.2 0-24-10.8-24-24v-80c0-13.2 10.8-24 24-24zM280 448h80c13.2 0 24 10.8 24 24v80c0 13.2-10.8 24-24 24h-80c-13.2 0-24-10.8-24-24v-80c0-13.2 10.8-24 24-24zM536 448h80c13.2 0 24 10.8 24 24v80c0 13.2-10.8 24-24 24h-80c-13.2 0-24-10.8-24-24v-80c0-13.2 10.8-24 24-24zM384 280v80c0 13.2-10.8 24-24 24h-80c-13.2 0-24-10.8-24-24v-80c0-13.2 10.8-24 24-24h80c13.2 0 24 10.8 24 24zM536 256h80c13.2 0 24 10.8 24 24v80c0 13.2-10.8 24-24 24h-80c-13.2 0-24-10.8-24-24v-80c0-13.2 10.8-24 24-24zM896 8v-72h-896v72c0 13.2 10.8 24 24 24h39v880c0 26.6 21.4 48 48 48h674c26.6 0 48-21.4 48-48v-880h39c13.2 0 24-10.8 24-24zM159 34h225v134c0 13.2 10.8 24 24 24h80c13.2 0 24-10.8 24-24v-134h225v828l-577 2-1-830z" />
<glyph unicode="&#xe90b;" glyph-name="calendar-alt" horiz-adv-x="896" d="M296 384h-80c-13.2 0-24 10.8-24 24v80c0 13.2 10.8 24 24 24h80c13.2 0 24-10.8 24-24v-80c0-13.2-10.8-24-24-24zM512 408v80c0 13.2-10.8 24-24 24h-80c-13.2 0-24-10.8-24-24v-80c0-13.2 10.8-24 24-24h80c13.2 0 24 10.8 24 24zM704 408v80c0 13.2-10.8 24-24 24h-80c-13.2 0-24-10.8-24-24v-80c0-13.2 10.8-24 24-24h80c13.2 0 24 10.8 24 24zM512 216v80c0 13.2-10.8 24-24 24h-80c-13.2 0-24-10.8-24-24v-80c0-13.2 10.8-24 24-24h80c13.2 0 24 10.8 24 24zM320 216v80c0 13.2-10.8 24-24 24h-80c-13.2 0-24-10.8-24-24v-80c0-13.2 10.8-24 24-24h80c13.2 0 24 10.8 24 24zM704 216v80c0 13.2-10.8 24-24 24h-80c-13.2 0-24-10.8-24-24v-80c0-13.2 10.8-24 24-24h80c13.2 0 24 10.8 24 24zM896 736v-704c0-53-43-96-96-96h-704c-53 0-96 43-96 96v704c0 53 43 96 96 96h96v104c0 13.2 10.8 24 24 24h80c13.2 0 24-10.8 24-24v-104h256v104c0 13.2 10.8 24 24 24h80c13.2 0 24-10.8 24-24v-104h96c53 0 96-43 96-96zM800 44v596h-704v-596c0-6.6 5.4-12 12-12h680c6.6 0 12 5.4 12 12z" />
<glyph unicode="&#xe90c;" glyph-name="calendar-check" horiz-adv-x="896" d="M800 832h-96v104c0 13.254-10.746 24-24 24h-80c-13.254 0-24-10.746-24-24v-104h-256v104c0 13.254-10.746 24-24 24h-80c-13.254 0-24-10.746-24-24v-104h-96c-53.020 0-96-42.98-96-96v-704c0-53.020 42.98-96 96-96h704c53.020 0 96 42.98 96 96v704c0 53.020-42.98 96-96 96zM788 32h-680c-6.627 0-12 5.373-12 12v0 596h704v-596c0-6.627-5.373-12-12-12v0zM682.302 433.3l-284.618-282.338c-9.41-9.334-24.606-9.274-33.942 0.136l-150.182 151.398c-9.334 9.41-9.274 24.606 0.136 33.942l45.438 45.072c9.41 9.334 24.606 9.274 33.94-0.138l88.208-88.922 222.144 220.362c9.41 9.334 24.606 9.274 33.942-0.136l45.072-45.436c9.334-9.41 9.272-24.606-0.138-33.94z" />
<glyph unicode="&#xe90d;" glyph-name="calendar-minus" horiz-adv-x="896" d="M248 304c-13.2 0-24 10.8-24 24v48c0 13.2 10.8 24 24 24h400c13.2 0 24-10.8 24-24v-48c0-13.2-10.8-24-24-24h-400zM896 736v-704c0-53-43-96-96-96h-704c-53 0-96 43-96 96v704c0 53 43 96 96 96h96v104c0 13.2 10.8 24 24 24h80c13.2 0 24-10.8 24-24v-104h256v104c0 13.2 10.8 24 24 24h80c13.2 0 24-10.8 24-24v-104h96c53 0 96-43 96-96zM800 44v596h-704v-596c0-6.6 5.4-12 12-12h680c6.6 0 12 5.4 12 12z" />
<glyph unicode="&#xe90e;" glyph-name="calendar-plus" horiz-adv-x="896" d="M672 376v-48c0-13.2-10.8-24-24-24h-152v-152c0-13.2-10.8-24-24-24h-48c-13.2 0-24 10.8-24 24v152h-152c-13.2 0-24 10.8-24 24v48c0 13.2 10.8 24 24 24h152v152c0 13.2 10.8 24 24 24h48c13.2 0 24-10.8 24-24v-152h152c13.2 0 24-10.8 24-24zM896 736v-704c0-53-43-96-96-96h-704c-53 0-96 43-96 96v704c0 53 43 96 96 96h96v104c0 13.2 10.8 24 24 24h80c13.2 0 24-10.8 24-24v-104h256v104c0 13.2 10.8 24 24 24h80c13.2 0 24-10.8 24-24v-104h96c53 0 96-43 96-96zM800 44v596h-704v-596c0-6.6 5.4-12 12-12h680c6.6 0 12 5.4 12 12z" />
<glyph unicode="&#xe90f;" glyph-name="calendar-times" horiz-adv-x="896" d="M623.4 210.6l-34-34c-9.4-9.4-24.6-9.4-34 0l-107.4 107.6-107.4-107.4c-9.4-9.4-24.6-9.4-34 0l-34 34c-9.4 9.4-9.4 24.6 0 34l107.4 107.4-107.4 107.4c-9.4 9.4-9.4 24.6 0 34l34 34c9.4 9.4 24.6 9.4 34 0l107.4-107.4 107.4 107.4c9.4 9.4 24.6 9.4 34 0l34-34c9.4-9.4 9.4-24.6 0-34l-107.6-107.6 107.4-107.4c9.6-9.4 9.6-24.6 0.2-34zM896 736v-704c0-53-43-96-96-96h-704c-53 0-96 43-96 96v704c0 53 43 96 96 96h96v104c0 13.2 10.8 24 24 24h80c13.2 0 24-10.8 24-24v-104h256v104c0 13.2 10.8 24 24 24h80c13.2 0 24-10.8 24-24v-104h96c53 0 96-43 96-96zM800 44v596h-704v-596c0-6.6 5.4-12 12-12h680c6.6 0 12 5.4 12 12z" />
<glyph unicode="&#xe910;" glyph-name="calendar" horiz-adv-x="896" d="M800 832h-96v104c0 13.2-10.8 24-24 24h-80c-13.2 0-24-10.8-24-24v-104h-256v104c0 13.2-10.8 24-24 24h-80c-13.2 0-24-10.8-24-24v-104h-96c-53 0-96-43-96-96v-704c0-53 43-96 96-96h704c53 0 96 43 96 96v704c0 53-43 96-96 96zM788 32h-680c-6.6 0-12 5.4-12 12v596h704v-596c0-6.6-5.4-12-12-12z" />
<glyph unicode="&#xe911;" glyph-name="caret-square-down" horiz-adv-x="896" d="M250.2 544h395.6c21.4 0 32.2-26 17-41l-197.8-196.6c-9.4-9.4-24.4-9.4-33.8 0l-197.8 196.6c-15.4 15-4.6 41 16.8 41zM896 800v-704c0-53-43-96-96-96h-704c-53 0-96 43-96 96v704c0 53 43 96 96 96h704c53 0 96-43 96-96zM800 108v680c0 6.6-5.4 12-12 12h-680c-6.6 0-12-5.4-12-12v-680c0-6.6 5.4-12 12-12h680c6.6 0 12 5.4 12 12z" />
<glyph unicode="&#xe912;" glyph-name="caret-square-left" horiz-adv-x="896" d="M544 645.8v-395.6c0-21.4-26-32.2-41-17l-196.6 197.8c-9.4 9.4-9.4 24.4 0 33.8l196.6 197.8c15 15.4 41 4.6 41-16.8zM896 800v-704c0-53-43-96-96-96h-704c-53 0-96 43-96 96v704c0 53 43 96 96 96h704c53 0 96-43 96-96zM800 108v680c0 6.6-5.4 12-12 12h-680c-6.6 0-12-5.4-12-12v-680c0-6.6 5.4-12 12-12h680c6.6 0 12 5.4 12 12z" />
<glyph unicode="&#xe913;" glyph-name="caret-square-right" horiz-adv-x="896" d="M352 250.2v395.6c0 21.4 26 32.2 41 17l196.6-197.8c9.4-9.4 9.4-24.4 0-33.8l-196.6-197.8c-15-15.4-41-4.6-41 16.8zM896 800v-704c0-53-43-96-96-96h-704c-53 0-96 43-96 96v704c0 53 43 96 96 96h704c53 0 96-43 96-96zM800 108v680c0 6.6-5.4 12-12 12h-680c-6.6 0-12-5.4-12-12v-680c0-6.6 5.4-12 12-12h680c6.6 0 12 5.4 12 12z" />
<glyph unicode="&#xe914;" glyph-name="caret-square-up" horiz-adv-x="896" d="M645.8 352h-395.6c-21.4 0-32.2 26-17 41l197.8 196.6c9.4 9.4 24.4 9.4 33.8 0l197.8-196.6c15.4-15 4.6-41-16.8-41zM896 800v-704c0-53-43-96-96-96h-704c-53 0-96 43-96 96v704c0 53 43 96 96 96h704c53 0 96-43 96-96zM800 108v680c0 6.6-5.4 12-12 12h-680c-6.6 0-12-5.4-12-12v-680c0-6.6 5.4-12 12-12h680c6.6 0 12 5.4 12 12z" />
<glyph unicode="&#xe915;" glyph-name="chart-bar" d="M793.6 256h44.8c12.8 0 25.6 12.8 25.6 25.6v460.8c0 12.8-12.8 25.6-25.6 25.6h-44.8c-12.8 0-25.6-12.8-25.6-25.6v-460.8c0-12.8 12.8-25.6 25.6-25.6zM409.6 256h44.8c12.8 0 25.6 12.8 25.6 25.6v396.8c0 12.8-12.8 25.6-25.6 25.6h-44.8c-12.8 0-25.6-12.8-25.6-25.6v-396.8c0-12.8 12.8-25.6 25.6-25.6zM601.6 256h44.8c12.8 0 25.6 12.8 25.6 25.6v268.8c0 12.8-12.8 25.6-25.6 25.6h-44.8c-12.8 0-25.6-12.8-25.6-25.6v-268.8c0-12.8 12.8-25.6 25.6-25.6zM992 160h-896v640c0 17.68-14.32 32-32 32h-32c-17.68 0-32-14.32-32-32v-672c0-35.34 28.66-64 64-64h928c17.68 0 32 14.32 32 32v32c0 17.68-14.32 32-32 32zM217.6 256h44.8c12.8 0 25.6 12.8 25.6 25.6v140.8c0 12.8-12.8 25.6-25.6 25.6h-44.8c-12.8 0-25.6-12.8-25.6-25.6v-140.8c0-12.8 12.8-25.6 25.6-25.6z" />
<glyph unicode="&#xe916;" glyph-name="check-circle" d="M512 944c-273.934 0-496-222.066-496-496s222.066-496 496-496 496 222.066 496 496-222.066 496-496 496zM512 848c221.064 0 400-178.902 400-400 0-221.064-178.902-400-400-400-221.064 0-400 178.902-400 400 0 221.064 178.902 400 400 400zM792.408 587.466l-45.072 45.436c-9.334 9.41-24.53 9.472-33.94 0.136l-282.704-280.432-119.584 120.554c-9.334 9.41-24.53 9.472-33.94 0.138l-45.438-45.072c-9.41-9.334-9.472-24.53-0.136-33.942l181.562-183.032c9.334-9.41 24.53-9.472 33.94-0.136l345.178 342.408c9.408 9.336 9.468 24.532 0.134 33.942z" />
<glyph unicode="&#xe917;" glyph-name="check-square" horiz-adv-x="896" d="M800 896h-704c-53.020 0-96-42.98-96-96v-704c0-53.020 42.98-96 96-96h704c53.020 0 96 42.98 96 96v704c0 53.020-42.98 96-96 96zM800 96h-704v704h704v-704zM728.272 579.448l-345.178-342.408c-9.41-9.334-24.606-9.274-33.94 0.136l-181.562 183.032c-9.334 9.41-9.274 24.606 0.138 33.942l45.438 45.072c9.41 9.334 24.606 9.274 33.94-0.138l119.584-120.554 282.704 280.432c9.41 9.334 24.606 9.274 33.94-0.136l45.072-45.436c9.334-9.412 9.274-24.608-0.136-33.942z" />
<glyph unicode="&#xe918;" glyph-name="circle" d="M512 944c-274 0-496-222-496-496s222-496 496-496 496 222 496 496-222 496-496 496zM512 48c-221 0-400 179-400 400s179 400 400 400 400-179 400-400-179-400-400-400z" />
<glyph unicode="&#xe919;" glyph-name="clipboard" horiz-adv-x="768" d="M672 832h-160c0 70.58-57.42 128-128 128s-128-57.42-128-128h-160c-53.020 0-96-42.98-96-96v-704c0-53.020 42.98-96 96-96h576c53.020 0 96 42.98 96 96v704c0 53.020-42.98 96-96 96zM660 32h-552c-6.627 0-12 5.373-12 12v0 680c0 6.627 5.373 12 12 12v0h84v-72c0-13.254 10.746-24 24-24h336c13.254 0 24 10.746 24 24v72h84c6.627 0 12-5.373 12-12v0-680c0-6.627-5.373-12-12-12v0zM384 880c26.51 0 48-21.49 48-48s-21.49-48-48-48-48 21.49-48 48 21.49 48 48 48z" />
<glyph unicode="&#xe91a;" glyph-name="clock" d="M512 944c-274 0-496-222-496-496s222-496 496-496 496 222 496 496-222 496-496 496zM512 48c-221 0-400 179-400 400s179 400 400 400 400-179 400-400-179-400-400-400zM635.6 256.8l-169.8 123.4c-6.2 4.6-9.8 11.8-9.8 19.4v328.4c0 13.2 10.8 24 24 24h64c13.2 0 24-10.8 24-24v-283.4l133.6-97.2c10.8-7.8 13-22.8 5.2-33.6l-37.6-51.8c-7.8-10.6-22.8-13-33.6-5.2z" />
<glyph unicode="&#xe91b;" glyph-name="clone" d="M928 960h-640c-53.020 0-96-42.98-96-96v-96h-96c-53.020 0-96-42.98-96-96v-640c0-53.020 42.98-96 96-96h640c53.020 0 96 42.98 96 96v96h96c53.020 0 96 42.98 96 96v640c0 53.020-42.98 96-96 96zM724 32h-616c-6.627 0-12 5.373-12 12v0 616c0 6.627 5.373 12 12 12v0h84v-448c0-53.020 42.98-96 96-96h448v-84c0-6.627-5.373-12-12-12v0zM916 224h-616c-6.627 0-12 5.373-12 12v0 616c0 6.627 5.373 12 12 12v0h616c6.627 0 12-5.373 12-12v0-616c0-6.627-5.373-12-12-12v0z" />
<glyph unicode="&#xe91c;" glyph-name="closed-captioning" d="M928 832h-832c-53 0-96-43-96-96v-576c0-53 43-96 96-96h832c53 0 96 43 96 96v576c0 53-43 96-96 96zM916 160h-808c-6.6 0-12 5.4-12 12v552c0 6.6 5.4 12 12 12h808c6.6 0 12-5.4 12-12v-552c0-6.6-5.4-12-12-12zM493.8 331.4c3.4-4.8 3-11.2-1-15.4-107.2-113.6-345.6-64.2-345.6 135.8 0 194.6 243.4 239 345 140.2 4.2-4 5-6.4 2-11.4l-35-61c-3.8-6.2-12.4-8-18.2-3.4-81.6 64-189.2 29.8-189.2-62.4 0-96 102-141 184.4-65.2 5.6 5 14.2 4.2 18.4-1.8l39.2-55.4zM874.6 331.4c3.4-4.8 3-11.2-1-15.4-107.2-113.8-345.6-64.2-345.6 135.8 0 194.6 243.4 239 345 140.2 4.2-4 5-6.4 2-11.4l-35-61c-3.8-6.2-12.4-8-18.2-3.4-81.6 64-189.2 29.8-189.2-62.4 0-96 102-141 184.4-65.2 5.6 5 14.2 4.2 18.4-1.8l39.2-55.4z" />
<glyph unicode="&#xe91d;" glyph-name="comment-alt" d="M896 960h-768c-70.6 0-128-57.4-128-128v-576c0-70.6 57.4-128 128-128h192v-168c0-14.2 11.6-24 24-24 4.8 0 9.8 1.4 14.2 4.8l249.8 187.2h288c70.6 0 128 57.4 128 128v576c0 70.6-57.4 128-128 128zM928 256c0-17.6-14.4-32-32-32h-320l-160-120v120h-288c-17.6 0-32 14.4-32 32v576c0 17.6 14.4 32 32 32h768c17.6 0 32-14.4 32-32v-576z" />
<glyph unicode="&#xe91e;" glyph-name="comment-dots" d="M288 544c-35.4 0-64-28.6-64-64s28.6-64 64-64 64 28.6 64 64-28.6 64-64 64zM512 544c-35.4 0-64-28.6-64-64s28.6-64 64-64 64 28.6 64 64-28.6 64-64 64zM736 544c-35.4 0-64-28.6-64-64s28.6-64 64-64 64 28.6 64 64-28.6 64-64 64zM512 896c-282.8 0-512-186.2-512-416 0-95.2 39.8-182.4 105.8-252.6-29.8-78.8-91.8-145.6-92.8-146.4-13.2-14-16.8-34.4-9.2-52s25-29 44.2-29c123 0 220 51.4 278.2 92.6 57.8-18.2 120.2-28.6 185.8-28.6 282.8 0 512 186.2 512 416s-229.2 416-512 416zM512 160c-53.4 0-106.2 8.2-156.8 24.2l-45.4 14.4-39-27.6c-28.6-20.2-67.8-42.8-115-58 14.6 24.2 28.8 51.4 39.8 80.4l21.2 56.2-41.2 43.6c-36.2 38.6-79.6 102.4-79.6 186.8 0 176.4 186.6 320 416 320s416-143.6 416-320-186.6-320-416-320z" />
<glyph unicode="&#xe91f;" glyph-name="comment" d="M512 896c-282.8 0-512-186.2-512-416 0-95.2 39.8-182.4 105.8-252.6-29.8-78.8-91.8-145.6-92.8-146.4-13.2-14-16.8-34.4-9.2-52s25-29 44.2-29c123 0 220 51.4 278.2 92.6 57.8-18.2 120.2-28.6 185.8-28.6 282.8 0 512 186.2 512 416s-229.2 416-512 416zM512 160c-53.4 0-106.2 8.2-156.8 24.2l-45.4 14.4-39-27.6c-28.6-20.2-67.8-42.8-115-58 14.6 24.2 28.8 51.4 39.8 80.4l21.2 56.2-41.2 43.6c-36.2 38.6-79.6 102.4-79.6 186.8 0 176.4 186.6 320 416 320s416-143.6 416-320-186.6-320-416-320z" />
<glyph unicode="&#xe920;" glyph-name="comments" horiz-adv-x="1152" d="M1064 187.6c55 54.2 88 122.2 88 196.4 0 160-153 292.2-352.4 315.8-63 115.2-211 196.2-383.6 196.2-229.8 0-416-143.2-416-320 0-74 33-142 88-196.4-30.6-61.4-74.6-109-75.4-109.8-12.6-13.4-16.2-33-8.8-50 7.2-17 24-28 42.4-28 107 0 193.4 40.4 250.4 77.6 18.4-4.2 37.4-7.4 56.8-9.8 62.8-114.8 210.2-195.6 382.6-195.6 41.6 0 81.6 4.8 119.6 13.6 57-37 143.2-77.6 250.4-77.6 18.4 0 35 11 42.4 28 7.2 17 3.8 36.6-8.8 50-0.8 0.6-45 48.2-75.6 109.6zM278.4 372.2l-34.2-22.2c-28.2-18.2-57-32.6-86.2-42.8 5.4 9.4 10.8 19.4 16 29.6l31 62.2-49.6 49c-27 26.8-59.4 70.6-59.4 128 0 121.4 146.6 224 320 224s320-102.6 320-224-146.6-224-320-224c-33 0-66 3.8-98 11.2l-39.6 9zM996.6 256l-49.4-48.8 31-62.2c5.2-10.2 10.6-20.2 16-29.6-29.2 10.2-58 24.6-86.2 42.8l-34.2 22.2-39.8-9.2c-32-7.4-65-11.2-98-11.2-108 0-204.4 40.2-262.6 99.4 202.6 21.6 358.6 154.8 358.6 316.6 0 6.8-0.8 13.4-1.4 20 128.8-29 225.4-113.6 225.4-212 0-57.4-32.4-101.2-59.4-128z" />
<glyph unicode="&#xe921;" glyph-name="compass" horiz-adv-x="992" d="M695.88 700.28l-288.68-131.94c-14.016-6.512-25.028-17.524-31.376-31.147l-0.164-0.393-131.94-288.68c-15.22-33.3 19.080-67.62 52.4-52.4l288.68 131.94c14.016 6.512 25.028 17.524 31.376 31.147l0.164 0.393 131.94 288.68c15.22 33.32-19.080 67.62-52.4 52.4zM541.16 402.84c-24.94-24.94-65.38-24.94-90.32 0s-24.94 65.38 0 90.32c24.94 24.94 65.38 24.94 90.32 0s24.94-65.38 0-90.32zM496 944c-273.94 0-496-222.060-496-496s222.060-496 496-496 496 222.060 496 496-222.060 496-496 496zM496 48c-220.56 0-400 179.44-400 400s179.44 400 400 400 400-179.44 400-400-179.44-400-400-400z" />
<glyph unicode="&#xe922;" glyph-name="copy" horiz-adv-x="896" d="M867.882 828.118l-103.764 103.764c-17.373 17.373-41.372 28.118-67.882 28.118h-344.236c-53.020 0-96-42.98-96-96v-96h-160c-53.020 0-96-42.98-96-96v-640c0-53.020 42.98-96 96-96h448c53.020 0 96 42.98 96 96v96h160c53.020 0 96 42.98 96 96v536.236c0 26.51-10.745 50.509-28.118 67.882v0zM532 32h-424c-6.627 0-12 5.373-12 12v0 616c0 6.627 5.373 12 12 12v0h148v-448c0-53.020 42.98-96 96-96h192v-84c0-6.627-5.373-12-12-12v0zM788 224h-424c-6.627 0-12 5.373-12 12v0 616c0 6.627 5.373 12 12 12v0h212v-176c0-26.51 21.49-48 48-48h176v-404c0-6.627-5.373-12-12-12v0zM800 736h-128v128h19.264c3.182 0 6.234-1.264 8.486-3.514l96.736-96.736c2.171-2.172 3.514-5.171 3.514-8.485 0-0.001 0-0.001 0-0.002v0-19.264z" />
<glyph unicode="&#xe923;" glyph-name="bookmark2" d="M102.4 870.4c0 56.32 46.080 102.4 102.4 102.4h614.4c56.554 0 102.4-45.846 102.4-102.4v0-921.6l-409.6 204.8-409.6-204.8v921.6z" />
<glyph unicode="&#xe924;" glyph-name="credit-card" horiz-adv-x="1152" d="M1055.8 896h-959.6c-53.2 0-96.2-43-96.2-96v-704c0-53 43-96 96.2-96h959.6c53.2 0 96.2 43 96.2 96v704c0 53-43 96-96.2 96zM108.2 800h935.6c6.6 0 12-5.4 12-12v-84h-959.6v84c0 6.6 5.4 12 12 12zM1043.8 96h-935.6c-6.6 0-12 5.4-12 12v340h959.6v-340c0-6.6-5.4-12-12-12zM384 296v-80c0-13.2-10.8-24-24-24h-144c-13.2 0-24 10.8-24 24v80c0 13.2 10.8 24 24 24h144c13.2 0 24-10.8 24-24zM768 296v-80c0-13.2-10.8-24-24-24h-272c-13.2 0-24 10.8-24 24v80c0 13.2 10.8 24 24 24h272c13.2 0 24-10.8 24-24z" />
<glyph unicode="&#xe925;" glyph-name="dizzy" horiz-adv-x="992" d="M496 944c-274 0-496-222-496-496s222-496 496-496 496 222 496 496-222 496-496 496zM496 48c-220.6 0-400 179.4-400 400s179.4 400 400 400 400-179.4 400-400-179.4-400-400-400zM428.4 483.8c15.6 15.6 15.6 41 0 56.6l-35.8 35.6 35.8 35.8c15.6 15.6 15.6 41 0 56.6s-41 15.6-56.6 0l-35.8-35.8-35.6 35.6c-15.6 15.6-41 15.6-56.6 0s-15.6-41 0-56.6l35.8-35.8-35.8-35.8c-15.6-15.6-15.6-41 0-56.6s41-15.6 56.6 0l35.6 35.6 35.6-35.6c15.8-15.4 41-15.4 56.8 0.4zM748.4 668.2c-15.6 15.6-41 15.6-56.6 0l-35.8-35.6-35.6 35.6c-15.6 15.6-41 15.6-56.6 0s-15.6-41 0-56.6l35.8-35.8-35.8-35.8c-15.6-15.6-15.6-41 0-56.6s41-15.6 56.6 0l35.6 35.6 35.6-35.6c15.6-15.6 41-15.6 56.6 0s15.6 41 0 56.6l-35.6 36 35.8 35.8c15.4 15.6 15.4 40.8 0 56.4zM496 416c-70.6 0-128-57.4-128-128s57.4-128 128-128 128 57.4 128 128-57.4 128-128 128z" />
<glyph unicode="&#xe926;" glyph-name="dot-circle" d="M512 848c221.064 0 400-178.902 400-400 0-221.064-178.902-400-400-400-221.064 0-400 178.902-400 400 0 221.064 178.902 400 400 400zM512 944c-273.934 0-496-222.066-496-496s222.066-496 496-496 496 222.066 496 496-222.066 496-496 496zM512 608c-88.366 0-160-71.634-160-160s71.634-160 160-160 160 71.634 160 160-71.634 160-160 160z" />
<glyph unicode="&#xe927;" glyph-name="edit" horiz-adv-x="1152" d="M804.6 270.2l64 64c10 10 27.4 3 27.4-11.4v-290.8c0-53-43-96-96-96h-704c-53 0-96 43-96 96v704c0 53 43 96 96 96h547c14.2 0 21.4-17.2 11.4-27.4l-64-64c-3-3-7-4.6-11.4-4.6h-483v-704h704v227c0 4.2 1.6 8.2 4.6 11.2zM1117.8 673.8l-525.2-525.2-180.8-20c-52.4-5.8-97 38.4-91.2 91.2l20 180.8 525.2 525.2c45.8 45.8 119.8 45.8 165.4 0l86.4-86.4c45.8-45.8 45.8-120 0.2-165.6zM920.2 612l-116.2 116.2-371.6-371.8-14.6-130.6 130.6 14.6 371.8 371.6zM1049.8 771.4l-86.4 86.4c-8.2 8.2-21.6 8.2-29.6 0l-61.8-61.8 116.2-116.2 61.8 61.8c8 8.4 8 21.6-0.2 29.8z" />
<glyph unicode="&#xe928;" glyph-name="envelope-open" d="M989.172 630.968c-9.394 7.766-223.446 179.9-270.502 217.314-44.208 35.336-119.796 111.718-206.67 111.718-86.41 0-161.272-75.434-206.67-111.718-48.926-38.9-262.14-210.39-270.3-217.098-21.458-17.739-35.029-44.362-35.030-74.154v0-525.030c0-53.020 42.98-96 96-96h832c53.020 0 96 42.98 96 96v524.982c0 29.7-13.487 56.25-34.671 73.859l-0.157 0.127zM928 44c0-6.627-5.373-12-12-12v0h-808c-6.627 0-12 5.373-12 12v0 507.306c0 3.626 1.632 7.052 4.452 9.33 31.74 25.628 217.586 175.108 264.728 212.586 36.33 29.018 99.616 90.778 146.82 90.778 47.386 0 111.714-62.738 146.82-90.778 47.146-37.482 233.006-186.986 264.732-212.632 2.723-2.214 4.448-5.564 4.448-9.316 0-0.003 0-0.007 0-0.010v0.001-507.264zM864.018 419.408c8.498-10.318 6.93-25.59-3.49-33.962-57.95-46.566-118.548-95.194-141.858-113.726-45.398-36.286-120.26-111.72-206.67-111.72-86.904 0-162.574 76.474-206.67 111.72-22.558 17.934-83.488 66.826-141.854 113.73-10.42 8.374-11.986 23.644-3.49 33.962l30.516 37.056c8.356 10.146 23.314 11.686 33.558 3.452 57.236-46.002 117.132-94.070 141.12-113.142 35.106-28.040 99.434-90.778 146.82-90.778 47.204 0 110.492 61.76 146.82 90.778 23.988 19.070 83.888 67.14 141.126 113.136 10.244 8.232 25.202 6.692 33.556-3.454l30.516-37.052z" />
<glyph unicode="&#xe929;" glyph-name="envelope" d="M928 832h-832c-53.020 0-96-42.98-96-96v-576c0-53.020 42.98-96 96-96h832c53.020 0 96 42.98 96 96v576c0 53.020-42.98 96-96 96zM928 736v-81.61c-44.844-36.518-116.336-93.302-269.174-212.98-33.682-26.494-100.402-90.144-146.826-89.402-46.416-0.75-113.158 62.918-146.826 89.402-152.814 119.66-224.324 176.456-269.174 212.98v81.61h832zM96 160v371.204c45.828-36.502 110.818-87.724 209.876-165.292 43.714-34.41 120.268-110.372 206.124-109.91 85.434-0.462 161.018 74.398 206.106 109.894 99.056 77.566 164.064 128.802 209.894 165.306v-371.202h-832z" />
<glyph unicode="&#xe92a;" glyph-name="eye-slash" horiz-adv-x="1152" d="M545.404 241.722c-160.966 18.022-272.424 173.772-233.86 334.084l233.86-334.084zM576 176c-205.112 0-384.184 109.402-480 272 43.51 73.834 104.2 136.684 176.688 183.316l-55.082 78.686c-83.604-54.47-153.764-127.484-204.314-213.264-8.353-13.945-13.293-30.765-13.293-48.739s4.94-34.794 13.536-49.177l-0.243 0.438c112.716-191.272 322.988-319.26 562.708-319.26 0.013 0 0.027 0 0.042 0 27.932 0 55.462 1.72 82.49 5.060l-3.236-0.326-64.042 91.488c-4.512-0.135-9.857-0.216-15.22-0.222h-0.034zM1138.708 399.262c-66.464-112.788-166.842-203.484-287.108-258.984l96.232-137.48c7.602-10.858 4.96-25.824-5.898-33.424l-41.474-29.034c-10.858-7.602-25.824-4.96-33.424 5.898l-662.868 946.964c-7.602 10.858-4.96 25.824 5.898 33.424l41.474 29.034c10.858 7.602 25.824 4.96 33.424-5.898l111.052-158.65c57.208 16.202 117.6 24.888 179.984 24.888 239.72 0 449.992-127.988 562.708-319.262 8.352-13.945 13.291-30.765 13.291-48.738s-4.939-34.793-13.534-49.176l0.243 0.438zM1056 448c-88.314 149.866-247.354 254.54-432.324 270.014-19.592-20.17-31.676-47.674-31.676-78.014 0-61.856 50.144-112 112-112s112 50.144 112 112l-0.002 0.084c61.264-114.554 33.478-260.52-73.856-343.438l53.39-76.27c109.72 46.522 201.084 126.852 260.468 227.624z" />
<glyph unicode="&#xe92b;" glyph-name="eye" horiz-adv-x="1152" d="M1138.708 496.738c-112.768 191.364-323.088 319.262-562.708 319.262-239.72 0-449.992-127.988-562.708-319.262-8.353-13.945-13.293-30.765-13.293-48.739s4.94-34.794 13.536-49.177l-0.243 0.438c112.77-191.362 323.088-319.26 562.708-319.26 239.72 0 449.992 127.988 562.708 319.262 8.353 13.945 13.293 30.764 13.293 48.738s-4.94 34.794-13.536 49.176l0.243-0.438zM576 176c-205.112 0-384.182 109.402-480 272 88.314 149.866 247.354 254.54 432.324 270.014 19.592-20.17 31.676-47.674 31.676-78.014 0-61.856-50.144-112-112-112s-112 50.144-112 112l0.002 0.084c-20.414-38.17-32.002-81.772-32.002-128.084 0-150.222 121.778-272 272-272s272 121.778 272 272c0 62.062-20.8 119.258-55.79 165.030 111.198-46.306 203.808-127.242 263.79-229.030-95.816-162.598-274.888-272-480-272z" />
<glyph unicode="&#xe92c;" glyph-name="file-alt" horiz-adv-x="768" d="M576 464v-56c0-13.2-10.8-24-24-24h-336c-13.2 0-24 10.8-24 24v56c0 13.2 10.8 24 24 24h336c13.2 0 24-10.8 24-24zM552 320h-336c-13.2 0-24-10.8-24-24v-56c0-13.2 10.8-24 24-24h336c13.2 0 24 10.8 24 24v56c0 13.2-10.8 24-24 24zM768 696.2v-664.2c0-53-43-96-96-96h-576c-53 0-96 43-96 96v832c0 53 43 96 96 96h408.2c25.4 0 49.8-10.2 67.8-28.2l167.8-167.8c18-17.8 28.2-42.4 28.2-67.8zM512 856.2v-152.2h152.2l-152.2 152.2zM672 32v576h-208c-26.6 0-48 21.4-48 48v208h-320v-832h576z" />
<glyph unicode="&#xe92d;" glyph-name="file-archive" horiz-adv-x="768" d="M739.882 764.118l-167.764 167.764c-17.373 17.373-41.372 28.118-67.882 28.118h-408.236c-53.020 0-96-42.98-96-96v-832c0-53.020 42.98-96 96-96h576c53.020 0 96 42.98 96 96v664.236c0 26.51-10.745 50.509-28.118 67.882v0zM512 856.236l152.236-152.236h-152.236v152.236zM672 32h-576v832h159.428v-32h64v32h96.572v-208c0-26.51 21.49-48 48-48h208v-576zM384.54 768h-64v64h64v-64zM320.54 768v-64h-64v64h64zM320.54 640v-64h-64v64h64zM384.54 640h-64v64h64v-64zM388.358 428.644c-2.249 11.11-11.934 19.356-23.546 19.356h-44.272v64h-64v-64l-39.38-194.212c-13.182-65.010 36.508-125.788 102.84-125.788 66.104 0 115.742 60.384 102.952 125.24l-34.594 175.404zM320.54 179.854c-35.836 0-64.888 24.21-64.888 54.072 0 29.864 29.050 54.072 64.888 54.072s64.888-24.21 64.888-54.072c0-29.862-29.052-54.072-64.888-54.072zM384.54 512h-64v64h64v-64z" />
<glyph unicode="&#xe92e;" glyph-name="file-audio" horiz-adv-x="768" d="M739.882 764.118l-167.764 167.764c-17.373 17.373-41.372 28.118-67.882 28.118h-408.236c-53.020 0-96-42.98-96-96v-832c0-53.020 42.98-96 96-96h576c53.020 0 96 42.98 96 96v664.236c0 26.51-10.745 50.509-28.118 67.882v0zM664.236 704h-152.236v152.236l152.236-152.236zM96 32v832h320v-208c0-26.51 21.49-48 48-48h208v-576h-576zM384 184.048c0-21.382-25.852-32.090-40.97-16.97l-71.030 71.95h-56c-13.254 0-24 10.746-24 24v112c0 13.254 10.746 24 24 24h56l71.030 73.894c15.12 15.12 40.97 4.412 40.97-16.97v-271.904zM466.402 278.308c18.102 18.594 18.12 48.266 0.002 66.878-44.298 45.504 24.47 112.492 68.79 66.962 54.396-55.88 54.424-144.888 0.002-200.802-43.586-44.772-113.894 20.63-68.794 66.962z" />
<glyph unicode="&#xe92f;" glyph-name="file-code" horiz-adv-x="768" d="M739.882 764.118l-167.764 167.764c-17.373 17.373-41.372 28.118-67.882 28.118h-408.236c-53.020 0-96-42.98-96-96v-832c0-53.020 42.98-96 96-96h576c53.020 0 96 42.98 96 96v664.236c0 26.51-10.745 50.509-28.118 67.882v0zM664.236 704h-152.236v152.236l152.236-152.236zM96 32v832h320v-208c0-26.51 21.49-48 48-48h208v-576h-576zM299.354 262.23l-65.646 57.77 65.644 57.77c3.672 3.239 5.977 7.955 5.977 13.209 0 4.662-1.814 8.9-4.775 12.048l0.008-0.009-34.806 37.128c-6.768 7.226-17.928 7.324-24.876 0.802l-115.32-108.108c-7.406-6.948-7.408-18.734 0.002-25.68l115.318-108.11c3.122-2.949 7.344-4.762 11.99-4.762 0.012 0 0.024 0 0.036 0h-0.002c0.018 0 0.039 0 0.060 0 5.046 0 9.592 2.136 12.785 5.554l0.009 0.010 34.806 37.126c2.953 3.139 4.767 7.378 4.767 12.041 0 5.255-2.304 9.972-5.958 13.195l-0.019 0.017zM467.922 517.93l-48.802 14.168c-1.471 0.444-3.162 0.7-4.913 0.7-7.971 0-14.704-5.302-16.865-12.572l-0.032-0.124-109.23-376.224c-2.706-9.32 2.676-19.104 11.996-21.81l48.806-14.168c9.36-2.71 19.114 2.708 21.81 11.996l109.224 376.224c2.708 9.32-2.674 19.104-11.994 21.81zM642.438 332.84l-115.316 108.11c-7.052 6.614-18.198 6.33-24.878-0.802l-34.806-37.126c-2.952-3.139-4.766-7.377-4.766-12.039 0-5.255 2.304-9.971 5.957-13.194l0.019-0.017 65.644-57.772-65.644-57.77c-3.672-3.239-5.977-7.955-5.977-13.209 0-4.662 1.814-8.9 4.775-12.048l-0.008 0.009 34.806-37.128c3.218-3.429 7.78-5.565 12.84-5.565 4.661 0 8.899 1.813 12.047 4.772l-0.009-0.009h-0.002l115.32 108.11c7.406 6.946 7.406 18.732-0.002 25.678z" />
<glyph unicode="&#xe930;" glyph-name="file-excel" horiz-adv-x="768" d="M739.8 764.2l-167.8 167.8c-18 18-42.4 28.2-67.8 28.2h-408.2c-53-0.2-96-43.2-96-96.2v-832c0-53 43-96 96-96h576c53 0 96 43 96 96v664.2c0 25.4-10.2 50-28.2 68zM664.2 704h-152.2v152.2l152.2-152.2zM96 32v832h320v-208c0-26.6 21.4-48 48-48h208v-576h-576zM520 512h-57.6c-8.8 0-16.8-4.8-21-12.6-36-66.2-44.4-84.8-57.2-115.4-27.8 58.2-13.8 34.6-57.2 115.4-4.2 7.8-12.4 12.6-21.2 12.6h-57.8c-18.6 0-30-20-20.8-36l92.6-156-92.6-156c-9.4-16 2.2-36 20.8-36h57.8c8.8 0 16.8 4.8 21 12.6 43.4 80 46 90 57.2 115.4 29.8-60.4 11.8-31.8 57.2-115.4 4.2-7.8 12.4-12.6 21.2-12.6h57.6c18.6 0 30 20 20.8 36l-92.8 156c1.4 2.2 60.6 101 92.6 156 9.4 16-2.2 36-20.6 36z" />
<glyph unicode="&#xe931;" glyph-name="file-image" horiz-adv-x="768" d="M739.8 764.2l-167.8 167.8c-18 18-42.4 28.2-67.8 28.2h-408.2c-53-0.2-96-43.2-96-96.2v-832c0-53 43-96 96-96h576c53 0 96 43 96 96v664.2c0 25.4-10.2 50-28.2 68zM664.2 704h-152.2v152.2l152.2-152.2zM96 32v832h320v-208c0-26.6 21.4-48 48-48h208v-576h-576zM160 128h448v256l-47 47c-9.4 9.4-24.6 9.4-34 0l-175-175-79 79c-9.4 9.4-24.6 9.4-34 0l-79-79v-128zM256 608c-53 0-96-43-96-96s43-96 96-96 96 43 96 96-43 96-96 96z" />
<glyph unicode="&#xe932;" glyph-name="file-pdf" horiz-adv-x="768" d="M739.8 764.2l-167.8 167.8c-18 18-42.4 28.2-67.8 28.2h-408.2c-53-0.2-96-43.2-96-96.2v-832c0-53 43-96 96-96h576c53 0 96 43 96 96v664.2c0 25.4-10.2 50-28.2 68zM664.2 704h-152.2v152.2l152.2-152.2zM96 32v832h320v-208c0-26.6 21.4-48 48-48h208v-576h-576zM596.4 319.4c-24.4 24-94 17.4-128.8 13-34.4 21-57.4 50-73.6 92.6 7.8 32.2 20.2 81.2 10.8 112-8.4 52.4-75.6 47.2-85.2 11.8-8.8-32.2-0.8-77 14-134.2-20-47.8-49.8-112-70.8-148.8-40-20.6-94-52.4-102-92.4-6.6-31.6 52-110.4 152.2 62.4 44.8 14.8 93.6 33 136.8 40.2 37.8-20.4 82-34 111.6-34 51 0 56 56.4 35 77.4zM200.2 163.8c10.2 27.4 49 59 60.8 70-38-60.6-60.8-71.4-60.8-70zM363.4 545c14.8 0 13.4-64.2 3.6-81.6-8.8 27.8-8.6 81.6-3.6 81.6zM314.6 271.8c19.4 33.8 36 74 49.4 109.4 16.6-30.2 37.8-54.4 60.2-71-41.6-8.6-77.8-26.2-109.6-38.4zM577.8 281.8s-10-12-74.6 15.6c70.2 5.2 81.8-10.8 74.6-15.6z" />
<glyph unicode="&#xe933;" glyph-name="file-powerpoint" horiz-adv-x="768" d="M739.8 764.2l-167.8 167.8c-18 18-42.4 28.2-67.8 28.2h-408.2c-53-0.2-96-43.2-96-96.2v-832c0-53 43-96 96-96h576c53 0 96 43 96 96v664.2c0 25.4-10.2 50-28.2 68zM664.2 704h-152.2v152.2l152.2-152.2zM96 32v832h320v-208c0-26.6 21.4-48 48-48h208v-576h-576zM240 152v336c0 13.2 10.8 24 24 24h138.4c73.4 0 125.6-54 125.6-132.6 0-148.6-137.4-133-191-133v-94.4c0-13.2-10.8-24-24-24h-49c-13.2 0-24 10.8-24 24zM337 326.8h46c15.8 0 27.8 4.8 36.2 14.4 17 19.6 16.8 57 0.2 75.6-8.2 9.2-19.8 14-34.8 14h-47.8v-104z" />
<glyph unicode="&#xe934;" glyph-name="file-video" horiz-adv-x="768" d="M739.882 764.118l-167.764 167.764c-17.373 17.373-41.372 28.118-67.882 28.118h-408.236c-53.020 0-96-42.98-96-96v-832c0-53.020 42.98-96 96-96h576c53.020 0 96 42.98 96 96v664.236c0 26.51-10.745 50.509-28.118 67.882v0zM664.236 704h-152.236v152.236l152.236-152.236zM96 32v832h320v-208c0-26.51 21.49-48 48-48h208v-576h-576zM553.374 454.606l-105.374-105.354v74.748c0 22.092-17.908 40-40 40h-208c-22.092 0-40-17.908-40-40v-208c0-22.092 17.908-40 40-40h208c22.092 0 40 17.908 40 40v74.748l105.374-105.348c20.034-20.036 54.626-5.96 54.626 22.628v223.95c0 28.622-34.618 42.638-54.626 22.628z" />
<glyph unicode="&#xe935;" glyph-name="file-word" horiz-adv-x="768" d="M739.8 764.2l-167.8 167.8c-18 18-42.4 28.2-67.8 28.2h-408.2c-53-0.2-96-43.2-96-96.2v-832c0-53 43-96 96-96h576c53 0 96 43 96 96v664.2c0 25.4-10.2 50-28.2 68zM664.2 704h-152.2v152.2l152.2-152.2zM96 32v832h320v-208c0-26.6 21.4-48 48-48h208v-576h-576zM536.2 448c-11.4 0-21.2-8-23.4-19-41.2-195.4-40.8-190.8-42-207-0.4 2.4-0.8 5.2-1.4 8.6-1.6 10.2 0.6-0.4-47.2 199-2.6 10.8-12.2 18.4-23.4 18.4h-26.6c-11 0-20.6-7.6-23.4-18.2-48.8-198-48-192.4-49.6-207.4-0.2 2.2-0.4 5-1 8.4-1.4 10.4-28.2 146.6-38.2 198-2.2 11.2-12 19.4-23.6 19.4h-33.6c-15.6 0-27-14.6-23.4-29.6 16-65.2 53.4-219 66.4-272 2.6-10.8 12.2-18.2 23.4-18.2h50.4c11 0 20.6 7.4 23.2 18.2l35.8 142.8c3 12.4 5 24 6 34.6l5.8-34.6c0.2-0.8 25.2-101 35.8-142.8 2.6-10.6 12.2-18.2 23.2-18.2h49.4c11 0 20.6 7.4 23.2 18.2 41.6 163.8 60.4 238 69 272 3.8 15.2-7.6 29.8-23.2 29.8h-31.6z" />
<glyph unicode="&#xe936;" glyph-name="file" horiz-adv-x="768" d="M739.8 764.2l-167.8 167.8c-18 18-42.4 28.2-67.8 28.2h-408.2c-53-0.2-96-43.2-96-96.2v-832c0-53 43-96 96-96h576c53 0 96 43 96 96v664.2c0 25.4-10.2 50-28.2 68zM664.2 704h-152.2v152.2l152.2-152.2zM96 32v832h320v-208c0-26.6 21.4-48 48-48h208v-576h-576z" />
<glyph unicode="&#xe937;" glyph-name="flag" d="M672.348 800c-98.264 0-186.61 64-323.826 64-62.602 0-116.606-12.964-161.442-30.336 3.123 9.062 4.926 19.505 4.926 30.369 0 3.906-0.233 7.758-0.686 11.542l0.045-0.457c-5.23 45.732-43.030 81.694-88.962 84.674-55.918 3.628-102.402-40.654-102.402-95.792 0-35.528 19.314-66.524 48-83.124v-812.876c0-17.674 14.326-32 32-32h32c17.674 0 32 14.326 32 32v166.886c75.738 34.554 142.518 57.114 255.652 57.114 98.264 0 186.61-64 323.826-64 116.958 0 203.944 45.234 257.096 79.962 27.118 17.716 43.426 47.936 43.426 80.328v479.836c0 68.918-70.528 115.536-133.808 88.234-71.806-30.978-146.91-56.36-217.844-56.36zM928 288c-43.566-30.824-121.648-64-204.522-64-119.89 0-204.004 64-323.826 64-86.722 0-192.758-18.806-255.652-48v464c43.568 30.824 121.648 64 204.522 64 119.89 0 204.004-64 323.826-64 86.542 0 192.64 34.732 255.652 64v-480z" />
<glyph unicode="&#xe938;" glyph-name="flushed" horiz-adv-x="992" d="M496 944c-274 0-496-222-496-496s222-496 496-496 496 222 496 496-222 496-496 496zM496 48c-220.6 0-400 179.4-400 400s179.4 400 400 400 400-179.4 400-400-179.4-400-400-400zM688 672c-88.4 0-160-71.6-160-160s71.6-160 160-160 160 71.6 160 160-71.6 160-160 160zM688 416c-53 0-96 43-96 96s43 96 96 96 96-43 96-96-43-96-96-96zM688 560c-26.6 0-48-21.4-48-48s21.4-48 48-48 48 21.4 48 48-21.4 48-48 48zM464 512c0 88.4-71.6 160-160 160s-160-71.6-160-160 71.6-160 160-160 160 71.6 160 160zM304 416c-53 0-96 43-96 96s43 96 96 96 96-43 96-96-43-96-96-96zM304 560c-26.6 0-48-21.4-48-48s21.4-48 48-48 48 21.4 48 48-21.4 48-48 48zM624 272h-256c-26.4 0-48-21.6-48-48s21.6-48 48-48h256c26.4 0 48 21.6 48 48s-21.6 48-48 48z" />
<glyph unicode="&#xe939;" glyph-name="folder-open" horiz-adv-x="1152" d="M1055.886 512h-95.886v96c0 53.020-42.98 96-96 96h-320l-128 128h-320c-53.020 0-96-42.98-96-96v-576c0-53.020 42.98-96 96-96h800c34.165 0 64.161 17.847 81.175 44.726l0.233 0.394 159.884 256c39.896 63.834-6.076 146.88-81.406 146.88zM108 736h268.236l128-128h347.764c6.627 0 12-5.373 12-12v0-84h-560c-34.694 0-65.090-18.405-81.957-45.983l-0.239-0.421-125.804-208.494v466.912c0 6.62 5.366 11.986 11.986 11.986 0.005 0 0.010 0 0.015 0h-0.001zM896 160h-752l154.468 256h757.532l-160-256z" />
<glyph unicode="&#xe93a;" glyph-name="folder" d="M928 704h-384l-109.26 109.26c-12 12-28.28 18.74-45.26 18.74h-293.48c-53.020 0-96-42.98-96-96v-576c0-53.020 42.98-96 96-96h832c53.020 0 96 42.98 96 96v448c0 53.020-42.98 96-96 96zM928 160h-832v576h280.24l109.26-109.26c12-12 28.28-18.74 45.26-18.74h397.24v-448z" />
<glyph unicode="&#xe93b;" glyph-name="bookmark-outline" d="M102.4 870.4c0 56.32 46.080 102.4 102.4 102.4h614.4c56.554 0 102.4-45.846 102.4-102.4v0-921.6l-409.6 204.8-409.6-204.8v921.6zM204.8 870.4v-768l307.2 153.6 307.2-153.6v768h-614.4z" />
<glyph unicode="&#xe93c;" glyph-name="frown-open" horiz-adv-x="992" d="M496 944c-274 0-496-222-496-496s222-496 496-496 496 222 496 496-222 496-496 496zM496 48c-220.6 0-400 179.4-400 400s179.4 400 400 400 400-179.4 400-400-179.4-400-400-400zM400 544c0 35.4-28.6 64-64 64s-64-28.6-64-64 28.6-64 64-64 64 28.6 64 64zM656 608c-35.4 0-64-28.6-64-64s28.6-64 64-64 64 28.6 64 64-28.6 64-64 64zM496 384c-71.2 0-177.6-42.6-191.6-122.4-4-23.6 18-43 41-36.2 62.4 19.2 118.8 30.6 150.6 30.6s88.2-11.4 150.6-30.6c22.8-7 45 12.6 41 36.2-14 79.8-120.4 122.4-191.6 122.4z" />
<glyph unicode="&#xe93d;" glyph-name="frown" horiz-adv-x="992" d="M496 944c-274 0-496-222-496-496s222-496 496-496 496 222 496 496-222 496-496 496zM496 48c-220.6 0-400 179.4-400 400s179.4 400 400 400 400-179.4 400-400-179.4-400-400-400zM336 480c35.4 0 64 28.6 64 64s-28.6 64-64 64-64-28.6-64-64 28.6-64 64-64zM656 608c-35.4 0-64-28.6-64-64s28.6-64 64-64 64 28.6 64 64-28.6 64-64 64zM496 352c-80.4 0-156-35.4-207.6-97.2-17-20.4-14.2-50.6 6.2-67.6 20.4-16.8 50.6-14.2 67.6 6.2 33.2 39.8 82 62.8 133.8 62.8s100.6-22.8 133.8-62.8c16.2-19.4 46.2-23.8 67.6-6.2 20.4 17 23 47.2 6.2 67.6-51.6 61.8-127.2 97.2-207.6 97.2z" />
<glyph unicode="&#xe93e;" glyph-name="bookmark-outline-add" d="M102.4 870.4c0 56.32 46.080 102.4 102.4 102.4h614.4c56.554 0 102.4-45.846 102.4-102.4v0-921.6l-409.6 204.8-409.6-204.8v921.6zM204.8 870.4v-768l307.2 153.6 307.2-153.6v768h-614.4zM460.8 614.4v102.4h102.4v-102.4h102.4v-102.4h-102.4v-102.4h-102.4v102.4h-102.4v102.4h102.4z" />
<glyph unicode="&#xe93f;" glyph-name="duplicate" d="M307.2 665.6v204.8c0 56.32 46.080 102.4 102.4 102.4h512c56.554 0 102.4-45.846 102.4-102.4v0-512c0-56.554-45.846-102.4-102.4-102.4v0h-204.8v-204.8c0-56.554-45.846-102.4-102.4-102.4v0h-512c-56.554 0-102.4 45.846-102.4 102.4v0 512c0 56.32 46.080 102.4 102.4 102.4h204.8zM409.6 665.6h204.8c56.554 0 102.4-45.846 102.4-102.4v0-204.8h204.8v512h-512v-204.8zM102.4 563.2v-512h512v512h-512zM307.2 358.4v102.4h102.4v-102.4h102.4v-102.4h-102.4v-102.4h-102.4v102.4h-102.4v102.4h102.4z" />
<glyph unicode="&#xe940;" glyph-name="edit-copy" d="M307.2 665.6v204.8c0 56.32 46.080 102.4 102.4 102.4h512c56.554 0 102.4-45.846 102.4-102.4v0-512c0-56.554-45.846-102.4-102.4-102.4v0h-204.8v-204.8c0-56.554-45.846-102.4-102.4-102.4v0h-512c-56.554 0-102.4 45.846-102.4 102.4v0 512c0 56.32 46.080 102.4 102.4 102.4h204.8zM409.6 665.6h204.8c56.554 0 102.4-45.846 102.4-102.4v0-204.8h204.8v512h-512v-204.8zM102.4 563.2v-512h512v512h-512z" />
<glyph unicode="&#xe941;" glyph-name="view-tile" d="M0 972.8h460.8v-460.8h-460.8v460.8zM102.4 870.4v-256h256v256h-256zM0 409.6h460.8v-460.8h-460.8v460.8zM102.4 307.2v-256h256v256h-256zM563.2 972.8h460.8v-460.8h-460.8v460.8zM665.6 870.4v-256h256v256h-256zM563.2 409.6h460.8v-460.8h-460.8v460.8zM665.6 307.2v-256h256v256h-256z" />
<glyph unicode="&#xe942;" glyph-name="home1" d="M1024 369.556l-512 397.426-512-397.428v162.038l512 397.426 512-397.428zM896 384v-384h-256v256h-256v-256h-256v384l384 288z" />
<glyph unicode="&#xe943;" glyph-name="home2" d="M512 928l-512-512 96-96 96 96v-416h256v192h128v-192h256v416l96-96 96 96-512 512zM512 512c-35.346 0-64 28.654-64 64s28.654 64 64 64c35.346 0 64-28.654 64-64s-28.654-64-64-64z" />
<glyph unicode="&#xe944;" glyph-name="home3" d="M1024 352l-192 192v288h-128v-160l-192 192-512-512v-32h128v-320h320v192h128v-192h320v320h128z" />
<glyph unicode="&#xe945;" glyph-name="pencil" d="M864 960c88.364 0 160-71.634 160-160 0-36.020-11.91-69.258-32-96l-64-64-224 224 64 64c26.742 20.090 59.978 32 96 32zM64 224l-64-288 288 64 592 592-224 224-592-592zM715.578 596.422l-448-448-55.156 55.156 448 448 55.156-55.156z" />
<glyph unicode="&#xe946;" glyph-name="pencil2" d="M384 320l128 64 448 448-64 64-448-448-64-128zM289.3 92.902c-31.632 66.728-65.666 100.762-132.396 132.394l99.096 272.792 128 77.912 384 384h-192l-384-384-192-640 640 192 384 384v192l-384-384-77.912-128z" />
<glyph unicode="&#xe947;" glyph-name="quill" d="M0-64c128 384 463 1024 1024 1024-263-211-384-704-576-704s-192 0-192 0l-192-320h-64z" />
<glyph unicode="&#xe948;" glyph-name="eyedropper" d="M986.51 922.51c-49.988 49.986-131.032 49.986-181.020 0l-172.118-172.118-121.372 121.372-135.764-135.764 106.426-106.426-472.118-472.118c-8.048-8.048-11.468-18.958-10.3-29.456h-0.244v-160c0-17.674 14.328-32 32-32h160c0 0 2.664 0 4 0 9.212 0 18.426 3.516 25.456 10.544l472.118 472.118 106.426-106.426 135.764 135.764-121.372 121.372 172.118 172.118c49.986 49.988 49.986 131.032 0 181.020zM173.090 0h-109.090v109.090l469.574 469.572 109.088-109.088-469.572-469.574z" />
<glyph unicode="&#xe949;" glyph-name="image2" d="M959.884 832c0.040-0.034 0.082-0.076 0.116-0.116v-767.77c-0.034-0.040-0.076-0.082-0.116-0.116h-895.77c-0.040 0.034-0.082 0.076-0.114 0.116v767.772c0.034 0.040 0.076 0.082 0.114 0.114h895.77zM960 896h-896c-35.2 0-64-28.8-64-64v-768c0-35.2 28.8-64 64-64h896c35.2 0 64 28.8 64 64v768c0 35.2-28.8 64-64 64v0zM832 672c0-53.020-42.98-96-96-96s-96 42.98-96 96 42.98 96 96 96 96-42.98 96-96zM896 128h-768v128l224 384 256-320h64l224 192z" />
<glyph unicode="&#xe94a;" glyph-name="images2" horiz-adv-x="1152" d="M1088 832h-64v64c0 35.2-28.8 64-64 64h-896c-35.2 0-64-28.8-64-64v-768c0-35.2 28.8-64 64-64h64v-64c0-35.2 28.8-64 64-64h896c35.2 0 64 28.8 64 64v768c0 35.2-28.8 64-64 64zM128 768v-640h-63.886c-0.040 0.034-0.082 0.076-0.114 0.116v767.77c0.034 0.040 0.076 0.082 0.114 0.114h895.77c0.040-0.034 0.082-0.076 0.116-0.116v-63.884h-768c-35.2 0-64-28.8-64-64v0zM1088 0.116c-0.034-0.040-0.076-0.082-0.116-0.116h-895.77c-0.040 0.034-0.082 0.076-0.114 0.116v767.77c0.034 0.040 0.076 0.082 0.114 0.114h895.77c0.040-0.034 0.082-0.076 0.116-0.116v-767.768zM960 608c0-53.020-42.98-96-96-96s-96 42.98-96 96 42.98 96 96 96 96-42.98 96-96zM1024 64h-768v128l224 384 256-320h64l224 192z" />
<glyph unicode="&#xe94b;" glyph-name="camera1" d="M304 352c0-114.876 93.124-208 208-208s208 93.124 208 208-93.124 208-208 208-208-93.124-208-208zM960 704h-224c-16 64-32 128-96 128h-256c-64 0-80-64-96-128h-224c-35.2 0-64-28.8-64-64v-576c0-35.2 28.8-64 64-64h896c35.2 0 64 28.8 64 64v576c0 35.2-28.8 64-64 64zM512 68c-156.85 0-284 127.148-284 284 0 156.85 127.15 284 284 284 156.852 0 284-127.15 284-284 0-156.852-127.146-284-284-284zM960 512h-128v64h128v-64z" />
<glyph unicode="&#xe94c;" glyph-name="connection" horiz-adv-x="1280" d="M640 384c105.87 0 201.87-43.066 271.402-112.598l-90.468-90.468c-46.354 46.356-110.356 75.066-180.934 75.066s-134.578-28.71-180.934-75.066l-90.468 90.468c69.532 69.532 165.532 112.598 271.402 112.598zM187.452 452.548c120.88 120.88 281.598 187.452 452.548 187.452s331.668-66.572 452.55-187.452l-90.51-90.508c-96.706 96.704-225.28 149.96-362.040 149.96-136.762 0-265.334-53.256-362.038-149.962l-90.51 90.51zM988.784 825.562c106.702-45.132 202.516-109.728 284.782-191.996v0l-90.508-90.508c-145.056 145.056-337.92 224.942-543.058 224.942-205.14 0-398-79.886-543.058-224.942l-90.51 90.51c82.268 82.266 178.082 146.862 284.784 191.994 110.504 46.738 227.852 70.438 348.784 70.438s238.278-23.7 348.784-70.438zM576 64c0 35.346 28.654 64 64 64s64-28.654 64-64c0-35.346-28.654-64-64-64s-64 28.654-64 64z" />
<glyph unicode="&#xe94d;" glyph-name="file-text" d="M864 960h-768c-52.8 0-96-43.2-96-96v-832c0-52.8 43.2-96 96-96h768c52.8 0 96 43.2 96 96v832c0 52.8-43.2 96-96 96zM832 64h-704v768h704v-768zM256 512h448v-64h-448zM256 384h448v-64h-448zM256 256h448v-64h-448zM256 640h448v-64h-448z" />
<glyph unicode="&#xe94e;" glyph-name="profile" d="M864 960h-768c-52.8 0-96-43.2-96-96v-832c0-52.8 43.2-96 96-96h768c52.8 0 96 43.2 96 96v832c0 52.8-43.2 96-96 96zM832 64h-704v768h704v-768zM256 384h448v-64h-448zM256 256h448v-64h-448zM320 672c0 53.019 42.981 96 96 96s96-42.981 96-96c0-53.019-42.981-96-96-96s-96 42.981-96 96zM480 576h-128c-52.8 0-96-28.8-96-64v-64h320v64c0 35.2-43.2 64-96 64z" />
<glyph unicode="&#xe94f;" glyph-name="file-empty" d="M917.806 730.924c-22.212 30.292-53.174 65.7-87.178 99.704s-69.412 64.964-99.704 87.178c-51.574 37.82-76.592 42.194-90.924 42.194h-496c-44.112 0-80-35.888-80-80v-864c0-44.112 35.888-80 80-80h736c44.112 0 80 35.888 80 80v624c0 14.332-4.372 39.35-42.194 90.924zM785.374 785.374c30.7-30.7 54.8-58.398 72.58-81.374h-153.954v153.946c22.984-17.78 50.678-41.878 81.374-72.572zM896 16c0-8.672-7.328-16-16-16h-736c-8.672 0-16 7.328-16 16v864c0 8.672 7.328 16 16 16 0 0 495.956 0.002 496 0v-224c0-17.672 14.326-32 32-32h224v-624z" />
<glyph unicode="&#xe950;" glyph-name="files-empty" d="M917.806 602.924c-22.21 30.292-53.174 65.7-87.178 99.704s-69.412 64.964-99.704 87.178c-51.574 37.82-76.592 42.194-90.924 42.194h-368c-44.114 0-80-35.888-80-80v-736c0-44.112 35.886-80 80-80h608c44.112 0 80 35.888 80 80v496c0 14.332-4.372 39.35-42.194 90.924zM785.374 657.374c30.7-30.7 54.8-58.398 72.58-81.374h-153.954v153.946c22.982-17.78 50.678-41.878 81.374-72.572v0zM896 16c0-8.672-7.328-16-16-16h-608c-8.672 0-16 7.328-16 16v736c0 8.672 7.328 16 16 16 0 0 367.956 0.002 368 0v-224c0-17.672 14.324-32 32-32h224v-496zM602.924 917.804c-51.574 37.822-76.592 42.196-90.924 42.196h-368c-44.112 0-80-35.888-80-80v-736c0-38.632 27.528-70.958 64-78.39v814.39c0 8.672 7.328 16 16 16h486.876c-9.646 7.92-19.028 15.26-27.952 21.804z" />
<glyph unicode="&#xe951;" glyph-name="file-text2" d="M917.806 730.924c-22.212 30.292-53.174 65.7-87.178 99.704s-69.412 64.964-99.704 87.178c-51.574 37.82-76.592 42.194-90.924 42.194h-496c-44.112 0-80-35.888-80-80v-864c0-44.112 35.888-80 80-80h736c44.112 0 80 35.888 80 80v624c0 14.332-4.372 39.35-42.194 90.924zM785.374 785.374c30.7-30.7 54.8-58.398 72.58-81.374h-153.954v153.946c22.984-17.78 50.678-41.878 81.374-72.572zM896 16c0-8.672-7.328-16-16-16h-736c-8.672 0-16 7.328-16 16v864c0 8.672 7.328 16 16 16 0 0 495.956 0.002 496 0v-224c0-17.672 14.326-32 32-32h224v-624zM736 128h-448c-17.672 0-32 14.326-32 32s14.328 32 32 32h448c17.674 0 32-14.326 32-32s-14.326-32-32-32zM736 256h-448c-17.672 0-32 14.326-32 32s14.328 32 32 32h448c17.674 0 32-14.326 32-32s-14.326-32-32-32zM736 384h-448c-17.672 0-32 14.326-32 32s14.328 32 32 32h448c17.674 0 32-14.326 32-32s-14.326-32-32-32z" />
<glyph unicode="&#xe952;" glyph-name="file-picture" d="M832 64h-640v128l192 320 263-320 185 128v-256zM832 480c0-53.020-42.98-96-96-96-53.022 0-96 42.98-96 96s42.978 96 96 96c53.020 0 96-42.98 96-96zM917.806 730.924c-22.212 30.292-53.174 65.7-87.178 99.704s-69.412 64.964-99.704 87.178c-51.574 37.82-76.592 42.194-90.924 42.194h-496c-44.112 0-80-35.888-80-80v-864c0-44.112 35.888-80 80-80h736c44.112 0 80 35.888 80 80v624c0 14.332-4.372 39.35-42.194 90.924zM785.374 785.374c30.7-30.7 54.8-58.398 72.58-81.374h-153.954v153.946c22.984-17.78 50.678-41.878 81.374-72.572zM896 16c0-8.672-7.328-16-16-16h-736c-8.672 0-16 7.328-16 16v864c0 8.672 7.328 16 16 16 0 0 495.956 0.002 496 0v-224c0-17.672 14.326-32 32-32h224v-624z" />
<glyph unicode="&#xe953;" glyph-name="file-music" d="M917.806 730.924c-22.21 30.292-53.174 65.7-87.178 99.704s-69.412 64.964-99.704 87.178c-51.574 37.82-76.592 42.194-90.924 42.194h-496c-44.112 0-80-35.888-80-80v-864c0-44.112 35.886-80 80-80h736c44.112 0 80 35.888 80 80v624c0 14.332-4.372 39.35-42.194 90.924v0zM785.374 785.374c30.7-30.7 54.8-58.398 72.58-81.374h-153.954v153.946c22.982-17.78 50.678-41.878 81.374-72.572v0zM896 16c0-8.672-7.328-16-16-16h-736c-8.672 0-16 7.328-16 16v864c0 8.672 7.328 16 16 16 0 0 495.956 0.002 496 0v-224c0-17.672 14.324-32 32-32h224v-624zM756.288 568.748c-7.414 6.080-17.164 8.514-26.562 6.632l-320-64c-14.958-2.994-25.726-16.126-25.726-31.38v-236.876c-18.832 8.174-40.678 12.876-64 12.876-70.692 0-128-42.98-128-96s57.308-96 128-96 128 42.98 128 96v229.766l256 51.202v-133.842c-18.832 8.174-40.678 12.876-64 12.876-70.692 0-128-42.98-128-96s57.308-96 128-96 128 42.98 128 96v319.998c0 9.586-4.298 18.668-11.712 24.748z" />
<glyph unicode="&#xe954;" glyph-name="file-play" d="M384 576l320-224-320-224v448zM917.806 730.924c-22.212 30.292-53.174 65.7-87.178 99.704s-69.412 64.964-99.704 87.178c-51.574 37.82-76.592 42.194-90.924 42.194h-496c-44.112 0-80-35.888-80-80v-864c0-44.112 35.888-80 80-80h736c44.112 0 80 35.888 80 80v624c0 14.332-4.372 39.35-42.194 90.924zM785.374 785.374c30.7-30.7 54.8-58.398 72.58-81.374h-153.954v153.946c22.984-17.78 50.678-41.878 81.374-72.572zM896 16c0-8.672-7.328-16-16-16h-736c-8.672 0-16 7.328-16 16v864c0 8.672 7.328 16 16 16 0 0 495.956 0.002 496 0v-224c0-17.672 14.326-32 32-32h224v-624z" />
<glyph unicode="&#xe955;" glyph-name="stack" d="M1024 640l-512 256-512-256 512-256 512 256zM512 811.030l342.058-171.030-342.058-171.030-342.058 171.030 342.058 171.030zM921.444 499.278l102.556-51.278-512-256-512 256 102.556 51.278 409.444-204.722zM921.444 307.278l102.556-51.278-512-256-512 256 102.556 51.278 409.444-204.722z" />
<glyph unicode="&#xe956;" glyph-name="folder2" d="M448 832l128-128h448v-704h-1024v832z" />
<glyph unicode="&#xe957;" glyph-name="folder-open2" d="M832 0l192 512h-832l-192-512zM128 576l-128-576v832h288l128-128h416v-128z" />
<glyph unicode="&#xe958;" glyph-name="folder-plus1" d="M576 704l-128 128h-448v-832h1024v704h-448zM704 256h-128v-128h-128v128h-128v128h128v128h128v-128h128v-128z" />
<glyph unicode="&#xe959;" glyph-name="handshake" horiz-adv-x="1280" d="M1038.4 704.2l-95.2 95.2c-20.323 20.149-48.307 32.6-79.199 32.6 0 0-0.001 0-0.001 0h-453.6c-29.6 0-58.2-11.8-79.2-32.6l-95.2-95.2h-236v-511.4h128c35.2 0 63.6 28.4 63.8 63.4h18.2l169.2-152.8c61.8-50.2 147.6-51.4 211.2-7.6 25-21.6 52-31.8 82.2-31.8 36.4 0 70.6 14.8 97.6 48 44.2-17.4 96.4-5.2 128 33.6l52.4 64.6c11.2 13.8 18.2 29.6 21.8 46h115.8c0.2-35 28.8-63.4 63.8-63.4h128v511.4h-241.6zM96 256.8c-17.6 0-32 14.4-32 32s14.4 32 32 32 32-14.4 32-32c0-17.8-14.4-32-32-32zM876 270.6l-52.2-64.4c-5.6-6.8-15.6-8-22.6-2.4l-47.8 38.8-60-73c-12-14.6-30-9.6-36-4.8l-73.6 63-31.2-38.4c-27.8-34.2-78.4-39.4-110.6-13.2l-194.6 176h-55.4v256.2h83.8l123.4 123.2c4 1.6 7.4 3 11.4 4.6h113.4l-77.4-71c-58.8-53.8-62.2-144.6-8.8-202.6 29.6-32.4 122.4-82.4 203-8.8l16.4 15 216.4-175.6c6.8-5.6 7.8-15.8 2.4-22.6zM1088 352.2h-138.4c-4.6 5.6-9.8 10.8-15.4 15.4l-205.4 166.8 25 22.8c13 12 14 32.2 2 45.2l-21.8 23.4c-12 13-32.2 13.8-45.2 2l-110.4-101.2c-19-17.4-51.4-18.8-69.2 0-18.6 19.8-17 50.2 2.4 67.8l131.2 120.2c14.8 13.6 34 21 54 21l167.4 0.4c4.2 0 8.2-1.6 11-4.6l123.4-123.2h89.4v-256zM1184 256.8c-17.6 0-32 14.4-32 32s14.4 32 32 32 32-14.4 32-32c0-17.8-14.4-32-32-32z" />
<glyph unicode="&#xe95a;" glyph-name="hdd" horiz-adv-x="1152" d="M1134.806 488.716l-210.16 302.106c-17.572 25.024-46.303 41.178-78.807 41.178 0 0-0.001 0-0.001 0h-539.676c0 0-0.001 0-0.001 0-32.504 0-61.235-16.154-78.603-40.872l-0.204-0.306-210.16-302.106c-10.758-15.295-17.194-34.308-17.194-54.824v0-273.892c0-53.020 42.98-96 96-96h960c53.020 0 96 42.98 96 96v273.892c0 19.602-6 38.732-17.194 54.824zM306.162 736h539.676l155.826-224h-851.328l155.826 224zM1056 160h-960v256h960v-256zM992 288c0-35.346-28.654-64-64-64s-64 28.654-64 64 28.654 64 64 64 64-28.654 64-64zM800 288c0-35.346-28.654-64-64-64s-64 28.654-64 64 28.654 64 64 64 64-28.654 64-64z" />
<glyph unicode="&#xe95b;" glyph-name="heart" d="M916.8 831.4c-115.6 97.2-294.2 82.6-404.8-30-110.6 112.6-289.2 127.4-404.8 30-150.4-126.6-128.4-333-21.2-442.4l350.8-357.4c20-20.4 46.8-31.8 75.2-31.8 28.6 0 55.2 11.2 75.2 31.6l350.8 357.4c107 109.4 129.4 315.8-21.2 442.6zM869.6 456.4l-350.8-357.4c-4.8-4.8-8.8-4.8-13.6 0l-350.8 357.4c-73 74.4-87.8 215.2 14.6 301.4 77.8 65.4 197.8 55.6 273-21l70-71.4 70 71.4c75.6 77 195.6 86.4 273 21.2 102.2-86.2 87-227.8 14.6-301.6z" />
<glyph unicode="&#xe95c;" glyph-name="hospital" horiz-adv-x="896" d="M256 472v80c0 13.254 10.746 24 24 24h80c13.254 0 24-10.746 24-24v-80c0-13.254-10.746-24-24-24h-80c-13.254 0-24 10.746-24 24zM536 448h80c13.254 0 24 10.746 24 24v80c0 13.254-10.746 24-24 24h-80c-13.254 0-24-10.746-24-24v-80c0-13.254 10.746-24 24-24zM384 280v80c0 13.254-10.746 24-24 24h-80c-13.254 0-24-10.746-24-24v-80c0-13.254 10.746-24 24-24h80c13.254 0 24 10.746 24 24zM536 256h80c13.254 0 24 10.746 24 24v80c0 13.254-10.746 24-24 24h-80c-13.254 0-24-10.746-24-24v-80c0-13.254 10.746-24 24-24zM896 8v-72h-896v72c0 13.254 10.746 24 24 24h39v757.93c0 23.234 21.49 42.070 48 42.070h177v80c0 26.51 21.49 48 48 48h224c26.51 0 48-21.49 48-48v-80h177c26.51 0 48-18.836 48-42.070v-757.93h39c13.254 0 24-10.746 24-24zM159 34h225v134c0 13.254 10.746 24 24 24h80c13.254 0 24-10.746 24-24v-134h225v702h-129v-48c0-26.51-21.49-48-48-48h-224c-26.51 0-48 21.49-48 48v48h-129v-702zM532 832h-52v52c0 6.627-5.373 12-12 12v0h-40c-6.627 0-12-5.373-12-12v0-52h-52c-6.627 0-12-5.373-12-12v0-40c0-6.627 5.373-12 12-12v0h52v-52c0-6.627 5.373-12 12-12v0h40c6.627 0 12 5.373 12 12v0 52h52c6.627 0 12 5.373 12 12v0 40c0 6.627-5.373 12-12 12v0z" />
<glyph unicode="&#xe95d;" glyph-name="hourglass" horiz-adv-x="768" d="M736 864h8c13.254 0 24 10.746 24 24v48c0 13.254-10.746 24-24 24h-720c-13.254 0-24-10.746-24-24v-48c0-13.254 10.746-24 24-24h8c0-161.128 64.376-331.614 194.36-416-130.562-84.762-194.36-255.8-194.36-416h-8c-13.254 0-24-10.746-24-24v-48c0-13.254 10.746-24 24-24h720c13.254 0 24 10.746 24 24v48c0 13.254-10.746 24-24 24h-8c0 161.128-64.376 331.614-194.36 416 130.564 84.762 194.36 255.8 194.36 416zM128 864h512c0-203.24-114.614-368-256-368s-256 164.758-256 368zM640 32h-512c0 203.24 114.616 368 256 368s256-164.76 256-368z" />
<glyph unicode="&#xe95e;" glyph-name="folder-minus1" d="M576 704l-128 128h-448v-832h1024v704h-448zM704 256h-384v128h384v-128z" />
<glyph unicode="&#xe95f;" glyph-name="id-card" horiz-adv-x="1152" d="M1056 896h-960c-53 0-96-43-96-96v-704c0-53 43-96 96-96h960c53 0 96 43 96 96v704c0 53-43 96-96 96zM1056 96h-449.6c1.8 9 1.6-7.2 1.6 44.8 0 63.6-60.2 115.2-134.4 115.2-21.6 0-37.4-16-89.6-16-53.8 0-66.8 16-89.6 16-74.2 0-134.4-51.6-134.4-115.2 0-52-0.4-35.8 1.6-44.8h-65.6v576h960v-576zM720 256h224c8.8 0 16 7.2 16 16v32c0 8.8-7.2 16-16 16h-224c-8.8 0-16-7.2-16-16v-32c0-8.8 7.2-16 16-16zM720 384h224c8.8 0 16 7.2 16 16v32c0 8.8-7.2 16-16 16h-224c-8.8 0-16-7.2-16-16v-32c0-8.8 7.2-16 16-16zM720 512h224c8.8 0 16 7.2 16 16v32c0 8.8-7.2 16-16 16h-224c-8.8 0-16-7.2-16-16v-32c0-8.8 7.2-16 16-16zM384 320c70.6 0 128 57.4 128 128s-57.4 128-128 128-128-57.4-128-128 57.4-128 128-128z" />
<glyph unicode="&#xe960;" glyph-name="image" d="M928 832h-832c-53.020 0-96-42.98-96-96v-576c0-53.020 42.98-96 96-96h832c53.020 0 96 42.98 96 96v576c0 53.020-42.98 96-96 96zM916 160h-808c-6.627 0-12 5.373-12 12v0 552c0 6.627 5.373 12 12 12v0h808c6.627 0 12-5.373 12-12v0-552c0-6.627-5.373-12-12-12v0zM256 656c-44.182 0-80-35.818-80-80s35.818-80 80-80 80 35.818 80 80-35.818 80-80 80zM192 256h640v160l-175.030 175.030c-9.372 9.372-24.568 9.372-33.942 0l-239.028-239.030-79.030 79.030c-9.372 9.372-24.568 9.372-33.942 0l-79.028-79.030v-96z" />
<glyph unicode="&#xe961;" glyph-name="images" horiz-adv-x="1152" d="M960 128v-32c0-53.020-42.98-96-96-96h-768c-53.020 0-96 42.98-96 96v512c0 53.020 42.98 96 96 96h32v-96h-20c-6.627 0-12-5.373-12-12v0-488c0-6.627 5.373-12 12-12v0h744c6.627 0 12 5.373 12 12v0 20h96zM1044 800h-744c-6.627 0-12-5.373-12-12v0-488c0-6.627 5.373-12 12-12v0h744c6.627 0 12 5.373 12 12v0 488c0 6.627-5.373 12-12 12v0zM1056 896c53.020 0 96-42.98 96-96v-512c0-53.020-42.98-96-96-96h-768c-53.020 0-96 42.98-96 96v512c0 53.020 42.98 96 96 96h768zM528 672c0-44.182-35.818-80-80-80s-80 35.818-80 80 35.818 80 80 80 80-35.818 80-80zM384 480l79.030 79.030c9.372 9.372 24.568 9.372 33.942 0l79.028-79.030 207.030 207.030c9.372 9.372 24.568 9.372 33.942 0l143.028-143.030v-160h-576v96z" />
<glyph unicode="&#xe962;" glyph-name="keyboard" horiz-adv-x="1152" d="M1056 832h-960c-53.020 0-96-42.98-96-96v-576c0-53.020 42.98-96 96-96h960c53.020 0 96 42.98 96 96v576c0 53.020-42.98 96-96 96zM1072 160c0-8.822-7.178-16-16-16h-960c-8.822 0-16 7.178-16 16v576c0 8.822 7.178 16 16 16h960c8.822 0 16-7.178 16-16v-576zM340 420v56c0 13.254-10.746 24-24 24h-56c-13.254 0-24-10.746-24-24v-56c0-13.254 10.746-24 24-24h56c13.254 0 24 10.746 24 24zM532 420v56c0 13.254-10.746 24-24 24h-56c-13.254 0-24-10.746-24-24v-56c0-13.254 10.746-24 24-24h56c13.254 0 24 10.746 24 24zM724 420v56c0 13.254-10.746 24-24 24h-56c-13.254 0-24-10.746-24-24v-56c0-13.254 10.746-24 24-24h56c13.254 0 24 10.746 24 24zM916 420v56c0 13.254-10.746 24-24 24h-56c-13.254 0-24-10.746-24-24v-56c0-13.254 10.746-24 24-24h56c13.254 0 24 10.746 24 24zM244 256v56c0 13.254-10.746 24-24 24h-56c-13.254 0-24-10.746-24-24v-56c0-13.254 10.746-24 24-24h56c13.254 0 24 10.746 24 24zM1012 256v56c0 13.254-10.746 24-24 24h-56c-13.254 0-24-10.746-24-24v-56c0-13.254 10.746-24 24-24h56c13.254 0 24 10.746 24 24zM244 584v56c0 13.254-10.746 24-24 24h-56c-13.254 0-24-10.746-24-24v-56c0-13.254 10.746-24 24-24h56c13.254 0 24 10.746 24 24zM436 584v56c0 13.254-10.746 24-24 24h-56c-13.254 0-24-10.746-24-24v-56c0-13.254 10.746-24 24-24h56c13.254 0 24 10.746 24 24zM628 584v56c0 13.254-10.746 24-24 24h-56c-13.254 0-24-10.746-24-24v-56c0-13.254 10.746-24 24-24h56c13.254 0 24 10.746 24 24zM820 584v56c0 13.254-10.746 24-24 24h-56c-13.254 0-24-10.746-24-24v-56c0-13.254 10.746-24 24-24h56c13.254 0 24 10.746 24 24zM1012 584v56c0 13.254-10.746 24-24 24h-56c-13.254 0-24-10.746-24-24v-56c0-13.254 10.746-24 24-24h56c13.254 0 24 10.746 24 24zM816 268v32c0 13.254-10.746 24-24 24h-432c-13.254 0-24-10.746-24-24v-32c0-13.254 10.746-24 24-24h432c13.254 0 24 10.746 24 24z" />
<glyph unicode="&#xe963;" glyph-name="folder-download" d="M576 704l-128 128h-448v-832h1024v704h-448zM512 96l-224 224h160v256h128v-256h160l-224-224z" />
<glyph unicode="&#xe964;" glyph-name="folder-upload" d="M576 704l-128 128h-448v-832h1024v704h-448zM512 480l224-224h-160v-256h-128v256h-160l224 224z" />
<glyph unicode="&#xe965;" glyph-name="price-tag" d="M976 960h-384c-26.4 0-63.274-15.274-81.942-33.942l-476.116-476.116c-18.668-18.668-18.668-49.214 0-67.882l412.118-412.118c18.668-18.668 49.214-18.668 67.882 0l476.118 476.118c18.666 18.666 33.94 55.54 33.94 81.94v384c0 26.4-21.6 48-48 48zM736 576c-53.020 0-96 42.98-96 96s42.98 96 96 96 96-42.98 96-96-42.98-96-96-96z" />
<glyph unicode="&#xe966;" glyph-name="price-tags" horiz-adv-x="1280" d="M1232 960h-384c-26.4 0-63.274-15.274-81.942-33.942l-476.116-476.116c-18.668-18.668-18.668-49.214 0-67.882l412.118-412.118c18.668-18.668 49.214-18.668 67.882 0l476.118 476.118c18.666 18.666 33.94 55.54 33.94 81.94v384c0 26.4-21.6 48-48 48zM992 576c-53.020 0-96 42.98-96 96s42.98 96 96 96 96-42.98 96-96-42.98-96-96-96zM128 416l544 544h-80c-26.4 0-63.274-15.274-81.942-33.942l-476.116-476.116c-18.668-18.668-18.668-49.214 0-67.882l412.118-412.118c18.668-18.668 49.214-18.668 67.882 0l30.058 30.058-416 416z" />
<glyph unicode="&#xe967;" glyph-name="barcode1" d="M0 832h128v-640h-128zM192 832h64v-640h-64zM320 832h64v-640h-64zM512 832h64v-640h-64zM768 832h64v-640h-64zM960 832h64v-640h-64zM640 832h32v-640h-32zM448 832h32v-640h-32zM864 832h32v-640h-32zM0 128h64v-64h-64zM192 128h64v-64h-64zM320 128h64v-64h-64zM640 128h64v-64h-64zM960 128h64v-64h-64zM768 128h128v-64h-128zM448 128h128v-64h-128z" />
<glyph unicode="&#xe968;" glyph-name="credit-card2" d="M928 832h-832c-52.8 0-96-43.2-96-96v-576c0-52.8 43.2-96 96-96h832c52.8 0 96 43.2 96 96v576c0 52.8-43.2 96-96 96zM96 768h832c17.346 0 32-14.654 32-32v-96h-896v96c0 17.346 14.654 32 32 32zM928 128h-832c-17.346 0-32 14.654-32 32v288h896v-288c0-17.346-14.654-32-32-32zM128 320h64v-128h-64zM256 320h64v-128h-64zM384 320h64v-128h-64z" />
<glyph unicode="&#xe969;" glyph-name="phone1" d="M704 320c-64-64-64-128-128-128s-128 64-192 128-128 128-128 192 64 64 128 128-128 256-192 256-192-192-192-192c0-128 131.5-387.5 256-512s384-256 512-256c0 0 192 128 192 192s-192 256-256 192z" />
<glyph unicode="&#xe96a;" glyph-name="location" d="M512 960c-176.732 0-320-143.268-320-320 0-320 320-704 320-704s320 384 320 704c0 176.732-143.27 320-320 320zM512 448c-106.040 0-192 85.96-192 192s85.96 192 192 192 192-85.96 192-192-85.96-192-192-192z" />
<glyph unicode="&#xe96b;" glyph-name="location2" d="M512 960c-176.732 0-320-143.268-320-320 0-320 320-704 320-704s320 384 320 704c0 176.732-143.27 320-320 320zM512 444c-108.248 0-196 87.752-196 196s87.752 196 196 196 196-87.752 196-196-87.752-196-196-196zM388 640c0 68.483 55.517 124 124 124s124-55.517 124-124c0-68.483-55.517-124-124-124s-124 55.517-124 124z" />
<glyph unicode="&#xe96c;" glyph-name="lightbulb" horiz-adv-x="704" d="M352 800c-105.88 0-192-86.12-192-192 0-17.68 14.32-32 32-32s32 14.32 32 32c0 70.6 57.44 128 128 128 17.68 0 32 14.32 32 32s-14.32 32-32 32zM192.12 41.66c0-6.3 1.86-12.44 5.36-17.68l49.020-73.68c5.94-8.92 15.94-14.28 26.64-14.28h157.7c10.72 0 20.72 5.36 26.64 14.28l49.020 73.68c3.48 5.24 5.34 11.4 5.36 17.68l0.1 86.36h-319.92l0.080-86.36zM352 960c-204.56 0-352-165.94-352-352 0-88.74 32.9-169.7 87.12-231.56 33.28-37.98 85.48-117.6 104.84-184.32v-0.12h96v0.24c-0.020 9.54-1.44 19.020-4.3 28.14-11.18 35.62-45.64 129.54-124.34 219.34-41.080 46.86-63.040 106.3-63.22 168.28-0.4 147.28 119.34 256 255.9 256 141.16 0 256-114.84 256-256 0-61.94-22.48-121.7-63.3-168.28-78.22-89.22-112.84-182.94-124.2-218.92-2.805-8.545-4.428-18.381-4.44-28.594v-0.206h96v0.1c19.36 66.74 71.56 146.36 104.84 184.32 54.2 61.88 87.1 142.84 87.1 231.58 0 194.4-157.6 352-352 352z" />
<glyph unicode="&#xe96d;" glyph-name="list-alt" d="M928 896h-832c-53.020 0-96-42.98-96-96v-704c0-53.020 42.98-96 96-96h832c53.020 0 96 42.98 96 96v704c0 53.020-42.98 96-96 96zM916 96h-808c-6.627 0-12 5.373-12 12v0 680c0 6.627 5.373 12 12 12v0h808c6.627 0 12-5.373 12-12v0-680c0-6.627-5.373-12-12-12v0zM832 280v-48c0-13.254-10.746-24-24-24h-400c-13.254 0-24 10.746-24 24v48c0 13.254 10.746 24 24 24h400c13.254 0 24-10.746 24-24zM832 472v-48c0-13.254-10.746-24-24-24h-400c-13.254 0-24 10.746-24 24v48c0 13.254 10.746 24 24 24h400c13.254 0 24-10.746 24-24zM832 664v-48c0-13.254-10.746-24-24-24h-400c-13.254 0-24 10.746-24 24v48c0 13.254 10.746 24 24 24h400c13.254 0 24-10.746 24-24zM328 640c0-39.764-32.236-72-72-72s-72 32.236-72 72 32.236 72 72 72 72-32.236 72-72zM328 448c0-39.764-32.236-72-72-72s-72 32.236-72 72 32.236 72 72 72 72-32.236 72-72zM328 256c0-39.764-32.236-72-72-72s-72 32.236-72 72 32.236 72 72 72 72-32.236 72-72z" />
<glyph unicode="&#xe96e;" glyph-name="map" horiz-adv-x="1152" d="M1120.040 896c-3.92 0-7.96-0.74-11.92-2.32l-340.12-125.68-344 121.44c-12.080 4.153-25.998 6.554-40.477 6.56h-0.003c-13.38 0-26.74-2.1-39.62-6.28l-303.66-105.62c-23.779-9.697-40.234-32.636-40.24-59.419v-692.641c0-18.38 15.060-32.040 31.98-32.040 3.92 0 7.94 0.74 11.92 2.32l340.1 125.68 344-121.42c12.086-4.171 26.015-6.58 40.505-6.58 14.154 0 27.771 2.298 40.498 6.541l-0.903-0.261 303.66 105.62c23.782 9.693 40.24 32.634 40.24 59.42v0 692.64c0 18.38-15.060 32.040-31.96 32.040zM448 779.16l256-90.38v-571.94l-256 90.38v571.94zM96 123.9v577.96l256 89.060v-572.4l-1.28-0.46-254.72-94.16zM1056 194.16l-256-89.060v572.38l1.28 0.48 254.72 94.14v-577.94z" />
<glyph unicode="&#xe96f;" glyph-name="compass1" d="M544.010-64.004c-2.296 0-4.622 0.25-6.94 0.764-14.648 3.25-25.070 16.238-25.070 31.24v480h-480c-15.002 0-27.992 10.422-31.24 25.070-3.25 14.646 4.114 29.584 17.708 35.928l960 448c12.196 5.688 26.644 3.144 36.16-6.372 9.516-9.514 12.060-23.966 6.372-36.16l-448-960c-5.342-11.44-16.772-18.47-28.99-18.47zM176.242 512h367.758c17.674 0 32-14.328 32-32v-367.758l349.79 749.546-749.548-349.788z" />
<glyph unicode="&#xe970;" glyph-name="compass2" d="M512 960c-282.77 0-512-229.23-512-512s229.23-512 512-512 512 229.23 512 512-229.23 512-512 512zM96 448c0 229.75 186.25 416 416 416 109.574 0 209.232-42.386 283.534-111.628l-411.534-176.372-176.372-411.534c-69.242 74.302-111.628 173.96-111.628 283.534zM585.166 374.834l-256.082-109.75 109.75 256.082 146.332-146.332zM512 32c-109.574 0-209.234 42.386-283.532 111.628l411.532 176.372 176.372 411.532c69.242-74.298 111.628-173.958 111.628-283.532 0-229.75-186.25-416-416-416z" />
<glyph unicode="&#xe971;" glyph-name="meh" horiz-adv-x="992" d="M496 944c-274 0-496-222-496-496s222-496 496-496 496 222 496 496-222 496-496 496zM496 48c-220.6 0-400 179.4-400 400s179.4 400 400 400 400-179.4 400-400-179.4-400-400-400zM336 480c35.4 0 64 28.6 64 64s-28.6 64-64 64-64-28.6-64-64 28.6-64 64-64zM656 608c-35.4 0-64-28.6-64-64s28.6-64 64-64 64 28.6 64 64-28.6 64-64 64zM672 320h-352c-26.4 0-48-21.6-48-48s21.6-48 48-48h352c26.4 0 48 21.6 48 48s-21.6 48-48 48z" />
<glyph unicode="&#xe972;" glyph-name="minus-square" horiz-adv-x="896" d="M216 392c-13.2 0-24 10.8-24 24v64c0 13.2 10.8 24 24 24h464c13.2 0 24-10.8 24-24v-64c0-13.2-10.8-24-24-24h-464zM896 800v-704c0-53-43-96-96-96h-704c-53 0-96 43-96 96v704c0 53 43 96 96 96h704c53 0 96-43 96-96zM800 108v680c0 6.6-5.4 12-12 12h-680c-6.6 0-12-5.4-12-12v-680c0-6.6 5.4-12 12-12h680c6.6 0 12 5.4 12 12z" />
<glyph unicode="&#xe973;" glyph-name="money-bill-alt" horiz-adv-x="1280" d="M640 672c-106.040 0-192-100.28-192-224 0-123.7 85.96-224 192-224 106 0 192 100.26 192 224 0 123.72-85.96 224-192 224zM720 336c0-8.84-7.16-16-16-16h-128c-8.84 0-16 7.16-16 16v32c0 8.84 7.16 16 16 16h32v110.88l-0.94-0.62c-2.493-1.684-5.566-2.689-8.873-2.689-5.528 0-10.401 2.806-13.271 7.072l-0.036 0.057-17.76 26.62c-1.684 2.493-2.689 5.566-2.689 8.873 0 5.528 2.806 10.401 7.072 13.271l0.057 0.036 30.66 20.44c7.479 5.049 16.697 8.060 26.617 8.060 0.001 0 0.002 0 0.003 0h27.16c8.84 0 16-7.16 16-16v-176h32c8.84 0 16-7.16 16-16v-32zM1216 832h-1152c-35.34 0-64-28.66-64-64v-640c0-35.34 28.66-64 64-64h1152c35.34 0 64 28.66 64 64v640c0 35.34-28.66 64-64 64zM1184 288c-70.7 0-128-57.3-128-128h-832c0 70.7-57.3 128-128 128v320c70.7 0 128 57.3 128 128h832c0-70.7 57.3-128 128-128v-320z" />
<glyph unicode="&#xe974;" glyph-name="map2" d="M672 768l-320 128-352-128v-768l352 128 320-128 352 128v768l-352-128zM384 814.27l256-102.4v-630.138l-256 102.398v630.14zM64 723.172l256 93.090v-631.8l-256-93.088v631.798zM960 172.828l-256-93.092v631.8l256 93.090v-631.798z" />
<glyph unicode="&#xe975;" glyph-name="newspaper" horiz-adv-x="1152" d="M1104 832h-880c-41.716 0-77.286-26.754-90.496-64h-85.504c-26.51 0-48-21.49-48-48v-544c0-61.856 50.144-112 112-112h992c26.51 0 48 21.49 48 48v672c0 26.51-21.49 48-48 48zM96 176v496h32v-496c0-8.822-7.178-16-16-16s-16 7.178-16 16zM1056 160h-833.156c0.748 5.228 1.156 10.566 1.156 16v560h832v-576zM344 400h272c13.254 0 24 10.746 24 24v192c0 13.254-10.746 24-24 24h-272c-13.254 0-24-10.746-24-24v-192c0-13.254 10.746-24 24-24zM400 560h160v-80h-160v80zM320 280v48c0 13.254 10.746 24 24 24h272c13.254 0 24-10.746 24-24v-48c0-13.254-10.746-24-24-24h-272c-13.254 0-24 10.746-24 24zM704 280v48c0 13.254 10.746 24 24 24h208c13.254 0 24-10.746 24-24v-48c0-13.254-10.746-24-24-24h-208c-13.254 0-24 10.746-24 24zM704 568v48c0 13.254 10.746 24 24 24h208c13.254 0 24-10.746 24-24v-48c0-13.254-10.746-24-24-24h-208c-13.254 0-24 10.746-24 24zM704 424v48c0 13.254 10.746 24 24 24h208c13.254 0 24-10.746 24-24v-48c0-13.254-10.746-24-24-24h-208c-13.254 0-24 10.746-24 24z" />
<glyph unicode="&#xe976;" glyph-name="history" horiz-adv-x="1088" d="M640 896c247.424 0 448-200.576 448-448s-200.576-448-448-448v96c94.024 0 182.418 36.614 248.902 103.098s103.098 154.878 103.098 248.902c0 94.022-36.614 182.418-103.098 248.902s-154.878 103.098-248.902 103.098c-94.022 0-182.418-36.614-248.902-103.098-51.14-51.138-84.582-115.246-97.306-184.902h186.208l-224-256-224 256h164.57c31.060 217.102 217.738 384 443.43 384zM832 512v-128h-256v320h128v-192z" />
<glyph unicode="&#xe977;" glyph-name="clock2" d="M658.744 210.744l-210.744 210.746v282.51h128v-229.49l173.256-173.254zM512 960c-282.77 0-512-229.23-512-512s229.23-512 512-512 512 229.23 512 512-229.23 512-512 512zM512 64c-212.078 0-384 171.922-384 384s171.922 384 384 384c212.078 0 384-171.922 384-384s-171.922-384-384-384z" />
<glyph unicode="&#xe978;" glyph-name="paper-plane" d="M880 947l-832-479.8c-68.8-39.8-62.2-141.6 11.4-171.8l228.6-94.6v-168.8c0-92.8 118.4-131 173.2-57.2l87.6 118.2 223.8-92.4c11.8-4.8 24.2-7.2 36.6-7.2 16.4 0 32.6 4.2 47.2 12.4 25.6 14.4 43.2 40 47.8 69l118.8 774.4c12.2 80.2-73.8 137.6-143 97.8zM384 32v129.2l73.2-30.2-73.2-99zM809.2 89.4l-307.6 127 280.4 404.6c21.4 31-19 67-47.4 42.4l-423-368.6-215.6 89.2 832 480-118.8-774.6z" />
<glyph unicode="&#xe979;" glyph-name="pause-circle" d="M512 944c-274 0-496-222-496-496s222-496 496-496 496 222 496 496-222 496-496 496zM512 48c-221 0-400 179-400 400s179 400 400 400 400-179 400-400-179-400-400-400zM704 608v-320c0-17.6-14.4-32-32-32h-96c-17.6 0-32 14.4-32 32v320c0 17.6 14.4 32 32 32h96c17.6 0 32-14.4 32-32zM480 608v-320c0-17.6-14.4-32-32-32h-96c-17.6 0-32 14.4-32 32v320c0 17.6 14.4 32 32 32h96c17.6 0 32-14.4 32-32z" />
<glyph unicode="&#xe97a;" glyph-name="play-circle" d="M743.4 484l-352 214c-31.6 17.6-71.4-5-71.4-42v-416c0-36.8 39.6-59.6 71.4-42l352 202c32.8 18.2 32.8 65.6 0 84zM1008 448c0 274-222 496-496 496s-496-222-496-496 222-496 496-496 496 222 496 496zM112 448c0 221 179 400 400 400s400-179 400-400-179-400-400-400-400 179-400 400z" />
<glyph unicode="&#xe97b;" glyph-name="plus-square" horiz-adv-x="896" d="M704 480v-64c0-13.2-10.8-24-24-24h-176v-176c0-13.2-10.8-24-24-24h-64c-13.2 0-24 10.8-24 24v176h-176c-13.2 0-24 10.8-24 24v64c0 13.2 10.8 24 24 24h176v176c0 13.2 10.8 24 24 24h64c13.2 0 24-10.8 24-24v-176h176c13.2 0 24-10.8 24-24zM896 800v-704c0-53-43-96-96-96h-704c-53 0-96 43-96 96v704c0 53 43 96 96 96h704c53 0 96-43 96-96zM800 108v680c0 6.6-5.4 12-12 12h-680c-6.6 0-12-5.4-12-12v-680c0-6.6 5.4-12 12-12h680c6.6 0 12 5.4 12 12z" />
<glyph unicode="&#xe97c;" glyph-name="question-circle" d="M512 944c-273.914 0-496-222.166-496-496 0-273.994 222.086-496 496-496s496 222.006 496 496c0 273.834-222.086 496-496 496zM512 48c-221.064 0-400 178.862-400 400 0 220.99 178.944 400 400 400 220.982 0 400-178.942 400-400 0-221.060-178.862-400-400-400zM726.488 558.4c0-134.104-144.842-136.168-144.842-185.726v-12.674c0-13.254-10.746-24-24-24h-91.294c-13.254 0-24 10.746-24 24v17.318c0 71.49 54.2 100.068 95.158 123.032 35.122 19.69 56.648 33.082 56.648 59.158 0 34.492-43.998 57.386-79.568 57.386-46.378 0-67.788-21.954-97.884-59.938-8.114-10.24-22.92-12.142-33.332-4.248l-55.648 42.196c-10.214 7.744-12.502 22.132-5.288 32.726 47.254 69.388 107.442 108.37 201.15 108.37 98.142 0 202.9-76.608 202.9-177.6zM596 224c0-46.318-37.682-84-84-84s-84 37.682-84 84 37.682 84 84 84 84-37.682 84-84z" />
<glyph unicode="&#xe97d;" glyph-name="bell2" d="M1025.5 160c0 288-256 224-256 448 0 18.56-1.788 34.42-5.048 47.928-16.83 113.018-92.156 203.72-189.772 231.36 0.866 3.948 1.32 8.032 1.32 12.21 0 33.278-28.8 60.502-64 60.502s-64-27.224-64-60.5c0-4.18 0.456-8.264 1.32-12.21-109.47-30.998-190.914-141.298-193.254-273.442-0.040-1.92-0.066-3.864-0.066-5.846 0-224.002-256-160.002-256-448.002 0-76.226 170.59-139.996 398.97-156.080 21.524-40.404 64.056-67.92 113.030-67.92s91.508 27.516 113.030 67.92c228.38 16.084 398.97 79.854 398.97 156.080 0 0.228-0.026 0.456-0.028 0.682l1.528-0.682zM826.246 105.904c-54.23-14.47-118.158-24.876-186.768-30.648-5.704 65.418-60.582 116.744-127.478 116.744s-121.774-51.326-127.478-116.744c-68.608 5.772-132.538 16.178-186.768 30.648-74.63 19.914-110.31 42.19-123.368 54.096 13.058 11.906 48.738 34.182 123.368 54.096 86.772 23.152 198.372 35.904 314.246 35.904s227.474-12.752 314.246-35.904c74.63-19.914 110.31-42.19 123.368-54.096-13.058-11.906-48.738-34.182-123.368-54.096z" />
<glyph unicode="&#xe97e;" glyph-name="printer" d="M256 896h512v-128h-512v128zM960 704h-896c-35.2 0-64-28.8-64-64v-320c0-35.2 28.794-64 64-64h192v-256h512v256h192c35.2 0 64 28.8 64 64v320c0 35.2-28.8 64-64 64zM128 512c-35.346 0-64 28.654-64 64s28.654 64 64 64 64-28.654 64-64-28.652-64-64-64zM704 64h-384v320h384v-320z" />
<glyph unicode="&#xe97f;" glyph-name="laptop1" d="M896 256v512c0 35.2-28.8 64-64 64h-640c-35.2 0-64-28.8-64-64v-512h-128v-192h1024v192h-128zM640 128h-256v64h256v-64zM832 256h-640v511.886c0.034 0.040 0.076 0.082 0.114 0.114h639.77c0.040-0.034 0.082-0.076 0.116-0.116v-511.884z" />
<glyph unicode="&#xe980;" glyph-name="save" horiz-adv-x="896" d="M867.882 700.118l-167.764 167.764c-17.373 17.373-41.372 28.118-67.882 28.118h-536.236c-53.020 0-96-42.98-96-96v-704c0-53.020 42.98-96 96-96h704c53.020 0 96 42.98 96 96v536.236c0 26.51-10.745 50.509-28.118 67.882v0zM544 800v-160h-256v160h256zM788 96h-680c-6.627 0-12 5.373-12 12v0 680c0 6.627 5.373 12 12 12v0h84v-208c0-26.51 21.49-48 48-48h352c26.51 0 48 21.49 48 48v200.236l156.486-156.486c2.171-2.172 3.514-5.171 3.514-8.485 0-0.001 0-0.001 0-0.002v0-519.264c0-6.627-5.373-12-12-12v0zM448 496c-97.046 0-176-78.954-176-176s78.954-176 176-176 176 78.954 176 176-78.954 176-176 176zM448 240c-44.112 0-80 35.888-80 80s35.888 80 80 80 80-35.888 80-80-35.888-80-80-80z" />
<glyph unicode="&#xe981;" glyph-name="share-square" horiz-adv-x="1152" d="M1123.876 643.88l-287.996 287.936c-60.028 60.028-163.88 17.99-163.88-67.88v-114.396c-84.9-3.76-168.060-13.1-241.52-35.98-70.34-21.9-126.14-55.16-165.82-98.84-48.22-53.12-72.66-119.92-72.66-198.6 0-123.394 66.356-224.91 169.74-289.52 75.092-47.016 170.496 25.302 142.040 111.48-31.030 94.238-34.312 141.846 168.22 157.52v-107.6c0-85.986 103.936-127.826 163.88-67.88l287.996 288c37.5 37.48 37.5 98.28 0 135.76zM768 288v207.68c-257.382-3.844-435.016-46.38-355.38-287.68-59.040 36.9-124.62 103.84-124.62 208.12 0 218.668 258.28 237.894 480 239.7v208.18l288-288-288-288zM817.48 119.014c15.954 4.627 29.88 10.97 42.631 19.008l-0.683-0.402c15.952 9.904 36.572-1.652 36.572-20.428v-85.192c0-53.020-42.98-96-96-96h-704c-53.020 0-96 42.98-96 96v704c0 53.020 42.98 96 96 96h264c13.254 0 24-10.746 24-24v-8.972c0-9.834-5.974-18.738-15.138-22.304-27.404-10.662-52.792-23.074-76.1-37.17-3.577-2.217-7.913-3.537-12.555-3.554h-172.207c-6.627 0-12-5.373-12-12v0-680c0-6.627 5.373-12 12-12v0h680c6.627 0 12 5.373 12 12v0 51.932c0 10.74 7.158 20.118 17.48 23.082z" />
<glyph unicode="&#xe982;" glyph-name="mobile1" d="M736 960h-448c-52.8 0-96-43.2-96-96v-832c0-52.8 43.2-96 96-96h448c52.8 0 96 43.2 96 96v832c0 52.8-43.2 96-96 96zM384 912h256v-32h-256v32zM512 0c-35.346 0-64 28.654-64 64s28.654 64 64 64 64-28.654 64-64-28.654-64-64-64zM768 192h-512v640h512v-640z" />
<glyph unicode="&#xe983;" glyph-name="smile-wink" horiz-adv-x="992" d="M496 944c-274 0-496-222-496-496s222-496 496-496 496 222 496 496-222 496-496 496zM496 48c-220.6 0-400 179.4-400 400s179.4 400 400 400 400-179.4 400-400-179.4-400-400-400zM731.6 340.8c-20.4 17-50.6 14.2-67.6-6.2-41.6-50-103-78.8-168-78.8s-126.4 28.6-168 78.8c-17 20.4-47.4 23-67.6 6.2-20.4-17-23-47.2-6.2-67.6 60-72 148.2-113.2 241.8-113.2s181.8 41.2 241.8 113.2c17 20.4 14.2 50.6-6.2 67.6zM336 480c35.4 0 64 28.6 64 64s-28.6 64-64 64-64-28.6-64-64 28.6-64 64-64zM656 600c-51.4 0-111.8-33.8-119.8-84.2-3.4-22.4 23-36.4 39.6-21.6l19 17c29.6 26.4 92.4 26.4 122 0l19-17c17-14.8 43.2-0.6 39.6 21.6-7.6 50.4-68 84.2-119.4 84.2z" />
<glyph unicode="&#xe984;" glyph-name="smile" horiz-adv-x="992" d="M496 944c-274 0-496-222-496-496s222-496 496-496 496 222 496 496-222 496-496 496zM496 48c-220.6 0-400 179.4-400 400s179.4 400 400 400 400-179.4 400-400-179.4-400-400-400zM336 480c35.4 0 64 28.6 64 64s-28.6 64-64 64-64-28.6-64-64 28.6-64 64-64zM656 480c35.4 0 64 28.6 64 64s-28.6 64-64 64-64-28.6-64-64 28.6-64 64-64zM664 334.8c-41.6-50-103-78.8-168-78.8s-126.4 28.6-168 78.8c-17 20.4-47.4 23-67.6 6.2-20.4-17-23-47.2-6.2-67.6 60-72 148.2-113.2 241.8-113.2s181.8 41.2 241.8 113.2c17 20.4 14.2 50.6-6.2 67.6-20.2 16.8-50.6 14.2-67.6-6.2z" />
<glyph unicode="&#xe985;" glyph-name="mobile2" d="M768 960h-576c-35.2 0-64-28.798-64-64v-896c0-35.2 28.798-64 64-64h576c35.2 0 64 28.8 64 64v896c0 35.202-28.8 64-64 64zM480-17.782c-27.492 0-49.782 22.29-49.782 49.782s22.29 49.782 49.782 49.782 49.782-22.29 49.782-49.782-22.29-49.782-49.782-49.782zM768 128h-576v704h576v-704z" />
<glyph unicode="&#xe986;" glyph-name="square" horiz-adv-x="896" d="M800 896h-704c-53 0-96-43-96-96v-704c0-53 43-96 96-96h704c53 0 96 43 96 96v704c0 53-43 96-96 96zM788 96h-680c-6.6 0-12 5.4-12 12v680c0 6.6 5.4 12 12 12h680c6.6 0 12-5.4 12-12v-680c0-6.6-5.4-12-12-12z" />
<glyph unicode="&#xe987;" glyph-name="star-half" horiz-adv-x="1152" d="M576 189.4l-248.6-130.8 47.4 276.8-201.2 196 278 40.4 124.4 252v136.2c-22.8 0-45.6-11.8-57.4-35.6l-130.6-264.8-292.2-42.4c-52.4-7.6-73.4-72.2-35.4-109.2l211.4-206-50-291c-9-52.2 46-92 92.8-67.4l261.4 137.2v108.6z" />
<glyph unicode="&#xe988;" glyph-name="star" horiz-adv-x="1152" d="M1056.2 617l-292.2 42.6-130.6 264.8c-23.4 47.2-91.2 47.8-114.8 0l-130.6-264.8-292.2-42.6c-52.4-7.6-73.4-72.2-35.4-109.2l211.4-206-50-291c-9-52.6 46.4-92 92.8-67.4l261.4 137.4 261.4-137.4c46.4-24.4 101.8 14.8 92.8 67.4l-50 291 211.4 206c38 37 17 101.6-35.4 109.2zM777.2 335.4l47.4-276.8-248.6 130.6-248.6-130.6 47.4 276.8-201.2 196 278 40.4 124.4 252 124.4-252 278-40.4-201.2-196z" />
<glyph unicode="&#xe989;" glyph-name="sticky-note" horiz-adv-x="896" d="M896 263.788v536.212c0 53.020-42.98 96-96 96h-704c-53.020 0-96-42.98-96-96v-703.976c0-53.020 42.98-96 96-96h536.236c26.51 0 50.509 10.745 67.882 28.118l167.764 167.764c17.373 17.373 28.118 41.372 28.118 67.882v0zM640 103.788v152.236h152.236l-152.236-152.236zM800 800v-447.976h-208c-26.51 0-48-21.49-48-48v-208h-448v703.976h704z" />
<glyph unicode="&#xe98a;" glyph-name="stop-circle" d="M1008 448c0 274-222 496-496 496s-496-222-496-496 222-496 496-496 496 222 496 496zM112 448c0 221 179 400 400 400s400-179 400-400-179-400-400-400-400 179-400 400zM704 608v-320c0-17.6-14.4-32-32-32h-320c-17.6 0-32 14.4-32 32v320c0 17.6 14.4 32 32 32h320c17.6 0 32-14.4 32-32z" />
<glyph unicode="&#xe98b;" glyph-name="tablet1" d="M800 960h-640c-52.8 0-96-43.2-96-96v-832c0-52.8 43.2-96 96-96h640c52.8 0 96 43.2 96 96v832c0 52.8-43.2 96-96 96zM480-32c-17.672 0-32 14.326-32 32s14.328 32 32 32 32-14.326 32-32-14.328-32-32-32zM768 64h-576v768h576v-768z" />
<glyph unicode="&#xe98c;" glyph-name="drawer" d="M1016.988 307.99l-256 320c-6.074 7.592-15.266 12.010-24.988 12.010h-448c-9.72 0-18.916-4.418-24.988-12.010l-256-320c-4.538-5.674-7.012-12.724-7.012-19.99v-288c0-35.346 28.654-64 64-64h896c35.348 0 64 28.654 64 64v288c0 7.266-2.472 14.316-7.012 19.99zM960 256h-224l-128-128h-192l-128 128h-224v20.776l239.38 299.224h417.24l239.38-299.224v-20.776zM736 448h-448c-17.672 0-32 14.328-32 32s14.328 32 32 32h448c17.674 0 32-14.328 32-32s-14.326-32-32-32zM800 320h-576c-17.672 0-32 14.326-32 32s14.328 32 32 32h576c17.674 0 32-14.326 32-32s-14.326-32-32-32z" />
<glyph unicode="&#xe98d;" glyph-name="thumbs-down" d="M932.54 509.38c9.348 45.294 1.728 89.076-17.98 125.98 5.916 47.736-8.042 97.13-34.68 133.98-1.908 111.814-71.646 190.66-225.88 190.66-14 0-30-0.020-44.44-0.020-207.17 0-271.566-79.98-353.56-79.98h-21.69c-11.28 9.95-26.084 16-42.31 16h-128c-35.346 0-64-28.654-64-64v-480c0-35.346 28.654-64 64-64h128c23.684 0 44.35 12.876 55.416 32h14.104c38.292-33.906 92.026-121.306 137.52-166.8 27.334-27.334 20.306-217.2 143.52-217.2 115.16 0 190.54 63.872 190.54 209.46 0 36.82-7.86 67.46-17.7 93.080h72.96c97.204 0 171.64 83.13 171.64 171.16 0 38.3-9.92 69.98-27.46 99.68zM128 368c-26.51 0-48 21.49-48 48s21.49 48 48 48 48-21.49 48-48-21.49-48-48-48zM788.36 334.54h-207.98c0-75.64 56.72-110.74 56.72-189.080 0-47.5 0-113.46-94.54-113.46-37.82 37.82-18.92 132.36-75.64 189.080-53.12 53.14-132.36 194.92-189.080 194.92h-21.84v372.34c107.222 0 200.002 75.64 343.28 75.64h75.64c71.024 0 121.64-34.24 106.24-131.8 30.4-16.32 53-72.88 27.88-115.14 43.162-40.768 37.398-102.13 10.42-131.24 18.9 0 44.72-37.82 44.54-75.62-0.18-37.82-33.42-75.64-75.64-75.64z" />
<glyph unicode="&#xe98e;" glyph-name="thumbs-up" d="M932.54 386.62c17.54 29.7 27.46 61.38 27.46 99.68 0 88.030-74.436 171.16-171.64 171.16h-72.96c9.84 25.62 17.7 56.26 17.7 93.080 0 145.588-75.38 209.46-190.54 209.46-123.214 0-116.186-189.866-143.52-217.2-45.494-45.494-99.23-132.894-137.52-166.8h-197.52c-35.346 0-64-28.654-64-64v-480c0-35.346 28.654-64 64-64h128c29.786 0 54.816 20.348 61.956 47.9 89.018-2.002 150.12-79.88 355.604-79.88 14.44 0 30.44-0.020 44.44-0.020 154.234 0 223.972 78.846 225.88 190.66 26.638 36.85 40.598 86.244 34.68 133.98 19.708 36.904 27.328 80.686 17.98 125.98zM809.040 278.96c25.12-42.26 2.52-98.82-27.88-115.14 15.4-97.56-35.216-131.8-106.24-131.8h-75.64c-143.278 0-236.058 75.64-343.28 75.64v372.34h21.84c56.72 0 135.96 141.78 189.080 194.92 56.72 56.72 37.82 151.26 75.64 189.080 94.54 0 94.54-65.96 94.54-113.46 0-78.34-56.72-113.44-56.72-189.080h207.98c42.22 0 75.46-37.82 75.64-75.64 0.18-37.8-25.64-75.62-44.54-75.62 26.978-29.11 32.742-90.472-10.42-131.24zM176 96c0-26.51-21.49-48-48-48s-48 21.49-48 48 21.49 48 48 48 48-21.49 48-48z" />
<glyph unicode="&#xe98f;" glyph-name="times-circle" d="M512 944c-274 0-496-222-496-496s222-496 496-496 496 222 496 496-222 496-496 496zM512 48c-221 0-400 179-400 400s179 400 400 400 400-179 400-400-179-400-400-400zM715.6 572.4l-124.4-124.4 124.4-124.4c9.4-9.4 9.4-24.6 0-34l-45.2-45.2c-9.4-9.4-24.6-9.4-34 0l-124.4 124.4-124.4-124.4c-9.4-9.4-24.6-9.4-34 0l-45.2 45.2c-9.4 9.4-9.4 24.6 0 34l124.4 124.4-124.4 124.4c-9.4 9.4-9.4 24.6 0 34l45.2 45.2c9.4 9.4 24.6 9.4 34 0l124.4-124.4 124.4 124.4c9.4 9.4 24.6 9.4 34 0l45.2-45.2c9.4-9.4 9.4-24.6 0-34z" />
<glyph unicode="&#xe990;" glyph-name="drawer2" d="M1016.988 307.99l-256 320c-6.074 7.592-15.266 12.010-24.988 12.010h-448c-9.72 0-18.916-4.418-24.988-12.010l-256-320c-4.538-5.674-7.012-12.724-7.012-19.99v-288c0-35.346 28.654-64 64-64h896c35.348 0 64 28.654 64 64v288c0 7.266-2.472 14.316-7.012 19.99zM960 256h-224l-128-128h-192l-128 128h-224v20.776l239.38 299.224h417.24l239.38-299.224v-20.776z" />
<glyph unicode="&#xe991;" glyph-name="trash-alt" horiz-adv-x="896" d="M384 584v-432c0-13.254-10.746-24-24-24h-48c-13.254 0-24 10.746-24 24v432c0 13.254 10.746 24 24 24h48c13.254 0 24-10.746 24-24zM584 608h-48c-13.254 0-24-10.746-24-24v-432c0-13.254 10.746-24 24-24h48c13.254 0 24 10.746 24 24v432c0 13.254-10.746 24-24 24zM848 800c26.51 0 48-21.49 48-48v-24c0-13.254-10.746-24-24-24h-40v-672c0-53.020-42.98-96-96-96h-576c-53.020 0-96 42.98-96 96v672h-40c-13.254 0-24 10.746-24 24v24c0 26.51 21.49 48 48 48h148.822l68.036 113.392c17.082 28.114 47.541 46.608 82.319 46.608 0 0 0.001 0 0.001 0h201.646c0 0 0.001 0 0.001 0 34.778 0 65.237-18.494 82.079-46.183l0.24-0.425 68.034-113.392h148.822zM308.778 800h278.446l-34.904 58.174c-2.135 3.514-5.943 5.826-10.29 5.826 0 0 0 0 0 0h-188.056c0 0 0 0 0 0-4.347 0-8.155-2.312-10.26-5.773l-0.030-0.053-34.906-58.174zM736 704h-576v-660c0-6.627 5.373-12 12-12v0h552c6.627 0 12 5.373 12 12v0 660z" />
<glyph unicode="&#xe992;" glyph-name="user-circle" horiz-adv-x="992" d="M496 752c-106 0-192-86-192-192s86-192 192-192 192 86 192 192-86 192-192 192zM496 464c-53 0-96 43-96 96s43 96 96 96 96-43 96-96-43-96-96-96zM496 944c-274 0-496-222-496-496s222-496 496-496 496 222 496 496-222 496-496 496zM496 48c-99.4 0-190.2 36.6-260.2 96.8 29.8 46 80.8 77.2 139.2 79 41.6-12.8 81.2-19.2 121-19.2s79.4 6.2 121 19.2c58.4-2 109.4-33 139.2-79-70-60.2-160.8-96.8-260.2-96.8zM821.4 216.2c-48.8 62.8-124.2 103.8-210.2 103.8-20.4 0-52-19.2-115.2-19.2-63 0-94.8 19.2-115.2 19.2-85.8 0-161.2-41-210.2-103.8-46.8 65.4-74.6 145.4-74.6 231.8 0 220.6 179.4 400 400 400s400-179.4 400-400c0-86.4-27.8-166.4-74.6-231.8z" />
<glyph unicode="&#xe993;" glyph-name="user" horiz-adv-x="896" d="M627.2 352c-57.4 0-85-32-179.2-32s-121.6 32-179.2 32c-148.4 0-268.8-120.4-268.8-268.8v-51.2c0-53 43-96 96-96h704c53 0 96 43 96 96v51.2c0 148.4-120.4 268.8-268.8 268.8zM800 32h-704v51.2c0 95.2 77.6 172.8 172.8 172.8 29.2 0 76.6-32 179.2-32 103.4 0 149.8 32 179.2 32 95.2 0 172.8-77.6 172.8-172.8v-51.2zM448 384c159 0 288 129 288 288s-129 288-288 288-288-129-288-288 129-288 288-288zM448 864c105.8 0 192-86.2 192-192s-86.2-192-192-192-192 86.2-192 192 86.2 192 192 192z" />
<glyph unicode="&#xe994;" glyph-name="window-close" d="M928 896h-832c-53 0-96-43-96-96v-704c0-53 43-96 96-96h832c53 0 96 43 96 96v704c0 53-43 96-96 96zM928 108c0-6.6-5.4-12-12-12h-808c-6.6 0-12 5.4-12 12v680c0 6.6 5.4 12 12 12h808c6.6 0 12-5.4 12-12v-680zM713 570.8l-122.8-122.8 122.8-122.8c9.2-9.2 9.2-24.2 0-33.6l-44.6-44.6c-9.2-9.2-24.2-9.2-33.6 0l-122.8 122.8-122.8-122.8c-9.2-9.2-24.2-9.2-33.6 0l-44.6 44.6c-9.2 9.2-9.2 24.2 0 33.6l122.8 122.8-122.8 122.8c-9.2 9.2-9.2 24.2 0 33.6l44.6 44.6c9.2 9.2 24.2 9.2 33.6 0l122.8-122.8 122.8 122.8c9.2 9.2 24.2 9.2 33.6 0l44.6-44.6c9.4-9.2 9.4-24.2 0-33.6z" />
<glyph unicode="&#xe995;" glyph-name="window-maximize" d="M928 896h-832c-53 0-96-43-96-96v-704c0-53 43-96 96-96h832c53 0 96 43 96 96v704c0 53-43 96-96 96zM928 108c0-6.6-5.4-12-12-12h-808c-6.6 0-12 5.4-12 12v468h832v-468z" />
<glyph unicode="&#xe996;" glyph-name="box-add" d="M832 896h-640l-192-192v-672c0-17.674 14.326-32 32-32h960c17.672 0 32 14.326 32 32v672l-192 192zM512 128l-320 256h192v192h256v-192h192l-320-256zM154.51 768l64 64h586.978l64-64h-714.978z" />
<glyph unicode="&#xe997;" glyph-name="window-restore" d="M928 960h-640c-53 0-96-43-96-96v-96h-96c-53 0-96-43-96-96v-640c0-53 43-96 96-96h640c53 0 96 43 96 96v96h96c53 0 96 43 96 96v640c0 53-43 96-96 96zM736 32h-640v416h640v-416zM928 224h-96v448c0 53-43 96-96 96h-448v96h640v-640z" />
<glyph unicode="&#xe998;" glyph-name="box-remove" d="M832 896h-640l-192-192v-672c0-17.674 14.326-32 32-32h960c17.672 0 32 14.326 32 32v672l-192 192zM640 320v-192h-256v192h-192l320 256 320-256h-192zM154.51 768l64 64h586.976l64-64h-714.976z" />
<glyph unicode="&#xe999;" glyph-name="download1" d="M512 384l256 256h-192v256h-128v-256h-192zM744.726 488.728l-71.74-71.742 260.080-96.986-421.066-157.018-421.066 157.018 260.080 96.986-71.742 71.742-279.272-104.728v-256l512-192 512 192v256z" />
<glyph unicode="&#xe99a;" glyph-name="upload1" d="M448 384h128v256h192l-256 256-256-256h192zM640 528v-98.712l293.066-109.288-421.066-157.018-421.066 157.018 293.066 109.288v98.712l-384-144v-256l512-192 512 192v256z" />
<glyph unicode="&#xe99b;" glyph-name="user2" d="M576 253.388v52.78c70.498 39.728 128 138.772 128 237.832 0 159.058 0 288-192 288s-192-128.942-192-288c0-99.060 57.502-198.104 128-237.832v-52.78c-217.102-17.748-384-124.42-384-253.388h896c0 128.968-166.898 235.64-384 253.388z" />
<glyph unicode="&#xe99c;" glyph-name="users1" horiz-adv-x="1152" d="M768 189.388v52.78c70.498 39.728 128 138.772 128 237.832 0 159.058 0 288-192 288s-192-128.942-192-288c0-99.060 57.502-198.104 128-237.832v-52.78c-217.102-17.748-384-124.42-384-253.388h896c0 128.968-166.898 235.64-384 253.388zM327.196 164.672c55.31 36.15 124.080 63.636 199.788 80.414-15.054 17.784-28.708 37.622-40.492 59.020-30.414 55.234-46.492 116.058-46.492 175.894 0 86.042 0 167.31 30.6 233.762 29.706 64.504 83.128 104.496 159.222 119.488-16.914 76.48-61.94 126.75-181.822 126.75-192 0-192-128.942-192-288 0-99.060 57.502-198.104 128-237.832v-52.78c-217.102-17.748-384-124.42-384-253.388h279.006c14.518 12.91 30.596 25.172 48.19 36.672z" />
<glyph unicode="&#xe99d;" glyph-name="user-plus1" d="M384 224c0 151.234 95.874 280.486 230.032 330.2 16.28 36.538 25.968 77.164 25.968 117.8 0 159.058 0 288-192 288s-192-128.942-192-288c0-99.060 57.502-198.104 128-237.832v-52.78c-217.102-17.748-384-124.42-384-253.388h397.306c-8.664 30.53-13.306 62.732-13.306 96zM736 512c-159.058 0-288-128.942-288-288s128.942-288 288-288c159.056 0 288 128.942 288 288s-128.942 288-288 288zM896 192h-128v-128h-64v128h-128v64h128v128h64v-128h128v-64z" />
<glyph unicode="&#xe99e;" glyph-name="user-minus1" d="M384 224c0 151.234 95.874 280.486 230.032 330.2 16.28 36.538 25.968 77.164 25.968 117.8 0 159.058 0 288-192 288s-192-128.942-192-288c0-99.060 57.502-198.104 128-237.832v-52.78c-217.102-17.748-384-124.42-384-253.388h397.306c-8.664 30.53-13.306 62.732-13.306 96zM736 512c-159.058 0-288-128.942-288-288s128.942-288 288-288c159.056 0 288 128.942 288 288s-128.942 288-288 288zM896 192h-320v64h320v-64z" />
<glyph unicode="&#xe99f;" glyph-name="user-check1" d="M960 352l-288-288-96 96-64-64 160-160 352 352zM448 192h320v115.128c-67.22 39.2-156.308 66.11-256 74.26v52.78c70.498 39.728 128 138.772 128 237.832 0 159.058 0 288-192 288s-192-128.942-192-288c0-99.060 57.502-198.104 128-237.832v-52.78c-217.102-17.748-384-124.42-384-253.388h448v64z" />
<glyph unicode="&#xe9a0;" glyph-name="hour-glass" d="M728.992 448c137.754 87.334 231.008 255.208 231.008 448 0 21.676-1.192 43.034-3.478 64h-889.042c-2.29-20.968-3.48-42.326-3.48-64 0-192.792 93.254-360.666 231.006-448-137.752-87.334-231.006-255.208-231.006-448 0-21.676 1.19-43.034 3.478-64h889.042c2.288 20.966 3.478 42.324 3.478 64 0.002 192.792-93.252 360.666-231.006 448zM160 0c0 186.912 80.162 345.414 224 397.708v100.586c-143.838 52.29-224 210.792-224 397.706v0h704c0-186.914-80.162-345.416-224-397.706v-100.586c143.838-52.294 224-210.796 224-397.708h-704zM619.626 290.406c-71.654 40.644-75.608 93.368-75.626 125.366v64.228c0 31.994 3.804 84.914 75.744 125.664 38.504 22.364 71.808 56.348 97.048 98.336h-409.582c25.266-42.032 58.612-76.042 97.166-98.406 71.654-40.644 75.606-93.366 75.626-125.366v-64.228c0-31.992-3.804-84.914-75.744-125.664-72.622-42.18-126.738-125.684-143.090-226.336h501.67c-16.364 100.708-70.53 184.248-143.212 226.406z" />
<glyph unicode="&#xe9a1;" glyph-name="amazon" horiz-adv-x="896" d="M514.4 634.6c-97.4-3.6-339-31-339-235 0-219 276.6-228 367-86.4 13-20.4 70.8-75 90.6-93.6l113.6 112s-64.6 50.6-64.6 105.6v294.2c0 50.6-49 164.6-224.6 164.6-176 0-269.4-110-269.4-208.6l147-13.6c32.6 99 108.4 99 108.4 99 81.4 0.2 71-59.6 71-138.2zM514.4 461c0-160-168.4-136-168.4-34.4 0 94.4 101 113.4 168.4 115.6v-81.2zM786.4 134c-15.4-20-140-134-349-134s-369 143-418 202c-13.6 15.4 2 22.6 11 16.6 146.6-89 375.6-235.6 745-60.6 15 7.4 26.6-4 11-24zM866 129.6c-13-31.6-32-53.6-42.4-62-11-9-19-5.4-13 7.6s38.6 93 25.4 110c-13 16.6-74 8.6-96 6.4-21.6-2-26-4-28 0.6-4.6 11.4 43.4 31 75 35 31.4 3.6 82 1.6 92-11.4 7.4-10.2 0-54.2-13-86.2z" />
<glyph unicode="&#xe9a2;" glyph-name="spinner" d="M384 832c0 70.692 57.308 128 128 128s128-57.308 128-128c0-70.692-57.308-128-128-128s-128 57.308-128 128zM655.53 719.53c0 70.692 57.308 128 128 128s128-57.308 128-128c0-70.692-57.308-128-128-128s-128 57.308-128 128zM832 448c0 35.346 28.654 64 64 64s64-28.654 64-64c0-35.346-28.654-64-64-64s-64 28.654-64 64zM719.53 176.47c0 35.346 28.654 64 64 64s64-28.654 64-64c0-35.346-28.654-64-64-64s-64 28.654-64 64zM448.002 64c0 0 0 0 0 0 0 35.346 28.654 64 64 64s64-28.654 64-64c0 0 0 0 0 0 0-35.346-28.654-64-64-64s-64 28.654-64 64zM176.472 176.47c0 0 0 0 0 0 0 35.346 28.654 64 64 64s64-28.654 64-64c0 0 0 0 0 0 0-35.346-28.654-64-64-64s-64 28.654-64 64zM144.472 719.53c0 0 0 0 0 0 0 53.019 42.981 96 96 96s96-42.981 96-96c0 0 0 0 0 0 0-53.019-42.981-96-96-96s-96 42.981-96 96zM56 448c0 39.765 32.235 72 72 72s72-32.235 72-72c0-39.765-32.235-72-72-72s-72 32.235-72 72z" />
<glyph unicode="&#xe9a3;" glyph-name="android" horiz-adv-x="896" d="M179.2 551v-231.6c0-30.8-24.2-55.4-55-55.4-30.6 0-60.2 24.8-60.2 55.4v231.6c0 30.2 29.6 55 60.2 55 30.2 0 55-24.8 55-55zM200.8 237c0-32.8 26.4-59.2 59.2-59.2h39.8l0.6-122.2c0-73.8 110.4-73.2 110.4 0v122.2h74.4v-122.2c0-73.4 111-73.6 111 0v122.2h40.4c32.4 0 58.8 26.4 58.8 59.2v358.8h-494.6v-358.8zM696.8 615.2h-498.2c0 85.6 51.2 160 127.2 198.8l-38.2 70.6c-5.6 9.8 8.6 16 13.4 7.6l38.8-71.2c69.8 31 150 29.4 216.6 0l38.6 71c5 8.6 19 2.2 13.4-7.6l-38.2-70.4c75.4-38.8 126.6-113.2 126.6-198.8zM355.4 726.2c0 11.4-9.2 21-21 21-11.4 0-20.4-9.6-20.4-21s9.2-21 20.4-21c11.8 0 21 9.6 21 21zM582.2 726.2c0 11.4-9.2 21-20.4 21-11.8 0-21-9.6-21-21s9.2-21 21-21c11.2 0 20.4 9.6 20.4 21zM771.8 606c-30.2 0-55-24.2-55-55v-231.6c0-30.8 24.8-55.4 55-55.4 30.8 0 60.2 24.8 60.2 55.4v231.6c0 30.8-29.6 55-60.2 55z" />
<glyph unicode="&#xe9a4;" glyph-name="spinner2" d="M1024 448c-1.278 66.862-15.784 133.516-42.576 194.462-26.704 61-65.462 116.258-113.042 161.92-47.552 45.696-103.944 81.82-164.984 105.652-61.004 23.924-126.596 35.352-191.398 33.966-64.81-1.282-129.332-15.374-188.334-41.356-59.048-25.896-112.542-63.47-156.734-109.576-44.224-46.082-79.16-100.708-102.186-159.798-23.114-59.062-34.128-122.52-32.746-185.27 1.286-62.76 14.964-125.148 40.134-182.206 25.088-57.1 61.476-108.828 106.11-151.548 44.61-42.754 97.472-76.504 154.614-98.72 57.118-22.304 118.446-32.902 179.142-31.526 60.708 1.29 120.962 14.554 176.076 38.914 55.15 24.282 105.116 59.48 146.366 102.644 41.282 43.14 73.844 94.236 95.254 149.43 13.034 33.458 21.88 68.4 26.542 103.798 1.246-0.072 2.498-0.12 3.762-0.12 35.346 0 64 28.652 64 64 0 1.796-0.094 3.572-0.238 5.332h0.238zM922.306 278.052c-23.472-53.202-57.484-101.4-99.178-141.18-41.67-39.81-91-71.186-144.244-91.79-53.228-20.678-110.29-30.452-166.884-29.082-56.604 1.298-112.596 13.736-163.82 36.474-51.25 22.666-97.684 55.49-135.994 95.712-38.338 40.198-68.528 87.764-88.322 139.058-19.87 51.284-29.228 106.214-27.864 160.756 1.302 54.552 13.328 108.412 35.254 157.69 21.858 49.3 53.498 93.97 92.246 130.81 38.73 36.868 84.53 65.87 133.874 84.856 49.338 19.060 102.136 28.006 154.626 26.644 52.5-1.306 104.228-12.918 151.562-34.034 47.352-21.050 90.256-51.502 125.624-88.782 35.396-37.258 63.21-81.294 81.39-128.688 18.248-47.392 26.782-98.058 25.424-148.496h0.238c-0.144-1.76-0.238-3.536-0.238-5.332 0-33.012 24.992-60.174 57.086-63.624-6.224-34.822-16.53-68.818-30.78-100.992z" />
<glyph unicode="&#xe9a5;" glyph-name="spinner3" d="M512 656.904c-32.964 0-59.686 26.724-59.686 59.686v179.060c0 32.964 26.722 59.686 59.686 59.686 32.962 0 59.688-26.722 59.688-59.686v-179.060c0-32.964-26.726-59.686-59.688-59.686zM512-36.956c-20.602 0-37.304 16.702-37.304 37.304v179.060c0 20.602 16.702 37.304 37.304 37.304 20.604 0 37.304-16.704 37.304-37.304v-179.060c0-20.602-16.7-37.304-37.304-37.304zM377.756 624.64c-19.34 0-38.146 10.034-48.512 27.988l-89.53 155.070c-15.452 26.764-6.282 60.986 20.482 76.438 26.762 15.45 60.986 6.284 76.438-20.482l89.53-155.072c15.452-26.764 6.282-60.986-20.482-76.438-8.81-5.084-18.432-7.504-27.926-7.504zM735.856 26.744c-11.602 0-22.886 6.022-29.108 16.792l-89.53 155.070c-9.27 16.056-3.77 36.592 12.29 45.864 16.056 9.264 36.59 3.77 45.864-12.292l89.532-155.068c9.27-16.058 3.768-36.592-12.292-45.864-5.286-3.048-11.060-4.502-16.756-4.502zM279.344 530.060c-8.86 0-17.838 2.256-26.064 7.006l-155.072 89.53c-24.978 14.422-33.538 46.362-19.116 71.342 14.42 24.978 46.364 33.538 71.342 19.116l155.070-89.53c24.98-14.422 33.538-46.362 19.116-71.34-9.668-16.756-27.226-26.124-45.276-26.124zM899.648 194.326c-5.064 0-10.196 1.29-14.894 4.004l-155.068 89.53c-14.274 8.24-19.164 26.494-10.924 40.768 8.242 14.276 26.496 19.166 40.766 10.924l155.070-89.532c14.274-8.24 19.164-26.492 10.924-40.766-5.53-9.574-15.562-14.928-25.874-14.928zM243.41 399.504h-179.060c-26.784 0-48.496 21.712-48.496 48.496s21.712 48.496 48.496 48.496h179.060c26.784 0 48.496-21.712 48.496-48.496s-21.712-48.496-48.496-48.496zM959.65 418.156c-0.002 0 0 0 0 0h-179.060c-16.482 0.002-29.844 13.364-29.844 29.844s13.364 29.844 29.844 29.844c0.002 0 0 0 0 0h179.060c16.482 0 29.844-13.362 29.844-29.844 0-16.48-13.364-29.844-29.844-29.844zM124.366 179.402c-15.472 0-30.518 8.028-38.81 22.39-12.362 21.41-5.026 48.79 16.384 61.148l155.072 89.532c21.41 12.368 48.79 5.028 61.15-16.384 12.362-21.412 5.026-48.79-16.384-61.15l-155.072-89.53c-7.050-4.070-14.748-6.006-22.34-6.006zM744.632 552.448c-10.314 0-20.346 5.352-25.874 14.926-8.24 14.274-3.35 32.526 10.924 40.768l155.070 89.528c14.272 8.236 32.526 3.352 40.768-10.922 8.24-14.274 3.35-32.526-10.924-40.768l-155.070-89.528c-4.7-2.714-9.83-4.004-14.894-4.004zM288.136 19.284c-6.962 0-14.016 1.774-20.48 5.504-19.626 11.332-26.35 36.428-15.020 56.054l89.53 155.070c11.33 19.628 36.426 26.352 56.054 15.022 19.626-11.332 26.35-36.43 15.020-56.054l-89.53-155.072c-7.598-13.166-21.392-20.524-35.574-20.524zM646.266 650.758c-5.062 0-10.196 1.29-14.894 4.002-14.274 8.242-19.164 26.494-10.924 40.766l89.534 155.070c8.24 14.274 26.492 19.166 40.766 10.922 14.274-8.242 19.164-26.494 10.924-40.766l-89.532-155.070c-5.53-9.57-15.56-14.924-25.874-14.924z" />
<glyph unicode="&#xe9a6;" glyph-name="angular" horiz-adv-x="831" d="M339.4 423.8h152.4l-76.2 183.2-76.2-183.2zM415.6 896l-415.6-148.8 63.6-551.4 352-195.8 352 195.8 63.6 551.4-415.6 148.8zM676 212.4h-97.2l-52.4 130.8h-221.2l-52.4-130.8h-97.4l260.2 584.6 260.4-584.6z" />
<glyph unicode="&#xe9a7;" glyph-name="search1" d="M992.262 88.604l-242.552 206.294c-25.074 22.566-51.89 32.926-73.552 31.926 57.256 67.068 91.842 154.078 91.842 249.176 0 212.078-171.922 384-384 384-212.076 0-384-171.922-384-384s171.922-384 384-384c95.098 0 182.108 34.586 249.176 91.844-1-21.662 9.36-48.478 31.926-73.552l206.294-242.552c35.322-39.246 93.022-42.554 128.22-7.356s31.892 92.898-7.354 128.22zM384 320c-141.384 0-256 114.616-256 256s114.616 256 256 256 256-114.616 256-256-114.614-256-256-256z" />
<glyph unicode="&#xe9a8;" glyph-name="zoom-in" d="M992.262 88.604l-242.552 206.294c-25.074 22.566-51.89 32.926-73.552 31.926 57.256 67.068 91.842 154.078 91.842 249.176 0 212.078-171.922 384-384 384-212.076 0-384-171.922-384-384s171.922-384 384-384c95.098 0 182.108 34.586 249.176 91.844-1-21.662 9.36-48.478 31.926-73.552l206.294-242.552c35.322-39.246 93.022-42.554 128.22-7.356s31.892 92.898-7.354 128.22zM384 320c-141.384 0-256 114.616-256 256s114.616 256 256 256 256-114.616 256-256-114.614-256-256-256zM448 768h-128v-128h-128v-128h128v-128h128v128h128v128h-128z" />
<glyph unicode="&#xe9a9;" glyph-name="zoom-out" d="M992.262 88.604l-242.552 206.294c-25.074 22.566-51.89 32.926-73.552 31.926 57.256 67.068 91.842 154.078 91.842 249.176 0 212.078-171.922 384-384 384-212.076 0-384-171.922-384-384s171.922-384 384-384c95.098 0 182.108 34.586 249.176 91.844-1-21.662 9.36-48.478 31.926-73.552l206.294-242.552c35.322-39.246 93.022-42.554 128.22-7.356s31.892 92.898-7.354 128.22zM384 320c-141.384 0-256 114.616-256 256s114.616 256 256 256 256-114.616 256-256-114.614-256-256-256zM192 640h384v-128h-384z" />
</font>
</defs>
</svg>
