<svg xmlns="http://www.w3.org/2000/svg" viewBox="0 0 150.34 135.95"><defs><style>.cls-1{fill:#ffd949;}.cls-2{fill:#fcc62d;}.cls-3{fill:#dda528;}.cls-4{fill:#c49214;}</style></defs><title>epayment</title><g id="Layer_2" data-name="Layer 2"><g id="Layer_1-2" data-name="Layer 1"><path class="cls-1" d="M60.59,76A18.24,18.24,0,0,1,66.4,50.87L55.63,33.64,25.55,52.43a28,28,0,0,1-8.92,38.62L27.8,108.92a28,28,0,0,1,38.61,8.92L96.49,99.05,85.73,81.82A18.24,18.24,0,0,1,60.59,76Z"/><path class="cls-2" d="M85.71,14.85,55.63,33.64,66.4,50.87A18.25,18.25,0,0,1,85.73,81.82L96.49,99.05l30.09-18.79a28,28,0,0,1,8.92-38.62L124.33,23.77A28,28,0,0,1,85.71,14.85Z"/><path class="cls-3" d="M60.59,76a18.24,18.24,0,0,0,25.14,5.81L66.4,50.87A18.24,18.24,0,0,0,60.59,76Z"/><path class="cls-4" d="M91.54,56.68A18.24,18.24,0,0,0,66.4,50.87L85.73,81.82A18.26,18.26,0,0,0,91.54,56.68Z"/><path class="cls-3" d="M27.8,108.92l14.85,23.77,23.76-14.85A28,28,0,0,0,27.8,108.92Z"/><path class="cls-3" d="M25.55,52.43,1.78,67.28,16.63,91.05A28,28,0,0,0,25.55,52.43Z"/><path class="cls-4" d="M85.71,14.85a28,28,0,0,0,38.62,8.92L109.48,0Z"/><path class="cls-4" d="M126.58,80.26l23.76-14.85L135.49,41.64A28,28,0,0,0,126.58,80.26Z"/><path class="cls-1" d="M45.25,97.39A18.25,18.25,0,0,1,63.49,79.14V58.82H28a28,28,0,0,1-28,28v21.07a28,28,0,0,1,28,28H63.49V115.63A18.24,18.24,0,0,1,45.25,97.39Z"/><path class="cls-2" d="M99,58.82H63.49V79.14a18.25,18.25,0,1,1,0,36.49V136H99a28,28,0,0,1,28-28V86.85A28,28,0,0,1,99,58.82Z"/><path class="cls-3" d="M45.25,97.39a18.24,18.24,0,0,0,18.24,18.24V79.14A18.25,18.25,0,0,0,45.25,97.39Z"/><path class="cls-4" d="M81.74,97.39A18.25,18.25,0,0,0,63.49,79.14v36.49A18.25,18.25,0,0,0,81.74,97.39Z"/><path class="cls-3" d="M0,107.92v28H28A28,28,0,0,0,0,107.92Z"/><path class="cls-3" d="M28,58.82H0v28A28,28,0,0,0,28,58.82Z"/><path class="cls-4" d="M99,58.82a28,28,0,0,0,28,28v-28Z"/><path class="cls-4" d="M99,136h28v-28A28,28,0,0,0,99,136Z"/></g></g></svg>