<svg xmlns="http://www.w3.org/2000/svg" viewBox="0 0 130.94 125.49"><defs><style>.cls-1{fill:#ffd949;}.cls-2{fill:#fcc62d;}</style></defs><title>features</title><g id="Layer_2" data-name="Layer 2"><g id="Layer_1-2" data-name="Layer 1"><path class="cls-1" d="M127.12,56.42A9.32,9.32,0,0,0,122,40.52L90.49,36a4.12,4.12,0,0,1-3.1-2.25L73.33,5.19a9.32,9.32,0,0,0-16.71,0L42.55,33.7A4.09,4.09,0,0,1,39.45,36L8,40.52a9.32,9.32,0,0,0-5.17,15.9L25.58,78.61a4.12,4.12,0,0,1,1.19,3.64L21.4,113.58a9.14,9.14,0,0,0,2,7.56,9.42,9.42,0,0,0,11.49,2.27l28.14-14.8a4.21,4.21,0,0,1,3.83,0L95,123.41a9.17,9.17,0,0,0,4.33,1.08,9.33,9.33,0,0,0,7.15-3.35,9.1,9.1,0,0,0,2-7.56l-5.37-31.33a4.12,4.12,0,0,1,1.19-3.64Z"/><path class="cls-2" d="M128.12,57.42A9.32,9.32,0,0,0,123,41.52L91.49,37a4.12,4.12,0,0,1-3.1-2.25L74.33,6.19A9.27,9.27,0,0,0,66,1a7.77,7.77,0,0,0-1,.07V109.26a4.25,4.25,0,0,1,2.89.35L96,124.41a9.17,9.17,0,0,0,4.33,1.08,9.33,9.33,0,0,0,7.15-3.35,9.1,9.1,0,0,0,2-7.56l-5.37-31.33a4.12,4.12,0,0,1,1.19-3.64Z"/></g></g></svg>