<svg xmlns="http://www.w3.org/2000/svg" viewBox="0 0 135.89 121.84"><defs><style>.cls-1{fill:#e4af18;}.cls-2{fill:#f4bf1a;}.cls-3{fill:#ffd949;}.cls-4{fill:#dca815;}.cls-5{fill:#c49214;}.cls-6{fill:#fcc62d;}</style></defs><title>revenu_icon</title><g id="Layer_2" data-name="Layer 2"><g id="Layer_1-2" data-name="Layer 1"><path class="cls-1" d="M68,105.44C34.3,105.44,7,98.5,7,91.38v16.39c0,7.11,27.28,14.07,60.92,14.07s60.9-7,60.92-14.07V91.38c0,7.12-27.28,14.06-60.92,14.06"/><path class="cls-2" d="M60.92,79.66C27.27,79.66,0,72.72,0,65.6V82c0,7.11,27.28,14.06,60.92,14.06s60.9-7,60.92-14.06V65.6c0,7.12-27.28,14.06-60.92,14.06"/><path class="cls-1" d="M75,53.89c-33.65,0-60.92-6.94-60.92-14.06V56.22c0,7.12,27.28,14.07,60.92,14.07s60.9-7,60.91-14.07V39.83c0,7.12-27.27,14.06-60.91,14.06"/><path class="cls-3" d="M121.84,12c0,7.12-27.28,13.75-60.92,13.75S0,19.14,0,12,27.27,0,60.92,0s60.92,4.9,60.92,12"/><path class="cls-2" d="M60.92,25.77C27.27,25.77,0,18.83,0,11.72V28.11c0,7.11,27.28,14.06,60.92,14.06s60.9-7,60.92-14.06V11.72c0,7.11-27.28,14.05-60.92,14.05"/><path class="cls-4" d="M9.37,18.92V35.31c1.43.52,3,1,4.69,1.51V20.43c-1.7-.48-3.26-1-4.69-1.51"/><path class="cls-4" d="M107.78,20.43V36.82c1.7-.48,3.26-1,4.68-1.51V18.92c-1.42.52-3,1-4.68,1.51"/><path class="cls-4" d="M21.09,22.13V38.52c1.5.32,3.06.61,4.68.89V23c-1.62-.28-3.18-.58-4.68-.89"/><path class="cls-4" d="M96.06,23V39.41c1.63-.28,3.19-.57,4.69-.89V22.13c-1.5.31-3.06.61-4.69.89"/><path class="cls-4" d="M32.8,24.06v16.4c1.53.19,3.09.38,4.69.54V24.6c-1.6-.16-3.16-.35-4.69-.54"/><path class="cls-4" d="M84.35,24.61V41c1.6-.16,3.16-.35,4.68-.54V24.06c-1.52.2-3.08.38-4.68.55"/><path class="cls-4" d="M44.52,25.21v16.4c1.54.1,3.1.2,4.68.28V25.49c-1.58-.08-3.14-.17-4.68-.28"/><path class="cls-4" d="M72.63,25.49v16.4c1.59-.08,3.15-.18,4.69-.28V25.21c-1.54.11-3.1.2-4.69.28"/><path class="cls-4" d="M60.92,25.77H58.58v16.4h4.68V25.76H60.92"/><path class="cls-5" d="M23.43,47V63.42c1.42.53,3,1,4.69,1.52V48.54c-1.7-.48-3.27-1-4.69-1.51"/><path class="cls-5" d="M121.84,48.54v16.4c1.7-.49,3.26-1,4.68-1.52V47q-2.13.8-4.68,1.51"/><path class="cls-5" d="M35.15,50.25V66.64c1.49.31,3.06.61,4.68.89V51.13c-1.62-.28-3.19-.57-4.68-.88"/><path class="cls-5" d="M110.12,51.13v16.4c1.62-.28,3.19-.58,4.69-.89V50.25c-1.5.31-3.07.6-4.69.88"/><path class="cls-5" d="M46.86,52.18v16.4c1.53.19,3.09.37,4.69.54V52.72c-1.6-.16-3.16-.35-4.69-.54"/><path class="cls-5" d="M98.41,52.72v16.4c1.6-.17,3.15-.35,4.68-.54V52.18c-1.53.2-3.08.38-4.68.54"/><path class="cls-5" d="M58.58,53.32v16.4c1.53.11,3.09.21,4.68.28V53.6c-1.59-.07-3.15-.17-4.68-.28"/><path class="cls-5" d="M86.69,53.6V70c1.59-.07,3.15-.17,4.69-.28V53.32c-1.54.11-3.1.21-4.69.28"/><path class="cls-5" d="M75,53.89H72.63v16.4h4.69V53.88H75"/><path class="cls-4" d="M9.37,72.81V89.2q2.15.78,4.69,1.51V74.32c-1.7-.48-3.26-1-4.69-1.51"/><path class="cls-4" d="M107.78,74.32V90.71c1.7-.48,3.26-1,4.68-1.51V72.81c-1.42.52-3,1-4.68,1.51"/><path class="cls-4" d="M21.09,76V92.41c1.5.31,3.06.61,4.68.89V76.9c-1.62-.27-3.18-.57-4.68-.88"/><path class="cls-4" d="M96.06,76.9V93.3c1.63-.28,3.19-.58,4.69-.89V76c-1.5.31-3.06.61-4.69.88"/><path class="cls-4" d="M32.8,78v16.4c1.53.19,3.09.38,4.69.54V78.5c-1.6-.17-3.16-.35-4.69-.55"/><path class="cls-4" d="M84.35,78.49v16.4c1.6-.16,3.16-.35,4.68-.54V78q-2.28.3-4.68.54"/><path class="cls-4" d="M44.52,79.1V95.5c1.54.1,3.1.2,4.68.28V79.38c-1.58-.08-3.14-.17-4.68-.28"/><path class="cls-4" d="M72.63,79.38v16.4c1.59-.08,3.15-.18,4.69-.28V79.1c-1.54.11-3.1.2-4.69.28"/><path class="cls-4" d="M60.92,79.66H58.58v16.4h4.68V79.65H60.92"/><path class="cls-5" d="M16.4,98.58V115c1.43.52,3,1,4.69,1.51V100.09c-1.7-.48-3.26-1-4.69-1.51"/><path class="cls-5" d="M114.81,100.09v16.39c1.7-.48,3.26-1,4.68-1.51V98.58c-1.42.52-3,1-4.68,1.51"/><path class="cls-5" d="M28.12,101.79v16.4c1.5.31,3.06.6,4.68.88V102.68c-1.62-.28-3.18-.58-4.68-.89"/><path class="cls-5" d="M103.09,102.68v16.39c1.63-.28,3.19-.57,4.69-.88v-16.4c-1.5.31-3.06.61-4.69.89"/><path class="cls-5" d="M39.83,103.72v16.4c1.53.2,3.09.38,4.69.54V104.27c-1.6-.17-3.16-.35-4.69-.55"/><path class="cls-5" d="M91.38,104.27v16.39q2.4-.24,4.68-.54v-16.4c-1.52.2-3.08.38-4.68.55"/><path class="cls-5" d="M51.55,104.87v16.4c1.54.11,3.1.2,4.68.28v-16.4c-1.58-.08-3.14-.17-4.68-.28"/><path class="cls-5" d="M79.66,105.15v16.4c1.59-.08,3.15-.17,4.69-.28v-16.4c-1.54.11-3.1.2-4.69.28"/><path class="cls-5" d="M68,105.44l-2.35,0v16.4l2.35,0,2.34,0v-16.4l-2.34,0"/><path class="cls-6" d="M120,85.22c-6.65,5.85-30.57,10.84-59.07,10.84-22.28,0-41.76-3-52.38-7.18A3.87,3.87,0,0,0,7,91.68C7,98.8,34.3,105.44,68,105.44s60.92-6.64,60.92-13.76c0-2.45-3.25-4.64-8.88-6.46"/><path class="cls-3" d="M75,70.29c-31,0-56.51-5.89-60.39-12.38C5.5,60,0,62.72,0,65.91,0,73,27.27,79.66,60.92,79.66S121.84,73,121.84,65.91a2.74,2.74,0,0,0-.18-.93C110.49,68.13,93.72,70.29,75,70.29"/><path class="cls-6" d="M119.48,31.75c-7.29,5.67-30.74,10.42-58.56,10.42-18,0-34.11-2-45.26-4.92a4,4,0,0,0-1.6,2.89c0,7.11,27.27,13.75,60.92,13.75s60.91-6.64,60.91-13.75c0-3.41-6.24-6.3-16.41-8.39"/></g></g></svg>