<?xml version="1.0" encoding="UTF-8"?>
<svg width="130px" height="125px" viewBox="0 0 130 125" version="1.1" xmlns="http://www.w3.org/2000/svg" xmlns:xlink="http://www.w3.org/1999/xlink">
    <!-- Generator: Sketch 52.6 (67491) - http://www.bohemiancoding.com/sketch -->
    <title>features</title>
    <desc>Created with Sketch.</desc>
    <g id="Page-1" stroke="none" stroke-width="1" fill="none" fill-rule="evenodd">
        <g id="features" fill="#FFFFFF">
            <path d="M127.12,56.42 C129.660307,53.9501636 130.580491,50.2535464 129.494498,46.8810295 C128.408505,43.5085125 125.504178,41.0434362 122,40.52 L90.49,36 C89.1496434,35.805155 87.990672,34.9639661 87.39,33.75 L73.33,5.19 C71.7589023,2.01161661 68.5204857,-6.35598111e-05 64.975,-6.35598111e-05 C61.4295143,-6.35598111e-05 58.1910977,2.01161661 56.62,5.19 L42.55,33.7 C41.9661904,34.9367353 40.8028794,35.799837 39.45,36 L8,40.52 C4.48719524,41.0278184 1.56775498,43.4868033 0.470229405,46.8621721 C-0.627296166,50.2375409 0.287633339,53.9432989 2.83,56.42 L25.58,78.61 C26.550731,79.554056 26.9956012,80.9148354 26.77,82.25 L21.4,113.58 C20.9005378,116.272364 21.6345224,119.046826 23.4,121.14 C26.2370065,124.475019 30.9978856,125.415593 34.89,123.41 L63.03,108.61 C64.2327622,107.995667 65.6572378,107.995667 66.86,108.61 L95,123.41 C96.3323768,124.121071 97.8197532,124.492056 99.33,124.49 C102.091673,124.486565 104.709925,123.259831 106.48,121.14 C108.25066,119.049526 108.985302,116.272581 108.48,113.58 L103.11,82.25 C102.884399,80.9148354 103.329269,79.554056 104.3,78.61 L127.12,56.42 Z" id="Path"></path>
        </g>
    </g>
</svg>