<?xml version="1.0" encoding="UTF-8"?>
<svg width="128px" height="128px" viewBox="0 0 128 128" version="1.1" xmlns="http://www.w3.org/2000/svg" xmlns:xlink="http://www.w3.org/1999/xlink">
    <title>star-B</title>
    <g id="star-B" stroke="none" stroke-width="1" fill="none" fill-rule="evenodd">
        <path d="M121.16875,48.5453125 L82.3002344,44.9403906 L66.8605469,9.08828125 C65.7796094,6.57789062 62.2201562,6.57789062 61.1392187,9.08828125 L45.6997656,44.940625 L6.83125,48.5453125 C4.1096875,48.7977344 3.00976563,52.1828125 5.063125,53.9865625 L34.3895313,79.7495312 L25.8071875,117.829844 C25.20625,120.496094 28.0857813,122.588125 30.4358594,121.192656 L64,101.262812 L97.5641406,121.192656 C99.9142187,122.588125 102.793984,120.496094 102.193047,117.829844 L93.6104687,79.7495312 L122.936875,53.9865625 C124.990234,52.1828125 123.890312,48.7977344 121.16875,48.5453125 Z" id="Path" fill="#FFDC64" fill-rule="nonzero"></path>
        <path d="M121.16875,48.5453125 L82.3002344,44.9403906 L66.8605469,9.08828125 C66.3143135,7.81969816 65.135163,7.1921719 63.9627631,7.20488446 C63.9312576,7.20488446 63.899757,7.20649373 63.8682736,7.20779414 C63.1246978,7.23850752 63.1686066,38.5901803 64,101.262812 L97.5641406,121.192656 C99.9142188,122.588125 102.793984,120.496094 102.193047,117.829844 L93.6104688,79.7495312 L122.936875,53.9865625 C124.990234,52.1828125 123.890313,48.7977344 121.16875,48.5453125 Z" id="Path-Copy" fill="#FFC850" fill-rule="nonzero"></path>
    </g>
</svg>