<?xml version="1.0" encoding="UTF-8"?>
<svg width="128px" height="128px" viewBox="0 0 128 128" version="1.1" xmlns="http://www.w3.org/2000/svg" xmlns:xlink="http://www.w3.org/1999/xlink">
    <title>star-A+</title>
    <g id="star-A+" stroke="none" stroke-width="1" fill="none" fill-rule="evenodd">
        <g id="Group-2" transform="translate(4.000000, 4.000000)" fill-rule="nonzero">
            <g id="Group" transform="translate(0.000000, -0.000000)">
                <path d="M117.141568,41.3304116 L78.2821978,37.7263438 L62.8460719,1.88237288 C61.7652002,-0.627457627 58.2067498,-0.627457627 57.1261687,1.88237288 L41.6900428,37.7260533 L2.83067235,41.3304116 C0.109606977,41.582615 -0.989860336,44.9670218 1.06292417,46.7705085 L30.3824399,72.5272155 L21.8020041,110.598596 C21.2011324,113.264455 24.0802607,115.355884 26.4297038,113.96092 L59.9861203,94.0356901 L93.5425368,113.96092 C95.8922704,115.356174 98.7708176,113.264455 98.1702365,110.598596 L89.5895101,72.5272155 L118.909316,46.7705085 C120.962101,44.9670218 119.862343,41.582615 117.141568,41.3304116 Z" id="Path" fill="#FFDC64"></path>
                <path d="M68.4590501,14.9167554 L62.8457813,1.88237288 C61.7649096,-0.627457627 58.2064593,-0.627457627 57.1258782,1.88237288 L41.6897523,37.7260533 L2.83067235,41.3304116 C0.109606977,41.582615 -0.989860336,44.9670218 1.06292417,46.7705085 L30.3824399,72.5272155 L21.8020041,110.598596 C21.2011324,113.264455 24.0802607,115.355884 26.4297038,113.96092 L30.895854,111.309007 C38.2175973,63.9133656 58.8012293,29.1215012 68.4590501,14.9167554 Z" id="Path" fill="#FFC850"></path>
            </g>
            <g id="Group" transform="translate(0.000000, 5.000000)" fill="#FFF082">
                <path d="M26.0987324,3.62929118 C27.6967012,5.84882243 32.2070137,15.3808537 34.7856074,20.9360099 C35.1910762,21.8092912 34.095373,22.5981974 33.3957637,21.9365568 C28.9456855,17.7290568 21.3367012,10.4278068 19.7387324,8.20804118 C18.4742793,6.45186931 18.8729512,4.00311931 20.6293574,2.73866618 C22.3855293,1.47421306 24.8342793,1.87311931 26.0987324,3.62929118 Z" id="Path"></path>
                <path d="M94.7744131,1.62929118 C93.1764443,3.84882243 88.6661318,13.3808537 86.0875381,18.9360099 C85.6820693,19.8092912 86.7777724,20.5981974 87.4773818,19.9365568 C91.9274599,15.7290568 99.5362099,8.42757243 101.134413,6.20804118 C102.398866,4.45186931 102.000194,2.00311931 100.243788,0.738666184 C98.4876162,-0.525786941 96.0388662,-0.126880691 94.7744131,1.62929118 Z" id="Path"></path>
                <path d="M114.112967,71.0255748 C111.512811,70.177606 101.060858,68.7767467 94.9851547,68.0079967 C94.0300765,67.8870592 93.6114828,69.170731 94.4540609,69.6361998 C99.8149203,72.5975279 109.082811,77.6281529 111.682967,78.4761217 C113.740311,79.1471373 115.952108,78.0233092 116.623123,75.965731 C117.294139,73.9081529 116.170311,71.6965904 114.112967,71.0255748 Z" id="Path"></path>
                <path d="M2.70434681,74.0255748 C5.30450306,73.177606 15.7564562,71.7767467 21.8321593,71.0079967 C22.7872374,70.8870592 23.2058312,72.170731 22.3632531,72.6361998 C17.0023937,75.5975279 7.73450306,80.6281529 5.13434681,81.4761217 C3.07700306,82.1471373 0.865206189,81.0233092 0.194190564,78.965731 C-0.476825061,76.9081529 0.647003064,74.6965904 2.70434681,74.0255748 Z" id="Path"></path>
                <path d="M56,111.829883 C56,109.094961 57.9089844,98.7238672 59.0621094,92.7091016 C59.2432813,91.7636328 60.5935156,91.7636328 60.7746875,92.7091016 C61.9278125,98.7238672 63.8367969,109.094961 63.8367969,111.829883 C63.8367969,113.993867 62.0825,115.748164 59.9185156,115.748164 C57.7542969,115.748164 56,113.993867 56,111.829883 Z" id="Path"></path>
            </g>
        </g>
    </g>
</svg>