<?xml version="1.0" encoding="UTF-8"?>
<svg width="128px" height="128px" viewBox="0 0 128 128" version="1.1" xmlns="http://www.w3.org/2000/svg" xmlns:xlink="http://www.w3.org/1999/xlink">
    <title>star-A+</title>
    <g id="star-A+" stroke="none" stroke-width="1" fill="none" fill-rule="evenodd">
        <g id="Group-2" transform="translate(4.000000, 7.000000)" fill-rule="nonzero">
            <g id="Group">
                <path d="M117.141568,41.3304116 L78.2821978,37.7263438 L62.8460719,1.88237288 C61.7652002,-0.627457627 58.2067498,-0.627457627 57.1261687,1.88237288 L41.6900428,37.7260533 L2.83067235,41.3304116 C0.109606977,41.582615 -0.989860336,44.9670218 1.06292417,46.7705085 L30.3824399,72.5272155 L21.8020041,110.598596 C21.2011324,113.264455 24.0802607,115.355884 26.4297038,113.96092 L59.9861203,94.0356901 L93.5425368,113.96092 C95.8922704,115.356174 98.7708176,113.264455 98.1702365,110.598596 L89.5895101,72.5272155 L118.909316,46.7705085 C120.962101,44.9670218 119.862343,41.582615 117.141568,41.3304116 Z" id="Path" fill="#FFDC64"></path>
                <path d="M68.4590501,14.9167554 L62.8457813,1.88237288 C61.7649096,-0.627457627 58.2064593,-0.627457627 57.1258782,1.88237288 L41.6897523,37.7260533 L2.83067235,41.3304116 C0.109606977,41.582615 -0.989860336,44.9670218 1.06292417,46.7705085 L30.3824399,72.5272155 L21.8020041,110.598596 C21.2011324,113.264455 24.0802607,115.355884 26.4297038,113.96092 L30.895854,111.309007 C38.2175973,63.9133656 58.8012293,29.1215012 68.4590501,14.9167554 Z" id="Path" fill="#FFC850"></path>
            </g>
            <g id="Group" transform="translate(0.000000, 7.000000)">
                <path d="M18.0987324,1.62929118 C19.6967012,3.84882243 24.2070137,13.3808537 26.7856074,18.9360099 C27.1910762,19.8092912 26.095373,20.5981974 25.3957637,19.9365568 C20.9456855,15.7290568 13.3367012,8.42780681 11.7387324,6.20804118 C10.4742793,4.45186931 10.8729512,2.00311931 12.6293574,0.738666184 C14.3855293,-0.525786941 16.8342793,-0.126880691 18.0987324,1.62929118 Z" id="Path" fill="#44D7B6"></path>
                <path d="M99.7744131,1.62929118 C98.1764443,3.84882243 93.6661318,13.3808537 91.0875381,18.9360099 C90.6820693,19.8092912 91.7777724,20.5981974 92.4773818,19.9365568 C96.9274599,15.7290568 104.53621,8.42757243 106.134413,6.20804118 C107.398866,4.45186931 107.000194,2.00311931 105.243788,0.738666184 C103.487616,-0.525786941 101.038866,-0.126880691 99.7744131,1.62929118 Z" id="Path" fill="#FA6400"></path>
                <path d="M119.112967,72.0255748 C116.512811,71.177606 106.060858,69.7767467 99.9851547,69.0079967 C99.0300765,68.8870592 98.6114828,70.170731 99.4540609,70.6361998 C104.81492,73.5975279 114.082811,78.6281529 116.682967,79.4761217 C118.740311,80.1471373 120.952108,79.0233092 121.623123,76.965731 C122.294139,74.9081529 121.170311,72.6965904 119.112967,72.0255748 Z" id="Path" fill="#32C5FF"></path>
                <path d="M2.70434681,72.0255748 C5.30450306,71.177606 15.7564562,69.7767467 21.8321593,69.0079967 C22.7872374,68.8870592 23.2058312,70.170731 22.3632531,70.6361998 C17.0023937,73.5975279 7.73450306,78.6281529 5.13434681,79.4761217 C3.07700306,80.1471373 0.865206189,79.0233092 0.194190564,76.965731 C-0.476825061,74.9081529 0.647003064,72.6965904 2.70434681,72.0255748 Z" id="Path" fill="#B620E0"></path>
                <path d="M56,108.829883 C56,106.094961 57.9089844,95.7238672 59.0621094,89.7091016 C59.2432813,88.7636328 60.5935156,88.7636328 60.7746875,89.7091016 C61.9278125,95.7238672 63.8367969,106.094961 63.8367969,108.829883 C63.8367969,110.993867 62.0825,112.748164 59.9185156,112.748164 C57.7542969,112.748164 56,110.993867 56,108.829883 Z" id="Path" fill="#6DD400"></path>
            </g>
        </g>
    </g>
</svg>