<?xml version="1.0" encoding="UTF-8"?>
<svg width="298px" height="298px" viewBox="0 0 298 298" version="1.1" xmlns="http://www.w3.org/2000/svg" xmlns:xlink="http://www.w3.org/1999/xlink">
    <title>check</title>
    <defs>
        <linearGradient x1="50%" y1="-8.60871582%" x2="50%" y2="97.6019775%" id="linearGradient-1">
            <stop stop-color="#EEEEEE" offset="0%"></stop>
            <stop stop-color="#FFFFFF" offset="100%"></stop>
        </linearGradient>
        <circle id="path-2" cx="125" cy="125" r="125"></circle>
        <filter x="-17.2%" y="-22.8%" width="134.4%" height="134.4%" filterUnits="objectBoundingBox" id="filter-4">
            <feOffset dx="0" dy="-14" in="SourceAlpha" result="shadowOffsetOuter1"></feOffset>
            <feGaussianBlur stdDeviation="12" in="shadowOffsetOuter1" result="shadowBlurOuter1"></feGaussianBlur>
            <feColorMatrix values="0 0 0 0 0   0 0 0 0 0   0 0 0 0 0  0 0 0 0.138740166 0" type="matrix" in="shadowBlurOuter1"></feColorMatrix>
        </filter>
    </defs>
    <g id="Page-1" stroke="none" stroke-width="1" fill="none" fill-rule="evenodd">
        <g id="Donate-check-list" transform="translate(-59, -74)">
            <g id="Group-6" transform="translate(37, 112)">
                <g id="check" transform="translate(46, 0)">
                    <mask id="mask-3" fill="white">
                        <use xlink:href="#path-2"></use>
                    </mask>
                    <g id="Mask">
                        <use fill="black" fill-opacity="1" filter="url(#filter-4)" xlink:href="#path-2"></use>
                        <use fill="url(#linearGradient-1)" fill-rule="evenodd" xlink:href="#path-2"></use>
                    </g>
                    <g mask="url(#mask-3)">
                        <g transform="translate(4, 15)">
                            <g id="Background_Complete">
                                <g id="Group" transform="translate(0, 123.0812)" fill-rule="nonzero">
                                    <g>
                                        <path d="M2.18929096,88.9439854 L2.18929096,102.918827 L5.40654849,102.918827 C5.40654849,102.918827 5.10093681,100.137237 5.40654849,98.4872358 C5.71216018,96.8372345 9.20724651,92.5895962 9.10167157,88.9439854 L2.18929096,88.9439854 Z" id="Path" fill="#EBEBEB"></path>
                                        <path d="M27.9273512,88.9439854 L27.9273512,102.918827 L31.1446087,102.918827 C31.1446087,102.918827 30.8389971,100.137237 31.1446087,98.4872358 C31.4502204,96.8372345 34.9453068,92.5895962 34.8397318,88.9439854 L27.9273512,88.9439854 Z" id="Path" fill="#E0E0E0"></path>
                                        <path d="M53.1153104,88.9439854 L53.1153104,102.918827 L49.8980529,102.918827 C49.8980529,102.918827 50.2036646,100.137237 49.8980529,98.4872358 C49.5924412,96.8372345 46.0973549,92.5895962 46.2029298,88.9439854 L53.1153104,88.9439854 L53.1153104,88.9439854 Z" id="Path" fill="#EBEBEB"></path>
                                        <path d="M75.3916238,88.9439854 L75.3916238,102.918827 L72.1743663,102.918827 C72.1743663,102.918827 72.479978,100.137237 72.1743663,98.4872358 C71.8687546,96.8372345 68.3736683,92.5895962 68.4792432,88.9439854 L75.3916238,88.9439854 Z" id="Path" fill="#E0E0E0"></path>
                                        <rect id="Rectangle" fill="#F5F5F5" x="0" y="19.956096" width="77.0808229" height="69.43941"></rect>
                                        <polygon id="Path" fill="#E0E0E0" points="56.3158982 19.956096 56.8882256 89.395506 77.0808229 89.395506 77.0808229 19.956096"></polygon>
                                        <rect id="Rectangle" fill="#EBEBEB" x="3.46730345" y="25.0621809" width="49.4868663" height="17.6706213"></rect>
                                        <rect id="Rectangle" fill="#EBEBEB" x="3.46730345" y="46.2557778" width="49.4868663" height="17.6706213"></rect>
                                        <rect id="Rectangle" fill="#EBEBEB" x="3.46730345" y="67.4493747" width="49.4868663" height="17.6706213"></rect>
                                        <g transform="translate(20.3037, 0)" id="Path">
                                            <polygon fill="#E0E0E0" points="2.1337252 0 0 19.8724811 27.3494673 19.8724811 29.6165503 0"></polygon>
                                            <polygon fill="#FFFFFF" points="3.26171014 1.43260242 1.1835507 18.818933 25.8658615 18.818933 27.8606723 1.43260242"></polygon>
                                            <polygon fill="#EBEBEB" points="7.41247245 4.35355055 6.13445996 15.8924105 21.7095426 15.8924105 22.5096896 4.35355055"></polygon>
                                        </g>
                                        <polyline id="Path" fill="#EBEBEB" points="48.9423218 8.56216856 54.5933597 19.956096 47.6531962 19.8724811 48.9423218 8.56216856"></polyline>
                                    </g>
                                    <path d="M30.0221804,34.8228301 C30.0221804,35.8262092 29.2109203,36.6400612 28.2107366,36.6400612 C27.2105529,36.6400612 26.3992928,35.8262092 26.3992928,34.8228301 C26.3992928,33.819451 27.2105529,33.005599 28.2107366,33.005599 C29.2109203,33.005599 30.0221804,33.819451 30.0221804,34.8228301 Z" id="Path" fill="#E0E0E0"></path>
                                    <path d="M30.0221804,56.2226772 C30.0221804,57.2260563 29.2109203,58.0399082 28.2107366,58.0399082 C27.2105529,58.0399082 26.3992928,57.2260563 26.3992928,56.2226772 C26.3992928,55.219298 27.2105529,54.4054461 28.2107366,54.4054461 C29.2109203,54.4054461 30.0221804,55.219298 30.0221804,56.2226772 Z" id="Path" fill="#E0E0E0"></path>
                                    <path d="M30.0221804,77.6280986 C30.0221804,78.6314777 29.2109203,79.4453297 28.2107366,79.4453297 C27.2105529,79.4453297 26.3992928,78.6314777 26.3992928,77.6280986 C26.3992928,76.6247194 27.2105529,75.8108675 28.2107366,75.8108675 C29.2109203,75.8108675 30.0221804,76.6247194 30.0221804,77.6280986 Z" id="Path" fill="#E0E0E0"></path>
                                </g>
                                <g id="Group" transform="translate(9.1739, 29.7279)" fill-rule="nonzero">
                                    <polygon id="Path" fill="#E0E0E0" points="43.7024706 0.429223294 0 0 1.22244673 57.1424414 44.9193608 57.3040969"></polygon>
                                    <polygon id="Path" fill="#FAFAFA" points="40.8852866 2.97669141 2.62826047 1.97888661 3.7340191 53.8034186 41.979932 54.2716622"></polygon>
                                    <polygon id="Path" fill="#EBEBEB" points="34.3563097 10.7194337 8.97387032 10.2957847 9.74623439 46.5177713 35.1064475 45.9714871"></polygon>
                                    <polygon id="Path" fill="#F5F5F5" points="9.74623439 46.5177713 34.7119306 27.3643786 8.97387032 10.2957847"></polygon>
                                </g>
                                <g id="Group" transform="translate(202.5983, 0)" fill-rule="nonzero">
                                    <polygon id="Path" fill="#E0E0E0" points="38.3403747 0.373480009 0 0 1.0668626 50.1243618 39.4016807 50.2692943"></polygon>
                                    <polygon id="Path" fill="#FAFAFA" points="35.8676984 2.60878573 2.30042248 1.73361616 3.27282329 47.1978393 36.8234295 47.6103396"></polygon>
                                    <polygon id="Path" fill="#EBEBEB" points="30.1333119 9.40389216 7.86811168 9.03041215 8.54601396 40.8040846 30.7945445 40.3246923"></polygon>
                                    <polygon id="Path" fill="#F5F5F5" points="8.54601396 40.8040846 30.4500367 24.0030585 7.86811168 9.03041215"></polygon>
                                </g>
                                <g id="Group" transform="translate(197.983, 176.5111)" fill-rule="nonzero">
                                    <path d="M0.00334314959,12.3304146 C-0.157797556,12.8209555 5.5599192,34.6277286 5.5599192,34.6277286 L9.48286189,33.8083023 L4.08742654,12.3304146 L0.00334314959,12.3304146 Z" id="Path" fill="#EBEBEB"></path>
                                    <polygon id="Path" fill="#F5F5F5" points="30.4033707 9.214365 22.5574853 34.6277286 27.136104 34.6277286 34.6541514 11.0148731"></polygon>
                                    <polygon id="Path" fill="#EBEBEB" points="37.5935801 5.27888908 28.6030401 34.6277286 33.1816587 34.6277286 41.8443608 7.07939718"></polygon>
                                    <polygon id="Path" fill="#E0E0E0" points="2.78163117 32.8216462 7.36024984 48.7252053 30.4033707 48.7252053 34.6541514 32.8216462"></polygon>
                                    <path d="M14.6727039,32.8216462 C14.6727039,32.8216462 14.6504776,32.7659029 14.6226947,32.6599906 C14.5893553,32.5373554 14.5504592,32.3756999 14.5004501,32.175024 C14.3948751,31.7290778 14.2448476,31.0991786 14.055924,30.2964753 C13.6780768,28.6408998 13.1390889,26.2773845 12.4722998,23.350862 C11.1553913,17.4476482 9.33283433,9.29240559 7.2991275,0.189527169 L7.4380419,0.301013738 C6.79347908,0.301013738 6.09890707,0.301013738 5.40433507,0.301013738 C4.72087621,0.301013738 4.03741736,0.301013738 3.40396769,0.301013738 L3.54288209,0.122635227 C5.58770208,9.23666231 7.42137217,17.3974792 8.74383727,23.3006931 C9.38840009,26.2327899 9.91071824,28.6074538 10.2774523,30.2630294 C10.4497061,31.071307 10.5830639,31.7012061 10.6775257,32.1527267 C10.7164218,32.3589769 10.7497612,32.5206324 10.7719875,32.6432676 C10.7942138,32.7547542 10.7997704,32.8104975 10.7942138,32.8104975 C10.7942138,32.8104975 10.7719875,32.7547542 10.7442046,32.648842 C10.7108652,32.5262067 10.6719692,32.3645512 10.62196,32.1638754 C10.516385,31.7179291 10.3608009,31.08803 10.1718773,30.2853267 C9.78847357,28.6297511 9.23281596,26.2662358 8.55491369,23.3397134 C7.20466571,17.4364995 5.34321273,9.28125694 3.26505329,0.178378512 L3.22615726,0 L3.40952427,0 C4.04297394,0 4.72643279,0 5.40989164,0 C6.10446365,0 6.79903566,0 7.44359848,0 L7.56028657,0 C7.56028657,0 7.58251288,0.11148657 7.58251288,0.11148657 C9.58288025,9.22551365 11.3720977,17.3863306 12.66678,23.2895444 C13.2946731,26.2216412 13.8058781,28.5963052 14.1614989,30.2518807 C14.3281962,31.0601584 14.461554,31.6900575 14.5504592,32.1415781 C14.5893553,32.3478282 14.6226947,32.5094838 14.644921,32.632119 C14.6671473,32.7436056 14.6727039,32.7993488 14.6671473,32.7993488 L14.6727039,32.8216462 Z" id="Path" fill="#E0E0E0"></path>
                                </g>
                            </g>
                            <g id="Floor" transform="translate(0, 225)">
                                <path d="M236,0.5 C236,0.64 183.167252,0.76 118.008347,0.76 C52.8494423,0.76 0,0.64 0,0.5 C0,0.36 52.8216181,0.24 118.008347,0.24 C183.195077,0.24 236,0.36 236,0.5 Z" id="Path" fill="#263238" fill-rule="nonzero"></path>
                            </g>
                            <g id="Plants" transform="translate(182, 72)">
                                <g id="Group" transform="translate(1.5632, 0)" fill="#263238" fill-rule="nonzero">
                                    <path d="M37.052752,0.207187097 C37.052752,0.207187097 36.9249474,0.145754143 36.6582247,0.0843211895 C36.391502,0.0228882357 35.9747478,-0.0162054621 35.4524158,0.101075631 C34.9300838,0.218356725 34.3132876,0.503182238 33.7020481,1.0058155 C33.0796951,1.50286394 32.5017959,2.22888976 31.9238967,3.08895111 C30.7847685,4.8425827 29.8901361,7.26639197 28.8454722,10.0923078 C27.8174785,12.9238085 26.6672368,16.1965095 25.7114805,19.9383349 L25.7114805,19.9495045 C25.7114805,19.9495045 25.7059237,19.9550893 25.7059237,19.9550893 C25.539222,20.2566693 25.3280666,20.5303252 25.0557872,20.7593025 C24.7890645,20.9771103 24.4223207,21.1558243 24.0444636,21.0832217 C23.6721631,21.0217888 23.3721001,20.776057 23.1164908,20.5414948 C22.8553249,20.3013478 22.6108291,20.0444463 22.3663332,19.7819601 C21.8773416,19.2625724 21.38835,18.7320151 20.827121,18.2740603 C20.2714487,17.83286 19.6046419,17.4028293 18.8822679,17.4754319 C18.1765641,17.5647889 17.5042007,18.0450829 17.0985599,18.6705821 C16.6929191,19.3128357 16.5206607,20.1002945 16.4817636,20.8877533 C16.3872993,22.4850101 16.8485073,24.0990213 17.1263435,25.7688807 C17.43752,27.4387401 17.7542532,29.1476931 18.0765431,30.9013247 C18.2376881,31.7781405 18.4043898,32.6605411 18.5655347,33.5541114 C18.6488856,34.0008965 18.7322364,34.4532664 18.8155873,34.9000515 C18.9156083,35.3300822 18.9711755,35.8885636 18.6544423,36.3297639 C18.4988541,36.5643261 18.1654507,36.6536831 17.9153982,36.5810805 C17.6597889,36.5196476 17.4486334,36.3744424 17.2597048,36.2348221 C16.8874044,35.9555814 16.5095472,35.6707559 16.1316901,35.3859303 C15.3759758,34.8218641 14.6035913,34.2745524 13.7756396,33.7942584 C12.9532446,33.3195492 12.080839,32.8839337 11.1417529,32.69405 C10.6749881,32.5991082 10.1915532,32.5823537 9.74145868,32.7052196 C9.29136412,32.8225007 8.88572335,33.0961566 8.60233048,33.475924 C8.02443129,34.2410435 7.86884305,35.2742341 7.85217288,36.268331 C7.83550271,37.2735975 7.96330734,38.2844488 8.14112247,39.2953001 C8.51342291,41.3170028 9.11910571,43.321951 9.83592297,45.3157296 C10.0026247,45.8183629 10.2471205,46.2930721 10.3193579,46.8683079 C10.3526982,47.1475486 10.3193579,47.4826374 10.1137591,47.7283692 C10.0637486,47.7898022 10.0137381,47.8456503 9.95261416,47.8903288 C9.88037676,47.9405922 9.86370659,47.9796859 9.73590196,48.0187796 C9.51363304,48.0690429 9.38027169,47.9741011 9.25246706,47.9126681 C8.75791872,47.6222578 8.37450484,47.2480752 7.96886406,46.8850623 C7.57433673,46.5164646 7.17425268,46.1478669 6.77972535,45.7736844 C5.98511397,45.0364889 5.16827569,44.3048783 4.2514164,43.7296424 C3.79576512,43.4448169 3.3067735,43.1935003 2.79555499,43.0650496 C2.28433648,42.9198444 1.7342209,42.9645229 1.31190996,43.2493484 C0.884042292,43.5397588 0.600649421,44.0200528 0.472844793,44.5450253 C0.333926719,45.0699978 0.278359489,45.6228944 0.272802766,46.1813758 C0.267246043,47.2927538 0.422834286,48.4153014 0.689556988,49.5155097 C1.19521878,51.7270961 2.073181,53.8660798 3.10117475,55.932461 C4.1291685,58.004427 5.36276099,60.0037904 6.6963745,61.936136 C7.32984092,62.9302329 8.1244523,63.8126335 8.86349646,64.7452974 C9.61365406,65.6667917 10.3638117,66.5938709 11.119526,67.52095 L11.1473096,67.5544589 L11.0139482,67.5041955 C12.1975302,67.3310663 13.3755555,67.1579371 14.548024,66.9903927 C15.7149359,66.800509 16.9040746,66.6999823 18.0320893,66.3872327 C20.3159025,65.8622602 22.5663753,65.208837 24.7168271,64.3711149 C26.8617221,63.5333928 28.9454932,62.5448807 30.8014387,61.2492039 C31.7349681,60.6125351 32.6073737,59.8920941 33.3464178,59.0599568 C33.7187182,58.6466806 34.0410082,58.1998955 34.2966174,57.7140166 C34.5522267,57.2393074 34.6633611,56.6919957 34.5411132,56.1893624 C34.4133086,55.692314 34.0410082,55.2846226 33.5686867,55.0444756 C33.101922,54.7931589 32.5740333,54.6479538 32.0405879,54.5530119 C30.9736971,54.3575434 29.8845794,54.3519586 28.8010184,54.3575434 C28.2564596,54.3575434 27.7174574,54.3687131 27.1784553,54.3742979 C26.6338965,54.3631282 26.1004511,54.3854675 25.539222,54.2681864 C25.4058607,54.2290927 25.239159,54.2067535 25.1113544,54.0224546 C25.039117,53.9051735 25.0557872,53.8660798 25.039117,53.7823076 C25.0280035,53.709705 25.0224468,53.6315176 25.0280035,53.5533302 C25.0446737,53.2349958 25.239159,52.9613399 25.4503145,52.7770411 C25.8892956,52.4028585 26.3949574,52.2129749 26.8506087,51.9560734 C28.7121109,50.9619765 30.5069324,49.8896923 32.1350522,48.6442787 C32.9463338,48.0187796 33.7187182,47.3541867 34.3744116,46.6002368 C35.0245481,45.8574566 35.6024473,44.9862256 35.6857982,44.0256376 C35.730252,43.5509284 35.608004,43.0762192 35.3523948,42.6852822 C35.0967855,42.2887604 34.7300418,41.9760108 34.3188443,41.730279 C33.4964493,41.2388154 32.5573631,40.9707443 31.6293904,40.769691 C30.695861,40.5686377 29.7567748,40.4513566 28.8232453,40.3564148 C28.3509239,40.3117363 27.8841591,40.2670578 27.4229511,40.2223793 C27.1895688,40.1944552 26.9339595,40.1609463 26.7061339,40.0324956 C26.4727515,39.9152145 26.2893796,39.6136345 26.3338334,39.3399786 C26.4005141,38.8038365 26.8117116,38.429654 27.1784553,38.1783373 C27.545199,37.8990966 27.906386,37.6254408 28.267573,37.3462001 C28.989947,36.7988883 29.7012075,36.2515765 30.4069114,35.7154344 C31.818319,34.6375653 33.1963863,33.5876202 34.5411132,32.5600145 C35.86917,31.5100694 37.2861344,30.6276688 38.2807878,29.3822553 C38.7808929,28.7735106 39.1809769,28.0754089 39.3087815,27.3270438 C39.4254727,26.5898483 39.2476576,25.7800503 38.7864496,25.2383234 C38.5530672,24.9646675 38.2196638,24.8027079 37.875147,24.6910116 C37.5306302,24.5737305 37.1694432,24.5402216 36.8082562,24.5122975 C36.0858822,24.4787886 35.3635082,24.5346368 34.6578044,24.5904849 C34.3021742,24.618409 33.9521006,24.6407483 33.5964703,24.6463331 C33.2519535,24.6463331 32.8629829,24.6239938 32.5462497,24.4173557 C32.218403,24.2163024 32.0683715,23.836535 32.018361,23.4958614 C31.9739072,23.1440181 32.0016908,22.7977596 32.079485,22.4626708 L32.079485,22.4515012 C32.079485,22.4515012 32.0850417,22.4403315 32.0850417,22.4403315 C33.8798632,19.033595 35.2134767,15.8390814 36.3470482,13.0522592 C37.4639495,10.2598523 38.4197059,7.86396706 38.7642227,5.8031707 C38.9198109,4.78114975 38.9920483,3.85407063 38.8753571,3.06661185 C38.7697794,2.27915308 38.5252836,1.6480691 38.2307773,1.20128399 C37.936271,0.754498867 37.6028676,0.49201261 37.3694852,0.357977074 C37.1361029,0.218356725 36.9971848,0.179263027 36.9971848,0.179263027 C36.9971848,0.179263027 37.1361029,0.207187097 37.3805987,0.341222633 C37.6195378,0.469673354 37.9640546,0.726574797 38.2696743,1.17894473 C38.5808508,1.62572985 38.8309034,2.26798346 38.9475945,3.06102704 C39.0753992,3.85407063 39.0087185,4.79231937 38.858687,5.82550996 C38.5252836,7.90306076 37.5806407,10.3101156 36.4748528,13.1081074 C35.3523948,15.9060992 34.0298947,19.1006128 32.2406299,22.5296886 L32.2406299,22.5073493 C32.179506,22.8145141 32.1517224,23.1496029 32.1961762,23.4679373 C32.2461867,23.7806869 32.379548,24.0990213 32.6518274,24.2665657 C32.9185501,24.439695 33.2575102,24.467619 33.6020271,24.4620342 C33.9465439,24.4620342 34.2966174,24.4285253 34.646691,24.4006013 C35.3523948,24.3447531 36.0803255,24.2833202 36.8193697,24.316829 C37.1916701,24.3447531 37.5695273,24.378262 37.936271,24.5011279 C38.297458,24.6128242 38.6697584,24.7915382 38.9364811,25.098703 C39.4588131,25.7130325 39.6310715,26.5563394 39.5143803,27.3549678 C39.3810189,28.1591811 38.9642647,28.8852069 38.4474895,29.5162909 C37.4194957,30.8007981 35.9914179,31.6943683 34.6744746,32.7443133 C33.3297476,33.7719191 31.9572371,34.827449 30.5458294,35.905318 C29.8401256,36.447045 29.1288651,36.988772 28.4120478,37.5416685 C28.0508608,37.8153244 27.6896738,38.0945651 27.3284868,38.3738058 C27.1395583,38.519011 26.9672998,38.6418769 26.8339385,38.8094213 C26.7061339,38.9769657 26.5949994,39.1724342 26.5783292,39.3679027 C26.5561024,39.5633712 26.6561234,39.7253308 26.8283818,39.8258575 C27.0061969,39.9263841 27.2229091,39.959893 27.4562915,39.9878171 C27.9174995,40.0324956 28.3842642,40.0771741 28.8565857,40.1218526 C29.7956718,40.2112096 30.7458715,40.3340755 31.6960711,40.5351288 C32.640714,40.741767 33.5964703,41.009838 34.4633191,41.5236409 C34.8911868,41.7805424 35.2968276,42.1156312 35.5802204,42.5568315 C35.86917,42.992447 36.0025314,43.5341739 35.9525209,44.0591465 C35.8580566,45.1202611 35.2468171,46.0194162 34.5800103,46.7845357 C33.9020901,47.5608248 33.1241489,48.2365873 32.3017539,48.8676713 C30.6569639,50.1242544 28.8565857,51.2077084 26.98397,52.2073901 C26.522762,52.4698763 26.0115435,52.6653448 25.6392431,52.9948488 C25.4558712,53.1568084 25.3169531,53.3578617 25.3058397,53.5812543 C25.3058397,53.6371024 25.3058397,53.6929506 25.3113964,53.7543835 C25.3169531,53.799062 25.3336233,53.9051735 25.3502935,53.8940039 C25.3669636,53.9330976 25.4947683,53.9889457 25.6114594,54.011285 C26.1004511,54.1173964 26.6505666,54.1062268 27.184012,54.1118116 C27.7230142,54.1062268 28.2620163,54.100642 28.8065751,54.0950572 C29.8901361,54.0894724 30.995924,54.0950572 32.0961551,54.2905257 C32.6462707,54.3910523 33.1963863,54.5418423 33.7076048,54.8099134 C34.2188233,55.0668148 34.6744746,55.5359392 34.8245061,56.1335143 C34.9689809,56.7199197 34.8245061,57.3454189 34.5577834,57.853637 C34.2910607,58.3674399 33.9521006,58.8365642 33.5686867,59.2610101 C32.8074157,60.1154866 31.9238967,60.8526821 30.9736971,61.4949357 C29.0955247,62.807367 26.9950835,63.8070487 24.8335182,64.6503556 C22.6663963,65.4936625 20.4103668,66.1470857 18.1098835,66.6776431 C16.9651985,66.9903927 15.7816165,67.0965041 14.609148,67.2863878 C13.4366795,67.459517 12.2530975,67.6326463 11.0695155,67.8057755 L10.9861646,67.8169451 L10.9361541,67.7555122 L10.9083705,67.7220033 C10.1526562,66.7893394 9.39694186,65.8622602 8.64678426,64.9407659 C7.90774011,64.008102 7.11312873,63.1257014 6.47410559,62.1204349 C5.12382191,60.1713348 3.89578613,58.1663866 2.85667894,56.0776661 C1.82312847,53.9889457 0.934052798,51.8387923 0.422834286,49.5936971 C0.156111584,48.4767343 -0.0105901044,47.3374323 0.000523341547,46.1869606 C0.000523341547,45.6173096 0.0616472941,45.0420737 0.211678814,44.4780075 C0.350596888,43.9195261 0.667330096,43.3610447 1.16743516,43.0259559 C1.67309695,42.6852822 2.32879026,42.6461885 2.87890583,42.8025633 C3.44013485,42.9477685 3.94579664,43.2102547 4.41811809,43.5062499 C5.36276099,44.103825 6.18515599,44.8466052 6.9853241,45.5838007 C7.38540815,45.9523984 7.77993548,46.3265809 8.17446281,46.6951787 C8.57454686,47.0526068 8.96907419,47.4323741 9.40249858,47.6836907 C9.5025196,47.7451237 9.63588095,47.7898022 9.67477801,47.7674629 C9.68033473,47.7842174 9.76368558,47.7171996 9.79702591,47.6892755 C9.8414797,47.6501818 9.88593348,47.6110881 9.91927382,47.5664096 C10.0637486,47.3932804 10.097089,47.1531334 10.0693053,46.9074016 C10.0137381,46.415938 9.7692423,45.9244743 9.60254061,45.4162563 C8.88572335,43.411308 8.28004055,41.3951902 7.90218339,39.3511483 C7.71881153,38.3291273 7.5910069,37.3015215 7.60767707,36.2739158 C7.62990396,35.2574796 7.77993548,34.1796105 8.4134019,33.3307188 C8.72457838,32.9118578 9.18578639,32.5991082 9.69144818,32.4706575 C10.19711,32.3366219 10.7194419,32.3589612 11.2084335,32.4594878 C12.1919735,32.6661259 13.0810492,33.1073262 13.9201143,33.5932051 C14.7536228,34.0846687 15.5371207,34.6375653 16.2983918,35.2072163 C16.6762489,35.4920418 17.0485494,35.7712825 17.4208498,36.056108 C17.6042217,36.1957284 17.7931502,36.3130095 17.9931923,36.3632728 C18.1876776,36.4079513 18.3766062,36.3632728 18.4877406,36.2013132 C18.6044318,36.0505232 18.659999,35.8271307 18.6766692,35.6149077 C18.6933394,35.4026848 18.6488856,35.1904619 18.6044318,34.9558997 C18.521081,34.5035297 18.4377301,34.0567446 18.3543793,33.6099595 C18.1876776,32.7163893 18.0265326,31.8339887 17.8653876,30.9571729 C17.5430977,29.2091261 17.2319212,27.500173 16.9263015,25.8303136 C16.654022,24.1660391 16.192814,22.5352734 16.2872783,20.8933381 C16.3261754,20.08354 16.5039905,19.2625724 16.9429716,18.5756403 C17.3930662,17.9054626 18.0820998,17.3972445 18.8822679,17.2911331 C19.282352,17.2408697 19.6768793,17.3581508 20.0213962,17.5201104 C20.3714697,17.6764852 20.6770895,17.9110474 20.9715958,18.1400248 C21.5439382,18.614734 22.0384866,19.1508761 22.5274782,19.6702638 C22.771974,19.9271653 23.0109131,20.1840667 23.2609656,20.4242137 C23.5165749,20.6587759 23.7832976,20.8709988 24.0944741,20.9212621 C24.4056506,20.9826951 24.7168271,20.8374899 24.9668796,20.6364366 C25.2113754,20.4297985 25.4169741,20.1617274 25.5725624,19.8880716 L25.5725624,19.9104108 C26.5338755,16.1574158 27.7007873,12.8902996 28.7398945,10.058799 C29.7956718,7.2384679 30.7125311,4.80907382 31.8683295,3.04985741 C32.4573421,2.18421125 33.0463548,1.45818543 33.6798212,0.961136984 C34.3077309,0.46408854 34.9356406,0.173678213 35.469086,0.0675667476 C36.0025314,-0.044129532 36.4248423,0 36.691565,0.0731515615 C36.9582877,0.140169329 37.0805356,0.218356725 37.0805356,0.218356725 L37.052752,0.207187097 Z" id="Path"></path>
                                    <path d="M34.1410292,7.80811892 C34.1410292,7.80811892 34.124359,7.86955188 34.085462,7.99241778 C34.0354514,8.12645332 33.9743275,8.29958255 33.8965334,8.5173903 C33.7131615,8.99209949 33.4575523,9.66786198 33.1352623,10.5279233 C32.4628989,12.2871397 31.4960291,14.800306 30.3068903,17.9054626 C27.9397264,24.1548694 24.67793,32.7666526 21.0771735,42.2775908 C17.4875305,51.8052834 14.2035072,60.4114818 11.7641058,66.6217949 C10.5471835,69.7269515 9.5525301,72.234533 8.85238301,73.9658253 C8.50230946,74.814717 8.23003004,75.4848947 8.04110146,75.9540191 C7.95219389,76.166242 7.87995649,76.3393713 7.82438926,76.467822 C7.77437876,76.5851031 7.74659514,76.6409512 7.74103842,76.6409512 C7.74103842,76.6409512 7.75770859,76.5795183 7.79660565,76.4566523 C7.84661616,76.3226168 7.90774011,76.1494876 7.98553423,75.9316798 C8.16890609,75.4569706 8.42451534,74.7812082 8.74680528,73.9267316 C9.41916875,72.1675152 10.3860385,69.6543489 11.5751773,66.5491924 C13.9423412,60.2997855 17.2041376,51.6880024 20.8048941,42.1770641 C24.3945371,32.6549563 27.6785604,24.0431732 30.112405,17.83286 C31.3293274,14.7277034 32.3239808,12.220122 33.0241279,10.4888296 C33.3742014,9.63993791 33.6464808,8.96976023 33.8354094,8.50063586 C33.924317,8.28841292 33.9965544,8.11528369 34.0521216,7.98683297 C34.1021321,7.86955188 34.1299157,7.81370374 34.1354725,7.81370374 L34.1410292,7.80811892 Z" id="Path"></path>
                                    <path d="M34.4355355,27.081312 C34.4522057,27.1204057 33.9187603,27.4219856 33.0463548,27.9134492 C32.0961551,28.4440066 30.9292433,29.0974298 29.6400836,29.8178708 C28.3120268,30.5606511 27.1006612,31.2252439 26.2060288,31.6720291 C25.3113964,32.124399 24.7390539,32.3589612 24.7223838,32.3198675 C24.7057136,32.2807738 25.2447157,31.9847786 26.1115645,31.4877302 C27.0617641,30.9460032 28.2231192,30.2869952 29.5011655,29.5609694 C30.834779,28.8181891 32.0517014,28.1703507 32.9518905,27.7291504 C33.8520796,27.2879501 34.4188653,27.0478031 34.4355355,27.081312 Z" id="Path"></path>
                                    <path d="M24.2722892,31.9791938 C24.2000518,32.0127027 22.8775518,29.482782 21.3216693,26.3161924 C19.7657869,23.1551877 18.559978,20.563834 18.6322154,20.5247404 C18.7044528,20.4912315 20.0269529,23.0211522 21.5828353,26.1877417 C23.1387177,29.3487464 24.3445266,31.9401001 24.2722892,31.9791938 Z" id="Path"></path>
                                    <path d="M19.4157134,46.8571383 C19.4157134,46.8571383 18.9156083,46.4606165 18.1932343,45.7401755 C17.4708603,45.0141496 16.5039905,43.9809591 15.4982237,42.7858089 C14.4924568,41.5906587 13.6367215,40.4625263 13.0477088,39.6248042 C12.4586962,38.7870821 12.1197361,38.2509399 12.1530764,38.2286007 C12.1864168,38.2062614 12.5809441,38.697725 13.2144105,39.5019383 C13.8478769,40.3061515 14.7202825,41.4063598 15.7260493,42.5959252 C16.7262594,43.7854906 17.6653456,44.8354356 18.3488225,45.5949703 C19.0322995,46.354505 19.4546104,46.8236294 19.4212701,46.8571383 L19.4157134,46.8571383 Z" id="Path"></path>
                                    <path d="M29.5789596,44.4556683 C29.5900731,44.4947619 29.0288441,44.6567216 28.1119848,44.8856989 C27.2006822,45.1146763 25.9337494,45.4162563 24.5334552,45.723421 C23.133161,46.0361706 21.8606715,46.3042417 20.9326987,46.4829557 C20.004726,46.6616698 19.4323835,46.7510268 19.4212701,46.7119331 C19.4101566,46.6728394 19.9713856,46.5108798 20.8882449,46.2819024 C21.7995475,46.052925 23.0664803,45.7513451 24.4723312,45.4385955 C25.8726254,45.1258459 27.145115,44.8577749 28.0730877,44.6790608 C29.0010605,44.5003468 29.5734029,44.4109897 29.5845164,44.4500834 L29.5789596,44.4556683 Z" id="Path"></path>
                                    <path d="M26.9506615,58.1384625 C26.9561864,58.1775562 26.2338124,58.3674399 25.0613439,58.6466806 C23.8888753,58.9259213 22.2607555,59.2833494 20.4603773,59.6687015 C18.659999,60.0540537 17.0263225,60.3835577 15.8427405,60.6069503 C14.6591585,60.8303428 13.9201143,60.9532087 13.9089688,60.914115 C13.9034442,60.8750213 14.6202614,60.6851377 15.7982867,60.405897 C16.9707553,60.1266563 18.5988751,59.7692282 20.3992533,59.383876 C22.1996316,58.9985239 23.8333081,58.6690198 25.0168901,58.4456273 C26.2004721,58.2222347 26.9395162,58.0993688 26.9506615,58.1384625 Z" id="Path"></path>
                                    <path d="M14.2035072,60.7521554 C14.2035072,60.7521554 14.0423623,60.6292895 13.786753,60.3723881 C13.5311437,60.1154866 13.1699567,59.7301345 12.7365324,59.2554253 C11.8641269,58.2948373 10.6916583,56.9433123 9.45806581,55.390734 C8.22447332,53.8437405 7.16313923,52.3916889 6.42409508,51.3305743 C6.05179464,50.8000169 5.76284505,50.3588166 5.56835974,50.0516519 C5.37387444,49.7444871 5.27385343,49.5713579 5.2905236,49.5601882 C5.30719376,49.5490186 5.44055512,49.6998086 5.66282403,49.9902189 C5.92399001,50.3308926 6.22960978,50.738584 6.59079677,51.2132932 C7.3742947,52.2464838 8.45229896,53.6706113 9.68589145,55.2176048 C10.9139272,56.7645983 12.0641689,58.1328777 12.8921206,59.1269746 C13.725629,60.1210715 14.2368476,60.735401 14.2090639,60.7633251 L14.2035072,60.7521554 Z" id="Path"></path>
                                </g>
                                <g id="Group" transform="translate(0, 30.3591)">
                                    <path d="M10.2044372,67.8057606 C0.557966131,59.9926059 -0.842328054,46.6225612 0.369037551,34.7771708 C0.569079577,32.8001466 0.496842179,30.6946718 1.55261954,29.0192276 C2.6083969,27.3437834 4.88109659,26.305008 6.58701054,27.265596 C8.00397489,28.0586396 8.52630685,29.817856 9.24868084,31.286662 C10.2099939,33.2469317 11.7269793,34.9167911 13.5718113,36.0449235 C14.7831769,36.7877038 16.3112757,37.2959219 17.5948787,36.692762 C19.3619166,35.8662095 19.7231036,33.5205876 19.8453515,31.5435635 C20.0731772,27.8687559 20.3010028,24.1939483 20.5288284,20.5191407 C20.6510763,18.5477013 20.7844377,16.5315835 21.5179251,14.7053493 C22.2569693,12.8791152 23.7239441,11.231595 25.6243434,10.8350732 C27.5247426,10.4385515 29.7585453,11.6783802 30.0197112,13.633065 C30.1308457,14.4484479 29.9085768,15.2694155 29.9085768,16.0903832 C29.9085768,16.9113509 30.22531,17.8440148 30.9810243,18.1232555 C31.7478521,18.408081 32.5702471,17.9054477 33.1981568,17.3693056 C35.359722,15.5207322 36.904491,13.0466596 38.3659091,10.5893414 C39.8273273,8.13202328 41.2498483,5.60210255 43.2335984,3.55806063 C45.2173485,1.51401871 47.8790188,-0.0329747593 50.6962774,0 C53.5190926,0.0340430084 56.3919184,1.98314309 56.9086936,4.80347415 C57.4310256,7.62939002 55.6250906,10.3380248 53.7135779,12.4658389 C50.8796492,15.6212588 47.6011827,18.3634025 44.0004262,20.569404 C43.3502896,20.9659258 42.6501425,21.3959565 42.3611929,22.1108127 C41.8444177,23.3953199 42.9946593,24.7859386 44.2560355,25.3053263 C45.6841133,25.8973165 47.2788927,25.852638 48.7958781,26.1374635 C50.3128635,26.4222891 51.9243131,27.2153326 52.4021913,28.706478 C53.0689981,30.778444 51.2463929,32.7722226 49.5015819,34.0399753 C46.0119599,36.5810657 42.0889135,38.5078265 37.9602684,39.7141463 C36.48218,40.144177 34.9318543,40.5071899 33.6982618,41.4454387 C32.4646693,42.3836874 31.6422743,44.1093949 32.2479572,45.5446921 C32.8591967,46.9855741 34.6317913,47.5496403 36.1598901,47.3765111 C37.6879889,47.1977971 39.0993966,46.4661864 40.5774849,46.0194013 C43.3447329,45.1816792 46.812128,45.6117099 48.3791239,48.069028 C49.4071176,49.6886241 49.3626639,51.8331927 48.6625168,53.6315028 C47.9623697,55.4242281 46.6898801,56.926543 45.3562666,58.3004072 C40.6886193,63.0977625 34.8762871,66.8172486 28.4749423,68.5652953 C22.0735974,70.3133421 16.2390383,70.5032258 10.1822103,67.7890062" id="Path" fill="#E8505B" fill-rule="nonzero"></path>
                                    <g opacity="0.1" id="Path">
                                        <path d="M10.2044372,67.8057606 C0.557966131,59.9926059 -0.842328054,46.6225612 0.369037551,34.7771708 C0.569079577,32.8001466 0.496842179,30.6946718 1.55261954,29.0192276 C2.6083969,27.3437834 4.88109659,26.305008 6.58701054,27.265596 C8.00397489,28.0586396 8.52630685,29.817856 9.24868084,31.286662 C10.2099939,33.2469317 11.7269793,34.9167911 13.5718113,36.0449235 C14.7831769,36.7877038 16.3112757,37.2959219 17.5948787,36.692762 C19.3619166,35.8662095 19.7231036,33.5205876 19.8453515,31.5435635 C20.0731772,27.8687559 20.3010028,24.1939483 20.5288284,20.5191407 C20.6510763,18.5477013 20.7844377,16.5315835 21.5179251,14.7053493 C22.2569693,12.8791152 23.7239441,11.231595 25.6243434,10.8350732 C27.5247426,10.4385515 29.7585453,11.6783802 30.0197112,13.633065 C30.1308457,14.4484479 29.9085768,15.2694155 29.9085768,16.0903832 C29.9085768,16.9113509 30.22531,17.8440148 30.9810243,18.1232555 C31.7478521,18.408081 32.5702471,17.9054477 33.1981568,17.3693056 C35.359722,15.5207322 36.904491,13.0466596 38.3659091,10.5893414 C39.8273273,8.13202328 41.2498483,5.60210255 43.2335984,3.55806063 C45.2173485,1.51401871 47.8790188,-0.0329747593 50.6962774,0 C53.5190926,0.0340430084 56.3919184,1.98314309 56.9086936,4.80347415 C57.4310256,7.62939002 55.6250906,10.3380248 53.7135779,12.4658389 C50.8796492,15.6212588 47.6011827,18.3634025 44.0004262,20.569404 C43.3502896,20.9659258 42.6501425,21.3959565 42.3611929,22.1108127 C41.8444177,23.3953199 42.9946593,24.7859386 44.2560355,25.3053263 C45.6841133,25.8973165 47.2788927,25.852638 48.7958781,26.1374635 C50.3128635,26.4222891 51.9243131,27.2153326 52.4021913,28.706478 C53.0689981,30.778444 51.2463929,32.7722226 49.5015819,34.0399753 C46.0119599,36.5810657 42.0889135,38.5078265 37.9602684,39.7141463 C36.48218,40.144177 34.9318543,40.5071899 33.6982618,41.4454387 C32.4646693,42.3836874 31.6422743,44.1093949 32.2479572,45.5446921 C32.8591967,46.9855741 34.6317913,47.5496403 36.1598901,47.3765111 C37.6879889,47.1977971 39.0993966,46.4661864 40.5774849,46.0194013 C43.3447329,45.1816792 46.812128,45.6117099 48.3791239,48.069028 C49.4071176,49.6886241 49.3626639,51.8331927 48.6625168,53.6315028 C47.9623697,55.4242281 46.6898801,56.926543 45.3562666,58.3004072 C40.6886193,63.0977625 34.8762871,66.8172486 28.4749423,68.5652953 C22.0735974,70.3133421 16.2390383,70.5032258 10.1822103,67.7890062"></path>
                                    </g>
                                    <path d="M9.44872286,76.5962578 C10.1988805,71.9217685 11.6047314,66.4374812 13.7607399,60.5734265 C15.9111917,54.703787 18.7951309,48.459965 22.0347004,42.0374289 C22.8515386,40.4345873 23.6572635,38.854085 24.4518748,37.2903371 C25.2464862,35.732174 26.0410976,34.1907653 26.9023897,32.727544 C28.6194171,29.7955167 30.4975894,27.1092212 32.3535349,24.6183941 C34.2094804,22.1219823 36.0654258,19.8210389 37.8157936,17.6820552 C39.571718,15.5486562 41.2442916,13.5883865 42.8446278,11.8682638 C46.0341868,8.41684879 48.9347962,5.9427762 50.9907837,4.32318014 C52.0187774,3.51338212 52.8356157,2.91022221 53.3968447,2.5081156 C53.6635674,2.31823193 53.8747229,2.16744195 54.0358679,2.05574567 C54.1803427,1.95521902 54.2581368,1.90495569 54.2581368,1.91012094 C54.2581368,1.91012094 54.1914561,1.97197346 54.052538,2.08366974 C53.8969498,2.20095083 53.6969078,2.36291044 53.4357418,2.56396374 C52.8911829,2.98282479 52.0854581,3.60832395 51.0741345,4.43487642 C49.0459306,6.08239655 46.1842183,8.5788084 43.0279997,12.0469779 C41.4443336,13.7726854 39.7884302,15.7385399 38.0436192,17.8775237 C36.3043649,20.0220922 34.4650896,22.3286204 32.6147009,24.8194474 C30.7698688,27.3102745 28.9083667,29.9909852 27.2024527,32.9118429 C26.3411606,34.3638945 25.5632194,35.8997184 24.7630513,37.4578815 C23.9684399,39.0160446 23.1627151,40.6021318 22.3458768,42.2049734 C19.1063074,48.6219246 16.2223681,54.8434074 14.0608029,60.6907076 C11.893681,66.5324231 10.4656032,71.9887863 9.68766195,76.6409364" id="Path" fill="#263238" fill-rule="nonzero"></path>
                                    <path d="M27.0135241,32.7219592 C27.0135241,32.7219592 26.9412867,32.4203793 26.8801628,31.8674827 C26.8134821,31.3145861 26.7468014,30.5159577 26.674564,29.5218608 C26.5300892,27.5392519 26.4245115,24.7971082 26.3244905,21.770139 C26.2189127,18.7431698 26.0744379,16.006611 25.9021795,14.0351717 C25.8188287,13.0466596 25.7410346,12.2480312 25.6854673,11.7007194 C25.6299001,11.1478228 25.6076732,10.8406581 25.6354568,10.8350732 C25.6576837,10.8350732 25.7243644,11.1310684 25.8243854,11.6783802 C25.9244064,12.2256919 26.0410976,13.0187355 26.1577888,14.0072476 C26.3967279,15.9842717 26.5800997,18.7264154 26.6856775,21.7533846 C26.7801418,24.7412601 26.8690493,27.4387252 26.93573,29.5051064 C26.9690703,30.4377703 27.0024107,31.2252291 27.0246376,31.8507282 C27.0413077,32.4036248 27.0413077,32.7163744 27.0190808,32.7163744 L27.0135241,32.7219592 Z" id="Path" fill="#263238" fill-rule="nonzero"></path>
                                    <path d="M52.5522228,29.7229141 C52.5522228,29.7229141 52.1910358,29.7675926 51.5408993,29.7731774 C50.8907627,29.7843471 49.9461198,29.8011015 48.7847647,29.8569497 C46.4564978,29.9463067 43.2502686,30.1864537 39.7161928,30.6053147 C36.1876737,31.0297606 33.0092282,31.5547331 30.7198583,31.9959334 C29.5751734,32.2081563 28.6527574,32.4092096 28.0137343,32.5432452 C27.3747111,32.6772807 27.0190808,32.7442985 27.0134579,32.7163744 C27.0079674,32.6940352 27.3524842,32.5823389 27.9803939,32.4036248 C28.6083036,32.2304956 29.5251629,31.9903486 30.6698478,31.7446168 C32.953661,31.2363987 36.1321065,30.6667477 39.6772957,30.2423018 C43.2169283,29.8234408 46.4398276,29.6223875 48.7792079,29.6000482 C49.9461198,29.577709 50.8907627,29.6000482 51.546456,29.6335571 C52.1965926,29.667066 52.5577796,29.7005749 52.5577796,29.7229141 L52.5522228,29.7229141 Z" id="Path" fill="#263238" fill-rule="nonzero"></path>
                                    <path d="M14.1052567,60.1266414 C14.1052567,60.1266414 14.0441327,60.02053 13.9552252,59.808307 C13.8552042,59.5514056 13.7329563,59.238656 13.5884815,58.8588886 C13.2717483,58.037921 12.8438806,56.8316012 12.3382188,55.3404558 C11.3213385,52.3525804 10.0432922,48.1807243 8.69300854,43.5620832 C7.34272486,38.9378572 6.10913236,34.7604163 5.15337602,31.7557864 C4.68661129,30.2925651 4.29764068,29.0918301 4.01424781,28.1982599 C3.89199991,27.8129077 3.79197889,27.4889885 3.70862805,27.2265023 C3.64194737,27.0031097 3.61416376,26.8858286 3.6252772,26.8802438 C3.63639065,26.8802438 3.68640116,26.9863553 3.77530872,27.204163 C3.87532974,27.4610645 3.99757764,27.773814 4.14205244,28.1479966 C4.45878565,28.9689642 4.88665331,30.1752841 5.3923151,31.6664294 C6.4091954,34.6543049 7.68724168,38.8261609 9.03752536,43.4503869 C10.387809,48.0746129 11.6214015,52.2464689 12.5771579,55.2510988 C13.0439226,56.7087353 13.4328932,57.9150551 13.7162861,58.8030405 C13.838534,59.1883927 13.938555,59.5123119 14.0219059,59.7747981 C14.0885865,59.9981907 14.1163701,60.1154718 14.1052567,60.1210566 L14.1052567,60.1266414 Z" id="Path" fill="#263238" fill-rule="nonzero"></path>
                                    <path d="M48.356897,51.581876 C48.356897,51.581876 48.2402058,51.6321394 48.0123802,51.6991571 C47.7456575,51.7717597 47.4178108,51.8555319 47.0177268,51.9616434 C46.1008675,52.1906208 44.8561615,52.5033703 43.3502896,52.8831377 C40.2551949,53.6594268 35.9876317,54.7875593 31.2755306,56.0385576 C26.5634296,57.2895559 22.2847529,58.3730098 19.1674313,59.087866 C17.6115489,59.4452941 16.3501728,59.7245348 15.4722105,59.897664 C15.0665698,59.9758514 14.7331664,60.0372844 14.460887,60.0931325 C14.2275046,60.1322262 14.1052567,60.1489807 14.1052567,60.137811 C14.1052567,60.1266414 14.2219479,60.0875477 14.4497735,60.02053 C14.7164962,59.9535122 15.0443429,59.8641552 15.4444269,59.7580437 C16.3612862,59.5290663 17.6004354,59.2163167 19.1118641,58.8365494 C22.2069588,58.0602602 26.474522,56.9321278 31.1866231,55.6811295 C35.8987241,54.4301312 40.1774008,53.3466773 43.2891657,52.6318211 C44.8450481,52.274393 46.1064242,51.9951523 46.9843864,51.822023 C47.3900272,51.7438356 47.7234306,51.6824027 47.99571,51.6265545 C48.2290924,51.5874608 48.3513403,51.5707064 48.3513403,51.581876 L48.356897,51.581876 Z" id="Path" fill="#263238" fill-rule="nonzero"></path>
                                </g>
                            </g>
                            <g id="Group" transform="translate(59, 3)">
                                <rect id="Rectangle" fill="#455A64" fill-rule="nonzero" x="0" y="14.6359429" width="134" height="184.364057"></rect>
                                <polygon id="Path" fill="#E0E0E0" fill-rule="nonzero" points="128.706528 188.036913 103.885778 188.036913 11.1616016 188.036913 11.1616016 22.0870693 128.706528 22.0870693 128.706528 167.392355"></polygon>
                                <polygon id="Path" fill="#EBEBEB" fill-rule="nonzero" points="126.844419 184.957706 102.250216 184.957706 10.3603975 184.957706 10.3603975 19.8900134 126.844419 19.8900134 126.844419 164.424111"></polygon>
                                <g transform="translate(8.0507, 20.1674)" fill-rule="nonzero" id="Path">
                                    <polygon fill="#FAFAFA" points="106.278339 151.940839 92.862315 162.915022 0.138138633 162.915022 0.138138633 0.144251143 117.683065 0.144251143 117.683065 142.664381"></polygon>
                                    <path d="M106.278339,151.940839 C106.278339,151.940839 106.515937,151.735558 106.99666,151.341642 C107.477382,150.947725 108.195703,150.359624 109.146097,149.577339 C111.057936,148.018317 113.898066,145.693655 117.655437,142.625544 L117.63886,142.658832 C117.622284,119.245762 117.594656,67.2265808 117.555977,0.138703022 L117.68859,0.271857923 C82.6842604,0.271857923 43.0274215,0.282954165 1.17141561,0.288502286 L0.143664179,0.288502286 L0.287328358,0.144251143 C0.276277267,61.3400245 0.265226176,117.792155 0.259700631,162.915022 L0.143664179,162.798511 C42.4693415,162.826252 74.9871758,162.853992 92.8678405,162.865089 L92.8346872,162.876185 C97.310379,159.231069 100.669911,156.495846 102.907756,154.670514 C104.029442,153.760622 104.869325,153.078203 105.432931,152.623257 C105.996536,152.168312 106.278339,151.946387 106.278339,151.946387 C106.278339,151.946387 106.002062,152.179408 105.449507,152.639902 C104.891427,153.100396 104.051544,153.788363 102.94091,154.709351 C100.703064,156.545779 97.3545833,159.292099 92.8954682,162.953859 L92.8844171,162.964955 L92.8678405,162.964955 C74.9871758,162.976051 42.4693415,163.003792 0.143664179,163.031532 L0.0276277267,163.031532 C0.0276277267,163.031532 0.0276277267,162.915022 0.0276277267,162.915022 C0.0221021814,117.792155 0.0110510907,61.3400245 0,0.144251143 L0,0 L1.17141561,0 C43.0274215,0 82.6842604,0.0110962418 117.68859,0.0110962418 L117.821203,0.0110962418 L117.821203,0.144251143 C117.782524,67.2321289 117.749371,119.25131 117.73832,142.664381 L117.73832,142.686573 L117.721743,142.697669 C113.958847,145.749136 111.10214,148.062702 109.184776,149.616176 C108.228857,150.387365 107.50501,150.969917 107.018762,151.363834 C106.532514,151.752203 106.28939,151.946387 106.28939,151.946387 L106.278339,151.940839 Z" fill="#263238"></path>
                                </g>
                                <path d="M51.1002433,8.93247463 L83.2312894,8.93247463 C87.5467403,8.93247463 91.0499361,12.4499833 91.0499361,16.7830657 L91.0499361,25.4880674 L42.9445384,25.4880674 L42.9445384,17.1159529 C42.9445384,12.5997825 46.5969238,8.92692651 51.1002433,8.92692651 L51.1002433,8.93247463 Z" id="Path" fill="#E8505B" fill-rule="nonzero"></path>
                                <polygon id="Path" fill="#E8505B" fill-rule="nonzero" points="54.7305266 8.93247463 52.9734032 0 80.6729619 0 79.1313348 8.93247463"></polygon>
                                <g transform="translate(20.4832, 46.2436)" fill-rule="nonzero">
                                    <path d="M19.8035545,19.8844653 L0,19.8844653 L0,0 L19.8035545,0 L19.8035545,19.8844653 Z M0.552554534,19.3296532 L19.251,19.3296532 L19.251,0.554812089 L0.552554534,0.554812089 L0.552554534,19.3296532 Z" id="Shape" fill="#E8505B"></path>
                                    <path d="M89.7790607,4.79912457 C89.7790607,4.87679826 75.992825,4.94337571 58.9962476,4.94337571 C41.9996701,4.94337571 28.207909,4.87679826 28.207909,4.79912457 C28.207909,4.72145088 41.988619,4.65487342 58.9962476,4.65487342 C76.0038761,4.65487342 89.7790607,4.72145088 89.7790607,4.79912457 Z" id="Path" fill="#263238"></path>
                                    <path d="M89.7790607,8.93247463 C89.7790607,9.01014832 75.992825,9.07672577 58.9962476,9.07672577 C41.9996701,9.07672577 28.207909,9.01014832 28.207909,8.93247463 C28.207909,8.85480094 41.988619,8.78822349 58.9962476,8.78822349 C76.0038761,8.78822349 89.7790607,8.85480094 89.7790607,8.93247463 Z" id="Path" fill="#263238"></path>
                                    <path d="M89.7790607,13.0658247 C89.7790607,13.1434984 75.992825,13.2100758 58.9962476,13.2100758 C41.9996701,13.2100758 28.207909,13.1434984 28.207909,13.0658247 C28.207909,12.988151 41.988619,12.9215735 58.9962476,12.9215735 C76.0038761,12.9215735 89.7790607,12.988151 89.7790607,13.0658247 Z" id="Path" fill="#263238"></path>
                                    <path d="M89.7790607,17.1936266 C89.7790607,17.2713003 75.992825,17.3378778 58.9962476,17.3378778 C41.9996701,17.3378778 28.207909,17.2713003 28.207909,17.1936266 C28.207909,17.1159529 41.988619,17.0493755 58.9962476,17.0493755 C76.0038761,17.0493755 89.7790607,17.1159529 89.7790607,17.1936266 Z" id="Path" fill="#263238"></path>
                                </g>
                                <g transform="translate(20.4832, 76.8859)" fill-rule="nonzero">
                                    <path d="M19.8035545,19.8844653 L0,19.8844653 L0,0 L19.8035545,0 L19.8035545,19.8844653 Z M0.552554534,19.3296532 L19.251,19.3296532 L19.251,0.554812089 L0.552554534,0.554812089 L0.552554534,19.3296532 Z" id="Shape" fill="#E8505B"></path>
                                    <polygon id="Path" fill="#E8505B" points="3.93418828 10.3527936 6.56434786 7.5177038 10.9461053 11.0352124 20.9749701 1.25942344 23.3785823 4.10006134 10.7527112 16.6110739"></polygon>
                                    <path d="M89.7790607,4.80467269 C89.7790607,4.88234638 75.992825,4.94892383 58.9962476,4.94892383 C41.9996701,4.94892383 28.207909,4.88234638 28.207909,4.80467269 C28.207909,4.726999 41.988619,4.66042155 58.9962476,4.66042155 C76.0038761,4.66042155 89.7790607,4.726999 89.7790607,4.80467269 Z" id="Path" fill="#263238"></path>
                                    <path d="M89.7790607,8.93247463 C89.7790607,9.01014832 75.992825,9.07672577 58.9962476,9.07672577 C41.9996701,9.07672577 28.207909,9.01014832 28.207909,8.93247463 C28.207909,8.85480094 41.988619,8.78822349 58.9962476,8.78822349 C76.0038761,8.78822349 89.7790607,8.85480094 89.7790607,8.93247463 Z" id="Path" fill="#263238"></path>
                                    <path d="M89.7790607,13.0658247 C89.7790607,13.1434984 75.992825,13.2100758 58.9962476,13.2100758 C41.9996701,13.2100758 28.207909,13.1434984 28.207909,13.0658247 C28.207909,12.988151 41.988619,12.9215735 58.9962476,12.9215735 C76.0038761,12.9215735 89.7790607,12.988151 89.7790607,13.0658247 Z" id="Path" fill="#263238"></path>
                                    <path d="M89.7790607,17.1991748 C89.7790607,17.2768484 75.992825,17.3434259 58.9962476,17.3434259 C41.9996701,17.3434259 28.207909,17.2768484 28.207909,17.1991748 C28.207909,17.1215011 41.988619,17.0549236 58.9962476,17.0549236 C76.0038761,17.0549236 89.7790607,17.1215011 89.7790607,17.1991748 Z" id="Path" fill="#263238"></path>
                                </g>
                                <g transform="translate(20.4832, 106.5406)" fill-rule="nonzero">
                                    <path d="M19.8035545,19.8844653 L0,19.8844653 L0,0 L19.8035545,0 L19.8035545,19.8844653 Z M0.552554534,19.3296532 L19.251,19.3296532 L19.251,0.554812089 L0.552554534,0.554812089 L0.552554534,19.3296532 Z" id="Shape" fill="#E8505B"></path>
                                    <polygon id="Path" fill="#E8505B" points="3.93418828 10.3527936 6.56434786 7.5177038 10.9461053 11.0352124 20.9749701 1.25942344 23.3785823 4.10006134 10.7527112 16.6055258"></polygon>
                                    <path d="M89.7790607,4.79912457 C89.7790607,4.87679826 75.992825,4.94337571 58.9962476,4.94337571 C41.9996701,4.94337571 28.207909,4.87679826 28.207909,4.79912457 C28.207909,4.72145088 41.988619,4.65487342 58.9962476,4.65487342 C76.0038761,4.65487342 89.7790607,4.72145088 89.7790607,4.79912457 Z" id="Path" fill="#263238"></path>
                                    <path d="M89.7790607,8.93247463 C89.7790607,9.01014832 75.992825,9.07672577 58.9962476,9.07672577 C41.9996701,9.07672577 28.207909,9.01014832 28.207909,8.93247463 C28.207909,8.85480094 41.988619,8.78822349 58.9962476,8.78822349 C76.0038761,8.78822349 89.7790607,8.85480094 89.7790607,8.93247463 Z" id="Path" fill="#263238"></path>
                                    <path d="M89.7790607,13.0658247 C89.7790607,13.1434984 75.992825,13.2100758 58.9962476,13.2100758 C41.9996701,13.2100758 28.207909,13.1434984 28.207909,13.0658247 C28.207909,12.988151 41.988619,12.9215735 58.9962476,12.9215735 C76.0038761,12.9215735 89.7790607,12.988151 89.7790607,13.0658247 Z" id="Path" fill="#263238"></path>
                                    <path d="M89.7790607,17.1991748 C89.7790607,17.2768484 75.992825,17.3434259 58.9962476,17.3434259 C41.9996701,17.3434259 28.207909,17.2768484 28.207909,17.1991748 C28.207909,17.1215011 41.988619,17.0549236 58.9962476,17.0549236 C76.0038761,17.0549236 89.7790607,17.1215011 89.7790607,17.1991748 Z" id="Path" fill="#263238"></path>
                                </g>
                                <g transform="translate(20.4832, 135.1689)" fill-rule="nonzero">
                                    <path d="M19.8035545,19.8844653 L0,19.8844653 L0,0 L19.8035545,0 L19.8035545,19.8844653 Z M0.552554534,19.3296532 L19.251,19.3296532 L19.251,0.554812089 L0.552554534,0.554812089 L0.552554534,19.3296532 Z" id="Shape" fill="#E8505B"></path>
                                    <polygon id="Path" fill="#E8505B" points="3.93418828 10.3527936 6.56434786 7.5177038 10.9461053 11.0407606 20.9749701 1.25942344 23.3785823 4.10560946 10.7527112 16.6110739"></polygon>
                                    <path d="M89.7790607,4.80467269 C89.7790607,4.88234638 75.992825,4.94892383 58.9962476,4.94892383 C41.9996701,4.94892383 28.207909,4.88234638 28.207909,4.80467269 C28.207909,4.726999 41.988619,4.66042155 58.9962476,4.66042155 C76.0038761,4.66042155 89.7790607,4.726999 89.7790607,4.80467269 Z" id="Path" fill="#263238"></path>
                                    <path d="M89.7790607,8.93802275 C89.7790607,9.01569644 75.992825,9.08227389 58.9962476,9.08227389 C41.9996701,9.08227389 28.207909,9.01569644 28.207909,8.93802275 C28.207909,8.86034906 41.988619,8.79377161 58.9962476,8.79377161 C76.0038761,8.79377161 89.7790607,8.86034906 89.7790607,8.93802275 Z" id="Path" fill="#263238"></path>
                                    <path d="M89.7790607,13.0658247 C89.7790607,13.1434984 75.992825,13.2100758 58.9962476,13.2100758 C41.9996701,13.2100758 28.207909,13.1434984 28.207909,13.0658247 C28.207909,12.988151 41.988619,12.9215735 58.9962476,12.9215735 C76.0038761,12.9215735 89.7790607,12.988151 89.7790607,13.0658247 Z" id="Path" fill="#263238"></path>
                                    <path d="M89.7790607,17.1991748 C89.7790607,17.2768484 75.992825,17.3434259 58.9962476,17.3434259 C41.9996701,17.3434259 28.207909,17.2768484 28.207909,17.1991748 C28.207909,17.1215011 41.988619,17.0549236 58.9962476,17.0549236 C76.0038761,17.0549236 89.7790607,17.1215011 89.7790607,17.1991748 Z" id="Path" fill="#263238"></path>
                                </g>
                                <polygon id="Path" fill="#E0E0E0" fill-rule="nonzero" points="104.598573 156.12967 91.7130015 182.927094 100.913035 182.927094"></polygon>
                                <g transform="translate(100.902, 156.1075)" fill-rule="nonzero" id="Path">
                                    <polygon fill="#FAFAFA" points="0.0110510907 26.9749638 3.69658983 0.177539868 24.8318008 6.72432252"></polygon>
                                    <path d="M0.0110510907,26.9749638 C0.530452352,26.5477584 2.81250258,24.6613973 7.1169024,21.0995037 C11.5318131,17.4710327 17.6927962,12.4055983 24.7378665,6.6133601 L24.7875964,6.85747742 C22.1684879,6.04745177 19.433343,5.19858927 16.6263659,4.33308241 C12.0512144,2.91276347 7.66393138,1.54792573 3.65238547,0.305146649 L3.82920292,0.194184231 C2.72409385,7.97819784 1.7792256,14.6470391 1.10510907,19.3851344 C0.436518082,23.9956228 0.0939342708,26.3702186 0.00552554534,26.9749638 C0.00552554534,26.9749638 0.00552554534,26.9361269 0.016576636,26.8584532 C0.0276277267,26.7641352 0.0442043627,26.6420765 0.0607809987,26.4867291 C0.104985361,26.1371975 0.171291905,25.654511 0.24864954,25.0275733 C0.419941446,23.7237649 0.663065441,21.8540482 0.97249598,19.5016449 C1.60793369,14.7247128 2.50307204,8.00593844 3.54740011,0.160895506 L3.56950229,0 L3.72421756,0.049933088 C7.73576347,1.29271217 12.1230465,2.64645366 16.698198,4.06122449 C19.4996495,4.93227947 22.2347944,5.78114196 24.8539029,6.59116761 L25.108078,6.66884131 L24.9036328,6.83528493 C17.7756794,12.6108788 11.5373387,17.6596688 7.06717249,21.2825917 C4.8624799,23.0635385 3.08877984,24.4894056 1.85658323,25.4825192 C1.25982434,25.9596576 0.795678529,26.3369299 0.469671354,26.6032397 C0.32048163,26.7197502 0.204445178,26.8140683 0.116036452,26.8861938 C0.0386788174,26.9472232 0,26.9805119 0,26.9749638 L0.0110510907,26.9749638 Z" fill="#263238"></path>
                                </g>
                                <g opacity="0.3" transform="translate(77.2305, 0)" id="Path">
                                    <polyline points="1.52505051 0 0 8.93247463 1.9007876 8.93247463 3.44241475 0 1.01670034 0"></polyline>
                                </g>
                            </g>
                            <g id="Group" transform="translate(30, 56)">
                                <g transform="translate(13.5628, 4.4708)" fill-rule="nonzero" id="Path">
                                    <path d="M12.7850131,37.1662809 L12.7850131,37.1662809 C15.6060137,37.3832275 18.0390574,35.2026359 18.1499022,32.3656417 C18.2552048,29.6399021 18.3438807,26.8863489 18.3438807,26.8863489 C18.3438807,26.8863489 22.4562234,26.4969575 22.7555044,22.413911 C23.0547854,18.3308644 22.9162294,8.89646791 22.9162294,8.89646791 L22.9162294,8.89646791 C18.3272539,6.57680793 12.8404355,6.92726016 8.58399451,9.81988171 L8.83893759,24.1995485 L8.83893759,31.9317484 C8.86664879,34.5239824 10.2078711,36.9604597 12.7850131,37.1607182 L12.7850131,37.1662809 Z" fill="#FFBE9D"></path>
                                    <path d="M18.6985841,17.4297015 C17.9947195,16.5563523 16.8530179,16.2114628 15.9163792,16.8178008 C14.9797405,17.4297015 14.6194948,18.7870085 15.129381,19.7883006 C15.4896266,20.4947678 16.3098783,21.1289195 17.1245877,21.3013642 C17.8949592,21.4626835 18.4380988,22.2080898 18.3494229,22.9924353 C18.2330359,24.0159783 17.6898962,24.9894567 16.9195248,25.8349922 C15.727943,27.1533601 13.9710526,27.86539 12.20862,28.0767739 C10.4738986,28.2825951 8.48977641,27.9210174 7.48108858,26.4913948 C6.74951278,25.4511636 6.69409038,24.0882938 6.66637917,22.8144278 C6.60541452,19.8049888 6.54444987,16.7899871 6.47794298,13.7805482 C6.45577402,12.6958151 6.43360505,11.5943938 6.68300589,10.5374744 C6.93240673,9.48055495 7.48108858,8.45144921 8.38447384,7.85623669 C9.37653495,7.19983411 10.6290814,7.14420677 11.7541563,6.78262908 C13.1618855,6.32648491 14.3590095,5.3863829 15.6780628,4.70772938 C16.9971161,4.02907587 18.6154505,3.62855903 19.940046,4.29052435 C20.8877692,4.76891946 21.5251269,5.72014693 22.4506811,6.24860664 C23.7641922,6.9995757 25.5598783,6.82713095 26.197236,8.76852503 C26.4189256,9.44161582 26.4022989,10.1758967 26.175067,10.8434247 C25.2827662,13.4857233 22.0239286,14.5537681 19.6740185,13.407845 C19.6296805,13.8528637 20.0675176,14.8541558 19.5964271,16.2670901 C19.4467866,16.7176716 19.3913642,17.4074506 18.6874996,17.418576" fill="#263238"></path>
                                    <path d="M7.46446185,9.02441079 C8.0408549,7.70604288 8.62833244,6.35429858 8.7724307,4.91911327 C8.91652896,3.48392796 8.5562833,1.92079977 7.49217306,0.952884094 C6.77168175,0.296481509 5.77962063,-0.026157049 4.80972848,0.00165661982 C2.94753555,0.0572839575 1.22944088,1.45909287 0.719554725,3.25585587 C0.209668566,5.05261888 0.913533155,7.11083037 2.36560026,8.27900446 C3.81766737,9.44717855 5.9237189,9.69750157 7.63627132,8.96878345" fill="#263238"></path>
                                    <path d="M8.26254454,7.53359814 C8.34013591,7.53359814 8.27362902,8.26231626 7.66398253,8.85196604 C7.05987827,9.45274129 6.33384472,9.50280589 6.33384472,9.42492762 C6.31167576,9.34148661 6.93240673,9.18016733 7.45891961,8.64614489 C8.00205922,8.12881065 8.17941093,7.5113472 8.26254454,7.53359814 Z" fill="#E8505B"></path>
                                    <path d="M6.92686449,8.52932748 C6.92686449,8.52932748 6.56661884,8.91871884 5.82395856,9.34148661 C5.45262842,9.54174503 4.95382674,9.74756617 4.36634921,9.75312891 C3.7954984,9.76425438 3.08609157,9.57512143 2.66488127,8.99103438 C2.2492132,8.41251007 2.23258648,7.70048015 2.36560026,7.14420677 C2.50415628,6.5712452 2.79235281,6.13178923 3.05283813,5.79246247 C3.59043549,5.12493442 3.99501907,4.79673312 4.01718804,4.81898406 C4.05598372,4.85236046 3.69573807,5.23618909 3.21910535,5.91484261 C2.99187348,6.25416937 2.7369304,6.6880626 2.63162782,7.20539684 C2.52632525,7.71716835 2.55957869,8.34575727 2.90319762,8.82415237 C3.24681656,9.30811021 3.85092081,9.49168042 4.36634921,9.49168042 C4.89286209,9.49724316 5.35841033,9.33036114 5.72974046,9.16347913 C6.47240074,8.80190143 6.89915329,8.49038834 6.92686449,8.53489021 L6.92686449,8.52932748 Z" fill="#263238"></path>
                                    <path d="M0.0101478945,13.1463965 C0.0101478945,13.1463965 0.0932815074,13.3021531 0.209668566,13.5969779 C0.326055624,13.8862401 0.481238368,14.3256961 0.808230579,14.7595893 C1.12413831,15.1767943 1.71161584,15.6273758 2.40439595,15.4938702 C3.08609157,15.3659273 3.69019583,14.7317756 3.93959667,13.9418674 C4.20562423,13.1463965 4.22225095,12.3175492 4.35526473,11.5665801 C4.47719403,10.8211738 4.72659487,10.1369575 5.13117845,9.69750157 C5.52467755,9.25248287 5.99576803,9.05778719 6.317218,9.01884805 C6.64421021,8.97434618 6.82156191,9.05222445 6.81601967,9.06334992 C6.81601967,9.09116359 6.63866797,9.05778719 6.33938696,9.13010273 C6.04564819,9.20241827 5.62998013,9.40823942 5.2863612,9.83100718 C4.93720002,10.2482122 4.72105263,10.8879266 4.61575005,11.611082 C4.49936299,12.3398001 4.49382075,13.1797729 4.21116647,14.0364339 C3.94513891,14.8875322 3.26344328,15.6162503 2.44873387,15.7553186 C2.04415029,15.8276342 1.64510895,15.7219422 1.34582794,15.538372 C1.04100469,15.3548018 0.81377282,15.1156043 0.641963353,14.8764067 C0.309428901,14.3868861 0.187499602,13.930742 0.0988237483,13.6247916 C0.0156901354,13.3188413 -0.012021069,13.1408338 0.00460565363,13.135271 L0.0101478945,13.1463965 Z" fill="#263238"></path>
                                </g>
                                <path d="M11.5721989,51.9336824 C11.5721989,51.9336824 9.49940084,67.1866984 11.5721989,69.1225298 C13.644997,71.0583611 15.645746,70.413084 15.645746,70.413084 L19.5973637,67.0976947 L20.3732774,51.9336824 L11.5721989,51.9336824 Z" id="Path" fill="#FFBE9D" fill-rule="nonzero"></path>
                                <g transform="translate(44.4044, 0)" fill-rule="nonzero" id="Path">
                                    <polygon fill="#E8505B" points="10.0924206 9.11732064 12.7305273 6.27476369 17.1255243 9.80153689 27.1846914 0 29.5955662 2.84811969 16.9315458 15.3865216"></polygon>
                                    <path d="M22.4848712,9.89054063 L18.660725,12.3548317 C18.4889155,10.8362054 17.3361294,9.33426726 17.3915518,10.0963618 C17.4525165,10.8584563 17.3970941,14.81356 17.3970941,14.81356 L10.5745956,29.2154777 C9.64904134,31.4961986 7.77022169,32.9313839 6.36803475,33.2707106 L0,35.1731656 L2.48846615,43.6229582 L11.3338826,40.680272 C13.6283703,39.9181775 15.4295986,38.1047263 16.1833433,35.8017545 L22.2798083,17.1554709 C22.2798083,17.1554709 23.0058418,15.0360694 23.2663271,13.4785039 C23.5268125,11.9265012 22.4737867,9.9016661 22.4737867,9.9016661 L22.4848712,9.89054063 Z" fill="#FFBE9D"></path>
                                </g>
                                <g transform="translate(27.4507, 163.1383)" fill-rule="nonzero" id="Path">
                                    <g transform="translate(0.0443, 0)">
                                        <path d="M8.06396046,4.27217953 L7.96974236,0 L0,0.127942877 L0.0720491312,6.38045563 L0.565308568,6.40270656 C2.76557819,6.4917103 11.7661774,6.69196872 13.2293289,6.21913635 C14.8587478,5.69623937 8.06396046,4.27217953 8.06396046,4.27217953 L8.06396046,4.27217953 Z" fill="#E8505B"></path>
                                        <g opacity="0.5" transform="translate(0.0443, 4.015)" fill="#FFFFFF">
                                            <path d="M2.91521869,2.25416782 C2.79328939,1.58663977 2.41087478,0.974739059 1.87327741,0.56309676 C1.33568005,0.151454462 0.670611144,-0.0543666877 0,0.0123861175 L0.0332534452,2.24860509 L2.91521869,2.24860509 L2.91521869,2.25416782 Z"></path>
                                        </g>
                                    </g>
                                    <g opacity="0.4" transform="translate(0.1108, 5.0843)" fill="#FFFFFF">
                                        <path d="M11.3172558,0 C11.3172558,0 13.7004194,0.65083985 13.4122229,1.04579395 C13.1240264,1.44074804 4.01812463,1.58537912 0,1.29055423 L0.0110844817,1.11254675 L10.630018,1.04023121 C10.630018,1.04023121 10.8572499,0.0278136688 11.3172558,0 L11.3172558,0 Z"></path>
                                    </g>
                                    <path d="M0,6.19688541 C0,6.19688541 0.0498801678,6.20244815 0.138556022,6.20801088 C0.25494308,6.20801088 0.38795686,6.21913635 0.532055123,6.22469908 C0.925554224,6.23582455 1.40772918,6.24695002 1.98412223,6.26363822 C3.20895746,6.29145189 4.89934092,6.30257735 6.76707609,6.27476369 C8.63481126,6.24695002 10.3251947,6.18575995 11.55003,6.12456987 C12.1208808,6.09119347 12.6030557,6.0633798 12.9965548,6.04112887 C13.1406531,6.0300034 13.2736669,6.01887793 13.3900539,6.0133152 C13.4787298,6.00775247 13.5286099,6.00218973 13.5286099,5.996627 C13.5286099,5.996627 13.4787298,5.996627 13.3900539,5.996627 C13.2736669,5.996627 13.1406531,6.00218973 12.9965548,6.00775247 C12.6030557,6.02444067 12.1208808,6.04112887 11.55003,6.05781707 C10.3251947,6.10231894 8.63481126,6.15238354 6.76707609,6.18019721 C4.89934092,6.20801088 3.20895746,6.20801088 1.98412223,6.19688541 C1.41327142,6.19688541 0.925554224,6.19132268 0.532055123,6.18575995 C0.38795686,6.18575995 0.25494308,6.18575995 0.138556022,6.18575995 C0.0498801678,6.18575995 0,6.18575995 0,6.19132268 L0,6.19688541 Z" fill="#263238"></path>
                                    <path d="M10.7408628,6.25251275 C10.768574,6.25251275 10.7852007,5.90762326 11.0013481,5.5516083 C11.206411,5.19559334 11.505692,5.01202312 11.4890653,4.98977219 C11.4835231,4.96752125 11.1454464,5.1232778 10.9182145,5.50710643 C10.6909826,5.88537232 10.7186938,6.26363822 10.7408628,6.25251275 Z" fill="#263238"></path>
                                    <path d="M8.3687837,5.08990139 C8.3687837,5.08990139 8.50179748,4.96752125 8.6126423,4.7783883 C8.72348712,4.59481809 8.80107849,4.43349881 8.77890953,4.41681061 C8.75674056,4.40012241 8.64589575,4.54475349 8.53505093,4.7283237 C8.42420611,4.91189391 8.34661474,5.07321319 8.3687837,5.08990139 Z" fill="#263238"></path>
                                    <path d="M7.72034152,4.75613737 C7.72034152,4.75613737 7.86443978,4.68938456 7.99745357,4.56144169 C8.13046735,4.43349881 8.23022768,4.3166814 8.20805872,4.2999932 C8.191432,4.27774226 8.06396046,4.366746 7.93094667,4.49468888 C7.79793289,4.62263176 7.69817256,4.73944917 7.72034152,4.75613737 Z" fill="#263238"></path>
                                    <path d="M7.29913122,4.01073104 C7.29913122,4.01073104 7.48756741,4.06079565 7.71479928,4.05523291 C7.9475734,4.05523291 8.13046735,4.03298198 8.13046735,4.00516831 C8.13046735,3.97735464 7.94203116,3.95510371 7.71479928,3.96066644 C7.48756741,3.96066644 7.29913122,3.98291738 7.29913122,4.01073104 Z" fill="#263238"></path>
                                    <path d="M7.14949071,3.4767086 C7.14949071,3.4767086 7.34346914,3.58796328 7.61503895,3.60465148 C7.88660875,3.62133968 8.0972139,3.56014961 8.09167166,3.53233594 C8.09167166,3.50452227 7.87552427,3.52121047 7.62058119,3.50452227 C7.36563811,3.48783407 7.15503295,3.44889493 7.14949071,3.47114587 L7.14949071,3.4767086 Z" fill="#263238"></path>
                                    <path d="M8.62926902,4.38899694 C8.62926902,4.38899694 8.82324745,4.42237334 9.13915518,4.37787147 C9.29433793,4.35562054 9.48277412,4.3166814 9.68229479,4.2499286 C9.78205512,4.21098946 9.8873577,4.18317579 9.99266028,4.11642299 C10.0425404,4.08304658 10.0979629,4.03298198 10.1145896,3.95510371 C10.1367585,3.87722543 10.0924206,3.79378443 10.031456,3.74928256 C9.53819652,3.50452227 9.05047933,3.78822169 8.87312762,4.04410745 C8.77336729,4.17761306 8.72902936,4.2999932 8.71240264,4.38899694 C8.69577591,4.47800068 8.69577591,4.52806528 8.70131815,4.52806528 C8.71794488,4.53362802 8.7345716,4.32780687 8.92855003,4.08860932 C9.02276812,3.97179191 9.17240863,3.8549745 9.36084482,3.79378443 C9.53819652,3.73815709 9.79868185,3.71590615 9.97049131,3.82716083 C10.0536249,3.8883509 10.0203715,3.98291738 9.93169563,4.03854471 C9.84856201,4.09417205 9.7377172,4.12754845 9.6434991,4.16648759 C9.44952067,4.23880313 9.27216896,4.283305 9.11698622,4.31111867 C8.81216297,4.37230874 8.61818454,4.37230874 8.61818454,4.38899694 L8.62926902,4.38899694 Z" fill="#263238"></path>
                                    <path d="M8.7622828,4.41124788 C8.7622828,4.41124788 8.84541642,4.283305 8.81770521,4.05523291 C8.80107849,3.94397824 8.7622828,3.81047263 8.67360695,3.68252975 C8.57938886,3.57127508 8.4630018,3.41551853 8.24131216,3.426644 C8.1249251,3.4433322 8.0695027,3.58240054 8.08612942,3.66584155 C8.0972139,3.75484529 8.13600959,3.83272356 8.17480527,3.89391363 C8.25239664,4.02185651 8.3410725,4.12198572 8.42420611,4.19986399 C8.5849311,4.35562054 8.71240264,4.41124788 8.71794488,4.40568514 C8.72902936,4.39455967 8.6126423,4.3166814 8.46854404,4.15536212 C8.39649491,4.07748385 8.31890354,3.97179191 8.2468544,3.84941176 C8.17480527,3.74371982 8.1249251,3.54902414 8.2468544,3.52121047 C8.37432594,3.50452227 8.50733972,3.63246515 8.5849311,3.73259436 C8.66806471,3.84384903 8.71240264,3.96066644 8.7345716,4.06635838 C8.77890953,4.27774226 8.7345716,4.41124788 8.74565608,4.41124788 L8.7622828,4.41124788 Z" fill="#263238"></path>
                                    <path d="M0.12747154,4.00516831 C0.12747154,4.00516831 0.354703415,3.97735464 0.714949071,4.01629378 C1.06965249,4.04967018 1.56845416,4.18873852 2.00629119,4.52806528 C2.44412822,4.86739204 2.70461354,5.31797348 2.82654284,5.65730024 C2.95401438,5.996627 2.9706411,6.23026182 2.98726783,6.22469908 C2.99281007,6.22469908 2.99281007,6.16907174 2.98726783,6.0633798 C2.97618334,5.95768786 2.94847214,5.81305678 2.89304973,5.6350493 C2.78220491,5.27903434 2.52171959,4.80620197 2.06725584,4.45574975 C1.61279209,4.10529752 1.09182145,3.97179191 0.720491312,3.95510371 C0.537597364,3.94397824 0.38241462,3.95510371 0.282654284,3.97179191 C0.182893948,3.98848011 0.12747154,4.00516831 0.12747154,4.01073104 L0.12747154,4.00516831 Z" fill="#263238"></path>
                                    <path d="M0.903385261,0.661965318 C0.903385261,0.661965318 0.859047334,1.39624617 0.859047334,2.30853451 C0.859047334,3.21526012 0.886758538,3.95510371 0.914469742,3.95510371 C0.942180947,3.95510371 0.958807669,3.22082285 0.958807669,2.30853451 C0.958807669,1.40180891 0.931096465,0.661965318 0.903385261,0.661965318 Z" fill="#263238"></path>
                                    <path d="M3.99595566,5.47373002 C3.99595566,5.47373002 4.51138406,5.57385923 5.15982624,5.57385923 C5.80826842,5.57385923 6.32923907,5.48485549 6.32369682,5.46260456 C6.32369682,5.43479089 5.80272618,5.47373002 5.15982624,5.47929276 C4.5169263,5.47929276 3.99595566,5.45147909 3.99595566,5.47929276 L3.99595566,5.47373002 Z" fill="#263238"></path>
                                    <path d="M2.43304374,5.49598096 C2.43304374,5.49598096 2.47738167,5.60723563 2.53280407,5.72405304 C2.58822648,5.84087045 2.61593769,5.94656239 2.64364889,5.94656239 C2.6713601,5.94656239 2.68244458,5.81861952 2.61593769,5.68511391 C2.5494308,5.54604556 2.44412822,5.47929276 2.4275015,5.49598096 L2.43304374,5.49598096 Z" fill="#263238"></path>
                                    <path d="M1.82893948,4.77282557 C1.82893948,4.77282557 1.86219293,4.87295478 1.94532654,4.95639578 C2.02846016,5.03983679 2.11159377,5.08990139 2.12822049,5.07321319 C2.14484721,5.05652499 2.09496705,4.97308399 2.01183343,4.88964298 C1.92869982,4.80620197 1.84556621,4.75613737 1.82893948,4.77282557 Z" fill="#263238"></path>
                                    <path d="M0.980976633,4.44462428 C0.980976633,4.44462428 1.09182145,4.46687521 1.20820851,4.51137708 C1.32459557,4.55031622 1.41327142,4.61150629 1.42989814,4.59481809 C1.45206711,4.57812989 1.38001797,4.46687521 1.23591971,4.42237334 C1.09182145,4.37230874 0.969892151,4.42237334 0.975434392,4.45018701 L0.980976633,4.44462428 Z" fill="#263238"></path>
                                    <path d="M0.38241462,4.2999932 C0.38241462,4.2999932 0.421210306,4.366746 0.487717196,4.38899694 C0.554224086,4.41124788 0.615188736,4.41124788 0.626273217,4.38899694 C0.637357699,4.36118327 0.587477531,4.32224413 0.520970641,4.2999932 C0.454463751,4.27774226 0.393499101,4.27774226 0.38241462,4.2999932 Z" fill="#263238"></path>
                                </g>
                                <g transform="translate(0, 157.6256)" fill-rule="nonzero" id="Path">
                                    <g>
                                        <path d="M7.42660276,8.42197892 L10.1312163,5.1232778 L4.00704014,0 L0,4.78395104 L0.360245656,5.1232778 C1.97303775,6.63077865 8.66252247,12.6719075 10.0813361,13.2726828 C11.6608748,13.9402108 7.432145,8.41641619 7.432145,8.41641619 L7.42660276,8.42197892 Z" fill="#E8505B"></path>
                                        <g opacity="0.5" transform="translate(0.0776, 2.9816)" fill="#FFFFFF">
                                            <path d="M2.1836429,3.61021421 C2.52171959,3.02612717 2.63256441,2.30853451 2.48846615,1.64656919 C2.34436788,0.984603876 1.97857999,0.394954097 1.42989814,0 L0,1.71888473 L2.1836429,3.61021421 Z"></path>
                                        </g>
                                    </g>
                                    <g opacity="0.4" transform="translate(0, 4.6504)" fill="#FFFFFF">
                                        <path d="M9.41626723,6.55846311 C9.41626723,6.55846311 10.8018274,8.61111187 10.3251947,8.72236654 C9.84856201,8.83362122 2.85425404,2.9816253 0,0.127942877 L0.121929299,0 L8.2191432,6.89778987 C8.2191432,6.89778987 9.05047933,6.27476369 9.41626723,6.55846311 L9.41626723,6.55846311 Z"></path>
                                    </g>
                                    <path d="M0.0277112043,4.57256715 C0.0277112043,4.57256715 0.0609646495,4.61150629 0.121929299,4.67269636 C0.210605153,4.75613737 0.304823247,4.84514111 0.410125824,4.94527032 C0.70386459,5.21228154 1.058568,5.54048283 1.48532055,5.92431146 C2.39424805,6.74759606 3.66896345,7.86014281 5.10440383,9.06725604 C6.53984422,10.2688065 7.85889754,11.3312887 8.82878969,12.0822577 C9.28325345,12.43271 9.66566806,12.7275349 9.98157579,12.9667324 C10.0979629,13.0557361 10.2032654,13.1336144 10.2974835,13.2003672 C10.3695327,13.2559946 10.4083283,13.2782455 10.4138706,13.2782455 C10.4138706,13.2782455 10.3806171,13.2448691 10.308568,13.183679 C10.2143499,13.1113635 10.1145896,13.0279225 10.0037448,12.933356 C9.69892151,12.6885957 9.31650689,12.3826454 8.87312762,12.0266304 C7.91986219,11.2589731 6.60080887,10.1909283 5.17091072,8.98937776 C3.73547034,7.78782727 2.4552127,6.68084325 1.53520072,5.87424686 C1.10290593,5.49598096 0.737118035,5.17890513 0.443379269,4.91745665 C0.332534452,4.82289017 0.232774116,4.73944917 0.144098262,4.66157089 C0.0775913721,4.60594356 0.038795686,4.57256715 0.0332534452,4.57812989 L0.0277112043,4.57256715 Z" fill="#263238"></path>
                                    <path d="M8.13600959,11.6428018 C8.13600959,11.6428018 8.39649491,11.4147297 8.78445177,11.2812241 C9.17240863,11.1477185 9.51602756,11.2033458 9.5215698,11.1699694 C9.53265428,11.1477185 9.17240863,11.0420265 8.75674056,11.1866576 C8.33553026,11.3257259 8.11384062,11.6261136 8.13600959,11.637239 L8.13600959,11.6428018 Z" fill="#263238"></path>
                                    <path d="M7.0940683,9.21188711 C7.0940683,9.21188711 7.27696225,9.20632438 7.48202516,9.13957157 C7.68708808,9.07281877 7.84781306,9.00050323 7.84227082,8.97268956 C7.83672858,8.94487589 7.65937687,8.9782523 7.45431396,9.0450051 C7.24925105,9.11175791 7.08852606,9.18407344 7.0940683,9.21188711 Z" fill="#263238"></path>
                                    <path d="M6.81695626,8.53323359 C6.81695626,8.53323359 6.96659676,8.57773546 7.15503295,8.56661 C7.3379269,8.56104726 7.48756741,8.53323359 7.48756741,8.50541993 C7.48756741,8.47760626 7.3379269,8.46091806 7.14949071,8.46648079 C6.96659676,8.47204352 6.81695626,8.49985719 6.81695626,8.52767086 L6.81695626,8.53323359 Z" fill="#263238"></path>
                                    <path d="M6.98876573,7.6932608 C6.98876573,7.6932608 7.09961055,7.84901734 7.27696225,7.99921115 C7.45431396,8.14940496 7.6094967,8.25509691 7.62612343,8.23284597 C7.64275015,8.21059504 7.51527861,8.07708943 7.3379269,7.92689561 C7.16057519,7.7767018 7.00539245,7.67100986 6.98876573,7.6932608 Z" fill="#263238"></path>
                                    <path d="M7.2159976,7.19261476 C7.2159976,7.19261476 7.29358898,7.40399864 7.48756741,7.59313159 C7.68154584,7.78226454 7.88660875,7.87683101 7.89769323,7.85458008 C7.91431995,7.83232914 7.74251049,7.70438626 7.5540743,7.52637878 C7.37118035,7.3483713 7.23816657,7.17592656 7.2159976,7.19261476 L7.2159976,7.19261476 Z" fill="#263238"></path>
                                    <path d="M7.74805273,8.85030942 C7.74805273,8.85030942 7.87552427,9.00050323 8.14155183,9.17851071 C8.27456561,9.26751445 8.44083283,9.35651819 8.63481126,9.43439646 C8.7345716,9.4733356 8.82878969,9.51783747 8.95626123,9.53452567 C9.01722588,9.54008841 9.08927501,9.54008841 9.15578191,9.49558654 C9.2222888,9.45108467 9.24445776,9.35651819 9.22783104,9.28976539 C9.01168364,8.77799388 8.4630018,8.67786467 8.15817855,8.75574294 C7.99745357,8.78911935 7.88106651,8.85587215 7.80901738,8.91149949 C7.73696824,8.96712683 7.7037148,9.00606596 7.70925704,9.0116287 C7.72034152,9.0283169 7.86443978,8.87812309 8.16926303,8.82249575 C8.31890354,8.79468208 8.50179748,8.80580755 8.68469143,8.88368582 C8.8565009,8.95600136 9.06710605,9.11175791 9.1280707,9.30645359 C9.15023966,9.4065828 9.06710605,9.4566474 8.96180348,9.4399592 C8.86204314,9.42883373 8.75674056,9.38433186 8.66252247,9.35095546 C8.46854404,9.27863992 8.30227681,9.19519891 8.16926303,9.11732064 C7.89769323,8.96156409 7.74805273,8.83918395 7.73696824,8.85030942 L7.74805273,8.85030942 Z" fill="#263238"></path>
                                    <path d="M7.83118634,8.95600136 C7.83118634,8.95600136 7.9752846,8.91149949 8.10275614,8.72236654 C8.16372079,8.62780007 8.2191432,8.49985719 8.23576992,8.34410065 C8.23576992,8.19946957 8.25239664,8.00477389 8.07504494,7.87126828 C7.9752846,7.80451547 7.84227082,7.87126828 7.80347513,7.95470928 C7.75359497,8.03258756 7.73696824,8.11602856 7.72588376,8.1883441 C7.7037148,8.33853791 7.7037148,8.47204352 7.71479928,8.5832982 C7.73696824,8.80580755 7.79793289,8.93375043 7.80901738,8.93375043 C7.8256441,8.93375043 7.78684841,8.79468208 7.78684841,8.5832982 C7.78684841,8.47760626 7.78684841,8.34966338 7.82010186,8.21059504 C7.83672858,8.08265216 7.92540443,7.89908195 8.03624925,7.96583475 C8.14155183,8.03815029 8.16372079,8.2217205 8.15817855,8.34966338 C8.14709407,8.48873172 8.10829838,8.60554913 8.05841821,8.70011561 C7.95311564,8.88368582 7.83118634,8.95600136 7.84227082,8.97268956 L7.83118634,8.95600136 Z" fill="#263238"></path>
                                    <path d="M1.55182744,2.99275077 C1.55182744,2.99275077 1.74026363,3.12069364 1.98966447,3.38770486 C2.23906531,3.64915335 2.52726183,4.07748385 2.63810665,4.62263176 C2.74895147,5.16777967 2.65473337,5.67398844 2.52726183,6.0133152 C2.39979029,6.35264196 2.26123427,6.54177491 2.27786099,6.54733764 C2.27786099,6.54733764 2.32219892,6.5083985 2.38316357,6.4249575 C2.44412822,6.34151649 2.52171959,6.20801088 2.59376872,6.03556613 C2.73786699,5.69623937 2.8487118,5.16777967 2.73232475,4.60038082 C2.61593769,4.03298198 2.3055722,3.59352601 2.03954464,3.33764026 C1.90653086,3.20969738 1.78460156,3.12069364 1.6959257,3.0650663 C1.60724985,3.00943897 1.55736968,2.98718803 1.55182744,2.99275077 Z" fill="#263238"></path>
                                    <path d="M4.31186339,0.967915675 C4.31186339,0.967915675 3.79643499,1.49637538 3.20895746,2.18615437 C2.62147993,2.87593336 2.16147394,3.44889493 2.17810066,3.46558314 C2.20026962,3.48227134 2.69352906,2.93712343 3.28100659,2.24734444 C3.86848412,1.55756545 4.32849011,0.984603876 4.31186339,0.967915675 Z" fill="#263238"></path>
                                    <path d="M3.52486519,6.63634138 C3.52486519,6.63634138 3.8518574,7.05354641 4.34511684,7.47631418 C4.83837627,7.89908195 5.28729778,8.17721863 5.29838226,8.1549677 C5.31500899,8.13271676 4.89379868,7.82120367 4.40608149,7.40399864 C3.91836429,6.98679361 3.54149191,6.61965318 3.52486519,6.64190411 L3.52486519,6.63634138 Z" fill="#263238"></path>
                                    <path d="M2.32774116,5.62948657 C2.32774116,5.62948657 2.28894548,5.74074124 2.25569203,5.86868412 C2.22243859,5.996627 2.17255842,6.09675621 2.19472738,6.11344441 C2.21689635,6.13013261 2.3055722,6.04112887 2.34436788,5.89649779 C2.38316357,5.75186671 2.34991013,5.62948657 2.32219892,5.62948657 L2.32774116,5.62948657 Z" fill="#263238"></path>
                                    <path d="M2.34436788,4.68938456 C2.34436788,4.68938456 2.3055722,4.78951377 2.31665668,4.90633118 C2.32774116,5.02314859 2.35545237,5.11771506 2.38316357,5.11771506 C2.41087478,5.11771506 2.42195926,5.01758586 2.41087478,4.90076845 C2.39979029,4.78395104 2.37207909,4.68938456 2.34436788,4.68938456 Z" fill="#263238"></path>
                                    <path d="M1.9120731,3.8883509 C1.9120731,3.8883509 1.97857999,3.97735464 2.04508688,4.08860932 C2.11159377,4.19430126 2.13376273,4.2999932 2.16147394,4.2999932 C2.18918514,4.2999932 2.20581186,4.17205032 2.12822049,4.03854471 C2.05062912,3.9050391 1.92315758,3.86609997 1.9120731,3.8883509 Z" fill="#263238"></path>
                                    <path d="M1.55182744,3.38214213 C1.55182744,3.38214213 1.53520072,3.45445767 1.57399641,3.52121047 C1.61279209,3.58796328 1.65713002,3.62133968 1.67929898,3.61021421 C1.70146794,3.59908875 1.6959257,3.53789867 1.65713002,3.4767086 C1.61833433,3.41551853 1.57399641,3.37657939 1.55182744,3.38770486 L1.55182744,3.38214213 Z" fill="#263238"></path>
                                </g>
                                <g transform="translate(0.6706, 72.0652)" fill-rule="nonzero" id="Path">
                                    <path d="M23.3439185,4.59481809 C23.3439185,4.59481809 20.6891851,15.8649167 21.4429299,18.0955729 C22.1911324,20.3262292 27.0572199,21.6167834 27.0572199,21.6167834 L26.8909527,52.4843931 L0,85.8496702 L9.93169563,94.0046379 C9.93169563,94.0046379 39.0450869,60.5781707 41.6111444,54.5259164 C44.1772019,48.473662 39.9761833,4.09973478 39.9761833,4.09973478 L23.3494608,4.60038082 L23.3439185,4.59481809 Z" fill="#263238"></path>
                                    <path d="M37.0831336,0 L38.3966447,93.7487521 L24.712852,93.8210677 L17.8460156,17.466984 L17.8460156,17.466984 C16.3939485,16.0763006 14.3544038,13.6954505 14.6370581,8.38303978 L14.9695926,2.21396804 L37.0775914,0 L37.0831336,0 Z" fill="#263238"></path>
                                    <path d="M22.6566806,57.7022373 C22.6566806,57.7022373 22.6788496,57.6521727 22.734272,57.563169 C22.8063212,57.4574771 22.8894548,57.3295342 22.9947573,57.1793404 C23.2441582,56.8233254 23.5877771,56.3393676 24.0089874,55.7330296 C24.9179149,54.470289 26.1870881,52.7013397 27.7222888,50.5763754 L27.7001198,50.6486909 C27.4008388,47.3944917 27.0405932,43.4505134 26.6526363,39.1950221 C26.1538346,33.6211629 25.7547933,28.5646379 25.5164769,24.9043591 C25.3945476,23.0742197 25.3169563,21.5945325 25.2726183,20.5654267 C25.2559916,20.0759062 25.2449071,19.6809521 25.2338226,19.3861272 C25.2282804,19.1135532 25.2338226,18.9744849 25.2393649,18.9744849 C25.2504494,18.9744849 25.2670761,19.1135532 25.2892451,19.3861272 C25.311414,19.6809521 25.3446675,20.0759062 25.3834632,20.5654267 C25.4665968,21.6223461 25.5774416,23.0909079 25.7215398,24.8932336 C26.0097364,28.5479497 26.4420312,33.5933492 26.9408328,39.1727712 C27.312163,43.4449507 27.6945776,47.3833662 27.9384362,50.6542537 L27.9384362,50.6931928 C27.9384362,50.6931928 27.9162672,50.7265692 27.9162672,50.7265692 C26.3533553,52.8292826 25.0509287,54.575981 24.1253745,55.8220333 C23.676453,56.4116831 23.3217496,56.8789527 23.055722,57.229405 C22.9393349,57.374036 22.8451168,57.4964162 22.7675255,57.5909827 C22.7010186,57.6744237 22.6622229,57.7133628 22.6566806,57.7078001 L22.6566806,57.7022373 Z" fill="#455A64"></path>
                                    <path d="M26.8576992,18.9744849 C26.8466147,19.0523631 25.2171959,18.8521047 23.2330737,18.4348997 C21.2544937,18.0176947 19.6804973,17.5448623 19.697124,17.466984 C19.719293,17.3891057 21.3154584,17.7339952 23.2884961,18.1512003 C25.2615339,18.5684053 26.8632415,18.8966066 26.852157,18.9744849 L26.8576992,18.9744849 Z" fill="#455A64"></path>
                                    <path d="M36.2240863,50.9824549 C36.1852906,51.0714587 34.6500899,50.1702958 32.5274116,50.0145393 C30.4047334,49.8309691 28.7476034,50.4762462 28.7254344,50.3816797 C28.7143499,50.353866 29.107849,50.1480449 29.7895446,49.9644747 C30.4712403,49.7753417 31.4577591,49.6418361 32.5440383,49.7252771 C33.6303176,49.8142809 34.583583,50.103543 35.2264829,50.3983679 C35.8749251,50.6876301 36.2296285,50.9546413 36.2130018,50.9824549 L36.2240863,50.9824549 Z" fill="#455A64"></path>
                                    <path d="M41.0513781,55.32695 C41.1123427,55.3770146 37.2660276,60.5614825 32.4553625,66.902999 C27.6446974,73.2500782 23.6930797,78.3566678 23.632115,78.3066032 C23.5711504,78.2565386 27.4174655,73.0720707 32.2281306,66.7249915 C37.0387957,60.3779123 40.9904134,55.2713227 41.0513781,55.3213873 L41.0513781,55.32695 Z" fill="#455A64"></path>
                                    <path d="M39.2002696,6.96454267 C39.2002696,6.96454267 39.0395446,7.45406324 38.4298981,7.98252295 C37.8424206,8.50541993 36.7616836,9.03944237 35.5146794,8.91706222 C34.2676753,8.77799388 33.3199521,8.03258756 32.8544038,7.39287317 C32.3722289,6.74759606 32.2890953,6.23582455 32.3112642,6.23582455 C32.3611444,6.21357361 32.5107849,6.68640598 33.0095866,7.2649303 C33.4917615,7.83789187 34.3951468,8.50541993 35.5423907,8.62780007 C36.6896345,8.74461748 37.7094068,8.28291057 38.3024266,7.82676641 C38.9120731,7.3650595 39.1559317,6.936729 39.2002696,6.96454267 L39.2002696,6.96454267 Z" fill="#455A64"></path>
                                </g>
                                <path d="M21.1769023,30.7952941 C18.9489215,28.6703298 17.5910725,25.6553281 17.4691432,22.5791363 C17.3472139,19.4973818 18.4722888,16.3878137 20.5284602,14.0959674" id="Path" fill="#263238" fill-rule="nonzero"></path>
                                <g transform="translate(9.904, 33.2151)" id="Path">
                                    <g>
                                        <path d="M3.58582984,6.32482829 C3.58582984,6.32482829 0.615188736,9.69584495 0,22.5846991 C0,22.5846991 8.4630018,24.1978919 8.61818454,23.7306222 C8.77336729,23.2689153 3.58582984,6.32482829 3.58582984,6.32482829 Z" fill="#E8505B" fill-rule="nonzero"></path>
                                        <g opacity="0.3" transform="translate(0, 6.3248)">
                                            <path d="M3.58582984,0 C3.58582984,0 0.615188736,3.37101666 0,16.2598708 C0,16.2598708 8.4630018,17.8730636 8.61818454,17.4057939 C8.77336729,16.944087 3.58582984,0 3.58582984,0 Z"></path>
                                        </g>
                                        <g transform="translate(2.6632, 0)">
                                            <path d="M2.29713087,43.8677185 L28.2846983,43.8677185 L27.863488,39.7957973 C27.863488,39.7957973 24.8928469,24.2924583 24.9150158,24.0921999 L25.3805641,23.1075961 C26.6053993,20.5209249 26.6497372,17.5281741 25.4969511,14.9025638 L25.4969511,14.9025638 L38.2219361,10.5358177 L35.1071968,0 C29.3321818,0.979041143 20.6031524,2.06933696 20.6031524,2.06933696 L19.3062681,2.18059164 C19.3062681,2.18059164 10.2945844,2.65342401 10.1061482,2.67567494 C6.33742446,3.13181911 1.95351193,3.42108127 0.351804324,7.47075145 C-0.507243009,9.63465488 0.307466398,12.8832914 1.70965334,16.2376199 L5.04054009,26.5286773 C6.3706779,32.1859776 4.24799965,31.9134036 3.08412907,37.609643 C2.90677736,38.4718667 2.28604639,43.0889357 2.30267311,43.8788439 L2.29713087,43.8677185 Z" fill="#E8505B" fill-rule="nonzero"></path>
                                            <g opacity="0.3">
                                                <path d="M2.29713087,43.8677185 L28.2846983,43.8677185 L27.863488,39.7957973 C27.863488,39.7957973 24.8928469,24.2924583 24.9150158,24.0921999 L25.3805641,23.1075961 C26.6053993,20.5209249 26.6497372,17.5281741 25.4969511,14.9025638 L25.4969511,14.9025638 L38.2219361,10.5358177 L35.1071968,0 C29.3321818,0.979041143 20.6031524,2.06933696 20.6031524,2.06933696 L19.3062681,2.18059164 C19.3062681,2.18059164 10.2945844,2.65342401 10.1061482,2.67567494 C6.33742446,3.13181911 1.95351193,3.42108127 0.351804324,7.47075145 C-0.507243009,9.63465488 0.307466398,12.8832914 1.70965334,16.2376199 L5.04054009,26.5286773 C6.3706779,32.1859776 4.24799965,31.9134036 3.08412907,37.609643 C2.90677736,38.4718667 2.28604639,43.0889357 2.30267311,43.8788439 L2.29713087,43.8677185 Z"></path>
                                            </g>
                                        </g>
                                        <path d="M40.7631815,10.697137 C40.7631815,10.697137 40.5692031,10.802829 40.197873,10.9363346 C39.8265428,11.0698402 39.2889455,11.2589731 38.6238766,11.4814825 C37.2937388,11.9320639 35.4481726,12.5328392 33.4086279,13.183679 C31.3690833,13.8400816 29.545686,14.4909215 28.2488017,15.0249439 C27.6003595,15.2863924 27.0849311,15.5200272 26.7191432,15.6757837 C26.3588975,15.837103 26.1593769,15.920544 26.1482924,15.8982931 C26.1372079,15.8816049 26.3256441,15.7647875 26.669263,15.5700918 C27.0184242,15.3809589 27.5227681,15.1195104 28.1656681,14.8302482 C29.4459257,14.2405984 31.2748652,13.5563822 33.3144098,12.8999796 C35.3594967,12.243577 37.2106052,11.6761782 38.5573697,11.2756613 C39.2335231,11.0754029 39.7766627,10.9196464 40.1590773,10.8139544 C40.5414919,10.7138252 40.7520971,10.6637606 40.7576393,10.6804488 L40.7631815,10.697137 Z" fill="#263238" fill-rule="nonzero"></path>
                                    </g>
                                    <path d="M39.255692,5.08990139 C39.255692,5.16777967 31.5741462,5.23453247 22.0969143,5.23453247 C12.6196824,5.23453247 4.93813661,5.16777967 4.93813661,5.08990139 C4.93813661,5.01202312 12.6196824,4.94527032 22.0969143,4.94527032 C31.5741462,4.94527032 39.255692,5.01202312 39.255692,5.08990139 Z" fill="#FAFAFA" fill-rule="nonzero"></path>
                                    <path d="M40.0482325,10.2131792 C40.0482325,10.2910575 31.4965548,10.3578103 20.9552127,10.3578103 C10.4138706,10.3578103 1.85665069,10.2910575 1.85665069,10.2131792 C1.85665069,10.1353009 10.4027861,10.0685481 20.9552127,10.0685481 C31.5076393,10.0685481 40.0482325,10.1353009 40.0482325,10.2131792 L40.0482325,10.2131792 Z" fill="#FAFAFA" fill-rule="nonzero"></path>
                                    <path d="M3.98487118,16.0429242 C3.98487118,16.1208024 3.26992211,16.1875553 2.39424805,16.1875553 C1.518574,16.1875553 0.803624925,16.1208024 0.803624925,16.0429242 C0.803624925,15.9650459 1.518574,15.8982931 2.39424805,15.8982931 C3.26992211,15.8982931 3.98487118,15.9650459 3.98487118,16.0429242 Z" fill="#FAFAFA" fill-rule="nonzero"></path>
                                    <path d="M28.9582085,16.2153689 C28.9582085,16.2932472 23.3660875,16.36 16.4715398,16.36 C9.57699221,16.36 3.98487118,16.2932472 3.98487118,16.2153689 C3.98487118,16.1374907 9.57699221,16.0707378 16.4715398,16.0707378 C23.3660875,16.0707378 28.9582085,16.1374907 28.9582085,16.2153689 Z" fill="#FAFAFA" fill-rule="nonzero"></path>
                                    <path d="M28.4095267,22.2231214 C28.4095267,22.3009997 23.3882564,22.3677525 17.2031156,22.3677525 C11.0179748,22.3677525 5.99670461,22.3009997 5.99670461,22.2231214 C5.99670461,22.1452431 11.0124326,22.0784903 17.2031156,22.0784903 C23.3937987,22.0784903 28.4095267,22.1452431 28.4095267,22.2231214 Z" fill="#FAFAFA" fill-rule="nonzero"></path>
                                    <path d="M28.2488017,27.7858552 C28.2488017,27.8637334 23.6986219,27.9304862 18.0898742,27.9304862 C12.4811264,27.9304862 7.93094667,27.8637334 7.93094667,27.7858552 C7.93094667,27.7079769 12.4811264,27.6412241 18.0898742,27.6412241 C23.6986219,27.6412241 28.2488017,27.7079769 28.2488017,27.7858552 Z" fill="#FAFAFA" fill-rule="nonzero"></path>
                                    <path d="M29.1355602,32.2916695 C29.1355602,32.3695478 24.2694727,32.4363006 18.2672259,32.4363006 C12.264979,32.4363006 7.39889155,32.3695478 7.39889155,32.2916695 C7.39889155,32.2137912 12.264979,32.1470384 18.2672259,32.1470384 C24.2694727,32.1470384 29.1355602,32.2137912 29.1355602,32.2916695 Z" fill="#FAFAFA" fill-rule="nonzero"></path>
                                    <path d="M30.5432894,38.0324107 C30.5432894,38.110289 25.0065908,38.1770418 18.17855,38.1770418 C11.3505093,38.1770418 5.81381067,38.110289 5.81381067,38.0324107 C5.81381067,37.9545325 11.3505093,37.8877797 18.17855,37.8877797 C25.0065908,37.8877797 30.5432894,37.9545325 30.5432894,38.0324107 Z" fill="#FAFAFA" fill-rule="nonzero"></path>
                                    <path d="M7.54298981,26.033594 C7.54298981,26.033594 7.44322948,25.8555865 7.31575794,25.5218225 C7.16611744,25.1268684 6.98322349,24.6484733 6.76707609,24.0977627 C6.3070701,22.8962122 5.66417016,21.2385175 4.99910126,19.3861272 C4.32849011,17.5392996 3.77426603,15.8426658 3.42510485,14.5966134 C3.25329539,13.9735872 3.12028161,13.4673784 3.04823247,13.1169262 C2.9706411,12.766474 2.93738766,12.5662156 2.95955662,12.5605327 C3.00389455,12.5495274 3.22558418,13.3116219 3.62462552,14.5354233 C4.02366687,15.7592248 4.60560216,17.4391704 5.2762133,19.285998 C5.94682445,21.1328256 6.55647094,22.8016457 6.96659676,24.0254471 C7.17165968,24.6373478 7.32684242,25.1324311 7.42660276,25.4828834 C7.52636309,25.8333356 7.57070102,26.0280313 7.54853206,26.033594 L7.54298981,26.033594 Z" fill="#263238" fill-rule="nonzero"></path>
                                </g>
                            </g>
                        </g>
                    </g>
                </g>
            </g>
        </g>
    </g>
</svg>