<?xml version="1.0" encoding="UTF-8"?>
<svg width="298px" height="298px" viewBox="0 0 298 298" version="1.1" xmlns="http://www.w3.org/2000/svg" xmlns:xlink="http://www.w3.org/1999/xlink">
    <title>check</title>
    <defs>
        <linearGradient x1="50%" y1="-8.60871582%" x2="50%" y2="97.6019775%" id="linearGradient-1">
            <stop stop-color="#EEEEEE" offset="0%"></stop>
            <stop stop-color="#FFFFFF" offset="100%"></stop>
        </linearGradient>
        <circle id="path-2" cx="125" cy="125" r="125"></circle>
        <filter x="-17.2%" y="-22.8%" width="134.4%" height="134.4%" filterUnits="objectBoundingBox" id="filter-4">
            <feOffset dx="0" dy="-14" in="SourceAlpha" result="shadowOffsetOuter1"></feOffset>
            <feGaussianBlur stdDeviation="12" in="shadowOffsetOuter1" result="shadowBlurOuter1"></feGaussianBlur>
            <feColorMatrix values="0 0 0 0 0   0 0 0 0 0   0 0 0 0 0  0 0 0 0.138740166 0" type="matrix" in="shadowBlurOuter1"></feColorMatrix>
        </filter>
        <polygon id="path-5" points="217.93 172.13 0 172.13 33.78 0 217.93 0"></polygon>
    </defs>
    <g id="Page-1" stroke="none" stroke-width="1" fill="none" fill-rule="evenodd">
        <g id="donate-cold-question" transform="translate(-59, -74)">
            <g id="Group-3" transform="translate(31, 112)">
                <g id="check" transform="translate(52, 0)">
                    <mask id="mask-3" fill="white">
                        <use xlink:href="#path-2"></use>
                    </mask>
                    <g id="Mask">
                        <use fill="black" fill-opacity="1" filter="url(#filter-4)" xlink:href="#path-2"></use>
                        <use fill="url(#linearGradient-1)" fill-rule="evenodd" xlink:href="#path-2"></use>
                    </g>
                    <g id="cough" mask="url(#mask-3)">
                        <g transform="translate(-11, 24)">
                            <g id="Clipped" transform="translate(0, 56.0581)">
                                <mask id="mask-6" fill="white">
                                    <use xlink:href="#path-5"></use>
                                </mask>
                                <g id="Path"></g>
                                <g id="Group" mask="url(#mask-6)">
                                    <g transform="translate(14.0252, 10.15)">
                                        <path d="M170.034757,46.74 C188.704757,60.74 226.704757,137.41 227.364757,150.07 C228.024757,162.73 212.694757,171.74 195.364757,161.74 C178.034757,151.74 160.364757,137.07 153.694757,125.74 C147.024757,114.41 170.024757,46.74 170.024757,46.74 L170.034757,46.74 Z" id="Path" fill="#0D527C" fill-rule="nonzero"></path>
                                        <path d="M82.7047567,16.07 C95.6947567,15.17 127.704757,22.4 134.034757,26.74 C140.364757,31.08 124.034757,49.74 101.704757,39.07 C79.3747567,28.4 73.0347567,16.74 82.7047567,16.07 Z" id="Path" fill="#B72E48" fill-rule="nonzero"></path>
                                        <path d="M39.2647567,279.96 C39.2647567,279.96 52.4647567,291.38 116.984757,290.15 C166.804757,289.2 180.004757,277.12 180.004757,277.12 C180.004757,277.12 191.644757,71.89 178.834757,55.25 C169.524757,43.16 151.224757,37.97 127.364757,36.71 C118.364757,36.24 108.574757,36.33 98.1747567,36.82 C90.4747567,37.18 83.1547567,38.43 76.3547567,40.32 C49.6547567,47.78 30.9347567,65.29 28.0947567,79.03 C24.5247567,96.27 39.2647567,279.97 39.2647567,279.97 L39.2647567,279.96 Z" id="Path" fill="#105E99" fill-rule="nonzero"></path>
                                        <path d="M126.084757,19.25 L117.614757,52.64 C117.614757,52.64 108.024757,57.16 87.6847567,43.47 C87.6847567,43.47 98.4847567,18.07 88.9147567,0 C88.9147567,0 91.3347567,0.14 95.1647567,0.6 C95.1647567,0.6 99.0047567,20.46 126.084757,19.25 L126.084757,19.25 Z" id="Path" fill="#EF6E4B" fill-rule="nonzero"></path>
                                        <path d="M108.704757,148.07 C98.7047567,150.07 102.704757,159.4 94.7047567,158.07 C86.7047567,156.73 88.0347567,154.73 86.7047567,114.73 C85.3647567,74.73 67.3647567,42.73 67.3647567,42.73 L110.034757,64.73 C110.224757,65.26 110.414757,65.79 110.594757,66.32 C111.514757,68.93 112.354757,71.49 113.124757,74 C126.224757,116.98 118.044757,146.2 108.704757,148.07 Z" id="Path" fill="#CE364C" fill-rule="nonzero"></path>
                                        <path d="M100.704757,71.07 C100.704757,71.07 103.704757,83.4 103.034757,92.07 C102.364757,100.73 97.7047567,74.4 90.7047567,70.07 C83.7047567,65.73 72.3647567,52.07 72.3647567,52.07 C72.3647567,52.07 96.5847567,60.09 110.594757,66.32 C111.514757,68.93 112.354757,71.49 113.124757,74 C106.994757,73.69 100.704757,71.07 100.704757,71.07 Z" id="Path" fill="#B72E48" fill-rule="nonzero"></path>
                                        <path d="M82.7047567,16.07 C82.7047567,16.07 118.704757,40.07 134.034757,26.74 C134.034757,26.74 139.364757,26.74 141.364757,30.74 C143.364757,34.74 141.364757,39.41 141.364757,39.41 C141.364757,39.41 149.364757,41.41 150.694757,46.74 C152.024757,52.07 134.024757,82.74 90.6947567,62.74 C47.3647567,42.74 70.0247567,33.41 70.0247567,33.41 C70.0247567,33.41 71.3547567,14.74 82.6947567,16.08 L82.7047567,16.07 Z" id="Path" fill="#CE364C" fill-rule="nonzero"></path>
                                        <g transform="translate(0, 59.4)" fill-rule="nonzero" id="Path">
                                            <path d="M149.804757,65.98 C146.664757,65.81 137.324757,68.8 137.324757,68.8 C130.374757,72.44 126.504757,74.42 122.054757,74.48 C117.614757,74.57 109.604757,83.56 109.604757,83.56 C109.604757,83.56 102.864757,74.63 102.644757,63.59 C102.644757,63.59 108.074757,60.49 108.894757,58.68 C110.534757,55.08 108.404757,49.35 112.744757,43.41 C117.104757,37.45 119.634757,27.87 119.634757,27.87 C119.634757,27.87 123.584757,26.93 123.744757,30.76 C123.904757,34.63 120.664757,39.7 121.264757,41.39 C121.384757,41.73 121.534757,42.06 121.724757,42.35 C121.724757,42.35 121.744757,42.37 121.754757,42.44 C122.424757,43.56 123.464757,44.42 124.574757,44.58 C124.634757,44.61 124.734757,44.64 124.834757,44.63 C129.194757,44.83 137.254757,39.33 140.604757,36.55 C145.244757,32.68 151.954757,27.69 153.114757,31.46 C154.284757,35.23 149.554757,34.67 140.844757,45.15 L141.564757,46.34 C140.974757,47.13 149.644757,43.53 156.694757,38.76 C161.554757,35.48 162.224757,39.83 161.294757,41.62 C160.374757,43.44 155.004757,46.01 151.524757,48.43 C149.204757,50 146.774757,51.61 145.334757,52.57 L145.634757,54.39 C157.194757,52.69 159.274757,48.53 161.524757,51.08 C163.774757,53.61 156.304757,57.94 152.624757,58.53 C151.034757,58.79 148.264757,60.02 145.624757,61.32 C154.714757,61.75 157.134757,59 158.484757,61.42 C159.864757,63.92 152.934757,66.15 149.794757,65.98 L149.804757,65.98 Z" fill="#FF8B66"></path>
                                            <path d="M42.0347567,0 C15.3647567,20 4.70475672,72 2.03475672,96 C-0.63524328,120 -4.63524328,146.67 19.3647567,157.33 C43.3647567,168 104.694757,119.33 106.694757,100 C106.694757,100 120.024757,89.33 116.694757,80 C113.364757,70.67 107.364757,58.67 102.694757,58.67 C98.0247567,58.67 90.6947567,66.67 90.6947567,66.67 C90.6947567,66.67 73.3647567,68 62.6947567,81.34 C62.6947567,81.34 64.6947567,63.34 64.0247567,46.67 C63.3547567,30 42.0247567,0 42.0247567,0 L42.0347567,0 Z" fill="#0D527C"></path>
                                        </g>
                                    </g>
                                </g>
                            </g>
                            <g id="Group" transform="translate(88.7572, 0)">
                                <path d="M12.9527908,48.9580673 C12.5527908,88.4680673 50.5527908,94.1580673 60.4027908,79.5680673 C63.5527908,74.8880673 66.4927908,66.3580673 68.2627908,57.0580673 C68.6727908,54.9480673 69.0127908,52.8080673 69.2827908,50.6580673 C71.1127908,36.0880673 69.6927908,21.3280673 61.5527908,17.4280673 C33.2327908,3.82806733 13.3527908,9.44806733 12.9627908,48.9580673 L12.9527908,48.9580673 Z" id="Path" fill="#FF8B66" fill-rule="nonzero"></path>
                                <path d="M31.3827908,48.4180673 C30.6827908,50.0780673 31.8027908,52.1380673 33.8827908,53.0180673 C35.9627908,53.8980673 38.2227908,53.2580673 38.9227908,51.5880673 C39.6227908,49.9280673 38.5027908,47.8680673 36.4227908,46.9880673 C34.3427908,46.1180673 32.0927908,46.7480673 31.3827908,48.4180673 Z" id="Path" fill="#DB614D" fill-rule="nonzero"></path>
                                <path d="M63.8727908,54.5580673 C64.1627908,56.2680673 66.1027908,57.3580673 68.2527908,57.0480673 C68.6627908,54.9380673 69.0027908,52.7980673 69.2727908,50.6480673 C68.6427908,50.4980673 67.9827908,50.4880673 67.2927908,50.6080673 C65.0727908,51.0180673 63.5427908,52.7880673 63.8727908,54.5580673 L63.8727908,54.5580673 Z" id="Path" fill="#DB614D" fill-rule="nonzero"></path>
                                <path d="M58.1527908,59.5380673 C57.1827908,59.5380673 56.0927908,59.4280673 54.8927908,59.1980673 L55.3027908,57.4180673 C57.9727908,57.9180673 59.9627908,57.7880673 60.9127908,57.0480673 C61.3227908,56.7280673 61.4627908,56.3580673 61.5127908,56.1280673 C56.0627908,48.7080673 56.2027908,39.7580673 56.2127908,39.3780673 L58.2127908,39.4180673 C58.2127908,39.5080673 58.0827908,48.3880673 63.3627908,55.3680673 L63.5227908,55.5780673 L63.5427908,55.8380673 C63.5427908,55.9880673 63.5927908,57.3680673 62.2327908,58.4280673 C61.2827908,59.1680673 59.9227908,59.5380673 58.1727908,59.5380673 L58.1527908,59.5380673 Z" id="Path" fill="#DB614D" fill-rule="nonzero"></path>
                                <path d="M67.6927908,24.8680673 C67.6927908,24.8680673 76.7827908,23.4780673 80.2427908,17.2180673 C80.2427908,17.2180673 76.7727908,17.8680673 73.9627908,17.2180673 C73.9627908,17.2180673 78.2927908,14.1880673 76.7827908,6.84806733 C76.7827908,6.84806733 67.7227908,8.14806733 64.3627908,6.84806733 L69.2727908,3.16806733 C69.2727908,3.16806733 62.2027908,3.59806733 52.6327908,1.43806733 C43.0627908,-0.721932669 23.0127908,-1.58193267 11.1027908,7.26806733 C-0.807209227,16.1280673 -8.64720923,57.3880673 17.3127908,75.2280673 L15.7427908,66.2080673 C15.7427908,66.2080673 11.3027908,58.0580673 13.0227908,52.4380673 C14.7527908,46.8180673 17.8427908,51.3580673 17.8427908,51.3580673 C17.8427908,51.3580673 26.8527908,36.7980673 26.8527908,27.2280673 L26.8527908,17.6480673 C26.8527908,17.6480673 55.3427908,11.1380673 67.6827908,24.8680673 L67.6927908,24.8680673 Z" id="Path" fill="#8B383E" fill-rule="nonzero"></path>
                                <path d="M17.0627908,49.2180673 C17.0627908,49.2180673 11.3527908,41.1380673 5.01279077,45.1880673 C-1.32720923,49.2380673 7.35279077,63.9180673 13.8027908,63.9880673 C20.2427908,64.0580673 17.0627908,49.2180673 17.0627908,49.2180673 L17.0627908,49.2180673 Z" id="Path" fill="#FF8B66" fill-rule="nonzero"></path>
                                <path d="M59.2227908,65.3380673 C63.2427908,65.2680673 55.2327908,76.3380673 52.5727908,74.2480673 C49.9127908,72.1580673 53.9227908,65.4280673 59.2227908,65.3380673 Z" id="Path" fill="#1A4850" fill-rule="nonzero"></path>
                                <path d="M36.6827908,40.5680673 C36.6827908,40.5680673 41.7227908,38.6780673 47.3027908,42.8580673 L46.0527908,44.0580673 C46.0527908,44.0580673 43.1527908,41.6080673 36.6727908,40.5680673 L36.6827908,40.5680673 Z" id="Path" fill="#1A4850" fill-rule="nonzero"></path>
                                <path d="M60.5527908,44.8580673 L61.3027908,46.5980673 C61.3027908,46.5980673 64.4227908,45.2180673 66.5527908,45.7280673 C66.5527908,45.7280673 65.0527908,43.3580673 60.5527908,44.8580673 L60.5527908,44.8580673 Z" id="Path" fill="#1A4850" fill-rule="nonzero"></path>
                                <path d="M37.3027908,29.9880673 C37.3027908,29.9880673 42.8027908,33.1080673 51.3527908,29.9880673" id="Path" stroke="#8B383E" stroke-width="2.5" stroke-linecap="round" stroke-linejoin="round"></path>
                                <path d="M60.5527908,30.8480673 C60.5527908,30.8480673 65.3027908,35.6080673 68.4327908,34.8580673" id="Path" stroke="#8B383E" stroke-width="2.5" stroke-linecap="round" stroke-linejoin="round"></path>
                                <polygon id="Path" fill="#FFFFFF" fill-rule="nonzero" points="27.0927908 32.1080673 30.8727908 23.5680673 36.7827908 25.5380673 32.6827908 34.7380673"></polygon>
                            </g>
                            <g id="Group" transform="translate(159.1099, 62.2488)">
                                <path d="M19.6201244,47.359307 C19.6201244,47.359307 24.2901244,38.029307 38.2901244,34.029307 C52.2901244,30.029307 56.9601244,45.359307 56.9601244,45.359307 C56.9601244,45.359307 68.9601244,48.689307 81.6301244,76.029307 C94.3001244,103.359307 127.630124,148.029307 104.300124,167.359307 C80.9701244,186.689307 62.9701244,172.029307 51.6301244,166.689307 C40.2901244,161.349307 44.3001244,135.359307 44.3001244,135.359307 C44.3001244,135.359307 24.4001244,75.329307 25.6301244,63.359307 C25.6301244,63.359307 19.6301244,52.029307 19.6301244,47.359307 L19.6201244,47.359307 Z" id="Path" fill="#0D527C" fill-rule="nonzero"></path>
                                <g fill-rule="nonzero" id="Path">
                                    <path d="M44.6001244,42.339307 C41.0501244,50.729307 26.8501244,51.379307 26.8501244,51.379307 C26.8501244,51.379307 23.8301244,38.769307 19.1601244,38.009307 C14.4901244,37.259307 3.96012438,33.999307 0.990124375,26.629307 C-1.96987562,19.259307 2.65012438,18.369307 2.65012438,18.369307 C2.54012438,18.259307 2.41012438,18.129307 2.31012438,18.019307 C0.390124375,15.959307 -0.129875625,13.959307 0.440124375,11.789307 C1.21012438,8.79930705 4.05012438,5.47930705 8.16012438,1.17930705 C9.47012438,-0.190692952 12.6301244,1.59930705 12.6301244,1.59930705 C14.7601244,-1.45069295 20.6201244,0.799307048 20.6201244,0.799307048 C22.7501244,-1.34069295 28.3401244,2.60930705 28.3401244,2.60930705 C32.7301244,1.13930705 40.0501244,15.179307 39.0001244,31.069307 L44.5901244,42.349307 L44.6001244,42.339307 Z" fill="#FF8B66"></path>
                                    <path d="M30.8601244,19.259307 C29.9501244,20.859307 23.2401244,25.839307 22.3001244,28.639307 C22.3001244,28.639307 15.3801244,27.949307 14.5801244,25.699307 C13.7801244,23.449307 8.46012438,26.039307 6.32012438,24.049307 C6.32012438,24.049307 14.3701244,25.229307 15.1701244,22.249307 C15.9701244,19.259307 13.5601244,18.649307 10.6601244,19.049307 C8.57012438,19.339307 5.45012438,18.949307 2.32012438,18.029307 C0.400124375,15.969307 -0.119875625,13.969307 0.450124375,11.799307 C3.01012438,13.769307 3.42012438,14.489307 6.32012438,11.459307 C9.37012438,8.25930705 10.5801244,4.26930705 11.5701244,4.26930705 C11.5701244,4.26930705 8.38012438,9.85930705 8.98012438,11.269307 C9.57012438,12.659307 13.1701244,13.249307 13.9701244,11.859307 C14.7701244,10.469307 19.7101244,2.60930705 20.3601244,2.60930705 C20.9701244,2.66930705 16.3701244,10.059307 16.9701244,11.459307 C17.5601244,12.869307 19.0601244,13.249307 20.4101244,12.259307 C21.7701244,11.269307 25.9501244,4.26930705 26.5601244,4.45930705 C27.1501244,4.66930705 23.3601244,12.859307 24.9601244,14.459307 C26.5601244,16.059307 27.7401244,18.039307 29.1401244,17.849307 C30.5501244,17.659307 30.8501244,13.859307 30.8501244,13.859307 C30.8501244,13.859307 28.9801244,12.869307 30.8501244,12.869307 C32.7201244,12.869307 31.7801244,17.659307 30.8501244,19.259307 L30.8601244,19.259307 Z" fill="#EF6E4B"></path>
                                </g>
                            </g>
                            <g id="Group" transform="translate(23.802, 28.8548)">
                                <path d="M186.287957,25.1932692 C185.547957,25.8432692 184.797957,26.4932692 184.087957,27.1732692 C183.367957,27.8432692 182.657957,28.5232692 181.967957,29.2332692 C181.607957,29.5832692 181.257957,29.9432692 180.907957,30.3132692 C180.667957,29.8432692 180.417957,29.3732692 180.177957,28.9032692 L179.507957,27.6132692 L178.567957,28.7032692 C177.987957,29.3832692 177.427957,30.0932692 176.877957,30.7932692 C176.307957,31.4932692 175.787957,32.2232692 175.247957,32.9432692 C174.197957,34.4032692 173.167957,35.8832692 172.267957,37.4732692 C173.707957,36.3532692 175.027957,35.1232692 176.327957,33.8732692 C176.957957,33.2332692 177.607957,32.6132692 178.217957,31.9532692 C178.497957,31.6532692 178.777957,31.3632692 179.057957,31.0632692 C179.287957,31.5332692 179.517957,31.9932692 179.767957,32.4532692 L180.447957,33.7132692 L181.377957,32.6732692 C182.027957,31.9432692 182.687957,31.2132692 183.307957,30.4532692 C183.947957,29.7032692 184.567957,28.9432692 185.167957,28.1632692 C185.787957,27.4032692 186.367957,26.6032692 186.947957,25.8032692 C187.517957,24.9932692 188.087957,24.1832692 188.597957,23.3232692 C187.787957,23.9132692 187.027957,24.5432692 186.277957,25.1932692 L186.287957,25.1932692 Z" id="Path" fill="#FFFFFF" fill-rule="nonzero"></path>
                                <path d="M194.437957,37.4232692 C193.487957,37.7032692 192.537957,37.9732692 191.607957,38.2932692 C190.667957,38.5932692 189.747957,38.9232692 188.827957,39.2632692 C188.347957,39.4332692 187.877957,39.6132692 187.407957,39.7932692 C187.387957,39.2632692 187.367957,38.7432692 187.337957,38.2132692 L187.267957,36.7632692 L185.957957,37.3532692 C185.137957,37.7232692 184.337957,38.1332692 183.537957,38.5332692 C182.727957,38.9232692 181.947957,39.3732692 181.157957,39.7932692 C179.587957,40.6732692 178.027957,41.5832692 176.537957,42.6432692 C178.317957,42.2332692 180.037957,41.6732692 181.737957,41.0832692 C182.577957,40.7732692 183.437957,40.4832692 184.257957,40.1332692 C184.637957,39.9832692 185.017957,39.8332692 185.397957,39.6832692 C185.407957,40.2032692 185.427957,40.7232692 185.457957,41.2432692 L185.537957,42.6732692 L186.817957,42.1232692 C187.717957,41.7332692 188.617957,41.3532692 189.507957,40.9232692 C190.397957,40.5132692 191.287957,40.0832692 192.157957,39.6332692 C193.037957,39.2032692 193.897957,38.7132692 194.767957,38.2432692 C195.627957,37.7532692 196.477957,37.2532692 197.307957,36.6932692 C196.327957,36.8932692 195.367957,37.1432692 194.417957,37.4032692 L194.437957,37.4232692 Z" id="Path" fill="#FFFFFF" fill-rule="nonzero"></path>
                                <path d="M196.107957,50.4532692 C195.117957,50.4532692 194.137957,50.4732692 193.147957,50.5332692 C192.167957,50.5732692 191.187957,50.6332692 190.207957,50.7232692 C189.697957,50.7532692 189.197957,50.8032692 188.697957,50.8532692 C188.817957,50.3432692 188.937957,49.8232692 189.057957,49.3132692 L189.387957,47.9032692 L187.967957,48.1232692 C187.077957,48.2632692 186.197957,48.4432692 185.317957,48.6132692 C184.437957,48.7732692 183.557957,48.9932692 182.687957,49.1832692 C180.937957,49.6132692 179.197957,50.0632692 177.477957,50.6932692 C179.307957,50.7732692 181.107957,50.6932692 182.907957,50.5932692 C183.807957,50.5232692 184.697957,50.4632692 185.597957,50.3632692 C186.007957,50.3232692 186.407957,50.2732692 186.817957,50.2332692 C186.687957,50.7332692 186.557957,51.2432692 186.447957,51.7532692 L186.137957,53.1532692 L187.517957,52.9632692 C188.487957,52.8332692 189.467957,52.7032692 190.427957,52.5332692 C191.397957,52.3832692 192.367957,52.2032692 193.327957,52.0032692 C194.297957,51.8232692 195.257957,51.5932692 196.217957,51.3632692 C197.177957,51.1232692 198.127957,50.8732692 199.087957,50.5532692 C198.087957,50.4732692 197.097957,50.4632692 196.107957,50.4632692 L196.107957,50.4532692 Z" id="Path" fill="#FFFFFF" fill-rule="nonzero"></path>
                                <path d="M6.16795659,123.693269 C5.78795659,123.693269 5.41795659,123.473269 5.25795659,123.103269 C3.55795659,119.283269 6.07795659,117.073269 8.51795659,114.943269 C9.46795659,114.113269 9.33795659,113.843269 8.82795659,112.863269 C8.40795659,112.053269 7.83795659,110.943269 8.20795659,109.453269 C8.54795659,108.093269 9.73795659,107.283269 10.8779566,106.503269 C12.7979566,105.203269 13.8279566,104.353269 12.9179566,102.063269 C12.3579566,100.663269 12.3979566,99.3132692 13.0279566,98.0732692 C14.5979566,95.0032692 19.3979566,93.7732692 19.5979566,93.7232692 C20.1379566,93.5932692 20.6779566,93.9132692 20.8079566,94.4532692 C20.9379566,94.9932692 20.6179566,95.5332692 20.0779566,95.6632692 C18.9379566,95.9532692 15.7579566,97.1132692 14.7979566,98.9932692 C14.4279566,99.7032692 14.4179566,100.473269 14.7679566,101.323269 C16.3279566,105.213269 13.7179566,106.983269 11.9979566,108.163269 C11.1179566,108.763269 10.2979566,109.323269 10.1379566,109.943269 C9.95795659,110.663269 10.1979566,111.173269 10.5979566,111.943269 C11.1379566,112.993269 11.9679566,114.583269 9.82795659,116.453269 C7.09795659,118.843269 6.07795659,120.043269 7.08795659,122.293269 C7.30795659,122.793269 7.08795659,123.393269 6.57795659,123.613269 C6.44795659,123.673269 6.30795659,123.703269 6.16795659,123.703269 L6.16795659,123.693269 Z" id="Path" fill="#FFFFFF" fill-rule="nonzero"></path>
                                <path d="M0.997956593,116.363269 C0.997956593,116.363269 0.927956593,116.363269 0.887956593,116.363269 C0.337956593,116.303269 -0.0620434071,115.813269 0.00795659292,115.263269 C0.147956593,113.973269 0.987956593,113.193269 1.65795659,112.563269 C2.25795659,112.013269 2.61795659,111.643269 2.71795659,111.123269 C2.81795659,110.533269 2.63795659,109.823269 2.44795659,109.073269 C2.15795659,107.953269 1.83795659,106.683269 2.29795659,105.303269 C2.75795659,103.903269 3.87795659,103.203269 4.85795659,102.583269 C5.42795659,102.223269 5.95795659,101.893269 6.25795659,101.483269 C6.71795659,100.863269 6.71795659,100.123269 6.71795659,99.1932692 C6.71795659,98.3832692 6.71795659,97.4632692 7.06795659,96.5232692 C7.93795659,94.2132692 10.3679566,92.9532692 12.1179566,92.2032692 C12.6279566,91.9832692 13.2179566,92.2232692 13.4279566,92.7332692 C13.6479566,93.2432692 13.4079566,93.8332692 12.9079566,94.0432692 C11.4979566,94.6532692 9.54795659,95.6432692 8.94795659,97.2332692 C8.72795659,97.8232692 8.72795659,98.4832692 8.72795659,99.1932692 C8.72795659,100.283269 8.72795659,101.513269 7.88795659,102.673269 C7.35795659,103.383269 6.63795659,103.843269 5.94795659,104.283269 C5.14795659,104.783269 4.45795659,105.223269 4.21795659,105.943269 C3.94795659,106.763269 4.17795659,107.653269 4.40795659,108.583269 C4.64795659,109.503269 4.88795659,110.463269 4.70795659,111.473269 C4.49795659,112.683269 3.68795659,113.433269 3.04795659,114.033269 C2.44795659,114.593269 2.07795659,114.963269 2.01795659,115.483269 C1.95795659,115.993269 1.52795659,116.373269 1.02795659,116.373269 L0.997956593,116.363269 Z" id="Path" fill="#FFFFFF" fill-rule="nonzero"></path>
                                <path d="M59.6679566,26.9132692 C59.3879566,27.2132692 58.9479566,27.3132692 58.5479566,27.1432692 C56.2879566,26.1832692 53.9679566,22.8232692 53.8679566,20.3632692 C53.8379566,19.5532692 54.2279566,18.7332692 54.6079566,17.9432692 C54.8379566,17.4732692 55.2079566,16.6932692 55.1479566,16.4232692 C55.0879566,16.2132692 54.5579566,15.7132692 54.2779566,15.4432692 C53.8679566,15.0432692 53.4679566,14.6732692 53.2379566,14.2532692 C51.8079566,11.5932692 52.8779566,10.1032692 53.7379566,8.90326923 C54.2179566,8.24326923 54.6679566,7.61326923 54.7979566,6.74326923 C54.9079566,6.00326923 54.7079566,5.45326923 54.4779566,4.81326923 C54.0479566,3.64326923 53.5279566,2.19326923 55.6079566,0.263269231 C56.0179566,-0.106730769 56.6479566,-0.0867307692 57.0179566,0.323269231 C57.3979566,0.723269231 57.3679566,1.37326923 56.9679566,1.73326923 C55.8579566,2.75326923 55.9979566,3.13326923 56.3579566,4.12326923 C56.6279566,4.86326923 56.9679566,5.78326923 56.7779566,7.03326923 C56.5779566,8.38326923 55.9079566,9.31326923 55.3679566,10.0632692 C54.5679566,11.1732692 54.1679566,11.7332692 55.0079566,13.2932692 C55.0879566,13.4332692 55.4179566,13.7632692 55.6679566,13.9932692 C56.2579566,14.5632692 56.9279566,15.2032692 57.1079566,15.9832692 C57.3179566,16.9332692 56.8579566,17.8832692 56.4079566,18.8032692 C56.1579566,19.3132692 55.8479566,19.9532692 55.8679566,20.2632692 C55.9379566,21.9532692 57.7779566,24.6232692 59.3279566,25.2832692 C59.8379566,25.5032692 60.0679566,26.0832692 59.8579566,26.5932692 C59.8079566,26.7032692 59.7479566,26.8032692 59.6679566,26.8832692 L59.6679566,26.9132692 Z" id="Path" fill="#FFFFFF" fill-rule="nonzero"></path>
                                <path d="M49.4579566,22.0632692 C49.1479566,22.3932692 48.6279566,22.4732692 48.2179566,22.2332692 C45.5879566,20.6732692 46.4879566,18.8232692 47.0279566,17.7232692 C47.2679566,17.2232692 47.4979566,16.7632692 47.5079566,16.3232692 C47.5279566,15.6532692 47.1279566,14.9232692 46.7179566,14.1332692 C46.0179566,12.8232692 45.1479566,11.1832692 46.0979566,9.29326923 C46.5979566,8.28326923 47.2979566,7.75326923 47.8479566,7.32326923 C48.5079566,6.81326923 48.8779566,6.52326923 48.9779566,5.57326923 C49.0279566,5.05326923 48.9879566,4.64326923 48.9479566,4.24326923 C48.8179566,3.00326923 48.8479566,2.01326923 50.5279566,0.563269231 C50.9479566,0.203269231 51.5779566,0.243269231 51.9379566,0.663269231 C52.2979566,1.08326923 52.2679566,1.71326923 51.8379566,2.07326923 C50.8279566,2.95326923 50.8579566,3.20326923 50.9379566,4.03326923 C50.9879566,4.48326923 51.0479566,5.04326923 50.9679566,5.77326923 C50.7779566,7.57326923 49.8379566,8.31326923 49.0679566,8.90326923 C48.5879566,9.27326923 48.1779566,9.59326923 47.8779566,10.1832692 C47.4179566,11.1032692 47.8079566,11.9232692 48.4779566,13.1832692 C48.9679566,14.1132692 49.5279566,15.1632692 49.5079566,16.3632692 C49.4879566,17.2332692 49.1279566,17.9532692 48.8179566,18.5932692 C48.2679566,19.7132692 48.1879566,19.8832692 49.2379566,20.5032692 C49.7079566,20.7832692 49.8679566,21.4032692 49.5879566,21.8732692 C49.5479566,21.9432692 49.5079566,21.9932692 49.4579566,22.0532692 L49.4579566,22.0632692 Z" id="Path" fill="#FFFFFF" fill-rule="nonzero"></path>
                                <path d="M219.457957,106.083269 C219.197957,106.083269 218.947957,105.983269 218.747957,105.793269 C218.357957,105.403269 218.357957,104.763269 218.747957,104.383269 C219.757957,103.383269 218.547957,101.633269 217.747957,100.683269 C217.537957,100.433269 217.367957,100.313269 217.177957,100.193269 C216.637957,99.8232692 216.197957,99.4532692 215.967957,98.2732692 C215.837957,97.5832692 216.147957,97.0332692 216.407957,96.5932692 C216.597957,96.2632692 216.717957,96.0332692 216.687957,95.8832692 C216.547957,95.3132692 215.977957,94.8932692 215.317957,94.4132692 C214.527957,93.8432692 213.637957,93.1832692 213.317957,92.0732692 C213.107957,91.3732692 213.037957,90.7732692 212.987957,90.2932692 C212.867957,89.2332692 212.827957,88.9132692 211.327957,88.2632692 C210.817957,88.0432692 210.587957,87.4532692 210.807957,86.9532692 C211.027957,86.4432692 211.617957,86.2132692 212.117957,86.4332692 C214.507957,87.4632692 214.797957,88.5432692 214.977957,90.0732692 C215.027957,90.5132692 215.077957,90.9732692 215.237957,91.5132692 C215.377957,91.9732692 215.897957,92.3632692 216.507957,92.8032692 C217.317957,93.4032692 218.337957,94.1432692 218.637957,95.4232692 C218.857957,96.3632692 218.427957,97.1032692 218.147957,97.5932692 C218.077957,97.7032692 217.987957,97.8732692 217.947957,97.9632692 C218.027957,98.3532692 218.057957,98.3732692 218.297957,98.5332692 C218.547957,98.7032692 218.887957,98.9332692 219.277957,99.3932692 C221.407957,101.913269 221.737957,104.243269 220.167957,105.803269 C219.967957,105.993269 219.717957,106.093269 219.457957,106.093269 L219.457957,106.083269 Z" id="Path" fill="#FFFFFF" fill-rule="nonzero"></path>
                                <path d="M223.677957,98.5932692 C223.227957,98.5932692 222.827957,98.2832692 222.717957,97.8232692 C222.597957,97.3332692 222.877957,96.8432692 223.337957,96.6632692 C223.107957,96.2932692 222.647957,95.8732692 222.057957,95.3732692 C221.477957,94.8832692 220.927957,94.4132692 220.597957,93.8432692 C220.327957,93.3932692 220.137957,92.9832692 219.957957,92.6232692 C219.467957,91.6032692 219.257957,91.1732692 217.937957,90.7432692 C217.517957,90.6032692 217.237957,90.2032692 217.247957,89.7532692 L217.277957,89.2132692 C217.387957,87.0732692 217.297957,86.3032692 215.807957,86.0732692 C215.267957,85.9932692 214.887957,85.4832692 214.967957,84.9332692 C215.047957,84.3932692 215.557957,84.0132692 216.107957,84.0932692 C219.397957,84.5932692 219.367957,87.3432692 219.287957,89.1132692 C220.827957,89.8032692 221.277957,90.7532692 221.757957,91.7432692 C221.917957,92.0632692 222.087957,92.4232692 222.317957,92.8132692 C222.477957,93.0932692 222.927957,93.4732692 223.357957,93.8332692 C224.437957,94.7532692 225.917957,96.0132692 225.377957,97.8132692 C225.277957,98.1532692 225.007957,98.4132692 224.667957,98.5032692 C224.397957,98.5732692 224.157957,98.5632692 223.997957,98.5532692 C223.957957,98.5532692 223.927957,98.5532692 223.897957,98.5532692 C223.817957,98.5732692 223.747957,98.5832692 223.667957,98.5832692 L223.677957,98.5932692 Z" id="Path" fill="#FFFFFF" fill-rule="nonzero"></path>
                            </g>
                        </g>
                    </g>
                </g>
            </g>
        </g>
    </g>
</svg>