<?xml version="1.0" encoding="UTF-8"?>
<svg width="298px" height="298px" viewBox="0 0 298 298" version="1.1" xmlns="http://www.w3.org/2000/svg" xmlns:xlink="http://www.w3.org/1999/xlink">
    <title>check</title>
    <defs>
        <linearGradient x1="50%" y1="-8.60871582%" x2="50%" y2="97.6019775%" id="linearGradient-1">
            <stop stop-color="#EEEEEE" offset="0%"></stop>
            <stop stop-color="#FFFFFF" offset="100%"></stop>
        </linearGradient>
        <circle id="path-2" cx="125" cy="125" r="125"></circle>
        <filter x="-17.2%" y="-22.8%" width="134.4%" height="134.4%" filterUnits="objectBoundingBox" id="filter-4">
            <feOffset dx="0" dy="-14" in="SourceAlpha" result="shadowOffsetOuter1"></feOffset>
            <feGaussianBlur stdDeviation="12" in="shadowOffsetOuter1" result="shadowBlurOuter1"></feGaussianBlur>
            <feColorMatrix values="0 0 0 0 0   0 0 0 0 0   0 0 0 0 0  0 0 0 0.138740166 0" type="matrix" in="shadowBlurOuter1"></feColorMatrix>
        </filter>
    </defs>
    <g id="Page-1" stroke="none" stroke-width="1" fill="none" fill-rule="evenodd">
        <g id="donate-heart-issues-question" transform="translate(-59, -74)">
            <g id="Group-3" transform="translate(31, 112)">
                <g id="check" transform="translate(52, 0)">
                    <mask id="mask-3" fill="white">
                        <use xlink:href="#path-2"></use>
                    </mask>
                    <g id="Mask">
                        <use fill="black" fill-opacity="1" filter="url(#filter-4)" xlink:href="#path-2"></use>
                        <use fill="url(#linearGradient-1)" fill-rule="evenodd" xlink:href="#path-2"></use>
                    </g>
                    <g id="heart-issues" mask="url(#mask-3)">
                        <g transform="translate(-13, 46)">
                            <g id="_8" stroke-width="1" fill="none" fill-rule="evenodd">
                                <path d="M27.9711419,170.041215 C27.9711419,170.041215 11.0812505,93.0059123 32.8741527,73.9760007 C50.5978362,58.4986089 69.714535,88.8657999 88.9152855,75.3612812 C106.009142,63.3386644 88.0265798,30.4256132 110.699222,25.1316621 C136.120913,19.1950667 165.238633,84.2437042 190.3936,74.9186206 C220.916663,63.6038113 251.279467,86.5727281 225.040795,170.189517 L27.9722626,170.041215 L27.9711419,170.041215 Z" id="Path" fill="#ADC8F7" fill-rule="nonzero"></path>
                                <path d="M22.6097697,162.092423 C22.0796842,160.55547 21.5563228,158.962341 21.0520131,157.357977 L22.2937356,157.008568 C22.7946833,158.60282 23.3146826,160.184714 23.841406,161.712679 L22.6097697,162.093547 L22.6097697,162.092423 Z M244.757062,160.107192 L243.471633,159.956642 C243.684564,158.319697 243.887408,156.671516 244.074563,155.058165 L245.362234,155.191862 C245.175079,156.811954 244.972234,158.465752 244.757062,160.107192 L244.757062,160.107192 Z M19.622015,152.588703 C19.1681363,151.003438 18.7288266,149.38784 18.3152926,147.78797 L19.5738254,147.495859 C19.985118,149.085617 20.4221864,150.691104 20.872703,152.267381 L19.622015,152.588703 Z M245.892319,150.267543 L244.602407,150.151822 C244.766028,148.508136 244.918441,146.855462 245.054045,145.238739 L246.345077,145.335361 C246.209474,146.9577 246.057061,148.617116 245.892319,150.26642 L245.892319,150.267543 Z M17.1307252,142.960273 C16.7564154,141.344674 16.4000365,139.711099 16.0727956,138.105612 L17.3447767,137.873047 C17.6708969,139.469546 18.0250344,141.093009 18.3959822,142.697373 L17.1307252,142.960273 Z M246.717146,140.398684 L245.423872,140.321162 C245.533699,138.679723 245.630078,137.022554 245.709647,135.397967 L247.004042,135.455266 C246.923352,137.086594 246.826973,138.74938 246.717146,140.398684 L246.717146,140.398684 Z M15.1448658,133.226234 C14.8568489,131.591535 14.5901251,129.942232 14.3525392,128.325509 L15.6357272,128.15586 C15.8721924,129.761347 16.1366748,131.399416 16.423571,133.024003 L15.1459865,133.226234 L15.1448658,133.226234 Z M247.202404,130.508478 L245.906888,130.472525 C245.957319,128.823221 245.992061,127.16493 246.009992,125.544837 L247.305507,125.558319 C247.287576,127.186276 247.252835,128.852433 247.201283,130.509601 L247.202404,130.508478 Z M13.7025401,123.404561 C13.5097817,121.75301 13.3416785,120.091348 13.2027132,118.467885 L14.493746,118.369016 C14.6315906,119.981245 14.7985731,121.630549 14.9902108,123.269741 L13.7025401,123.404561 L13.7025401,123.404561 Z M246.016716,120.616024 C246.001026,118.965597 245.968526,117.308428 245.918095,115.689459 L247.213611,115.653507 C247.264042,117.280341 247.297662,118.946497 247.312231,120.604789 L246.016716,120.616024 Z M12.862024,113.516602 C12.775731,111.85494 12.7196966,110.18766 12.6928001,108.558579 L13.9883156,108.539479 C14.0140914,110.153955 14.0712465,111.808876 14.1564188,113.455933 L12.862024,113.515479 L12.862024,113.516602 Z M245.708527,110.766264 C245.619992,109.118084 245.510165,107.464286 245.383527,105.850934 L246.67568,105.75993 C246.803439,107.383394 246.913266,109.04618 247.002921,110.704472 L245.709647,110.767388 L245.708527,110.766264 Z M14.0006432,103.621902 L12.7051276,103.597185 C12.7409896,101.931029 12.8104723,100.262625 12.9124549,98.6380381 L14.2057291,98.7099424 C14.1059878,100.3188 14.0365052,101.971475 14.0006432,103.621902 L14.0006432,103.621902 Z M244.935252,100.944592 C244.762666,99.2964115 244.566545,97.6504781 244.352494,96.0517318 L245.637923,95.8978118 C245.853095,97.5066696 246.050336,99.163838 246.224043,100.823254 L244.935252,100.944592 L244.935252,100.944592 Z M14.6170217,93.8114647 L13.3282303,93.6890028 C13.5041783,92.0295873 13.7182297,90.3712953 13.9659018,88.759067 L15.2479691,88.9354572 C15.0036591,90.5297094 14.791849,92.1700253 14.6170217,93.8114647 Z M243.627409,91.1779713 C243.357323,89.5399023 243.061461,87.9085745 242.747668,86.3289278 L244.02077,86.1019799 C244.337925,87.6939852 244.636028,89.3387951 244.907234,90.9892226 L243.627409,91.1779713 Z M90.4102835,91.0049516 C88.6104583,90.7364342 87.3082187,89.9600929 85.5039107,88.6197525 L86.3231338,87.6692681 C87.9033041,88.8399593 89.0441646,89.5432729 90.5481282,89.7859497 L90.4102835,91.0060751 L90.4102835,91.0049516 Z M94.9053638,88.0849646 L93.7521757,87.5265831 C94.3450197,86.4266726 94.8695018,84.8998306 95.3099322,82.9898737 L96.5751892,83.2516502 C96.1045001,85.293057 95.5576043,86.8738272 94.9053638,88.0849646 Z M81.7025364,85.0998143 C80.6703826,84.0111389 79.5676254,82.7584319 78.3303857,81.269789 L79.3479706,80.5114238 C80.5672793,81.9787201 81.6521055,83.2123275 82.6652076,84.2807799 L81.7014157,85.1009378 L81.7025364,85.0998143 Z M16.1120197,84.0931547 L14.8400386,83.8594659 C15.1751244,82.221397 15.5550377,80.5878221 15.9685716,79.0048049 L17.2259837,79.2991629 C16.8180532,80.8619571 16.4426227,82.4753089 16.110899,84.0931547 L16.1120197,84.0931547 Z M241.699825,81.5113424 C241.31655,79.8901261 240.901895,78.2835153 240.469309,76.7353267 L241.722239,76.421869 C242.159307,77.9846632 242.576203,79.607003 242.963961,81.2428249 L241.699825,81.5113424 L241.699825,81.5113424 Z M97.4459639,78.3127264 L96.1605345,78.1565593 C96.360017,76.69151 96.5382065,75.0882697 96.705189,73.2524641 L97.9962218,73.3580735 C97.8269979,75.2096082 97.6465671,76.8308245 97.4448432,78.3127264 L97.4459639,78.3127264 Z M75.1565968,77.3150548 C74.1031499,75.9679734 73.0115996,74.5433703 72.0702216,73.3153803 L73.1191857,72.5952142 C74.0583224,73.8220807 75.148752,75.2433133 76.1977161,76.5859006 L75.1565968,77.3161783 L75.1565968,77.3150548 Z M170.003799,77.2139394 C168.99518,77.2139394 168.004491,76.9285694 167.061993,76.3656938 L167.752336,75.3275761 C169.168886,76.1746982 170.563022,76.1769452 172.069227,75.5005957 L172.626209,76.6083707 C171.736383,77.0105852 170.854401,77.2139394 170.003799,77.2139394 Z M18.6044302,74.5703344 L17.3660697,74.2119366 C17.8804656,72.6176843 18.4452925,71.0312966 19.0448606,69.4988371 L20.2596866,69.9246451 C19.6690839,71.4357581 19.1121019,72.9985522 18.6055509,74.5703344 L18.6044302,74.5703344 Z M176.862411,73.4007667 L175.910946,72.5682502 C176.892669,71.560467 177.946116,70.3178715 179.129563,68.7685595 L180.179648,69.487602 C178.964822,71.0773603 177.879995,72.3570314 176.862411,73.4007667 Z M163.378291,72.5570151 C162.540016,71.3323957 161.709586,69.888693 160.838811,68.1461382 L162.00993,67.6214618 C162.85605,69.3145824 163.659583,70.711098 164.466479,71.8896537 L163.379411,72.5570151 L163.378291,72.5570151 Z M239.039311,72.0132391 C238.517071,70.4234809 237.960088,68.8584398 237.384055,67.3608089 L238.601122,66.9406184 C239.185001,68.4562253 239.748707,70.040366 240.276551,71.6492238 L239.039311,72.0132391 Z M69.0006567,69.3145824 C67.8149686,67.7798759 66.8276423,66.5204278 65.8918677,65.3497366 L66.9251422,64.6093475 C67.8653995,65.7845327 68.8572086,67.0495983 70.0462587,68.5899223 L69.0006567,69.3145824 Z M98.3873419,68.4022971 L97.0940678,68.3225283 C97.1926884,66.8844432 97.2924296,65.2688443 97.4000157,63.382481 L98.6932898,63.4487678 C98.5857038,65.3396251 98.4859625,66.9597179 98.3873419,68.4022971 Z M22.2007185,65.3811947 L21.0150304,64.8857295 C21.7266674,63.360011 22.4842526,61.8612565 23.2889067,60.3962073 L24.4376121,60.9635768 C23.6452856,62.4050325 22.9000279,63.8790698 22.1995978,65.3811947 L22.2007185,65.3811947 Z M183.14723,65.3811947 L182.064645,64.7070923 C182.98473,63.3813575 183.936194,61.9769775 184.898866,60.5579918 L185.988174,61.2208592 C185.023262,62.6432154 184.071798,64.0498424 183.14723,65.3811947 Z M158.75321,63.5667357 C158.16597,62.1724672 157.559678,60.6512427 156.899592,58.9165524 L158.11778,58.4997324 C158.773383,60.2220641 159.375192,61.7309301 159.95683,63.1117166 L158.75321,63.5667357 L158.75321,63.5667357 Z M235.477764,62.8016294 C234.781817,61.2646759 234.044404,59.771539 233.287939,58.3649119 L234.442248,57.8076539 C235.21104,59.2389981 235.960781,60.7557286 236.667935,62.3173992 L235.477764,62.8016294 L235.477764,62.8016294 Z M62.6934236,61.4624126 C61.5178217,60.0805026 60.4240301,58.8502657 59.3481694,57.7020445 L60.3175647,56.8875041 C61.4068736,58.0503308 62.5141135,59.2951733 63.702043,60.6928123 L62.6934236,61.4624126 Z M98.9633757,58.4997324 L97.6689808,58.4379397 C97.7563945,56.7987473 97.8426875,55.1584314 97.9357046,53.4889044 L99.2289788,53.5529441 C99.1370823,55.2213476 99.0496687,56.86054 98.962255,58.4997324 L98.9633757,58.4997324 Z M188.83024,57.0773763 L187.749896,56.4010269 C188.832481,54.8494678 189.800756,53.5080039 190.709634,52.2979901 L191.765322,53.0102916 C190.865409,54.207947 189.90498,55.5381757 188.83136,57.0773763 L188.83024,57.0773763 Z M27.0084708,56.731337 L25.9169205,56.0707167 C26.9345054,54.5607272 27.9845902,53.1967933 29.0369164,52.0171141 L30.026484,52.8091844 C29.0111406,53.947294 27.9957971,55.2674113 27.0084708,56.731337 L27.0084708,56.731337 Z M155.17037,54.234911 C154.576406,52.5856071 153.993648,50.9351797 153.501666,49.5386641 L154.731061,49.1499317 C155.221922,50.5442002 155.80468,52.1923807 156.397524,53.8371906 L155.171491,54.2337875 L155.17037,54.234911 Z M55.7866224,54.1495247 C54.4630897,52.9282758 53.16085,51.8497119 51.9168861,50.9430442 L52.7069713,49.9700897 C53.9901593,50.904845 55.3305023,52.0159905 56.6898971,53.2698211 L55.7866224,54.1495247 L55.7866224,54.1495247 Z M230.773115,54.0967201 C229.845185,52.6620054 228.871307,51.3048125 227.880619,50.0633405 L228.913894,49.3229513 C229.930358,50.5958814 230.92777,51.9867794 231.878114,53.4551992 L230.773115,54.0967201 L230.773115,54.0967201 Z M33.6597551,49.4701304 L32.8741527,48.4949289 C34.4207024,47.3770423 36.0311313,46.5703664 37.6594912,46.0984947 L38.0382838,47.2714329 C36.556734,47.7006115 35.0841498,48.4398772 33.6597551,49.4701304 Z M194.88868,49.09488 L193.882302,48.3219092 C195.097128,46.9018001 196.248075,45.6805512 197.402383,44.5862583 L198.319106,45.4536034 C197.198418,46.5164382 196.076609,47.7073525 194.889801,49.09488 L194.88868,49.09488 Z M99.5203577,48.6128968 L98.2270835,48.539869 C98.3391524,46.7557446 98.4501005,45.1367752 98.5677727,43.5874632 L99.8599262,43.6750965 C99.7433746,45.218791 99.6324265,46.8332664 99.5203577,48.6128968 Z M47.6336159,48.3556144 C46.0164629,47.5938786 44.4273271,47.1074013 42.9076739,46.9096646 L43.083622,45.6940333 C44.7433611,45.909746 46.4681002,46.4355459 48.2107703,47.2568274 L47.6336159,48.3556144 Z M224.547692,46.3715062 C223.300366,45.1614923 222.009334,44.09304 220.709335,43.1964837 L221.472524,42.2044297 C222.830798,43.1414321 224.176745,44.2548246 225.475622,45.5142726 L224.548813,46.3715062 L224.547692,46.3715062 Z M151.848651,44.8435407 C151.204255,43.0178466 150.673049,41.5292037 150.177705,40.1585288 L151.402617,39.7608084 C151.900202,41.1348538 152.431408,42.6257437 153.076925,44.4548083 L151.848651,44.8435407 Z M202.195567,42.3223976 L201.452551,41.3168615 C203.046169,40.2607677 204.655477,39.4788088 206.235648,38.9923316 L206.635733,40.1596523 C205.177718,40.6079304 203.68272,41.335961 202.195567,42.3223976 Z M216.330807,40.8191492 C214.725981,40.1776284 213.102104,39.7810314 211.504003,39.6394699 L211.623916,38.4170975 C213.354259,38.5698941 215.107015,38.9979491 216.833996,39.6877806 L216.330807,40.8180257 L216.330807,40.8191492 Z M100.27346,38.7485312 L98.9835481,38.6395513 C99.1449272,36.9183431 99.3208752,35.2544336 99.5057887,33.697257 L100.793459,33.8343245 C100.609667,35.3825131 100.434839,37.0351875 100.274581,38.7485312 L100.27346,38.7485312 Z M148.452965,35.491493 C147.826501,33.8365715 147.237019,32.3232115 146.649778,30.8660268 L147.860121,30.4278602 C148.450724,31.8929095 149.043568,33.414134 149.673395,35.07692 L148.454086,35.4903695 L148.452965,35.491493 Z M101.452424,28.9414644 L100.170357,28.7661977 C100.432598,27.04836 100.720615,25.3956856 101.026563,23.8553615 L102.299664,24.0823093 C101.997079,25.6057808 101.712424,27.2404792 101.452424,28.9414644 Z M144.725557,26.2843773 C144.029609,24.6979896 143.328058,23.1812591 142.639956,21.7735085 L143.815558,21.2578201 C144.510384,22.6790528 145.21978,24.2115123 145.922452,25.8125056 L144.726677,26.2832538 L144.725557,26.2843773 Z M103.40018,19.280453 L102.142768,18.9827244 C102.594405,17.2693808 103.093112,15.6549054 103.623197,14.1853621 L104.84923,14.5819591 C104.330351,16.0189208 103.842852,17.599691 103.40018,19.2793295 L103.40018,19.280453 Z M140.339183,17.3704961 C139.48746,15.8503951 138.616685,14.423545 137.752635,13.1292683 L138.847547,12.473142 C139.729529,13.7932592 140.615993,15.248197 141.484526,16.7952621 L140.340304,17.3704961 L140.339183,17.3704961 Z M106.794745,10.0868194 L105.632591,9.54416691 C106.483193,7.91171553 107.426813,6.46801282 108.436553,5.25350494 L109.454138,6.01299368 C108.500432,7.16009132 107.605002,8.53076626 106.794745,10.0879429 L106.794745,10.0868194 Z M134.782811,9.14869349 C133.650916,7.80498264 132.482038,6.61406835 131.309798,5.60965573 L132.178332,4.69961744 C133.402123,5.74784672 134.619191,6.9881952 135.794792,8.38358723 L134.78169,9.14869349 L134.782811,9.14869349 Z M113.069478,2.83123021 L112.371289,1.79760648 C113.905511,0.867345127 115.59663,0.261776444 117.396455,0 L117.593696,1.21338437 C115.973181,1.45044373 114.451286,1.99421969 113.069478,2.83235371 L113.069478,2.83123021 Z M127.223769,2.83123021 C125.714202,2.06050643 124.142998,1.53358303 122.55162,1.26506556 L122.77912,0.0572987066 C124.506101,0.348286256 126.208426,0.919026314 127.839027,1.75154282 L127.223769,2.83123021 Z" id="Shape" fill="#B3D2FF" fill-rule="nonzero"></path>
                                <path d="M252.967224,139.795362 C242.216462,137.992138 243.97146,154.281823 228.64717,154.281823 C214.636326,154.281823 210.153574,92.2464236 199.959794,109.979812 C147.698742,200.891512 178.045857,71.3177901 136.482895,69.6718567 C117.690075,68.9269735 105.166385,91.6026558 100.549149,131.748826 C93.855279,168.042501 78.3303857,104.06681 62.3538551,110.01464 C52.2004202,113.795231 53.3625739,154.281823 39.3517303,154.281823 C24.0274402,154.281823 25.7813172,137.992138 15.0316763,139.795362 C3.45720882,141.736777 0.199368296,170.569262 0.199368296,170.569262 L267.736773,170.569262 C267.736773,170.569262 264.542812,141.736777 252.968345,139.795362 L252.967224,139.795362 Z" id="Path" fill="#B8D5FF" fill-rule="nonzero"></path>
                                <path d="M243.446978,157.427635 C233.556905,156.658034 235.170696,163.613648 221.072438,163.613648 C208.182283,163.613648 208.53642,148.023906 199.911604,144.710692 C184.02697,138.608942 170.931729,169.489574 164.773547,153.990836 C153.076925,112.86834 118.963177,92.2453001 103.226473,153.990836 C97.068292,169.488451 82.6663282,141.834522 68.0884165,144.710692 C59.1150663,146.480211 59.8166171,163.613648 46.9275824,163.613648 C32.8293252,163.613648 34.4431161,156.658034 24.553043,157.427635 C13.904264,158.256781 10.7237509,170.568138 10.7237509,170.568138 L257.277391,170.568138 C257.277391,170.568138 254.096877,158.255657 243.448098,157.427635 L243.446978,157.427635 Z" id="Path" fill="#CAE5FF" fill-rule="nonzero"></path>
                                <path d="M0.199368296,170.569262 C0.199368296,170.569262 -1.68114646,178.327057 6.10875704,180.269595 C16.7631395,182.926683 79.303143,189.90589 64.1099735,195.209952 C55.5333469,198.204091 68.4885022,202.270052 110.262154,203.766559 C152.036926,205.26419 223.717262,199.397252 199.612381,190.718183 C175.507499,182.039114 273.719007,188.621725 267.736773,170.568138 L0.199368296,170.568138 L0.199368296,170.569262 Z" id="Path" fill="#ADC8F7" fill-rule="nonzero"></path>
                            </g>
                            <path d="M221.873718,174 L186.651187,174 C179.865308,174 173.485297,171.346465 168.687042,166.528443 C163.888787,161.710421 161.246139,155.304126 161.246139,148.490293 L161.246139,130.947982 C161.246139,105.156393 140.348474,84.1726383 114.662701,84.1726383 L67.7173652,84.1726383 C60.3136663,84.1726383 53.3541668,81.2779759 48.1184766,76.0207166 C42.8839138,70.7645893 40,63.7752873 40,56.3410879 L40,35.1320541 C40,34.5071602 40.5050795,34 41.1274096,34 C41.7497397,34 42.2548192,34.5071602 42.2548192,35.1320541 L42.2548192,56.3410879 C42.2548192,70.4385578 53.6766059,81.907398 67.7162378,81.907398 L114.661574,81.907398 C121.254665,81.907398 127.65046,83.204732 133.671955,85.7620422 C139.488261,88.2321843 144.710422,91.7675893 149.195257,96.2709005 C153.680093,100.774212 157.200993,106.019019 159.661001,111.858154 C162.207819,117.904455 163.499831,124.326598 163.499831,130.94685 L163.499831,148.489161 C163.499831,161.306277 173.8844,171.733628 186.650059,171.733628 L221.87259,171.733628 C222.49492,171.733628 223,172.240788 223,172.865682 C223,173.490576 222.49492,173.997736 221.87259,173.997736 L221.873718,174 Z" id="_7" fill="#1D3F70" fill-rule="nonzero"></path>
                            <g id="_6" stroke-width="1" fill="none" fill-rule="evenodd" transform="translate(52, 45)">
                                <path d="M154.10093,39.1655653 C153.691467,51.2680525 143.732744,61.5551666 135.242012,69.5167934 C120.770196,84.1562786 99.8020938,105.319796 85.290907,120 C70.725725,105.435166 49.6057611,84.3191532 35.0709514,69.78712 C26.5363487,61.8865711 16.5348787,51.6028502 16.0579219,39.515067 C13.216429,19.3729089 31.229424,-0.544165566 51.1749941,0.149182532 C64.8155098,-0.655010775 76.1916054,9.45904907 85.0220563,19.2926027 C85.058053,19.2224761 93.4520435,10.8140752 93.7613905,10.457787 C116.412341,-13.3648845 158.067321,6.62457871 154.10093,39.1666964 L154.10093,39.1655653 Z" id="Path" fill="#EB5648" fill-rule="nonzero"></path>
                                <path d="M154.10093,39.1655653 C153.691467,51.2680525 143.732744,61.5551666 135.242012,69.5167934 C120.770196,84.1562786 99.8020938,105.319796 85.290907,120 L85.0220563,19.2926027 C85.058053,19.2224761 93.4520435,10.8140752 93.7613905,10.457787 C116.412341,-13.3648845 158.067321,6.62457871 154.10093,39.1666964 L154.10093,39.1655653 Z" id="Path" fill="#CE3932" fill-rule="nonzero"></path>
                                <path d="M88.8174628,94.8403995 C87.621696,94.8403995 86.5541676,94.0837113 86.1537039,92.9492445 L64.746891,32.3406674 L50.1940829,61.2825778 C49.7126265,62.2394661 48.7373397,62.8423283 47.6709362,62.8423283 L2.82686919,62.8423283 C1.26551048,62.8423283 0,61.5698705 0,59.9999404 C0,58.4300103 1.26551048,57.1575525 2.82686919,57.1575525 L45.9318436,57.1575525 L62.6770783,23.8530913 C63.1877821,22.8385183 64.2530607,22.2288697 65.3790838,22.2989962 C66.5073567,22.3713849 67.4848932,23.1122381 67.8639839,24.1844959 L88.7904653,83.4335226 L105.397338,35.5212462 C105.782053,34.4116631 106.80571,33.6538438 107.973354,33.6153873 C109.136499,33.5757997 110.211902,34.2646235 110.668611,35.3459298 L119.872528,57.1564215 L160.173131,57.1564215 C161.73449,57.1564215 163,58.4288792 163,59.9988093 C163,61.5687394 161.73449,62.8411972 160.173131,62.8411972 L118.000697,62.8411972 C116.865675,62.8411972 115.842017,62.1591599 115.398807,61.1095236 L108.325448,44.3470133 L91.4845965,92.9334095 C91.0897572,94.0724006 90.0233537,94.8370063 88.8230873,94.8403995 L88.815213,94.8403995 L88.8174628,94.8403995 Z" id="Path" fill="#FFFFFF" fill-rule="nonzero"></path>
                            </g>
                            <g id="_5" stroke-width="1" fill="none" fill-rule="evenodd" transform="translate(10, 2)">
                                <circle id="Oval" fill="#1D3F70" fill-rule="nonzero" transform="translate(31.5, 31.5) rotate(-45) translate(-31.5, -31.5)" cx="31.5" cy="31.5" r="22.2738636"></circle>
                                <circle id="Oval" fill="#BEDCED" fill-rule="nonzero" transform="translate(31.5, 31.5) rotate(-45) translate(-31.5, -31.5)" cx="31.5" cy="31.5" r="16.865071"></circle>
                                <path d="M27.8540543,31.4854905 L14.6346703,31.4318939 C14.6592354,25.387758 17.8605171,20.0995577 22.6495988,17.1405775 L27.8540543,31.4854905 L27.8540543,31.4854905 Z" id="Path" fill="#2FAC66" fill-rule="nonzero"></path>
                                <path d="M48.3636957,31.5692352 L35.1443117,31.5156386 L40.4648932,17.2131562 C45.2305264,20.2112174 48.3882608,25.5239827 48.3636957,31.5692352 L48.3636957,31.5692352 Z" id="Path" fill="#EB5648" fill-rule="nonzero"></path>
                                <path d="M34.2588694,40.2898526 C34.2521513,41.8419215 32.9892808,43.0947426 31.4372119,43.0891782 C29.885143,43.08246 28.6323219,41.8195896 28.6378863,40.2675207 C28.6446045,38.7154518 29.9074749,37.4626307 31.4595438,37.4681951 C33.0116127,37.4749132 34.2644338,38.7377837 34.2588694,40.2898526 Z" id="Path" fill="#103663" fill-rule="nonzero"></path>
                                <path d="M40.4648932,17.2131562 L35.1443117,31.5156386 L27.8540543,31.4854905 L22.6495988,17.1405775 C25.2412189,15.5416115 28.297343,14.6226527 31.5678537,14.6359074 C34.8383643,14.649451 37.8877889,15.5929749 40.4648932,17.2131562 L40.4648932,17.2131562 Z" id="Path" fill="#F9B233" fill-rule="nonzero"></path>
                                <path d="M30.2044896,39.1676733 L40.0640352,26.9900737 L33.0998238,41.0256896 C32.6755172,41.882119 31.6370827,42.2316136 30.7806533,41.8061904 C29.9242239,41.3818838 29.5747292,40.3434492 30.0001524,39.4870198 C30.0559822,39.3742436 30.1296776,39.262584 30.2056062,39.1676733 L30.2044896,39.1676733 Z" id="Path" fill="#103663" fill-rule="nonzero"></path>
                            </g>
                            <g id="_4" stroke-width="1" fill="none" fill-rule="evenodd" transform="translate(184, 159)">
                                <path d="M6.25168565,14.1764898 C5.62854925,14.1764898 5.12394422,13.6631742 5.12281535,13.0292811 L5.11378439,3.40949451 C5.11378439,2.77560145 5.61838941,2.26113751 6.24152582,2.25998915 L6.24152582,2.25998915 C6.86466223,2.25998915 7.36926725,2.77330473 7.37039612,3.4071978 L7.37942708,13.0269844 C7.37942708,13.6608775 6.87482206,14.1753414 6.25168565,14.1764898 L6.25168565,14.1764898 Z" id="Path" fill="#1D3F70" fill-rule="nonzero"></path>
                                <path d="M1.42689399,4.84838584 C0.647973479,4.84838584 0.0169349812,4.20645427 0.0158061109,3.41408794 C0.0158061109,2.62172161 0.645715739,1.97749333 1.42576512,1.97749333 L11.0572865,1.96830648 L11.0584154,1.96830648 C11.8373359,1.96830648 12.4683744,2.61023804 12.4695033,3.40260437 C12.4695033,4.1949707 11.8395936,4.83919898 11.0595443,4.83919898 L1.42802286,4.84838584 L1.42689399,4.84838584 Z" id="Path" fill="#1D3F70" fill-rule="nonzero"></path>
                                <path d="M12.5078849,17.5296922 L4.43533334,17.5377327 C1.98794253,17.5400274 0.00225966728,15.5235125 0,13.0350229 L0,13.0350229 C-0.00225581392,10.5453849 1.98004043,8.52542496 4.42630238,8.52312824 L12.4988539,8.51508974 L12.5078849,17.5308406 L12.5078849,17.5296922 Z" id="Path" fill="#1D3F70" fill-rule="nonzero"></path>
                                <path d="M55.3959253,17.4860546 L58.5736952,17.4826096 C61.021086,17.4803129 63.0033823,15.4603529 63,12.9707149 L63,12.9707149 C62.9977379,10.4810769 61.0120551,8.46456204 58.5646643,8.4680027 L55.3868944,8.47145218 L55.3959253,17.487203 L55.3959253,17.4860546 Z" id="Path" fill="#1D3F70" fill-rule="nonzero"></path>
                                <path d="M59.1957058,12.97416 C59.202476,20.153688 48.0074692,25.9850448 34.1900967,26 C23.1373276,26.011457 13.7552865,22.2953738 10.4397945,17.133509 C9.6100748,15.8427558 9.16078442,14.4612823 9.15965247,13.025836 C9.15288232,5.84630807 20.3478891,0.0149512155 34.1652616,0 C42.5572834,-0.0080159245 49.9875077,2.13137317 54.5289529,5.42141598 C57.4640157,7.54817315 59.193445,10.1560919 59.1957058,12.97416 Z" id="Path" fill="#23659B" fill-rule="nonzero"></path>
                                <path d="M55.8090949,9.52908898 C55.8158651,16.708617 44.6208583,22.5399738 30.8034858,22.554925 C22.411464,22.562941 14.9812397,20.4224035 10.4397945,17.133509 C9.6100748,15.8427558 9.16078442,14.4612823 9.15965247,13.025836 C9.15288232,5.84630807 20.3478891,0.0149512155 34.1652616,0 C42.5572834,-0.0080159245 49.9875077,2.13137317 54.5289529,5.42141598 C55.3586726,6.71216925 55.807963,8.09364273 55.8090949,9.52908898 Z" id="Path" fill="#3A72AA" fill-rule="nonzero"></path>
                            </g>
                            <g id="_3" stroke-width="1" fill="none" fill-rule="evenodd" transform="translate(77, 18)">
                                <g id="Group" transform="translate(149.8708, 77.4431)" fill-rule="nonzero">
                                    <polygon id="Path" fill="#FCB4B4" points="16.1292193 10.5796516 11.7236255 10.5796516 11.7236255 29.094042 4.40447453 29.094042 4.40447453 10.5796516 0 10.5796516 8.06349035 0"></polygon>
                                    <polygon id="Path" fill="#F49F9F" points="16.1292193 10.5796516 11.7236255 10.5796516 11.7236255 29.094042 8.06349035 29.094042 8.06349035 0"></polygon>
                                </g>
                                <g id="Group" transform="translate(0, 129.906)" fill-rule="nonzero">
                                    <polygon id="Path" fill="#FCB4B4" points="16.1292193 10.5796516 11.7236255 10.5796516 11.7236255 29.094042 4.40559384 29.094042 4.40559384 10.5796516 0 10.5796516 8.06460966 0"></polygon>
                                    <polygon id="Path" fill="#F49F9F" points="16.1292193 10.5796516 11.7236255 10.5796516 11.7236255 29.094042 8.06460966 29.094042 8.06460966 0"></polygon>
                                </g>
                                <g id="Group" transform="translate(124.4502, 0)" fill-rule="nonzero">
                                    <polygon id="Path" fill="#FCB4B4" points="16.1292193 10.5785295 11.7236255 10.5785295 11.7236255 29.0929199 4.40559384 29.0929199 4.40559384 10.5785295 0 10.5785295 8.06460966 0"></polygon>
                                    <polygon id="Path" fill="#F49F9F" points="16.1292193 10.5785295 11.7236255 10.5785295 11.7236255 29.0929199 8.06460966 29.0929199 8.06460966 0"></polygon>
                                </g>
                            </g>
                            <g id="_2" stroke-width="1" fill="none" fill-rule="evenodd" transform="translate(29, 21)">
                                <g id="Group" transform="translate(166.6847, 100.9245)" fill="#FFFFFF" fill-rule="nonzero">
                                    <path d="M3.99840952,25.3832314 C3.58218545,27.9793136 -0.307822166,27.4285278 0.019532437,24.8201312 C0.435756503,22.2240489 4.32576412,22.7748348 3.99840952,25.3832314 Z" id="Path"></path>
                                    <path d="M5.6565562,0.0202127563 L5.6565562,0.0202127563 C6.74211356,0.176940449 7.48119251,1.1990289 7.28320485,2.27373308 L3.90954006,20.5918419 C3.79029749,21.2411423 3.17608576,21.6799799 2.52025162,21.5848238 L2.52025162,21.5848238 C1.86441748,21.4907872 1.39982143,20.8963414 1.47069202,20.2403241 L3.4561933,1.72182771 C3.57206108,0.635928692 4.57212377,-0.136514936 5.65768113,0.0202127563 L5.6565562,0.0202127563 Z" id="Path"></path>
                                </g>
                                <g id="Group" transform="translate(102.5295, 0)" fill="#EB5648" fill-rule="nonzero">
                                    <path d="M3.99321707,25.3537805 C3.52862102,27.9420264 -0.350137298,27.3195935 0.0255892908,24.7179138 C0.490185342,22.1296679 4.36894366,22.7521008 3.99321707,25.3537805 Z" id="Path"></path>
                                    <path d="M6.12270939,0.0265853389 L6.12270939,0.0265853389 C7.20601689,0.203463735 7.9248471,1.23898599 7.7066107,2.30921223 L3.99321707,20.562391 C3.86160027,21.2094525 3.23951404,21.6370952 2.58480483,21.5296248 L2.58480483,21.5296248 C1.93009562,21.4232738 1.4778738,20.8209917 1.55999368,20.1660938 L3.88859859,1.6867794 C4.02471511,0.603119351 5.03827696,-0.150293057 6.12158446,0.0254658554 L6.12270939,0.0265853389 Z" id="Path"></path>
                                </g>
                                <g id="Group" transform="translate(0, 44.8015)" fill="#3A72AA" fill-rule="nonzero">
                                    <path d="M8.12060131,24.6017201 C8.55594919,27.1944439 4.69181496,27.9041964 4.16872255,25.3271454 C3.73337467,22.7344216 7.59750891,22.024669 8.12060131,24.6017201 Z" id="Path"></path>
                                    <path d="M1.58925827,0.0312957861 L1.58925827,0.0312957861 C2.66919098,-0.163494346 3.69512706,0.572006326 3.85149231,1.65342741 L6.5063269,20.089082 C6.60082101,20.7428604 6.15872355,21.3529789 5.50626421,21.4705247 L5.50626421,21.4705247 C4.85380486,21.5880704 4.22496904,21.1716226 4.08097802,20.5279195 L0.0458544384,2.34190977 C-0.190380842,1.27504198 0.51045049,0.227205402 1.58925827,0.0312957861 L1.58925827,0.0312957861 Z" id="Path"></path>
                                </g>
                                <g id="Group" transform="translate(157.662, 43.0259)" fill="#F49F9F" fill-rule="nonzero">
                                    <path d="M4.01937456,25.3372705 C3.98112694,27.9658178 0.0517467757,27.9758931 0,25.3473458 C0.0382476168,22.7187985 3.96762778,22.7087232 4.01937456,25.3372705 Z" id="Path"></path>
                                    <path d="M2.01024974,0 L2.01024974,0 C3.10818133,0 3.98562666,0.90678165 3.94400426,1.99827808 L3.24204799,20.6085721 C3.21729953,21.2679479 2.67283346,21.7896272 2.00912481,21.7896272 L2.00912481,21.7896272 C1.3465411,21.7896272 0.802075024,21.2679479 0.776201636,20.6085721 L0.0742453739,1.99827808 C0.0326229673,0.90678165 0.911193225,0 2.00799988,0 L2.01024974,0 Z" id="Path"></path>
                                </g>
                            </g>
                            <g id="_1" stroke-width="1" fill="none" fill-rule="evenodd" transform="translate(23, 100)">
                                <path d="M5.72143996,94.0127837 C6.81866411,92.5693778 5.48414122,85.9682167 5.53047097,84.2816161 L10.5160044,84.2816161 C10.5725041,85.9637131 9.32047079,92.5795109 10.3668452,94.0105319 C10.6629036,94.5273207 5.42312154,94.5216912 5.72143996,94.0139096 L5.72143996,94.0127837 Z" id="Path" fill="#F99370" fill-rule="nonzero"></path>
                                <path d="M30.13044,96 L21.4034965,96 C20.8859592,96 20.4814214,95.5575207 20.5288811,95.0441095 C20.6113707,94.1456401 20.8057296,92.910526 20.74358,92.338568 C20.7786098,91.811646 20.0169938,84.9875564 19.9604941,84.2816161 L25.4579149,84.2816161 L24.5708696,91.3275084 C24.4657802,92.1584237 24.9641075,92.9499326 25.7618833,93.2122676 C26.8398975,93.5669266 28.068201,93.7200493 28.8795367,93.9283411 C29.6626225,94.1253738 30.3666087,94.397842 30.7180369,94.9968217 C30.9779355,95.4404269 30.6457173,95.9988741 30.12931,95.9988741 L30.13044,96 Z" id="Path" fill="#F99370" fill-rule="nonzero"></path>
                                <path d="M20.2373427,95.0823902 L20.2373427,95.0925233 C20.3017523,95.610438 20.74358,96 21.2678972,96 L30.0603804,96 C30.5643577,96 30.9338657,95.5124846 30.7801865,95.0339764 C30.316889,93.5916965 28.8648467,92.6977306 24.7471487,92.338568 C24.7471487,92.338568 23.2329567,92.7878027 20.74358,92.338568 C20.74358,92.338568 20.0780135,93.7763443 20.2373427,95.0823902 L20.2373427,95.0823902 Z" id="Path" fill="#395B96" fill-rule="nonzero"></path>
                                <path d="M6.1259778,96 L9.96004739,96 C10.4967945,96 10.9352322,95.5563948 10.9103723,95.0227174 C10.7453932,91.4265877 5.31577212,91.3973143 5.17452287,95.0260951 C5.15418298,95.5597725 5.59036065,96 6.1259778,96 L6.1259778,96 Z" id="Path" fill="#395B96" fill-rule="nonzero"></path>
                                <path d="M27.9913614,94.7581305 C28.068201,94.7581305 28.1416506,94.7119686 28.1721604,94.6365332 C28.5258485,93.7673371 29.1642951,93.5004984 29.191415,93.4903653 C29.4264537,93.4002932 29.2806845,93.0321234 29.0467758,93.127825 C29.0140059,93.1413358 28.2297901,93.4588401 27.8094324,94.490166 C27.7551926,94.615141 27.8557621,94.7603823 27.9902314,94.7581305 L27.9913614,94.7581305 Z" id="Path" fill="#E8C0A6" fill-rule="nonzero"></path>
                                <path d="M26.4715195,94.5757345 C26.555139,94.5757345 26.6319786,94.5216912 26.6579685,94.4383745 C26.9687168,93.437448 27.8512421,92.9656952 27.8602821,92.9611916 C28.0862809,92.8474755 27.9032219,92.4961942 27.6794831,92.6155398 C27.6376733,92.6369319 26.6455386,93.162728 26.2839405,94.3235325 C26.2432607,94.4462558 26.3415702,94.5779863 26.4703895,94.5757345 L26.4715195,94.5757345 Z" id="Path" fill="#E8C0A6" fill-rule="nonzero"></path>
                                <path d="M24.7414987,94.364065 C24.8228583,94.364065 24.8985679,94.3133994 24.9256877,94.2334604 C25.2929358,93.1818683 26.1336513,92.6177916 26.1426912,92.6121621 C26.3562601,92.475928 26.1370413,92.143787 25.9268624,92.2867765 C25.8873126,92.3126723 24.9663675,92.9296663 24.5561797,94.1051076 C24.5109799,94.2289568 24.6092894,94.3663168 24.7403687,94.364065 L24.7414987,94.364065 Z" id="Path" fill="#E8C0A6" fill-rule="nonzero"></path>
                                <path d="M6.6344751,93.5038762 C8.12719715,92.6639536 9.45381009,93.7650853 9.66850894,93.3890342 C9.84365801,92.9938427 7.88876842,92.4027444 6.53503562,93.1402099 C6.36327654,93.2325339 6.44237612,93.5106316 6.6344751,93.5038762 Z" id="Path" fill="#E8C0A6" fill-rule="nonzero"></path>
                                <path d="M30.7948765,95.0823902 L20.2373427,95.0823902 L20.2373427,95.0925233 C20.3017523,95.610438 20.74358,96 21.2678972,96 L30.1530399,96 C30.6219874,96 30.9564656,95.5395062 30.8005264,95.0981528 C30.7982664,95.0925233 30.7971365,95.0880197 30.7948765,95.0823902 L30.7948765,95.0823902 Z" id="Path" fill="#4867AA" fill-rule="nonzero"></path>
                                <path d="M6.04800822,96 L10.039147,96 C10.5340843,96 10.9363622,95.5912977 10.9148923,95.0981528 C10.9148923,95.0925233 10.9148923,95.0880197 10.9148923,95.0823902 L5.17226288,95.0823902 C5.17226288,95.0891456 5.17226288,95.0947751 5.17226288,95.1015305 C5.15418298,95.5935495 5.55420085,96 6.04913821,96 L6.04800822,96 Z" id="Path" fill="#4867AA" fill-rule="nonzero"></path>
                                <path d="M19.1096087,6.21497684 C19.1096087,6.21497684 19.612456,3.39346743 17.1264692,2.47923533 L15.5569076,3.6546766 L19.1107387,6.21497684 L19.1096087,6.21497684 Z" id="Path" fill="#8C4225" fill-rule="nonzero"></path>
                                <path d="M23.4114958,27.2952325 C30.3892086,32.530675 41.3083405,30.9634199 45.345809,23.3478215 L44.3231644,21.2311265 C32.6164268,26.2447663 28.0083113,16.4212748 18.5107119,15.8560722 L20.4237917,18.2880197 C20.4237917,18.2880197 23.2465167,27.1285991 23.4103658,27.2952325 L23.4114958,27.2952325 Z" id="Path" fill="#E9F4FF" fill-rule="nonzero"></path>
                                <path d="M4.92818418,90.9976192 C4.92818418,90.9976192 9.12385184,92.0131824 11.2855303,90.9221838 C12.4110043,83.8920542 15.5343077,64.3182549 16.6213619,50.9042632 C16.6631717,51.6867648 18.9480195,83.230024 19.3830672,90.9221838 C20.8757893,91.4198323 23.8759233,92.0199378 25.5562244,90.8152231 C26.3110603,82.7177388 28.7326374,56.0586407 25.0838869,34.2859556 C25.0838869,34.2859556 15.0845701,35.3938427 7.27631168,33.0429602 C5.12706312,39.9492406 4.55754615,82.7098575 4.92818418,90.9987451 L4.92818418,90.9976192 Z" id="Path" fill="#EB5648" fill-rule="nonzero"></path>
                                <path d="M17.4259176,15.6714244 C17.4948473,13.52433 17.7626558,9.26504427 16.0134252,8.69421216 C14.7568719,8.25961414 13.2697998,9.32584296 13.6562577,10.7365977 C13.7703871,10.6656659 14.1342452,14.6873864 13.8833865,15.8042808 C10.5679842,16.7950742 20.5390511,20.0534334 17.4259176,15.6725503 L17.4259176,15.6714244 Z" id="Path" fill="#F99370" fill-rule="nonzero"></path>
                                <path d="M13.6234879,10.5530757 C13.6325278,10.6138744 13.6426978,10.675799 13.6573877,10.7365977 C13.7398773,10.6825544 13.969266,12.9017064 13.971526,14.5117457 C15.4902379,15.1996716 17.1445491,14.9305811 17.4541675,14.8664047 C17.538917,12.6427491 17.6756463,9.31458394 16.0134252,8.69308626 C14.8280615,8.18755644 13.414439,9.26504427 13.6234879,10.5519498 L13.6234879,10.5530757 Z" id="Path" fill="#E57D61" fill-rule="nonzero"></path>
                                <path d="M11.2358106,9.0691374 C11.4911892,10.6465255 12.0256764,12.4231983 13.2754497,13.466909 L13.2777097,13.466909 C15.10039,14.8416349 17.7694358,14.6952677 19.6226259,13.1798041 L19.6226259,13.1798041 C21.0531983,11.8478625 21.5051959,10.0554272 20.7526199,8.67394593 C20.2599426,7.85991908 19.3536874,7.14271976 19.1084787,6.21497684 C16.98635,0.0416583592 10.3340754,3.49479857 11.2346806,9.0691374 L11.2358106,9.0691374 Z" id="Path" fill="#F99370" fill-rule="nonzero"></path>
                                <path d="M17.2756284,8.09635841 C17.4202677,7.82276432 16.98522,7.60208761 16.8484907,7.8801853 C16.7038515,8.15377939 17.1388992,8.37445611 17.2756284,8.09635841 Z" id="Path" fill="#C16256" fill-rule="nonzero"></path>
                                <path d="M19.2904077,7.75971383 C19.4350469,7.48611974 18.9999993,7.26544303 18.86327,7.54354073 C18.7186308,7.81713481 19.1536784,8.03781153 19.2904077,7.75971383 Z" id="Path" fill="#C16256" fill-rule="nonzero"></path>
                                <path d="M11.2369406,9.0691374 C11.4923192,10.6465255 12.0268064,12.4231983 13.2765797,13.466909 L13.2788397,13.466909 C13.3827992,13.5524776 13.4539888,13.5941359 13.5658582,13.6673195 C12.6144033,12.7260658 12.101386,10.7467308 12.101386,10.7467308 L12.3251248,9.03761215 C13.8607866,7.48724565 13.1997401,5.74322407 13.1997401,5.74322407 C15.7682165,6.46154929 16.6326619,4.88190934 16.6326619,4.88190934 C17.4439975,4.98661819 18.298273,4.57791591 18.298273,4.57791591 C15.2495492,0.430094412 10.3329454,4.83687328 11.2369406,9.06801149 L11.2369406,9.0691374 Z" id="Path" fill="#E57D61" fill-rule="nonzero"></path>
                                <path d="M12.0234164,4.95959655 C13.1149906,5.38969096 13.4980586,7.91621416 10.9182823,9.64334721 C10.9182823,9.64334721 9.66850894,5.48201489 12.0234164,4.95959655 Z" id="Path" fill="#8C4225" fill-rule="nonzero"></path>
                                <path d="M43.3434597,21.6308216 C42.907282,23.7689087 44.8056719,24.2676831 44.8056719,24.2676831 C45.1672699,23.7261244 45.345809,23.3466956 45.3446843,23.3478215 L44.3220344,21.2311265 C44.3220344,21.2311265 43.8711668,21.3819973 43.3423297,21.6319475 L43.3434597,21.6308216 Z" id="Path" fill="#D1E0F2" fill-rule="nonzero"></path>
                                <path d="M18.5287918,9.83587639 C18.9672294,9.83024688 19.6497458,9.53638656 19.0949188,9.14795051 C18.6429212,8.90362986 18.3095729,7.96913153 18.306183,7.95899842 C18.2688932,7.84866006 18.0948741,7.90833284 18.1355539,8.0186712 C18.1502438,8.06032956 18.4948919,9.02860494 19.0090392,9.30670263 C19.3638573,9.52287574 18.6248413,9.73341934 18.3186129,9.62645869 C18.2700231,9.61069607 18.2203034,9.6377177 18.2044835,9.68500557 C18.1784936,9.8471354 18.4157924,9.82461737 18.5287918,9.83700229 L18.5287918,9.83587639 Z" id="Path" fill="#C16256" fill-rule="nonzero"></path>
                                <path d="M6.27400701,42.8045271 C6.75651445,43.6545828 25.2273961,45.2364745 26.5381891,43.6444497 C29.1032755,37.336023 24.3697307,20.5184308 18.5107119,15.8560722 C18.4587321,15.8414355 17.7976857,15.6736762 17.4259176,15.6725503 C17.4519075,15.7761332 18.107304,18.4951856 13.8822565,15.802029 C13.8585266,15.8301765 12.851702,15.8481909 12.5827634,16.0328388 C12.8867318,20.4317364 4.29877753,37.98792 6.27287702,42.8045271 L6.27400701,42.8045271 Z" id="Path" fill="#E8C0A6" fill-rule="nonzero"></path>
                                <path d="M23.6883443,19.6300944 L26.3133203,28.9919662 C30.4061585,31.2392658 37.4019513,30.7787721 40.650684,28.2499971 C29.0196559,32.7389668 28.070461,23.867988 23.8454135,19.6312203 L23.6883443,19.6312203 L23.6883443,19.6300944 Z" id="Path" fill="#D1E0F2" fill-rule="nonzero"></path>
                                <path d="M12.4234343,2.47923533 L12.4494241,2.5321527 C13.3048296,1.52221896 14.8608313,1.02794816 15.2167794,0 C15.2167794,0 15.7444866,0.985163901 15.6834669,2.08629567 C16.0970447,1.62355011 16.4767227,1.11802029 16.7750411,0.575335718 C17.1942689,0.997548818 17.4191377,1.48056061 17.4869373,1.97708321 C18.8192002,1.6877265 19.987614,2.22027796 19.987614,2.22027796 C19.3028376,4.1478215 17.7061561,4.5722864 16.4529928,4.57904181 C15.4133984,5.56983522 13.7534372,6.02019586 12.1488457,5.03840966 L10.601884,7.0301296 C8.40404567,3.2347153 12.4245643,2.48036123 12.4245643,2.48036123 L12.4234343,2.47923533 Z" id="Path" fill="#8C4225" fill-rule="nonzero"></path>
                                <path d="M19.3841972,90.9221838 C19.419227,90.2466428 16.6224919,50.9042632 16.6224919,50.9042632 C16.6224919,50.9042632 17.9434549,51.6068258 18.2575932,55.7839207 C18.5310518,59.4160793 20.1593731,83.5531578 20.5808608,89.7929045 C23.4499156,90.4324166 25.6873037,89.4033425 25.6873037,89.4033425 C25.6002941,90.3175746 25.5573543,90.8140972 25.5573543,90.8140972 C24.1832817,91.800387 21.9255537,91.5774585 20.3322622,91.1912743 C19.9458042,91.102328 19.6452258,91.0066264 19.4938066,90.9559608 C19.4565168,90.9447018 19.420357,90.9323169 19.3853272,90.9210579 L19.3841972,90.9221838 Z" id="Path" fill="#CE3932" fill-rule="nonzero"></path>
                                <path d="M4.92818418,90.9976192 C4.92818418,90.9976192 9.12385184,92.0131824 11.2855303,90.9221838 C11.2855303,90.9221838 11.3747999,90.3783733 11.530739,89.4044684 C11.530739,89.4044684 8.57467477,90.199355 4.87620446,89.3740691 C4.85925455,90.3232041 4.94061411,90.9188061 4.92818418,90.9976192 Z" id="Path" fill="#CE3932" fill-rule="nonzero"></path>
                                <path d="M2.26365837,71.0871753 C6.26044709,72.211951 9.67528891,72.1522782 11.3940098,72.0081628 C12.1544957,71.9451123 12.5827634,71.8662992 12.5827634,71.8662992 C12.5827634,71.8662992 13.9251963,44.224289 14.3331241,38.3819856 C14.9907806,32.3539084 15.472158,18.4231279 12.5827634,16.0350906 L11.5137891,16.3773647 C4.49539648,25.0558142 2.91114492,66.8380226 2.26365837,71.0883012 L2.26365837,71.0871753 Z" id="Path" fill="#E9F4FF" fill-rule="nonzero"></path>
                                <path d="M25.4579149,72.08585 C25.4579149,72.08585 25.8409828,72.143271 26.4104998,72.1635372 C27.5427538,72.2063215 29.4151538,72.097109 30.4615282,71.0871753 C30.5959975,68.8567642 32.4118979,18.7372544 19.790995,15.973166 L19.7898651,15.973166 C19.3796772,15.881968 18.9536695,15.8425614 18.5118419,15.8560722 C26.751758,23.582009 26.2715105,65.5950273 25.4579149,72.0869759 L25.4579149,72.08585 Z" id="Path" fill="#E9F4FF" fill-rule="nonzero"></path>
                                <path d="M13.4008791,12.1766258 C13.4008791,12.1766258 17.7886457,14.783088 19.6237559,13.1786782 C21.2430373,11.762294 21.5018059,10.057679 20.7537499,8.67282003 C20.7537499,8.67282003 18.6892509,9.38889345 14.0246357,9.19298657 C14.0246357,9.19298657 14.351204,11.2894154 13.4008791,12.1766258 Z" id="Path" fill="#E9F4FF" fill-rule="nonzero"></path>
                                <path d="M14.0246357,9.2841846 C14.1263352,9.28756231 14.1489351,9.13106198 14.0483656,9.10629215 L12.1172059,8.58612561 C11.4889292,8.78653609 14.0461056,9.22788952 14.0246357,9.2841846 Z" id="Path" fill="#C16256" fill-rule="nonzero"></path>
                                <path d="M13.4008791,12.2678238 C13.4867586,12.2712015 13.5263084,12.1484783 13.4505988,12.1023163 C13.3963591,12.1192048 11.5657688,10.7275905 11.5522089,10.9538967 C11.4143496,11.0935085 13.3364694,12.2171583 13.3997491,12.2678238 L13.4008791,12.2678238 Z" id="Path" fill="#C16256" fill-rule="nonzero"></path>
                                <path d="M10.2312459,9.86627573 C10.6210939,11.6587111 12.8166722,11.1959655 12.4449042,9.40015247 C12.0550562,7.60771712 9.85947793,8.07046268 10.2312459,9.86627573 Z" id="Path" fill="#F99370" fill-rule="nonzero"></path>
                                <path d="M10.8018929,10.2366974 C10.8617826,10.2366974 10.9069823,10.1770246 10.8889024,10.1196036 C10.5465143,9.16596493 10.970262,8.76514396 11.6154886,9.02973084 C12.2505452,8.81355773 10.0041172,8.2303407 10.7160134,10.1713951 C10.7273133,10.2108016 10.7634731,10.2355715 10.8030229,10.2355715 L10.8018929,10.2366974 Z" id="Path" fill="#C16256" fill-rule="nonzero"></path>
                                <path d="M11.6482584,10.1105964 C11.9228469,10.0723157 11.4019197,9.23239313 10.7058434,9.17609805 C10.588324,9.16596493 10.5770241,9.3506128 10.6934135,9.3562423 C11.3940098,9.42830001 11.4821493,10.0869524 11.6482584,10.1105964 L11.6482584,10.1105964 Z" id="Path" fill="#C16256" fill-rule="nonzero"></path>
                                <path d="M12.4087444,21.3189468 C12.8618719,24.8385152 9.53855963,30.516437 14.7387919,32.1062101 L10.8222328,33.0418343 L9.72952862,28.8219551 L12.4087444,21.3178209 L12.4087444,21.3189468 Z" id="Path" fill="#D1E0F2" fill-rule="nonzero"></path>
                                <path d="M25.4579149,72.08585 C25.4579149,72.08585 25.8409828,72.143271 26.4104998,72.1635372 C27.1822857,64.8688207 26.9653269,55.5069489 26.7913078,50.9042632 C26.6105087,46.1529584 26.0308218,36.3350965 24.4284904,27.6847945 C22.8250289,19.0344925 19.7898651,15.9720401 19.7898651,15.9720401 L19.7887351,15.9720401 C19.3785472,15.8808421 18.9525395,15.8414355 18.5107119,15.8549463 C26.750628,23.5808831 26.2703806,65.5939014 25.4567849,72.08585 L25.4579149,72.08585 Z" id="Path" fill="#D1E0F2" fill-rule="nonzero"></path>
                                <path d="M5.55194086,36.9971266 L5.48414122,37.6636604 C8.57467477,39.1847534 14.3342541,38.3819856 14.3342541,38.3819856 C14.3930138,37.4936492 14.4506435,36.6390899 14.5048832,35.8194335 L6.36214655,33.4381516 C6.10111793,34.8612913 5.75420978,35.5221955 5.55194086,36.9982525 L5.55194086,36.9971266 Z" id="Path" fill="#D1E0F2" fill-rule="nonzero"></path>
                                <path d="M11.3951397,72.0081628 C12.1556257,71.9451123 12.5838934,71.8662992 12.5838934,71.8662992 C12.5838934,71.8662992 13.9263263,44.224289 14.3342541,38.3819856 C14.9919106,32.3539084 15.473288,18.4231279 12.5838934,16.0350906 L11.5149191,16.3773647 C12.4867139,16.9481968 13.8415767,20.9980649 13.8042869,26.8640122 C13.7545672,34.7261831 12.9522715,44.2704509 12.5511236,50.906515 C12.2087354,56.5968217 11.5691588,68.6822495 11.3940098,72.0092887 L11.3951397,72.0081628 Z" id="Path" fill="#D1E0F2" fill-rule="nonzero"></path>
                                <path d="M24.0465524,30.9949452 C24.3561707,31.3754999 23.0724976,31.9035478 22.8464988,32.2998651 C23.6996442,32.4507359 24.6025094,32.3572861 24.6070294,32.3606638 C25.6364539,32.0589222 26.6466685,31.7020114 27.6421932,31.3000645 C27.9574616,31.1638304 28.1958903,31.6468422 27.8874019,31.8100979 C26.9732368,32.3190055 26.0330818,32.7896323 25.0725869,33.2107195 C25.0748469,33.2197267 25.0737169,33.2174749 25.0759769,33.2264821 C26.1381713,33.1454172 27.1969756,33.010309 28.2399601,32.79301 C28.3687794,32.7659884 28.5055087,32.7806251 28.620768,32.8436756 C29.6185527,33.3942415 25.4240151,34.0540198 25.0759769,34.131707 C25.0759769,34.1362106 25.0759769,34.1350847 25.0759769,34.1395883 C26.0805416,34.2319123 27.0952762,34.2082683 28.0975808,34.0832933 C28.24561,34.0652788 28.3981592,34.0990559 28.5134186,34.1913798 C29.3145843,34.8331437 25.1403866,35.1405149 24.7640986,35.0977306 C24.7618386,35.1011083 24.7607086,35.1056119 24.7584486,35.1089896 C25.5302345,35.2936375 26.3246203,35.3870873 27.117876,35.4388788 C27.2466954,35.4467601 27.3709947,35.4951739 27.4647842,35.5841201 C28.2343101,36.3103266 24.6138094,36.0682578 24.2635112,36.0029555 C23.8488034,36.0265994 22.5809502,36.4927227 20.6769103,35.8318184 C20.0836635,35.6257785 19.8192449,32.8864599 20.4204017,32.7490999 C20.8712693,32.6455169 21.671305,32.1884009 21.9232937,32.0566704 C22.3063617,31.7504251 23.6205447,30.5749839 24.0442924,30.9938193 L24.0465524,30.9949452 Z" id="Path" fill="#F99370" fill-rule="nonzero"></path>
                                <path d="M19.3717673,36.2889345 C19.800035,36.1481968 20.2350827,35.9950742 20.6791703,35.8329443 C20.7514899,35.4512637 21.2000975,33.6531989 20.4226617,32.7502258 C1.84104062,31.9418284 16.0032552,25.7291034 11.5149191,16.3751129 C-1.81109994,17.2499384 -8.47580446,44.07567 19.3717673,36.2889345 Z" id="Path" fill="#E9F4FF" fill-rule="nonzero"></path>
                                <path d="M19.3706373,36.2889345 C19.798905,36.1481968 20.2339527,35.9950742 20.6780403,35.8329443 C20.7503599,35.4512637 21.1989676,33.6531989 20.4215317,32.7502258 C20.4215317,32.7502258 19.9130344,32.6961825 19.3706373,32.6961825 C19.3706373,32.6961825 20.2870624,34.30397 19.3706373,36.2878086 L19.3706373,36.2889345 Z" id="Path" fill="#D1E0F2" fill-rule="nonzero"></path>
                                <path d="M16.1332045,7.72481088 C16.1614544,7.72481088 16.1874442,7.70904826 16.1998742,7.68202662 C16.5185325,6.98621943 17.2688485,7.00310796 17.2744984,7.00310796 C17.3129182,7.00310796 17.3490781,6.97270861 17.350208,6.93217616 C17.351338,6.8916437 17.3196982,6.85786665 17.2790184,6.85674075 C17.2699785,6.85674075 16.424743,6.83760042 16.0654049,7.62122794 C16.048455,7.65838269 16.0654049,7.70116695 16.1015647,7.71805547 C16.1117346,7.72255908 16.1219046,7.72481088 16.1320745,7.72481088 L16.1332045,7.72481088 Z" id="Path" fill="#C16256" fill-rule="nonzero"></path>
                                <path d="M19.1514185,6.88151058 C19.1740183,6.88151058 19.1954882,6.87137747 19.2101781,6.85223714 C19.235038,6.819586 19.228258,6.77454993 19.1954882,6.7497801 C19.1785383,6.73739518 18.7728705,6.43790535 18.103914,6.67321879 C18.0654942,6.68672961 18.0451543,6.72838797 18.0587143,6.76666862 C18.0722742,6.80494928 18.114084,6.8252155 18.1525038,6.81170469 C18.7423606,6.60453879 19.0915288,6.85561485 19.1062187,6.86687386 C19.1197786,6.87700698 19.1344685,6.88151058 19.1502885,6.88151058 L19.1514185,6.88151058 Z" id="Path" fill="#C16256" fill-rule="nonzero"></path>
                                <path d="M12.5861534,16.0339647 C13.2573698,16.9785961 19.0045192,20.5443265 18.5118419,15.8560722 C18.4598621,15.8425614 17.7988157,15.6736762 17.4270476,15.6736762 C17.4530375,15.7772591 17.8790452,18.3206708 13.8833865,15.8031549 C13.8664366,15.7918959 12.848312,15.8628277 12.5861534,16.0339647 L12.5861534,16.0339647 Z" id="Path" fill="#D1A68F" fill-rule="nonzero"></path>
                                <path d="M46.3695835,17.7667273 C46.8215811,17.9581305 45.9356659,19.0243594 45.9221059,19.4792236 C46.7470015,19.2146367 47.5007075,18.7102328 47.5063575,18.7124846 C48.2747534,17.9660118 49.0002095,17.1790066 49.6906359,16.3593503 C49.9053347,16.0913857 50.3426424,16.407764 50.1471534,16.6948689 C49.5776365,17.5708204 48.9685697,18.4253797 48.3176932,19.2450361 C48.3233431,19.2517915 48.3222131,19.2506656 48.3278631,19.257421 C49.2284683,18.6910925 50.1008237,18.0774761 50.9200693,17.3985574 C51.0217688,17.3141148 51.1483281,17.2634492 51.2805374,17.265701 C52.4207013,17.2870932 49.0239394,19.8260013 48.7527409,20.0568111 C48.7550008,20.0601888 48.7550008,20.0601888 48.7572608,20.0635665 C49.6883759,19.6762564 50.5742912,19.1819856 51.4014468,18.6043981 C51.5234861,18.5188295 51.6737753,18.4782971 51.8195445,18.5064446 C52.8297591,18.7000997 49.284968,20.9181258 48.9312799,21.0566117 C48.9312799,21.0611153 48.9312799,21.0644931 48.9312799,21.0689967 C49.7008058,20.8730898 50.4466018,20.584859 51.172058,20.2605993 C51.2895773,20.2076819 51.4229166,20.1930452 51.547216,20.2268223 C52.5676005,20.5105495 49.2555882,21.9843547 48.91546,22.0901894 C48.5595119,22.3052366 47.2577588,23.1969507 45.2655794,23.50207 C44.6440827,23.5966458 43.7728574,22.0811822 44.0643958,21.3234504 C44.2305049,20.8922301 44.8327917,19.9284583 44.9943809,19.6942708 C45.1887398,19.2450361 45.7989366,17.5933384 46.3695835,17.7667273 L46.3695835,17.7667273 Z" id="Path" fill="#F99370" fill-rule="nonzero"></path>
                            </g>
                        </g>
                    </g>
                </g>
            </g>
        </g>
    </g>
</svg>