<?xml version="1.0" encoding="UTF-8"?>
<svg id="Layer_2" data-name="Layer 2" xmlns="http://www.w3.org/2000/svg" viewBox="0 0 190.86 153.16">
  <defs>
    <style>
      .cls-1 {
        fill: #263238;
      }

      .cls-1, .cls-2, .cls-3 {
        stroke-width: 0px;
      }

      .cls-2 {
        fill: #ff725e;
      }

      .cls-3 {
        fill: #fff;
      }
    </style>
  </defs>
  <g id="Bot">
    <rect class="cls-1" x="58.14" y="137.38" width="76.9" height="15.77" rx="7.35" ry="7.35" transform="translate(193.18 290.54) rotate(180)"/>
    <rect class="cls-1" x="93.92" y="9.39" width="5.37" height="27.15" transform="translate(193.21 45.94) rotate(180)"/>
    <circle class="cls-2" cx="175.08" cy="102" r="15.78" transform="translate(-18.84 43.26) rotate(-13.37)"/>
    <circle class="cls-2" cx="15.78" cy="100.96" r="15.78" transform="translate(-21.94 5.99) rotate(-12.78)"/>
    <path class="cls-2" d="m93.47,30.66s-64.16-.77-74.32,54.8c-10.16,55.57,44.1,56.61,59.71,57.66,7.08.48,22.22.53,35.58.29,29.58-.51,50.47-6.24,57.59-33.68.83-3.2,1.39-6.49,1.6-9.83,1.88-30.07-18.48-70.73-80.15-69.25Z"/>
    <path class="cls-1" d="m140.02,115.3l-93.21,1.46c-9.77.15-17.81-7.64-17.97-17.41h0c-.15-9.77,7.64-17.81,17.41-17.97l93.21-1.46c9.77-.15,17.81,7.64,17.97,17.41h0c.15,9.77-7.64,17.81-17.41,17.97Z"/>
    <path class="cls-3" d="m66.15,97.41c-.6,3.08-3.59,5.08-6.66,4.48-3.08-.6-5.08-3.59-4.48-6.66.6-3.08,3.59-5.08,6.66-4.48,3.08.6,5.08,3.59,4.48,6.66Z"/>
    <path class="cls-3" d="m131.27,96.37c-.6,3.08-3.59,5.08-6.66,4.48-3.08-.6-5.08-3.59-4.48-6.66.6-3.08,3.59-5.08,6.66-4.48,3.08.6,5.08,3.59,4.48,6.66Z"/>
    <circle class="cls-2" cx="96.61" cy="8.85" r="8.85" transform="translate(22.04 70.9) rotate(-45)"/>
    <path class="cls-3" d="m82.47,94.79c.42.05.21,2.03,1.45,4.67.6,1.31,1.6,2.74,3.01,3.96,1.41,1.22,3.28,2.15,5.33,2.37,2.06.16,4.07-.42,5.68-1.36,1.62-.94,2.86-2.17,3.68-3.35,1.7-2.37,1.85-4.36,2.27-4.33.16,0,.34.5.34,1.44,0,.94-.27,2.31-1.03,3.83-.76,1.52-2.08,3.16-3.99,4.43-1.88,1.28-4.44,2.15-7.19,1.92-2.74-.28-5.1-1.59-6.72-3.19-1.64-1.6-2.65-3.45-3.12-5.08-.48-1.64-.5-3.04-.32-3.96.17-.92.43-1.39.59-1.36Z"/>
    <path class="cls-1" d="m167.9,120.7c-.09-.05,1.06-1.8,2.16-4.95,1.14-3.13,2.13-7.67,2.6-12.74.51-5.08.43-9.71.3-13.05-.08-1.67-.16-3.02-.23-3.96-.07-.93-.09-1.45-.05-1.46.04,0,.12.51.25,1.44.14.93.27,2.28.4,3.96.22,3.35.36,8.01-.15,13.12-.48,5.11-1.54,9.68-2.77,12.82-.6,1.57-1.22,2.8-1.7,3.61-.49.8-.78,1.24-.81,1.22Z"/>
    <path class="cls-1" d="m19.3,83.64s-.08.52-.32,1.43c-.12.45-.27,1.01-.4,1.66-.14.65-.33,1.38-.45,2.21-.31,1.64-.56,3.62-.7,5.83-.11,2.21-.11,4.64.1,7.18.24,2.54.66,4.93,1.16,7.09.53,2.14,1.12,4.05,1.72,5.61.27.79.58,1.48.83,2.1.24.62.48,1.14.69,1.56.39.85.59,1.33.56,1.35-.03.02-.29-.43-.74-1.26-.23-.41-.5-.92-.77-1.53-.28-.61-.62-1.29-.91-2.08-.65-1.56-1.28-3.47-1.84-5.63-.53-2.17-.98-4.59-1.22-7.16-.22-2.57-.2-5.03-.06-7.26.17-2.23.46-4.22.82-5.87.15-.83.36-1.56.53-2.21.16-.65.33-1.2.49-1.65.3-.89.48-1.38.51-1.37Z"/>
    <path class="cls-3" d="m85.35,34.82s-.08.02-.23.04c-.18.02-.41.04-.68.06-.6.06-1.48.08-2.61.22-2.26.2-5.52.65-9.47,1.57-3.95.91-8.57,2.39-13.43,4.64-4.86,2.24-9.93,5.32-14.71,9.24-4.75,3.95-8.74,8.35-11.86,12.69-3.13,4.35-5.46,8.6-7.11,12.3-1.65,3.7-2.71,6.82-3.34,9-.35,1.08-.53,1.94-.71,2.52-.08.26-.14.48-.19.65-.05.15-.07.22-.08.22,0,0,0-.08.03-.23.04-.18.08-.4.14-.67.14-.58.3-1.45.61-2.55.57-2.2,1.58-5.35,3.2-9.09,1.61-3.74,3.92-8.04,7.06-12.43,3.13-4.39,7.13-8.83,11.92-12.82,4.82-3.95,9.94-7.03,14.84-9.27,4.91-2.24,9.57-3.7,13.55-4.57,3.98-.88,7.26-1.27,9.53-1.41,1.13-.1,2.02-.09,2.62-.12.27,0,.5,0,.68,0,.15,0,.23,0,.23.01Z"/>
    <path class="cls-3" d="m22.57,111.8c-.06.02-.45-.72-.91-2-.47-1.27-.98-3.08-1.3-5.13-.32-2.05-.38-3.93-.33-5.29.05-1.36.19-2.18.26-2.18.16,0-.06,3.35.58,7.39.62,4.04,1.86,7.15,1.7,7.21Z"/>
    <path class="cls-3" d="m5.75,106.63s-.23-.16-.54-.54c-.32-.38-.73-.96-1.13-1.75-.82-1.55-1.52-4.01-1.17-6.72.36-2.71,1.69-4.9,2.88-6.19.6-.65,1.14-1.11,1.55-1.39.4-.28.64-.41.66-.38.06.07-.84.69-1.93,2.01-1.09,1.31-2.3,3.43-2.64,6.01-.34,2.58.28,4.95.98,6.49.7,1.56,1.42,2.39,1.34,2.45Z"/>
    <path class="cls-3" d="m97.19,2.68c-.02.1-.91-.23-2.35-.06-1.4.15-3.42.96-4.62,2.8-1.17,1.86-1.07,4.03-.62,5.37.44,1.38,1.11,2.06,1.03,2.12-.02.02-.21-.12-.48-.44-.28-.32-.62-.84-.9-1.55-.57-1.38-.76-3.73.53-5.77,1.32-2.02,3.53-2.82,5.03-2.88.76-.04,1.38.05,1.78.17.41.12.61.23.6.25Z"/>
    <path class="cls-3" d="m184.34,94.5c-.11.12-1.67-1.37-4.02-2.49-2.34-1.15-4.47-1.45-4.44-1.61,0-.13,2.23-.05,4.67,1.14,2.44,1.17,3.89,2.88,3.79,2.96Z"/>
    <path class="cls-3" d="m124.61,76.66c0,.14-12.28.26-27.42.26s-27.42-.12-27.42-.26,12.28-.26,27.42-.26,27.42.12,27.42.26Z"/>
    <path class="cls-3" d="m77.82,139.19s-.16.04-.46.08c-.37.03-.81.07-1.34.12-.58.05-1.29.1-2.12.11-.83.02-1.77.07-2.81.03-2.09,0-4.57-.15-7.32-.44-2.74-.32-5.74-.81-8.85-1.53-3.1-.74-6-1.65-8.6-2.58-2.59-.96-4.87-1.95-6.74-2.87-.95-.44-1.77-.9-2.5-1.29-.74-.38-1.35-.74-1.85-1.04-.45-.28-.83-.51-1.15-.7-.26-.16-.39-.26-.38-.27s.16.05.43.18c.33.17.72.37,1.19.61.51.28,1.14.61,1.89.96.74.36,1.57.8,2.53,1.21,1.88.88,4.17,1.82,6.75,2.75,2.59.91,5.48,1.79,8.56,2.53,3.08.72,6.06,1.21,8.78,1.56,2.72.32,5.19.5,7.27.55,1.04.06,1.98.03,2.8.04.83.01,1.54,0,2.12-.02.53,0,.97-.01,1.34-.02.31,0,.47.01.47.03Z"/>
  </g>
</svg>