<?xml version="1.0" encoding="UTF-8"?>
<svg id="Layer_2" data-name="Layer 2" xmlns="http://www.w3.org/2000/svg" viewBox="0 0 308.69 419.45">
  <defs>
    <style>
      .cls-1 {
        opacity: .3;
      }

      .cls-2, .cls-3, .cls-4, .cls-5, .cls-6, .cls-7, .cls-8 {
        stroke-width: 0px;
      }

      .cls-3 {
        fill: #263238;
      }

      .cls-4 {
        fill: #ff725e;
      }

      .cls-5 {
        fill: #fff;
      }

      .cls-6 {
        fill: #fafafa;
      }

      .cls-7 {
        fill: #ebebeb;
      }

      .cls-8 {
        fill: #f5f5f5;
      }
    </style>
  </defs>
  <g id="Background_Complete" data-name="Background Complete">
    <g>
      <path class="cls-7" d="m62.37,366.46l-10.63-7.31s-6.14,8.92-15.52,2.7c-4.87-3.23-5.2-8.1-4.55-11.22.75-3.62,3.31-6.57,6.68-8.09,3.85-1.73,9.66-1.72,15.95,4.47l16.49-23.96-10.51-7.23-9.66,14.04s-17.36-6.33-28.53,9.91c-10.69,15.54.76,28.74,6.73,32.84,4.56,3.14,20.86,12.73,33.56-6.16Z"/>
      <rect class="cls-7" x="65.83" y="303.45" width="12.94" height="12.09" transform="translate(-43.56 605.45) rotate(-145.47)"/>
    </g>
    <g>
      <path class="cls-7" d="m107.68,395.85l5.64-1.49s-1.25-4.74,3.65-6.12c2.55-.72,4.31.61,5.19,1.75,1.02,1.33,1.28,3.07.8,4.68-.54,1.83-2.26,3.82-6.24,4.15l3.36,12.72,5.58-1.47-1.97-7.45s7.29-4.09,5.02-12.71c-2.18-8.25-10.08-8.22-13.25-7.38-2.42.64-10.52,3.4-7.79,13.33Z"/>
      <rect class="cls-7" x="121.36" y="413.33" width="5.86" height="5.47" transform="translate(-102.01 45.46) rotate(-14.78)"/>
    </g>
    <path class="cls-8" d="m201.42,39.53c2.89-1.75,5.97-3.07,9.14-3.97l1.88-9.05,15.29-.27,2.2,8.98c3.2.79,6.33,2.01,9.28,3.65l7.73-5.07,11,10.62-4.79,7.9c1.75,2.89,3.07,5.97,3.97,9.15l9.05,1.88.27,15.29-8.98,2.2c-.79,3.2-2.01,6.33-3.65,9.28l5.06,7.73-10.62,11-7.9-4.79c-2.89,1.75-5.97,3.07-9.14,3.97l-1.88,9.05-15.29.27-2.2-8.98c-3.2-.79-6.33-2.01-9.28-3.65l-7.73,5.07-11-10.62,4.79-7.9c-1.75-2.89-3.07-5.97-3.97-9.14l-9.05-1.88-.27-15.29,8.98-2.2c.79-3.2,2.01-6.33,3.65-9.28l-5.07-7.73,10.62-11,7.9,4.79h0Zm8.15,20.37c-6.29,6.52-6.11,16.9.41,23.2,6.52,6.29,16.9,6.11,23.2-.41,6.29-6.52,6.11-16.9-.41-23.2-6.52-6.29-16.9-6.11-23.2.41Z"/>
    <path class="cls-7" d="m137.38,7.66c1.67-1.01,3.44-1.77,5.27-2.29l1.08-5.21,8.81-.15,1.27,5.17c1.85.45,3.64,1.16,5.34,2.1l4.45-2.92,6.34,6.12-2.76,4.55c1.01,1.67,1.77,3.44,2.29,5.27l5.21,1.08.15,8.81-5.17,1.27c-.45,1.85-1.16,3.64-2.1,5.34l2.92,4.45-6.12,6.34-4.55-2.76c-1.67,1.01-3.44,1.77-5.27,2.29l-1.08,5.21-8.81.15-1.27-5.17c-1.85-.45-3.64-1.16-5.34-2.1l-4.45,2.92-6.34-6.12,2.76-4.55c-1.01-1.67-1.77-3.44-2.29-5.27l-5.21-1.08-.15-8.81,5.17-1.27c.45-1.85,1.16-3.64,2.1-5.34l-2.92-4.45,6.12-6.34,4.55,2.76h0Zm4.69,11.73c-3.62,3.75-3.52,9.74.23,13.36,3.75,3.62,9.74,3.52,13.36-.23,3.62-3.75,3.52-9.74-.23-13.36-3.75-3.62-9.74-3.52-13.36.23Z"/>
    <path class="cls-7" d="m271.24,212.86c1.67-1.01,3.44-1.77,5.27-2.29l1.08-5.21,8.81-.15,1.27,5.17c1.85.45,3.64,1.15,5.34,2.1l4.45-2.92,6.34,6.12-2.76,4.55c1.01,1.67,1.77,3.44,2.29,5.27l5.21,1.08.15,8.81-5.17,1.27c-.45,1.85-1.15,3.64-2.1,5.34l2.92,4.45-6.12,6.34-4.55-2.76c-1.67,1.01-3.44,1.77-5.27,2.29l-1.09,5.21-8.81.15-1.27-5.17c-1.85-.45-3.64-1.16-5.34-2.1l-4.45,2.92-6.34-6.12,2.76-4.55c-1.01-1.67-1.77-3.44-2.29-5.27l-5.21-1.08-.15-8.81,5.17-1.27c.45-1.85,1.16-3.64,2.1-5.34l-2.92-4.45,6.12-6.34,4.55,2.76h0Zm4.69,11.73c-3.62,3.75-3.52,9.74.23,13.36,3.75,3.62,9.74,3.52,13.36-.24,3.62-3.75,3.52-9.74-.23-13.36-3.75-3.62-9.74-3.52-13.36.24Z"/>
  </g>
  <g id="Speech_Bubble" data-name="Speech Bubble">
    <g>
      <g>
        <path class="cls-6" d="m99.52,118.16l-3.7-11.54c3.76-6.11,5.94-13.3,5.94-21,0-22.14-17.95-40.09-40.09-40.09s-40.09,17.95-40.09,40.09,17.95,40.09,40.09,40.09c9.25,0,17.75-3.14,24.54-8.4v.02s13.32.83,13.32.83Z"/>
        <path class="cls-3" d="m99.52,118.16s-.27,0-.84-.03c-.59-.03-1.43-.07-2.53-.13-2.28-.13-5.62-.31-9.97-.55-.06,0-.11-.06-.11-.12,0-.02.01-.05.02-.06v-.02s.17.16.17.16c-4.09,3.19-10.16,6.63-18.1,7.95-1.97.33-4.05.52-6.21.54-2.15-.09-4.39-.1-6.65-.53-4.53-.71-9.25-2.25-13.69-4.8-4.45-2.54-8.62-6.09-12-10.53-3.39-4.43-5.98-9.76-7.3-15.6-1.35-5.82-1.33-12.15.16-18.27.2-.76.39-1.53.59-2.3.23-.76.53-1.49.8-2.25.3-.74.5-1.52.88-2.23.35-.72.7-1.45,1.05-2.17.32-.74.76-1.42,1.18-2.11l1.27-2.08,1.46-1.96.73-.98c.25-.32.54-.61.81-.92,4.41-5.01,9.91-8.94,15.93-11.17,5.99-2.3,12.36-3.09,18.41-2.52,6.06.58,11.75,2.58,16.61,5.48,4.87,2.9,8.91,6.7,11.97,10.88,3.06,4.19,5.14,8.74,6.34,13.21.66,2.23.94,4.46,1.24,6.61.09,2.16.27,4.25.12,6.26-.48,8.06-3.25,14.43-5.94,18.76v-.09c1.19,3.77,2.09,6.66,2.71,8.64.3.96.52,1.69.68,2.2.15.49.22.73.22.73,0,0-.1-.26-.26-.76-.17-.51-.42-1.25-.74-2.22-.64-1.95-1.58-4.81-2.8-8.53-.01-.03,0-.06.01-.09,2.64-4.32,5.36-10.67,5.79-18.66.15-1.99-.04-4.06-.14-6.2-.3-2.12-.59-4.34-1.25-6.54-1.21-4.42-3.28-8.92-6.32-13.06-3.03-4.13-7.04-7.88-11.86-10.74-4.81-2.85-10.43-4.82-16.41-5.39-5.97-.55-12.26.23-18.18,2.5-5.94,2.2-11.38,6.08-15.73,11.03-.27.3-.56.59-.8.91l-.72.97-1.45,1.93-1.25,2.05c-.42.68-.85,1.35-1.16,2.08-.35.72-.69,1.43-1.03,2.14-.38.7-.57,1.47-.87,2.2-.26.74-.56,1.47-.79,2.22-.19.76-.39,1.51-.58,2.27-1.48,6.04-1.5,12.29-.17,18.04,1.3,5.76,3.85,11.03,7.19,15.42,3.34,4.4,7.46,7.91,11.85,10.44,4.39,2.53,9.05,4.07,13.54,4.79,2.24.44,4.46.45,6.59.55,2.13,0,4.19-.18,6.15-.51,7.87-1.27,13.92-4.65,18.02-7.79.05-.04.12-.03.16.02.03.04.03.1,0,.14v.02s-.1-.18-.1-.18c4.31.3,7.63.53,9.88.68,1.12.08,1.97.14,2.56.18.58.04.88.07.88.07Z"/>
      </g>
      <g>
        <path class="cls-3" d="m50.37,85.6c0,2.25-1.82,4.07-4.07,4.07s-4.07-1.82-4.07-4.07,1.82-4.07,4.07-4.07,4.07,1.82,4.07,4.07Z"/>
        <path class="cls-3" d="m66.66,85.6c0,2.25-1.82,4.07-4.07,4.07s-4.07-1.82-4.07-4.07,1.82-4.07,4.07-4.07,4.07,1.82,4.07,4.07Z"/>
        <path class="cls-3" d="m82.92,83.57c1.12,1.95.46,4.44-1.49,5.56-1.95,1.12-4.44.46-5.56-1.49-1.12-1.95-.46-4.44,1.49-5.56,1.95-1.12,4.44-.46,5.56,1.49Z"/>
      </g>
    </g>
  </g>
  <g id="Bot">
    <g>
      <g>
        <path class="cls-4" d="m84.54,265.5l-42.17-4.4-17.79-40.49-13.86,3.62s10.24,42.79,21.69,49.41c11.45,6.63,50.62,7.83,50.62,7.83l1.51-15.97Z"/>
        <g>
          <circle class="cls-3" cx="92.98" cy="273.64" r="18.68" transform="translate(-173.32 161.35) rotate(-48.37)"/>
          <path class="cls-3" d="m92.98,292.34c-5,0-9.69-1.95-13.23-5.48-3.53-3.53-5.48-8.23-5.48-13.23s1.95-9.69,5.48-13.23c3.53-3.53,8.23-5.48,13.23-5.48s9.69,1.95,13.23,5.48c3.53,3.53,5.48,8.23,5.48,13.23s-1.95,9.69-5.48,13.23c-3.53,3.53-8.23,5.48-13.23,5.48Zm0-37.36c-4.98,0-9.67,1.94-13.19,5.46-3.52,3.52-5.46,8.21-5.46,13.19s1.94,9.67,5.46,13.19c3.52,3.52,8.21,5.46,13.19,5.46s9.67-1.94,13.19-5.46c3.52-3.52,5.46-8.21,5.46-13.19s-1.94-9.67-5.46-13.19c-3.52-3.52-8.21-5.46-13.19-5.46Z"/>
        </g>
        <circle class="cls-3" cx="35.37" cy="263.23" r="14.01" transform="translate(-60.46 15.53) rotate(-13.5)"/>
        <circle class="cls-3" cx="16.64" cy="215.8" r="11.45" transform="translate(-147.72 74.97) rotate(-45)"/>
        <path class="cls-3" d="m24.09,208.14h12.32v5.27h-12.32c-1.35,0-2.45-1.1-2.45-2.45v-.36c0-1.35,1.1-2.45,2.45-2.45Z" transform="translate(187.18 353.08) rotate(139.82)"/>
        <path class="cls-3" d="m14.95,197.31h11.96c.2,0,.35.16.35.35v4.56c0,.2-.16.35-.35.35h-11.96c-1.35,0-2.45-1.1-2.45-2.45v-.36c0-1.35,1.1-2.45,2.45-2.45Z" transform="translate(219.82 180.07) rotate(90)"/>
        <path class="cls-3" d="m7.6,197.82h11.96c.2,0,.35.16.35.35v4.56c0,.2-.16.35-.35.35H7.6c-1.35,0-2.45-1.1-2.45-2.45v-.36c0-1.35,1.1-2.45,2.45-2.45Z" transform="translate(205.41 144.46) rotate(77.39)"/>
        <path class="cls-3" d="m.14,200.94h11.96c.2,0,.35.16.35.35v4.56c0,.2-.16.35-.35.35H.14c-1.35,0-2.45-1.1-2.45-2.45v-.36c0-1.35,1.1-2.45,2.45-2.45Z" transform="translate(178.84 97.39) rotate(60)"/>
      </g>
      <g>
        <rect class="cls-4" x="248.87" y="278.43" width="13.7" height="92.95" transform="translate(618.19 523.81) rotate(156.96)"/>
        <g>
          <circle class="cls-3" cx="231.38" cy="275.59" r="18.68" transform="translate(-128.45 273.97) rotate(-49.73)"/>
          <path class="cls-3" d="m231.41,294.3c-1.85,0-3.72-.28-5.54-.84-4.77-1.47-8.69-4.72-11.02-9.13-2.33-4.42-2.81-9.48-1.34-14.25,1.47-4.77,4.72-8.69,9.13-11.02,4.42-2.33,9.48-2.81,14.25-1.34,4.77,1.47,8.69,4.72,11.02,9.13,2.33,4.42,2.81,9.48,1.34,14.25-1.47,4.77-4.72,8.69-9.13,11.02-2.73,1.44-5.71,2.18-8.72,2.18Zm-.05-37.38c-3,0-5.97.73-8.69,2.17-4.41,2.33-7.64,6.23-9.11,11-1.47,4.76-1,9.81,1.33,14.22s6.23,7.64,11,9.11c4.76,1.47,9.81,1,14.22-1.33,4.41-2.33,7.64-6.23,9.11-11h.02s-.02,0-.02,0c1.47-4.76.99-9.81-1.33-14.22-2.33-4.41-6.23-7.64-11-9.11-1.82-.56-3.67-.84-5.52-.84Z"/>
        </g>
        <circle class="cls-3" cx="255.71" cy="327.66" r="14.01" transform="translate(-128.45 486.3) rotate(-74.47)"/>
        <g>
          <path class="cls-3" d="m287.69,367.63c-2-6-8.49-9.24-14.48-7.23-6,2-9.24,8.49-7.23,14.48,2,6,8.49,9.24,14.48,7.23,6-2,9.24-8.49,7.23-14.48Z"/>
          <path class="cls-3" d="m261.74,377.31h12.32v5.27h-12.32c-1.35,0-2.45-1.1-2.45-2.45v-.36c0-1.35,1.1-2.45,2.45-2.45Z" transform="translate(-196.55 409.94) rotate(-58.64)"/>
          <path class="cls-3" d="m273.84,384.69h11.96c.2,0,.35.16.35.35v4.56c0,.2-.16.35-.35.35h-11.96c-1.35,0-2.45-1.1-2.45-2.45v-.36c0-1.35,1.1-2.45,2.45-2.45Z" transform="translate(-.35 774.38) rotate(-108.46)"/>
          <path class="cls-3" d="m280.65,381.88h11.96c.2,0,.35.16.35.35v4.56c0,.2-.16.35-.35.35h-11.96c-1.35,0-2.45-1.1-2.45-2.45v-.36c0-1.35,1.1-2.45,2.45-2.45Z" transform="translate(103.61 827.57) rotate(-121.07)"/>
          <path class="cls-3" d="m286.73,376.56h11.96c.2,0,.35.16.35.35v4.56c0,.2-.16.35-.35.35h-11.96c-1.35,0-2.45-1.1-2.45-2.45v-.36c0-1.35,1.1-2.45,2.45-2.45Z" transform="translate(258.51 856.43) rotate(-138.46)"/>
        </g>
      </g>
      <path class="cls-4" d="m87.39,254.21s1.35,131.13,74.94,133.7c73.59,2.57,76.68-132.76,76.68-133.7,0,0-8.69-19.56-75.81-18.79-67.12.77-75.81,18.79-75.81,18.79Z"/>
      <rect class="cls-3" x="121.39" y="215.34" width="76.9" height="15.77" rx="7.35" ry="7.35" transform="translate(319.67 446.46) rotate(180)"/>
      <rect class="cls-3" x="157.17" y="87.35" width="5.37" height="27.15" transform="translate(319.7 201.86) rotate(180)"/>
      <circle class="cls-4" cx="238.33" cy="179.96" r="15.78" transform="translate(-35.16 60.01) rotate(-13.37)"/>
      <circle class="cls-4" cx="79.02" cy="178.92" r="15.78" transform="translate(-37.62 21.91) rotate(-12.78)"/>
      <path class="cls-4" d="m156.72,108.62s-64.16-.77-74.32,54.8c-10.16,55.57,44.1,56.61,59.71,57.66,7.08.48,22.22.53,35.58.29,29.58-.51,50.47-6.24,57.59-33.68.83-3.2,1.39-6.49,1.6-9.83,1.88-30.07-18.48-70.73-80.15-69.25Z"/>
      <path class="cls-3" d="m203.26,193.26l-93.21,1.46c-9.77.15-17.81-7.64-17.97-17.41h0c-.15-9.77,7.64-17.81,17.41-17.97l93.21-1.46c9.77-.15,17.81,7.64,17.97,17.41h0c.15,9.77-7.64,17.81-17.41,17.97Z"/>
      <path class="cls-5" d="m129.39,175.37c-.6,3.08-3.59,5.08-6.66,4.48-3.08-.6-5.08-3.59-4.48-6.66.6-3.08,3.59-5.08,6.66-4.48,3.08.6,5.08,3.59,4.48,6.66Z"/>
      <path class="cls-5" d="m194.51,174.33c-.6,3.08-3.59,5.08-6.66,4.48-3.08-.6-5.08-3.59-4.48-6.66.6-3.08,3.59-5.08,6.66-4.48,3.08.6,5.08,3.59,4.48,6.66Z"/>
      <g>
        <g>
          <path class="cls-3" d="m185.14,306.28c-1.02,13.98-13.18,24.48-27.15,23.46-13.98-1.02-24.48-13.18-23.46-27.16s13.18-24.48,27.16-23.46c13.98,1.02,24.48,13.18,23.46,27.16Z"/>
          <path class="cls-5" d="m178.28,305.78c-.74,10.18-9.6,17.84-19.79,17.09-10.18-.74-17.84-9.6-17.09-19.79.74-10.18,9.6-17.84,19.79-17.09,10.18.74,17.84,9.6,17.09,19.79Z"/>
        </g>
        <path class="cls-4" d="m169.36,309.14c-.07-.04-.13-1.14-.17-3.05-.05-1.91-.08-4.64-.09-7.97l.2.37c-2.77-1.62-5.99-3.5-9.51-5.55h.53c-2.98,1.69-6.22,3.5-9.6,5.4-.26.43.35-.59.29-.48h0s0,.02,0,.02v.02s0,.05,0,.05v.09s0,.18,0,.18v.36s-.02.72-.02.72l-.02,1.43c-.02.95-.03,1.88-.05,2.8-.04,1.84-.07,3.62-.1,5.34l-.26-.46c3.48,2.12,6.65,4.06,9.4,5.74h-.42c2.93-1.58,5.35-2.84,7.05-3.71,1.71-.87,2.69-1.34,2.77-1.3.07.04-.78.6-2.4,1.59-1.62.99-4.01,2.41-7.01,4.14l-.21.12-.21-.12c-2.78-1.62-5.99-3.5-9.51-5.55l-.26-.15v-.31c.02-1.72.04-3.5.06-5.34.01-.92.02-1.85.03-2.8l.02-1.43v-.72s.02-.36.02-.36v-.18s0-.09,0-.09v-.05s0-.02,0-.02h0s0-.02,0-.02h0c-.06.1.55-.92.29-.49,3.39-1.88,6.64-3.68,9.63-5.34l.27-.15.26.16c3.48,2.12,6.66,4.07,9.4,5.74l.21.13v.24c-.11,3.46-.23,6.24-.33,8.14-.1,1.9-.19,2.91-.26,2.87Z"/>
      </g>
      <circle class="cls-4" cx="159.85" cy="86.81" r="8.85" transform="translate(-14.57 138.46) rotate(-45)"/>
      <path class="cls-5" d="m145.72,172.75c.42.05.21,2.03,1.45,4.67.6,1.31,1.6,2.74,3.01,3.96,1.41,1.22,3.28,2.15,5.33,2.37,2.06.16,4.07-.42,5.68-1.36,1.62-.94,2.86-2.17,3.68-3.35,1.7-2.37,1.85-4.36,2.27-4.33.16,0,.34.5.34,1.44,0,.94-.27,2.31-1.03,3.83-.76,1.52-2.08,3.16-3.99,4.43-1.88,1.28-4.44,2.15-7.19,1.92-2.74-.28-5.1-1.59-6.72-3.19-1.64-1.6-2.65-3.45-3.12-5.08-.48-1.64-.5-3.04-.32-3.96.17-.92.43-1.39.59-1.36Z"/>
      <path class="cls-3" d="m231.14,198.66c-.09-.05,1.06-1.8,2.16-4.95,1.14-3.13,2.13-7.67,2.6-12.74.51-5.08.43-9.71.3-13.05-.08-1.67-.16-3.02-.23-3.96-.07-.93-.09-1.45-.05-1.46.04,0,.12.51.25,1.44.14.93.27,2.28.4,3.96.22,3.35.36,8.01-.15,13.12-.48,5.11-1.54,9.68-2.77,12.82-.6,1.57-1.22,2.8-1.7,3.61-.49.8-.78,1.24-.81,1.22Z"/>
      <path class="cls-3" d="m82.55,161.6s-.08.52-.32,1.43c-.12.45-.27,1.01-.4,1.66-.14.65-.33,1.38-.45,2.21-.31,1.64-.56,3.62-.7,5.83-.11,2.21-.11,4.64.1,7.18.24,2.54.66,4.93,1.16,7.09.53,2.14,1.12,4.05,1.72,5.61.27.79.58,1.48.83,2.1.24.62.48,1.14.69,1.56.39.85.59,1.33.56,1.35-.03.02-.29-.43-.74-1.26-.23-.41-.5-.92-.77-1.53-.28-.61-.62-1.29-.91-2.08-.65-1.56-1.28-3.47-1.84-5.63-.53-2.17-.98-4.59-1.22-7.16-.22-2.57-.2-5.03-.06-7.26.17-2.23.46-4.22.82-5.87.15-.83.36-1.56.53-2.21.16-.65.33-1.2.49-1.65.3-.89.48-1.38.51-1.37Z"/>
      <path class="cls-3" d="m87.08,254.09s.13.03.39.11c.27.09.64.22,1.11.38,1,.35,2.43.86,4.26,1.5.93.33,1.95.7,3.08,1.1,1.13.38,2.38.73,3.71,1.15,2.67.79,5.68,1.82,9.1,2.62,1.7.44,3.48.89,5.33,1.37,1.86.47,3.82.82,5.84,1.25,4.02.92,8.39,1.55,12.97,2.29,9.19,1.25,19.37,2.1,30.07,2.15,10.71-.04,20.89-.9,30.08-2.15,4.58-.74,8.94-1.37,12.97-2.29,2.02-.44,3.98-.78,5.84-1.25,1.85-.48,3.63-.93,5.33-1.37,3.42-.8,6.42-1.83,9.1-2.62,1.33-.41,2.58-.77,3.71-1.15,1.12-.4,2.15-.77,3.08-1.1,1.83-.65,3.26-1.15,4.26-1.5.47-.16.84-.29,1.11-.38.25-.08.38-.12.39-.11s-.12.06-.37.16c-.27.11-.63.25-1.1.43-.99.37-2.42.91-4.23,1.6-.92.34-1.95.73-3.06,1.14-1.13.39-2.37.76-3.7,1.19-2.67.82-5.67,1.87-9.09,2.7-1.7.45-3.48.92-5.34,1.4-1.86.48-3.82.84-5.84,1.28-4.03.94-8.4,1.59-12.99,2.34-9.21,1.28-19.41,2.15-30.15,2.19-10.73-.05-20.94-.92-30.14-2.2-4.59-.76-8.96-1.4-12.99-2.35-2.02-.45-3.98-.81-5.84-1.28-1.85-.49-3.64-.96-5.34-1.4-3.42-.83-6.42-1.88-9.09-2.7-1.33-.43-2.57-.8-3.7-1.19-1.12-.42-2.14-.8-3.06-1.14-1.82-.69-3.24-1.22-4.23-1.6-.46-.18-.83-.32-1.1-.43-.25-.1-.37-.15-.37-.16Z"/>
      <g class="cls-1">
        <path class="cls-2" d="m87.39,254.21s8.69-18.03,75.81-18.79c67.12-.77,75.81,18.79,75.81,18.79,0,0-67.7,33.39-151.61,0Z"/>
      </g>
      <path class="cls-5" d="m148.6,112.78s-.08.02-.23.04c-.18.02-.41.04-.68.06-.6.06-1.48.08-2.61.22-2.26.2-5.52.65-9.47,1.57-3.95.91-8.57,2.39-13.43,4.64-4.86,2.24-9.93,5.32-14.71,9.24-4.75,3.95-8.74,8.35-11.86,12.69-3.13,4.35-5.46,8.6-7.11,12.3-1.65,3.7-2.71,6.82-3.34,9-.35,1.08-.53,1.94-.71,2.52-.08.26-.14.48-.19.65-.05.15-.07.22-.08.22,0,0,0-.08.03-.23.04-.18.08-.4.14-.67.14-.58.3-1.45.61-2.55.57-2.2,1.58-5.35,3.2-9.09,1.61-3.74,3.92-8.04,7.06-12.43,3.13-4.39,7.13-8.83,11.92-12.82,4.82-3.95,9.94-7.03,14.84-9.27,4.91-2.24,9.57-3.7,13.55-4.57,3.98-.88,7.26-1.27,9.53-1.41,1.13-.1,2.02-.09,2.62-.12.27,0,.5,0,.68,0,.15,0,.23,0,.23.01Z"/>
      <path class="cls-5" d="m85.82,189.76c-.06.02-.45-.72-.91-2-.47-1.27-.98-3.09-1.3-5.13-.32-2.05-.38-3.93-.33-5.29.05-1.36.19-2.18.26-2.18.16,0-.06,3.35.58,7.39.62,4.04,1.86,7.15,1.7,7.21Z"/>
      <path class="cls-5" d="m68.99,184.59s-.23-.16-.54-.54c-.32-.38-.73-.96-1.13-1.75-.82-1.55-1.52-4.01-1.17-6.72.36-2.71,1.69-4.9,2.88-6.19.6-.65,1.14-1.11,1.55-1.39.4-.28.64-.41.66-.38.06.07-.84.69-1.93,2.01-1.09,1.31-2.3,3.43-2.64,6.01-.34,2.58.28,4.95.98,6.49.7,1.56,1.42,2.39,1.34,2.45Z"/>
      <path class="cls-5" d="m160.44,80.64c-.02.1-.91-.23-2.35-.06-1.4.15-3.42.96-4.62,2.8-1.17,1.86-1.07,4.03-.62,5.37.44,1.38,1.11,2.06,1.03,2.12-.02.02-.21-.12-.48-.44-.28-.32-.62-.84-.9-1.55-.57-1.38-.76-3.73.53-5.77,1.32-2.02,3.53-2.82,5.03-2.88.76-.04,1.38.05,1.78.17.41.12.61.23.6.25Z"/>
      <path class="cls-5" d="m247.59,172.46c-.11.12-1.67-1.37-4.02-2.49-2.34-1.15-4.47-1.45-4.44-1.61,0-.13,2.23-.05,4.67,1.14,2.44,1.17,3.89,2.88,3.79,2.96Z"/>
      <path class="cls-5" d="m110.47,347.53s-.05-.06-.13-.19c-.09-.16-.2-.35-.33-.59-.3-.56-.7-1.33-1.21-2.29-.26-.5-.55-1.06-.86-1.67-.29-.62-.6-1.3-.94-2.02-.68-1.45-1.45-3.1-2.19-4.98-.38-.93-.78-1.91-1.2-2.93-.38-1.03-.78-2.11-1.19-3.22-.86-2.21-1.59-4.64-2.44-7.16-1.57-5.09-3.11-10.75-4.46-16.75-1.32-6.01-2.33-11.78-3.13-17.05-.74-5.28-1.32-10.04-1.64-14.06-.19-2.01-.31-3.82-.41-5.42-.11-1.6-.19-2.97-.22-4.1-.04-1.09-.06-1.95-.09-2.59,0-.27,0-.49,0-.67,0-.15,0-.23.01-.23,0,0,.02.08.04.23.02.18.04.4.06.67.05.64.11,1.5.18,2.59.06,1.12.17,2.5.31,4.09.13,1.59.27,3.41.49,5.41.37,4.01.99,8.76,1.75,14.02.82,5.26,1.85,11.01,3.16,17.01,1.35,5.99,2.87,11.63,4.4,16.72.84,2.52,1.55,4.95,2.39,7.16.4,1.11.79,2.19,1.16,3.22.41,1.02.79,2,1.17,2.93.72,1.88,1.46,3.54,2.11,5,.32.73.62,1.41.9,2.04.3.61.57,1.17.82,1.68.47.98.85,1.76,1.13,2.33.11.25.2.45.28.61.06.14.09.21.08.22Z"/>
      <path class="cls-5" d="m71.29,266.01c-.01.14-3.28.03-7.31-.26-4.03-.29-7.28-.64-7.27-.78.01-.14,3.28-.03,7.31.26,4.02.29,7.28.64,7.27.78Z"/>
      <path class="cls-5" d="m33.67,244.65c-.13.07-1.83-2.83-3.81-6.48-1.98-3.65-3.47-6.66-3.35-6.73.13-.07,1.83,2.83,3.81,6.48,1.98,3.65,3.47,6.66,3.35,6.73Z"/>
      <path class="cls-5" d="m145.92,379.06s-.42-.02-1.17-.14c-.75-.11-1.82-.37-3.13-.76-1.31-.38-2.83-.96-4.46-1.71-1.62-.78-3.35-1.75-5.06-2.94-1.7-1.21-3.2-2.51-4.48-3.77-1.26-1.28-2.32-2.52-3.12-3.62-.81-1.09-1.41-2.02-1.77-2.69-.37-.66-.56-1.04-.53-1.05.08-.05.92,1.4,2.59,3.52.83,1.06,1.9,2.25,3.17,3.5,1.28,1.23,2.77,2.5,4.44,3.68,1.68,1.17,3.38,2.14,4.97,2.94,1.6.77,3.09,1.37,4.36,1.8,2.55.86,4.21,1.15,4.19,1.25Z"/>
      <path class="cls-5" d="m161.27,332.8s-.24.04-.7.07c-.46,0-1.14.11-2.02.06-1.76,0-4.31-.29-7.33-1.19-1.51-.44-3.11-1.1-4.78-1.92-1.63-.88-3.35-1.89-4.97-3.21-3.27-2.58-6.31-6.19-8.27-10.61-1.89-4.45-2.46-9.14-2.11-13.29.14-2.08.58-4.03,1.05-5.82.54-1.77,1.15-3.39,1.86-4.8,1.4-2.82,2.94-4.88,4.14-6.17.56-.68,1.1-1.11,1.42-1.44.34-.32.52-.48.53-.46.04.04-.67.71-1.8,2.03-1.14,1.32-2.62,3.39-3.96,6.2-.68,1.4-1.26,3.01-1.77,4.76-.45,1.77-.86,3.69-.99,5.74-.32,4.09.25,8.68,2.11,13.05,1.92,4.33,4.89,7.89,8.09,10.44,1.59,1.31,3.27,2.32,4.87,3.2,1.63.82,3.2,1.49,4.69,1.95,2.97.94,5.49,1.27,7.23,1.34,1.74.07,2.71.02,2.71.07Z"/>
      <path class="cls-5" d="m40.2,254.05c-.04.08-.77-.29-2.04-.58-1.26-.29-3.07-.4-4.99.05-1.92.47-3.48,1.39-4.47,2.22-.99.83-1.48,1.49-1.55,1.44-.04-.02.34-.78,1.31-1.71.96-.93,2.58-1.96,4.59-2.45,2.01-.48,3.92-.3,5.2.1,1.29.39,1.97.89,1.94.93Z"/>
      <path class="cls-5" d="m187.86,154.62c0,.14-12.28.26-27.42.26s-27.42-.12-27.42-.26,12.28-.26,27.42-.26,27.42.12,27.42.26Z"/>
      <path class="cls-5" d="m141.07,217.15s-.16.04-.46.08c-.37.03-.81.07-1.34.12-.58.05-1.29.1-2.12.11-.83.02-1.77.07-2.81.03-2.09,0-4.57-.15-7.32-.44-2.74-.32-5.74-.81-8.85-1.53-3.1-.74-6-1.65-8.6-2.58-2.59-.96-4.87-1.95-6.74-2.87-.95-.44-1.77-.9-2.5-1.29-.74-.38-1.35-.74-1.85-1.04-.45-.28-.83-.51-1.15-.7-.26-.16-.39-.26-.38-.27s.16.05.43.18c.33.17.72.37,1.19.61.51.28,1.14.61,1.89.96.74.36,1.57.8,2.53,1.21,1.88.88,4.17,1.82,6.75,2.75,2.59.91,5.48,1.79,8.56,2.53,3.08.72,6.06,1.21,8.78,1.56,2.72.32,5.19.5,7.27.55,1.04.06,1.98.03,2.8.04.83.01,1.54,0,2.12-.02.53,0,.97-.01,1.34-.02.31,0,.47.01.47.03Z"/>
      <path class="cls-5" d="m220.89,262.22s-.08.05-.24.11c-.19.07-.43.16-.72.27-.67.24-1.6.57-2.78.99-1.21.44-2.69.94-4.44,1.46-1.75.52-3.72,1.17-5.94,1.73-1.11.29-2.27.6-3.48.92-1.21.32-2.49.57-3.8.88-2.62.64-5.46,1.14-8.44,1.7-5.98,1.01-12.61,1.85-19.6,2.31-6.99.41-13.67.38-19.73.11-3.03-.19-5.91-.34-8.59-.65-1.34-.14-2.64-.24-3.88-.41-1.24-.17-2.43-.33-3.57-.49-2.28-.28-4.31-.68-6.11-.99-1.8-.3-3.33-.62-4.58-.9-1.22-.27-2.18-.49-2.88-.64-.3-.07-.55-.13-.75-.18-.17-.04-.25-.07-.25-.08s.09,0,.26.03c.2.03.45.08.76.13.7.13,1.67.31,2.9.55,1.26.25,2.79.55,4.59.81,1.8.28,3.83.66,6.11.91,1.14.14,2.33.3,3.56.45,1.24.15,2.54.24,3.88.38,2.68.29,5.55.42,8.57.6,6.05.24,12.71.26,19.68-.15,6.97-.45,13.58-1.28,19.55-2.26,2.98-.55,5.81-1.03,8.43-1.65,1.31-.3,2.59-.54,3.8-.85,1.21-.31,2.37-.6,3.48-.89,2.23-.53,4.2-1.16,5.95-1.65,1.75-.49,3.25-.97,4.46-1.37,1.19-.38,2.13-.68,2.81-.9.3-.09.54-.16.74-.22.17-.05.25-.07.26-.06Z"/>
    </g>
  </g>
</svg>