<?xml version="1.0" standalone="no"?>
<!DOCTYPE svg PUBLIC "-//W3C//DTD SVG 1.1//EN" "http://www.w3.org/Graphics/SVG/1.1/DTD/svg11.dtd" >
<svg>
<metadata>
Created by FontForge 20090914 at Sun Oct 13 15:02:00 2019
 By www-data
Copyright Saudi Telecom Company
</metadata>
<defs>
<font id="STCForward-Medium" horiz-adv-x="0" >
  <font-face 
    font-family="STC Forward Medium"
    font-weight="500"
    font-stretch="normal"
    units-per-em="1000"
    panose-1="0 0 6 0 0 0 0 0 0 0"
    ascent="800"
    descent="-200"
    x-height="513"
    cap-height="750"
    bbox="-421 -439.997 1375 1003"
    underline-thickness="50"
    underline-position="-50"
    unicode-range="U+0020-U+FEFC"
  />
<missing-glyph horiz-adv-x="861" 
d="M802 750v-750h-743v750h743zM706 659h-551v-568h551v568zM319 205l-56 58l106 106l-106 107l56 57l107 -107l106 106l57 -56l-106 -107l106 -106l-57 -57l-106 107z" />
    <glyph glyph-name="fi" unicode="fi" horiz-adv-x="723" 
d="M34 403v110h92v96c0 44 13.333 78.5 40 103.5s66.667 37.5 120 37.5h159v-110h-148c-30.667 0 -46 -15.333 -46 -46v-81h120v-110h-120v-403h-125v403h-92zM524 750h125v-142h-125v142zM432 403v110h217v-513h-125v403h-92z" />
    <glyph glyph-name="fl" unicode="fl" horiz-adv-x="752" 
d="M34 403v110h92v96c0 44 13.333 78.5 40 103.5s66.667 37.5 120 37.5h159v-110h-148c-30.667 0 -46 -15.333 -46 -46v-81h149v-110h-149v-403h-125v403h-92zM542.5 37c-25 24.667 -37.5 59 -37.5 103v610h125v-598c0 -28 13 -42 39 -42h54v-110h-68
c-50 -0 -87.5 12.333 -112.5 37z" />
    <glyph glyph-name="uniFEF5" unicode="&#xfedf;&#xfe82;" horiz-adv-x="662" arabic-form="isolated" 
d="M592 713v-504.998c0 -73.333 -15.5 -126.333 -46.5 -159s-83.833 -49 -158.5 -49h-357v130h181v394h110v-394h66c24.667 0 43.5 1.66699 56.5 5s22.667 10.166 29 20.499s9.5 26.166 9.5 47.499v510h110zM364.5 602.502
c-13.667 -5.66699 -27.502 -8.49609 -41.502 -8.49609c-15.333 0 -36 5 -62 15c-8 3.33301 -16 6.16602 -24 8.49902s-15 3.5 -21 3.5c-22 0 -43.667 -7 -65 -21l-20 58c9.33301 7.33301 21.333 13.666 36 18.999s29.334 8 44.001 8c8.66699 0 17.334 -1.33301 26.001 -4
s16.667 -5.66699 24 -9c20 -9.33301 37.667 -14 53 -14c11.333 0 22 1.66699 32 5s21 8.66602 33 15.999l17 -58c-7.33301 -6.66699 -17.833 -12.834 -31.5 -18.501z" />
    <glyph glyph-name="uniFEF6" unicode="&#xfee0;&#xfe82;" horiz-adv-x="689" arabic-form="final" 
d="M706 120l0.000976562 -109.998l-17 -10c-35.333 0 -63.833 4.83301 -85.5 14.5s-38.167 24.5 -49.5 44.5c-30.667 -39.333 -86.334 -59 -167.001 -59h-357v130h181v394h110v-394h66c24.667 0 43.5 1.66699 56.5 5s22.667 10.166 29 20.499s9.5 26.166 9.5 47.499v510h110
v-516c0 -21.333 3.33301 -36.833 10 -46.5s16.167 -15.5 28.5 -17.5s31.833 -3 58.5 -3zM364.501 602.502c-13.667 -5.66699 -27.502 -8.49609 -41.502 -8.49609c-15.333 0 -36 5 -62 15c-8 3.33301 -16 6.16602 -24 8.49902s-15 3.5 -21 3.5c-22 0 -43.667 -7 -65 -21
l-20 58c9.33301 7.33301 21.333 13.666 36 18.999s29.334 8 44.001 8c8.66699 0 17.334 -1.33301 26.001 -4s16.667 -5.66699 24 -9c20 -9.33301 37.667 -14 53 -14c11.333 0 22 1.66699 32 5s21 8.66602 33 15.999l17 -58c-7.33301 -6.66699 -17.833 -12.834 -31.5 -18.501
z" />
    <glyph glyph-name="uniFEF7" unicode="&#xfedf;&#xfe84;" horiz-adv-x="662" arabic-form="isolated" 
d="M592 713v-504.998c0 -73.333 -15.5 -126.333 -46.5 -159s-83.833 -49 -158.5 -49h-357v130h181v394h110v-394h66c24.667 0 43.5 1.66699 56.5 5s22.667 10.166 29 20.499s9.5 26.166 9.5 47.499v510h110zM354 663.002l-0.000976562 -65h-187v62h29
c-10 11.333 -15 27 -15 47c0 27.333 9.5 48.5 28.5 63.5s42.167 22.5 69.5 22.5c23.333 0 45 -4.33301 65 -13l-13 -54c-17.333 3.33301 -34.666 5 -51.999 5c-13.333 0 -24 -2.83301 -32 -8.5s-12 -14.167 -12 -25.5s2.33301 -19.833 7 -25.5s13 -8.5 25 -8.5h87z" />
    <glyph glyph-name="uniFEF8" unicode="&#xfee0;&#xfe84;" horiz-adv-x="689" arabic-form="final" 
d="M706 120l0.000976562 -109.998l-17 -10c-35.333 0 -63.833 4.83301 -85.5 14.5s-38.167 24.5 -49.5 44.5c-30.667 -39.333 -86.334 -59 -167.001 -59h-357v130h181v394h110v-394h66c24.667 0 43.5 1.66699 56.5 5s22.667 10.166 29 20.499s9.5 26.166 9.5 47.499v510h110
v-516c0 -21.333 3.33301 -36.833 10 -46.5s16.167 -15.5 28.5 -17.5s31.833 -3 58.5 -3zM354.001 663.002l-0.000976562 -65h-187v62h29c-10 11.333 -15 27 -15 47c0 27.333 9.5 48.5 28.5 63.5s42.167 22.5 69.5 22.5c23.333 0 45 -4.33301 65 -13l-13 -54
c-17.333 3.33301 -34.666 5 -51.999 5c-13.333 0 -24 -2.83301 -32 -8.5s-12 -14.167 -12 -25.5s2.33301 -19.833 7 -25.5s13 -8.5 25 -8.5h87z" />
    <glyph glyph-name="uniFEF9" unicode="&#xfedf;&#xfe88;" horiz-adv-x="662" arabic-form="isolated" 
d="M592 713v-504.998c0 -73.333 -15.5 -126.333 -46.5 -159s-83.833 -49 -158.5 -49h-357v130h181v394h110v-394h66c24.667 0 43.5 1.66699 56.5 5s22.667 10.166 29 20.499s9.5 26.166 9.5 47.499v510h110zM330 -178.998l-0.000976562 -65h-187v62h29
c-10 11.333 -15 27 -15 47c0 27.333 9.5 48.5 28.5 63.5s42.167 22.5 69.5 22.5c23.333 0 45 -4.33301 65 -13l-13 -54c-17.333 3.33301 -34.666 5 -51.999 5c-13.333 0 -24 -2.83301 -32 -8.5s-12 -14.167 -12 -25.5s2.33301 -19.833 7 -25.5s13 -8.5 25 -8.5h87z" />
    <glyph glyph-name="uniFEFA" unicode="&#xfee0;&#xfe88;" horiz-adv-x="689" arabic-form="final" 
d="M706 120l0.000976562 -109.998l-17 -10c-35.333 0 -63.833 4.83301 -85.5 14.5s-38.167 24.5 -49.5 44.5c-30.667 -39.333 -86.334 -59 -167.001 -59h-357v130h181v394h110v-394h66c24.667 0 43.5 1.66699 56.5 5s22.667 10.166 29 20.499s9.5 26.166 9.5 47.499v510h110
v-516c0 -21.333 3.33301 -36.833 10 -46.5s16.167 -15.5 28.5 -17.5s31.833 -3 58.5 -3zM330.001 -178.998l-0.000976562 -65h-187v62h29c-10 11.333 -15 27 -15 47c0 27.333 9.5 48.5 28.5 63.5s42.167 22.5 69.5 22.5c23.333 0 45 -4.33301 65 -13l-13 -54
c-17.333 3.33301 -34.666 5 -51.999 5c-13.333 0 -24 -2.83301 -32 -8.5s-12 -14.167 -12 -25.5s2.33301 -19.833 7 -25.5s13 -8.5 25 -8.5h87z" />
    <glyph glyph-name="uniFEFB" unicode="&#xfedf;&#xfe8e;" horiz-adv-x="662" arabic-form="isolated" 
d="M592 713v-504.998c0 -73.333 -15.5 -126.333 -46.5 -159s-83.833 -49 -158.5 -49h-357v130h181v394h110v-394h66c24.667 0 43.5 1.66699 56.5 5s22.667 10.166 29 20.499s9.5 26.166 9.5 47.499v510h110z" />
    <glyph glyph-name="uniFEFC" unicode="&#xfee0;&#xfe8e;" horiz-adv-x="689" arabic-form="final" 
d="M706 120l0.000976562 -109.998l-17 -10c-35.333 0 -63.833 4.83301 -85.5 14.5s-38.167 24.5 -49.5 44.5c-30.667 -39.333 -86.334 -59 -167.001 -59h-357v130h181v394h110v-394h66c24.667 0 43.5 1.66699 56.5 5s22.667 10.166 29 20.499s9.5 26.166 9.5 47.499v510h110
v-516c0 -21.333 3.33301 -36.833 10 -46.5s16.167 -15.5 28.5 -17.5s31.833 -3 58.5 -3z" />
    <glyph glyph-name="f_b" unicode="fb" horiz-adv-x="1059" 
d="M34 403v110h92v96c0 44 13.333 78.5 40 103.5s66.667 37.5 120 37.5h159v-110h-148c-30.667 0 -46 -15.333 -46 -46v-81h149v-110h-149v-403h-125v403h-92zM892 492.5c36.667 -23 65.334 -55 86.001 -96s31 -87.5 31 -139.5c0 -52.667 -10.333 -99.667 -31 -141
s-49.334 -73.5 -86.001 -96.5s-78 -34.5 -124 -34.5c-68.667 0 -122 24 -160 72v-57h-122v750h122v-294c18.667 23.333 41.5 41 68.5 53s57.5 18 91.5 18c46 0 87.333 -11.5 124 -34.5zM845 141.5c24.667 28.333 36.999 66.833 36.999 115.5c0 48 -12.333 86 -37 114
s-57.334 42 -98.001 42c-32.667 0 -60.667 -8 -84 -24s-41.666 -38.333 -54.999 -67v-131c14 -28.667 32.667 -51.167 56 -67.5s51 -24.5 83 -24.5c40.667 0 73.334 14.167 98.001 42.5z" />
    <glyph glyph-name="f_f" unicode="ff" horiz-adv-x="791" 
d="M34 403v110h92v96c0 44 13.333 78.5 40 103.5s66.667 37.5 120 37.5h159v-110h-148c-30.667 0 -46 -15.333 -46 -46v-81h105v-110h-105v-403h-125v403h-92zM403 403v110h89v96c0 44 13.333 78.5 40 103.5s66.667 37.5 120 37.5h159v-110h-148
c-30.667 0 -46 -15.333 -46 -46v-81h149v-110h-149v-403h-125v403h-89z" />
    <glyph glyph-name="f_f_b" unicode="ffb" horiz-adv-x="1425" 
d="M251 513h96v-110h-96v-403h-125v403h-92v110h92v96c0 44 13.333 78.5 40 103.5s66.667 37.5 120 37.5h159v-110h-148c-30.667 0 -46 -15.333 -46 -46v-81zM532 712.5c26.667 25 66.667 37.5 120 37.5h159v-110h-148c-30.667 0 -46 -15.333 -46 -46v-81h149v-110h-149
v-403h-125v403h-92v110h92v96c0 44 13.333 78.5 40 103.5zM1258 492.5c36.667 -23 65.334 -55 86.001 -96s31 -87.5 31 -139.5c0 -52.667 -10.333 -99.667 -31 -141s-49.334 -73.5 -86.001 -96.5s-78 -34.5 -124 -34.5c-68.667 0 -122 24 -160 72v-57h-122v750h122v-294
c18.667 23.333 41.5 41 68.5 53s57.5 18 91.5 18c46 0 87.333 -11.5 124 -34.5zM1211 141.5c24.667 28.333 36.999 66.833 36.999 115.5c0 48 -12.333 86 -37 114s-57.334 42 -98.001 42c-32.667 0 -60.667 -8 -84 -24s-41.666 -38.333 -54.999 -67v-131
c14 -28.667 32.667 -51.167 56 -67.5s51 -24.5 83 -24.5c40.667 0 73.334 14.167 98.001 42.5z" />
    <glyph glyph-name="f_f_h" unicode="ffh" horiz-adv-x="1416" 
d="M251 513h97v-110h-97v-403h-125v403h-92v110h92v96c0 44 13.333 78.5 40 103.5s66.667 37.5 120 37.5h159v-110h-148c-30.667 0 -46 -15.333 -46 -46v-81zM532 712.5c26.667 25 66.667 37.5 120 37.5h159v-110h-148c-30.667 0 -46 -15.333 -46 -46v-81h149v-110h-149
v-403h-125v403h-92v110h92v96c0 44 13.333 78.5 40 103.5zM1295.5 472.5c34.333 -36.333 51.501 -84.499 51.501 -144.499v-328h-125v297c0 35.333 -8.66699 63.5 -26 84.5s-43.666 31.5 -78.999 31.5c-28 0 -55.333 -8.33301 -82 -25s-46 -37.667 -58 -63v-325h-125v750
h125v-301c21.333 25.333 47.166 44.666 77.499 57.999s63.833 20 100.5 20c59.333 0 106.166 -18.167 140.499 -54.5z" />
    <glyph glyph-name="f_f_i" unicode="ffi" horiz-adv-x="1089" 
d="M34 403v110h92v96c0 44 13.333 78.5 40 103.5s66.667 37.5 120 37.5h159v-110h-148c-30.667 0 -46 -15.333 -46 -46v-81h105v-110h-105v-403h-125v403h-92zM403 403v110h89v96c0 44 13.333 78.5 40 103.5s66.667 37.5 120 37.5h159v-110h-148
c-30.667 0 -46 -15.333 -46 -46v-81h149v-110h-149v-403h-125v403h-89zM890 750h125v-142h-125v142zM815 403v110h200v-513h-125v403h-75z" />
    <glyph glyph-name="f_f_j" unicode="ffj" horiz-adv-x="1089" 
d="M34 403v110h92v96c0 44 13.333 78.5 40 103.5s66.667 37.5 120 37.5h159v-110h-148c-30.667 0 -46 -15.333 -46 -46v-81h100v-110h-100v-403h-125v403h-92zM400 403v110h92v96c0 44 13.333 78.5 40 103.5s66.667 37.5 120 37.5h159v-110h-148
c-30.667 0 -46 -15.333 -46 -46v-81h99v-110h-99v-403h-125v403h-92zM890 750h125v-142h-125v142zM848 -90c28 0 41.999 15 41.999 45v448h-124v110h249v-572c0 -44 -13.167 -78.5 -39.5 -103.5s-65.166 -37.5 -116.499 -37.5h-159v110h148z" />
    <glyph glyph-name="f_f_k" unicode="ffk" horiz-adv-x="1346" 
d="M251 513h102v-110h-102v-403h-125v403h-92v110h92v96c0 44 13.333 78.5 40 103.5s66.667 37.5 120 37.5h159v-110h-148c-30.667 0 -46 -15.333 -46 -46v-81zM532 712.5c26.667 25 66.667 37.5 120 37.5h159v-110h-148c-30.667 0 -46 -15.333 -46 -46v-81h149v-110h-149
v-403h-125v403h-92v110h92v96c0 44 13.333 78.5 40 103.5zM1034 218h-57v-218h-125v750h125v-431h56l142 194h144l-181 -239l191 -274h-147z" />
    <glyph glyph-name="f_f_l" unicode="ffl" horiz-adv-x="1118" 
d="M34 403v110h92v96c0 44 13.333 78.5 40 103.5s66.667 37.5 120 37.5h159v-110h-148c-30.667 0 -46 -15.333 -46 -46v-81h105v-110h-105v-403h-125v403h-92zM403 403v110h89v96c0 44 13.333 78.5 40 103.5s66.667 37.5 120 37.5h159v-110h-148
c-30.667 0 -46 -15.333 -46 -46v-81h149v-110h-149v-403h-125v403h-89zM908.5 37c-25 24.667 -37.5 59 -37.5 103v610h125v-598c0 -28 13 -42 39 -42h54v-110h-68c-50 -0 -87.5 12.333 -112.5 37z" />
    <glyph glyph-name="f_h" unicode="fh" horiz-adv-x="1050" 
d="M34 403v110h92v96c0 44 13.333 78.5 40 103.5s66.667 37.5 120 37.5h159v-110h-148c-30.667 0 -46 -15.333 -46 -46v-81h149v-110h-149v-403h-125v403h-92zM929.5 472.5c34.333 -36.333 51.501 -84.499 51.501 -144.499v-328h-125v297c0 35.333 -8.66699 63.5 -26 84.5
s-43.666 31.5 -78.999 31.5c-28 0 -55.333 -8.33301 -82 -25s-46 -37.667 -58 -63v-325h-125v750h125v-301c21.333 25.333 47.166 44.666 77.499 57.999s63.833 20 100.5 20c59.333 0 106.166 -18.167 140.499 -54.5z" />
    <glyph glyph-name="f_idieresis" unicode="f&#xef;" horiz-adv-x="723" 
d="M251 513h106v-110h-106v-403h-125v403h-92v110h92v96c0 44 13.333 78.5 40 103.5s66.667 37.5 120 37.5h212v-142h-98v32h-103c-30.667 0 -46 -15.333 -46 -46v-81zM653 750v-142h-98v142h98zM400 513h249v-513h-125v403h-124v110z" />
    <glyph glyph-name="f_j" unicode="fj" horiz-adv-x="723" 
d="M34 403v110h92v96c0 44 13.333 78.5 40 103.5s66.667 37.5 120 37.5h159v-110h-148c-30.667 0 -46 -15.333 -46 -46v-81h99v-110h-99v-403h-125v403h-92zM524 750h125v-142h-125v142zM482 -90c28 0 41.999 15 41.999 45v448h-124v110h249v-572
c0 -44 -13.167 -78.5 -39.5 -103.5s-65.166 -37.5 -116.499 -37.5h-159v110h148z" />
    <glyph glyph-name="f_k" unicode="fk" horiz-adv-x="980" 
d="M34 403v110h92v96c0 44 13.333 78.5 40 103.5s66.667 37.5 120 37.5h159v-110h-148c-30.667 0 -46 -15.333 -46 -46v-81h149v-110h-149v-403h-125v403h-92zM668 218h-57v-218h-125v750h125v-431h56l142 194h144l-181 -239l191 -274h-147z" />
    <glyph glyph-name="uni06440671" unicode="&#xfedf;&#xfb51;" horiz-adv-x="662" 
d="M592 713v-504.998c0 -73.333 -15.5 -126.333 -46.5 -159s-83.833 -49 -158.5 -49h-357v130h181v394h110v-394h66c24.667 0 43.5 1.66699 56.5 5s22.667 10.166 29 20.499s9.5 26.166 9.5 47.499v510h110z" />
    <glyph glyph-name="uni06440671.fina" unicode="&#xfee0;&#xfb51;" horiz-adv-x="689" 
d="M706 120l0.000976562 -109.998l-17 -10c-35.333 0 -63.833 4.83301 -85.5 14.5s-38.167 24.5 -49.5 44.5c-30.667 -39.333 -86.334 -59 -167.001 -59h-357v130h181v394h110v-394h66c24.667 0 43.5 1.66699 56.5 5s22.667 10.166 29 20.499s9.5 26.166 9.5 47.499v510h110
v-516c0 -21.333 3.33301 -36.833 10 -46.5s16.167 -15.5 28.5 -17.5s31.833 -3 58.5 -3z" />
    <glyph glyph-name="uni066E.init" unicode="&#x66e;" horiz-adv-x="284" 
d="M-17 120l16.999 10c29.333 0 51.833 1.5 67.5 4.5s27.334 9 35.001 18s11.5 22.833 11.5 41.5v233h110v-233c0 -67.333 -17 -116.5 -51 -147.5s-91.667 -46.5 -173 -46.5l-17 10v110z" />
    <glyph glyph-name="uni066E.medi" unicode="&#x66e;" horiz-adv-x="338" 
d="M355 120l-0.00195312 -110l-17 -10c-41.333 0 -74.333 5.16699 -99 15.5s-42.667 26.5 -54 48.5c-16 -22 -39 -38.167 -69 -48.5s-68.667 -15.5 -116 -15.5l-17 10v110l17 10c29.333 0 51.833 1.5 67.5 4.5s27.334 9 35.001 18s11.5 22.833 11.5 41.5v233h110v-230
c0 -21.333 3.83301 -36.833 11.5 -46.5s18.834 -15.5 33.501 -17.5s37.667 -3 69 -3z" />
    <glyph glyph-name="uni066E.fina" unicode="&#x66e;" horiz-adv-x="978" 
d="M995 120v-109.997l-17 -10c-44 0 -79.167 5.33301 -105.5 16s-45.833 27 -58.5 49c-16 -22 -39 -38.333 -69 -49s-69 -16 -117 -16h-322c-71.333 0 -126.833 10.333 -166.5 31s-67 49 -82 85s-22.5 80 -22.5 132c0 25.333 3.16699 52.166 9.5 80.499
s13.833 52.833 22.5 73.5h105c-6.66699 -18.667 -12.834 -41.834 -18.501 -69.501s-8.5 -50.834 -8.5 -69.501c0 -50 12.167 -84.667 36.5 -104s65.833 -29 124.5 -29h322c29.333 0 51.833 1.5 67.5 4.5s27.334 9 35.001 18s11.5 22.833 11.5 41.5v233h110v-230
c0 -21.333 4.33301 -36.833 13 -46.5s21 -15.5 37 -17.5s41.333 -3 76 -3z" />
    <glyph glyph-name="uni066F.fina" unicode="&#x66f;" horiz-adv-x="850" 
d="M867 120v-109.997l-17 -10h-98v-8c0 -72.667 -19.833 -127.334 -59.5 -164.001s-105.167 -55 -196.5 -55h-147c-84.667 0 -149.667 10.5 -195 31.5s-76.5 52.667 -93.5 95s-25.5 99.5 -25.5 171.5c0 34.667 3.83301 69 11.5 103s16.167 61 25.5 81h110
c-8.66699 -23.333 -16.167 -51 -22.5 -83s-9.5 -63.333 -9.5 -94c0 -42 5.16699 -75.333 15.5 -100s29.833 -43.334 58.5 -56.001s70.334 -19 125.001 -19h150c36 0 64.167 2.66699 84.5 8s35.166 14.5 44.499 27.5s14 31.5 14 55.5v6h-115
c-79.333 0 -134.833 19.333 -166.5 58s-47.5 89.334 -47.5 152.001c0 47.333 10.333 89.166 31 125.499s50.167 64.666 88.5 84.999s82.5 30.5 132.5 30.5c35.333 0 69.5 -4.5 102.5 -13.5s61.167 -20.167 84.5 -33.5v-274h98zM642 130.003v172.999
c-25.333 12 -55 18 -89 18c-41.333 0 -72.5 -8.66699 -93.5 -26s-31.5 -40.666 -31.5 -69.999c0 -28 9 -50.833 27 -68.5s44.333 -26.5 79 -26.5h108z" />
    <glyph glyph-name="uni06A1.init" unicode="&#x6a1;" horiz-adv-x="518" 
d="M458 209c0 -69.333 -15.834 -121.5 -47.501 -156.5s-84.167 -52.5 -157.5 -52.5h-253l-17 10v110l17 10h254c34.667 0 58.834 5 72.501 15s20.5 28.333 20.5 55v50c-24 -38 -67.333 -57 -130 -57c-61.333 0 -107.333 18.167 -138 54.5s-46 81.5 -46 135.5
c0 44.667 10 84 30 118s48.167 60.5 84.5 79.5s78.833 28.5 127.5 28.5c34.667 0 68 -4.5 100 -13.5s59.333 -20.167 82 -33.5zM346.999 353v108.001c-24 12 -52 18 -84 18c-38 0 -66.667 -7.33301 -86 -22s-29 -34.334 -29 -59.001c0 -22 8 -40 24 -54s40 -21 72 -21
c50 0 84.333 10 103 30z" />
    <glyph glyph-name="uni06A1.medi" unicode="&#x6a1;" horiz-adv-x="554" 
d="M571 125l-0.000976562 -120l-17 -5h-554l-17 5v120l17 5h110c-29.333 34 -44 75 -44 123c0 72 19.833 127.167 59.5 165.5s92.5 57.5 158.5 57.5c64.667 0 114.834 -18.167 150.501 -54.5s53.5 -87.833 53.5 -154.5c0 -53.333 -16.667 -99 -50 -137h116zM206.999 324
c-17.333 -14.667 -26.002 -36 -26.002 -64c0 -20 6.83301 -39.833 20.5 -59.5s40.167 -43.167 79.5 -70.5c38.667 26.667 63.667 49.5 75 68.5s17 39.5 17 61.5c0 28 -8.66699 49.333 -26 64s-40.666 22 -69.999 22s-52.666 -7.33301 -69.999 -22z" />
    <glyph glyph-name="uni06A1.fina" unicode="&#x6a1;" horiz-adv-x="1017" 
d="M1034 125l-0.000976562 -120l-17 -5h-715c-70 -0 -124.5 11.333 -163.5 34s-66 53.834 -81 93.501s-22.5 87.5 -22.5 143.5c0 26 3 53.333 9 82s13.333 54.334 22 77.001l110 1c-6.66699 -18.667 -12.667 -42.334 -18 -71.001s-8 -53 -8 -73
c0 -40 5.16699 -71.333 15.5 -94s26.333 -38.834 48 -48.501s51.167 -14.5 88.5 -14.5h254c-29.333 34 -44 75 -44 123c0 72 19.833 127.167 59.5 165.5s92.5 57.5 158.5 57.5c64.667 0 114.834 -18.167 150.501 -54.5s53.5 -87.833 53.5 -154.5
c0 -53.333 -16.667 -99 -50 -137h133zM652.999 324c-17.333 -14.667 -26.002 -36 -26.002 -64c0 -20 6.83301 -39.833 20.5 -59.5s40.167 -43.167 79.5 -70.5c38.667 26.667 63.667 49.5 75 68.5s17 39.5 17 61.5c0 28 -8.66699 49.333 -26 64s-40.666 22 -69.999 22
s-52.666 -7.33301 -69.999 -22z" />
    <glyph glyph-name="uniFB51" unicode="&#x671;" horiz-adv-x="285" arabic-form="final" 
d="M114 48.5c-29.333 32.333 -44.001 85.5 -44.001 159.5v405h110v-405c0 -24 2.83301 -41.333 8.5 -52s15.5 -17.667 29.5 -21s36.333 -5 67 -5l17 -10v-110l-17 -10h-23c-69.333 0 -118.666 16.167 -147.999 48.5z" />
    <glyph glyph-name="uniFB6B" unicode="&#x6a4;" horiz-adv-x="1017" arabic-form="final" 
d="M1034 125l-0.000976562 -120l-17 -5h-715c-70 -0 -124.5 11.333 -163.5 34s-66 53.834 -81 93.501s-22.5 87.5 -22.5 143.5c0 26 3 53.333 9 82s13.333 54.334 22 77.001l110 1c-6.66699 -18.667 -12.667 -42.334 -18 -71.001s-8 -53 -8 -73
c0 -40 5.16699 -71.333 15.5 -94s26.333 -38.834 48 -48.501s51.167 -14.5 88.5 -14.5h254c-29.333 34 -44 75 -44 123c0 72 19.833 127.167 59.5 165.5s92.5 57.5 158.5 57.5c64.667 0 114.834 -18.167 150.501 -54.5s53.5 -87.833 53.5 -154.5
c0 -53.333 -16.667 -99 -50 -137h133zM652.999 324c-17.333 -14.667 -26.002 -36 -26.002 -64c0 -20 6.83301 -39.833 20.5 -59.5s40.167 -43.167 79.5 -70.5c38.667 26.667 63.667 49.5 75 68.5s17 39.5 17 61.5c0 28 -8.66699 49.333 -26 64s-40.666 22 -69.999 22
s-52.666 -7.33301 -69.999 -22zM788.997 845v-105h-110v105h110zM706.997 697v-110h-105v110h105zM862.997 697v-110h-105v110h105z" />
    <glyph glyph-name="uniFB6C" unicode="&#x6a4;" horiz-adv-x="518" arabic-form="initial" 
d="M458 209c0 -69.333 -15.834 -121.5 -47.501 -156.5s-84.167 -52.5 -157.5 -52.5h-253l-17 10v110l17 10h254c34.667 0 58.834 5 72.501 15s20.5 28.333 20.5 55v50c-24 -38 -67.333 -57 -130 -57c-61.333 0 -107.333 18.167 -138 54.5s-46 81.5 -46 135.5
c0 44.667 10 84 30 118s48.167 60.5 84.5 79.5s78.833 28.5 127.5 28.5c34.667 0 68 -4.5 100 -13.5s59.333 -20.167 82 -33.5zM346.999 353v108.001c-24 12 -52 18 -84 18c-38 0 -66.667 -7.33301 -86 -22s-29 -34.334 -29 -59.001c0 -22 8 -40 24 -54s40 -21 72 -21
c50 0 84.333 10 103 30zM333.999 958.001v-105h-110v105h110zM251.999 810.001v-110h-105v110h105zM407.999 810.001v-110h-105v110h105z" />
    <glyph glyph-name="uniFB6D" unicode="&#x6a4;" horiz-adv-x="554" arabic-form="medial" 
d="M571 125l-0.000976562 -120l-17 -5h-554l-17 5v120l17 5h110c-29.333 34 -44 75 -44 123c0 72 19.833 127.167 59.5 165.5s92.5 57.5 158.5 57.5c64.667 0 114.834 -18.167 150.501 -54.5s53.5 -87.833 53.5 -154.5c0 -53.333 -16.667 -99 -50 -137h116zM206.999 324
c-17.333 -14.667 -26.002 -36 -26.002 -64c0 -20 6.83301 -39.833 20.5 -59.5s40.167 -43.167 79.5 -70.5c38.667 26.667 63.667 49.5 75 68.5s17 39.5 17 61.5c0 28 -8.66699 49.333 -26 64s-40.666 22 -69.999 22s-52.666 -7.33301 -69.999 -22zM342.997 845v-105h-110
v105h110zM260.997 697v-110h-105v110h105zM416.997 697v-110h-105v110h105z" />
    <glyph glyph-name="uniFB9F" unicode="&#x6ba;" horiz-adv-x="730" arabic-form="final" 
d="M747 120v-109.999l-17 -10c-42 0 -74.667 7 -98 21c-6.66699 -71.333 -34.167 -128.833 -82.5 -172.5s-121.5 -65.5 -219.5 -65.5c-107.333 0 -183.333 28 -228 84s-67 128 -67 216c0 38 3.83301 76.667 11.5 116s16.5 70 26.5 92h110
c-7.33301 -22.667 -14.666 -51.667 -21.999 -87s-11 -72.333 -11 -111c0 -56.667 13.667 -100.834 41 -132.501s76.666 -47.5 147.999 -47.5c69.333 0 117.333 12 144 36s40 59 40 105v373h110v-230c0 -21.333 3.33301 -36.833 10 -46.5s16.167 -15.5 28.5 -17.5
s31.833 -3 58.5 -3z" />
    <glyph glyph-name="uniFC31" unicode="&#xfc31;" horiz-adv-x="931" arabic-form="isolated" 
d="M837 69c-22.667 -34 -59.6689 -55.3311 -111.002 -63.998v-24c0 -148.667 -112 -223 -336 -223c-95.333 0 -169 13.167 -221 39.5s-87.333 62.166 -106 107.499s-28 101 -28 167c0 39.333 3.33301 79.166 10 119.499s14.334 71.166 23.001 92.499h110
c-6 -21.333 -12.167 -50.166 -18.5 -86.499s-9.5 -73.833 -9.5 -112.5c0 -52.667 7.5 -93 22.5 -121s40.167 -47.667 75.5 -59s86 -17 152 -17c59.333 0 104.333 3.5 135 10.5s51 16.333 61 28s15 26.167 15 43.5v30h-163v130h219c34.667 0 58.834 5 72.501 15
s20.5 28.333 20.5 55v50c-24 -38 -67.333 -57 -130 -57c-61.333 0 -107.333 18.167 -138 54.5s-46 81.5 -46 135.5c0 44.667 10 84 30 118s48.167 60.5 84.5 79.5s78.833 28.5 127.5 28.5c34.667 0 68 -4.5 100 -13.5s59.333 -20.167 82 -33.5l1 -353
c0 -59.333 -11.333 -106 -34 -140zM759.998 353.002v108.001c-24 12 -52 18 -84 18c-38 0 -66.667 -7.33301 -86 -22s-29 -34.334 -29 -59.001c0 -22 8 -40 24 -54s40 -21 72 -21c50 0 84.333 10 103 30zM742.998 810.003v-110h-110v110h110z" />
    <glyph glyph-name="uniFC32" unicode="&#xfc32;" horiz-adv-x="931" arabic-form="isolated" 
d="M837 69c-22.667 -34 -59.6689 -55.3311 -111.002 -63.998v-24c0 -148.667 -112 -223 -336 -223c-95.333 0 -169 13.167 -221 39.5s-87.333 62.166 -106 107.499s-28 101 -28 167c0 39.333 3.33301 79.166 10 119.499s14.334 71.166 23.001 92.499h110
c-6 -21.333 -12.167 -50.166 -18.5 -86.499s-9.5 -73.833 -9.5 -112.5c0 -52.667 7.5 -93 22.5 -121s40.167 -47.667 75.5 -59s86 -17 152 -17c59.333 0 104.333 3.5 135 10.5s51 16.333 61 28s15 26.167 15 43.5v30h-163v130h219c34.667 0 58.834 5 72.501 15
s20.5 28.333 20.5 55v50c-24 -38 -67.333 -57 -130 -57c-61.333 0 -107.333 18.167 -138 54.5s-46 81.5 -46 135.5c0 44.667 10 84 30 118s48.167 60.5 84.5 79.5s78.833 28.5 127.5 28.5c34.667 0 68 -4.5 100 -13.5s59.333 -20.167 82 -33.5l1 -353
c0 -59.333 -11.333 -106 -34 -140zM759.998 353.002v108.001c-24 12 -52 18 -84 18c-38 0 -66.667 -7.33301 -86 -22s-29 -34.334 -29 -59.001c0 -22 8 -40 24 -54s40 -21 72 -21c50 0 84.333 10 103 30zM742.998 810.003v-110h-110v110h110zM376.998 -329.997v-110h-105
v110h105zM527.998 -329.997v-110h-105v110h105z" />
    <glyph glyph-name="uniFC35" unicode="&#xfc35;" horiz-adv-x="931" arabic-form="isolated" 
d="M837 69c-22.667 -34 -59.6689 -55.3311 -111.002 -63.998v-24c0 -148.667 -112 -223 -336 -223c-95.333 0 -169 13.167 -221 39.5s-87.333 62.166 -106 107.499s-28 101 -28 167c0 39.333 3.33301 79.166 10 119.499s14.334 71.166 23.001 92.499h110
c-6 -21.333 -12.167 -50.166 -18.5 -86.499s-9.5 -73.833 -9.5 -112.5c0 -52.667 7.5 -93 22.5 -121s40.167 -47.667 75.5 -59s86 -17 152 -17c59.333 0 104.333 3.5 135 10.5s51 16.333 61 28s15 26.167 15 43.5v30h-163v130h219c34.667 0 58.834 5 72.501 15
s20.5 28.333 20.5 55v50c-24 -38 -67.333 -57 -130 -57c-61.333 0 -107.333 18.167 -138 54.5s-46 81.5 -46 135.5c0 44.667 10 84 30 118s48.167 60.5 84.5 79.5s78.833 28.5 127.5 28.5c34.667 0 68 -4.5 100 -13.5s59.333 -20.167 82 -33.5l1 -353
c0 -59.333 -11.333 -106 -34 -140zM759.998 353.002v108.001c-24 12 -52 18 -84 18c-38 0 -66.667 -7.33301 -86 -22s-29 -34.334 -29 -59.001c0 -22 8 -40 24 -54s40 -21 72 -21c50 0 84.333 10 103 30zM664.998 811.003v-110h-105v110h105zM815.998 811.003v-110h-105v110
h105z" />
    <glyph glyph-name="uniFC36" unicode="&#xfc36;" horiz-adv-x="931" arabic-form="isolated" 
d="M837 69c-22.667 -34 -59.6689 -55.3311 -111.002 -63.998v-24c0 -148.667 -112 -223 -336 -223c-95.333 0 -169 13.167 -221 39.5s-87.333 62.166 -106 107.499s-28 101 -28 167c0 39.333 3.33301 79.166 10 119.499s14.334 71.166 23.001 92.499h110
c-6 -21.333 -12.167 -50.166 -18.5 -86.499s-9.5 -73.833 -9.5 -112.5c0 -52.667 7.5 -93 22.5 -121s40.167 -47.667 75.5 -59s86 -17 152 -17c59.333 0 104.333 3.5 135 10.5s51 16.333 61 28s15 26.167 15 43.5v30h-163v130h219c34.667 0 58.834 5 72.501 15
s20.5 28.333 20.5 55v50c-24 -38 -67.333 -57 -130 -57c-61.333 0 -107.333 18.167 -138 54.5s-46 81.5 -46 135.5c0 44.667 10 84 30 118s48.167 60.5 84.5 79.5s78.833 28.5 127.5 28.5c34.667 0 68 -4.5 100 -13.5s59.333 -20.167 82 -33.5l1 -353
c0 -59.333 -11.333 -106 -34 -140zM759.998 353.002v108.001c-24 12 -52 18 -84 18c-38 0 -66.667 -7.33301 -86 -22s-29 -34.334 -29 -59.001c0 -22 8 -40 24 -54s40 -21 72 -21c50 0 84.333 10 103 30zM376.998 -329.997v-110h-105v110h105zM527.998 -329.997v-110h-105
v110h105zM664.998 811.003v-110h-105v110h105zM815.998 811.003v-110h-105v110h105z" />
    <glyph glyph-name="uniFE82" unicode="&#x622;" horiz-adv-x="285" arabic-form="final" 
d="M114 48.5c-29.333 32.333 -44.001 85.5 -44.001 159.5v405h110v-405c0 -24 2.83301 -41.333 8.5 -52s15.5 -17.667 29.5 -21s36.333 -5 67 -5l17 -10v-110l-17 -10h-23c-69.333 0 -118.666 16.167 -147.999 48.5zM225.499 692.5
c-13.667 -5.66699 -27.502 -8.49609 -41.502 -8.49609c-15.333 0 -36 5 -62 15c-8 3.33301 -16 6.16602 -24 8.49902s-15 3.5 -21 3.5c-22 0 -43.667 -7 -65 -21l-20 58c9.33301 7.33301 21.333 13.666 36 18.999s29.334 8 44.001 8c8.66699 0 17.334 -1.33301 26.001 -4
s16.667 -5.66699 24 -9c20 -9.33301 37.667 -14 53 -14c11.333 0 22 1.66699 32 5s21 8.66602 33 15.999l17 -58c-7.33301 -6.66699 -17.833 -12.834 -31.5 -18.501z" />
    <glyph glyph-name="uniFE84" unicode="&#x623;" horiz-adv-x="285" arabic-form="final" 
d="M114 48.5c-29.333 32.333 -44.001 85.5 -44.001 159.5v405h110v-405c0 -24 2.83301 -41.333 8.5 -52s15.5 -17.667 29.5 -21s36.333 -5 67 -5l17 -10v-110l-17 -10h-23c-69.333 0 -118.666 16.167 -147.999 48.5zM214.999 753l-0.000976562 -65h-187v62h29
c-10 11.333 -15 27 -15 47c0 27.333 9.5 48.5 28.5 63.5s42.167 22.5 69.5 22.5c23.333 0 45 -4.33301 65 -13l-13 -54c-17.333 3.33301 -34.666 5 -51.999 5c-13.333 0 -24 -2.83301 -32 -8.5s-12 -14.167 -12 -25.5s2.33301 -19.833 7 -25.5s13 -8.5 25 -8.5h87z" />
    <glyph glyph-name="uniFE86" unicode="&#x624;" horiz-adv-x="567" arabic-form="final" 
d="M584 120v-109.999l-17 -10h-98v-28c0 -62.667 -15.167 -109.834 -45.5 -141.501s-80.5 -47.5 -150.5 -47.5h-207v130h210c30.667 0 52.167 4.33301 64.5 13s18.5 24.667 18.5 48v26h-105c-86.667 0 -145.667 18.5 -177 55.5s-47 86.833 -47 149.5
c0 48.667 10.333 91.5 31 128.5s50.167 65.833 88.5 86.5s82.5 31 132.5 31c35.333 0 69.5 -4.5 102.5 -13.5s61.167 -20.167 84.5 -33.5v-274h98zM359 130.001v173c-25.333 12 -55 18 -89 18c-41.333 0 -72.5 -9.16699 -93.5 -27.5s-31.5 -42.833 -31.5 -73.5
c0 -60 38.667 -90 116 -90h98zM352 591.001l-0.000976562 -65h-187v62h29c-10 11.333 -15 27 -15 47c0 27.333 9.5 48.5 28.5 63.5s42.167 22.5 69.5 22.5c23.333 0 45 -4.33301 65 -13l-13 -54c-17.333 3.33301 -34.666 5 -51.999 5c-13.333 0 -24 -2.83301 -32 -8.5
s-12 -14.167 -12 -25.5s2.33301 -19.833 7 -25.5s13 -8.5 25 -8.5h87z" />
    <glyph glyph-name="uniFE88" unicode="&#x625;" horiz-adv-x="285" arabic-form="final" 
d="M114 48.5c-29.333 32.333 -44.001 85.5 -44.001 159.5v505h110v-505c0 -24 2.83301 -41.333 8.5 -52s15.5 -17.667 29.5 -21s36.333 -5 67 -5l17 -10v-110l-17 -10h-23c-69.333 0 -118.666 16.167 -147.999 48.5zM231.999 -179l-0.000976562 -65h-187v62h29
c-10 11.333 -15 27 -15 47c0 27.333 9.5 48.5 28.5 63.5s42.167 22.5 69.5 22.5c23.333 0 45 -4.33301 65 -13l-13 -54c-17.333 3.33301 -34.666 5 -51.999 5c-13.333 0 -24 -2.83301 -32 -8.5s-12 -14.167 -12 -25.5s2.33301 -19.833 7 -25.5s13 -8.5 25 -8.5h87z" />
    <glyph glyph-name="uniFE8A" unicode="&#x626;" horiz-adv-x="763" arabic-form="final" 
d="M780 120l-0.000976562 -109.998l-17 -10h-37v-19c0 -148.667 -112 -223 -336 -223c-95.333 0 -169 13.167 -221 39.5s-87.333 62.166 -106 107.499s-28 101 -28 167c0 39.333 3.33301 79.166 10 119.499s14.334 71.166 23.001 92.499h110
c-6 -21.333 -12.167 -50.166 -18.5 -86.499s-9.5 -73.833 -9.5 -112.5c0 -52.667 7.5 -93 22.5 -121s40.167 -47.667 75.5 -59s86 -17 152 -17c59.333 0 104.333 3.5 135 10.5s51 16.333 61 28s15 26.167 15 43.5v30h-163v130h315zM215.999 429.002l-0.000976562 -65h-187
v62h29c-10 11.333 -15 27 -15 47c0 27.333 9.5 48.5 28.5 63.5s42.167 22.5 69.5 22.5c23.333 0 45 -4.33301 65 -13l-13 -54c-17.333 3.33301 -34.666 5 -51.999 5c-13.333 0 -24 -2.83301 -32 -8.5s-12 -14.167 -12 -25.5s2.33301 -19.833 7 -25.5s13 -8.5 25 -8.5h87z
" />
    <glyph glyph-name="uniFE8B" unicode="&#x626;" horiz-adv-x="284" arabic-form="initial" 
d="M-17 120l16.999 10c29.333 0 51.833 1.5 67.5 4.5s27.334 9 35.001 18s11.5 22.833 11.5 41.5v233h110v-233c0 -67.333 -17 -116.5 -51 -147.5s-91.667 -46.5 -173 -46.5l-17 10v110zM259.999 567l-0.000976562 -65h-187v62h29c-10 11.333 -15 27 -15 47
c0 27.333 9.5 48.5 28.5 63.5s42.167 22.5 69.5 22.5c23.333 0 45 -4.33301 65 -13l-13 -54c-17.333 3.33301 -34.666 5 -51.999 5c-13.333 0 -24 -2.83301 -32 -8.5s-12 -14.167 -12 -25.5s2.33301 -19.833 7 -25.5s13 -8.5 25 -8.5h87z" />
    <glyph glyph-name="uniFE8C" unicode="&#x626;" horiz-adv-x="338" arabic-form="medial" 
d="M355 120l-0.00195312 -110l-17 -10c-41.333 0 -74.333 5.16699 -99 15.5s-42.667 26.5 -54 48.5c-16 -22 -39 -38.167 -69 -48.5s-68.667 -15.5 -116 -15.5l-17 10v110l17 10c29.333 0 51.833 1.5 67.5 4.5s27.334 9 35.001 18s11.5 22.833 11.5 41.5v233h110v-230
c0 -21.333 3.83301 -36.833 11.5 -46.5s18.834 -15.5 33.501 -17.5s37.667 -3 69 -3zM260.998 567l-0.000976562 -65h-187v62h29c-10 11.333 -15 27 -15 47c0 27.333 9.5 48.5 28.5 63.5s42.167 22.5 69.5 22.5c23.333 0 45 -4.33301 65 -13l-13 -54
c-17.333 3.33301 -34.666 5 -51.999 5c-13.333 0 -24 -2.83301 -32 -8.5s-12 -14.167 -12 -25.5s2.33301 -19.833 7 -25.5s13 -8.5 25 -8.5h87z" />
    <glyph glyph-name="uniFE8E" unicode="&#x627;" horiz-adv-x="285" arabic-form="final" 
d="M114 48.5c-29.333 32.333 -44.001 85.5 -44.001 159.5v505h110v-505c0 -24 2.83301 -41.333 8.5 -52s15.5 -17.667 29.5 -21s36.333 -5 67 -5l17 -10v-110l-17 -10h-23c-69.333 0 -118.666 16.167 -147.999 48.5z" />
    <glyph glyph-name="uniFE90" unicode="&#x628;" horiz-adv-x="978" arabic-form="final" 
d="M995 120v-109.997l-17 -10c-44 0 -79.167 5.33301 -105.5 16s-45.833 27 -58.5 49c-16 -22 -39 -38.333 -69 -49s-69 -16 -117 -16h-322c-71.333 0 -126.833 10.333 -166.5 31s-67 49 -82 85s-22.5 80 -22.5 132c0 25.333 3.16699 52.166 9.5 80.499
s13.833 52.833 22.5 73.5h105c-6.66699 -18.667 -12.834 -41.834 -18.501 -69.501s-8.5 -50.834 -8.5 -69.501c0 -50 12.167 -84.667 36.5 -104s65.833 -29 124.5 -29h322c29.333 0 51.833 1.5 67.5 4.5s27.334 9 35.001 18s11.5 22.833 11.5 41.5v233h110v-230
c0 -21.333 4.33301 -36.833 13 -46.5s21 -15.5 37 -17.5s41.333 -3 76 -3zM493 -103.997v-110h-110v110h110z" />
    <glyph glyph-name="uniFE91" unicode="&#x628;" horiz-adv-x="284" arabic-form="initial" 
d="M-17 120l16.999 10c29.333 0 51.833 1.5 67.5 4.5s27.334 9 35.001 18s11.5 22.833 11.5 41.5v233h110v-233c0 -67.333 -17 -116.5 -51 -147.5s-91.667 -46.5 -173 -46.5l-17 10v110zM224.999 -107v-110h-110v110h110z" />
    <glyph glyph-name="uniFE92" unicode="&#x628;" horiz-adv-x="338" arabic-form="medial" 
d="M355 120l-0.00195312 -110l-17 -10c-41.333 0 -74.333 5.16699 -99 15.5s-42.667 26.5 -54 48.5c-16 -22 -39 -38.167 -69 -48.5s-68.667 -15.5 -116 -15.5l-17 10v110l17 10c29.333 0 51.833 1.5 67.5 4.5s27.334 9 35.001 18s11.5 22.833 11.5 41.5v233h110v-230
c0 -21.333 3.83301 -36.833 11.5 -46.5s18.834 -15.5 33.501 -17.5s37.667 -3 69 -3zM223.998 -104v-110h-110v110h110z" />
    <glyph glyph-name="uniFE94" unicode="&#x629;" horiz-adv-x="573" arabic-form="final" 
d="M590 126l-0.000976562 -122l-17 -4c-54.667 0 -98.5 9 -131.5 27s-55.5 49.667 -67.5 95c-10.667 -25.333 -27.167 -45.333 -49.5 -60s-54.166 -22 -95.499 -22c-65.333 0 -114 20 -146 60s-48 90 -48 150c0 48.667 10.667 91.5 32 128.5s51.333 65.833 90 86.5
s83.667 31 135 31c23.333 0 47 -4 71 -12v43h110l-1 -308c0 -24 3 -42.333 9 -55s16.167 -21.5 30.5 -26.5s34.833 -7.5 61.5 -7.5zM362.999 206l-0.00195312 7v146c-23.333 4.66699 -47.666 7 -72.999 7c-46 0 -80.833 -9.16699 -104.5 -27.5s-35.5 -42.833 -35.5 -73.5
c0 -28 9 -50.833 27 -68.5s44.333 -26.5 79 -26.5c50.667 0 86.334 12 107.001 36zM237.997 698v-110h-105v110h105zM388.997 698v-110h-105v110h105z" />
    <glyph glyph-name="uniFE96" unicode="&#x62a;" horiz-adv-x="978" arabic-form="final" 
d="M995 120v-109.997l-17 -10c-44 0 -79.167 5.33301 -105.5 16s-45.833 27 -58.5 49c-16 -22 -39 -38.333 -69 -49s-69 -16 -117 -16h-322c-71.333 0 -126.833 10.333 -166.5 31s-67 49 -82 85s-22.5 80 -22.5 132c0 25.333 3.16699 52.166 9.5 80.499
s13.833 52.833 22.5 73.5h105c-6.66699 -18.667 -12.834 -41.834 -18.501 -69.501s-8.5 -50.834 -8.5 -69.501c0 -50 12.167 -84.667 36.5 -104s65.833 -29 124.5 -29h322c29.333 0 51.833 1.5 67.5 4.5s27.334 9 35.001 18s11.5 22.833 11.5 41.5v233h110v-230
c0 -21.333 4.33301 -36.833 13 -46.5s21 -15.5 37 -17.5s41.333 -3 76 -3zM426 551.003v-110h-105v110h105zM577 551.003v-110h-105v110h105z" />
    <glyph glyph-name="uniFE97" unicode="&#x62a;" horiz-adv-x="284" arabic-form="initial" 
d="M-17 120l16.999 10c29.333 0 51.833 1.5 67.5 4.5s27.334 9 35.001 18s11.5 22.833 11.5 41.5v233h110v-233c0 -67.333 -17 -116.5 -51 -147.5s-91.667 -46.5 -173 -46.5l-17 10v110zM146.999 629v-110h-105v110h105zM297.999 629v-110h-105v110h105z" />
    <glyph glyph-name="uniFE98" unicode="&#x62a;" horiz-adv-x="338" arabic-form="medial" 
d="M355 120l-0.00195312 -110l-17 -10c-41.333 0 -74.333 5.16699 -99 15.5s-42.667 26.5 -54 48.5c-16 -22 -39 -38.167 -69 -48.5s-68.667 -15.5 -116 -15.5l-17 10v110l17 10c29.333 0 51.833 1.5 67.5 4.5s27.334 9 35.001 18s11.5 22.833 11.5 41.5v233h110v-230
c0 -21.333 3.83301 -36.833 11.5 -46.5s18.834 -15.5 33.501 -17.5s37.667 -3 69 -3zM147.998 629v-110h-105v110h105zM298.998 629v-110h-105v110h105z" />
    <glyph glyph-name="uniFE9A" unicode="&#x62b;" horiz-adv-x="978" arabic-form="final" 
d="M995 120v-109.997l-17 -10c-44 0 -79.167 5.33301 -105.5 16s-45.833 27 -58.5 49c-16 -22 -39 -38.333 -69 -49s-69 -16 -117 -16h-322c-71.333 0 -126.833 10.333 -166.5 31s-67 49 -82 85s-22.5 80 -22.5 132c0 25.333 3.16699 52.166 9.5 80.499
s13.833 52.833 22.5 73.5h105c-6.66699 -18.667 -12.834 -41.834 -18.501 -69.501s-8.5 -50.834 -8.5 -69.501c0 -50 12.167 -84.667 36.5 -104s65.833 -29 124.5 -29h322c29.333 0 51.833 1.5 67.5 4.5s27.334 9 35.001 18s11.5 22.833 11.5 41.5v233h110v-230
c0 -21.333 4.33301 -36.833 13 -46.5s21 -15.5 37 -17.5s41.333 -3 76 -3zM508 698.003v-105h-110v105h110zM426 550.003v-110h-105v110h105zM582 550.003v-110h-105v110h105z" />
    <glyph glyph-name="uniFE9B" unicode="&#x62b;" horiz-adv-x="284" arabic-form="initial" 
d="M-17 120l16.999 10c29.333 0 51.833 1.5 67.5 4.5s27.334 9 35.001 18s11.5 22.833 11.5 41.5v233h110v-233c0 -67.333 -17 -116.5 -51 -147.5s-91.667 -46.5 -173 -46.5l-17 10v110zM228.999 776v-105h-110v105h110zM146.999 628v-110h-105v110h105zM302.999 628v-110
h-105v110h105z" />
    <glyph glyph-name="uniFE9C" unicode="&#x62b;" horiz-adv-x="338" arabic-form="medial" 
d="M355 120l-0.00195312 -110l-17 -10c-41.333 0 -74.333 5.16699 -99 15.5s-42.667 26.5 -54 48.5c-16 -22 -39 -38.167 -69 -48.5s-68.667 -15.5 -116 -15.5l-17 10v110l17 10c29.333 0 51.833 1.5 67.5 4.5s27.334 9 35.001 18s11.5 22.833 11.5 41.5v233h110v-230
c0 -21.333 3.83301 -36.833 11.5 -46.5s18.834 -15.5 33.501 -17.5s37.667 -3 69 -3zM229.998 776v-105h-110v105h110zM147.998 628v-110h-105v110h105zM303.998 628v-110h-105v110h105z" />
    <glyph glyph-name="uniFE9E" unicode="&#x62c;" horiz-adv-x="696" arabic-form="final" 
d="M713 120l0.000976562 -110.002l-17 -10c-56.667 0 -97.667 10.333 -123 31c-22.667 -20.667 -54.667 -31 -96 -31h-251c-60.667 0 -91 -26.333 -91 -79c0 -33.333 11.833 -60 35.5 -80s67.167 -30 130.5 -30h209v-130h-220c-92.667 0 -160.834 21.333 -204.501 64
s-65.5 99.334 -65.5 170.001c0 59.333 16.5 110 49.5 152s87.167 63 162.5 63h245c16 0 24 9.33301 24 28v68c0 63.333 -49.333 95 -148 95c-64.667 0 -126.334 -10.667 -185.001 -32l-28 111c30.667 14.667 63.5 26.834 98.5 36.501s76.833 14.5 125.5 14.5
c66 0 124.5 -14.333 175.5 -43s76.5 -83 76.5 -163v-86c0 -9.33301 -0.333008 -16.333 -1 -21c8 -3.33301 17.833 -5.5 29.5 -6.5s28.834 -1.5 51.501 -1.5zM295.001 -156.002v99h99v-99h-99z" />
    <glyph glyph-name="uniFE9F" unicode="&#x62c;" horiz-adv-x="606" arabic-form="initial" 
d="M-17 126l16.999 4h441v81c0 40.667 -13.833 69.167 -41.5 85.5s-63.167 24.5 -106.5 24.5c-73.333 0 -145 -14 -215 -42l-28 111c78 40.667 162.667 61 254 61c66.667 0 125.334 -15 176.001 -45s76 -87 76 -171v-105c0 -86.667 -38 -130 -114 -130h-442l-17 4v122z
M326.999 -104v-110h-110v110h110z" />
    <glyph glyph-name="uniFEA0" unicode="&#x62c;" horiz-adv-x="646" arabic-form="medial" 
d="M663 120l-0.000976562 -110l-17 -10c-54.667 0 -95 10 -121 30c-18.667 -20 -46.334 -30 -83.001 -30h-442l-17 4v122l17 4h441v81c0 40.667 -13.833 69.167 -41.5 85.5s-63.167 24.5 -106.5 24.5c-73.333 0 -145 -14 -215 -42l-28 111c78 40.667 162.667 61 254 61
c66.667 0 125.334 -15 176.001 -45s76 -87 76 -171v-91c8 -6 18.333 -9.83301 31 -11.5s32.334 -2.5 59.001 -2.5zM326.999 -104v-110h-110v110h110z" />
    <glyph glyph-name="uniFEA2" unicode="&#x62d;" horiz-adv-x="696" arabic-form="final" 
d="M713 120l0.000976562 -110.002l-17 -10c-56.667 0 -97.667 10.333 -123 31c-22.667 -20.667 -54.667 -31 -96 -31h-251c-60.667 0 -91 -26.333 -91 -79c0 -33.333 11.833 -60 35.5 -80s67.167 -30 130.5 -30h209v-130h-220c-92.667 0 -160.834 21.333 -204.501 64
s-65.5 99.334 -65.5 170.001c0 59.333 16.5 110 49.5 152s87.167 63 162.5 63h245c16 0 24 9.33301 24 28v68c0 63.333 -49.333 95 -148 95c-64.667 0 -126.334 -10.667 -185.001 -32l-28 111c30.667 14.667 63.5 26.834 98.5 36.501s76.833 14.5 125.5 14.5
c66 0 124.5 -14.333 175.5 -43s76.5 -83 76.5 -163v-86c0 -9.33301 -0.333008 -16.333 -1 -21c8 -3.33301 17.833 -5.5 29.5 -6.5s28.834 -1.5 51.501 -1.5z" />
    <glyph glyph-name="uniFEA3" unicode="&#x62d;" horiz-adv-x="606" arabic-form="initial" 
d="M-17 126l16.999 4h441v81c0 40.667 -13.833 69.167 -41.5 85.5s-63.167 24.5 -106.5 24.5c-73.333 0 -145 -14 -215 -42l-28 111c78 40.667 162.667 61 254 61c66.667 0 125.334 -15 176.001 -45s76 -87 76 -171v-105c0 -86.667 -38 -130 -114 -130h-442l-17 4v122z" />
    <glyph glyph-name="uniFEA4" unicode="&#x62d;" horiz-adv-x="646" arabic-form="medial" 
d="M663 120l-0.000976562 -110l-17 -10c-54.667 0 -95 10 -121 30c-18.667 -20 -46.334 -30 -83.001 -30h-442l-17 4v122l17 4h441v81c0 40.667 -13.833 69.167 -41.5 85.5s-63.167 24.5 -106.5 24.5c-73.333 0 -145 -14 -215 -42l-28 111c78 40.667 162.667 61 254 61
c66.667 0 125.334 -15 176.001 -45s76 -87 76 -171v-91c8 -6 18.333 -9.83301 31 -11.5s32.334 -2.5 59.001 -2.5z" />
    <glyph glyph-name="uniFEA6" unicode="&#x62e;" horiz-adv-x="696" arabic-form="final" 
d="M713 120l0.000976562 -110.002l-17 -10c-56.667 0 -97.667 10.333 -123 31c-22.667 -20.667 -54.667 -31 -96 -31h-251c-60.667 0 -91 -26.333 -91 -79c0 -33.333 11.833 -60 35.5 -80s67.167 -30 130.5 -30h209v-130h-220c-92.667 0 -160.834 21.333 -204.501 64
s-65.5 99.334 -65.5 170.001c0 59.333 16.5 110 49.5 152s87.167 63 162.5 63h245c16 0 24 9.33301 24 28v68c0 63.333 -49.333 95 -148 95c-64.667 0 -126.334 -10.667 -185.001 -32l-28 111c30.667 14.667 63.5 26.834 98.5 36.501s76.833 14.5 125.5 14.5
c66 0 124.5 -14.333 175.5 -43s76.5 -83 76.5 -163v-86c0 -9.33301 -0.333008 -16.333 -1 -21c8 -3.33301 17.833 -5.5 29.5 -6.5s28.834 -1.5 51.501 -1.5zM409.001 652.998v-110h-110v110h110z" />
    <glyph glyph-name="uniFEA7" unicode="&#x62e;" horiz-adv-x="606" arabic-form="initial" 
d="M-17 126l16.999 4h441v81c0 40.667 -13.833 69.167 -41.5 85.5s-63.167 24.5 -106.5 24.5c-73.333 0 -145 -14 -215 -42l-28 111c78 40.667 162.667 61 254 61c66.667 0 125.334 -15 176.001 -45s76 -87 76 -171v-105c0 -86.667 -38 -130 -114 -130h-442l-17 4v122z
M358.999 652v-110h-110v110h110z" />
    <glyph glyph-name="uniFEA8" unicode="&#x62e;" horiz-adv-x="646" arabic-form="medial" 
d="M663 120l-0.000976562 -110l-17 -10c-54.667 0 -95 10 -121 30c-18.667 -20 -46.334 -30 -83.001 -30h-442l-17 4v122l17 4h441v81c0 40.667 -13.833 69.167 -41.5 85.5s-63.167 24.5 -106.5 24.5c-73.333 0 -145 -14 -215 -42l-28 111c78 40.667 162.667 61 254 61
c66.667 0 125.334 -15 176.001 -45s76 -87 76 -171v-91c8 -6 18.333 -9.83301 31 -11.5s32.334 -2.5 59.001 -2.5zM358.999 652v-110h-110v110h110z" />
    <glyph glyph-name="uniFEAA" unicode="&#x62f;" horiz-adv-x="602" arabic-form="final" 
d="M619 120l0.000976562 -109.999l-17 -10c-33.333 0 -60.5 4.16699 -81.5 12.5s-37.167 21.166 -48.5 38.499c-28 -34 -74.667 -51 -140 -51h-292v130h351v73c0 22 -6.83301 41 -20.5 57s-41.667 30.667 -84 44s-104.5 24.333 -186.5 33l19 124
c104.667 -11.333 185.5 -28.666 242.5 -51.999s95.667 -50.833 116 -82.5s30.166 -69.167 29.499 -112.5l-1 -38c2 -14.667 6.83301 -25.334 14.5 -32.001s17.167 -10.667 28.5 -12s29 -2 53 -2z" />
    <glyph glyph-name="uniFEAC" unicode="&#x630;" horiz-adv-x="602" arabic-form="final" 
d="M619 120l0.000976562 -109.999l-17 -10c-33.333 0 -60.5 4.16699 -81.5 12.5s-37.167 21.166 -48.5 38.499c-28 -34 -74.667 -51 -140 -51h-292v130h351v73c0 22 -6.83301 41 -20.5 57s-41.667 30.667 -84 44s-104.5 24.333 -186.5 33l19 124
c104.667 -11.333 185.5 -28.666 242.5 -51.999s95.667 -50.833 116 -82.5s30.166 -69.167 29.499 -112.5l-1 -38c2 -14.667 6.83301 -25.334 14.5 -32.001s17.167 -10.667 28.5 -12s29 -2 53 -2zM302.001 678.001v-110h-110v110h110z" />
    <glyph glyph-name="uniFEAE" unicode="&#x631;" horiz-adv-x="365" arabic-form="final" 
d="M382 120l-0.00195312 -109.999l-17 -10c-41.333 0 -73.666 6.66699 -96.999 20v-58c0 -54.667 -13.167 -98.167 -39.5 -130.5s-72.166 -48.5 -137.499 -48.5h-101v130h97c26.667 0 45.167 3.16699 55.5 9.5s15.5 18.166 15.5 35.499v469h110v-230
c0 -21.333 3.33301 -36.833 10 -46.5s16.167 -15.5 28.5 -17.5s31.833 -3 58.5 -3z" />
    <glyph glyph-name="uniFEB0" unicode="&#x632;" horiz-adv-x="365" arabic-form="final" 
d="M382 120l-0.00195312 -109.999l-17 -10c-41.333 0 -73.666 6.66699 -96.999 20v-58c0 -54.667 -13.167 -98.167 -39.5 -130.5s-72.166 -48.5 -137.499 -48.5h-101v130h97c26.667 0 45.167 3.16699 55.5 9.5s15.5 18.166 15.5 35.499v469h110v-230
c0 -21.333 3.33301 -36.833 10 -46.5s16.167 -15.5 28.5 -17.5s31.833 -3 58.5 -3zM267.998 628.001v-110h-110v110h110z" />
    <glyph glyph-name="uniFEB2" unicode="&#x633;" horiz-adv-x="1324" arabic-form="final" 
d="M1341 120l0.000976562 -109.999l-17 -10c-87.333 0 -145.333 18.667 -174 56c-24.667 -37.333 -74 -56 -148 -56c-66.667 0 -111.667 17.333 -135 52c-10.667 -16 -27 -28.667 -49 -38s-50 -14 -84 -14h-106c-10.667 -64 -40 -115.333 -88 -154s-118 -58 -210 -58
c-107.333 0 -183.333 28 -228 84s-67 128 -67 216c0 38 3.83301 76.667 11.5 116s16.5 70 26.5 92h110c-7.33301 -22.667 -14.666 -51.667 -21.999 -87s-11 -72.333 -11 -111c0 -56.667 13.667 -100.834 41 -132.501s76.666 -47.5 147.999 -47.5c69.333 0 117.333 12 144 36
s40 59 40 105v306h110v-235h103c26 0 44.667 3.33301 56 10s17 17.334 17 32.001v193h110v-218c20 -11.333 48 -17 84 -17c31.333 0 53.666 3.16699 66.999 9.5s20 17.166 20 32.499v254h110v-275c26.667 -14 68 -21 124 -21z" />
    <glyph glyph-name="uniFEB3" unicode="&#x633;" horiz-adv-x="857" arabic-form="initial" 
d="M797 426l-0.00292969 -256c-2.66699 -56 -21.5 -98.333 -56.5 -127s-80.5 -43 -136.5 -43c-68.667 0 -116 16.667 -142 50c-27.333 -33.333 -77.666 -50 -150.999 -50c-72.667 0 -120.667 18.667 -144 56c-23.333 -37.333 -67.666 -56 -132.999 -56h-34l-17 10v110l17 10
h37c26 0 44.667 3.33301 56 10s17 17.334 17 32.001v193h110v-217c20.667 -12 51.334 -18 92.001 -18c34.667 0 59.167 3.16699 73.5 9.5s21.5 17.166 21.5 32.499v193h110v-217c19.333 -12 49 -18 89 -18c25.333 0 44.5 3.16699 57.5 9.5s20.833 16.5 23.5 30.5v256h110z
" />
    <glyph glyph-name="uniFEB4" unicode="&#x633;" horiz-adv-x="921" arabic-form="medial" 
d="M938 120l-0.000976562 -109.999l-17 -10c-87.333 0 -145.333 18.667 -174 56c-24.667 -37.333 -74 -56 -148 -56c-66.667 0 -111.667 17.667 -135 53c-26 -35.333 -77 -53 -153 -53c-72.667 0 -120.667 18.667 -144 56c-23.333 -37.333 -67.666 -56 -132.999 -56h-34
l-17 10v110l17 10h37c26 0 44.667 3.33301 56 10s17 17.334 17 32.001v193h110v-217c20.667 -12 51.334 -18 92.001 -18c34.667 0 59.167 3.16699 73.5 9.5s21.5 17.166 21.5 32.499v193h110v-218c20 -11.333 47.667 -17 83 -17c31.333 0 53.666 3.16699 66.999 9.5
s20 17.166 20 32.499v254h110v-275c26.667 -14 68 -21 124 -21z" />
    <glyph glyph-name="uniFEB6" unicode="&#x634;" horiz-adv-x="1324" arabic-form="final" 
d="M1341 120l0.000976562 -109.999l-17 -10c-87.333 0 -145.333 18.667 -174 56c-24.667 -37.333 -74 -56 -148 -56c-66.667 0 -111.667 17.333 -135 52c-10.667 -16 -27 -28.667 -49 -38s-50 -14 -84 -14h-106c-10.667 -64 -40 -115.333 -88 -154s-118 -58 -210 -58
c-107.333 0 -183.333 28 -228 84s-67 128 -67 216c0 38 3.83301 76.667 11.5 116s16.5 70 26.5 92h110c-7.33301 -22.667 -14.666 -51.667 -21.999 -87s-11 -72.333 -11 -111c0 -56.667 13.667 -100.834 41 -132.501s76.666 -47.5 147.999 -47.5c69.333 0 117.333 12 144 36
s40 59 40 105v306h110v-235h103c26 0 44.667 3.33301 56 10s17 17.334 17 32.001v193h110v-218c20 -11.333 48 -17 84 -17c31.333 0 53.666 3.16699 66.999 9.5s20 17.166 20 32.499v254h110v-275c26.667 -14 68 -21 124 -21zM923.001 745.001v-105h-110v105h110z
M841.001 597.001v-110h-105v110h105zM997.001 597.001v-110h-105v110h105z" />
    <glyph glyph-name="uniFEB7" unicode="&#x634;" horiz-adv-x="857" arabic-form="initial" 
d="M797 426l-0.00292969 -256c-2.66699 -56 -21.5 -98.333 -56.5 -127s-80.5 -43 -136.5 -43c-68.667 0 -116 16.667 -142 50c-27.333 -33.333 -77.666 -50 -150.999 -50c-72.667 0 -120.667 18.667 -144 56c-23.333 -37.333 -67.666 -56 -132.999 -56h-34l-17 10v110l17 10
h37c26 0 44.667 3.33301 56 10s17 17.334 17 32.001v193h110v-217c20.667 -12 51.334 -18 92.001 -18c34.667 0 59.167 3.16699 73.5 9.5s21.5 17.166 21.5 32.499v193h110v-217c19.333 -12 49 -18 89 -18c25.333 0 44.5 3.16699 57.5 9.5s20.833 16.5 23.5 30.5v256h110z
M518.997 743v-105h-110v105h110zM436.997 595v-110h-105v110h105zM592.997 595v-110h-105v110h105z" />
    <glyph glyph-name="uniFEB8" unicode="&#x634;" horiz-adv-x="921" arabic-form="medial" 
d="M938 120l-0.000976562 -109.999l-17 -10c-87.333 0 -145.333 18.667 -174 56c-24.667 -37.333 -74 -56 -148 -56c-66.667 0 -111.667 17.667 -135 53c-26 -35.333 -77 -53 -153 -53c-72.667 0 -120.667 18.667 -144 56c-23.333 -37.333 -67.666 -56 -132.999 -56h-34
l-17 10v110l17 10h37c26 0 44.667 3.33301 56 10s17 17.334 17 32.001v193h110v-217c20.667 -12 51.334 -18 92.001 -18c34.667 0 59.167 3.16699 73.5 9.5s21.5 17.166 21.5 32.499v193h110v-218c20 -11.333 47.667 -17 83 -17c31.333 0 53.666 3.16699 66.999 9.5
s20 17.166 20 32.499v254h110v-275c26.667 -14 68 -21 124 -21zM519.999 746.001v-105h-110v105h110zM437.999 598.001v-110h-105v110h105zM593.999 598.001v-110h-105v110h105z" />
    <glyph glyph-name="uniFEBA" unicode="&#x635;" horiz-adv-x="1211" arabic-form="final" 
d="M1228 120l0.00195312 -109.999l-17 -10c-63.333 0 -106.333 16.333 -129 49c-41.333 -32.667 -100 -49 -176 -49h-278c-10.667 -64 -40 -115.333 -88 -154s-118 -58 -210 -58c-107.333 0 -183.333 28 -228 84s-67 128 -67 216c0 38 3.83301 76.667 11.5 116
s16.5 70 26.5 92h110c-7.33301 -22.667 -14.666 -51.667 -21.999 -87s-11 -72.333 -11 -111c0 -56.667 13.667 -100.834 41 -132.501s76.666 -47.5 147.999 -47.5c69.333 0 117.333 12 144 36s40 59 40 105v358h110v-51l33 12c70.667 24.667 127.167 43 169.5 55
s80.833 18 115.5 18c60.667 0 109.5 -19.167 146.5 -57.5s55.5 -92.5 55.5 -162.5c0 -36.667 -4.33301 -68 -13 -94c7.33301 -3.33301 16.166 -5.33301 26.499 -6s25.166 -1 44.499 -1zM1009 149.501c20.667 13 31 37.499 31 73.499c0 33.333 -9.83301 58 -29.5 74
s-46.167 24 -79.5 24c-28 0 -61.5 -5.16699 -100.5 -15.5s-95.167 -27.166 -168.5 -50.499l-29 -9v-116h273c48 0 82.333 6.5 103 19.5z" />
    <glyph glyph-name="uniFEBB" unicode="&#x635;" horiz-adv-x="781" arabic-form="initial" 
d="M665.5 393.5c37 -38.333 55.5 -92.501 55.5 -162.501c0 -79.333 -21 -137.666 -63 -174.999s-103.333 -56 -184 -56h-474l-17 15v99l17 16h96v285h110v-47l33 12c69.333 24 124.833 41.833 166.5 53.5s79.5 17.5 113.5 17.5c60.667 0 109.5 -19.167 146.5 -57.5z
M577 149.499c20.667 13 30.999 37.5 30.999 73.5c0 33.333 -9.83301 58 -29.5 74s-46.167 24 -79.5 24c-28 0 -61.167 -5 -99.5 -15s-93.166 -26.333 -164.499 -49l-29 -9v-118h268c48 0 82.333 6.5 103 19.5z" />
    <glyph glyph-name="uniFEBC" unicode="&#x635;" horiz-adv-x="779" arabic-form="medial" 
d="M796 120l0.00195312 -110l-17 -10c-63.333 -0 -106.333 16.333 -129 49c-41.333 -32.667 -100 -49 -176 -49h-474l-17 15v99l17 16h96v285h110v-47l33 12c69.333 24 124.833 41.833 166.5 53.5s79.5 17.5 113.5 17.5c60.667 0 109.5 -19.167 146.5 -57.5
s55.5 -92.5 55.5 -162.5c0 -36.667 -4.33301 -68 -13 -94c7.33301 -3.33301 16.166 -5.33301 26.499 -6s25.166 -1 44.499 -1zM577.002 149.5c20.667 13 30.999 37.5 30.999 73.5c0 33.333 -9.83301 58 -29.5 74s-46.167 24 -79.5 24c-28 0 -61.167 -5 -99.5 -15
s-93.166 -26.333 -164.499 -49l-29 -9v-118h268c48 0 82.333 6.5 103 19.5z" />
    <glyph glyph-name="uniFEBE" unicode="&#x636;" horiz-adv-x="1211" arabic-form="final" 
d="M1228 120l0.00195312 -109.999l-17 -10c-63.333 0 -106.333 16.333 -129 49c-41.333 -32.667 -100 -49 -176 -49h-278c-10.667 -64 -40 -115.333 -88 -154s-118 -58 -210 -58c-107.333 0 -183.333 28 -228 84s-67 128 -67 216c0 38 3.83301 76.667 11.5 116
s16.5 70 26.5 92h110c-7.33301 -22.667 -14.666 -51.667 -21.999 -87s-11 -72.333 -11 -111c0 -56.667 13.667 -100.834 41 -132.501s76.666 -47.5 147.999 -47.5c69.333 0 117.333 12 144 36s40 59 40 105v358h110v-51l33 12c70.667 24.667 127.167 43 169.5 55
s80.833 18 115.5 18c60.667 0 109.5 -19.167 146.5 -57.5s55.5 -92.5 55.5 -162.5c0 -36.667 -4.33301 -68 -13 -94c7.33301 -3.33301 16.166 -5.33301 26.499 -6s25.166 -1 44.499 -1zM1009 149.501c20.667 13 31 37.499 31 73.499c0 33.333 -9.83301 58 -29.5 74
s-46.167 24 -79.5 24c-28 0 -61.5 -5.16699 -100.5 -15.5s-95.167 -27.166 -168.5 -50.499l-29 -9v-116h273c48 0 82.333 6.5 103 19.5zM749.002 616v-110h-110v110h110z" />
    <glyph glyph-name="uniFEBF" unicode="&#x636;" horiz-adv-x="781" arabic-form="initial" 
d="M665.5 393.5c37 -38.333 55.5 -92.501 55.5 -162.501c0 -79.333 -21 -137.666 -63 -174.999s-103.333 -56 -184 -56h-474l-17 15v99l17 16h96v285h110v-47l33 12c69.333 24 124.833 41.833 166.5 53.5s79.5 17.5 113.5 17.5c60.667 0 109.5 -19.167 146.5 -57.5z
M577 149.499c20.667 13 30.999 37.5 30.999 73.5c0 33.333 -9.83301 58 -29.5 74s-46.167 24 -79.5 24c-28 0 -61.167 -5 -99.5 -15s-93.166 -26.333 -164.499 -49l-29 -9v-118h268c48 0 82.333 6.5 103 19.5zM316.999 615.999v-110h-110v110h110z" />
    <glyph glyph-name="uniFEC0" unicode="&#x636;" horiz-adv-x="779" arabic-form="medial" 
d="M796 120l0.00195312 -110l-17 -10c-63.333 -0 -106.333 16.333 -129 49c-41.333 -32.667 -100 -49 -176 -49h-474l-17 15v99l17 16h96v285h110v-47l33 12c69.333 24 124.833 41.833 166.5 53.5s79.5 17.5 113.5 17.5c60.667 0 109.5 -19.167 146.5 -57.5
s55.5 -92.5 55.5 -162.5c0 -36.667 -4.33301 -68 -13 -94c7.33301 -3.33301 16.166 -5.33301 26.499 -6s25.166 -1 44.499 -1zM577.002 149.5c20.667 13 30.999 37.5 30.999 73.5c0 33.333 -9.83301 58 -29.5 74s-46.167 24 -79.5 24c-28 0 -61.167 -5 -99.5 -15
s-93.166 -26.333 -164.499 -49l-29 -9v-118h268c48 0 82.333 6.5 103 19.5zM317.001 616v-110h-110v110h110z" />
    <glyph glyph-name="uniFEC2" unicode="&#x637;" horiz-adv-x="785" arabic-form="final" 
d="M802 120l-0.000976562 -110.001l-17 -10c-33.333 0 -60.666 4.33301 -81.999 13s-38 22 -50 40c-41.333 -35.333 -102 -53 -182 -53h-441v130h88v583h110v-338l23 9c62 22.667 112.167 39.5 150.5 50.5s74.5 16.5 108.5 16.5c62.667 0 113 -19.667 151 -59
s57 -94.666 57 -165.999c0 -30.667 -3.66699 -59 -11 -85c7.33301 -4.66699 16.5 -7.66699 27.5 -9s27.833 -2 50.5 -2zM573.999 148.499c20.667 12.333 31.001 35.5 31.001 69.5c0 34.667 -9.83301 60.5 -29.5 77.5s-46.167 25.5 -79.5 25.5
c-24.667 0 -52.834 -4 -84.501 -12s-74.5 -20.667 -128.5 -38l-55 -17v-124h243c48 0 82.333 6.16699 103 18.5z" />
    <glyph glyph-name="uniFEC3" unicode="&#x637;" horiz-adv-x="740" arabic-form="initial" 
d="M623 392c38 -39.333 57 -94.667 57 -166c0 -77.333 -21 -134.333 -63 -171s-103.333 -55 -184 -55h-433l-17 10v110l17 10h80v583h110v-338l23 9c62 22.667 112.167 39.5 150.5 50.5s74.5 16.5 108.5 16.5c62.667 0 113 -19.667 151 -59zM536 148.499
c20.667 12.333 31.001 35.5 31.001 69.5c0 34.667 -9.83301 60.5 -29.5 77.5s-46.167 25.5 -79.5 25.5c-24.667 0 -52.834 -4 -84.501 -12s-74.5 -20.667 -128.5 -38l-55 -17v-124h243c48 0 82.333 6.16699 103 18.5z" />
    <glyph glyph-name="uniFEC4" unicode="&#x637;" horiz-adv-x="743" arabic-form="medial" 
d="M760 120l-0.000976562 -110l-17 -10c-33.333 0 -60.5 4.16699 -81.5 12.5s-37.167 21.166 -48.5 38.499c-40.667 -34 -100.667 -51 -180 -51h-433l-17 10v110l17 10h80v583h110v-338l23 9c62 22.667 112.167 39.5 150.5 50.5s74.5 16.5 108.5 16.5
c62.667 0 113 -19.667 151 -59s57 -94.666 57 -165.999c0 -32 -3.66699 -61 -11 -87c7.33301 -4 16.333 -6.5 27 -7.5s26.334 -1.5 47.001 -1.5zM535.999 148.5c20.667 12.333 31.001 35.5 31.001 69.5c0 34.667 -9.83301 60.5 -29.5 77.5s-46.167 25.5 -79.5 25.5
c-24.667 0 -52.834 -4 -84.501 -12s-74.5 -20.667 -128.5 -38l-55 -17v-124h243c48 0 82.333 6.16699 103 18.5z" />
    <glyph glyph-name="uniFEC6" unicode="&#x638;" horiz-adv-x="785" arabic-form="final" 
d="M802 120l-0.000976562 -110.001l-17 -10c-33.333 0 -60.666 4.33301 -81.999 13s-38 22 -50 40c-41.333 -35.333 -102 -53 -182 -53h-441v130h88v583h110v-338l23 9c62 22.667 112.167 39.5 150.5 50.5s74.5 16.5 108.5 16.5c62.667 0 113 -19.667 151 -59
s57 -94.666 57 -165.999c0 -30.667 -3.66699 -59 -11 -85c7.33301 -4.66699 16.5 -7.66699 27.5 -9s27.833 -2 50.5 -2zM573.999 148.499c20.667 12.333 31.001 35.5 31.001 69.5c0 34.667 -9.83301 60.5 -29.5 77.5s-46.167 25.5 -79.5 25.5
c-24.667 0 -52.834 -4 -84.501 -12s-74.5 -20.667 -128.5 -38l-55 -17v-124h243c48 0 82.333 6.16699 103 18.5zM531 661.999v-110h-110v110h110z" />
    <glyph glyph-name="uniFEC7" unicode="&#x638;" horiz-adv-x="740" arabic-form="initial" 
d="M623 392c38 -39.333 57 -94.667 57 -166c0 -77.333 -21 -134.333 -63 -171s-103.333 -55 -184 -55h-433l-17 10v110l17 10h80v583h110v-338l23 9c62 22.667 112.167 39.5 150.5 50.5s74.5 16.5 108.5 16.5c62.667 0 113 -19.667 151 -59zM536 148.499
c20.667 12.333 31.001 35.5 31.001 69.5c0 34.667 -9.83301 60.5 -29.5 77.5s-46.167 25.5 -79.5 25.5c-24.667 0 -52.834 -4 -84.501 -12s-74.5 -20.667 -128.5 -38l-55 -17v-124h243c48 0 82.333 6.16699 103 18.5zM503.001 651.999v-110h-110v110h110z" />
    <glyph glyph-name="uniFEC8" unicode="&#x638;" horiz-adv-x="743" arabic-form="medial" 
d="M760 120l-0.000976562 -110l-17 -10c-33.333 0 -60.5 4.16699 -81.5 12.5s-37.167 21.166 -48.5 38.499c-40.667 -34 -100.667 -51 -180 -51h-433l-17 10v110l17 10h80v583h110v-338l23 9c62 22.667 112.167 39.5 150.5 50.5s74.5 16.5 108.5 16.5
c62.667 0 113 -19.667 151 -59s57 -94.666 57 -165.999c0 -32 -3.66699 -61 -11 -87c7.33301 -4 16.333 -6.5 27 -7.5s26.334 -1.5 47.001 -1.5zM535.999 148.5c20.667 12.333 31.001 35.5 31.001 69.5c0 34.667 -9.83301 60.5 -29.5 77.5s-46.167 25.5 -79.5 25.5
c-24.667 0 -52.834 -4 -84.501 -12s-74.5 -20.667 -128.5 -38l-55 -17v-124h243c48 0 82.333 6.16699 103 18.5zM503 652v-110h-110v110h110z" />
    <glyph glyph-name="uniFECA" unicode="&#x639;" horiz-adv-x="596" arabic-form="final" 
d="M613 126l-0.000976562 -122l-17 -4c-84.667 0 -148.334 2.66699 -191.001 8s-76.667 16 -102 32c-41.333 -9.33301 -72.666 -17.333 -93.999 -24s-39.666 -18.167 -54.999 -34.5s-23 -38.833 -23 -67.5c0 -30.667 11.5 -55.5 34.5 -74.5s65.167 -28.5 126.5 -28.5h256
v-130h-267c-94.667 0 -162.5 20.667 -203.5 62s-61.5 97.333 -61.5 168c0 54.667 15.167 101.167 45.5 139.5s72.5 63.5 126.5 75.5l-116 159v127c26 10.667 59.167 19.5 99.5 26.5s85.5 10.5 135.5 10.5c90 0 168.333 -12.333 235 -37v-127l-113 -155h167zM186.999 315
l120 -170l119 169c-38 6.66699 -77.667 10 -119 10s-81.333 -3 -120 -9z" />
    <glyph glyph-name="uniFECB" unicode="&#x639;" horiz-adv-x="534" arabic-form="initial" 
d="M492 130l-0.000976562 -130h-492l-17 3v123l17 4h73c-16.667 26 -25 61.333 -25 106c0 72 21.667 125.833 65 161.5s99.333 53.5 168 53.5c33.333 0 65.5 -3 96.5 -9s54.833 -12.667 71.5 -20l-27 -120c-24 5.33301 -46.167 9.83301 -66.5 13.5s-45.166 5.5 -74.499 5.5
c-40 0 -69.667 -7.5 -89 -22.5s-29 -35.833 -29 -62.5c0 -36.667 10.667 -63.5 32 -80.5s58.333 -25.5 111 -25.5h186z" />
    <glyph glyph-name="uniFECC" unicode="&#x639;" horiz-adv-x="578" arabic-form="medial" 
d="M595 126v-122l-17 -4c-86 0 -149.5 3.66699 -190.5 11s-73.833 22 -98.5 44c-24.667 -22 -57.5 -36.667 -98.5 -44s-104.5 -11 -190.5 -11l-17 4v122l17 4h167l-113 157v127c26 10.667 59.167 19.5 99.5 26.5s85.5 10.5 135.5 10.5c92.667 0 171 -12.333 235 -37v-127
l-113 -157h167zM169 317l120 -172l119 171c-35.333 6.66699 -75 10 -119 10c-41.333 0 -81.333 -3 -120 -9z" />
    <glyph glyph-name="uniFECE" unicode="&#x63a;" horiz-adv-x="596" arabic-form="final" 
d="M613 126l-0.000976562 -122l-17 -4c-84.667 0 -148.334 2.66699 -191.001 8s-76.667 16 -102 32c-41.333 -9.33301 -72.666 -17.333 -93.999 -24s-39.666 -18.167 -54.999 -34.5s-23 -38.833 -23 -67.5c0 -30.667 11.5 -55.5 34.5 -74.5s65.167 -28.5 126.5 -28.5h256
v-130h-267c-94.667 0 -162.5 20.667 -203.5 62s-61.5 97.333 -61.5 168c0 54.667 15.167 101.167 45.5 139.5s72.5 63.5 126.5 75.5l-116 159v127c26 10.667 59.167 19.5 99.5 26.5s85.5 10.5 135.5 10.5c90 0 168.333 -12.333 235 -37v-127l-113 -155h167zM186.999 315
l120 -170l119 169c-38 6.66699 -77.667 10 -119 10s-81.333 -3 -120 -9zM361.999 658v-110h-110v110h110z" />
    <glyph glyph-name="uniFECF" unicode="&#x63a;" horiz-adv-x="534" arabic-form="initial" 
d="M492 130l-0.000976562 -130h-492l-17 3v123l17 4h73c-16.667 26 -25 61.333 -25 106c0 72 21.667 125.833 65 161.5s99.333 53.5 168 53.5c33.333 0 65.5 -3 96.5 -9s54.833 -12.667 71.5 -20l-27 -120c-24 5.33301 -46.167 9.83301 -66.5 13.5s-45.166 5.5 -74.499 5.5
c-40 0 -69.667 -7.5 -89 -22.5s-29 -35.833 -29 -62.5c0 -36.667 10.667 -63.5 32 -80.5s58.333 -25.5 111 -25.5h186zM331.999 658v-110h-110v110h110z" />
    <glyph glyph-name="uniFED0" unicode="&#x63a;" horiz-adv-x="578" arabic-form="medial" 
d="M595 126v-122l-17 -4c-86 0 -149.5 3.66699 -190.5 11s-73.833 22 -98.5 44c-24.667 -22 -57.5 -36.667 -98.5 -44s-104.5 -11 -190.5 -11l-17 4v122l17 4h167l-113 157v127c26 10.667 59.167 19.5 99.5 26.5s85.5 10.5 135.5 10.5c92.667 0 171 -12.333 235 -37v-127
l-113 -157h167zM169 317l120 -172l119 171c-35.333 6.66699 -75 10 -119 10c-41.333 0 -81.333 -3 -120 -9zM344 658v-110h-110v110h110z" />
    <glyph glyph-name="uniFED2" unicode="&#x641;" horiz-adv-x="1017" arabic-form="final" 
d="M1034 125l-0.000976562 -120l-17 -5h-715c-70 -0 -124.5 11.333 -163.5 34s-66 53.834 -81 93.501s-22.5 87.5 -22.5 143.5c0 26 3 53.333 9 82s13.333 54.334 22 77.001l110 1c-6.66699 -18.667 -12.667 -42.334 -18 -71.001s-8 -53 -8 -73
c0 -40 5.16699 -71.333 15.5 -94s26.333 -38.834 48 -48.501s51.167 -14.5 88.5 -14.5h254c-29.333 34 -44 75 -44 123c0 72 19.833 127.167 59.5 165.5s92.5 57.5 158.5 57.5c64.667 0 114.834 -18.167 150.501 -54.5s53.5 -87.833 53.5 -154.5
c0 -53.333 -16.667 -99 -50 -137h133zM652.999 324c-17.333 -14.667 -26.002 -36 -26.002 -64c0 -20 6.83301 -39.833 20.5 -59.5s40.167 -43.167 79.5 -70.5c38.667 26.667 63.667 49.5 75 68.5s17 39.5 17 61.5c0 28 -8.66699 49.333 -26 64s-40.666 22 -69.999 22
s-52.666 -7.33301 -69.999 -22zM784.997 697v-110h-110v110h110z" />
    <glyph glyph-name="uniFED3" unicode="&#x641;" horiz-adv-x="518" arabic-form="initial" 
d="M458 209c0 -69.333 -15.834 -121.5 -47.501 -156.5s-84.167 -52.5 -157.5 -52.5h-253l-17 10v110l17 10h254c34.667 0 58.834 5 72.501 15s20.5 28.333 20.5 55v50c-24 -38 -67.333 -57 -130 -57c-61.333 0 -107.333 18.167 -138 54.5s-46 81.5 -46 135.5
c0 44.667 10 84 30 118s48.167 60.5 84.5 79.5s78.833 28.5 127.5 28.5c34.667 0 68 -4.5 100 -13.5s59.333 -20.167 82 -33.5zM346.999 353v108.001c-24 12 -52 18 -84 18c-38 0 -66.667 -7.33301 -86 -22s-29 -34.334 -29 -59.001c0 -22 8 -40 24 -54s40 -21 72 -21
c50 0 84.333 10 103 30zM329.999 810.001v-110h-110v110h110z" />
    <glyph glyph-name="uniFED4" unicode="&#x641;" horiz-adv-x="554" arabic-form="medial" 
d="M571 125l-0.000976562 -120l-17 -5h-554l-17 5v120l17 5h110c-29.333 34 -44 75 -44 123c0 72 19.833 127.167 59.5 165.5s92.5 57.5 158.5 57.5c64.667 0 114.834 -18.167 150.501 -54.5s53.5 -87.833 53.5 -154.5c0 -53.333 -16.667 -99 -50 -137h116zM206.999 324
c-17.333 -14.667 -26.002 -36 -26.002 -64c0 -20 6.83301 -39.833 20.5 -59.5s40.167 -43.167 79.5 -70.5c38.667 26.667 63.667 49.5 75 68.5s17 39.5 17 61.5c0 28 -8.66699 49.333 -26 64s-40.666 22 -69.999 22s-52.666 -7.33301 -69.999 -22zM338.997 697v-110h-110
v110h110z" />
    <glyph glyph-name="uniFED6" unicode="&#x642;" horiz-adv-x="850" arabic-form="final" 
d="M867 120v-109.997l-17 -10h-98v-8c0 -72.667 -19.833 -127.334 -59.5 -164.001s-105.167 -55 -196.5 -55h-147c-84.667 0 -149.667 10.5 -195 31.5s-76.5 52.667 -93.5 95s-25.5 99.5 -25.5 171.5c0 34.667 3.83301 69 11.5 103s16.167 61 25.5 81h110
c-8.66699 -23.333 -16.167 -51 -22.5 -83s-9.5 -63.333 -9.5 -94c0 -42 5.16699 -75.333 15.5 -100s29.833 -43.334 58.5 -56.001s70.334 -19 125.001 -19h150c36 0 64.167 2.66699 84.5 8s35.166 14.5 44.499 27.5s14 31.5 14 55.5v6h-115
c-79.333 0 -134.833 19.333 -166.5 58s-47.5 89.334 -47.5 152.001c0 47.333 10.333 89.166 31 125.499s50.167 64.666 88.5 84.999s82.5 30.5 132.5 30.5c35.333 0 69.5 -4.5 102.5 -13.5s61.167 -20.167 84.5 -33.5v-274h98zM642 130.003v172.999
c-25.333 12 -55 18 -89 18c-41.333 0 -72.5 -8.66699 -93.5 -26s-31.5 -40.666 -31.5 -69.999c0 -28 9 -50.833 27 -68.5s44.333 -26.5 79 -26.5h108zM542 663.002v-110h-105v110h105zM693 663.002v-110h-105v110h105z" />
    <glyph glyph-name="uniFED7" unicode="&#x642;" horiz-adv-x="518" arabic-form="initial" 
d="M458 209c0 -69.333 -15.834 -121.5 -47.501 -156.5s-84.167 -52.5 -157.5 -52.5h-253l-17 10v110l17 10h254c34.667 0 58.834 5 72.501 15s20.5 28.333 20.5 55v50c-24 -38 -67.333 -57 -130 -57c-61.333 0 -107.333 18.167 -138 54.5s-46 81.5 -46 135.5
c0 44.667 10 84 30 118s48.167 60.5 84.5 79.5s78.833 28.5 127.5 28.5c34.667 0 68 -4.5 100 -13.5s59.333 -20.167 82 -33.5zM346.999 353v108.001c-24 12 -52 18 -84 18c-38 0 -66.667 -7.33301 -86 -22s-29 -34.334 -29 -59.001c0 -22 8 -40 24 -54s40 -21 72 -21
c50 0 84.333 10 103 30zM251.999 811.001v-110h-105v110h105zM402.999 811.001v-110h-105v110h105z" />
    <glyph glyph-name="uniFED8" unicode="&#x642;" horiz-adv-x="554" arabic-form="medial" 
d="M571 125l-0.000976562 -120l-17 -5h-554l-17 5v120l17 5h110c-29.333 34 -44 75 -44 123c0 72 19.833 127.167 59.5 165.5s92.5 57.5 158.5 57.5c64.667 0 114.834 -18.167 150.501 -54.5s53.5 -87.833 53.5 -154.5c0 -53.333 -16.667 -99 -50 -137h116zM206.999 324
c-17.333 -14.667 -26.002 -36 -26.002 -64c0 -20 6.83301 -39.833 20.5 -59.5s40.167 -43.167 79.5 -70.5c38.667 26.667 63.667 49.5 75 68.5s17 39.5 17 61.5c0 28 -8.66699 49.333 -26 64s-40.666 22 -69.999 22s-52.666 -7.33301 -69.999 -22zM260.997 698v-110h-105
v110h105zM411.997 698v-110h-105v110h105z" />
    <glyph glyph-name="uniFEDA" unicode="&#x643;" horiz-adv-x="906" arabic-form="final" 
d="M923 120l-0.000976562 -109.999l-17 -10c-37.333 0 -67.166 5.33301 -89.499 16s-38.833 27.334 -49.5 50.001c-36.667 -44 -100 -66 -190 -66h-273c-71.333 0 -126.666 10.333 -165.999 31s-66.333 48.834 -81 84.501s-22 79.834 -22 132.501
c0 25.333 3.16699 52.166 9.5 80.499s13.833 52.833 22.5 73.5h105c-6.66699 -18.667 -12.834 -41.834 -18.501 -69.501s-8.5 -50.834 -8.5 -69.501c0 -50 12.167 -84.667 36.5 -104s65.833 -29 124.5 -29h277c36.667 0 65.167 4.16699 85.5 12.5s30.5 25.166 30.5 50.499
v520h110v-516c0 -21.333 3.33301 -36.833 10 -46.5s16.167 -15.5 28.5 -17.5s31.833 -3 58.5 -3zM432.999 283.001l-113 -0.000976562v80h112c13.333 0 24.166 1.5 32.499 4.5s12.5 7.16699 12.5 12.5c0 10.667 -9.66699 20.334 -29 29.001s-55.666 13 -108.999 13l-6 102
l192 83l12 -76l-114 -46c37.333 -4 67.333 -14.333 90 -31s34 -40.667 34 -72c0 -66 -38 -99 -114 -99z" />
    <glyph glyph-name="uniFEDB" unicode="&#x643;" horiz-adv-x="627" arabic-form="initial" 
d="M474.5 399c39 -19.333 65.833 -45.833 80.5 -79.5s22 -74.167 22 -121.5v-68c0 -86.667 -38 -130 -114 -130h-463l-17 4v122l17 4h462v68c0 38 -11 66.833 -33 86.5s-62.333 29.5 -121 29.5h-237l-32 123l388 296l65 -100l-285 -205h105
c69.333 0 123.5 -9.66699 162.5 -29z" />
    <glyph glyph-name="uniFEDC" unicode="&#x643;" horiz-adv-x="671" arabic-form="medial" 
d="M688 120l0.000976562 -110l-17 -10c-55.333 -0 -95 12.333 -119 37c-18.667 -24.667 -48.334 -37 -89.001 -37h-463l-17 4v122l17 4h462v68c0 38 -11 66.833 -33 86.5s-62.333 29.5 -121 29.5h-237l-32 123l388 296l65 -100l-285 -205h105
c69.333 0 123.5 -9.66699 162.5 -29s65.833 -45.833 80.5 -79.5s22 -74.167 22 -121.5v-31c4 -16.667 12.667 -27 26 -31s36 -6 68 -6z" />
    <glyph glyph-name="uniFEDE" unicode="&#x644;" horiz-adv-x="700" arabic-form="final" 
d="M717 120l-0.000976562 -110l-17 -10c-48.667 -0 -84.667 9.33301 -108 28c-15.333 -55.333 -45.5 -99.166 -90.5 -131.499s-107.167 -48.5 -186.5 -48.5c-102 0 -174.167 28 -216.5 84s-63.5 128 -63.5 216c0 38 3.83301 76.667 11.5 116s16.5 70 26.5 92h110
c-7.33301 -22.667 -14.666 -51.667 -21.999 -87s-11 -72.333 -11 -111c0 -56.667 12.5 -100.834 37.5 -132.501s70.5 -47.5 136.5 -47.5c64 0 108.167 12 132.5 36s36.5 59 36.5 105v594h110v-516c0 -21.333 3.33301 -36.833 10 -46.5s16.167 -15.5 28.5 -17.5
s31.833 -3 58.5 -3z" />
    <glyph glyph-name="uniFEDF" unicode="&#x644;" horiz-adv-x="275" arabic-form="initial" 
d="M-17 120l17 10.002c24.667 0 43.5 1.66699 56.5 5s22.667 10.166 29 20.499s9.5 26.166 9.5 47.499v510h110v-505c0 -73.333 -15.5 -126.333 -46.5 -159s-83.833 -49 -158.5 -49l-17 10v110z" />
    <glyph glyph-name="uniFEE0" unicode="&#x644;" horiz-adv-x="302" arabic-form="medial" 
d="M319 120l0.000976562 -109.998l-17 -10c-35.333 0 -63.833 4.83301 -85.5 14.5s-38.167 24.5 -49.5 44.5c-30.667 -39.333 -86.334 -59 -167.001 -59l-17 10v110l17 10c24.667 0 43.5 1.66699 56.5 5s22.667 10.166 29 20.499s9.5 26.166 9.5 47.499v510h110v-516
c0 -21.333 3.33301 -36.833 10 -46.5s16.167 -15.5 28.5 -17.5s31.833 -3 58.5 -3z" />
    <glyph glyph-name="uniFEE2" unicode="&#x645;" horiz-adv-x="783" arabic-form="final" 
d="M800 120l-0.00292969 -109.999l-17 -10c-33.333 0 -60.666 4.33301 -81.999 13s-37.666 21.667 -48.999 39c-36.667 -52 -99 -78 -187 -78c-47.333 0 -86.666 8.83301 -117.999 26.5s-55.333 42.167 -72 73.5h-47c-24.667 0 -43 -1.83301 -55 -5.5
s-20.5 -10.5 -25.5 -20.5s-7.5 -25.667 -7.5 -47v-300h-110v304c0 65.333 16.833 114.166 50.5 146.499s89.167 49.833 166.5 52.5c1.33301 48.667 12.5 91.667 33.5 129s50.333 66.333 88 87s81.167 31 130.5 31c35.333 0 69.5 -4.5 102.5 -13.5s61.167 -20.167 84.5 -33.5
v-207c0 -21.333 3.33301 -36.833 10 -46.5s16.167 -15.5 28.5 -17.5s31.833 -3 58.5 -3zM575.997 303.001c-25.333 12 -55.001 17.999 -89.001 17.999c-41.333 0 -72.5 -10.167 -93.5 -30.5s-31.5 -47.5 -31.5 -81.5c0 -31.333 9.33301 -56.666 28 -75.999
s46.334 -29 83.001 -29c28 0 50.5 5 67.5 15s28.5 24 34.5 42z" />
    <glyph glyph-name="uniFEE3" unicode="&#x645;" horiz-adv-x="569" arabic-form="initial" 
d="M424.5 437.5c33 -9 61.167 -20.1699 84.5 -33.5029v-238c0 -48.667 -17.333 -90.167 -52 -124.5s-91 -51.5 -169 -51.5c-65.333 0 -117 17.333 -155 52c-14 -14 -31.5 -24.5 -52.5 -31.5s-47.833 -10.5 -80.5 -10.5l-17 10v110l17 10c20 0 36 0.833008 48 2.5
s21.667 4.83398 29 9.50098c-4.66699 18 -7 38.333 -7 61c0 48.667 10.333 91.834 31 129.501s50.167 66.834 88.5 87.501s82.5 31 132.5 31c35.333 0 69.5 -4.5 102.5 -13.5zM399 302.997c-25.333 12 -55.001 18 -89.001 18c-41.333 0 -72.5 -9.33301 -93.5 -28
s-31.5 -43.667 -31.5 -75c0 -29.333 9.33301 -53 28 -71s46.334 -27 83.001 -27c54.667 0 88.667 13.667 102 41z" />
    <glyph glyph-name="uniFEE4" unicode="&#x645;" horiz-adv-x="606" arabic-form="medial" 
d="M623 120l-0.00195312 -110.002l-17 -10c-35.333 0 -63.666 4.66699 -84.999 14s-37.666 23.666 -48.999 42.999c-38 -44.667 -99.333 -67 -184 -67c-65.333 0 -117 17.333 -155 52c-14 -14 -31.5 -24.5 -52.5 -31.5s-47.833 -10.5 -80.5 -10.5l-17 10v110l17 10
c20 0 36 0.833008 48 2.5s21.667 4.83398 29 9.50098c-4.66699 18 -7 38.333 -7 61c0 48.667 10.333 91.834 31 129.501s50.167 66.834 88.5 87.501s82.5 31 132.5 31c35.333 0 69.5 -4.5 102.5 -13.5s61.167 -20.167 84.5 -33.5v-207c0 -21.333 3.33301 -36.833 10 -46.5
s16.167 -15.5 28.5 -17.5s31.833 -3 58.5 -3zM398.998 302.998c-25.333 12 -55.001 18 -89.001 18c-41.333 0 -72.5 -9.33301 -93.5 -28s-31.5 -43.667 -31.5 -75c0 -29.333 9.33301 -53 28 -71s46.334 -27 83.001 -27c54.667 0 88.667 13.667 102 41z" />
    <glyph glyph-name="uniFEE6" unicode="&#x646;" horiz-adv-x="730" arabic-form="final" 
d="M747 120v-109.999l-17 -10c-42 0 -74.667 7 -98 21c-6.66699 -71.333 -34.167 -128.833 -82.5 -172.5s-121.5 -65.5 -219.5 -65.5c-107.333 0 -183.333 28 -228 84s-67 128 -67 216c0 38 3.83301 76.667 11.5 116s16.5 70 26.5 92h110
c-7.33301 -22.667 -14.666 -51.667 -21.999 -87s-11 -72.333 -11 -111c0 -56.667 13.667 -100.834 41 -132.501s76.666 -47.5 147.999 -47.5c69.333 0 117.333 12 144 36s40 59 40 105v373h110v-230c0 -21.333 3.33301 -36.833 10 -46.5s16.167 -15.5 28.5 -17.5
s31.833 -3 58.5 -3zM391 519.001v-110h-110v110h110z" />
    <glyph glyph-name="uniFEE7" unicode="&#x646;" horiz-adv-x="284" arabic-form="initial" 
d="M-17 120l16.999 10c29.333 0 51.833 1.5 67.5 4.5s27.334 9 35.001 18s11.5 22.833 11.5 41.5v233h110v-233c0 -67.333 -17 -116.5 -51 -147.5s-91.667 -46.5 -173 -46.5l-17 10v110zM224.999 628v-110h-110v110h110z" />
    <glyph glyph-name="uniFEE8" unicode="&#x646;" horiz-adv-x="338" arabic-form="medial" 
d="M355 120l-0.00195312 -110l-17 -10c-41.333 0 -74.333 5.16699 -99 15.5s-42.667 26.5 -54 48.5c-16 -22 -39 -38.167 -69 -48.5s-68.667 -15.5 -116 -15.5l-17 10v110l17 10c29.333 0 51.833 1.5 67.5 4.5s27.334 9 35.001 18s11.5 22.833 11.5 41.5v233h110v-230
c0 -21.333 3.83301 -36.833 11.5 -46.5s18.834 -15.5 33.501 -17.5s37.667 -3 69 -3zM225.998 628v-110h-110v110h110z" />
    <glyph glyph-name="uniFEEA" unicode="&#x647;" horiz-adv-x="573" arabic-form="final" 
d="M590 126l-0.000976562 -122l-17 -4c-54.667 0 -98.5 9 -131.5 27s-55.5 49.667 -67.5 95c-10.667 -25.333 -27.167 -45.333 -49.5 -60s-54.166 -22 -95.499 -22c-65.333 0 -114 20 -146 60s-48 90 -48 150c0 48.667 10.667 91.5 32 128.5s51.333 65.833 90 86.5
s83.667 31 135 31c23.333 0 47 -4 71 -12v43h110l-1 -308c0 -24 3 -42.333 9 -55s16.167 -21.5 30.5 -26.5s34.833 -7.5 61.5 -7.5zM362.999 206l-0.00195312 7v146c-23.333 4.66699 -47.666 7 -72.999 7c-46 0 -80.833 -9.16699 -104.5 -27.5s-35.5 -42.833 -35.5 -73.5
c0 -28 9 -50.833 27 -68.5s44.333 -26.5 79 -26.5c50.667 0 86.334 12 107.001 36z" />
    <glyph glyph-name="uniFEEB" unicode="&#x647;" horiz-adv-x="738" arabic-form="initial" 
d="M448 488.5c72.667 -27 129.165 -60.332 169.498 -99.999s60.5 -90.167 60.5 -151.5c0 -76.667 -20.5 -135.334 -61.5 -176.001s-114.5 -61 -220.5 -61c-60.667 0 -116 9.66699 -166 29c-25.333 -11.333 -57.666 -19 -96.999 -23s-83.666 -6 -132.999 -6l-17 5v120l17 5
h78c-25.333 32 -38 69.333 -38 112c0 48.667 13.167 90.667 39.5 126s61.5 60 105.5 74l-70 18l32 117c128 -32 228.333 -61.5 301 -88.5zM528.498 154.001c23 14.667 34.5 40 34.5 76c0 30.667 -10.333 56.5 -31 77.5s-57 41.833 -109 62.5v-240
c47.333 1.33301 82.5 9.33301 105.5 24zM180.998 326.001c-20.667 -18 -31 -42.668 -31 -74.001c0 -41.333 12.667 -70.666 38 -87.999s67 -28 125 -32v213c-13.333 5.33301 -30 8 -50 8c-34 0 -61.333 -9 -82 -27z" />
    <glyph glyph-name="uniFEEC" unicode="&#x647;" horiz-adv-x="585" arabic-form="medial" 
d="M602 126l-0.000976562 -122.001l-17 -4h-61c6.66699 -12 10 -25 10 -39c0 -57.333 -18.333 -104 -55 -140s-94 -54 -172 -54c-77.333 0 -136.666 19.333 -177.999 58s-63.333 97 -66 175h-63l-17 4v122l17 4h63v273c71.333 32 145 48 221 48
c44 0 81.833 -8.83301 113.5 -26.5s55.667 -42 72 -73s24.5 -66.5 24.5 -106.5c0 -49.333 -12 -87.666 -36 -114.999h127zM172.999 303.999v-174.001h76c48.667 0 82.5 7.5 101.5 22.5s28.5 38.167 28.5 69.5c0 28.667 -8.66699 52.334 -26 71.001s-43 28 -77 28
c-42.667 0 -77 -5.66699 -103 -17zM393.999 -85.502c16.667 11.667 24.998 25.833 24.998 42.5c0 42 -34.333 63 -103 63l-145 -1c0.666992 -46 11.834 -77.833 33.501 -95.5s58.167 -26.5 109.5 -26.5c36.667 0 63.334 5.83301 80.001 17.5z" />
    <glyph glyph-name="uniFEEE" unicode="&#x648;" horiz-adv-x="567" arabic-form="final" 
d="M584 120v-109.999l-17 -10h-98v-28c0 -62.667 -15.167 -109.834 -45.5 -141.501s-80.5 -47.5 -150.5 -47.5h-207v130h210c30.667 0 52.167 4.33301 64.5 13s18.5 24.667 18.5 48v26h-105c-86.667 0 -145.667 18.5 -177 55.5s-47 86.833 -47 149.5
c0 48.667 10.333 91.5 31 128.5s50.167 65.833 88.5 86.5s82.5 31 132.5 31c35.333 0 69.5 -4.5 102.5 -13.5s61.167 -20.167 84.5 -33.5v-274h98zM359 130.001v173c-25.333 12 -55 18 -89 18c-41.333 0 -72.5 -9.16699 -93.5 -27.5s-31.5 -42.833 -31.5 -73.5
c0 -60 38.667 -90 116 -90h98z" />
    <glyph glyph-name="uniFEF0" unicode="&#x649;" horiz-adv-x="763" arabic-form="final" 
d="M780 120l-0.000976562 -109.998l-17 -10h-37v-19c0 -148.667 -112 -223 -336 -223c-95.333 0 -169 13.167 -221 39.5s-87.333 62.166 -106 107.499s-28 101 -28 167c0 39.333 3.33301 79.166 10 119.499s14.334 71.166 23.001 92.499h110
c-6 -21.333 -12.167 -50.166 -18.5 -86.499s-9.5 -73.833 -9.5 -112.5c0 -52.667 7.5 -93 22.5 -121s40.167 -47.667 75.5 -59s86 -17 152 -17c59.333 0 104.333 3.5 135 10.5s51 16.333 61 28s15 26.167 15 43.5v30h-163v130h315z" />
    <glyph glyph-name="uniFEF2" unicode="&#x64a;" horiz-adv-x="763" arabic-form="final" 
d="M780 120l-0.000976562 -109.998l-17 -10h-37v-19c0 -148.667 -112 -223 -336 -223c-95.333 0 -169 13.167 -221 39.5s-87.333 62.166 -106 107.499s-28 101 -28 167c0 39.333 3.33301 79.166 10 119.499s14.334 71.166 23.001 92.499h110
c-6 -21.333 -12.167 -50.166 -18.5 -86.499s-9.5 -73.833 -9.5 -112.5c0 -52.667 7.5 -93 22.5 -121s40.167 -47.667 75.5 -59s86 -17 152 -17c59.333 0 104.333 3.5 135 10.5s51 16.333 61 28s15 26.167 15 43.5v30h-163v130h315zM374.999 -326.998v-110h-105v110h105z
M525.999 -326.998v-110h-105v110h105z" />
    <glyph glyph-name="uniFEF3" unicode="&#x64a;" horiz-adv-x="284" arabic-form="initial" 
d="M-17 120l16.999 10c29.333 0 51.833 1.5 67.5 4.5s27.334 9 35.001 18s11.5 22.833 11.5 41.5v233h110v-233c0 -67.333 -17 -116.5 -51 -147.5s-91.667 -46.5 -173 -46.5l-17 10v110zM129.999 -106v-110h-105v110h105zM280.999 -106v-110h-105v110h105z" />
    <glyph glyph-name="uniFEF4" unicode="&#x64a;" horiz-adv-x="338" arabic-form="medial" 
d="M355 120l-0.00195312 -110l-17 -10c-41.333 0 -74.333 5.16699 -99 15.5s-42.667 26.5 -54 48.5c-16 -22 -39 -38.167 -69 -48.5s-68.667 -15.5 -116 -15.5l-17 10v110l17 10c29.333 0 51.833 1.5 67.5 4.5s27.334 9 35.001 18s11.5 22.833 11.5 41.5v233h110v-230
c0 -21.333 3.83301 -36.833 11.5 -46.5s18.834 -15.5 33.501 -17.5s37.667 -3 69 -3zM154.998 -106v-110h-105v110h105zM305.998 -106v-110h-105v110h105z" />
    <glyph glyph-name=".notdef" horiz-adv-x="861" 
d="M802 750v-750h-743v750h743zM706 659h-551v-568h551v568zM319 205l-56 58l106 106l-106 107l56 57l107 -107l106 106l57 -56l-106 -107l106 -106l-57 -57l-106 107z" />
    <glyph glyph-name="space" unicode=" " horiz-adv-x="245" 
 />
    <glyph glyph-name="exclam" unicode="!" horiz-adv-x="264" 
d="M60 750h144l-30 -513h-84zM70 142h125v-142h-125v142z" />
    <glyph glyph-name="quotedbl" unicode="&#x22;" horiz-adv-x="418" 
d="M61 750h117l-18 -296h-81zM240 750h117l-18 -296h-81z" />
    <glyph glyph-name="numbersign" unicode="#" horiz-adv-x="902" 
d="M690 495l-70 -207h189v-77h-215l-72 -211h-85l72 211h-234l-72 -211h-85l72 211h-151v77h177l70 207h-191v77h217l61 178h85l-61 -178h234l61 178h85l-61 -178h147v-77h-173zM605 495h-234l-70 -207h234z" />
    <glyph glyph-name="dollar" unicode="$" horiz-adv-x="657" 
d="M559 57.5c-45.333 -41.667 -107.005 -65.166 -185.005 -70.499v-97h-66v97c-83.333 6 -149.166 33 -197.499 81s-73.5 111.667 -75.5 191h138c1.33301 -49.333 17.5 -87.833 48.5 -115.5s72.833 -41.5 125.5 -41.5c44 0 79.667 10 107 30s41 46.333 41 79
c0 26 -5.66699 46.833 -17 62.5s-29.666 27.834 -54.999 36.501s-60.333 15 -105 19c-87.333 7.33301 -152.333 28.666 -195 63.999s-64 85.666 -64 150.999c0 64 22.333 115.833 67 155.5s104.667 61.167 180 64.5v96h66v-98c72.667 -8 129.834 -32.833 171.501 -74.5
s64.167 -97.167 67.5 -166.5h-137c-3.33301 41.333 -17.666 73.166 -42.999 95.499s-60.333 33.5 -105 33.5c-41.333 0 -74.166 -8.83301 -98.499 -26.5s-36.5 -41.5 -36.5 -71.5c0 -24.667 5.66699 -44.334 17 -59.001s29.833 -26.167 55.5 -34.5
s60.5 -14.166 104.5 -17.499c88.667 -7.33301 154 -28.666 196 -63.999s63 -87.333 63 -156c0 -67.333 -22.667 -121.833 -68 -163.5z" />
    <glyph glyph-name="percent" unicode="%" horiz-adv-x="716" 
d="M68 520.5c-28 27 -42.0029 60.833 -42.0029 101.5c0 26.667 6.33301 50.834 19 72.501s30.334 38.667 53.001 51s48 18.5 76 18.5c28.667 0 54.334 -6.16699 77.001 -18.5s40.334 -29.333 53.001 -51s19 -45.834 19 -72.501c0 -40.667 -14 -74.5 -42 -101.5
s-63.667 -40.5 -107 -40.5c-42.667 0 -78 13.5 -106 40.5zM656.997 750l-496 -750h-98l496 750h98zM227.997 570c14 14 21 31.333 21 52s-7 37.834 -21 51.501s-32 20.5 -54 20.5c-21.333 0 -39 -6.83301 -53 -20.5s-21 -30.834 -21 -51.501s7 -38 21 -52s31.667 -21 53 -21
c22 0 40 7 54 21zM434.997 25.5c-28 27 -42.0029 60.833 -42.0029 101.5c0 26.667 6.33301 50.834 19 72.501s30.334 38.667 53.001 51s48 18.5 76 18.5c28.667 0 54.334 -6.16699 77.001 -18.5s40.334 -29.333 53.001 -51s19 -45.834 19 -72.501
c0 -40.667 -14 -74.5 -42 -101.5s-63.667 -40.5 -107 -40.5c-42.667 0 -78 13.5 -106 40.5zM594.994 75c14 14 21 31.333 21 52s-7 37.834 -21 51.501s-32 20.5 -54 20.5c-21.333 0 -39 -6.83301 -53 -20.5s-21 -30.834 -21 -51.501s7 -38 21 -52s31.667 -21 53 -21
c22 0 40 7 54 21z" />
    <glyph glyph-name="ampersand" unicode="&#x26;" horiz-adv-x="736" 
d="M621 286c-12 -49.333 -29.667 -94 -53 -134l119 -152h-144l-50 62c-59.333 -51.333 -133.333 -77 -222 -77c-47.333 0 -88.833 7.83301 -124.5 23.5s-63.167 38 -82.5 67s-29 62.5 -29 100.5c0 44 13.167 83.167 39.5 117.5s73.166 73.5 140.499 117.5l-16 20
c-25.333 31.333 -42.833 58.333 -52.5 81s-14.5 47.334 -14.5 74.001c0 33.333 8.5 63.666 25.5 90.999s40.333 48.666 70 63.999s62.834 23 99.501 23c35.333 0 67.333 -7.66699 96 -23s51 -36.666 67 -63.999s24 -57.666 24 -90.999
c-0.666992 -34.667 -10.5 -66.334 -29.5 -95.001s-54.167 -61.667 -105.5 -99l113 -143c18 40 31 87.333 39 142h200v-105h-110zM277.5 622c-11.667 -11.333 -17.5 -25.667 -17.5 -43c0 -23.333 10.667 -48.666 32 -75.999l23 -29c24.667 17.333 42.334 33.833 53.001 49.5
s16 33.167 16 52.5s-5.5 34.666 -16.5 45.999s-25.833 17 -44.5 17s-33.834 -5.66699 -45.501 -17zM422 151.999l-139 174c-46.667 -32 -78 -57.333 -94 -76s-24 -38.667 -24 -60c0 -28 10 -49.5 30 -64.5s48.667 -22.5 86 -22.5c54 0 101 16.333 141 49z" />
    <glyph glyph-name="quotesingle" unicode="'" horiz-adv-x="241" 
d="M61 750h119l-18 -296h-83z" />
    <glyph glyph-name="parenleft" unicode="(" horiz-adv-x="303" 
d="M97.5 44.5c-33 81 -49.5 170.166 -49.5 267.499c0 98.667 16.333 188.167 49 268.5s71 145.166 115 194.499h104c-44 -50.667 -82.333 -117 -115 -199s-49 -170 -49 -264c0 -93.333 16.5 -181.166 49.5 -263.499s71.167 -148.166 114.5 -197.499h-104
c-43.333 48 -81.5 112.5 -114.5 193.5z" />
    <glyph glyph-name="parenright" unicode=")" horiz-adv-x="303" 
d="M101.5 48.5c33 82.333 49.5 170.169 49.5 263.502c0 94 -16.333 182 -49 264s-71 148.333 -115 199h104c44 -50 82.333 -115.167 115 -195.5s49 -169.5 49 -267.5c0 -97.333 -16.5 -186.333 -49.5 -267s-71.167 -145.334 -114.5 -194.001h-104
c43.333 49.333 81.5 115.166 114.5 197.499z" />
    <glyph glyph-name="asterisk" unicode="*" horiz-adv-x="323" 
d="M205 617l97 -51l-26 -44l-93 58l4 -110h-54l7 110l-93 -58l-27 46l102 49l-99 52l24 44l93 -60l-4 108h54l-6 -107l95 56l24 -42z" />
    <glyph glyph-name="plus" unicode="+" horiz-adv-x="610" 
d="M506 317h-157v-157h-87v157h-158v88h158v157h87v-157h157v-88z" />
    <glyph glyph-name="comma" unicode="," horiz-adv-x="276" 
d="M97 145h131l-114 -296h-93z" />
    <glyph glyph-name="hyphen" unicode="-" horiz-adv-x="450" 
d="M67 315h315v-87h-315v87z" />
    <glyph glyph-name="period" unicode="." horiz-adv-x="234" 
d="M58 145h118v-145h-118v145z" />
    <glyph glyph-name="slash" unicode="/" horiz-adv-x="400" 
d="M304 750h68l-260 -750h-67z" />
    <glyph glyph-name="zero" unicode="0" horiz-adv-x="610" 
d="M533 113.5c-21.333 -40.333 -51.833 -71.833 -91.5 -94.5s-85.5 -34 -137.5 -34c-51.333 0 -96.666 11.333 -135.999 34s-69.833 54.167 -91.5 94.5s-32.5 86.166 -32.5 137.499v248c0 50 10.833 95.167 32.5 135.5s52.167 72 91.5 95s84.666 34.5 135.999 34.5
c52 0 97.833 -11.5 137.5 -34.5s70.167 -54.667 91.5 -95s32 -85.5 32 -135.5v-248c0 -51.333 -10.667 -97.166 -32 -137.499zM204 141.5c24 -26.333 57.333 -39.5 100 -39.5c44 0 77.833 13.167 101.5 39.5s35.5 61.833 35.5 106.5v253c0 44.667 -12 80.167 -36 106.5
s-57.667 39.5 -101 39.5c-42 0 -75.167 -13.333 -99.5 -40s-36.5 -62 -36.5 -106v-253c0 -44.667 12 -80.167 36 -106.5z" />
    <glyph glyph-name="one" unicode="1" horiz-adv-x="371" 
d="M304 750v-750h-125v621l-154 -58v117l173 70h106z" />
    <glyph glyph-name="two" unicode="2" horiz-adv-x="538" 
d="M513 115l0.000976562 -115.001h-483v103l283 312c22.667 24.667 38.5 46.834 47.5 66.501s13.5 39.5 13.5 59.5c0 30.667 -9.16699 56 -27.5 76s-45.166 30 -80.499 30s-62.833 -10.833 -82.5 -32.5s-29.5 -48.167 -29.5 -79.5v-13h-124v13
c0 42.667 9.66699 81.334 29 116.001s47.166 62.167 83.499 82.5s79.166 30.5 128.499 30.5c48.667 0 90.5 -9.83301 125.5 -29.5s61.667 -46.167 80 -79.5s27.5 -70.333 27.5 -111c0 -36.667 -7.5 -70.834 -22.5 -102.501s-41.167 -68.167 -78.5 -109.5l-196 -217h306z" />
    <glyph glyph-name="three" unicode="3" horiz-adv-x="578" 
d="M512.5 336.5c20.333 -34.333 30.499 -71.8359 30.499 -112.503c0 -45.333 -11.167 -86.166 -33.5 -122.499s-53 -64.833 -92 -85.5s-82.833 -31 -131.5 -31c-48 0 -91.5 10.333 -130.5 31s-69.667 49.167 -92 85.5s-33.5 76.833 -33.5 121.5c0 10.667 1 20.334 3 29.001
h123c-1.33301 -13.333 -2 -20.666 -2 -21.999c0 -38.667 12.333 -70.334 37 -95.001s56.334 -37 95.001 -37c39.333 0 71.333 12.167 96 36.5s37 56.166 37 95.499c0 36.667 -12.5 67.334 -37.5 92.001s-56.167 37 -93.5 37h-56v105h56c28.667 0 52.334 9 71.001 27
s28 41 28 69c0 28.667 -9.5 52 -28.5 70s-43.167 27 -72.5 27c-28.667 0 -52.5 -9.16699 -71.5 -27.5s-28.5 -41.5 -28.5 -69.5c0 -6 0.333008 -10 1 -12h-116c-1.33301 5.33301 -2 12 -2 20c0 36.667 9.5 69.834 28.5 99.501s45 53.167 78 70.5s69.833 26 110.5 26
c41.333 0 78.5 -8.5 111.5 -25.5s59 -40.5 78 -70.5s28.5 -63.667 28.5 -101c0 -29.333 -6.5 -57 -19.5 -83s-31.5 -48 -55.5 -66c35.333 -20 63.166 -47.167 83.499 -81.5z" />
    <glyph glyph-name="four" unicode="4" horiz-adv-x="600" 
d="M590 193h-101v-193h-124v193h-345v90l345 467h124v-447h101v-110zM365 303v263l-194 -263h194z" />
    <glyph glyph-name="five" unicode="5" horiz-adv-x="583" 
d="M164 15.5c-38.667 20.333 -68.999 48.334 -90.999 84.001s-33 75.5 -33 119.5c0 10.667 1 21 3 31h121c-1.33301 -8.66699 -2 -16.667 -2 -24c0 -37.333 12.333 -68.166 37 -92.499s56.334 -36.5 95.001 -36.5c41.333 0 74.5 12.833 99.5 38.5s37.5 60.167 37.5 103.5
c0 40 -12.833 72.667 -38.5 98s-58.5 38 -98.5 38c-20.667 0 -41.5 -3.66699 -62.5 -11s-38.5 -17 -52.5 -29h-127l78 415h384v-115h-294l-36 -193c13.333 12.667 32.166 23.167 56.499 31.5s48.5 12.5 72.5 12.5c46.667 0 88.167 -10.5 124.5 -31.5
s64.666 -50.667 84.999 -89s30.5 -82.5 30.5 -132.5c0 -48.667 -10.833 -91.834 -32.5 -129.501s-52 -66.834 -91 -87.501s-84.167 -31 -135.5 -31c-48 0 -91.333 10.167 -130 30.5z" />
    <glyph glyph-name="six" unicode="6" horiz-adv-x="576" 
d="M429.5 434c38.333 -21.333 68.1699 -49.999 89.5029 -85.999s32 -75.667 32 -119c0 -46 -11.167 -87.667 -33.5 -125s-53.333 -66.5 -93 -87.5s-84.5 -31.5 -134.5 -31.5c-48.667 0 -92.834 10.5 -132.501 31.5s-70.834 49.833 -93.501 86.5s-34 77.667 -34 123
s13 88.666 39 129.999l241 394h151l-178 -285c3.33301 0.666992 8.33301 1 15 1c49.333 0 93.166 -10.667 131.499 -32zM388.004 135.501c26 24.333 39 55.5 39 93.5c0 37.333 -12.833 68.5 -38.5 93.5s-58.5 37.5 -98.5 37.5c-38.667 0 -71 -12.5 -97 -37.5
s-39 -56.167 -39 -93.5c0 -38 13 -69.167 39 -93.5s58.333 -36.5 97 -36.5c39.333 0 72 12.167 98 36.5z" />
    <glyph glyph-name="seven" unicode="7" horiz-adv-x="532" 
d="M512 750v-99l-281 -651h-138l284 635h-352v115h487z" />
    <glyph glyph-name="eight" unicode="8" horiz-adv-x="583" 
d="M517.5 336.5c20.333 -34.333 30.502 -71.834 30.502 -112.501c0 -44.667 -11 -85.167 -33 -121.5s-52.5 -65 -91.5 -86s-83.167 -31.5 -132.5 -31.5c-48.667 0 -92.5 10.5 -131.5 31.5s-69.5 49.833 -91.5 86.5s-33 77 -33 121c0 40 10.167 77.333 30.5 112
s47.833 62.334 82.5 83.001c-23.333 17.333 -41.5 38.833 -54.5 64.5s-19.5 53.5 -19.5 83.5c0 36.667 9.33301 70 28 100s44.667 53.667 78 71s70.333 26 111 26c41.333 0 78.666 -8.66699 111.999 -26s59.333 -41 78 -71s28 -63.333 28 -100c0 -30 -6.5 -57.667 -19.5 -83
s-31.5 -47 -55.5 -65c35.333 -20.667 63.166 -48.167 83.499 -82.5zM219.502 629.499c-19 -18.333 -28.5 -41.5 -28.5 -69.5s9.5 -51.167 28.5 -69.5s42.833 -27.5 71.5 -27.5c29.333 0 53.5 9.16699 72.5 27.5s28.5 41.5 28.5 69.5s-9.33301 51.167 -28 69.5
s-43 27.5 -73 27.5c-28.667 0 -52.5 -9.16699 -71.5 -27.5zM386.502 135.499c25 25 37.499 56.5 37.499 94.5c0 36.667 -12.5 67.5 -37.5 92.5s-56.833 37.5 -95.5 37.5c-38 0 -69.5 -12.5 -94.5 -37.5s-37.5 -55.833 -37.5 -92.5c0 -38 12.333 -69.5 37 -94.5
s56.334 -37.5 95.001 -37.5s70.5 12.5 95.5 37.5z" />
    <glyph glyph-name="nine" unicode="9" horiz-adv-x="576" 
d="M424 733c39.333 -20.667 70.332 -49.334 92.999 -86.001s34 -77.667 34 -123s-13 -88.666 -39 -129.999l-241 -394h-149l178 285c-3.33301 -0.666992 -9 -1 -17 -1c-49.333 0 -93.166 10.667 -131.499 32s-68.166 50 -89.499 86s-32 75.667 -32 119
c0 46 11.167 87.5 33.5 124.5s53.333 66 93 87s84.5 31.5 134.5 31.5c49.333 0 93.666 -10.333 132.999 -31zM387.999 427.5c26 25 39 56.168 39 93.501s-13 68.166 -39 92.499s-58.333 36.5 -97 36.5c-40 0 -72.833 -12 -98.5 -36s-38.5 -55 -38.5 -93
c0 -37.333 12.833 -68.5 38.5 -93.5s58.5 -37.5 98.5 -37.5c38.667 0 71 12.5 97 37.5z" />
    <glyph glyph-name="colon" unicode=":" horiz-adv-x="262" 
d="M73 513h117v-145h-117v145zM73 145h117v-145h-117v145z" />
    <glyph glyph-name="semicolon" unicode=";" horiz-adv-x="293" 
d="M102 513h117v-145h-117v145zM101 145h127l-114 -296h-90z" />
    <glyph glyph-name="less" unicode="&#x3c;" horiz-adv-x="609" 
d="M523 487l-317 -119l317 -120v-92l-437 169v83l437 168v-89z" />
    <glyph glyph-name="equal" unicode="=" horiz-adv-x="610" 
d="M506 491v-84h-402v84h402zM506 312v-84h-402v84h402z" />
    <glyph glyph-name="greater" unicode="&#x3e;" horiz-adv-x="609" 
d="M523 408v-83l-437 -169v92l317 120l-317 119v89z" />
    <glyph glyph-name="question" unicode="?" horiz-adv-x="569" 
d="M418 734c35.333 -20 62.166 -45.833 80.499 -77.5s27.5 -64.834 27.5 -99.501c0 -30 -5.16699 -56.667 -15.5 -80s-23.833 -43.666 -40.5 -60.999s-38.667 -37.333 -66 -60l-73 -61v-58h-125v103l131 105c18.667 16 33 32 43 48s15 34.333 15 55
c0 25.333 -9.16699 48.166 -27.5 68.499s-44.5 30.5 -78.5 30.5c-35.333 0 -63 -10.833 -83 -32.5s-30 -48.167 -30 -79.5v-13h-124v13c0 42.667 9.66699 81.334 29 116.001s47.333 62.167 84 82.5s79.334 30.5 128.001 30.5c48 0 89.667 -10 125 -30zM206 142h125v-142
h-125v142z" />
    <glyph glyph-name="at" unicode="@" horiz-adv-x="1069" 
d="M780.5 679.5c76.333 -39 136.666 -93.6631 180.999 -163.996s66.5 -150.833 66.5 -241.5c0 -96.667 -20 -169 -60 -217s-92 -72 -156 -72c-40 0 -73.667 8.5 -101 25.5s-47 40.5 -59 70.5c-17.333 -31.333 -41.666 -55.166 -72.999 -71.499s-68 -24.5 -110 -24.5
c-53.333 0 -96.666 14.833 -129.999 44.5s-50 68.5 -50 116.5c0 43.333 12.833 79.166 38.5 107.499s60.834 45.166 105.501 50.499l207 26v26c0 31.333 -15 47 -45 47h-260v110h265c52.667 0 93 -12.333 121 -37s42 -59.667 42 -105v-221c0 -24 6.33301 -42.667 19 -56
s30 -20 52 -20c33.333 0 60.166 16 80.499 48s30.5 82.667 30.5 152c0 77.333 -18.333 145.333 -55 204s-86.667 104 -150 136s-134.333 48 -213 48c-74.667 0 -142.667 -17.333 -204 -52s-109.833 -82.834 -145.5 -144.501s-53.5 -131.834 -53.5 -210.501
c0 -76.667 16.333 -144.834 49 -204.501s78.167 -106.167 136.5 -139.5s125.166 -50 200.499 -50c40.667 0 78 5.66699 112 17v-79c-38.667 -9.33301 -76 -14 -112 -14c-90 0 -170.667 20.333 -242 61s-127 96.667 -167 168s-60 151.666 -60 240.999
c0 91.333 21.667 173.833 65 247.5s102 131.334 176 173.001s155.667 62.5 245 62.5c92.667 0 177.167 -19.5 253.5 -58.5zM585 107.004c26 16 44.333 36.667 55 62v65l-158 -22c-22 -3.33301 -38.833 -10.5 -50.5 -21.5s-17.5 -25.833 -17.5 -44.5
c0 -20 7.5 -35.5 22.5 -46.5s35.833 -16.5 62.5 -16.5c31.333 0 60 8 86 24z" />
    <glyph glyph-name="A" unicode="A" horiz-adv-x="701" 
d="M479 191h-257l-58 -191h-137l236 750h176l235 -750h-138zM446 301l-94 313h-3l-94 -313h191z" />
    <glyph glyph-name="B" unicode="B" horiz-adv-x="630" 
d="M571 344c21.333 -31.333 32 -68.667 32 -112c0 -46.667 -10.667 -87.5 -32 -122.5s-52 -62 -92 -81s-86.667 -28.5 -140 -28.5h-272v750h289c68.667 0 122.667 -16.833 162 -50.5s59 -79.5 59 -137.5c0 -33.333 -8.5 -63 -25.5 -89s-40.5 -46 -70.5 -60
c38.667 -14.667 68.667 -37.667 90 -69zM424 615.999c-18.667 16 -45.667 24 -81 24h-149v-185h148c34 0 60.833 8.33301 80.5 25s29.5 39 29.5 67c0 30 -9.33301 53 -28 69zM436.5 142.999c25.667 22 38.499 51.666 38.499 88.999c0 36.667 -12.333 64.834 -37 84.501
s-60 29.5 -106 29.5h-138v-236h137c44.667 0 79.834 11 105.501 33z" />
    <glyph glyph-name="C" unicode="C" horiz-adv-x="803" 
d="M644 63c-62.667 -52 -140.668 -77.999 -234.001 -77.999c-72 0 -136 16.667 -192 50s-99.667 79.5 -131 138.5s-47 126.167 -47 201.5s15.667 142.5 47 201.5s75 105 131 138s120 49.5 192 49.5c92 0 169.333 -25.333 232 -76s103.667 -120.667 123 -210h-136
c-18.667 53.333 -45.667 93.5 -81 120.5s-81.333 40.5 -138 40.5c-47.333 0 -88.666 -11 -123.999 -33s-62.5 -53 -81.5 -93s-28.5 -86.333 -28.5 -139s9.5 -98.834 28.5 -138.501s46.167 -70.5 81.5 -92.5s76.666 -33 123.999 -33c114.667 0 188.334 56.333 221.001 169
h134c-18 -92 -58.333 -164 -121 -216z" />
    <glyph glyph-name="D" unicode="D" horiz-adv-x="725" 
d="M509 703c57.333 -31.333 101 -75.167 131 -131.5s45 -121.5 45 -195.5s-15.167 -139.5 -45.5 -196.5s-73.833 -101.167 -130.5 -132.5s-124 -47 -202 -47h-240v750h239c78 0 145.667 -15.667 203 -47zM490 191.499c40.667 47 60.999 108.501 60.999 184.501
c0 75.333 -20.5 136.666 -61.5 183.999s-102.833 71 -185.5 71h-107v-510h108c82.667 0 144.334 23.5 185.001 70.5z" />
    <glyph glyph-name="E" unicode="E" horiz-adv-x="588" 
d="M551 110v-110h-484v750h471v-110h-338v-186h294v-110h-294v-234h351z" />
    <glyph glyph-name="F" unicode="F" horiz-adv-x="598" 
d="M200 640v-186h319v-110h-319v-344h-133v750h498v-110h-365z" />
    <glyph glyph-name="G" unicode="G" horiz-adv-x="805" 
d="M771 0l-109.998 0.00195312v112c-27.333 -40.667 -62.5 -72 -105.5 -94s-92.167 -33 -147.5 -33c-70.667 0 -134 17 -190 51s-99.667 80.667 -131 140s-47 125.666 -47 198.999c0 74.667 15.667 141.5 47 200.5s75.166 105.167 131.499 138.5s120.833 50 193.5 50
c87.333 0 162.5 -21.833 225.5 -65.5s105.5 -103.834 127.5 -180.501h-141c-16 38.667 -41.833 69.167 -77.5 91.5s-79.834 33.5 -132.501 33.5c-48 0 -90 -11.167 -126 -33.5s-63.833 -53.833 -83.5 -94.5s-29.5 -87.667 -29.5 -141s9.83301 -100.333 29.5 -141
s47.5 -72.167 83.5 -94.5s78.333 -33.5 127 -33.5c60 0 110 16.333 150 49s66 77 78 133h-190v110h318v-397z" />
    <glyph glyph-name="H" unicode="H" horiz-adv-x="699" 
d="M632 750v-750h-133v344h-299v-344h-133v750h133v-296h299v296h133z" />
    <glyph glyph-name="I" unicode="I" horiz-adv-x="265" 
d="M198 750v-750h-131v750h131z" />
    <glyph glyph-name="J" unicode="J" horiz-adv-x="435" 
d="M219 110c15.333 0 26.333 3.33301 33 10s10 17 10 31v489h-152v110h285v-588c0 -52 -14 -92 -42 -120s-68.667 -42 -122 -42h-196v110h184z" />
    <glyph glyph-name="K" unicode="K" horiz-adv-x="700" 
d="M289 344h-89v-344h-133v750h133v-296h88l234 296h157l-274 -347l290 -403h-159z" />
    <glyph glyph-name="L" unicode="L" horiz-adv-x="571" 
d="M535 110v-110h-468v750h133v-640h335z" />
    <glyph glyph-name="M" unicode="M" horiz-adv-x="925" 
d="M67 750h202l192 -555h3l193 555h201v-750h-133v568h-3l-206 -564h-107l-206 564h-3v-568h-133v750z" />
    <glyph glyph-name="N" unicode="N" horiz-adv-x="728" 
d="M67 750h138l327 -535h3v535h126v-750h-138l-327 535h-3v-535h-126v750z" />
    <glyph glyph-name="O" unicode="O" horiz-adv-x="830" 
d="M220.5 35c-57 33.333 -101.333 79.666 -133 138.999s-47.5 126.333 -47.5 201s15.833 141.5 47.5 200.5s76 105.167 133 138.5s121.833 50 194.5 50s137.5 -16.667 194.5 -50s101.333 -79.5 133 -138.5s47.5 -125.833 47.5 -200.5s-15.833 -141.667 -47.5 -201
s-76 -105.666 -133 -138.999s-121.833 -50 -194.5 -50s-137.5 16.667 -194.5 50zM541 143c36 22 63.833 53 83.5 93s29.5 86 29.5 138c0 52.667 -9.83301 99 -29.5 139s-47.5 71 -83.5 93s-78 33 -126 33s-90 -11 -126 -33s-63.833 -53 -83.5 -93s-29.5 -86.333 -29.5 -139
c0 -52 9.83301 -98 29.5 -138s47.5 -71 83.5 -93s78 -33 126 -33s90 11 126 33z" />
    <glyph glyph-name="P" unicode="P" horiz-adv-x="614" 
d="M535.5 693.5c39.667 -37.667 59.498 -87.499 59.498 -149.499c0 -40.667 -8.83301 -76.834 -26.5 -108.501s-43.167 -56.167 -76.5 -73.5s-72.666 -26 -117.999 -26h-174v-336h-133v750h306c68.667 0 122.834 -18.833 162.501 -56.5zM438.498 473.501
c15.667 18.333 23.498 41.834 23.498 70.501c0 27.333 -7.66699 50.166 -23 68.499s-38.666 27.5 -69.999 27.5h-169v-194h166c32.667 0 56.834 9.16699 72.501 27.5z" />
    <glyph glyph-name="Q" unicode="Q" horiz-adv-x="830" 
d="M764 222c-17.333 -47.333 -42.333 -88.332 -75 -122.999l96 -99h-138l-36 36c-58 -34 -123.333 -51 -196 -51s-137.5 16.667 -194.5 50s-101.333 79.666 -133 138.999s-47.5 126.333 -47.5 201s15.833 141.5 47.5 200.5s76 105.167 133 138.5s121.833 50 194.5 50
s137.5 -16.667 194.5 -50s101.333 -79.5 133 -138.5s47.5 -125.833 47.5 -200.5c0 -54.667 -8.66699 -105.667 -26 -153zM205.5 236.001c19.667 -40 47.499 -70.999 83.499 -92.999s78 -33 126 -33c36.667 0 70.334 6.66699 101.001 20l-161 163h145l97 -100
c38 47.333 57 107.666 57 180.999c0 52.667 -9.83301 99 -29.5 139s-47.5 71 -83.5 93s-78 33 -126 33s-90 -11 -126 -33s-63.833 -53 -83.5 -93s-29.5 -86.333 -29.5 -139c0 -52 9.83301 -98 29.5 -138z" />
    <glyph glyph-name="R" unicode="R" horiz-adv-x="625" 
d="M557 418.5c-25.333 -34.333 -60.667 -58.166 -106 -71.499l142 -347h-141l-135 336h-117v-336h-133v750h298c47.333 0 88.333 -8.83301 123 -26.5s61.167 -42.334 79.5 -74.001s27.5 -67.834 27.5 -108.501c0 -47.333 -12.667 -88.166 -38 -122.499zM199.999 446h154
c35.333 0 61.333 9.16699 78 27.5s25 41.5 25 69.5s-8.16699 51.167 -24.5 69.5s-41.833 27.5 -76.5 27.5h-156v-194z" />
    <glyph glyph-name="S" unicode="S" horiz-adv-x="657" 
d="M120 58.5c-54.667 48.333 -83.0029 115.167 -85.0029 200.5h138c1.33301 -49.333 17.5 -87.833 48.5 -115.5s72.833 -41.5 125.5 -41.5c44 0 79.667 10 107 30s41 46.333 41 79c0 26 -5.66699 46.833 -17 62.5s-29.666 27.834 -54.999 36.501s-60.333 15 -105 19
c-87.333 7.33301 -152.333 28.666 -195 63.999s-64 85.666 -64 150.999c0 44 11 82.667 33 116s53 59 93 77s86.333 27 139 27c86.667 0 155.167 -21.167 205.5 -63.5s77.5 -102.166 81.5 -179.499h-137c-3.33301 41.333 -17.666 73.166 -42.999 95.499
s-60.333 33.5 -105 33.5c-41.333 0 -74.166 -8.83301 -98.499 -26.5s-36.5 -41.5 -36.5 -71.5c0 -24.667 5.66699 -44.334 17 -59.001s29.833 -26.167 55.5 -34.5s60.5 -14.166 104.5 -17.499c88.667 -7.33301 154 -28.666 196 -63.999s63 -87.333 63 -156
c0 -47.333 -11.5 -88.833 -34.5 -124.5s-56 -63 -99 -82s-93.167 -28.5 -150.5 -28.5c-94 0 -168.333 24.167 -223 72.5z" />
    <glyph glyph-name="T" unicode="T" horiz-adv-x="635" 
d="M251 640h-221v110h575v-110h-221v-640h-133v640z" />
    <glyph glyph-name="U" unicode="U" horiz-adv-x="742" 
d="M648.5 135.5c-25.667 -48.333 -62.3311 -85.5 -109.998 -111.5s-103.5 -39 -167.5 -39c-63.333 0 -118.833 13 -166.5 39s-84.5 63.167 -110.5 111.5s-39 105.166 -39 170.499v444h133v-453c0 -58 16.167 -104.333 48.5 -139s77.166 -52 134.499 -52
s102.166 17.333 134.499 52s48.5 81 48.5 139v453h133v-444c0 -65.333 -12.833 -122.166 -38.5 -170.499z" />
    <glyph glyph-name="V" unicode="V" horiz-adv-x="692" 
d="M27 750h140l178 -613h3l177 613h140l-230 -750h-177z" />
    <glyph glyph-name="W" unicode="W" horiz-adv-x="1074" 
d="M1047 750l-210 -750h-162l-138 511l-138 -511h-161l-211 750h135l155 -580h3l151 546h132l151 -546h3l154 580h136z" />
    <glyph glyph-name="X" unicode="X" horiz-adv-x="641" 
d="M481 0l-160 282l-161 -282h-155l239 395l-225 355h155l147 -252l146 252h155l-225 -355l239 -395h-155z" />
    <glyph glyph-name="Y" unicode="Y" horiz-adv-x="654" 
d="M393 236v-236h-133v238l-237 512h138l164 -378h3l165 378h138z" />
    <glyph glyph-name="Z" unicode="Z" horiz-adv-x="662" 
d="M33 102l430 535v3h-414v110h570v-112l-421 -525v-3h430v-110h-595v102z" />
    <glyph glyph-name="bracketleft" unicode="[" horiz-adv-x="285" 
d="M179 646v-742h72v-104h-197v950h197v-104h-72z" />
    <glyph glyph-name="backslash" unicode="\" horiz-adv-x="400" 
d="M28 750h67l260 -750h-68z" />
    <glyph glyph-name="bracketright" unicode="]" horiz-adv-x="285" 
d="M231 750v-950h-197v104h72v742h-72v104h197z" />
    <glyph glyph-name="asciicircum" unicode="^" horiz-adv-x="523" 
d="M363 228l-103 270l-103 -270h-107l161 400h101l161 -400h-110z" />
    <glyph glyph-name="underscore" unicode="_" horiz-adv-x="548" 
d="M475 0v-87h-402v87h402z" />
    <glyph glyph-name="grave" unicode="`" horiz-adv-x="333" 
d="M178 754l105 -142h-108l-125 142h128z" />
    <glyph glyph-name="a" unicode="a" horiz-adv-x="584" 
d="M472 476c28 -24.667 41.998 -59.666 41.998 -104.999v-371h-123v63c-18 -25.333 -41.5 -44.666 -70.5 -57.999s-62.5 -20 -100.5 -20c-53.333 0 -96.666 14.833 -129.999 44.5s-50 68.5 -50 116.5c0 43.333 12.833 79.166 38.5 107.499s60.834 45.166 105.501 50.499
l207 26v26c0 31.333 -15 47 -45 47h-260v110h265c52.667 0 93 -12.333 121 -37zM335.998 107.001c26 16 44.333 36.667 55 62v65l-158 -22c-22 -3.33301 -38.833 -10.5 -50.5 -21.5s-17.5 -25.833 -17.5 -44.5c0 -20 7.5 -35.5 22.5 -46.5s35.833 -16.5 62.5 -16.5
c31.333 0 60 8 86 24z" />
    <glyph glyph-name="b" unicode="b" horiz-adv-x="647" 
d="M480 492.5c36.667 -23 65.334 -55 86.001 -96s31 -87.5 31 -139.5c0 -52.667 -10.333 -99.667 -31 -141s-49.334 -73.5 -86.001 -96.5s-78 -34.5 -124 -34.5c-68.667 0 -122 24 -160 72v-57h-122v750h122v-294c18.667 23.333 41.5 41 68.5 53s57.5 18 91.5 18
c46 0 87.333 -11.5 124 -34.5zM433 141.5c24.667 28.333 36.999 66.833 36.999 115.5c0 48 -12.333 86 -37 114s-57.334 42 -98.001 42c-32.667 0 -60.667 -8 -84 -24s-41.666 -38.333 -54.999 -67v-131c14 -28.667 32.667 -51.167 56 -67.5s51 -24.5 83 -24.5
c40.667 0 73.334 14.167 98.001 42.5z" />
    <glyph glyph-name="c" unicode="c" horiz-adv-x="614" 
d="M483.5 36c-44.333 -34 -98.501 -50.999 -162.501 -50.999c-53.333 0 -100.5 11.667 -141.5 35s-72.833 55.666 -95.5 96.999s-34 88 -34 140s11.333 98.5 34 139.5s54.5 73 95.5 96s88.167 34.5 141.5 34.5c64 0 118 -17.167 162 -51.5s73 -83.166 87 -146.499h-124
c-24 57.333 -65.667 86 -125 86c-44.667 0 -79.834 -14.333 -105.501 -43s-38.5 -67 -38.5 -115c0 -48.667 12.833 -87.334 38.5 -116.001s60.834 -43 105.501 -43c30.667 0 56 6.83301 76 20.5s36 34.167 48 61.5h125c-13.333 -62 -42.166 -110 -86.499 -144z" />
    <glyph glyph-name="d" unicode="d" horiz-adv-x="647" 
d="M573 750v-750h-122v57c-38 -48 -91.333 -72 -160 -72c-46 0 -87.333 11.5 -124 34.5s-65.334 55.167 -86.001 96.5s-31 88.333 -31 141c0 52 10.333 98.5 31 139.5s49.334 73 86.001 96s78 34.5 124 34.5c34 0 64.5 -6 91.5 -18s49.833 -29.667 68.5 -53v294h122z
M395 123.5c23.333 16.333 41.999 38.833 55.999 67.5v131c-13.333 28.667 -31.666 51 -54.999 67s-51.333 24 -84 24c-40.667 0 -73.334 -14 -98.001 -42s-37 -66 -37 -114c0 -48.667 12.333 -87.167 37 -115.5s57.334 -42.5 98.001 -42.5c32 0 59.667 8.16699 83 24.5z" />
    <glyph glyph-name="e" unicode="e" horiz-adv-x="626" 
d="M578 225l-401 -0.00195312c5.33301 -42.667 20.166 -75.167 44.499 -97.5s57.833 -33.5 100.5 -33.5c28 0 52.333 5 73 15s37 22.333 49 37h131c-9.33301 -29.333 -26.666 -56.333 -51.999 -81s-55.833 -44.167 -91.5 -58.5s-72.834 -21.5 -111.501 -21.5
c-52.667 0 -99.5 11.5 -140.5 34.5s-72.833 55.333 -95.5 97s-34 89.5 -34 143.5c0 50.667 11.5 96.334 34.5 137.001s54.833 72.5 95.5 95.5s86.334 34.5 137.001 34.5c52 0 97.833 -10.833 137.5 -32.5s70.5 -52.667 92.5 -93s33 -87.833 33 -142.5
c0 -15.333 -0.666992 -26.666 -2 -33.999zM229 393.498c-22.667 -16.333 -38.333 -40.167 -47 -71.5h264c-14.667 64 -58 96 -130 96c-35.333 0 -64.333 -8.16699 -87 -24.5z" />
    <glyph glyph-name="f" unicode="f" horiz-adv-x="425" 
d="M34 403v110h92v96c0 44 13.333 78.5 40 103.5s66.667 37.5 120 37.5h159v-110h-148c-30.667 0 -46 -15.333 -46 -46v-81h149v-110h-149v-403h-125v403h-92z" />
    <glyph glyph-name="g" unicode="g" horiz-adv-x="643" 
d="M573 513v-528c0 -58 -16.5 -103.333 -49.5 -136s-82.167 -49 -147.5 -49h-219v108h215c25.333 0 44.833 7.16699 58.5 21.5s20.5 35.833 20.5 64.5v77c-38.667 -46.667 -92 -70 -160 -70c-46 0 -87.333 11.167 -124 33.5s-65.334 53.666 -86.001 93.999
s-31 85.833 -31 136.5s10.333 95.834 31 135.501s49.334 70.667 86.001 93s78 33.5 124 33.5c68.667 0 122 -23 160 -69v55h122zM395 136c23.333 16 41.999 37.666 55.999 64.999v127c-13.333 27.333 -31.666 48.833 -54.999 64.5s-51.333 23.5 -84 23.5
c-40.667 0 -73.334 -13.5 -98.001 -40.5s-37 -63.833 -37 -110.5c0 -47.333 12.333 -84.666 37 -111.999s57.334 -41 98.001 -41c32 0 59.667 8 83 24z" />
    <glyph glyph-name="h" unicode="h" horiz-adv-x="638" 
d="M517.5 472.5c34.333 -36.333 51.501 -84.499 51.501 -144.499v-328h-125v297c0 35.333 -8.66699 63.5 -26 84.5s-43.666 31.5 -78.999 31.5c-28 0 -55.333 -8.33301 -82 -25s-46 -37.667 -58 -63v-325h-125v750h125v-301c21.333 25.333 47.166 44.666 77.499 57.999
s63.833 20 100.5 20c59.333 0 106.166 -18.167 140.499 -54.5z" />
    <glyph glyph-name="i" unicode="i" horiz-adv-x="329" 
d="M130 750h125v-142h-125v142zM25 403v110h230v-513h-125v403h-105z" />
    <glyph glyph-name="j" unicode="j" horiz-adv-x="334" 
d="M135 750h125v-142h-125v142zM93 -90c28 0 41.999 15 41.999 45v448h-107v110h232v-572c0 -44 -13.167 -78.5 -39.5 -103.5s-65.166 -37.5 -116.499 -37.5h-159v110h148z" />
    <glyph glyph-name="k" unicode="k" horiz-adv-x="568" 
d="M256 218h-57v-218h-125v750h125v-431h56l142 194h144l-181 -239l191 -274h-147z" />
    <glyph glyph-name="l" unicode="l" horiz-adv-x="319" 
d="M109.5 37c-25 24.667 -37.5 59 -37.5 103v500h-86v110h211v-598c0 -28 13 -42 39 -42h54v-110h-68c-50 -0 -87.5 12.333 -112.5 37z" />
    <glyph glyph-name="m" unicode="m" horiz-adv-x="884" 
d="M773 480c28 -31.333 41.9971 -72.666 41.9971 -123.999v-356h-118v316c0 29.333 -7.33301 52.833 -22 70.5s-36.334 26.5 -65.001 26.5c-19.333 0 -38.5 -5.5 -57.5 -16.5s-34.5 -25.167 -46.5 -42.5v-354h-118v316c0 29.333 -7.16699 52.833 -21.5 70.5
s-36.166 26.5 -65.499 26.5c-21.333 0 -42.166 -6.5 -62.499 -19.5s-36.166 -29.5 -47.499 -49.5v-344h-117v513h117v-56c19.333 22 42.833 39.167 70.5 51.5s56.834 18.5 87.501 18.5c32.667 0 61 -7.33301 85 -22s42.333 -35.334 55 -62.001c20 26 44.833 46.5 74.5 61.5
s61.5 22.5 95.5 22.5c48 0 86 -15.667 114 -47z" />
    <glyph glyph-name="n" unicode="n" horiz-adv-x="638" 
d="M517.5 472.5c34.333 -36.333 51.501 -84.499 51.501 -144.499v-328h-125v297c0 35.333 -8.66699 63.5 -26 84.5s-43.666 31.5 -78.999 31.5c-28 0 -55.333 -8.33301 -82 -25s-46 -37.667 -58 -63v-325h-125v513h125v-64c21.333 25.333 47.166 44.666 77.499 57.999
s63.833 20 100.5 20c59.333 0 106.166 -18.167 140.499 -54.5z" />
    <glyph glyph-name="o" unicode="o" horiz-adv-x="644" 
d="M180.5 20c-41 23.333 -73 55.666 -96 96.999s-34.5 88 -34.5 140s11.5 98.5 34.5 139.5s55 73 96 96s88.167 34.5 141.5 34.5s100.666 -11.5 141.999 -34.5s73.333 -55 96 -96s34 -87.5 34 -139.5s-11.333 -98.667 -34 -140s-54.667 -73.666 -96 -96.999
s-88.666 -35 -141.999 -35s-100.5 11.667 -141.5 35zM428 140.5c26 29 39 67.833 39 116.5c0 48 -13 86.333 -39 115s-61.333 43 -106 43c-45.333 0 -80.833 -14.333 -106.5 -43s-38.5 -67 -38.5 -115c0 -48.667 12.833 -87.5 38.5 -116.5s61.167 -43.5 106.5 -43.5
c44.667 0 80 14.5 106 43.5z" />
    <glyph glyph-name="p" unicode="p" horiz-adv-x="647" 
d="M480 492.5c36.667 -23 65.334 -55.001 86.001 -96.001s31 -87.5 31 -139.5s-10.333 -98.667 -31 -140s-49.334 -73.666 -86.001 -96.999s-78 -35 -124 -35c-68 0 -121.333 24 -160 72v-257h-122v713h122v-57c18.667 23.333 41.5 41 68.5 53s57.5 18 91.5 18
c46 0 87.333 -11.5 124 -34.5zM433 141.499c24.667 28.333 36.999 66.833 36.999 115.5c0 48 -12.333 86 -37 114s-57.334 42 -98.001 42c-32.667 0 -60.667 -8 -84 -24s-41.666 -38.333 -54.999 -67v-131c14 -28 32.667 -50.333 56 -67s51 -25 83 -25
c40.667 0 73.334 14.167 98.001 42.5z" />
    <glyph glyph-name="q" unicode="q" horiz-adv-x="647" 
d="M573 513v-713h-122v257c-38 -48 -91.333 -72 -160 -72c-46 0 -87.333 11.5 -124 34.5s-65.334 55.167 -86.001 96.5s-31 88.333 -31 141c0 52 10.333 98.5 31 139.5s49.334 73 86.001 96s78 34.5 124 34.5c34 0 64.5 -6 91.5 -18s49.833 -29.667 68.5 -53v57h122z
M395 123.5c23.333 16.333 42 38.833 56 67.5v131c-13.333 28 -31.833 50.167 -55.5 66.5s-51.5 24.5 -83.5 24.5c-40.667 0 -73.334 -14 -98.001 -42s-37 -66 -37 -114c0 -48.667 12.333 -87.167 37 -115.5s57.334 -42.5 98.001 -42.5c32 0 59.667 8.16699 83 24.5z" />
    <glyph glyph-name="r" unicode="r" horiz-adv-x="422" 
d="M388 513v-110h-63c-30.667 0 -57 -5.66699 -79 -17s-39 -26 -51 -44v-342h-125v513h125v-75c36.667 50 84 75 142 75h51z" />
    <glyph glyph-name="s" unicode="s" horiz-adv-x="534" 
d="M111 32.5c-41.333 31.667 -64.667 73.832 -70 126.499h128c5.33301 -22 17.333 -38.833 36 -50.5s43 -17.5 73 -17.5c32 0 57.167 5.5 75.5 16.5s27.5 26.167 27.5 45.5c0 14 -2.66699 25 -8 33s-16 14.333 -32 19s-39.667 7.66699 -71 9
c-78.667 3.33301 -134.167 17.333 -166.5 42s-48.5 61 -48.5 109c0 50.667 19.167 90.334 57.5 119.001s91.5 43 159.5 43c64.667 0 116 -13.667 154 -41s61 -64.666 69 -111.999h-125c-14.667 32.667 -47.667 49 -99 49c-29.333 0 -52.333 -4.66699 -69 -14
s-25 -22.333 -25 -39c0 -12 2.66699 -21.5 8 -28.5s15.666 -12.333 30.999 -16s38.333 -6.16699 69 -7.5c54.667 -2 98 -9.16699 130 -21.5s54.833 -29.833 68.5 -52.5s20.5 -51.334 20.5 -86.001c0 -54 -19.833 -96.333 -59.5 -127s-94.5 -46 -164.5 -46
c-71.333 0 -127.666 15.833 -168.999 47.5z" />
    <glyph glyph-name="t" unicode="t" horiz-adv-x="416" 
d="M139 37.5c-26.667 25 -40 59.5 -40 103.5v262h-93v110h93v169h125v-169h164v-110h-164v-246c0 -31.333 15 -47 45 -47h119v-110h-129c-53.333 0 -93.333 12.5 -120 37.5z" />
    <glyph glyph-name="u" unicode="u" horiz-adv-x="627" 
d="M553 513l-0.000976562 -513h-125v62c-20.667 -24.667 -45.834 -43.667 -75.501 -57s-62.167 -20 -97.5 -20c-57.333 0 -102.666 18.167 -135.999 54.5s-50 84.833 -50 145.5v328h125v-298c0 -35.333 8.33301 -63.5 25 -84.5s41.334 -31.5 74.001 -31.5
c26.667 0 53 8.33301 79 25s44.667 37.667 56 63v326h125z" />
    <glyph glyph-name="v" unicode="v" horiz-adv-x="519" 
d="M22 513h126l110 -401h3l109 401h127l-157 -513h-161z" />
    <glyph glyph-name="w" unicode="w" horiz-adv-x="791" 
d="M769 513l-126 -513h-163l-85 316l-85 -316h-162l-126 513h123l87 -390h3l105 368h111l104 -368h3l87 390h124z" />
    <glyph glyph-name="x" unicode="x" horiz-adv-x="544" 
d="M389 0l-121 177l-113 -177h-136l179 261l-172 252h137l105 -166l106 166h137l-174 -251l188 -262h-136z" />
    <glyph glyph-name="y" unicode="y" horiz-adv-x="528" 
d="M506 513l-206.001 -589c-14.667 -43.333 -33.5 -74.833 -56.5 -94.5s-56.167 -29.5 -99.5 -29.5h-99v110h89c16.667 0 29.334 3.5 38.001 10.5s16 18.5 22 34.5l16 45l-188 513h127l117 -357h3l112 357h125z" />
    <glyph glyph-name="z" unicode="z" horiz-adv-x="534" 
d="M41 92l291 308v3h-279v110h433v-104l-275 -296v-3h285v-110h-455v92z" />
    <glyph glyph-name="braceleft" unicode="{" horiz-adv-x="330" 
d="M129 -167.5c-30.667 21.667 -45.999 56.8379 -45.999 105.505c0 29.333 3.66699 67.333 11 114c6.66699 49.333 10 85.666 10 108.999c0 21.333 -5.66699 38.5 -17 51.5s-27 19.5 -47 19.5h-11v89h11c20 0 35.667 6.16699 47 18.5s17 28.833 17 49.5
c0 23.333 -3.33301 59 -10 107c-7.33301 45.333 -11 82.666 -11 111.999c0 50 15.333 86.167 46 108.5s70.334 33.5 119.001 33.5h52l1 -88c-28 0 -51.833 -6 -71.5 -18s-29.5 -32.667 -29.5 -62c0 -28.667 3 -63.334 9 -104.001c5.33301 -41.333 8 -72.333 8 -93
c0 -35.333 -7 -61.666 -21 -78.999s-32.667 -27 -56 -29v-2c23.333 -1.33301 42 -10.833 56 -28.5s21 -44.834 21 -81.501c0 -20.667 -2.66699 -52.334 -8 -95.001c-0.666992 -4.66699 -2.33398 -18.334 -5.00098 -41.001s-4 -44.667 -4 -66
c0 -27.333 9.83301 -46.5 29.5 -57.5s43.5 -16.5 71.5 -16.5l-1 -89h-52c-48.667 0 -88.334 10.833 -119.001 32.5z" />
    <glyph glyph-name="bar" unicode="|" horiz-adv-x="382" 
d="M240 750v-950h-99v950h99z" />
    <glyph glyph-name="braceright" unicode="}" horiz-adv-x="330" 
d="M29 -111c28 0 51.834 5.49609 71.501 16.4961s29.5 30.167 29.5 57.5c0 21.333 -1.33301 43.333 -4 66s-4.33398 36.334 -5.00098 41.001c-5.33301 42.667 -8 74.334 -8 95.001c0 36.667 7 63.834 21 81.501s32.667 27.167 56 28.5v2c-23.333 2 -42 11.667 -56 29
s-21 43.666 -21 78.999c0 20.667 2.66699 51.667 8 93c6 40.667 9 75.334 9 104.001c0 29.333 -9.83301 50 -29.5 62s-43.5 18 -71.5 18l1 88h52c48.667 0 88.334 -11.167 119.001 -33.5s46 -58.5 46 -108.5c0 -29.333 -3.66699 -66.666 -11 -111.999
c-6.66699 -48 -10 -83.667 -10 -107c0 -20.667 5.5 -37.167 16.5 -49.5s26.833 -18.5 47.5 -18.5h11v-89h-11c-20.667 0 -36.5 -6.5 -47.5 -19.5s-16.5 -30.167 -16.5 -51.5c0 -23.333 3.33301 -59.666 10 -108.999c7.33301 -46.667 11 -84.667 11 -114
c0 -48.667 -15.333 -83.834 -46 -105.501s-70.334 -32.5 -119.001 -32.5h-52z" />
    <glyph glyph-name="asciitilde" unicode="~" horiz-adv-x="496" 
d="M416.5 312c-19.667 -23.333 -48.5 -35.001 -86.5 -35.001c-18 0 -34 3.5 -48 10.5s-30 16.833 -48 29.5c-14 10 -24.667 17 -32 21s-15.333 6 -24 6c-25.333 0 -38 -17.667 -38 -53h-90c0 48.667 9.5 85.334 28.5 110.001s48.5 37 88.5 37
c17.333 0 32.5 -3.33301 45.5 -10s28.5 -16.334 46.5 -29.001c14.667 -10.667 26 -18.167 34 -22.5s16.667 -6.5 26 -6.5c25.333 0 38 18 38 54h89c0 -51.333 -9.83301 -88.666 -29.5 -111.999z" />
    <glyph glyph-name="exclamdown" unicode="&#xa1;" horiz-adv-x="264" 
d="M70 513h125v-143h-125v143zM90 276h84l30 -476h-144z" />
    <glyph glyph-name="cent" unicode="&#xa2;" horiz-adv-x="614" 
d="M397 118.5c20 13.667 36 34.167 48 61.5h125c-12.667 -56.667 -37.834 -101.667 -75.501 -135s-84.167 -52.666 -139.5 -57.999v-102h-66v102c-47.333 4.66699 -89.166 19 -125.499 43s-64.333 55.667 -84 95s-29.5 83.333 -29.5 132c0 48 9.83301 91.667 29.5 131
s47.667 71 84 95s78.166 38 125.499 42v102h66v-102c55.333 -5.33301 101.833 -25 139.5 -59s62.834 -79.667 75.501 -137h-124c-24 57.333 -65.667 86 -125 86c-44.667 0 -79.834 -14.333 -105.501 -43s-38.5 -67 -38.5 -115c0 -48.667 12.833 -87.334 38.5 -116.001
s60.834 -43 105.501 -43c30.667 0 56 6.83301 76 20.5z" />
    <glyph glyph-name="sterling" unicode="&#xa3;" horiz-adv-x="472" 
d="M439 112v-112h-427v112h53v219h-53v104h53v89c0 74 19.5 130.167 58.5 168.5s94.833 57.5 167.5 57.5h107v-113h-82c-78.667 0 -118 -42.667 -118 -128v-74h135v-104h-135v-219h241z" />
    <glyph glyph-name="currency" unicode="&#xa4;" horiz-adv-x="593" 
d="M471 65l-61 60.999c-34.667 -24 -72.667 -36 -114 -36c-40.667 0 -78.667 12 -114 36l-60 -60l-57 56l61 61c-23.333 34.667 -35 72 -35 112c0 40.667 12.333 78.334 37 113.001l-61 61l57 57l60 -60c35.333 23.333 73 35 113 35s77.333 -11.667 112 -35l61 61l57 -57
l-61 -61c24 -34 36 -71.667 36 -113c0 -42 -11.333 -79.667 -34 -113l60 -61zM383 208.999c25.333 25.333 37.999 54.999 37.999 88.999c0 34.667 -12 63.334 -36 86.001c-25.333 23.333 -53.333 35 -84 35c-35.333 0 -65.666 -12.333 -90.999 -37
c-12 -12 -21.167 -25.833 -27.5 -41.5s-9.5 -31.5 -9.5 -47.5c0 -32.667 12 -61 36 -85s52.667 -36 86 -36c34 0 63.333 12.333 88 37z" />
    <glyph glyph-name="yen" unicode="&#xa5;" horiz-adv-x="654" 
d="M421 297h132v-60h-160v-58h160v-60h-160v-119h-133v119h-160v60h160v58h-160v60h133l-210 453h138l164 -378h3l165 378h138z" />
    <glyph glyph-name="brokenbar" unicode="&#xa6;" horiz-adv-x="382" 
d="M240 750l-6 -402h-86l-7 402h99zM234 202l6 -402h-99l7 402h86z" />
    <glyph glyph-name="section" unicode="&#xa7;" horiz-adv-x="552" 
d="M506 -42c0 -54 -19.8359 -96.335 -59.5029 -127.002s-94.5 -46 -164.5 -46c-71.333 0 -127.666 15.833 -168.999 47.5s-64.666 73.834 -69.999 126.501h128c5.33301 -22 17.333 -38.833 36 -50.5s43 -17.5 73 -17.5c32 0 57.167 5.5 75.5 16.5s27.5 26.833 27.5 47.5
c0 12.667 -2.66699 22.834 -8 30.501s-16 13.834 -32 18.501s-39.667 8 -71 10c-73.333 5.33301 -125 20.666 -155 45.999s-45 61 -45 107c0 36.667 11 68 33 94c-16 12 -27.667 26.5 -35 43.5s-11.666 37.167 -12.999 60.5c0 50.667 19.167 90.334 57.5 119.001
s91.5 43 159.5 43c64.667 0 116 -13.667 154 -41s61 -64.666 69 -111.999h-125c-14.667 32.667 -47.667 49 -99 49c-29.333 0 -52.333 -4.66699 -69 -14s-25 -22.333 -25 -39c0 -12 2.66699 -21.167 8 -27.5s15.5 -11.333 30.5 -15s38.167 -6.83398 69.5 -9.50098
c74 -6 126.5 -22.167 157.5 -48.5s46.5 -63.5 46.5 -111.5c0 -36 -9 -67 -27 -93c28 -22.667 42 -58.334 42 -107.001zM212.497 136.998c12.333 -8.66699 37.166 -15 74.499 -19c24.667 -2 46.334 -5 65.001 -9c10.667 9.33301 16 23.666 16 42.999
c0 16.667 -6.5 30.334 -19.5 41.001s-38.5 17.667 -76.5 21c-24 2.66699 -41.667 5 -53 7c-6.66699 -3.33301 -12.5 -9 -17.5 -17s-7.5 -18 -7.5 -30c0 -16 6.16699 -28.333 18.5 -37z" />
    <glyph glyph-name="dieresis" unicode="&#xa8;" horiz-adv-x="435" 
d="M158 750v-142h-108v142h108zM385 750v-142h-107v142h107z" />
    <glyph glyph-name="copyright" unicode="&#xa9;" horiz-adv-x="891" 
d="M782 178c-34.667 -59.333 -81.667 -106.332 -141 -140.999s-124.666 -52 -195.999 -52c-70.667 0 -135.667 17.333 -195 52s-106.333 81.667 -141 141s-52 124.666 -52 195.999c0 70 17.333 135 52 195s81.667 107.5 141 142.5s124.333 52.5 195 52.5
c71.333 0 136.666 -17.5 195.999 -52.5s106.333 -82.333 141 -142s52 -124.834 52 -195.501c0 -71.333 -17.333 -136.666 -52 -195.999zM194.5 223.001c25.667 -45.333 60.5 -81 104.5 -107s92.667 -39 146 -39s102.166 13 146.499 39s79.333 61.667 105 107
s38.5 95.666 38.5 150.999c0 54.667 -12.833 104.667 -38.5 150s-60.667 81.333 -105 108s-93.166 40 -146.499 40s-102 -13.333 -146 -40s-78.833 -62.667 -104.5 -108s-38.5 -95.333 -38.5 -150c0 -55.333 12.833 -105.666 38.5 -150.999zM588.5 197.501
c-39 -33 -85.498 -49.4961 -139.498 -49.4961c-42 0 -80 9.66699 -114 29s-60.833 46.166 -80.5 80.499s-29.5 73.166 -29.5 116.499s9.83301 82.166 29.5 116.499s46.5 61.166 80.5 80.499s72 29 114 29c53.333 0 99.666 -16 138.999 -48s64.666 -73.333 75.999 -124h-90
c-9.33301 28 -24.833 49.167 -46.5 63.5s-47.5 21.5 -77.5 21.5c-39.333 0 -71.5 -13.333 -96.5 -40s-37.5 -59.667 -37.5 -99c0 -38.667 12.5 -71.5 37.5 -98.5s57.167 -40.5 96.5 -40.5c30 0 56 7.66699 78 23s37.333 37.333 46 66h90
c-11.333 -51.333 -36.5 -93.5 -75.5 -126.5z" />
    <glyph glyph-name="ordfeminine" unicode="&#xaa;" horiz-adv-x="335" 
d="M144 480c-23.333 0 -44.666 6.16504 -63.999 18.498s-34.833 29.333 -46.5 51s-17.5 45.834 -17.5 72.501s5.83301 50.834 17.5 72.501s27.167 38.667 46.5 51s40.666 18.5 63.999 18.5c33.333 0 61 -13 83 -39v32h75v-270h-75v34c-22 -27.333 -49.667 -41 -83 -41z
M110.5 570.498c13 -13.667 28.833 -20.498 47.5 -20.498c14.667 0 28.334 4 41.001 12s22 18.333 28 31v58c-6 12.667 -15.333 23 -28 31s-26.334 12 -41.001 12c-18.667 0 -34.5 -6.83301 -47.5 -20.5s-19.5 -30.834 -19.5 -51.501s6.5 -37.834 19.5 -51.501zM48 409h247
v-69h-247v69z" />
    <glyph glyph-name="guillemotleft" unicode="&#xab;" horiz-adv-x="548" 
d="M226 251l168 200h130l-170 -203l170 -204h-130l-168 200v7zM24 251l168 200h130l-170 -203l170 -204h-130l-168 200v7z" />
    <glyph glyph-name="registered" unicode="&#xae;" horiz-adv-x="656" 
d="M464.5 727.5c41.667 -24.333 74.5 -57.166 98.5 -98.499s36 -86.333 36 -135s-12 -93.834 -36 -135.501s-56.833 -74.834 -98.5 -99.501s-87.167 -37 -136.5 -37s-94.833 12.333 -136.5 37s-74.5 57.834 -98.5 99.501s-36 86.834 -36 135.501s12 93.667 36 135
s56.833 74.166 98.5 98.499s87.167 36.5 136.5 36.5s94.833 -12.167 136.5 -36.5zM427.5 320.5c29.667 17.667 53.166 41.832 70.499 72.499s26 64.334 26 101.001c0 36 -8.66699 69.333 -26 100s-41 55 -71 73s-63 27 -99 27s-68.833 -9 -98.5 -27
s-53.167 -42.333 -70.5 -73s-26 -64 -26 -100c0 -36.667 8.66699 -70.167 26 -100.5s40.833 -54.5 70.5 -72.5s62.5 -27 98.5 -27c36.667 0 69.834 8.83301 99.501 26.5zM423.999 495.498c-7.33301 -13 -17.999 -23.167 -31.999 -30.5l44 -96h-56l-36 85h-2h-48v-85h-53v254
h101c29.333 0 52.166 -8 68.499 -24s24.5 -36 24.5 -60c0 -16 -3.66699 -30.5 -11 -43.5zM294 499.998h44c15.333 0 26.833 3.5 34.5 10.5s11.5 16.5 11.5 28.5c0 26 -15 39 -45 39h-45v-78z" />
    <glyph glyph-name="macron" unicode="&#xaf;" horiz-adv-x="467" 
d="M417 707v-95h-367v95h367z" />
    <glyph glyph-name="degree" unicode="&#xb0;" horiz-adv-x="315" 
d="M94 513c-20.667 10 -37.834 25 -51.501 45s-20.5 44.333 -20.5 73c0 29.333 6.83301 54 20.5 74s30.834 34.833 51.501 44.5s41.667 14.5 63 14.5s42.5 -4.83301 63.5 -14.5s38.333 -24.5 52 -44.5s20.5 -44.667 20.5 -74c0 -28.667 -6.83301 -53 -20.5 -73
s-31 -35 -52 -45s-42.167 -15 -63.5 -15s-42.333 5 -63 15zM206 580c13.333 12.667 20 29.667 20 51s-6.66699 38.333 -20 51s-29.666 19 -48.999 19c-18.667 0 -34.667 -6.33301 -48 -19s-20 -29.667 -20 -51s6.66699 -38.333 20 -51s29.333 -19 48 -19
c19.333 0 35.666 6.33301 48.999 19z" />
    <glyph glyph-name="plusminus" unicode="&#xb1;" horiz-adv-x="610" 
d="M492 504v-79h-145v-145h-83v145h-146v79h146v150h83v-150h145zM118 231h374v-80h-374v80z" />
    <glyph glyph-name="two.sups" unicode="&#xb2;" horiz-adv-x="266" 
d="M245 523l0.000976562 -73.999h-217v45l120 133c7.33301 8.66699 11 18.334 11 29.001c0 8.66699 -2.33301 15.5 -7 20.5s-11.334 7.5 -20.001 7.5s-15.5 -2.33301 -20.5 -7s-7.5 -11.334 -7.5 -20.001v-3h-75v3c0 30 8.83301 54 26.5 72s43.167 27 76.5 27
s59.333 -8.66699 78 -26s28 -40 28 -68c0 -22.667 -10 -45.334 -30 -68.001l-62 -71h99z" />
    <glyph glyph-name="three.sups" unicode="&#xb3;" horiz-adv-x="270" 
d="M241 579c6.66699 -12.667 9.99707 -26 9.99707 -40c0 -27.333 -10.5 -50.166 -31.5 -68.499s-48.833 -27.5 -83.5 -27.5c-33.333 0 -60.333 8.66699 -81 26s-31 39 -31 65c0 6 0.333008 10.667 1 14h82v-6c0 -8 2.83301 -14.167 8.5 -18.5s12.834 -6.5 21.501 -6.5
s15.834 2.33301 21.501 7s8.5 11.667 8.5 21s-2.83301 16.833 -8.5 22.5s-13.167 8.5 -22.5 8.5h-9v63h9c8 0 14.5 2.33301 19.5 7s7.5 11 7.5 19s-2.33301 14.333 -7 19s-11 7 -19 7s-14.333 -2.33301 -19 -7s-7 -11 -7 -19v-6h-75v14c0 24.667 9 44.667 27 60
s42.333 23 73 23s55.334 -8.16699 74.001 -24.5s28 -37.5 28 -63.5c0 -22.667 -8.33301 -41.667 -25 -57c12 -8.66699 21.333 -19.334 28 -32.001z" />
    <glyph glyph-name="acute" unicode="&#xb4;" horiz-adv-x="333" 
d="M283 754l-126 -142h-107l105 142h128z" />
    <glyph glyph-name="paragraph" unicode="&#xb6;" horiz-adv-x="735" 
d="M671 682l-91.999 0.000976562v-882h-91v882h-80v-882h-91v490h-19c-49.333 0 -93.333 9.33301 -132 28s-68.834 45 -90.501 79s-32.5 73.667 -32.5 119c0 71.333 22.167 128.166 66.5 170.499s111.833 63.5 202.5 63.5h359v-68z" />
    <glyph glyph-name="periodcentered" unicode="&#xb7;" horiz-adv-x="234" 
d="M58 368h118v-145h-118v145z" />
    <glyph glyph-name="cedilla" unicode="&#xb8;" horiz-adv-x="271" 
d="M84 -114c27.333 0 40.999 12.668 40.999 38.001v97h96v-110c0 -36.667 -9.66699 -64.334 -29 -83.001s-47.666 -28 -84.999 -28h-57v86h34z" />
    <glyph glyph-name="one.sups" unicode="&#xb9;" horiz-adv-x="207" 
d="M177 750v-301h-83v214l-73 -38v79l84 46h72z" />
    <glyph glyph-name="ordmasculine" unicode="&#xba;" horiz-adv-x="343" 
d="M63 520.5c-28 27 -42.0029 60.833 -42.0029 101.5c0 26.667 6.33301 50.834 19 72.501s30.334 38.667 53.001 51s48 18.5 76 18.5c28.667 0 54.334 -6.16699 77.001 -18.5s40.334 -29.333 53.001 -51s19 -45.834 19 -72.501c0 -40.667 -14 -74.5 -42 -101.5
s-63.667 -40.5 -107 -40.5c-42.667 0 -78 13.5 -106 40.5zM222.997 570c14 14 21 31.333 21 52s-7 37.834 -21 51.501s-32 20.5 -54 20.5c-21.333 0 -39 -6.83301 -53 -20.5s-21 -30.834 -21 -51.501s7 -38 21 -52s31.667 -21 53 -21c22 0 40 7 54 21zM289.997 409v-69h-243
v69h243z" />
    <glyph glyph-name="guillemotright" unicode="&#xbb;" horiz-adv-x="548" 
d="M396 248l-170 203h130l168 -200v-7l-168 -200h-130zM194 248l-170 203h130l168 -200v-7l-168 -200h-130z" />
    <glyph glyph-name="onequarter" unicode="&#xbc;" horiz-adv-x="574" 
d="M210 750v-301h-83v214l-73 -38v79l84 46h72zM576 750l-491 -750h-76l491 750h76zM556 73h-33v-73h-87v73h-131v59l131 169h87v-165h33v-63zM436 136v75l-59 -75h59z" />
    <glyph glyph-name="onehalf" unicode="&#xbd;" horiz-adv-x="591" 
d="M210 750v-301h-83v214l-73 -38v79l84 46h72zM576 750l-491 -750h-76l491 750h76zM570 74l0.000976562 -73.999h-217v45l120 133c7.33301 8.66699 11 18.334 11 29.001c0 8.66699 -2.33301 15.5 -7 20.5s-11.334 7.5 -20.001 7.5s-15.5 -2.33301 -20.5 -7
s-7.5 -11.334 -7.5 -20.001v-3h-75v3c0 30 8.83301 54 26.5 72s43.167 27 76.5 27s59.333 -8.66699 78 -26s28 -40 28 -68c0 -22.667 -10 -45.334 -30 -68.001l-62 -71h99z" />
    <glyph glyph-name="threequarters" unicode="&#xbe;" horiz-adv-x="604" 
d="M241 579c6.66699 -12.667 9.99707 -26 9.99707 -40c0 -27.333 -10.5 -50.166 -31.5 -68.499s-48.833 -27.5 -83.5 -27.5c-33.333 0 -60.333 8.66699 -81 26s-31 39 -31 65c0 6 0.333008 10.667 1 14h82v-6c0 -8 2.83301 -14.167 8.5 -18.5s12.834 -6.5 21.501 -6.5
s15.834 2.33301 21.501 7s8.5 11.667 8.5 21s-2.83301 16.833 -8.5 22.5s-13.167 8.5 -22.5 8.5h-9v63h9c8 0 14.5 2.33301 19.5 7s7.5 11 7.5 19s-2.33301 14.333 -7 19s-11 7 -19 7s-14.333 -2.33301 -19 -7s-7 -11 -7 -19v-6h-75v14c0 24.667 9 44.667 27 60
s42.333 23 73 23s55.334 -8.16699 74.001 -24.5s28 -37.5 28 -63.5c0 -22.667 -8.33301 -41.667 -25 -57c12 -8.66699 21.333 -19.334 28 -32.001zM605.997 750l-491 -750h-76l491 750h76zM585.997 73h-33v-73h-87v73h-131v59l131 169h87v-165h33v-63zM465.997 136v75
l-59 -75h59z" />
    <glyph glyph-name="questiondown" unicode="&#xbf;" horiz-adv-x="569" 
d="M363 387h-125v126h125v-126zM517 27v-13c0 -42 -9.66699 -80.5 -29 -115.5s-47.333 -62.667 -84 -83s-79.334 -30.5 -128.001 -30.5c-48 0 -89.667 10.167 -125 30.5s-62.166 46.5 -80.499 78.5s-27.5 65.333 -27.5 100c0 30 5.16699 56.5 15.5 79.5s23.833 43 40.5 60
s38.667 36.167 66 57.5l73 55v46h125v-93l-131 -96c-18.667 -14 -33 -28.833 -43 -44.5s-15 -34.167 -15 -55.5c0 -26 9.33301 -49.333 28 -70s44.667 -31 78 -31c35.333 0 63 11 83 33s30 48.333 30 79v13h124z" />
    <glyph glyph-name="Agrave" unicode="&#xc0;" horiz-adv-x="701" 
d="M479 191h-257l-58 -191h-137l236 750h176l235 -750h-138zM446 301l-94 313h-3l-94 -313h191zM156 933l309 -42v-62l-309 42v62z" />
    <glyph glyph-name="Aacute" unicode="&#xc1;" horiz-adv-x="701" 
d="M479 191h-257l-58 -191h-137l236 750h176l235 -750h-138zM446 301l-94 313h-3l-94 -313h191zM543 933v-62l-309 -42v62z" />
    <glyph glyph-name="Acircumflex" unicode="&#xc2;" horiz-adv-x="701" 
d="M479 191h-257l-58 -191h-137l236 750h176l235 -750h-138zM446 301l-94 313h-3l-94 -313h191zM485 837l-132 39l-136 -39v60l134 41h3l131 -41v-60z" />
    <glyph glyph-name="Atilde" unicode="&#xc3;" horiz-adv-x="701" 
d="M479 191h-257l-58 -191h-137l236 750h176l235 -750h-138zM446 301l-94 313h-3l-94 -313h191zM510 908v-60h-318v60h318z" />
    <glyph glyph-name="Adieresis" unicode="&#xc4;" horiz-adv-x="701" 
d="M479 191h-257l-58 -191h-137l236 750h176l235 -750h-138zM446 301l-94 313h-3l-94 -313h191zM307 908v-60h-145v60h145zM539 908v-60h-145v60h145z" />
    <glyph glyph-name="Aring" unicode="&#xc5;" horiz-adv-x="701" 
d="M479 191h-257l-58 -191h-137l236 750h176l235 -750h-138zM446 301l-94 313h-3l-94 -313h191zM277.5 842c-17 10.667 -25.5 25.667 -25.5 45c0 20 8.66699 35.333 26 46s41.333 16 72 16s54.834 -5.33301 72.501 -16s26.5 -26 26.5 -46
c0 -19.333 -8.83301 -34.333 -26.5 -45s-41.834 -16 -72.501 -16c-31.333 0 -55.5 5.33301 -72.5 16zM405 887c0 8.66699 -4.83301 14.833 -14.5 18.5s-23.167 5.5 -40.5 5.5c-36 0 -54 -8 -54 -24c0 -15.333 18 -23 54 -23c36.667 0 55 7.66699 55 23z" />
    <glyph glyph-name="AE" unicode="&#xc6;" horiz-adv-x="931" 
d="M894 110v-110h-444v191h-202l-84 -191h-137l341 750h513v-110h-298v-186h254v-110h-254v-234h311zM450 301v339h-3l-150 -339h153z" />
    <glyph glyph-name="Ccedilla" unicode="&#xc7;" horiz-adv-x="803" 
d="M631 279l133.998 0.00195312c-15.333 -79.333 -47.833 -144 -97.5 -194s-111.834 -81.333 -186.501 -94v-80c0 -36.667 -9.66699 -64.334 -29 -83.001s-47.666 -28 -84.999 -28h-57v86h34c27.333 0 41 12.667 41 38v62c-67.333 4 -127.166 23 -179.499 57
s-93 79.833 -122 137.5s-43.5 122.5 -43.5 194.5c0 75.333 15.667 142.5 47 201.5s75 105 131 138s120 49.5 192 49.5c92 0 169.333 -25.333 232 -76s103.667 -120.667 123 -210h-136c-18.667 53.333 -45.667 93.5 -81 120.5s-81.333 40.5 -138 40.5
c-47.333 0 -88.666 -11 -123.999 -33s-62.5 -53 -81.5 -93s-28.5 -86.333 -28.5 -139s9.5 -98.834 28.5 -138.501s46.167 -70.5 81.5 -92.5s76.666 -33 123.999 -33c114.667 0 188.334 56.333 221.001 169z" />
    <glyph glyph-name="Egrave" unicode="&#xc8;" horiz-adv-x="588" 
d="M551 110v-110h-484v750h471v-110h-338v-186h294v-110h-294v-234h351zM139 933l309 -42v-62l-309 42v62z" />
    <glyph glyph-name="Eacute" unicode="&#xc9;" horiz-adv-x="588" 
d="M551 110v-110h-484v750h471v-110h-338v-186h294v-110h-294v-234h351zM473 933v-62l-309 -42v62z" />
    <glyph glyph-name="Ecircumflex" unicode="&#xca;" horiz-adv-x="588" 
d="M551 110v-110h-484v750h471v-110h-338v-186h294v-110h-294v-234h351zM447 837l-132 39l-136 -39v60l134 41h3l131 -41v-60z" />
    <glyph glyph-name="Edieresis" unicode="&#xcb;" horiz-adv-x="588" 
d="M551 110v-110h-484v750h471v-110h-338v-186h294v-110h-294v-234h351zM250 908v-60h-145v60h145zM482 908v-60h-145v60h145z" />
    <glyph glyph-name="Igrave" unicode="&#xcc;" horiz-adv-x="265" 
d="M9 894l225 -41v-59l-225 41v59zM198 750v-750h-131v750h131z" />
    <glyph glyph-name="Iacute" unicode="&#xcd;" horiz-adv-x="265" 
d="M256 895v-60l-220 -41v59zM198 750v-750h-131v750h131z" />
    <glyph glyph-name="Icircumflex" unicode="&#xce;" horiz-adv-x="265" 
d="M198 750v-750h-131v750h131zM267 837l-132 39l-136 -39v60l134 41h3l131 -41v-60z" />
    <glyph glyph-name="Idieresis" unicode="&#xcf;" horiz-adv-x="265" 
d="M95 870v-57h-108v57h108zM278 870v-57h-108v57h108zM198 750v-750h-131v750h131z" />
    <glyph glyph-name="Eth" unicode="&#xd0;" horiz-adv-x="725" 
d="M509 703c57.333 -31.333 101 -75.167 131 -131.5s45 -121.5 45 -195.5s-15.167 -139.5 -45.5 -196.5s-73.833 -101.167 -130.5 -132.5s-124 -47 -202 -47h-240v354h-63v59h63v337h239c78 0 145.667 -15.667 203 -47zM490 191.499
c40.667 47 60.999 108.501 60.999 184.501c0 75.333 -20.5 136.666 -61.5 183.999s-102.833 71 -185.5 71h-107v-218h151v-59h-151v-233h108c82.667 0 144.334 23.5 185.001 70.5z" />
    <glyph glyph-name="Ntilde" unicode="&#xd1;" horiz-adv-x="728" 
d="M67 750h138l327 -535h3v535h126v-750h-138l-327 535h-3v-535h-126v750zM523 908v-60h-318v60h318z" />
    <glyph glyph-name="Ograve" unicode="&#xd2;" horiz-adv-x="830" 
d="M220.5 35c-57 33.333 -101.333 79.666 -133 138.999s-47.5 126.333 -47.5 201s15.833 141.5 47.5 200.5s76 105.167 133 138.5s121.833 50 194.5 50s137.5 -16.667 194.5 -50s101.333 -79.5 133 -138.5s47.5 -125.833 47.5 -200.5s-15.833 -141.667 -47.5 -201
s-76 -105.666 -133 -138.999s-121.833 -50 -194.5 -50s-137.5 16.667 -194.5 50zM541 143c36 22 63.833 53 83.5 93s29.5 86 29.5 138c0 52.667 -9.83301 99 -29.5 139s-47.5 71 -83.5 93s-78 33 -126 33s-90 -11 -126 -33s-63.833 -53 -83.5 -93s-29.5 -86.333 -29.5 -139
c0 -52 9.83301 -98 29.5 -138s47.5 -71 83.5 -93s78 -33 126 -33s90 11 126 33zM260 933l309 -42v-62l-309 42v62z" />
    <glyph glyph-name="Oacute" unicode="&#xd3;" horiz-adv-x="830" 
d="M220.5 35c-57 33.333 -101.333 79.666 -133 138.999s-47.5 126.333 -47.5 201s15.833 141.5 47.5 200.5s76 105.167 133 138.5s121.833 50 194.5 50s137.5 -16.667 194.5 -50s101.333 -79.5 133 -138.5s47.5 -125.833 47.5 -200.5s-15.833 -141.667 -47.5 -201
s-76 -105.666 -133 -138.999s-121.833 -50 -194.5 -50s-137.5 16.667 -194.5 50zM541 143c36 22 63.833 53 83.5 93s29.5 86 29.5 138c0 52.667 -9.83301 99 -29.5 139s-47.5 71 -83.5 93s-78 33 -126 33s-90 -11 -126 -33s-63.833 -53 -83.5 -93s-29.5 -86.333 -29.5 -139
c0 -52 9.83301 -98 29.5 -138s47.5 -71 83.5 -93s78 -33 126 -33s90 11 126 33zM569 933v-62l-309 -42v62z" />
    <glyph glyph-name="Ocircumflex" unicode="&#xd4;" horiz-adv-x="830" 
d="M220.5 35c-57 33.333 -101.333 79.666 -133 138.999s-47.5 126.333 -47.5 201s15.833 141.5 47.5 200.5s76 105.167 133 138.5s121.833 50 194.5 50s137.5 -16.667 194.5 -50s101.333 -79.5 133 -138.5s47.5 -125.833 47.5 -200.5s-15.833 -141.667 -47.5 -201
s-76 -105.666 -133 -138.999s-121.833 -50 -194.5 -50s-137.5 16.667 -194.5 50zM541 143c36 22 63.833 53 83.5 93s29.5 86 29.5 138c0 52.667 -9.83301 99 -29.5 139s-47.5 71 -83.5 93s-78 33 -126 33s-90 -11 -126 -33s-63.833 -53 -83.5 -93s-29.5 -86.333 -29.5 -139
c0 -52 9.83301 -98 29.5 -138s47.5 -71 83.5 -93s78 -33 126 -33s90 11 126 33zM549 837l-132 39l-136 -39v60l134 41h3l131 -41v-60z" />
    <glyph glyph-name="Otilde" unicode="&#xd5;" horiz-adv-x="830" 
d="M220.5 35c-57 33.333 -101.333 79.666 -133 138.999s-47.5 126.333 -47.5 201s15.833 141.5 47.5 200.5s76 105.167 133 138.5s121.833 50 194.5 50s137.5 -16.667 194.5 -50s101.333 -79.5 133 -138.5s47.5 -125.833 47.5 -200.5s-15.833 -141.667 -47.5 -201
s-76 -105.666 -133 -138.999s-121.833 -50 -194.5 -50s-137.5 16.667 -194.5 50zM541 143c36 22 63.833 53 83.5 93s29.5 86 29.5 138c0 52.667 -9.83301 99 -29.5 139s-47.5 71 -83.5 93s-78 33 -126 33s-90 -11 -126 -33s-63.833 -53 -83.5 -93s-29.5 -86.333 -29.5 -139
c0 -52 9.83301 -98 29.5 -138s47.5 -71 83.5 -93s78 -33 126 -33s90 11 126 33zM574 908v-60h-318v60h318z" />
    <glyph glyph-name="Odieresis" unicode="&#xd6;" horiz-adv-x="830" 
d="M220.5 35c-57 33.333 -101.333 79.666 -133 138.999s-47.5 126.333 -47.5 201s15.833 141.5 47.5 200.5s76 105.167 133 138.5s121.833 50 194.5 50s137.5 -16.667 194.5 -50s101.333 -79.5 133 -138.5s47.5 -125.833 47.5 -200.5s-15.833 -141.667 -47.5 -201
s-76 -105.666 -133 -138.999s-121.833 -50 -194.5 -50s-137.5 16.667 -194.5 50zM541 143c36 22 63.833 53 83.5 93s29.5 86 29.5 138c0 52.667 -9.83301 99 -29.5 139s-47.5 71 -83.5 93s-78 33 -126 33s-90 -11 -126 -33s-63.833 -53 -83.5 -93s-29.5 -86.333 -29.5 -139
c0 -52 9.83301 -98 29.5 -138s47.5 -71 83.5 -93s78 -33 126 -33s90 11 126 33zM371 908v-60h-145v60h145zM603 908v-60h-145v60h145z" />
    <glyph glyph-name="multiply" unicode="&#xd7;" horiz-adv-x="609" 
d="M367 362l111 -112l-62 -61l-111 111l-112 -112l-61 62l112 112l-112 111l61 62l112 -112l111 111l62 -61z" />
    <glyph glyph-name="Oslash" unicode="&#xd8;" horiz-adv-x="830" 
d="M699 639c29.333 -34.667 51.833 -74.335 67.5 -119.002s23.5 -93 23.5 -145c0 -74.667 -15.833 -141.667 -47.5 -201s-76 -105.666 -133 -138.999s-121.833 -50 -194.5 -50c-90 0 -168 25.667 -234 77l-55 -62h-95l99 111c-28.667 34.667 -50.834 74.334 -66.501 119.001
s-23.5 93 -23.5 145c0 74.667 15.833 141.5 47.5 200.5s76 105.167 133 138.5s121.833 50 194.5 50c44.667 0 86.834 -6.5 126.501 -19.5s75.167 -31.833 106.5 -56.5l56 62h95zM220 209.999l342 382c-40.667 31.333 -89.667 47 -147 47c-48 0 -90 -11 -126 -33
s-63.833 -53 -83.5 -93s-29.5 -86.333 -29.5 -139c0 -63.333 14.667 -118 44 -164zM610 538.999l-342 -381c40 -32 89 -48 147 -48c48 0 90 11 126 33s63.833 53 83.5 93s29.5 86 29.5 138c0 64 -14.667 119 -44 165z" />
    <glyph glyph-name="Ugrave" unicode="&#xd9;" horiz-adv-x="742" 
d="M648.5 135.5c-25.667 -48.333 -62.3311 -85.5 -109.998 -111.5s-103.5 -39 -167.5 -39c-63.333 0 -118.833 13 -166.5 39s-84.5 63.167 -110.5 111.5s-39 105.166 -39 170.499v444h133v-453c0 -58 16.167 -104.333 48.5 -139s77.166 -52 134.499 -52
s102.166 17.333 134.499 52s48.5 81 48.5 139v453h133v-444c0 -65.333 -12.833 -122.166 -38.5 -170.499zM192.003 933l309 -42v-62l-309 42v62z" />
    <glyph glyph-name="Uacute" unicode="&#xda;" horiz-adv-x="742" 
d="M648.5 135.5c-25.667 -48.333 -62.3311 -85.5 -109.998 -111.5s-103.5 -39 -167.5 -39c-63.333 0 -118.833 13 -166.5 39s-84.5 63.167 -110.5 111.5s-39 105.166 -39 170.499v444h133v-453c0 -58 16.167 -104.333 48.5 -139s77.166 -52 134.499 -52
s102.166 17.333 134.499 52s48.5 81 48.5 139v453h133v-444c0 -65.333 -12.833 -122.166 -38.5 -170.499zM543.003 933v-62l-309 -42v62z" />
    <glyph glyph-name="Ucircumflex" unicode="&#xdb;" horiz-adv-x="742" 
d="M648.5 135.5c-25.667 -48.333 -62.3311 -85.5 -109.998 -111.5s-103.5 -39 -167.5 -39c-63.333 0 -118.833 13 -166.5 39s-84.5 63.167 -110.5 111.5s-39 105.166 -39 170.499v444h133v-453c0 -58 16.167 -104.333 48.5 -139s77.166 -52 134.499 -52
s102.166 17.333 134.499 52s48.5 81 48.5 139v453h133v-444c0 -65.333 -12.833 -122.166 -38.5 -170.499zM505.003 837l-132 39l-136 -39v60l134 41h3l131 -41v-60z" />
    <glyph glyph-name="Udieresis" unicode="&#xdc;" horiz-adv-x="742" 
d="M648.5 135.5c-25.667 -48.333 -62.3311 -85.5 -109.998 -111.5s-103.5 -39 -167.5 -39c-63.333 0 -118.833 13 -166.5 39s-84.5 63.167 -110.5 111.5s-39 105.166 -39 170.499v444h133v-453c0 -58 16.167 -104.333 48.5 -139s77.166 -52 134.499 -52
s102.166 17.333 134.499 52s48.5 81 48.5 139v453h133v-444c0 -65.333 -12.833 -122.166 -38.5 -170.499zM327.003 908v-60h-145v60h145zM559.003 908v-60h-145v60h145z" />
    <glyph glyph-name="Yacute" unicode="&#xdd;" horiz-adv-x="654" 
d="M393 236v-236h-133v238l-237 512h138l164 -378h3l165 378h138zM510 933v-62l-309 -42v62z" />
    <glyph glyph-name="Thorn" unicode="&#xde;" horiz-adv-x="649" 
d="M497.5 596c41 -20.667 72.334 -49.498 94.001 -86.498s32.5 -79.833 32.5 -128.5s-10.833 -91.834 -32.5 -129.501s-52.834 -66.834 -93.501 -87.501s-89 -31 -145 -31h-153v-133h-133v750h133v-123h152c56 0 104.5 -10.333 145.5 -31zM451.001 282.002
c24.667 26 36.999 59 36.999 99c0 38.667 -12.167 71 -36.5 97s-61.5 39 -111.5 39h-140v-274h138c50.667 0 88.334 13 113.001 39z" />
    <glyph glyph-name="germandbls" unicode="&#xdf;" horiz-adv-x="711" 
d="M649.5 341.5c24.333 -35.667 36.498 -76.5029 36.498 -122.503c0 -73.333 -21.333 -130.666 -64 -171.999s-102 -62 -178 -62c-62.667 0 -113.834 16.5 -153.501 49.5s-62.167 75.833 -67.5 128.5h138c6 -21.333 17 -38 33 -50s34.667 -18 56 -18
c30.667 0 54.667 10.833 72 32.5s26 52.167 26 91.5c0 40 -11.167 72.667 -33.5 98s-60.166 38 -113.499 38h-117v111h99c44 0 74.833 8.83301 92.5 26.5s26.5 39.834 26.5 66.501s-9.66699 48.834 -29 66.501s-48.666 26.5 -87.999 26.5h-64
c-43.333 0 -76.666 -12.833 -99.999 -38.5s-35 -60.167 -35 -103.5v-568c0 -44.667 -13.5 -79.5 -40.5 -104.5s-67.5 -37.5 -121.5 -37.5h-63v100h55c30 0 45 15.333 45 46v562c0 77.333 22.167 139.333 66.5 186s107.833 70 190.5 70h75c46 0 86.5 -8.5 121.5 -25.5
s62 -40.167 81 -69.5s28.5 -62 28.5 -98c0 -32.667 -7.16699 -62.167 -21.5 -88.5s-34.833 -47.166 -61.5 -62.499c48 -16.667 84.167 -42.834 108.5 -78.501z" />
    <glyph glyph-name="agrave" unicode="&#xe0;" horiz-adv-x="584" 
d="M472 476c28 -24.667 41.998 -59.666 41.998 -104.999v-371h-123v63c-18 -25.333 -41.5 -44.666 -70.5 -57.999s-62.5 -20 -100.5 -20c-53.333 0 -96.666 14.833 -129.999 44.5s-50 68.5 -50 116.5c0 43.333 12.833 79.166 38.5 107.499s60.834 45.166 105.501 50.499
l207 26v26c0 31.333 -15 47 -45 47h-260v110h265c52.667 0 93 -12.333 121 -37zM335.998 107.001c26 16 44.333 36.667 55 62v65l-158 -22c-22 -3.33301 -38.833 -10.5 -50.5 -21.5s-17.5 -25.833 -17.5 -44.5c0 -20 7.5 -35.5 22.5 -46.5s35.833 -16.5 62.5 -16.5
c31.333 0 60 8 86 24zM242.998 754.001l105 -142h-108l-125 142h128z" />
    <glyph glyph-name="aacute" unicode="&#xe1;" horiz-adv-x="584" 
d="M472 476c28 -24.667 41.998 -59.666 41.998 -104.999v-371h-123v63c-18 -25.333 -41.5 -44.666 -70.5 -57.999s-62.5 -20 -100.5 -20c-53.333 0 -96.666 14.833 -129.999 44.5s-50 68.5 -50 116.5c0 43.333 12.833 79.166 38.5 107.499s60.834 45.166 105.501 50.499
l207 26v26c0 31.333 -15 47 -45 47h-260v110h265c52.667 0 93 -12.333 121 -37zM335.998 107.001c26 16 44.333 36.667 55 62v65l-158 -22c-22 -3.33301 -38.833 -10.5 -50.5 -21.5s-17.5 -25.833 -17.5 -44.5c0 -20 7.5 -35.5 22.5 -46.5s35.833 -16.5 62.5 -16.5
c31.333 0 60 8 86 24zM457.998 754.001l-126 -142h-107l105 142h128z" />
    <glyph glyph-name="acircumflex" unicode="&#xe2;" horiz-adv-x="584" 
d="M472 476c28 -24.667 41.998 -59.666 41.998 -104.999v-371h-123v63c-18 -25.333 -41.5 -44.666 -70.5 -57.999s-62.5 -20 -100.5 -20c-53.333 0 -96.666 14.833 -129.999 44.5s-50 68.5 -50 116.5c0 43.333 12.833 79.166 38.5 107.499s60.834 45.166 105.501 50.499
l207 26v26c0 31.333 -15 47 -45 47h-260v110h265c52.667 0 93 -12.333 121 -37zM335.998 107.001c26 16 44.333 36.667 55 62v65l-158 -22c-22 -3.33301 -38.833 -10.5 -50.5 -21.5s-17.5 -25.833 -17.5 -44.5c0 -20 7.5 -35.5 22.5 -46.5s35.833 -16.5 62.5 -16.5
c31.333 0 60 8 86 24zM339.998 612.001l-51 60l-52 -60h-107l115 142h93l115 -142h-113z" />
    <glyph glyph-name="atilde" unicode="&#xe3;" horiz-adv-x="584" 
d="M472 476c28 -24.667 41.998 -59.666 41.998 -104.999v-371h-123v63c-18 -25.333 -41.5 -44.666 -70.5 -57.999s-62.5 -20 -100.5 -20c-53.333 0 -96.666 14.833 -129.999 44.5s-50 68.5 -50 116.5c0 43.333 12.833 79.166 38.5 107.499s60.834 45.166 105.501 50.499
l207 26v26c0 31.333 -15 47 -45 47h-260v110h265c52.667 0 93 -12.333 121 -37zM335.998 107.001c26 16 44.333 36.667 55 62v65l-158 -22c-22 -3.33301 -38.833 -10.5 -50.5 -21.5s-17.5 -25.833 -17.5 -44.5c0 -20 7.5 -35.5 22.5 -46.5s35.833 -16.5 62.5 -16.5
c31.333 0 60 8 86 24zM474.998 707.001v-95h-367v95h367z" />
    <glyph glyph-name="adieresis" unicode="&#xe4;" horiz-adv-x="584" 
d="M472 476c28 -24.667 41.998 -59.666 41.998 -104.999v-371h-123v63c-18 -25.333 -41.5 -44.666 -70.5 -57.999s-62.5 -20 -100.5 -20c-53.333 0 -96.666 14.833 -129.999 44.5s-50 68.5 -50 116.5c0 43.333 12.833 79.166 38.5 107.499s60.834 45.166 105.501 50.499
l207 26v26c0 31.333 -15 47 -45 47h-260v110h265c52.667 0 93 -12.333 121 -37zM335.998 107.001c26 16 44.333 36.667 55 62v65l-158 -22c-22 -3.33301 -38.833 -10.5 -50.5 -21.5s-17.5 -25.833 -17.5 -44.5c0 -20 7.5 -35.5 22.5 -46.5s35.833 -16.5 62.5 -16.5
c31.333 0 60 8 86 24zM231.998 750.001v-142h-108v142h108zM458.998 750.001v-142h-107v142h107z" />
    <glyph glyph-name="aring" unicode="&#xe5;" horiz-adv-x="584" 
d="M472 476c28 -24.667 41.998 -59.666 41.998 -104.999v-371h-123v63c-18 -25.333 -41.5 -44.666 -70.5 -57.999s-62.5 -20 -100.5 -20c-53.333 0 -96.666 14.833 -129.999 44.5s-50 68.5 -50 116.5c0 43.333 12.833 79.166 38.5 107.499s60.834 45.166 105.501 50.499
l207 26v26c0 31.333 -15 47 -45 47h-260v110h265c52.667 0 93 -12.333 121 -37zM335.998 107.001c26 16 44.333 36.667 55 62v65l-158 -22c-22 -3.33301 -38.833 -10.5 -50.5 -21.5s-17.5 -25.833 -17.5 -44.5c0 -20 7.5 -35.5 22.5 -46.5s35.833 -16.5 62.5 -16.5
c31.333 0 60 8 86 24zM223.998 623.501c-18.667 18.333 -28 40.833 -28 67.5c0 26 9.33301 48.333 28 67s41.334 28 68.001 28c26 0 48.333 -9.33301 67 -28s28 -41 28 -67c0 -26.667 -9.33301 -49.167 -28 -67.5s-41 -27.5 -67 -27.5
c-26.667 0 -49.334 9.16699 -68.001 27.5zM318.498 665.001c7.66699 7.33301 11.5 16.001 11.5 26.001s-3.83301 18.5 -11.5 25.5s-16.5 10.5 -26.5 10.5c-10.667 0 -19.667 -3.33301 -27 -10s-11 -15.334 -11 -26.001s3.66699 -19.5 11 -26.5s16.333 -10.5 27 -10.5
c10 0 18.833 3.66699 26.5 11z" />
    <glyph glyph-name="ae" unicode="&#xe6;" horiz-adv-x="965" 
d="M917 225l-401.001 0.000976562c5.33301 -42.667 20.166 -75.167 44.499 -97.5s57.833 -33.5 100.5 -33.5c28 0 52.333 5 73 15s37 22.333 49 37h131c-9.33301 -29.333 -26.666 -56.333 -51.999 -81s-55.833 -44.167 -91.5 -58.5s-72.834 -21.5 -111.501 -21.5
c-43.333 0 -82.666 9.33301 -117.999 28s-64 45 -86 79c-52 -71.333 -129.333 -107 -232 -107c-54.667 0 -98.834 14.833 -132.501 44.5s-50.5 68.5 -50.5 116.5c0 43.333 12.833 79.166 38.5 107.499s60.834 45.166 105.501 50.499l207 26v26c0 31.333 -15 47 -45 47h-260
v110h265c63.333 0 109 -18 137 -54c22 22 47.333 38.833 76 50.5s59.334 17.5 92.001 17.5c52 0 97.833 -10.833 137.5 -32.5s70.5 -52.667 92.5 -93s33 -87.833 33 -142.5c0 -15.333 -0.666992 -26.666 -2 -33.999zM567.999 393.501
c-22.667 -16.333 -38.333 -40.167 -47 -71.5h264c-14.667 64 -58 96 -130 96c-35.333 0 -64.333 -8.16699 -87 -24.5zM336 107c26 16 44.333 36.667 55 62v65l-158 -22c-22 -3.33301 -38.833 -10.5 -50.5 -21.5s-17.5 -25.833 -17.5 -44.5c0 -20 7.5 -35.5 22.5 -46.5
s35.833 -16.5 62.5 -16.5c31.333 0 60 8 86 24z" />
    <glyph glyph-name="ccedilla" unicode="&#xe7;" horiz-adv-x="614" 
d="M397 118.5c20 13.667 35.999 34.167 47.999 61.5h125c-11.333 -52.667 -33.833 -95.167 -67.5 -127.5s-75.5 -53.166 -125.5 -62.499v-79c0 -36.667 -9.66699 -64.334 -29 -83.001s-47.666 -28 -84.999 -28h-57v86h34c27.333 0 41 12.667 41 38v63
c-46 6 -86.5 21.167 -121.5 45.5s-62 55.833 -81 94.5s-28.5 82 -28.5 130c0 52 11.333 98.5 34 139.5s54.5 73 95.5 96s88.167 34.5 141.5 34.5c64 0 118 -17.167 162 -51.5s73 -83.166 87 -146.499h-124c-24 57.333 -65.667 86 -125 86
c-44.667 0 -79.834 -14.333 -105.501 -43s-38.5 -67 -38.5 -115c0 -48.667 12.833 -87.334 38.5 -116.001s60.834 -43 105.501 -43c30.667 0 56 6.83301 76 20.5z" />
    <glyph glyph-name="egrave" unicode="&#xe8;" horiz-adv-x="626" 
d="M578 225l-401 -0.00195312c5.33301 -42.667 20.166 -75.167 44.499 -97.5s57.833 -33.5 100.5 -33.5c28 0 52.333 5 73 15s37 22.333 49 37h131c-9.33301 -29.333 -26.666 -56.333 -51.999 -81s-55.833 -44.167 -91.5 -58.5s-72.834 -21.5 -111.501 -21.5
c-52.667 0 -99.5 11.5 -140.5 34.5s-72.833 55.333 -95.5 97s-34 89.5 -34 143.5c0 50.667 11.5 96.334 34.5 137.001s54.833 72.5 95.5 95.5s86.334 34.5 137.001 34.5c52 0 97.833 -10.833 137.5 -32.5s70.5 -52.667 92.5 -93s33 -87.833 33 -142.5
c0 -15.333 -0.666992 -26.666 -2 -33.999zM229 393.498c-22.667 -16.333 -38.333 -40.167 -47 -71.5h264c-14.667 64 -58 96 -130 96c-35.333 0 -64.333 -8.16699 -87 -24.5zM268.001 753.997l105 -142h-108l-125 142h128z" />
    <glyph glyph-name="eacute" unicode="&#xe9;" horiz-adv-x="626" 
d="M578 225l-401 -0.00195312c5.33301 -42.667 20.166 -75.167 44.499 -97.5s57.833 -33.5 100.5 -33.5c28 0 52.333 5 73 15s37 22.333 49 37h131c-9.33301 -29.333 -26.666 -56.333 -51.999 -81s-55.833 -44.167 -91.5 -58.5s-72.834 -21.5 -111.501 -21.5
c-52.667 0 -99.5 11.5 -140.5 34.5s-72.833 55.333 -95.5 97s-34 89.5 -34 143.5c0 50.667 11.5 96.334 34.5 137.001s54.833 72.5 95.5 95.5s86.334 34.5 137.001 34.5c52 0 97.833 -10.833 137.5 -32.5s70.5 -52.667 92.5 -93s33 -87.833 33 -142.5
c0 -15.333 -0.666992 -26.666 -2 -33.999zM229 393.498c-22.667 -16.333 -38.333 -40.167 -47 -71.5h264c-14.667 64 -58 96 -130 96c-35.333 0 -64.333 -8.16699 -87 -24.5zM483.001 753.997l-126 -142h-107l105 142h128z" />
    <glyph glyph-name="ecircumflex" unicode="&#xea;" horiz-adv-x="626" 
d="M578 225l-401 -0.00195312c5.33301 -42.667 20.166 -75.167 44.499 -97.5s57.833 -33.5 100.5 -33.5c28 0 52.333 5 73 15s37 22.333 49 37h131c-9.33301 -29.333 -26.666 -56.333 -51.999 -81s-55.833 -44.167 -91.5 -58.5s-72.834 -21.5 -111.501 -21.5
c-52.667 0 -99.5 11.5 -140.5 34.5s-72.833 55.333 -95.5 97s-34 89.5 -34 143.5c0 50.667 11.5 96.334 34.5 137.001s54.833 72.5 95.5 95.5s86.334 34.5 137.001 34.5c52 0 97.833 -10.833 137.5 -32.5s70.5 -52.667 92.5 -93s33 -87.833 33 -142.5
c0 -15.333 -0.666992 -26.666 -2 -33.999zM229 393.498c-22.667 -16.333 -38.333 -40.167 -47 -71.5h264c-14.667 64 -58 96 -130 96c-35.333 0 -64.333 -8.16699 -87 -24.5zM365.001 611.997l-51 60l-52 -60h-107l115 142h93l115 -142h-113z" />
    <glyph glyph-name="edieresis" unicode="&#xeb;" horiz-adv-x="626" 
d="M578 225l-401 -0.00195312c5.33301 -42.667 20.166 -75.167 44.499 -97.5s57.833 -33.5 100.5 -33.5c28 0 52.333 5 73 15s37 22.333 49 37h131c-9.33301 -29.333 -26.666 -56.333 -51.999 -81s-55.833 -44.167 -91.5 -58.5s-72.834 -21.5 -111.501 -21.5
c-52.667 0 -99.5 11.5 -140.5 34.5s-72.833 55.333 -95.5 97s-34 89.5 -34 143.5c0 50.667 11.5 96.334 34.5 137.001s54.833 72.5 95.5 95.5s86.334 34.5 137.001 34.5c52 0 97.833 -10.833 137.5 -32.5s70.5 -52.667 92.5 -93s33 -87.833 33 -142.5
c0 -15.333 -0.666992 -26.666 -2 -33.999zM229 393.498c-22.667 -16.333 -38.333 -40.167 -47 -71.5h264c-14.667 64 -58 96 -130 96c-35.333 0 -64.333 -8.16699 -87 -24.5zM257.001 749.997v-142h-108v142h108zM484.001 749.997v-142h-107v142h107z" />
    <glyph glyph-name="igrave" unicode="&#xec;" horiz-adv-x="329" 
d="M25 403v110h230v-513h-125v403h-105zM83 754l105 -142h-108l-125 142h128z" />
    <glyph glyph-name="iacute" unicode="&#xed;" horiz-adv-x="329" 
d="M25 403v110h230v-513h-125v403h-105zM298 754l-126 -142h-107l105 142h128z" />
    <glyph glyph-name="icircumflex" unicode="&#xee;" horiz-adv-x="329" 
d="M25 403v110h230v-513h-125v403h-105zM180 612l-51 60l-52 -60h-107l115 142h93l115 -142h-113z" />
    <glyph glyph-name="idieresis" unicode="&#xef;" horiz-adv-x="329" 
d="M104 750v-142h-98v142h98zM259 750v-142h-98v142h98zM25 403v110h230v-513h-125v403h-105z" />
    <glyph glyph-name="eth" unicode="&#xf0;" horiz-adv-x="635" 
d="M550 454c29.333 -62 43.999 -127.332 43.999 -195.999c0 -52 -11.333 -98.833 -34 -140.5s-54.667 -74.167 -96 -97.5s-88.666 -35 -141.999 -35s-100.5 11.667 -141.5 35s-73 55.666 -96 96.999s-34.5 88 -34.5 140s11.5 98.5 34.5 139.5s55 73 96 96
s88.167 34.5 141.5 34.5c33.333 0 64 -6.66699 92 -20c-26 34 -54 65.333 -84 94l-171 -36v67l110 23c-46.667 38 -94 69.667 -142 95h162c30 -18 61 -41.667 93 -71l139 30v-67l-84 -18c46 -51.333 83.667 -108 113 -170zM427.999 140.501c26 29 39 67.833 39 116.5
c0 48 -13 86.333 -39 115s-61.333 43 -106 43c-45.333 0 -80.833 -14.333 -106.5 -43s-38.5 -67 -38.5 -115c0 -48.667 12.833 -87.5 38.5 -116.5s61.167 -43.5 106.5 -43.5c44.667 0 80 14.5 106 43.5z" />
    <glyph glyph-name="ntilde" unicode="&#xf1;" horiz-adv-x="638" 
d="M517.5 472.5c34.333 -36.333 51.501 -84.499 51.501 -144.499v-328h-125v297c0 35.333 -8.66699 63.5 -26 84.5s-43.666 31.5 -78.999 31.5c-28 0 -55.333 -8.33301 -82 -25s-46 -37.667 -58 -63v-325h-125v513h125v-64c21.333 25.333 47.166 44.666 77.499 57.999
s63.833 20 100.5 20c59.333 0 106.166 -18.167 140.499 -54.5zM511.001 707.001v-95h-367v95h367z" />
    <glyph glyph-name="ograve" unicode="&#xf2;" horiz-adv-x="644" 
d="M180.5 20c-41 23.333 -73 55.666 -96 96.999s-34.5 88 -34.5 140s11.5 98.5 34.5 139.5s55 73 96 96s88.167 34.5 141.5 34.5s100.666 -11.5 141.999 -34.5s73.333 -55 96 -96s34 -87.5 34 -139.5s-11.333 -98.667 -34 -140s-54.667 -73.666 -96 -96.999
s-88.666 -35 -141.999 -35s-100.5 11.667 -141.5 35zM428 140.5c26 29 39 67.833 39 116.5c0 48 -13 86.333 -39 115s-61.333 43 -106 43c-45.333 0 -80.833 -14.333 -106.5 -43s-38.5 -67 -38.5 -115c0 -48.667 12.833 -87.5 38.5 -116.5s61.167 -43.5 106.5 -43.5
c44.667 0 80 14.5 106 43.5zM273 754l105 -142h-108l-125 142h128z" />
    <glyph glyph-name="oacute" unicode="&#xf3;" horiz-adv-x="644" 
d="M180.5 20c-41 23.333 -73 55.666 -96 96.999s-34.5 88 -34.5 140s11.5 98.5 34.5 139.5s55 73 96 96s88.167 34.5 141.5 34.5s100.666 -11.5 141.999 -34.5s73.333 -55 96 -96s34 -87.5 34 -139.5s-11.333 -98.667 -34 -140s-54.667 -73.666 -96 -96.999
s-88.666 -35 -141.999 -35s-100.5 11.667 -141.5 35zM428 140.5c26 29 39 67.833 39 116.5c0 48 -13 86.333 -39 115s-61.333 43 -106 43c-45.333 0 -80.833 -14.333 -106.5 -43s-38.5 -67 -38.5 -115c0 -48.667 12.833 -87.5 38.5 -116.5s61.167 -43.5 106.5 -43.5
c44.667 0 80 14.5 106 43.5zM488 754l-126 -142h-107l105 142h128z" />
    <glyph glyph-name="ocircumflex" unicode="&#xf4;" horiz-adv-x="644" 
d="M180.5 20c-41 23.333 -73 55.666 -96 96.999s-34.5 88 -34.5 140s11.5 98.5 34.5 139.5s55 73 96 96s88.167 34.5 141.5 34.5s100.666 -11.5 141.999 -34.5s73.333 -55 96 -96s34 -87.5 34 -139.5s-11.333 -98.667 -34 -140s-54.667 -73.666 -96 -96.999
s-88.666 -35 -141.999 -35s-100.5 11.667 -141.5 35zM428 140.5c26 29 39 67.833 39 116.5c0 48 -13 86.333 -39 115s-61.333 43 -106 43c-45.333 0 -80.833 -14.333 -106.5 -43s-38.5 -67 -38.5 -115c0 -48.667 12.833 -87.5 38.5 -116.5s61.167 -43.5 106.5 -43.5
c44.667 0 80 14.5 106 43.5zM370 612l-51 60l-52 -60h-107l115 142h93l115 -142h-113z" />
    <glyph glyph-name="otilde" unicode="&#xf5;" horiz-adv-x="644" 
d="M180.5 20c-41 23.333 -73 55.666 -96 96.999s-34.5 88 -34.5 140s11.5 98.5 34.5 139.5s55 73 96 96s88.167 34.5 141.5 34.5s100.666 -11.5 141.999 -34.5s73.333 -55 96 -96s34 -87.5 34 -139.5s-11.333 -98.667 -34 -140s-54.667 -73.666 -96 -96.999
s-88.666 -35 -141.999 -35s-100.5 11.667 -141.5 35zM428 140.5c26 29 39 67.833 39 116.5c0 48 -13 86.333 -39 115s-61.333 43 -106 43c-45.333 0 -80.833 -14.333 -106.5 -43s-38.5 -67 -38.5 -115c0 -48.667 12.833 -87.5 38.5 -116.5s61.167 -43.5 106.5 -43.5
c44.667 0 80 14.5 106 43.5zM505 707v-95h-367v95h367z" />
    <glyph glyph-name="odieresis" unicode="&#xf6;" horiz-adv-x="644" 
d="M180.5 20c-41 23.333 -73 55.666 -96 96.999s-34.5 88 -34.5 140s11.5 98.5 34.5 139.5s55 73 96 96s88.167 34.5 141.5 34.5s100.666 -11.5 141.999 -34.5s73.333 -55 96 -96s34 -87.5 34 -139.5s-11.333 -98.667 -34 -140s-54.667 -73.666 -96 -96.999
s-88.666 -35 -141.999 -35s-100.5 11.667 -141.5 35zM428 140.5c26 29 39 67.833 39 116.5c0 48 -13 86.333 -39 115s-61.333 43 -106 43c-45.333 0 -80.833 -14.333 -106.5 -43s-38.5 -67 -38.5 -115c0 -48.667 12.833 -87.5 38.5 -116.5s61.167 -43.5 106.5 -43.5
c44.667 0 80 14.5 106 43.5zM262 750v-142h-108v142h108zM489 750v-142h-107v142h107z" />
    <glyph glyph-name="divide" unicode="&#xf7;" horiz-adv-x="610" 
d="M247 618h117v-145h-117v145zM506 402v-82h-402v82h402zM247 249h117v-145h-117v145z" />
    <glyph glyph-name="oslash" unicode="&#xf8;" horiz-adv-x="644" 
d="M530 439c20.667 -24 36.5 -51.333 47.5 -82s16.5 -64 16.5 -100c0 -52 -11.333 -98.667 -34 -140s-54.667 -73.666 -96 -96.999s-88.666 -35 -141.999 -35c-66 0 -122.333 17.667 -169 53l-36 -38h-73l70 74c-20.667 23.333 -36.5 50.666 -47.5 81.999
s-16.5 65 -16.5 101c0 52 11.5 98.5 34.5 139.5s55 73 96 96s88.167 34.5 141.5 34.5c65.333 0 121.666 -17.333 168.999 -52l35 38h74zM198 164l211 225c-23.333 17.333 -52.333 26 -87 26c-45.333 0 -80.833 -14.333 -106.5 -43s-38.5 -67 -38.5 -115c0 -36 7 -67 21 -93z
M445 348l-211 -224c24.667 -18 54 -27 88 -27c44.667 0 80 14.5 106 43.5s39 67.833 39 116.5c0 34.667 -7.33301 65 -22 91z" />
    <glyph glyph-name="ugrave" unicode="&#xf9;" horiz-adv-x="627" 
d="M553 513l-0.000976562 -513h-125v62c-20.667 -24.667 -45.834 -43.667 -75.501 -57s-62.167 -20 -97.5 -20c-57.333 0 -102.666 18.167 -135.999 54.5s-50 84.833 -50 145.5v328h125v-298c0 -35.333 8.33301 -63.5 25 -84.5s41.334 -31.5 74.001 -31.5
c26.667 0 53 8.33301 79 25s44.667 37.667 56 63v326h125zM260.999 754l105 -142h-108l-125 142h128z" />
    <glyph glyph-name="uacute" unicode="&#xfa;" horiz-adv-x="627" 
d="M553 513l-0.000976562 -513h-125v62c-20.667 -24.667 -45.834 -43.667 -75.501 -57s-62.167 -20 -97.5 -20c-57.333 0 -102.666 18.167 -135.999 54.5s-50 84.833 -50 145.5v328h125v-298c0 -35.333 8.33301 -63.5 25 -84.5s41.334 -31.5 74.001 -31.5
c26.667 0 53 8.33301 79 25s44.667 37.667 56 63v326h125zM475.999 754l-126 -142h-107l105 142h128z" />
    <glyph glyph-name="ucircumflex" unicode="&#xfb;" horiz-adv-x="627" 
d="M553 513l-0.000976562 -513h-125v62c-20.667 -24.667 -45.834 -43.667 -75.501 -57s-62.167 -20 -97.5 -20c-57.333 0 -102.666 18.167 -135.999 54.5s-50 84.833 -50 145.5v328h125v-298c0 -35.333 8.33301 -63.5 25 -84.5s41.334 -31.5 74.001 -31.5
c26.667 0 53 8.33301 79 25s44.667 37.667 56 63v326h125zM357.999 612l-51 60l-52 -60h-107l115 142h93l115 -142h-113z" />
    <glyph glyph-name="udieresis" unicode="&#xfc;" horiz-adv-x="627" 
d="M553 513l-0.000976562 -513h-125v62c-20.667 -24.667 -45.834 -43.667 -75.501 -57s-62.167 -20 -97.5 -20c-57.333 0 -102.666 18.167 -135.999 54.5s-50 84.833 -50 145.5v328h125v-298c0 -35.333 8.33301 -63.5 25 -84.5s41.334 -31.5 74.001 -31.5
c26.667 0 53 8.33301 79 25s44.667 37.667 56 63v326h125zM249.999 750v-142h-108v142h108zM476.999 750v-142h-107v142h107z" />
    <glyph glyph-name="yacute" unicode="&#xfd;" horiz-adv-x="528" 
d="M506 513l-206.001 -589c-14.667 -43.333 -33.5 -74.833 -56.5 -94.5s-56.167 -29.5 -99.5 -29.5h-99v110h89c16.667 0 29.334 3.5 38.001 10.5s16 18.5 22 34.5l16 45l-188 513h127l117 -357h3l112 357h125zM429.999 754l-126 -142h-107l105 142h128z" />
    <glyph glyph-name="thorn" unicode="&#xfe;" horiz-adv-x="647" 
d="M480 492.5c36.667 -23 65.334 -55.001 86.001 -96.001s31 -87.5 31 -139.5s-10.333 -98.667 -31 -140s-49.334 -73.666 -86.001 -96.999s-78 -35 -124 -35c-68 0 -121.333 24 -160 72v-257h-122v950h122v-294c18.667 23.333 41.5 41 68.5 53s57.5 18 91.5 18
c46 0 87.333 -11.5 124 -34.5zM433 141.499c24.667 28.333 36.999 66.833 36.999 115.5c0 48 -12.333 86 -37 114s-57.334 42 -98.001 42c-32.667 0 -60.667 -8 -84 -24s-41.666 -38.333 -54.999 -67v-131c14 -28 32.667 -50.333 56 -67s51 -25 83 -25
c40.667 0 73.334 14.167 98.001 42.5z" />
    <glyph glyph-name="ydieresis" unicode="&#xff;" horiz-adv-x="528" 
d="M506 513l-206.001 -589c-14.667 -43.333 -33.5 -74.833 -56.5 -94.5s-56.167 -29.5 -99.5 -29.5h-99v110h89c16.667 0 29.334 3.5 38.001 10.5s16 18.5 22 34.5l16 45l-188 513h127l117 -357h3l112 357h125zM203.999 750v-142h-108v142h108zM430.999 750v-142h-107v142
h107z" />
    <glyph glyph-name="Amacron" unicode="&#x100;" horiz-adv-x="701" 
d="M479 191h-257l-58 -191h-137l236 750h176l235 -750h-138zM446 301l-94 313h-3l-94 -313h191zM510 908v-60h-318v60h318z" />
    <glyph glyph-name="amacron" unicode="&#x101;" horiz-adv-x="584" 
d="M472 476c28 -24.667 41.998 -59.666 41.998 -104.999v-371h-123v63c-18 -25.333 -41.5 -44.666 -70.5 -57.999s-62.5 -20 -100.5 -20c-53.333 0 -96.666 14.833 -129.999 44.5s-50 68.5 -50 116.5c0 43.333 12.833 79.166 38.5 107.499s60.834 45.166 105.501 50.499
l207 26v26c0 31.333 -15 47 -45 47h-260v110h265c52.667 0 93 -12.333 121 -37zM335.998 107.001c26 16 44.333 36.667 55 62v65l-158 -22c-22 -3.33301 -38.833 -10.5 -50.5 -21.5s-17.5 -25.833 -17.5 -44.5c0 -20 7.5 -35.5 22.5 -46.5s35.833 -16.5 62.5 -16.5
c31.333 0 60 8 86 24zM474.998 707.001v-95h-367v95h367z" />
    <glyph glyph-name="Abreve" unicode="&#x102;" horiz-adv-x="701" 
d="M479 191h-257l-58 -191h-137l236 750h176l235 -750h-138zM446 301l-94 313h-3l-94 -313h191zM234.5 863.5c-11.667 12.333 -17.5 29.5 -17.5 51.5v25h54v-14c0 -8.66699 1.83301 -14.834 5.5 -18.501s9.83398 -5.5 18.501 -5.5h111c8.66699 0 15 1.83301 19 5.5
s6 9.83398 6 18.501v14h54v-25c0 -22 -6.33301 -39.167 -19 -51.5s-30.334 -18.5 -53.001 -18.5h-125c-24 0 -41.833 6.16699 -53.5 18.5z" />
    <glyph glyph-name="abreve" unicode="&#x103;" horiz-adv-x="584" 
d="M472 476c28 -24.667 41.998 -59.666 41.998 -104.999v-371h-123v63c-18 -25.333 -41.5 -44.666 -70.5 -57.999s-62.5 -20 -100.5 -20c-53.333 0 -96.666 14.833 -129.999 44.5s-50 68.5 -50 116.5c0 43.333 12.833 79.166 38.5 107.499s60.834 45.166 105.501 50.499
l207 26v26c0 31.333 -15 47 -45 47h-260v110h265c52.667 0 93 -12.333 121 -37zM335.998 107.001c26 16 44.333 36.667 55 62v65l-158 -22c-22 -3.33301 -38.833 -10.5 -50.5 -21.5s-17.5 -25.833 -17.5 -44.5c0 -20 7.5 -35.5 22.5 -46.5s35.833 -16.5 62.5 -16.5
c31.333 0 60 8 86 24zM158.998 628.001c-20 18 -30.001 43.333 -30.001 76v34h98v-23c0 -24.667 12.667 -37 38 -37h52c12.667 0 22.334 3.16699 29.001 9.5s10 15.5 10 27.5v23h98v-34c0 -32.667 -10.333 -58 -31 -76s-50.667 -27 -90 -27h-85c-39.333 0 -69 9 -89 27z" />
    <glyph glyph-name="Aogonek" unicode="&#x104;" horiz-adv-x="701" 
d="M551 -141c8.66699 0 18.001 0.831055 28.001 2.49805s18 3.83398 24 6.50098v-69c-7.33301 -4 -18.333 -7.33301 -33 -10s-29.334 -4 -44.001 -4c-30 0 -53.667 6.5 -71 19.5s-26 31.167 -26 54.5c0 46 37 88.333 111 127l-61 205h-257l-58 -191h-137l236 750h176
l235 -750c-48.667 -15.333 -88.5 -33.666 -119.5 -54.999s-46.5 -41 -46.5 -59s14.333 -27 43 -27zM446.001 300.998l-94 313h-3l-94 -313h191z" />
    <glyph glyph-name="aogonek" unicode="&#x105;" horiz-adv-x="584" 
d="M390 -99c0 -14.667 11.665 -21.998 34.998 -21.998c15.333 0 28 1.66699 38 5v-82c-8 -3.33301 -18.833 -6.33301 -32.5 -9s-27.167 -4 -40.5 -4c-31.333 0 -55.5 6.66699 -72.5 20s-25.5 32 -25.5 56c0 26 10.833 50.667 32.5 74s49.167 43.666 82.5 60.999h-16v63
c-18 -25.333 -41.5 -44.666 -70.5 -57.999s-62.5 -20 -100.5 -20c-53.333 0 -96.666 14.833 -129.999 44.5s-50 68.5 -50 116.5c0 43.333 12.833 79.166 38.5 107.499s60.834 45.166 105.501 50.499l207 26v26c0 31.333 -15 47 -45 47h-260v110h265
c52.667 0 93 -12.333 121 -37s42 -59.667 42 -105v-371c-82.667 -40 -124 -73 -124 -99zM335.998 107.002c26 16 44.333 36.667 55 62v65l-158 -22c-22 -3.33301 -38.833 -10.5 -50.5 -21.5s-17.5 -25.833 -17.5 -44.5c0 -20 7.5 -35.5 22.5 -46.5s35.833 -16.5 62.5 -16.5
c31.333 0 60 8 86 24z" />
    <glyph glyph-name="Cacute" unicode="&#x106;" horiz-adv-x="803" 
d="M644 63c-62.667 -52 -140.668 -77.999 -234.001 -77.999c-72 0 -136 16.667 -192 50s-99.667 79.5 -131 138.5s-47 126.167 -47 201.5s15.667 142.5 47 201.5s75 105 131 138s120 49.5 192 49.5c92 0 169.333 -25.333 232 -76s103.667 -120.667 123 -210h-136
c-18.667 53.333 -45.667 93.5 -81 120.5s-81.333 40.5 -138 40.5c-47.333 0 -88.666 -11 -123.999 -33s-62.5 -53 -81.5 -93s-28.5 -86.333 -28.5 -139s9.5 -98.834 28.5 -138.501s46.167 -70.5 81.5 -92.5s76.666 -33 123.999 -33c114.667 0 188.334 56.333 221.001 169
h134c-18 -92 -58.333 -164 -121 -216zM563.999 933.001v-62l-309 -42v62z" />
    <glyph glyph-name="cacute" unicode="&#x107;" horiz-adv-x="614" 
d="M483.5 36c-44.333 -34 -98.501 -50.999 -162.501 -50.999c-53.333 0 -100.5 11.667 -141.5 35s-72.833 55.666 -95.5 96.999s-34 88 -34 140s11.333 98.5 34 139.5s54.5 73 95.5 96s88.167 34.5 141.5 34.5c64 0 118 -17.167 162 -51.5s73 -83.166 87 -146.499h-124
c-24 57.333 -65.667 86 -125 86c-44.667 0 -79.834 -14.333 -105.501 -43s-38.5 -67 -38.5 -115c0 -48.667 12.833 -87.334 38.5 -116.001s60.834 -43 105.501 -43c30.667 0 56 6.83301 76 20.5s36 34.167 48 61.5h125c-13.333 -62 -42.166 -110 -86.499 -144z
M486.999 754.001l-126 -142h-107l105 142h128z" />
    <glyph glyph-name="Ccircumflex" unicode="&#x108;" horiz-adv-x="803" 
d="M644 63c-62.667 -52 -140.668 -77.999 -234.001 -77.999c-72 0 -136 16.667 -192 50s-99.667 79.5 -131 138.5s-47 126.167 -47 201.5s15.667 142.5 47 201.5s75 105 131 138s120 49.5 192 49.5c92 0 169.333 -25.333 232 -76s103.667 -120.667 123 -210h-136
c-18.667 53.333 -45.667 93.5 -81 120.5s-81.333 40.5 -138 40.5c-47.333 0 -88.666 -11 -123.999 -33s-62.5 -53 -81.5 -93s-28.5 -86.333 -28.5 -139s9.5 -98.834 28.5 -138.501s46.167 -70.5 81.5 -92.5s76.666 -33 123.999 -33c114.667 0 188.334 56.333 221.001 169
h134c-18 -92 -58.333 -164 -121 -216zM543.999 837.001l-132 39l-136 -39v60l134 41h3l131 -41v-60z" />
    <glyph glyph-name="ccircumflex" unicode="&#x109;" horiz-adv-x="614" 
d="M483.5 36c-44.333 -34 -98.501 -50.999 -162.501 -50.999c-53.333 0 -100.5 11.667 -141.5 35s-72.833 55.666 -95.5 96.999s-34 88 -34 140s11.333 98.5 34 139.5s54.5 73 95.5 96s88.167 34.5 141.5 34.5c64 0 118 -17.167 162 -51.5s73 -83.166 87 -146.499h-124
c-24 57.333 -65.667 86 -125 86c-44.667 0 -79.834 -14.333 -105.501 -43s-38.5 -67 -38.5 -115c0 -48.667 12.833 -87.334 38.5 -116.001s60.834 -43 105.501 -43c30.667 0 56 6.83301 76 20.5s36 34.167 48 61.5h125c-13.333 -62 -42.166 -110 -86.499 -144z
M368.999 612.001l-51 60l-52 -60h-107l115 142h93l115 -142h-113z" />
    <glyph glyph-name="Cdotaccent" unicode="&#x10a;" horiz-adv-x="803" 
d="M644 63c-62.667 -52 -140.668 -77.999 -234.001 -77.999c-72 0 -136 16.667 -192 50s-99.667 79.5 -131 138.5s-47 126.167 -47 201.5s15.667 142.5 47 201.5s75 105 131 138s120 49.5 192 49.5c92 0 169.333 -25.333 232 -76s103.667 -120.667 123 -210h-136
c-18.667 53.333 -45.667 93.5 -81 120.5s-81.333 40.5 -138 40.5c-47.333 0 -88.666 -11 -123.999 -33s-62.5 -53 -81.5 -93s-28.5 -86.333 -28.5 -139s9.5 -98.834 28.5 -138.501s46.167 -70.5 81.5 -92.5s76.666 -33 123.999 -33c114.667 0 188.334 56.333 221.001 169
h134c-18 -92 -58.333 -164 -121 -216zM489.999 908.001v-60h-160v60h160z" />
    <glyph glyph-name="cdotaccent" unicode="&#x10b;" horiz-adv-x="614" 
d="M483.5 36c-44.333 -34 -98.501 -50.999 -162.501 -50.999c-53.333 0 -100.5 11.667 -141.5 35s-72.833 55.666 -95.5 96.999s-34 88 -34 140s11.333 98.5 34 139.5s54.5 73 95.5 96s88.167 34.5 141.5 34.5c64 0 118 -17.167 162 -51.5s73 -83.166 87 -146.499h-124
c-24 57.333 -65.667 86 -125 86c-44.667 0 -79.834 -14.333 -105.501 -43s-38.5 -67 -38.5 -115c0 -48.667 12.833 -87.334 38.5 -116.001s60.834 -43 105.501 -43c30.667 0 56 6.83301 76 20.5s36 34.167 48 61.5h125c-13.333 -62 -42.166 -110 -86.499 -144z
M374.999 750.001v-142h-108v142h108z" />
    <glyph glyph-name="Ccaron" unicode="&#x10c;" horiz-adv-x="803" 
d="M644 63c-62.667 -52 -140.668 -77.999 -234.001 -77.999c-72 0 -136 16.667 -192 50s-99.667 79.5 -131 138.5s-47 126.167 -47 201.5s15.667 142.5 47 201.5s75 105 131 138s120 49.5 192 49.5c92 0 169.333 -25.333 232 -76s103.667 -120.667 123 -210h-136
c-18.667 53.333 -45.667 93.5 -81 120.5s-81.333 40.5 -138 40.5c-47.333 0 -88.666 -11 -123.999 -33s-62.5 -53 -81.5 -93s-28.5 -86.333 -28.5 -139s9.5 -98.834 28.5 -138.501s46.167 -70.5 81.5 -92.5s76.666 -33 123.999 -33c114.667 0 188.334 56.333 221.001 169
h134c-18 -92 -58.333 -164 -121 -216zM543.999 937.001v-61l-131 -41h-3l-134 41v61l136 -39z" />
    <glyph glyph-name="ccaron" unicode="&#x10d;" horiz-adv-x="614" 
d="M483.5 36c-44.333 -34 -98.501 -50.999 -162.501 -50.999c-53.333 0 -100.5 11.667 -141.5 35s-72.833 55.666 -95.5 96.999s-34 88 -34 140s11.333 98.5 34 139.5s54.5 73 95.5 96s88.167 34.5 141.5 34.5c64 0 118 -17.167 162 -51.5s73 -83.166 87 -146.499h-124
c-24 57.333 -65.667 86 -125 86c-44.667 0 -79.834 -14.333 -105.501 -43s-38.5 -67 -38.5 -115c0 -48.667 12.833 -87.334 38.5 -116.001s60.834 -43 105.501 -43c30.667 0 56 6.83301 76 20.5s36 34.167 48 61.5h125c-13.333 -62 -42.166 -110 -86.499 -144z
M481.999 754.001l-115 -142h-93l-115 142h107l52 -60l51 60h113z" />
    <glyph glyph-name="Dcaron" unicode="&#x10e;" horiz-adv-x="725" 
d="M509 703c57.333 -31.333 101 -75.167 131 -131.5s45 -121.5 45 -195.5s-15.167 -139.5 -45.5 -196.5s-73.833 -101.167 -130.5 -132.5s-124 -47 -202 -47h-240v750h239c78 0 145.667 -15.667 203 -47zM490 191.499c40.667 47 60.999 108.501 60.999 184.501
c0 75.333 -20.5 136.666 -61.5 183.999s-102.833 71 -185.5 71h-107v-510h108c82.667 0 144.334 23.5 185.001 70.5zM428.999 937v-61l-131 -41h-3l-134 41v61l136 -39z" />
    <glyph glyph-name="dcaron" unicode="&#x10f;" horiz-adv-x="781" 
d="M451 750h122v-750h-122v57c-38 -48 -91.333 -72 -160 -72c-46 0 -87.333 11.5 -124 34.5s-65.334 55.167 -86.001 96.5s-31 88.333 -31 141c0 52 10.333 98.5 31 139.5s49.334 73 86.001 96s78 34.5 124 34.5c34 0 64.5 -6 91.5 -18s49.833 -29.667 68.5 -53v294z
M781 750l-78 -187h-94l41 187h131zM395 123.5c23.333 16.333 41.999 38.833 55.999 67.5v131c-13.333 28.667 -31.666 51 -54.999 67s-51.333 24 -84 24c-40.667 0 -73.334 -14 -98.001 -42s-37 -66 -37 -114c0 -48.667 12.333 -87.167 37 -115.5s57.334 -42.5 98.001 -42.5
c32 0 59.667 8.16699 83 24.5z" />
    <glyph glyph-name="Dcroat" unicode="&#x110;" horiz-adv-x="725" 
d="M509 703c57.333 -31.333 101 -75.167 131 -131.5s45 -121.5 45 -195.5s-15.167 -139.5 -45.5 -196.5s-73.833 -101.167 -130.5 -132.5s-124 -47 -202 -47h-240v354h-63v59h63v337h239c78 0 145.667 -15.667 203 -47zM490 191.499
c40.667 47 60.999 108.501 60.999 184.501c0 75.333 -20.5 136.666 -61.5 183.999s-102.833 71 -185.5 71h-107v-218h151v-59h-151v-233h108c82.667 0 144.334 23.5 185.001 70.5z" />
    <glyph glyph-name="dcroat" unicode="&#x111;" horiz-adv-x="647" 
d="M630 589h-57v-589h-122v57c-38 -48 -91.333 -72 -160 -72c-46 0 -87.333 11.5 -124 34.5s-65.334 55.167 -86.001 96.5s-31 88.333 -31 141c0 52 10.333 98.5 31 139.5s49.334 73 86.001 96s78 34.5 124 34.5c34 0 64.5 -6 91.5 -18s49.833 -29.667 68.5 -53v133h-154v76
h154v85h122v-85h57v-76zM395 123.5c23.333 16.333 41.999 38.833 55.999 67.5v131c-13.333 28.667 -31.666 51 -54.999 67s-51.333 24 -84 24c-40.667 0 -73.334 -14 -98.001 -42s-37 -66 -37 -114c0 -48.667 12.333 -87.167 37 -115.5s57.334 -42.5 98.001 -42.5
c32 0 59.667 8.16699 83 24.5z" />
    <glyph glyph-name="Emacron" unicode="&#x112;" horiz-adv-x="588" 
d="M551 110v-110h-484v750h471v-110h-338v-186h294v-110h-294v-234h351zM453 908v-60h-318v60h318z" />
    <glyph glyph-name="emacron" unicode="&#x113;" horiz-adv-x="626" 
d="M578 225l-401 -0.00195312c5.33301 -42.667 20.166 -75.167 44.499 -97.5s57.833 -33.5 100.5 -33.5c28 0 52.333 5 73 15s37 22.333 49 37h131c-9.33301 -29.333 -26.666 -56.333 -51.999 -81s-55.833 -44.167 -91.5 -58.5s-72.834 -21.5 -111.501 -21.5
c-52.667 0 -99.5 11.5 -140.5 34.5s-72.833 55.333 -95.5 97s-34 89.5 -34 143.5c0 50.667 11.5 96.334 34.5 137.001s54.833 72.5 95.5 95.5s86.334 34.5 137.001 34.5c52 0 97.833 -10.833 137.5 -32.5s70.5 -52.667 92.5 -93s33 -87.833 33 -142.5
c0 -15.333 -0.666992 -26.666 -2 -33.999zM229 393.498c-22.667 -16.333 -38.333 -40.167 -47 -71.5h264c-14.667 64 -58 96 -130 96c-35.333 0 -64.333 -8.16699 -87 -24.5zM500.001 706.997v-95h-367v95h367z" />
    <glyph glyph-name="Ebreve" unicode="&#x114;" horiz-adv-x="588" 
d="M551 110v-110h-484v750h471v-110h-338v-186h294v-110h-294v-234h351zM177.5 863.5c-11.667 12.333 -17.5 29.5 -17.5 51.5v25h54v-14c0 -8.66699 1.83301 -14.834 5.5 -18.501s9.83398 -5.5 18.501 -5.5h111c8.66699 0 15 1.83301 19 5.5s6 9.83398 6 18.501v14h54v-25
c0 -22 -6.33301 -39.167 -19 -51.5s-30.334 -18.5 -53.001 -18.5h-125c-24 0 -41.833 6.16699 -53.5 18.5z" />
    <glyph glyph-name="ebreve" unicode="&#x115;" horiz-adv-x="626" 
d="M578 225l-401 -0.00195312c5.33301 -42.667 20.166 -75.167 44.499 -97.5s57.833 -33.5 100.5 -33.5c28 0 52.333 5 73 15s37 22.333 49 37h131c-9.33301 -29.333 -26.666 -56.333 -51.999 -81s-55.833 -44.167 -91.5 -58.5s-72.834 -21.5 -111.501 -21.5
c-52.667 0 -99.5 11.5 -140.5 34.5s-72.833 55.333 -95.5 97s-34 89.5 -34 143.5c0 50.667 11.5 96.334 34.5 137.001s54.833 72.5 95.5 95.5s86.334 34.5 137.001 34.5c52 0 97.833 -10.833 137.5 -32.5s70.5 -52.667 92.5 -93s33 -87.833 33 -142.5
c0 -15.333 -0.666992 -26.666 -2 -33.999zM229 393.498c-22.667 -16.333 -38.333 -40.167 -47 -71.5h264c-14.667 64 -58 96 -130 96c-35.333 0 -64.333 -8.16699 -87 -24.5zM184.001 627.997c-20 18 -30.001 43.333 -30.001 76v34h98v-23c0 -24.667 12.667 -37 38 -37h52
c12.667 0 22.334 3.16699 29.001 9.5s10 15.5 10 27.5v23h98v-34c0 -32.667 -10.333 -58 -31 -76s-50.667 -27 -90 -27h-85c-39.333 0 -69 9 -89 27z" />
    <glyph glyph-name="Edotaccent" unicode="&#x116;" horiz-adv-x="588" 
d="M551 110v-110h-484v750h471v-110h-338v-186h294v-110h-294v-234h351zM374 908v-60h-160v60h160z" />
    <glyph glyph-name="edotaccent" unicode="&#x117;" horiz-adv-x="626" 
d="M578 225l-401 -0.00195312c5.33301 -42.667 20.166 -75.167 44.499 -97.5s57.833 -33.5 100.5 -33.5c28 0 52.333 5 73 15s37 22.333 49 37h131c-9.33301 -29.333 -26.666 -56.333 -51.999 -81s-55.833 -44.167 -91.5 -58.5s-72.834 -21.5 -111.501 -21.5
c-52.667 0 -99.5 11.5 -140.5 34.5s-72.833 55.333 -95.5 97s-34 89.5 -34 143.5c0 50.667 11.5 96.334 34.5 137.001s54.833 72.5 95.5 95.5s86.334 34.5 137.001 34.5c52 0 97.833 -10.833 137.5 -32.5s70.5 -52.667 92.5 -93s33 -87.833 33 -142.5
c0 -15.333 -0.666992 -26.666 -2 -33.999zM229 393.498c-22.667 -16.333 -38.333 -40.167 -47 -71.5h264c-14.667 64 -58 96 -130 96c-35.333 0 -64.333 -8.16699 -87 -24.5zM371.001 749.997v-142h-108v142h108z" />
    <glyph glyph-name="Eogonek" unicode="&#x118;" horiz-adv-x="588" 
d="M427 -99c0 -14.667 11.667 -21.999 35 -21.999c15.333 0 28 1.66699 38 5v-82c-8 -3.33301 -18.833 -6.33301 -32.5 -9s-27.167 -4 -40.5 -4c-31.333 0 -55.5 6.66699 -72.5 20s-25.5 32 -25.5 56c0 26 10.833 50.667 32.5 74s49.167 43.666 82.5 60.999h-377v750h471
v-110h-338v-186h294v-110h-294v-234h351v-110c-82.667 -40 -124 -73 -124 -99z" />
    <glyph glyph-name="eogonek" unicode="&#x119;" horiz-adv-x="626" 
d="M578 225h-401.003c5.33301 -42.667 20.166 -75.167 44.499 -97.5s57.833 -33.5 100.5 -33.5c28 0 52.333 5 73 15s37 22.333 49 37h131c-10.667 -32.667 -30.667 -62 -60 -88s-63.666 -45.333 -102.999 -58c-37.333 -18 -67.166 -35.667 -89.499 -53
s-33.5 -32.666 -33.5 -45.999c0 -14.667 11.667 -22 35 -22c15.333 0 28 1.66699 38 5v-82c-8 -3.33301 -18.833 -6.33301 -32.5 -9s-27.167 -4 -40.5 -4c-31.333 0 -55.5 6.66699 -72.5 20s-25.5 32 -25.5 56c0 22.667 8.5 44.5 25.5 65.5s39.167 39.833 66.5 56.5
c-46 5.33301 -86.667 20.166 -122 44.499s-62.666 56.166 -81.999 95.499s-29 83.666 -29 132.999c0 50.667 11.5 96.334 34.5 137.001s54.833 72.5 95.5 95.5s86.334 34.5 137.001 34.5c52 0 97.833 -10.833 137.5 -32.5s70.5 -52.667 92.5 -93s33 -87.833 33 -142.5
c0 -15.333 -0.666992 -26.666 -2 -33.999zM228.997 393.5c-22.667 -16.333 -38.333 -40.167 -47 -71.5h264c-14.667 64 -58 96 -130 96c-35.333 0 -64.333 -8.16699 -87 -24.5z" />
    <glyph glyph-name="Ecaron" unicode="&#x11a;" horiz-adv-x="588" 
d="M551 110v-110h-484v750h471v-110h-338v-186h294v-110h-294v-234h351zM445 937v-61l-131 -41h-3l-134 41v61l136 -39z" />
    <glyph glyph-name="ecaron" unicode="&#x11b;" horiz-adv-x="626" 
d="M578 225l-401 -0.00195312c5.33301 -42.667 20.166 -75.167 44.499 -97.5s57.833 -33.5 100.5 -33.5c28 0 52.333 5 73 15s37 22.333 49 37h131c-9.33301 -29.333 -26.666 -56.333 -51.999 -81s-55.833 -44.167 -91.5 -58.5s-72.834 -21.5 -111.501 -21.5
c-52.667 0 -99.5 11.5 -140.5 34.5s-72.833 55.333 -95.5 97s-34 89.5 -34 143.5c0 50.667 11.5 96.334 34.5 137.001s54.833 72.5 95.5 95.5s86.334 34.5 137.001 34.5c52 0 97.833 -10.833 137.5 -32.5s70.5 -52.667 92.5 -93s33 -87.833 33 -142.5
c0 -15.333 -0.666992 -26.666 -2 -33.999zM229 393.498c-22.667 -16.333 -38.333 -40.167 -47 -71.5h264c-14.667 64 -58 96 -130 96c-35.333 0 -64.333 -8.16699 -87 -24.5zM478.001 753.997l-115 -142h-93l-115 142h107l52 -60l51 60h113z" />
    <glyph glyph-name="Gcircumflex" unicode="&#x11c;" horiz-adv-x="805" 
d="M771 0l-109.998 0.00195312v112c-27.333 -40.667 -62.5 -72 -105.5 -94s-92.167 -33 -147.5 -33c-70.667 0 -134 17 -190 51s-99.667 80.667 -131 140s-47 125.666 -47 198.999c0 74.667 15.667 141.5 47 200.5s75.166 105.167 131.499 138.5s120.833 50 193.5 50
c87.333 0 162.5 -21.833 225.5 -65.5s105.5 -103.834 127.5 -180.501h-141c-16 38.667 -41.833 69.167 -77.5 91.5s-79.834 33.5 -132.501 33.5c-48 0 -90 -11.167 -126 -33.5s-63.833 -53.833 -83.5 -94.5s-29.5 -87.667 -29.5 -141s9.83301 -100.333 29.5 -141
s47.5 -72.167 83.5 -94.5s78.333 -33.5 127 -33.5c60 0 110 16.333 150 49s66 77 78 133h-190v110h318v-397zM537.002 837.002l-132 39l-136 -39v60l134 41h3l131 -41v-60z" />
    <glyph glyph-name="gcircumflex" unicode="&#x11d;" horiz-adv-x="643" 
d="M573 513v-528c0 -58 -16.5 -103.333 -49.5 -136s-82.167 -49 -147.5 -49h-219v108h215c25.333 0 44.833 7.16699 58.5 21.5s20.5 35.833 20.5 64.5v77c-38.667 -46.667 -92 -70 -160 -70c-46 0 -87.333 11.167 -124 33.5s-65.334 53.666 -86.001 93.999
s-31 85.833 -31 136.5s10.333 95.834 31 135.501s49.334 70.667 86.001 93s78 33.5 124 33.5c68.667 0 122 -23 160 -69v55h122zM395 136c23.333 16 41.999 37.666 55.999 64.999v127c-13.333 27.333 -31.666 48.833 -54.999 64.5s-51.333 23.5 -84 23.5
c-40.667 0 -73.334 -13.5 -98.001 -40.5s-37 -63.833 -37 -110.5c0 -47.333 12.333 -84.666 37 -111.999s57.334 -41 98.001 -41c32 0 59.667 8 83 24zM386.999 611.999l-51 60l-52 -60h-107l115 142h93l115 -142h-113z" />
    <glyph glyph-name="Gbreve" unicode="&#x11e;" horiz-adv-x="805" 
d="M771 0l-109.998 0.00195312v112c-27.333 -40.667 -62.5 -72 -105.5 -94s-92.167 -33 -147.5 -33c-70.667 0 -134 17 -190 51s-99.667 80.667 -131 140s-47 125.666 -47 198.999c0 74.667 15.667 141.5 47 200.5s75.166 105.167 131.499 138.5s120.833 50 193.5 50
c87.333 0 162.5 -21.833 225.5 -65.5s105.5 -103.834 127.5 -180.501h-141c-16 38.667 -41.833 69.167 -77.5 91.5s-79.834 33.5 -132.501 33.5c-48 0 -90 -11.167 -126 -33.5s-63.833 -53.833 -83.5 -94.5s-29.5 -87.667 -29.5 -141s9.83301 -100.333 29.5 -141
s47.5 -72.167 83.5 -94.5s78.333 -33.5 127 -33.5c60 0 110 16.333 150 49s66 77 78 133h-190v110h318v-397zM286.502 863.502c-11.667 12.333 -17.5 29.5 -17.5 51.5v25h54v-14c0 -8.66699 1.83301 -14.834 5.5 -18.501s9.83398 -5.5 18.501 -5.5h111
c8.66699 0 15 1.83301 19 5.5s6 9.83398 6 18.501v14h54v-25c0 -22 -6.33301 -39.167 -19 -51.5s-30.334 -18.5 -53.001 -18.5h-125c-24 0 -41.833 6.16699 -53.5 18.5z" />
    <glyph glyph-name="gbreve" unicode="&#x11f;" horiz-adv-x="643" 
d="M573 513v-528c0 -58 -16.5 -103.333 -49.5 -136s-82.167 -49 -147.5 -49h-219v108h215c25.333 0 44.833 7.16699 58.5 21.5s20.5 35.833 20.5 64.5v77c-38.667 -46.667 -92 -70 -160 -70c-46 0 -87.333 11.167 -124 33.5s-65.334 53.666 -86.001 93.999
s-31 85.833 -31 136.5s10.333 95.834 31 135.501s49.334 70.667 86.001 93s78 33.5 124 33.5c68.667 0 122 -23 160 -69v55h122zM395 136c23.333 16 41.999 37.666 55.999 64.999v127c-13.333 27.333 -31.666 48.833 -54.999 64.5s-51.333 23.5 -84 23.5
c-40.667 0 -73.334 -13.5 -98.001 -40.5s-37 -63.833 -37 -110.5c0 -47.333 12.333 -84.666 37 -111.999s57.334 -41 98.001 -41c32 0 59.667 8 83 24zM205.999 627.999c-20 18 -30.001 43.333 -30.001 76v34h98v-23c0 -24.667 12.667 -37 38 -37h52
c12.667 0 22.334 3.16699 29.001 9.5s10 15.5 10 27.5v23h98v-34c0 -32.667 -10.333 -58 -31 -76s-50.667 -27 -90 -27h-85c-39.333 0 -69 9 -89 27z" />
    <glyph glyph-name="Gdotaccent" unicode="&#x120;" horiz-adv-x="805" 
d="M771 0l-109.998 0.00195312v112c-27.333 -40.667 -62.5 -72 -105.5 -94s-92.167 -33 -147.5 -33c-70.667 0 -134 17 -190 51s-99.667 80.667 -131 140s-47 125.666 -47 198.999c0 74.667 15.667 141.5 47 200.5s75.166 105.167 131.499 138.5s120.833 50 193.5 50
c87.333 0 162.5 -21.833 225.5 -65.5s105.5 -103.834 127.5 -180.501h-141c-16 38.667 -41.833 69.167 -77.5 91.5s-79.834 33.5 -132.501 33.5c-48 0 -90 -11.167 -126 -33.5s-63.833 -53.833 -83.5 -94.5s-29.5 -87.667 -29.5 -141s9.83301 -100.333 29.5 -141
s47.5 -72.167 83.5 -94.5s78.333 -33.5 127 -33.5c60 0 110 16.333 150 49s66 77 78 133h-190v110h318v-397zM483.002 908.002v-60h-160v60h160z" />
    <glyph glyph-name="gdotaccent" unicode="&#x121;" horiz-adv-x="643" 
d="M573 513v-528c0 -58 -16.5 -103.333 -49.5 -136s-82.167 -49 -147.5 -49h-219v108h215c25.333 0 44.833 7.16699 58.5 21.5s20.5 35.833 20.5 64.5v77c-38.667 -46.667 -92 -70 -160 -70c-46 0 -87.333 11.167 -124 33.5s-65.334 53.666 -86.001 93.999
s-31 85.833 -31 136.5s10.333 95.834 31 135.501s49.334 70.667 86.001 93s78 33.5 124 33.5c68.667 0 122 -23 160 -69v55h122zM395 136c23.333 16 41.999 37.666 55.999 64.999v127c-13.333 27.333 -31.666 48.833 -54.999 64.5s-51.333 23.5 -84 23.5
c-40.667 0 -73.334 -13.5 -98.001 -40.5s-37 -63.833 -37 -110.5c0 -47.333 12.333 -84.666 37 -111.999s57.334 -41 98.001 -41c32 0 59.667 8 83 24zM392.999 749.999v-142h-108v142h108z" />
    <glyph glyph-name="uni0122" unicode="&#x122;" horiz-adv-x="805" 
d="M771 0l-109.998 0.00195312v112c-27.333 -40.667 -62.5 -72 -105.5 -94s-92.167 -33 -147.5 -33c-70.667 0 -134 17 -190 51s-99.667 80.667 -131 140s-47 125.666 -47 198.999c0 74.667 15.667 141.5 47 200.5s75.166 105.167 131.499 138.5s120.833 50 193.5 50
c87.333 0 162.5 -21.833 225.5 -65.5s105.5 -103.834 127.5 -180.501h-141c-16 38.667 -41.833 69.167 -77.5 91.5s-79.834 33.5 -132.501 33.5c-48 0 -90 -11.167 -126 -33.5s-63.833 -53.833 -83.5 -94.5s-29.5 -87.667 -29.5 -141s9.83301 -100.333 29.5 -141
s47.5 -72.167 83.5 -94.5s78.333 -33.5 127 -33.5c60 0 110 16.333 150 49s66 77 78 133h-190v110h318v-397zM478.002 -67.998l-70 -130h-80l39 130h111z" />
    <glyph glyph-name="uni0123" unicode="&#x123;" horiz-adv-x="643" 
d="M573 513v-528c0 -58 -16.5 -103.333 -49.5 -136s-82.167 -49 -147.5 -49h-219v108h215c25.333 0 44.833 7.16699 58.5 21.5s20.5 35.833 20.5 64.5v77c-38.667 -46.667 -92 -70 -160 -70c-46 0 -87.333 11.167 -124 33.5s-65.334 53.666 -86.001 93.999
s-31 85.833 -31 136.5s10.333 95.834 31 135.501s49.334 70.667 86.001 93s78 33.5 124 33.5c68.667 0 122 -23 160 -69v55h122zM395 136c23.333 16 41.999 37.666 55.999 64.999v127c-13.333 27.333 -31.666 48.833 -54.999 64.5s-51.333 23.5 -84 23.5
c-40.667 0 -73.334 -13.5 -98.001 -40.5s-37 -63.833 -37 -110.5c0 -47.333 12.333 -84.666 37 -111.999s57.334 -41 98.001 -41c32 0 59.667 8 83 24zM434.999 749.999l-41 -138h-129l74 138h96z" />
    <glyph glyph-name="Hcircumflex" unicode="&#x124;" horiz-adv-x="699" 
d="M632 750v-750h-133v344h-299v-344h-133v750h133v-296h299v296h133zM484 837l-132 39l-136 -39v60l134 41h3l131 -41v-60z" />
    <glyph glyph-name="hcircumflex" unicode="&#x125;" horiz-adv-x="638" 
d="M517.5 472.5c34.333 -36.333 51.501 -84.499 51.501 -144.499v-328h-125v297c0 35.333 -8.66699 63.5 -26 84.5s-43.666 31.5 -78.999 31.5c-28 0 -55.333 -8.33301 -82 -25s-46 -37.667 -58 -63v-325h-125v750h125v-301c21.333 25.333 47.166 44.666 77.499 57.999
s63.833 20 100.5 20c59.333 0 106.166 -18.167 140.499 -54.5zM271.001 797.001l-132 39l-136 -39v60l134 41h3l131 -41v-60z" />
    <glyph glyph-name="Hbar" unicode="&#x126;" horiz-adv-x="699" 
d="M688 562h-56v-562h-133v344h-299v-344h-133v562h-56v68h56v120h133v-120h299v120h133v-120h56v-68zM499 562h-299v-108h299v108z" />
    <glyph glyph-name="hbar" unicode="&#x127;" horiz-adv-x="638" 
d="M517.5 472.5c34.333 -36.333 51.501 -84.499 51.501 -144.499v-328h-125v297c0 35.333 -8.66699 63.5 -26 84.5s-43.666 31.5 -78.999 31.5c-28 0 -55.333 -8.33301 -82 -25s-46 -37.667 -58 -63v-325h-125v589h-70v76h70v85h125v-85h138v-76h-138v-140
c21.333 25.333 47.166 44.666 77.499 57.999s63.833 20 100.5 20c59.333 0 106.166 -18.167 140.499 -54.5z" />
    <glyph glyph-name="Itilde" unicode="&#x128;" horiz-adv-x="265" 
d="M198 750v-750h-131v750h131zM292 908v-60h-318v60h318z" />
    <glyph glyph-name="itilde" unicode="&#x129;" horiz-adv-x="329" 
d="M25 403v110h230v-513h-125v403h-105zM337 707v-95h-367v95h367z" />
    <glyph glyph-name="Imacron" unicode="&#x12a;" horiz-adv-x="265" 
d="M278 870v-57h-291v57h291zM198 750v-750h-131v750h131z" />
    <glyph glyph-name="imacron" unicode="&#x12b;" horiz-adv-x="329" 
d="M267 711v-87h-268v87h268zM25 403v110h230v-513h-125v403h-105z" />
    <glyph glyph-name="Ibreve" unicode="&#x12c;" horiz-adv-x="265" 
d="M198 750v-750h-131v750h131zM16.5 863.5c-11.667 12.333 -17.5 29.5 -17.5 51.5v25h54v-14c0 -8.66699 1.83301 -14.834 5.5 -18.501s9.83398 -5.5 18.501 -5.5h111c8.66699 0 15 1.83301 19 5.5s6 9.83398 6 18.501v14h54v-25c0 -22 -6.33301 -39.167 -19 -51.5
s-30.334 -18.5 -53.001 -18.5h-125c-24 0 -41.833 6.16699 -53.5 18.5z" />
    <glyph glyph-name="ibreve" unicode="&#x12d;" horiz-adv-x="329" 
d="M25 403v110h230v-513h-125v403h-105zM-1 628c-20 18 -30.001 43.333 -30.001 76v34h98v-23c0 -24.667 12.667 -37 38 -37h52c12.667 0 22.334 3.16699 29.001 9.5s10 15.5 10 27.5v23h98v-34c0 -32.667 -10.333 -58 -31 -76s-50.667 -27 -90 -27h-85
c-39.333 0 -69 9 -89 27z" />
    <glyph glyph-name="Iogonek" unicode="&#x12e;" horiz-adv-x="265" 
d="M73 -111c0 -16.667 13 -25.001 39 -25.001c14 0 26 1.66699 36 5v-71c-17.333 -8.66699 -40.333 -13 -69 -13c-28 0 -50 6.33301 -66 19s-24 30.334 -24 53.001c0 39.333 26 78 78 116v777h131v-750c-83.333 -44 -125 -81 -125 -111z" />
    <glyph glyph-name="iogonek" unicode="&#x12f;" horiz-adv-x="329" 
d="M255 750v-142h-125v142h125zM25 513l230 -0.000976562v-513c-82.667 -40 -124 -73 -124 -99c0 -14.667 11.667 -22 35 -22c15.333 0 28 1.66699 38 5v-82c-8 -3.33301 -18.833 -6.33301 -32.5 -9s-27.167 -4 -40.5 -4c-31.333 0 -55.5 6.66699 -72.5 20
s-25.5 32 -25.5 56c0 23.333 9 45.833 27 67.5s41.333 40.834 70 57.501v413h-105v110z" />
    <glyph glyph-name="Idotaccent" unicode="&#x130;" horiz-adv-x="265" 
d="M229 870v-57h-193v57h193zM198 750v-750h-131v750h131z" />
    <glyph glyph-name="dotlessi" unicode="&#x131;" horiz-adv-x="329" 
d="M25 403v110h230v-513h-125v403h-105z" />
    <glyph glyph-name="IJ" unicode="&#x132;" horiz-adv-x="700" 
d="M198 750v-750h-131v750h131zM484 110c15.333 0 26.333 3.33301 33 10s10 17 10 31v489h-152v110h285v-588c0 -52 -14 -92 -42 -120s-68.667 -42 -122 -42h-196v110h184z" />
    <glyph glyph-name="ij" unicode="&#x133;" horiz-adv-x="663" 
d="M130 750h125v-142h-125v142zM25 403v110h230v-513h-125v403h-105zM464 750h125v-142h-125v142zM422 -90c28 0 41.999 15 41.999 45v448h-107v110h232v-572c0 -44 -13.167 -78.5 -39.5 -103.5s-65.166 -37.5 -116.499 -37.5h-159v110h148z" />
    <glyph glyph-name="Jcircumflex" unicode="&#x134;" horiz-adv-x="435" 
d="M219 110c15.333 0 26.333 3.33301 33 10s10 17 10 31v489h-152v110h285v-588c0 -52 -14 -92 -42 -120s-68.667 -42 -122 -42h-196v110h184zM386 837l-132 39l-136 -39v60l134 41h3l131 -41v-60z" />
    <glyph glyph-name="jcircumflex" unicode="&#x135;" horiz-adv-x="334" 
d="M93 -90c28 0 41.999 15 41.999 45v448h-107v110h232v-572c0 -44 -13.167 -78.5 -39.5 -103.5s-65.166 -37.5 -116.499 -37.5h-159v110h148zM186.999 612l-51 60l-52 -60h-107l115 142h93l115 -142h-113z" />
    <glyph glyph-name="uni0136" unicode="&#x136;" horiz-adv-x="700" 
d="M289 344h-89v-344h-133v750h133v-296h88l234 296h157l-274 -347l290 -403h-159zM421 -68l-70 -130h-80l39 130h111z" />
    <glyph glyph-name="uni0137" unicode="&#x137;" horiz-adv-x="568" 
d="M256 218h-57v-218h-125v750h125v-431h56l142 194h144l-181 -239l191 -274h-147zM360 -68l-70 -130h-80l39 130h111z" />
    <glyph glyph-name="Lacute" unicode="&#x139;" horiz-adv-x="571" 
d="M370 836l-276 -42v59l276 42v-59zM535 110v-110h-468v750h133v-640h335z" />
    <glyph glyph-name="lacute" unicode="&#x13a;" horiz-adv-x="319" 
d="M252 909v-80l-187 -35v70zM109.5 37c-25 24.667 -37.5 59 -37.5 103v500h-86v110h211v-598c0 -28 13 -42 39 -42h54v-110h-68c-50 -0 -87.5 12.333 -112.5 37z" />
    <glyph glyph-name="uni013B" unicode="&#x13b;" horiz-adv-x="571" 
d="M535 110v-110h-468v750h133v-640h335zM369 -68l-70 -130h-80l39 130h111z" />
    <glyph glyph-name="uni013C" unicode="&#x13c;" horiz-adv-x="319" 
d="M109.5 37c-25 24.667 -37.5 59 -37.5 103v500h-86v110h211v-598c0 -28 13 -42 39 -42h54v-110h-68c-50 -0 -87.5 12.333 -112.5 37zM262 -68l-70 -130h-80l39 130h111z" />
    <glyph glyph-name="Lcaron" unicode="&#x13d;" horiz-adv-x="571" 
d="M535 110v-110h-468v750h133v-640h335zM392 557h-92l48 193h127z" />
    <glyph glyph-name="lcaron" unicode="&#x13e;" horiz-adv-x="408" 
d="M109.5 37c-25 24.667 -37.5 59 -37.5 103v500h-86v110h211v-598c0 -28 13 -42 39 -42h54v-110h-68c-50 -0 -87.5 12.333 -112.5 37zM277 750h131l-78 -187h-94z" />
    <glyph glyph-name="Ldot" unicode="&#x13f;" horiz-adv-x="571" 
d="M535 110v-110h-468v750h133v-640h335zM455 322h-106v145h106v-145z" />
    <glyph glyph-name="ldot" unicode="&#x140;" horiz-adv-x="372" 
d="M109.5 37c-25 24.667 -37.5 59 -37.5 103v500h-86v110h211v-598c0 -28 13 -42 39 -42h54v-110h-68c-50 -0 -87.5 12.333 -112.5 37zM263 402h109v-148h-109v148z" />
    <glyph glyph-name="Lslash" unicode="&#x141;" horiz-adv-x="571" 
d="M535 110v-110h-468v303l-62 -19v105l62 19v342h133v-300l126 39v-106l-126 -39v-234h335z" />
    <glyph glyph-name="lslash" unicode="&#x142;" horiz-adv-x="319" 
d="M290 110v-110h-68c-50 -0 -87.5 12.333 -112.5 37s-37.5 59 -37.5 103v158l-52 -22v110l52 22v232h-86v110h211v-289l57 24v-110l-57 -24v-199c0 -28 13 -42 39 -42h54z" />
    <glyph glyph-name="Nacute" unicode="&#x143;" horiz-adv-x="728" 
d="M67 750h138l327 -535h3v535h126v-750h-138l-327 535h-3v-535h-126v750zM518 933v-62l-309 -42v62z" />
    <glyph glyph-name="nacute" unicode="&#x144;" horiz-adv-x="638" 
d="M517.5 472.5c34.333 -36.333 51.501 -84.499 51.501 -144.499v-328h-125v297c0 35.333 -8.66699 63.5 -26 84.5s-43.666 31.5 -78.999 31.5c-28 0 -55.333 -8.33301 -82 -25s-46 -37.667 -58 -63v-325h-125v513h125v-64c21.333 25.333 47.166 44.666 77.499 57.999
s63.833 20 100.5 20c59.333 0 106.166 -18.167 140.499 -54.5zM479.001 754.001l-126 -142h-107l105 142h128z" />
    <glyph glyph-name="uni0145" unicode="&#x145;" horiz-adv-x="728" 
d="M67 750h138l327 -535h3v535h126v-750h-138l-327 535h-3v-535h-126v750zM439 -68l-70 -130h-80l39 130h111z" />
    <glyph glyph-name="uni0146" unicode="&#x146;" horiz-adv-x="638" 
d="M517.5 472.5c34.333 -36.333 51.501 -84.499 51.501 -144.499v-328h-125v297c0 35.333 -8.66699 63.5 -26 84.5s-43.666 31.5 -78.999 31.5c-28 0 -55.333 -8.33301 -82 -25s-46 -37.667 -58 -63v-325h-125v513h125v-64c21.333 25.333 47.166 44.666 77.499 57.999
s63.833 20 100.5 20c59.333 0 106.166 -18.167 140.499 -54.5zM393.001 -67.999l-70 -130h-80l39 130h111z" />
    <glyph glyph-name="Ncaron" unicode="&#x147;" horiz-adv-x="728" 
d="M67 750h138l327 -535h3v535h126v-750h-138l-327 535h-3v-535h-126v750zM498 937v-61l-131 -41h-3l-134 41v61l136 -39z" />
    <glyph glyph-name="ncaron" unicode="&#x148;" horiz-adv-x="638" 
d="M517.5 472.5c34.333 -36.333 51.501 -84.499 51.501 -144.499v-328h-125v297c0 35.333 -8.66699 63.5 -26 84.5s-43.666 31.5 -78.999 31.5c-28 0 -55.333 -8.33301 -82 -25s-46 -37.667 -58 -63v-325h-125v513h125v-64c21.333 25.333 47.166 44.666 77.499 57.999
s63.833 20 100.5 20c59.333 0 106.166 -18.167 140.499 -54.5zM489.001 754.001l-115 -142h-93l-115 142h107l52 -60l51 60h113z" />
    <glyph glyph-name="Eng" unicode="&#x14a;" horiz-adv-x="701" 
d="M661 750v-788c0 -52 -14 -92 -42 -120s-68.667 -42 -122 -42h-156v110h144c15.333 0 26.333 3.33301 33 10s10 17 10 31v40l-332 544h-3v-535h-126v750h138l327 -535h3v535h126z" />
    <glyph glyph-name="eng" unicode="&#x14b;" horiz-adv-x="643" 
d="M517.5 472.5c34.333 -36.333 51.5 -84.499 51.5 -144.499v-387c0 -44 -13.167 -78.5 -39.5 -103.5s-65.166 -37.5 -116.499 -37.5h-129v110h118c28 0 42 15 42 45v342c0 35.333 -8.66699 63.5 -26 84.5s-43.666 31.5 -78.999 31.5c-28 0 -55.333 -8.33301 -82 -25
s-46 -37.667 -58 -63v-325h-125v513h125v-64c21.333 25.333 47.166 44.666 77.499 57.999s63.833 20 100.5 20c59.333 0 106.166 -18.167 140.499 -54.5z" />
    <glyph glyph-name="Omacron" unicode="&#x14c;" horiz-adv-x="830" 
d="M220.5 35c-57 33.333 -101.333 79.666 -133 138.999s-47.5 126.333 -47.5 201s15.833 141.5 47.5 200.5s76 105.167 133 138.5s121.833 50 194.5 50s137.5 -16.667 194.5 -50s101.333 -79.5 133 -138.5s47.5 -125.833 47.5 -200.5s-15.833 -141.667 -47.5 -201
s-76 -105.666 -133 -138.999s-121.833 -50 -194.5 -50s-137.5 16.667 -194.5 50zM541 143c36 22 63.833 53 83.5 93s29.5 86 29.5 138c0 52.667 -9.83301 99 -29.5 139s-47.5 71 -83.5 93s-78 33 -126 33s-90 -11 -126 -33s-63.833 -53 -83.5 -93s-29.5 -86.333 -29.5 -139
c0 -52 9.83301 -98 29.5 -138s47.5 -71 83.5 -93s78 -33 126 -33s90 11 126 33zM574 908v-60h-318v60h318z" />
    <glyph glyph-name="omacron" unicode="&#x14d;" horiz-adv-x="644" 
d="M180.5 20c-41 23.333 -73 55.666 -96 96.999s-34.5 88 -34.5 140s11.5 98.5 34.5 139.5s55 73 96 96s88.167 34.5 141.5 34.5s100.666 -11.5 141.999 -34.5s73.333 -55 96 -96s34 -87.5 34 -139.5s-11.333 -98.667 -34 -140s-54.667 -73.666 -96 -96.999
s-88.666 -35 -141.999 -35s-100.5 11.667 -141.5 35zM428 140.5c26 29 39 67.833 39 116.5c0 48 -13 86.333 -39 115s-61.333 43 -106 43c-45.333 0 -80.833 -14.333 -106.5 -43s-38.5 -67 -38.5 -115c0 -48.667 12.833 -87.5 38.5 -116.5s61.167 -43.5 106.5 -43.5
c44.667 0 80 14.5 106 43.5zM505 707v-95h-367v95h367z" />
    <glyph glyph-name="Obreve" unicode="&#x14e;" horiz-adv-x="830" 
d="M220.5 35c-57 33.333 -101.333 79.666 -133 138.999s-47.5 126.333 -47.5 201s15.833 141.5 47.5 200.5s76 105.167 133 138.5s121.833 50 194.5 50s137.5 -16.667 194.5 -50s101.333 -79.5 133 -138.5s47.5 -125.833 47.5 -200.5s-15.833 -141.667 -47.5 -201
s-76 -105.666 -133 -138.999s-121.833 -50 -194.5 -50s-137.5 16.667 -194.5 50zM541 143c36 22 63.833 53 83.5 93s29.5 86 29.5 138c0 52.667 -9.83301 99 -29.5 139s-47.5 71 -83.5 93s-78 33 -126 33s-90 -11 -126 -33s-63.833 -53 -83.5 -93s-29.5 -86.333 -29.5 -139
c0 -52 9.83301 -98 29.5 -138s47.5 -71 83.5 -93s78 -33 126 -33s90 11 126 33zM298.5 863.5c-11.667 12.333 -17.5 29.5 -17.5 51.5v25h54v-14c0 -8.66699 1.83301 -14.834 5.5 -18.501s9.83398 -5.5 18.501 -5.5h111c8.66699 0 15 1.83301 19 5.5s6 9.83398 6 18.501v14
h54v-25c0 -22 -6.33301 -39.167 -19 -51.5s-30.334 -18.5 -53.001 -18.5h-125c-24 0 -41.833 6.16699 -53.5 18.5z" />
    <glyph glyph-name="obreve" unicode="&#x14f;" horiz-adv-x="644" 
d="M180.5 20c-41 23.333 -73 55.666 -96 96.999s-34.5 88 -34.5 140s11.5 98.5 34.5 139.5s55 73 96 96s88.167 34.5 141.5 34.5s100.666 -11.5 141.999 -34.5s73.333 -55 96 -96s34 -87.5 34 -139.5s-11.333 -98.667 -34 -140s-54.667 -73.666 -96 -96.999
s-88.666 -35 -141.999 -35s-100.5 11.667 -141.5 35zM428 140.5c26 29 39 67.833 39 116.5c0 48 -13 86.333 -39 115s-61.333 43 -106 43c-45.333 0 -80.833 -14.333 -106.5 -43s-38.5 -67 -38.5 -115c0 -48.667 12.833 -87.5 38.5 -116.5s61.167 -43.5 106.5 -43.5
c44.667 0 80 14.5 106 43.5zM189 628c-20 18 -30.001 43.333 -30.001 76v34h98v-23c0 -24.667 12.667 -37 38 -37h52c12.667 0 22.334 3.16699 29.001 9.5s10 15.5 10 27.5v23h98v-34c0 -32.667 -10.333 -58 -31 -76s-50.667 -27 -90 -27h-85c-39.333 0 -69 9 -89 27z" />
    <glyph glyph-name="Ohungarumlaut" unicode="&#x150;" horiz-adv-x="830" 
d="M220.5 35c-57 33.333 -101.333 79.666 -133 138.999s-47.5 126.333 -47.5 201s15.833 141.5 47.5 200.5s76 105.167 133 138.5s121.833 50 194.5 50s137.5 -16.667 194.5 -50s101.333 -79.5 133 -138.5s47.5 -125.833 47.5 -200.5s-15.833 -141.667 -47.5 -201
s-76 -105.666 -133 -138.999s-121.833 -50 -194.5 -50s-137.5 16.667 -194.5 50zM541 143c36 22 63.833 53 83.5 93s29.5 86 29.5 138c0 52.667 -9.83301 99 -29.5 139s-47.5 71 -83.5 93s-78 33 -126 33s-90 -11 -126 -33s-63.833 -53 -83.5 -93s-29.5 -86.333 -29.5 -139
c0 -52 9.83301 -98 29.5 -138s47.5 -71 83.5 -93s78 -33 126 -33s90 11 126 33zM484 915l-129 -67h-101l128 67h102zM675 915l-130 -67h-100l127 67h103z" />
    <glyph glyph-name="ohungarumlaut" unicode="&#x151;" horiz-adv-x="644" 
d="M180.5 20c-41 23.333 -73 55.666 -96 96.999s-34.5 88 -34.5 140s11.5 98.5 34.5 139.5s55 73 96 96s88.167 34.5 141.5 34.5s100.666 -11.5 141.999 -34.5s73.333 -55 96 -96s34 -87.5 34 -139.5s-11.333 -98.667 -34 -140s-54.667 -73.666 -96 -96.999
s-88.666 -35 -141.999 -35s-100.5 11.667 -141.5 35zM428 140.5c26 29 39 67.833 39 116.5c0 48 -13 86.333 -39 115s-61.333 43 -106 43c-45.333 0 -80.833 -14.333 -106.5 -43s-38.5 -67 -38.5 -115c0 -48.667 12.833 -87.5 38.5 -116.5s61.167 -43.5 106.5 -43.5
c44.667 0 80 14.5 106 43.5zM394 754l-91 -142h-102l88 142h105zM542 754l-95 -142h-101l90 142h106z" />
    <glyph glyph-name="OE" unicode="&#x152;" horiz-adv-x="1250" 
d="M1213 110v-109.997h-484v153c-32.667 -52.667 -76.167 -93.834 -130.5 -123.501s-115.5 -44.5 -183.5 -44.5c-72.667 0 -137.5 16.667 -194.5 50s-101.333 79.666 -133 138.999s-47.5 126.333 -47.5 201s15.833 141.5 47.5 200.5s76 105.167 133 138.5
s121.833 50 194.5 50c68.667 0 130 -14.833 184 -44.5s97.333 -70.834 130 -123.501v154h471v-110h-338v-186h294v-110h-294v-234h351zM541 143.003c36 22 63.833 53 83.5 93s29.5 86 29.5 138c0 52.667 -9.83301 99 -29.5 139s-47.5 71 -83.5 93s-78 33 -126 33
s-90 -11 -126 -33s-63.833 -53 -83.5 -93s-29.5 -86.333 -29.5 -139c0 -52 9.83301 -98 29.5 -138s47.5 -71 83.5 -93s78 -33 126 -33s90 11 126 33z" />
    <glyph glyph-name="oe" unicode="&#x153;" horiz-adv-x="1052" 
d="M1004 225h-401.001c5.33301 -42.667 20.166 -75.167 44.499 -97.5s57.833 -33.5 100.5 -33.5c28 0 52.333 5 73 15s37 22.333 49 37h131c-9.33301 -29.333 -26.666 -56.333 -51.999 -81s-55.833 -44.167 -91.5 -58.5s-72.834 -21.5 -111.501 -21.5
c-45.333 0 -86.166 9.16699 -122.499 27.5s-65.833 44.166 -88.5 77.499c-23.333 -33.333 -53.333 -59.166 -90 -77.499s-77.667 -27.5 -123 -27.5c-53.333 0 -100.5 11.667 -141.5 35s-73 55.666 -96 96.999s-34.5 88 -34.5 140s11.5 98.5 34.5 139.5s55 73 96 96
s88.167 34.5 141.5 34.5c46 0 87.333 -9.16699 124 -27.5s66.334 -44.166 89.001 -77.499c23.333 33.333 53 59.166 89 77.499s75.667 27.5 119 27.5c52 0 97.833 -10.833 137.5 -32.5s70.5 -52.667 92.5 -93s33 -87.833 33 -142.5c0 -15.333 -0.666992 -26.666 -2 -33.999z
M654.999 393.5c-22.667 -16.333 -38.333 -40.167 -47 -71.5h264c-14.667 64 -58 96 -130 96c-35.333 0 -64.333 -8.16699 -87 -24.5zM428 140.499c26 29 39 67.833 39 116.5c0 48 -13 86.333 -39 115s-61.333 43 -106 43c-45.333 0 -80.833 -14.333 -106.5 -43
s-38.5 -67 -38.5 -115c0 -48.667 12.833 -87.5 38.5 -116.5s61.167 -43.5 106.5 -43.5c44.667 0 80 14.5 106 43.5z" />
    <glyph glyph-name="Racute" unicode="&#x154;" horiz-adv-x="625" 
d="M557 418.5c-25.333 -34.333 -60.667 -58.166 -106 -71.499l142 -347h-141l-135 336h-117v-336h-133v750h298c47.333 0 88.333 -8.83301 123 -26.5s61.167 -42.334 79.5 -74.001s27.5 -67.834 27.5 -108.501c0 -47.333 -12.667 -88.166 -38 -122.499zM199.999 446h154
c35.333 0 61.333 9.16699 78 27.5s25 41.5 25 69.5s-8.16699 51.167 -24.5 69.5s-41.833 27.5 -76.5 27.5h-156v-194zM466.999 933v-62l-309 -42v62z" />
    <glyph glyph-name="racute" unicode="&#x155;" horiz-adv-x="422" 
d="M388 513v-110h-63c-30.667 0 -57 -5.66699 -79 -17s-39 -26 -51 -44v-342h-125v513h125v-75c36.667 50 84 75 142 75h51zM395 754l-126 -142h-107l105 142h128z" />
    <glyph glyph-name="uni0156" unicode="&#x156;" horiz-adv-x="625" 
d="M557 418.5c-25.333 -34.333 -60.667 -58.166 -106 -71.499l142 -347h-141l-135 336h-117v-336h-133v750h298c47.333 0 88.333 -8.83301 123 -26.5s61.167 -42.334 79.5 -74.001s27.5 -67.834 27.5 -108.501c0 -47.333 -12.667 -88.166 -38 -122.499zM199.999 446h154
c35.333 0 61.333 9.16699 78 27.5s25 41.5 25 69.5s-8.16699 51.167 -24.5 69.5s-41.833 27.5 -76.5 27.5h-156v-194zM384.999 -68l-70 -130h-80l39 130h111z" />
    <glyph glyph-name="uni0157" unicode="&#x157;" horiz-adv-x="422" 
d="M388 513v-110h-63c-30.667 0 -57 -5.66699 -79 -17s-39 -26 -51 -44v-342h-125v513h125v-75c36.667 50 84 75 142 75h51zM189 -68l-70 -130h-80l39 130h111z" />
    <glyph glyph-name="Rcaron" unicode="&#x158;" horiz-adv-x="625" 
d="M557 418.5c-25.333 -34.333 -60.667 -58.166 -106 -71.499l142 -347h-141l-135 336h-117v-336h-133v750h298c47.333 0 88.333 -8.83301 123 -26.5s61.167 -42.334 79.5 -74.001s27.5 -67.834 27.5 -108.501c0 -47.333 -12.667 -88.166 -38 -122.499zM199.999 446h154
c35.333 0 61.333 9.16699 78 27.5s25 41.5 25 69.5s-8.16699 51.167 -24.5 69.5s-41.833 27.5 -76.5 27.5h-156v-194zM446.999 937v-61l-131 -41h-3l-134 41v61l136 -39z" />
    <glyph glyph-name="rcaron" unicode="&#x159;" horiz-adv-x="422" 
d="M388 513v-110h-63c-30.667 0 -57 -5.66699 -79 -17s-39 -26 -51 -44v-342h-125v513h125v-75c36.667 50 84 75 142 75h51zM390 754l-115 -142h-93l-115 142h107l52 -60l51 60h113z" />
    <glyph glyph-name="Sacute" unicode="&#x15a;" horiz-adv-x="657" 
d="M120 58.5c-54.667 48.333 -83.0029 115.167 -85.0029 200.5h138c1.33301 -49.333 17.5 -87.833 48.5 -115.5s72.833 -41.5 125.5 -41.5c44 0 79.667 10 107 30s41 46.333 41 79c0 26 -5.66699 46.833 -17 62.5s-29.666 27.834 -54.999 36.501s-60.333 15 -105 19
c-87.333 7.33301 -152.333 28.666 -195 63.999s-64 85.666 -64 150.999c0 44 11 82.667 33 116s53 59 93 77s86.333 27 139 27c86.667 0 155.167 -21.167 205.5 -63.5s77.5 -102.166 81.5 -179.499h-137c-3.33301 41.333 -17.666 73.166 -42.999 95.499
s-60.333 33.5 -105 33.5c-41.333 0 -74.166 -8.83301 -98.499 -26.5s-36.5 -41.5 -36.5 -71.5c0 -24.667 5.66699 -44.334 17 -59.001s29.833 -26.167 55.5 -34.5s60.5 -14.166 104.5 -17.499c88.667 -7.33301 154 -28.666 196 -63.999s63 -87.333 63 -156
c0 -47.333 -11.5 -88.833 -34.5 -124.5s-56 -63 -99 -82s-93.167 -28.5 -150.5 -28.5c-94 0 -168.333 24.167 -223 72.5zM494.997 933.001v-62l-309 -42v62z" />
    <glyph glyph-name="sacute" unicode="&#x15b;" horiz-adv-x="534" 
d="M111 32.5c-41.333 31.667 -64.667 73.832 -70 126.499h128c5.33301 -22 17.333 -38.833 36 -50.5s43 -17.5 73 -17.5c32 0 57.167 5.5 75.5 16.5s27.5 26.167 27.5 45.5c0 14 -2.66699 25 -8 33s-16 14.333 -32 19s-39.667 7.66699 -71 9
c-78.667 3.33301 -134.167 17.333 -166.5 42s-48.5 61 -48.5 109c0 50.667 19.167 90.334 57.5 119.001s91.5 43 159.5 43c64.667 0 116 -13.667 154 -41s61 -64.666 69 -111.999h-125c-14.667 32.667 -47.667 49 -99 49c-29.333 0 -52.333 -4.66699 -69 -14
s-25 -22.333 -25 -39c0 -12 2.66699 -21.5 8 -28.5s15.666 -12.333 30.999 -16s38.333 -6.16699 69 -7.5c54.667 -2 98 -9.16699 130 -21.5s54.833 -29.833 68.5 -52.5s20.5 -51.334 20.5 -86.001c0 -54 -19.833 -96.333 -59.5 -127s-94.5 -46 -164.5 -46
c-71.333 0 -127.666 15.833 -168.999 47.5zM437.999 753.998l-126 -142h-107l105 142h128z" />
    <glyph glyph-name="Scircumflex" unicode="&#x15c;" horiz-adv-x="657" 
d="M120 58.5c-54.667 48.333 -83.0029 115.167 -85.0029 200.5h138c1.33301 -49.333 17.5 -87.833 48.5 -115.5s72.833 -41.5 125.5 -41.5c44 0 79.667 10 107 30s41 46.333 41 79c0 26 -5.66699 46.833 -17 62.5s-29.666 27.834 -54.999 36.501s-60.333 15 -105 19
c-87.333 7.33301 -152.333 28.666 -195 63.999s-64 85.666 -64 150.999c0 44 11 82.667 33 116s53 59 93 77s86.333 27 139 27c86.667 0 155.167 -21.167 205.5 -63.5s77.5 -102.166 81.5 -179.499h-137c-3.33301 41.333 -17.666 73.166 -42.999 95.499
s-60.333 33.5 -105 33.5c-41.333 0 -74.166 -8.83301 -98.499 -26.5s-36.5 -41.5 -36.5 -71.5c0 -24.667 5.66699 -44.334 17 -59.001s29.833 -26.167 55.5 -34.5s60.5 -14.166 104.5 -17.499c88.667 -7.33301 154 -28.666 196 -63.999s63 -87.333 63 -156
c0 -47.333 -11.5 -88.833 -34.5 -124.5s-56 -63 -99 -82s-93.167 -28.5 -150.5 -28.5c-94 0 -168.333 24.167 -223 72.5zM462.997 837.001l-132 39l-136 -39v60l134 41h3l131 -41v-60z" />
    <glyph glyph-name="scircumflex" unicode="&#x15d;" horiz-adv-x="534" 
d="M111 32.5c-41.333 31.667 -64.667 73.832 -70 126.499h128c5.33301 -22 17.333 -38.833 36 -50.5s43 -17.5 73 -17.5c32 0 57.167 5.5 75.5 16.5s27.5 26.167 27.5 45.5c0 14 -2.66699 25 -8 33s-16 14.333 -32 19s-39.667 7.66699 -71 9
c-78.667 3.33301 -134.167 17.333 -166.5 42s-48.5 61 -48.5 109c0 50.667 19.167 90.334 57.5 119.001s91.5 43 159.5 43c64.667 0 116 -13.667 154 -41s61 -64.666 69 -111.999h-125c-14.667 32.667 -47.667 49 -99 49c-29.333 0 -52.333 -4.66699 -69 -14
s-25 -22.333 -25 -39c0 -12 2.66699 -21.5 8 -28.5s15.666 -12.333 30.999 -16s38.333 -6.16699 69 -7.5c54.667 -2 98 -9.16699 130 -21.5s54.833 -29.833 68.5 -52.5s20.5 -51.334 20.5 -86.001c0 -54 -19.833 -96.333 -59.5 -127s-94.5 -46 -164.5 -46
c-71.333 0 -127.666 15.833 -168.999 47.5zM319.999 611.998l-51 60l-52 -60h-107l115 142h93l115 -142h-113z" />
    <glyph glyph-name="Scedilla" unicode="&#x15e;" horiz-adv-x="657" 
d="M565 62.5c-41.333 -41 -98.0049 -65.499 -170.005 -73.499v-78c0 -36.667 -9.66699 -64.334 -29 -83.001s-47.666 -28 -84.999 -28h-57v86h34c27.333 0 41 12.667 41 38v64c-81.333 7.33301 -145.166 34.833 -191.499 82.5s-70.5 110.5 -72.5 188.5h138
c1.33301 -49.333 17.5 -87.833 48.5 -115.5s72.833 -41.5 125.5 -41.5c44 0 79.667 10 107 30s41 46.333 41 79c0 26 -5.66699 46.833 -17 62.5s-29.666 27.834 -54.999 36.501s-60.333 15 -105 19c-87.333 7.33301 -152.333 28.666 -195 63.999s-64 85.666 -64 150.999
c0 44 11 82.667 33 116s53 59 93 77s86.333 27 139 27c86.667 0 155.167 -21.167 205.5 -63.5s77.5 -102.166 81.5 -179.499h-137c-3.33301 41.333 -17.666 73.166 -42.999 95.499s-60.333 33.5 -105 33.5c-41.333 0 -74.166 -8.83301 -98.499 -26.5
s-36.5 -41.5 -36.5 -71.5c0 -24.667 5.66699 -44.334 17 -59.001s29.833 -26.167 55.5 -34.5s60.5 -14.166 104.5 -17.499c88.667 -7.33301 154 -28.666 196 -63.999s63 -87.333 63 -156c0 -64.667 -20.667 -117.5 -62 -158.5z" />
    <glyph glyph-name="scedilla" unicode="&#x15f;" horiz-adv-x="534" 
d="M463 48.5c-27.333 -29 -66 -48.168 -116 -57.501v-80c0 -36.667 -9.66699 -64.334 -29 -83.001s-47.666 -28 -84.999 -28h-57v86h34c27.333 0 41 12.667 41 38v62c-62.667 4.66699 -112.167 22.334 -148.5 53.001s-56.833 70.667 -61.5 120h128
c5.33301 -22 17.333 -38.833 36 -50.5s43 -17.5 73 -17.5c32 0 57.167 5.5 75.5 16.5s27.5 26.167 27.5 45.5c0 14 -2.66699 25 -8 33s-16 14.333 -32 19s-39.667 7.66699 -71 9c-78.667 3.33301 -134.167 17.333 -166.5 42s-48.5 61 -48.5 109
c0 50.667 19.167 90.334 57.5 119.001s91.5 43 159.5 43c64.667 0 116 -13.667 154 -41s61 -64.666 69 -111.999h-125c-14.667 32.667 -47.667 49 -99 49c-29.333 0 -52.333 -4.66699 -69 -14s-25 -22.333 -25 -39c0 -12 2.66699 -21.5 8 -28.5s15.666 -12.333 30.999 -16
s38.333 -6.16699 69 -7.5c54.667 -2 98 -9.16699 130 -21.5s54.833 -29.833 68.5 -52.5s20.5 -51.334 20.5 -86.001c0 -44 -13.667 -80.5 -41 -109.5z" />
    <glyph glyph-name="Scaron" unicode="&#x160;" horiz-adv-x="657" 
d="M120 58.5c-54.667 48.333 -83.0029 115.167 -85.0029 200.5h138c1.33301 -49.333 17.5 -87.833 48.5 -115.5s72.833 -41.5 125.5 -41.5c44 0 79.667 10 107 30s41 46.333 41 79c0 26 -5.66699 46.833 -17 62.5s-29.666 27.834 -54.999 36.501s-60.333 15 -105 19
c-87.333 7.33301 -152.333 28.666 -195 63.999s-64 85.666 -64 150.999c0 44 11 82.667 33 116s53 59 93 77s86.333 27 139 27c86.667 0 155.167 -21.167 205.5 -63.5s77.5 -102.166 81.5 -179.499h-137c-3.33301 41.333 -17.666 73.166 -42.999 95.499
s-60.333 33.5 -105 33.5c-41.333 0 -74.166 -8.83301 -98.499 -26.5s-36.5 -41.5 -36.5 -71.5c0 -24.667 5.66699 -44.334 17 -59.001s29.833 -26.167 55.5 -34.5s60.5 -14.166 104.5 -17.499c88.667 -7.33301 154 -28.666 196 -63.999s63 -87.333 63 -156
c0 -47.333 -11.5 -88.833 -34.5 -124.5s-56 -63 -99 -82s-93.167 -28.5 -150.5 -28.5c-94 0 -168.333 24.167 -223 72.5zM462.997 937.001v-61l-131 -41h-3l-134 41v61l136 -39z" />
    <glyph glyph-name="scaron" unicode="&#x161;" horiz-adv-x="534" 
d="M111 32.5c-41.333 31.667 -64.667 73.832 -70 126.499h128c5.33301 -22 17.333 -38.833 36 -50.5s43 -17.5 73 -17.5c32 0 57.167 5.5 75.5 16.5s27.5 26.167 27.5 45.5c0 14 -2.66699 25 -8 33s-16 14.333 -32 19s-39.667 7.66699 -71 9
c-78.667 3.33301 -134.167 17.333 -166.5 42s-48.5 61 -48.5 109c0 50.667 19.167 90.334 57.5 119.001s91.5 43 159.5 43c64.667 0 116 -13.667 154 -41s61 -64.666 69 -111.999h-125c-14.667 32.667 -47.667 49 -99 49c-29.333 0 -52.333 -4.66699 -69 -14
s-25 -22.333 -25 -39c0 -12 2.66699 -21.5 8 -28.5s15.666 -12.333 30.999 -16s38.333 -6.16699 69 -7.5c54.667 -2 98 -9.16699 130 -21.5s54.833 -29.833 68.5 -52.5s20.5 -51.334 20.5 -86.001c0 -54 -19.833 -96.333 -59.5 -127s-94.5 -46 -164.5 -46
c-71.333 0 -127.666 15.833 -168.999 47.5zM432.999 753.998l-115 -142h-93l-115 142h107l52 -60l51 60h113z" />
    <glyph glyph-name="uni0162" unicode="&#x162;" horiz-adv-x="635" 
d="M605 750l-0.000976562 -109.999h-221v-640h-21v-89c0 -36.667 -9.66699 -64.334 -29 -83.001s-47.666 -28 -84.999 -28h-57v86h34c27.333 0 41 12.667 41 38v76h-16v640h-221v110h575z" />
    <glyph glyph-name="uni0163" unicode="&#x163;" horiz-adv-x="416" 
d="M224 403v-245.999c0 -31.333 15 -47 45 -47h119v-110h-82v-89c0 -36.667 -9.66699 -64.334 -29 -83.001s-47.666 -28 -84.999 -28h-57v86h34c27.333 0 41 12.667 41 38v80c-36.667 7.33301 -64.334 23 -83.001 47s-28 54 -28 90v262h-93v110h93v169h125v-169h164v-110
h-164z" />
    <glyph glyph-name="Tcaron" unicode="&#x164;" horiz-adv-x="635" 
d="M251 640h-221v110h575v-110h-221v-640h-133v640zM451 937v-61l-131 -41h-3l-134 41v61l136 -39z" />
    <glyph glyph-name="tcaron" unicode="&#x165;" horiz-adv-x="457" 
d="M326 750h131l-75 -163h-93zM139 37.5c-26.667 25 -40 59.5 -40 103.5v262h-93v110h93v169h125v-169h164v-110h-164v-246c0 -31.333 15 -47 45 -47h119v-110h-129c-53.333 0 -93.333 12.5 -120 37.5z" />
    <glyph glyph-name="Tbar" unicode="&#x166;" horiz-adv-x="635" 
d="M384 640v-215h95v-70h-95v-355h-133v355h-95v70h95v215h-221v110h575v-110h-221z" />
    <glyph glyph-name="tbar" unicode="&#x167;" horiz-adv-x="416" 
d="M224 403v-109h82v-76h-82v-61c0 -31.333 15 -47 45 -47h119v-110h-129c-53.333 0 -93.333 12.5 -120 37.5s-40 59.5 -40 103.5v77h-67v76h67v109h-93v110h93v169h125v-169h164v-110h-164z" />
    <glyph glyph-name="Utilde" unicode="&#x168;" horiz-adv-x="742" 
d="M648.5 135.5c-25.667 -48.333 -62.3311 -85.5 -109.998 -111.5s-103.5 -39 -167.5 -39c-63.333 0 -118.833 13 -166.5 39s-84.5 63.167 -110.5 111.5s-39 105.166 -39 170.499v444h133v-453c0 -58 16.167 -104.333 48.5 -139s77.166 -52 134.499 -52
s102.166 17.333 134.499 52s48.5 81 48.5 139v453h133v-444c0 -65.333 -12.833 -122.166 -38.5 -170.499zM530.003 908v-60h-318v60h318z" />
    <glyph glyph-name="utilde" unicode="&#x169;" horiz-adv-x="627" 
d="M553 513l-0.000976562 -513h-125v62c-20.667 -24.667 -45.834 -43.667 -75.501 -57s-62.167 -20 -97.5 -20c-57.333 0 -102.666 18.167 -135.999 54.5s-50 84.833 -50 145.5v328h125v-298c0 -35.333 8.33301 -63.5 25 -84.5s41.334 -31.5 74.001 -31.5
c26.667 0 53 8.33301 79 25s44.667 37.667 56 63v326h125zM492.999 707v-95h-367v95h367z" />
    </font>
</defs>
</svg>
