<svg xmlns="http://www.w3.org/2000/svg" viewBox="0 0 236.8 236.8"><defs><style>.cls-1{fill:#703082;}</style></defs><title>Asset 2</title><g id="Layer_2" data-name="Layer 2"><g id="Layer_1-2" data-name="Layer 1"><path class="cls-1" d="M118.4,0A118.4,118.4,0,1,0,236.8,118.4,118.53,118.53,0,0,0,118.4,0Zm0,224A105.57,105.57,0,1,1,224,118.4,105.29,105.29,0,0,1,118.4,224Z"/><path class="cls-1" d="M77.93,91.52A12.3,12.3,0,0,1,90.41,104h12.8a25.28,25.28,0,1,0-50.56,0h12.8A12.3,12.3,0,0,1,77.93,91.52Z"/><path class="cls-1" d="M158.87,91.52A12.29,12.29,0,0,1,171.34,104h12.8a25.28,25.28,0,1,0-50.55,0h12.8a12.3,12.3,0,0,1,12.48-12.48Z"/><path class="cls-1" d="M118.17,184a74.32,74.32,0,0,0,62.08-33.69l-10.75-6.95a60.8,60.8,0,0,1-102.21,0l-10.75,6.95a74.32,74.32,0,0,0,53.34,33.21,72.14,72.14,0,0,0,8.29.48Z"/></g></g></svg>